G75*
G70*
%OFA0B0*%
%FSLAX24Y24*%
%IPPOS*%
%LPD*%
%AMOC8*
5,1,8,0,0,1.08239X$1,22.5*
%
%ADD10C,0.0000*%
%ADD11C,0.0030*%
%ADD12C,0.0060*%
%ADD13C,0.0050*%
%ADD14C,0.0160*%
%ADD15C,0.0100*%
%ADD16C,0.0070*%
%ADD17C,0.0120*%
%ADD18C,0.0040*%
%ADD19R,0.0340X0.0240*%
%ADD20C,0.0240*%
%ADD21R,0.0900X0.0250*%
%ADD22R,0.0250X0.0900*%
%ADD23C,0.0080*%
%ADD24C,0.0020*%
%ADD25R,0.0240X0.0340*%
%ADD26R,0.0800X0.0200*%
%ADD27R,0.0200X0.0750*%
%ADD28C,0.0079*%
%ADD29R,0.0394X0.0197*%
%ADD30R,0.0420X0.0540*%
%ADD31R,0.0200X0.0800*%
%ADD32R,0.0250X0.0200*%
D10*
X000646Y000509D02*
X000646Y023344D01*
X026630Y023344D01*
X026630Y000509D01*
X000646Y000509D01*
X001201Y002312D02*
X001203Y002359D01*
X001209Y002405D01*
X001219Y002451D01*
X001232Y002496D01*
X001250Y002539D01*
X001271Y002581D01*
X001295Y002621D01*
X001323Y002658D01*
X001354Y002693D01*
X001388Y002726D01*
X001424Y002755D01*
X001463Y002781D01*
X001504Y002804D01*
X001547Y002823D01*
X001591Y002839D01*
X001636Y002851D01*
X001682Y002859D01*
X001729Y002863D01*
X001775Y002863D01*
X001822Y002859D01*
X001868Y002851D01*
X001913Y002839D01*
X001957Y002823D01*
X002000Y002804D01*
X002041Y002781D01*
X002080Y002755D01*
X002116Y002726D01*
X002150Y002693D01*
X002181Y002658D01*
X002209Y002621D01*
X002233Y002581D01*
X002254Y002539D01*
X002272Y002496D01*
X002285Y002451D01*
X002295Y002405D01*
X002301Y002359D01*
X002303Y002312D01*
X002301Y002265D01*
X002295Y002219D01*
X002285Y002173D01*
X002272Y002128D01*
X002254Y002085D01*
X002233Y002043D01*
X002209Y002003D01*
X002181Y001966D01*
X002150Y001931D01*
X002116Y001898D01*
X002080Y001869D01*
X002041Y001843D01*
X002000Y001820D01*
X001957Y001801D01*
X001913Y001785D01*
X001868Y001773D01*
X001822Y001765D01*
X001775Y001761D01*
X001729Y001761D01*
X001682Y001765D01*
X001636Y001773D01*
X001591Y001785D01*
X001547Y001801D01*
X001504Y001820D01*
X001463Y001843D01*
X001424Y001869D01*
X001388Y001898D01*
X001354Y001931D01*
X001323Y001966D01*
X001295Y002003D01*
X001271Y002043D01*
X001250Y002085D01*
X001232Y002128D01*
X001219Y002173D01*
X001209Y002219D01*
X001203Y002265D01*
X001201Y002312D01*
X015207Y001812D02*
X015209Y001846D01*
X015215Y001880D01*
X015225Y001913D01*
X015238Y001944D01*
X015256Y001974D01*
X015276Y002002D01*
X015300Y002027D01*
X015326Y002049D01*
X015354Y002067D01*
X015385Y002083D01*
X015417Y002095D01*
X015451Y002103D01*
X015485Y002107D01*
X015519Y002107D01*
X015553Y002103D01*
X015587Y002095D01*
X015619Y002083D01*
X015649Y002067D01*
X015678Y002049D01*
X015704Y002027D01*
X015728Y002002D01*
X015748Y001974D01*
X015766Y001944D01*
X015779Y001913D01*
X015789Y001880D01*
X015795Y001846D01*
X015797Y001812D01*
X015795Y001778D01*
X015789Y001744D01*
X015779Y001711D01*
X015766Y001680D01*
X015748Y001650D01*
X015728Y001622D01*
X015704Y001597D01*
X015678Y001575D01*
X015650Y001557D01*
X015619Y001541D01*
X015587Y001529D01*
X015553Y001521D01*
X015519Y001517D01*
X015485Y001517D01*
X015451Y001521D01*
X015417Y001529D01*
X015385Y001541D01*
X015354Y001557D01*
X015326Y001575D01*
X015300Y001597D01*
X015276Y001622D01*
X015256Y001650D01*
X015238Y001680D01*
X015225Y001711D01*
X015215Y001744D01*
X015209Y001778D01*
X015207Y001812D01*
X024951Y002312D02*
X024953Y002359D01*
X024959Y002405D01*
X024969Y002451D01*
X024982Y002496D01*
X025000Y002539D01*
X025021Y002581D01*
X025045Y002621D01*
X025073Y002658D01*
X025104Y002693D01*
X025138Y002726D01*
X025174Y002755D01*
X025213Y002781D01*
X025254Y002804D01*
X025297Y002823D01*
X025341Y002839D01*
X025386Y002851D01*
X025432Y002859D01*
X025479Y002863D01*
X025525Y002863D01*
X025572Y002859D01*
X025618Y002851D01*
X025663Y002839D01*
X025707Y002823D01*
X025750Y002804D01*
X025791Y002781D01*
X025830Y002755D01*
X025866Y002726D01*
X025900Y002693D01*
X025931Y002658D01*
X025959Y002621D01*
X025983Y002581D01*
X026004Y002539D01*
X026022Y002496D01*
X026035Y002451D01*
X026045Y002405D01*
X026051Y002359D01*
X026053Y002312D01*
X026051Y002265D01*
X026045Y002219D01*
X026035Y002173D01*
X026022Y002128D01*
X026004Y002085D01*
X025983Y002043D01*
X025959Y002003D01*
X025931Y001966D01*
X025900Y001931D01*
X025866Y001898D01*
X025830Y001869D01*
X025791Y001843D01*
X025750Y001820D01*
X025707Y001801D01*
X025663Y001785D01*
X025618Y001773D01*
X025572Y001765D01*
X025525Y001761D01*
X025479Y001761D01*
X025432Y001765D01*
X025386Y001773D01*
X025341Y001785D01*
X025297Y001801D01*
X025254Y001820D01*
X025213Y001843D01*
X025174Y001869D01*
X025138Y001898D01*
X025104Y001931D01*
X025073Y001966D01*
X025045Y002003D01*
X025021Y002043D01*
X025000Y002085D01*
X024982Y002128D01*
X024969Y002173D01*
X024959Y002219D01*
X024953Y002265D01*
X024951Y002312D01*
X024951Y021562D02*
X024953Y021609D01*
X024959Y021655D01*
X024969Y021701D01*
X024982Y021746D01*
X025000Y021789D01*
X025021Y021831D01*
X025045Y021871D01*
X025073Y021908D01*
X025104Y021943D01*
X025138Y021976D01*
X025174Y022005D01*
X025213Y022031D01*
X025254Y022054D01*
X025297Y022073D01*
X025341Y022089D01*
X025386Y022101D01*
X025432Y022109D01*
X025479Y022113D01*
X025525Y022113D01*
X025572Y022109D01*
X025618Y022101D01*
X025663Y022089D01*
X025707Y022073D01*
X025750Y022054D01*
X025791Y022031D01*
X025830Y022005D01*
X025866Y021976D01*
X025900Y021943D01*
X025931Y021908D01*
X025959Y021871D01*
X025983Y021831D01*
X026004Y021789D01*
X026022Y021746D01*
X026035Y021701D01*
X026045Y021655D01*
X026051Y021609D01*
X026053Y021562D01*
X026051Y021515D01*
X026045Y021469D01*
X026035Y021423D01*
X026022Y021378D01*
X026004Y021335D01*
X025983Y021293D01*
X025959Y021253D01*
X025931Y021216D01*
X025900Y021181D01*
X025866Y021148D01*
X025830Y021119D01*
X025791Y021093D01*
X025750Y021070D01*
X025707Y021051D01*
X025663Y021035D01*
X025618Y021023D01*
X025572Y021015D01*
X025525Y021011D01*
X025479Y021011D01*
X025432Y021015D01*
X025386Y021023D01*
X025341Y021035D01*
X025297Y021051D01*
X025254Y021070D01*
X025213Y021093D01*
X025174Y021119D01*
X025138Y021148D01*
X025104Y021181D01*
X025073Y021216D01*
X025045Y021253D01*
X025021Y021293D01*
X025000Y021335D01*
X024982Y021378D01*
X024969Y021423D01*
X024959Y021469D01*
X024953Y021515D01*
X024951Y021562D01*
X001201Y021562D02*
X001203Y021609D01*
X001209Y021655D01*
X001219Y021701D01*
X001232Y021746D01*
X001250Y021789D01*
X001271Y021831D01*
X001295Y021871D01*
X001323Y021908D01*
X001354Y021943D01*
X001388Y021976D01*
X001424Y022005D01*
X001463Y022031D01*
X001504Y022054D01*
X001547Y022073D01*
X001591Y022089D01*
X001636Y022101D01*
X001682Y022109D01*
X001729Y022113D01*
X001775Y022113D01*
X001822Y022109D01*
X001868Y022101D01*
X001913Y022089D01*
X001957Y022073D01*
X002000Y022054D01*
X002041Y022031D01*
X002080Y022005D01*
X002116Y021976D01*
X002150Y021943D01*
X002181Y021908D01*
X002209Y021871D01*
X002233Y021831D01*
X002254Y021789D01*
X002272Y021746D01*
X002285Y021701D01*
X002295Y021655D01*
X002301Y021609D01*
X002303Y021562D01*
X002301Y021515D01*
X002295Y021469D01*
X002285Y021423D01*
X002272Y021378D01*
X002254Y021335D01*
X002233Y021293D01*
X002209Y021253D01*
X002181Y021216D01*
X002150Y021181D01*
X002116Y021148D01*
X002080Y021119D01*
X002041Y021093D01*
X002000Y021070D01*
X001957Y021051D01*
X001913Y021035D01*
X001868Y021023D01*
X001822Y021015D01*
X001775Y021011D01*
X001729Y021011D01*
X001682Y021015D01*
X001636Y021023D01*
X001591Y021035D01*
X001547Y021051D01*
X001504Y021070D01*
X001463Y021093D01*
X001424Y021119D01*
X001388Y021148D01*
X001354Y021181D01*
X001323Y021216D01*
X001295Y021253D01*
X001271Y021293D01*
X001250Y021335D01*
X001232Y021378D01*
X001219Y021423D01*
X001209Y021469D01*
X001203Y021515D01*
X001201Y021562D01*
D11*
X007054Y016624D02*
X007116Y016686D01*
X007363Y016439D01*
X007424Y016501D01*
X007424Y016624D01*
X007363Y016686D01*
X007116Y016686D01*
X007054Y016624D02*
X007054Y016501D01*
X007116Y016439D01*
X007363Y016439D01*
X007363Y016318D02*
X007424Y016256D01*
X007424Y016132D01*
X007363Y016071D01*
X007116Y016318D01*
X007363Y016318D01*
X007116Y016318D02*
X007054Y016256D01*
X007054Y016132D01*
X007116Y016071D01*
X007363Y016071D01*
X007424Y015949D02*
X007424Y015702D01*
X007424Y015826D02*
X007054Y015826D01*
X007178Y015702D01*
X007759Y015066D02*
X007808Y015066D01*
X008001Y014872D01*
X008049Y014872D01*
X008001Y014771D02*
X008049Y014723D01*
X008049Y014626D01*
X008001Y014577D01*
X007808Y014577D01*
X007759Y014626D01*
X007759Y014723D01*
X007808Y014771D01*
X007759Y014872D02*
X007759Y015066D01*
X007424Y016807D02*
X007178Y016807D01*
X007178Y016993D01*
X007239Y017054D01*
X007424Y017054D01*
X011197Y017032D02*
X011487Y017032D01*
X011487Y016984D02*
X011487Y017080D01*
X011439Y017180D02*
X011487Y017228D01*
X011487Y017325D01*
X011439Y017374D01*
X011439Y017475D02*
X011487Y017523D01*
X011487Y017620D01*
X011439Y017668D01*
X011390Y017668D01*
X011342Y017620D01*
X011342Y017571D01*
X011342Y017620D02*
X011294Y017668D01*
X011245Y017668D01*
X011197Y017620D01*
X011197Y017523D01*
X011245Y017475D01*
X011245Y017374D02*
X011197Y017325D01*
X011197Y017228D01*
X011245Y017180D01*
X011439Y017180D01*
X011603Y016990D02*
X011603Y016894D01*
X011651Y016845D01*
X011651Y016744D02*
X011845Y016551D01*
X011893Y016599D01*
X011893Y016696D01*
X011845Y016744D01*
X011651Y016744D01*
X011603Y016696D01*
X011603Y016599D01*
X011651Y016551D01*
X011845Y016551D01*
X011651Y016450D02*
X011845Y016256D01*
X011893Y016256D01*
X011893Y016155D02*
X011893Y015961D01*
X011893Y016058D02*
X011603Y016058D01*
X011700Y015961D01*
X011748Y015860D02*
X011651Y015860D01*
X011603Y015812D01*
X011603Y015667D01*
X011893Y015667D01*
X011796Y015667D02*
X011796Y015812D01*
X011748Y015860D01*
X011651Y015566D02*
X011603Y015517D01*
X011603Y015420D01*
X011651Y015372D01*
X011845Y015372D01*
X011893Y015420D01*
X011893Y015517D01*
X011845Y015566D01*
X011893Y015271D02*
X011603Y015271D01*
X011700Y015174D01*
X011603Y015077D01*
X011893Y015077D01*
X011603Y016256D02*
X011603Y016450D01*
X011651Y016450D01*
X011893Y016845D02*
X011700Y017039D01*
X011651Y017039D01*
X011603Y016990D01*
X011748Y017140D02*
X011748Y017333D01*
X011651Y017435D02*
X011603Y017483D01*
X011603Y017580D01*
X011651Y017628D01*
X011700Y017628D01*
X011748Y017580D01*
X011796Y017628D01*
X011845Y017628D01*
X011893Y017580D01*
X011893Y017483D01*
X011845Y017435D01*
X011748Y017531D02*
X011748Y017580D01*
X011651Y017729D02*
X011603Y017778D01*
X011603Y017874D01*
X011651Y017923D01*
X011700Y017923D01*
X011748Y017874D01*
X011796Y017923D01*
X011845Y017923D01*
X011893Y017874D01*
X011893Y017778D01*
X011845Y017729D01*
X011748Y017826D02*
X011748Y017874D01*
X011893Y017039D02*
X011893Y016845D01*
X011197Y016984D02*
X011197Y017080D01*
X016123Y018338D02*
X016268Y018193D01*
X016268Y018386D01*
X016365Y018487D02*
X016413Y018487D01*
X016365Y018487D02*
X016171Y018681D01*
X016123Y018681D01*
X016123Y018487D01*
X016123Y018338D02*
X016413Y018338D01*
X016365Y018782D02*
X016171Y018975D01*
X016365Y018975D01*
X016413Y018927D01*
X016413Y018830D01*
X016365Y018782D01*
X016171Y018782D01*
X016123Y018830D01*
X016123Y018927D01*
X016171Y018975D01*
X016220Y019076D02*
X016220Y019222D01*
X016268Y019270D01*
X016365Y019270D01*
X016413Y019222D01*
X016413Y019076D01*
X016510Y019076D02*
X016220Y019076D01*
X020075Y014623D02*
X020269Y014623D01*
X020269Y014574D01*
X020075Y014381D01*
X020075Y014332D01*
X020370Y014236D02*
X020466Y014332D01*
X020418Y014332D01*
X020418Y014381D01*
X020466Y014381D01*
X020466Y014332D01*
X020566Y014381D02*
X020614Y014332D01*
X020711Y014332D01*
X020760Y014381D01*
X020760Y014478D01*
X020711Y014526D01*
X020663Y014526D01*
X020566Y014478D01*
X020566Y014623D01*
X020760Y014623D01*
X023579Y013930D02*
X023579Y013640D01*
X023725Y013640D01*
X023773Y013688D01*
X023773Y013737D01*
X023725Y013785D01*
X023579Y013785D01*
X023579Y013930D02*
X023725Y013930D01*
X023773Y013882D01*
X023773Y013833D01*
X023725Y013785D01*
X023874Y013882D02*
X023874Y013688D01*
X023922Y013640D01*
X024019Y013640D01*
X024068Y013688D01*
X024169Y013688D02*
X024217Y013640D01*
X024314Y013640D01*
X024362Y013688D01*
X024362Y013785D01*
X024314Y013833D01*
X024265Y013833D01*
X024169Y013785D01*
X024169Y013930D01*
X024362Y013930D01*
X024463Y013785D02*
X024657Y013785D01*
X024758Y013688D02*
X024758Y013640D01*
X024758Y013688D02*
X024951Y013882D01*
X024951Y013930D01*
X024758Y013930D01*
X024609Y013930D02*
X024463Y013785D01*
X024609Y013640D02*
X024609Y013930D01*
X025053Y013882D02*
X025053Y013688D01*
X025101Y013640D01*
X025198Y013640D01*
X025246Y013688D01*
X025246Y013882D02*
X025198Y013930D01*
X025101Y013930D01*
X025053Y013882D01*
X024068Y013882D02*
X024019Y013930D01*
X023922Y013930D01*
X023874Y013882D01*
X019591Y011115D02*
X019495Y011115D01*
X019543Y011163D02*
X019543Y010970D01*
X019591Y010921D01*
X019394Y010921D02*
X019394Y011115D01*
X019394Y010921D02*
X019248Y010921D01*
X019200Y010970D01*
X019200Y011115D01*
X019099Y011066D02*
X019099Y010970D01*
X019051Y010921D01*
X018954Y010921D01*
X018905Y010970D01*
X018905Y011066D01*
X018954Y011115D01*
X019051Y011115D01*
X019099Y011066D01*
X018804Y011018D02*
X018707Y010921D01*
X018611Y011018D01*
X018611Y011211D01*
X018804Y011211D02*
X018804Y011018D01*
X018954Y010729D02*
X018954Y010680D01*
X018954Y010583D02*
X018954Y010390D01*
X019002Y010390D02*
X018905Y010390D01*
X018804Y010487D02*
X018804Y010680D01*
X018905Y010583D02*
X018954Y010583D01*
X019102Y010583D02*
X019247Y010583D01*
X019295Y010535D01*
X019295Y010390D01*
X019102Y010390D02*
X019102Y010583D01*
X018804Y010487D02*
X018707Y010390D01*
X018611Y010487D01*
X018611Y010680D01*
X017144Y009430D02*
X016950Y009430D01*
X017047Y009430D02*
X017047Y009140D01*
X016849Y009188D02*
X016801Y009140D01*
X016704Y009140D01*
X016655Y009188D01*
X016704Y009285D02*
X016655Y009333D01*
X016655Y009382D01*
X016704Y009430D01*
X016801Y009430D01*
X016849Y009382D01*
X016801Y009285D02*
X016849Y009237D01*
X016849Y009188D01*
X016801Y009285D02*
X016704Y009285D01*
X016554Y009285D02*
X016554Y009382D01*
X016506Y009430D01*
X016361Y009430D01*
X016361Y009140D01*
X016361Y009237D02*
X016506Y009237D01*
X016554Y009285D01*
X016457Y009237D02*
X016554Y009140D01*
X016582Y008430D02*
X016582Y008140D01*
X016780Y008140D02*
X016974Y008430D01*
X016780Y008430D02*
X016974Y008140D01*
X016679Y008430D02*
X016486Y008430D01*
X016423Y007430D02*
X016568Y007430D01*
X016617Y007382D01*
X016617Y007285D01*
X016568Y007237D01*
X016423Y007237D01*
X016520Y007237D02*
X016617Y007140D01*
X016718Y007140D02*
X016911Y007430D01*
X016718Y007430D02*
X016911Y007140D01*
X016423Y007140D02*
X016423Y007430D01*
X016378Y006493D02*
X016329Y006444D01*
X016329Y006251D01*
X016378Y006202D01*
X016475Y006202D01*
X016523Y006251D01*
X016523Y006348D01*
X016426Y006348D01*
X016523Y006444D02*
X016475Y006493D01*
X016378Y006493D01*
X016624Y006493D02*
X016818Y006202D01*
X016818Y006493D01*
X016919Y006493D02*
X017064Y006493D01*
X017112Y006444D01*
X017112Y006251D01*
X017064Y006202D01*
X016919Y006202D01*
X016919Y006493D01*
X016624Y006493D02*
X016624Y006202D01*
X019610Y001447D02*
X019610Y001385D01*
X019610Y001262D02*
X019548Y001200D01*
X019548Y001077D01*
X019610Y001015D01*
X019733Y001015D01*
X019795Y001077D01*
X019795Y001200D01*
X019733Y001262D01*
X019610Y001262D01*
X019733Y001385D02*
X019733Y001447D01*
X019916Y001262D02*
X020040Y001262D01*
X019978Y001324D02*
X019978Y001077D01*
X020040Y001015D01*
X020162Y001015D02*
X020347Y001015D01*
X020409Y001077D01*
X020347Y001138D01*
X020224Y001138D01*
X020162Y001200D01*
X020224Y001262D01*
X020409Y001262D01*
X020530Y001200D02*
X020530Y001077D01*
X020592Y001015D01*
X020715Y001015D01*
X020777Y001138D02*
X020530Y001138D01*
X020530Y001200D02*
X020592Y001262D01*
X020715Y001262D01*
X020777Y001200D01*
X020777Y001138D01*
X020899Y001015D02*
X021022Y001015D01*
X020960Y001015D02*
X020960Y001262D01*
X020899Y001262D01*
X020960Y001385D02*
X020960Y001447D01*
X021144Y001262D02*
X021268Y001262D01*
X021206Y001324D02*
X021206Y001077D01*
X021268Y001015D01*
X021390Y001077D02*
X021390Y001200D01*
X021451Y001262D01*
X021575Y001262D01*
X021636Y001200D01*
X021636Y001138D01*
X021390Y001138D01*
X021390Y001077D02*
X021451Y001015D01*
X021575Y001015D01*
X021758Y001015D02*
X021758Y001077D01*
X021820Y001077D01*
X021820Y001015D01*
X021758Y001015D01*
X021758Y001200D02*
X021758Y001262D01*
X021820Y001262D01*
X021820Y001200D01*
X021758Y001200D01*
X019427Y001015D02*
X019180Y001015D01*
X019180Y001385D01*
X018689Y001385D02*
X018628Y001324D01*
X018628Y001015D01*
X018445Y001015D02*
X018445Y001262D01*
X018566Y001200D02*
X018689Y001200D01*
X018445Y001015D02*
X018259Y001015D01*
X018198Y001077D01*
X018198Y001262D01*
X018076Y001200D02*
X018076Y001015D01*
X017891Y001015D01*
X017829Y001077D01*
X017891Y001138D01*
X018076Y001138D01*
X018076Y001200D02*
X018015Y001262D01*
X017891Y001262D01*
X008038Y002701D02*
X008038Y002948D01*
X007792Y002948D02*
X007792Y002701D01*
X007915Y002577D01*
X008038Y002701D01*
X007670Y002763D02*
X007670Y002639D01*
X007608Y002577D01*
X007485Y002577D01*
X007423Y002639D01*
X007423Y002763D02*
X007547Y002824D01*
X007608Y002824D01*
X007670Y002763D01*
X007670Y002948D02*
X007423Y002948D01*
X007423Y002763D01*
X006652Y002701D02*
X006652Y002948D01*
X006405Y002948D02*
X006405Y002701D01*
X006529Y002577D01*
X006652Y002701D01*
X006284Y002701D02*
X006284Y002639D01*
X006222Y002577D01*
X006099Y002577D01*
X006037Y002639D01*
X005915Y002639D02*
X005915Y002577D01*
X005853Y002577D01*
X005853Y002639D01*
X005915Y002639D01*
X005915Y002577D02*
X005792Y002454D01*
X005670Y002639D02*
X005608Y002577D01*
X005485Y002577D01*
X005423Y002639D01*
X005547Y002763D02*
X005608Y002763D01*
X005670Y002701D01*
X005670Y002639D01*
X005608Y002763D02*
X005670Y002824D01*
X005670Y002886D01*
X005608Y002948D01*
X005485Y002948D01*
X005423Y002886D01*
X006037Y002886D02*
X006099Y002948D01*
X006222Y002948D01*
X006284Y002886D01*
X006284Y002824D01*
X006222Y002763D01*
X006284Y002701D01*
X006222Y002763D02*
X006160Y002763D01*
D12*
X005939Y002375D02*
X006189Y002125D01*
X006189Y001625D01*
X005939Y001375D01*
X005439Y001375D01*
X005189Y001625D01*
X005189Y002125D01*
X005439Y002375D01*
X005939Y002375D01*
X006189Y002125D02*
X006439Y002375D01*
X006939Y002375D01*
X007189Y002125D01*
X007439Y002375D01*
X007939Y002375D01*
X008189Y002125D01*
X008189Y001625D01*
X007939Y001375D01*
X007439Y001375D01*
X007189Y001625D01*
X007189Y002125D01*
X007189Y001625D01*
X006939Y001375D01*
X006439Y001375D01*
X006189Y001625D01*
X006189Y002125D01*
X006277Y001189D02*
X006277Y000762D01*
X006064Y000549D01*
X005850Y000762D01*
X005850Y001189D01*
X006495Y001082D02*
X006601Y001189D01*
X006815Y001189D01*
X006922Y001082D01*
X006922Y000976D01*
X006815Y000869D01*
X006922Y000762D01*
X006922Y000655D01*
X006815Y000549D01*
X006601Y000549D01*
X006495Y000655D01*
X006708Y000869D02*
X006815Y000869D01*
X007139Y000655D02*
X007246Y000655D01*
X007246Y000549D01*
X007139Y000549D01*
X007139Y000655D01*
X007461Y000655D02*
X007568Y000549D01*
X007782Y000549D01*
X007888Y000655D01*
X007888Y000869D01*
X007782Y000976D01*
X007675Y000976D01*
X007461Y000869D01*
X007461Y001189D01*
X007888Y001189D01*
X008106Y001082D02*
X008213Y001189D01*
X008426Y001189D01*
X008533Y001082D01*
X008533Y000976D01*
X008426Y000869D01*
X008533Y000762D01*
X008533Y000655D01*
X008426Y000549D01*
X008213Y000549D01*
X008106Y000655D01*
X008319Y000869D02*
X008426Y000869D01*
X009152Y002125D02*
X009852Y002125D01*
X009869Y002127D01*
X009886Y002131D01*
X009902Y002138D01*
X009916Y002148D01*
X009929Y002161D01*
X009939Y002175D01*
X009946Y002191D01*
X009950Y002208D01*
X009952Y002225D01*
X009952Y002375D01*
X009902Y002425D01*
X009902Y004325D01*
X009952Y004375D01*
X009952Y004525D01*
X009950Y004542D01*
X009946Y004559D01*
X009939Y004575D01*
X009929Y004589D01*
X009916Y004602D01*
X009902Y004612D01*
X009886Y004619D01*
X009869Y004623D01*
X009852Y004625D01*
X009152Y004625D01*
X009135Y004623D01*
X009118Y004619D01*
X009102Y004612D01*
X009088Y004602D01*
X009075Y004589D01*
X009065Y004575D01*
X009058Y004559D01*
X009054Y004542D01*
X009052Y004525D01*
X009052Y004375D01*
X009102Y004325D01*
X009102Y002425D01*
X009052Y002375D01*
X009052Y002225D01*
X009054Y002208D01*
X009058Y002191D01*
X009065Y002175D01*
X009075Y002161D01*
X009088Y002148D01*
X009102Y002138D01*
X009118Y002131D01*
X009135Y002127D01*
X009152Y002125D01*
X010089Y001251D02*
X010089Y000824D01*
X009876Y001038D02*
X010303Y001038D01*
X010528Y001444D02*
X010558Y001409D01*
X010589Y001376D01*
X010624Y001346D01*
X010660Y001319D01*
X010698Y001295D01*
X010738Y001273D01*
X010780Y001255D01*
X010823Y001239D01*
X010867Y001227D01*
X010911Y001219D01*
X010957Y001214D01*
X011002Y001212D01*
X011047Y001214D01*
X011093Y001219D01*
X011137Y001227D01*
X011181Y001239D01*
X011224Y001255D01*
X011266Y001273D01*
X011306Y001295D01*
X011344Y001319D01*
X011380Y001346D01*
X011415Y001376D01*
X011446Y001409D01*
X011476Y001444D01*
X011002Y002412D02*
X010956Y002410D01*
X010910Y002405D01*
X010864Y002396D01*
X010819Y002384D01*
X010776Y002368D01*
X010734Y002349D01*
X010693Y002326D01*
X010654Y002301D01*
X010618Y002273D01*
X010583Y002242D01*
X010551Y002208D01*
X010522Y002172D01*
X011002Y002412D02*
X011049Y002410D01*
X011097Y002404D01*
X011143Y002395D01*
X011189Y002382D01*
X011233Y002366D01*
X011277Y002346D01*
X011318Y002322D01*
X011357Y002296D01*
X011394Y002266D01*
X011429Y002233D01*
X011461Y002198D01*
X011490Y002161D01*
X012114Y003037D02*
X012114Y004337D01*
X012116Y004363D01*
X012121Y004389D01*
X012129Y004414D01*
X012141Y004437D01*
X012155Y004459D01*
X012173Y004478D01*
X012192Y004496D01*
X012214Y004510D01*
X012237Y004522D01*
X012262Y004530D01*
X012288Y004535D01*
X012314Y004537D01*
X012814Y004537D02*
X012840Y004535D01*
X012866Y004530D01*
X012891Y004522D01*
X012914Y004510D01*
X012936Y004496D01*
X012955Y004478D01*
X012973Y004459D01*
X012987Y004437D01*
X012999Y004414D01*
X013007Y004389D01*
X013012Y004363D01*
X013014Y004337D01*
X013014Y003037D01*
X013012Y003011D01*
X013007Y002985D01*
X012999Y002960D01*
X012987Y002937D01*
X012973Y002915D01*
X012955Y002896D01*
X012936Y002878D01*
X012914Y002864D01*
X012891Y002852D01*
X012866Y002844D01*
X012840Y002839D01*
X012814Y002837D01*
X012314Y002837D02*
X012288Y002839D01*
X012262Y002844D01*
X012237Y002852D01*
X012214Y002864D01*
X012192Y002878D01*
X012173Y002896D01*
X012155Y002915D01*
X012141Y002937D01*
X012129Y002960D01*
X012121Y002985D01*
X012116Y003011D01*
X012114Y003037D01*
X012564Y003187D02*
X012564Y003567D01*
X012564Y003817D02*
X012564Y004187D01*
X012933Y005862D02*
X012933Y015762D01*
X013783Y015762D01*
X013785Y015732D01*
X013790Y015702D01*
X013799Y015673D01*
X013812Y015646D01*
X013827Y015620D01*
X013846Y015596D01*
X013867Y015575D01*
X013891Y015556D01*
X013917Y015541D01*
X013944Y015528D01*
X013973Y015519D01*
X014003Y015514D01*
X014033Y015512D01*
X014063Y015514D01*
X014093Y015519D01*
X014122Y015528D01*
X014149Y015541D01*
X014175Y015556D01*
X014199Y015575D01*
X014220Y015596D01*
X014239Y015620D01*
X014254Y015646D01*
X014267Y015673D01*
X014276Y015702D01*
X014281Y015732D01*
X014283Y015762D01*
X015133Y015762D01*
X015133Y005862D01*
X012933Y005862D01*
X013913Y004306D02*
X013939Y004252D01*
X013969Y004198D01*
X014002Y004147D01*
X014038Y004098D01*
X014077Y004052D01*
X014120Y004008D01*
X014164Y003967D01*
X014212Y003929D01*
X014262Y003894D01*
X014314Y003862D01*
X014367Y003834D01*
X014423Y003809D01*
X014480Y003788D01*
X014538Y003770D01*
X014597Y003756D01*
X014657Y003746D01*
X014718Y003740D01*
X014779Y003738D01*
X014840Y003740D01*
X014900Y003745D01*
X014960Y003755D01*
X015020Y003768D01*
X015078Y003785D01*
X015135Y003806D01*
X015191Y003830D01*
X015245Y003858D01*
X015297Y003889D01*
X015347Y003924D01*
X015395Y003962D01*
X015440Y004002D01*
X015483Y004046D01*
X015483Y004045D02*
X015483Y005330D01*
X015483Y005329D02*
X015440Y005373D01*
X015395Y005413D01*
X015347Y005451D01*
X015297Y005486D01*
X015245Y005517D01*
X015191Y005545D01*
X015135Y005569D01*
X015078Y005590D01*
X015020Y005607D01*
X014960Y005620D01*
X014900Y005630D01*
X014840Y005635D01*
X014779Y005637D01*
X014718Y005635D01*
X014657Y005629D01*
X014597Y005619D01*
X014538Y005605D01*
X014480Y005587D01*
X014423Y005566D01*
X014367Y005541D01*
X014314Y005513D01*
X014262Y005481D01*
X014212Y005446D01*
X014164Y005408D01*
X014120Y005367D01*
X014077Y005323D01*
X014038Y005277D01*
X014002Y005228D01*
X013969Y005177D01*
X013939Y005123D01*
X013913Y005069D01*
X014652Y003012D02*
X015002Y003012D01*
X016002Y003012D01*
X016352Y003012D01*
X016702Y002212D02*
X016702Y002112D01*
X016802Y002112D01*
X016802Y001512D01*
X016702Y001512D01*
X016702Y001412D01*
X016352Y000612D02*
X015952Y000612D01*
X015002Y000612D01*
X014652Y000612D01*
X014302Y001412D02*
X014302Y001512D01*
X014202Y001512D01*
X014202Y002112D01*
X014302Y002112D01*
X014302Y002212D01*
X015402Y001812D02*
X015404Y001832D01*
X015410Y001850D01*
X015419Y001868D01*
X015431Y001883D01*
X015446Y001895D01*
X015464Y001904D01*
X015482Y001910D01*
X015502Y001912D01*
X015522Y001910D01*
X015540Y001904D01*
X015558Y001895D01*
X015573Y001883D01*
X015585Y001868D01*
X015594Y001850D01*
X015600Y001832D01*
X015602Y001812D01*
X015600Y001792D01*
X015594Y001774D01*
X015585Y001756D01*
X015573Y001741D01*
X015558Y001729D01*
X015540Y001720D01*
X015522Y001714D01*
X015502Y001712D01*
X015482Y001714D01*
X015464Y001720D01*
X015446Y001729D01*
X015431Y001741D01*
X015419Y001756D01*
X015410Y001774D01*
X015404Y001792D01*
X015402Y001812D01*
X014802Y001812D02*
X014804Y001864D01*
X014810Y001916D01*
X014820Y001968D01*
X014833Y002018D01*
X014850Y002068D01*
X014871Y002116D01*
X014896Y002162D01*
X014924Y002206D01*
X014955Y002248D01*
X014989Y002288D01*
X015026Y002325D01*
X015066Y002359D01*
X015108Y002390D01*
X015152Y002418D01*
X015198Y002443D01*
X015246Y002464D01*
X015296Y002481D01*
X015346Y002494D01*
X015398Y002504D01*
X015450Y002510D01*
X015502Y002512D01*
X015554Y002510D01*
X015606Y002504D01*
X015658Y002494D01*
X015708Y002481D01*
X015758Y002464D01*
X015806Y002443D01*
X015852Y002418D01*
X015896Y002390D01*
X015938Y002359D01*
X015978Y002325D01*
X016015Y002288D01*
X016049Y002248D01*
X016080Y002206D01*
X016108Y002162D01*
X016133Y002116D01*
X016154Y002068D01*
X016171Y002018D01*
X016184Y001968D01*
X016194Y001916D01*
X016200Y001864D01*
X016202Y001812D01*
X016200Y001760D01*
X016194Y001708D01*
X016184Y001656D01*
X016171Y001606D01*
X016154Y001556D01*
X016133Y001508D01*
X016108Y001462D01*
X016080Y001418D01*
X016049Y001376D01*
X016015Y001336D01*
X015978Y001299D01*
X015938Y001265D01*
X015896Y001234D01*
X015852Y001206D01*
X015806Y001181D01*
X015758Y001160D01*
X015708Y001143D01*
X015658Y001130D01*
X015606Y001120D01*
X015554Y001114D01*
X015502Y001112D01*
X015450Y001114D01*
X015398Y001120D01*
X015346Y001130D01*
X015296Y001143D01*
X015246Y001160D01*
X015198Y001181D01*
X015152Y001206D01*
X015108Y001234D01*
X015066Y001265D01*
X015026Y001299D01*
X014989Y001336D01*
X014955Y001376D01*
X014924Y001418D01*
X014896Y001462D01*
X014871Y001508D01*
X014850Y001556D01*
X014833Y001606D01*
X014820Y001656D01*
X014810Y001708D01*
X014804Y001760D01*
X014802Y001812D01*
X016696Y004081D02*
X016846Y004081D01*
X016896Y004131D01*
X018796Y004131D01*
X018846Y004081D01*
X018996Y004081D01*
X019013Y004083D01*
X019030Y004087D01*
X019046Y004094D01*
X019060Y004104D01*
X019073Y004117D01*
X019083Y004131D01*
X019090Y004147D01*
X019094Y004164D01*
X019096Y004181D01*
X019096Y004881D02*
X019094Y004898D01*
X019090Y004915D01*
X019083Y004931D01*
X019073Y004945D01*
X019060Y004958D01*
X019046Y004968D01*
X019030Y004975D01*
X019013Y004979D01*
X018996Y004981D01*
X018846Y004981D01*
X018796Y004931D01*
X016896Y004931D01*
X016846Y004981D01*
X016696Y004981D01*
X016679Y004979D01*
X016662Y004975D01*
X016646Y004968D01*
X016632Y004958D01*
X016619Y004945D01*
X016609Y004931D01*
X016602Y004915D01*
X016598Y004898D01*
X016596Y004881D01*
X016596Y004181D02*
X016598Y004164D01*
X016602Y004147D01*
X016609Y004131D01*
X016619Y004117D01*
X016632Y004104D01*
X016646Y004094D01*
X016662Y004087D01*
X016679Y004083D01*
X016696Y004081D01*
X017658Y005812D02*
X017408Y006062D01*
X017408Y006562D01*
X017658Y006812D01*
X017408Y007062D01*
X017408Y007562D01*
X017658Y007812D01*
X017408Y008062D01*
X017408Y008562D01*
X017658Y008812D01*
X017408Y009062D01*
X017408Y009562D01*
X017658Y009812D01*
X017408Y010062D01*
X017408Y010562D01*
X017658Y010812D01*
X017408Y011062D01*
X017408Y011562D01*
X017658Y011812D01*
X018158Y011812D01*
X018408Y011562D01*
X018408Y011062D01*
X018158Y010812D01*
X018408Y010562D01*
X018408Y010062D01*
X018158Y009812D01*
X017658Y009812D01*
X018158Y009812D02*
X018408Y009562D01*
X018408Y009062D01*
X018158Y008812D01*
X018408Y008562D01*
X018408Y008062D01*
X018158Y007812D01*
X018408Y007562D01*
X018408Y007062D01*
X018158Y006812D01*
X018408Y006562D01*
X018408Y006062D01*
X018158Y005812D01*
X017658Y005812D01*
X017658Y006812D02*
X018158Y006812D01*
X018158Y007812D02*
X017658Y007812D01*
X017658Y008812D02*
X018158Y008812D01*
X019177Y007056D02*
X019177Y005756D01*
X019179Y005730D01*
X019184Y005704D01*
X019192Y005679D01*
X019204Y005656D01*
X019218Y005634D01*
X019236Y005615D01*
X019255Y005597D01*
X019277Y005583D01*
X019300Y005571D01*
X019325Y005563D01*
X019351Y005558D01*
X019377Y005556D01*
X019627Y005906D02*
X019627Y006286D01*
X019627Y006536D02*
X019627Y006906D01*
X019877Y007256D02*
X019903Y007254D01*
X019929Y007249D01*
X019954Y007241D01*
X019977Y007229D01*
X019999Y007215D01*
X020018Y007197D01*
X020036Y007178D01*
X020050Y007156D01*
X020062Y007133D01*
X020070Y007108D01*
X020075Y007082D01*
X020077Y007056D01*
X020077Y005756D01*
X020075Y005730D01*
X020070Y005704D01*
X020062Y005679D01*
X020050Y005656D01*
X020036Y005634D01*
X020018Y005615D01*
X019999Y005597D01*
X019977Y005583D01*
X019954Y005571D01*
X019929Y005563D01*
X019903Y005558D01*
X019877Y005556D01*
X021088Y005575D02*
X021201Y005461D01*
X021088Y005575D02*
X021428Y005575D01*
X021428Y005688D02*
X021428Y005461D01*
X021371Y005829D02*
X021145Y005829D01*
X021088Y005886D01*
X021088Y006000D01*
X021145Y006056D01*
X021371Y005829D01*
X021428Y005886D01*
X021428Y006000D01*
X021371Y006056D01*
X021145Y006056D01*
X021145Y006198D02*
X021088Y006254D01*
X021088Y006368D01*
X021145Y006425D01*
X021371Y006198D01*
X021428Y006254D01*
X021428Y006368D01*
X021371Y006425D01*
X021145Y006425D01*
X021201Y006566D02*
X021201Y006736D01*
X021258Y006793D01*
X021428Y006793D01*
X021428Y006566D02*
X021201Y006566D01*
X021145Y006198D02*
X021371Y006198D01*
X021039Y007469D02*
X020339Y007469D01*
X020322Y007471D01*
X020305Y007475D01*
X020289Y007482D01*
X020275Y007492D01*
X020262Y007505D01*
X020252Y007519D01*
X020245Y007535D01*
X020241Y007552D01*
X020239Y007569D01*
X020239Y007719D01*
X020289Y007769D01*
X020289Y009669D01*
X020239Y009719D01*
X020239Y009869D01*
X020241Y009886D01*
X020245Y009903D01*
X020252Y009919D01*
X020262Y009933D01*
X020275Y009946D01*
X020289Y009956D01*
X020305Y009963D01*
X020322Y009967D01*
X020339Y009969D01*
X021039Y009969D01*
X021056Y009967D01*
X021073Y009963D01*
X021089Y009956D01*
X021103Y009946D01*
X021116Y009933D01*
X021126Y009919D01*
X021133Y009903D01*
X021137Y009886D01*
X021139Y009869D01*
X021139Y009719D01*
X021089Y009669D01*
X021089Y007769D01*
X021139Y007719D01*
X021139Y007569D01*
X021137Y007552D01*
X021133Y007535D01*
X021126Y007519D01*
X021116Y007505D01*
X021103Y007492D01*
X021089Y007482D01*
X021073Y007475D01*
X021056Y007471D01*
X021039Y007469D01*
X022539Y008019D02*
X022689Y008019D01*
X022739Y008069D01*
X024639Y008069D01*
X024689Y008019D01*
X024839Y008019D01*
X024856Y008021D01*
X024873Y008025D01*
X024889Y008032D01*
X024903Y008042D01*
X024916Y008055D01*
X024926Y008069D01*
X024933Y008085D01*
X024937Y008102D01*
X024939Y008119D01*
X024939Y008819D02*
X024937Y008836D01*
X024933Y008853D01*
X024926Y008869D01*
X024916Y008883D01*
X024903Y008896D01*
X024889Y008906D01*
X024873Y008913D01*
X024856Y008917D01*
X024839Y008919D01*
X024689Y008919D01*
X024639Y008869D01*
X022739Y008869D01*
X022689Y008919D01*
X022539Y008919D01*
X022522Y008917D01*
X022505Y008913D01*
X022489Y008906D01*
X022475Y008896D01*
X022462Y008883D01*
X022452Y008869D01*
X022445Y008853D01*
X022441Y008836D01*
X022439Y008819D01*
X022439Y008119D02*
X022441Y008102D01*
X022445Y008085D01*
X022452Y008069D01*
X022462Y008055D01*
X022475Y008042D01*
X022489Y008032D01*
X022505Y008025D01*
X022522Y008021D01*
X022539Y008019D01*
X023338Y007519D02*
X023452Y007633D01*
X023452Y007292D01*
X023565Y007292D02*
X023338Y007292D01*
X023446Y007169D02*
X024746Y007169D01*
X024670Y007292D02*
X024670Y007463D01*
X024613Y007519D01*
X024443Y007519D01*
X024443Y007292D01*
X024302Y007349D02*
X024302Y007576D01*
X024075Y007349D01*
X024131Y007292D01*
X024245Y007292D01*
X024302Y007349D01*
X024302Y007576D02*
X024245Y007633D01*
X024131Y007633D01*
X024075Y007576D01*
X024075Y007349D01*
X023933Y007349D02*
X023933Y007576D01*
X023706Y007349D01*
X023763Y007292D01*
X023877Y007292D01*
X023933Y007349D01*
X023706Y007349D02*
X023706Y007576D01*
X023763Y007633D01*
X023877Y007633D01*
X023933Y007576D01*
X023446Y007169D02*
X023420Y007167D01*
X023394Y007162D01*
X023369Y007154D01*
X023346Y007142D01*
X023324Y007128D01*
X023305Y007110D01*
X023287Y007091D01*
X023273Y007069D01*
X023261Y007046D01*
X023253Y007021D01*
X023248Y006995D01*
X023246Y006969D01*
X023596Y006719D02*
X023976Y006719D01*
X024226Y006719D02*
X024596Y006719D01*
X024946Y006969D02*
X024944Y006995D01*
X024939Y007021D01*
X024931Y007046D01*
X024919Y007069D01*
X024905Y007091D01*
X024887Y007110D01*
X024868Y007128D01*
X024846Y007142D01*
X024823Y007154D01*
X024798Y007162D01*
X024772Y007167D01*
X024746Y007169D01*
X024868Y007292D02*
X024868Y007576D01*
X024925Y007633D01*
X024925Y007463D02*
X024811Y007463D01*
X024946Y006469D02*
X024944Y006443D01*
X024939Y006417D01*
X024931Y006392D01*
X024919Y006369D01*
X024905Y006347D01*
X024887Y006328D01*
X024868Y006310D01*
X024846Y006296D01*
X024823Y006284D01*
X024798Y006276D01*
X024772Y006271D01*
X024746Y006269D01*
X023446Y006269D01*
X023420Y006271D01*
X023394Y006276D01*
X023369Y006284D01*
X023346Y006296D01*
X023324Y006310D01*
X023305Y006328D01*
X023287Y006347D01*
X023273Y006369D01*
X023261Y006392D01*
X023253Y006417D01*
X023248Y006443D01*
X023246Y006469D01*
X021139Y004306D02*
X021139Y004156D01*
X021089Y004106D01*
X021089Y002206D01*
X021139Y002156D01*
X021139Y002006D01*
X021137Y001989D01*
X021133Y001972D01*
X021126Y001956D01*
X021116Y001942D01*
X021103Y001929D01*
X021089Y001919D01*
X021073Y001912D01*
X021056Y001908D01*
X021039Y001906D01*
X021771Y001944D02*
X021771Y002094D01*
X021821Y002144D01*
X021821Y004044D01*
X021771Y004094D01*
X021771Y004244D01*
X021773Y004261D01*
X021777Y004278D01*
X021784Y004294D01*
X021794Y004308D01*
X021807Y004321D01*
X021821Y004331D01*
X021837Y004338D01*
X021854Y004342D01*
X021871Y004344D01*
X022571Y004344D02*
X022588Y004342D01*
X022605Y004338D01*
X022621Y004331D01*
X022635Y004321D01*
X022648Y004308D01*
X022658Y004294D01*
X022665Y004278D01*
X022669Y004261D01*
X022671Y004244D01*
X022671Y004094D01*
X022621Y004044D01*
X022621Y002144D01*
X022671Y002094D01*
X022671Y001944D01*
X022669Y001927D01*
X022665Y001910D01*
X022658Y001894D01*
X022648Y001880D01*
X022635Y001867D01*
X022621Y001857D01*
X022605Y001850D01*
X022588Y001846D01*
X022571Y001844D01*
X023114Y001975D02*
X023114Y002125D01*
X023164Y002175D01*
X023164Y004075D01*
X023114Y004125D01*
X023114Y004275D01*
X023116Y004292D01*
X023120Y004309D01*
X023127Y004325D01*
X023137Y004339D01*
X023150Y004352D01*
X023164Y004362D01*
X023180Y004369D01*
X023197Y004373D01*
X023214Y004375D01*
X023914Y004375D02*
X023931Y004373D01*
X023948Y004369D01*
X023964Y004362D01*
X023978Y004352D01*
X023991Y004339D01*
X024001Y004325D01*
X024008Y004309D01*
X024012Y004292D01*
X024014Y004275D01*
X024014Y004125D01*
X023964Y004075D01*
X023964Y002175D01*
X024014Y002125D01*
X024014Y001975D01*
X024012Y001958D01*
X024008Y001941D01*
X024001Y001925D01*
X023991Y001911D01*
X023978Y001898D01*
X023964Y001888D01*
X023948Y001881D01*
X023931Y001877D01*
X023914Y001875D01*
X023214Y001875D02*
X023197Y001877D01*
X023180Y001881D01*
X023164Y001888D01*
X023150Y001898D01*
X023137Y001911D01*
X023127Y001925D01*
X023120Y001941D01*
X023116Y001958D01*
X023114Y001975D01*
X021871Y001844D02*
X021854Y001846D01*
X021837Y001850D01*
X021821Y001857D01*
X021807Y001867D01*
X021794Y001880D01*
X021784Y001894D01*
X021777Y001910D01*
X021773Y001927D01*
X021771Y001944D01*
X020339Y001906D02*
X020322Y001908D01*
X020305Y001912D01*
X020289Y001919D01*
X020275Y001929D01*
X020262Y001942D01*
X020252Y001956D01*
X020245Y001972D01*
X020241Y001989D01*
X020239Y002006D01*
X020239Y002156D01*
X020289Y002206D01*
X020289Y004106D01*
X020239Y004156D01*
X020239Y004306D01*
X020241Y004323D01*
X020245Y004340D01*
X020252Y004356D01*
X020262Y004370D01*
X020275Y004383D01*
X020289Y004393D01*
X020305Y004400D01*
X020322Y004404D01*
X020339Y004406D01*
X021039Y004406D02*
X021056Y004404D01*
X021073Y004400D01*
X021089Y004393D01*
X021103Y004383D01*
X021116Y004370D01*
X021126Y004356D01*
X021133Y004340D01*
X021137Y004323D01*
X021139Y004306D01*
X019177Y007056D02*
X019179Y007082D01*
X019184Y007108D01*
X019192Y007133D01*
X019204Y007156D01*
X019218Y007178D01*
X019236Y007197D01*
X019255Y007215D01*
X019277Y007229D01*
X019300Y007241D01*
X019325Y007249D01*
X019351Y007254D01*
X019377Y007256D01*
X017108Y010662D02*
X017108Y011962D01*
X017106Y011988D01*
X017101Y012014D01*
X017093Y012039D01*
X017081Y012062D01*
X017067Y012084D01*
X017049Y012103D01*
X017030Y012121D01*
X017008Y012135D01*
X016985Y012147D01*
X016960Y012155D01*
X016934Y012160D01*
X016908Y012162D01*
X016658Y011812D02*
X016658Y011432D01*
X016658Y011182D02*
X016658Y010812D01*
X016408Y010462D02*
X016382Y010464D01*
X016356Y010469D01*
X016331Y010477D01*
X016308Y010489D01*
X016286Y010503D01*
X016267Y010521D01*
X016249Y010540D01*
X016235Y010562D01*
X016223Y010585D01*
X016215Y010610D01*
X016210Y010636D01*
X016208Y010662D01*
X016208Y011962D01*
X016210Y011988D01*
X016215Y012014D01*
X016223Y012039D01*
X016235Y012062D01*
X016249Y012084D01*
X016267Y012103D01*
X016286Y012121D01*
X016308Y012135D01*
X016331Y012147D01*
X016356Y012155D01*
X016382Y012160D01*
X016408Y012162D01*
X017658Y010812D02*
X018158Y010812D01*
X017108Y010662D02*
X017106Y010636D01*
X017101Y010610D01*
X017093Y010585D01*
X017081Y010562D01*
X017067Y010540D01*
X017049Y010521D01*
X017030Y010503D01*
X017008Y010489D01*
X016985Y010477D01*
X016960Y010469D01*
X016934Y010464D01*
X016908Y010462D01*
X020133Y011331D02*
X020283Y011331D01*
X020333Y011381D01*
X022233Y011381D01*
X022283Y011331D01*
X022433Y011331D01*
X022450Y011333D01*
X022467Y011337D01*
X022483Y011344D01*
X022497Y011354D01*
X022510Y011367D01*
X022520Y011381D01*
X022527Y011397D01*
X022531Y011414D01*
X022533Y011431D01*
X022533Y012131D02*
X022531Y012148D01*
X022527Y012165D01*
X022520Y012181D01*
X022510Y012195D01*
X022497Y012208D01*
X022483Y012218D01*
X022467Y012225D01*
X022450Y012229D01*
X022433Y012231D01*
X022283Y012231D01*
X022233Y012181D01*
X020333Y012181D01*
X020283Y012231D01*
X020133Y012231D01*
X020116Y012229D01*
X020099Y012225D01*
X020083Y012218D01*
X020069Y012208D01*
X020056Y012195D01*
X020046Y012181D01*
X020039Y012165D01*
X020035Y012148D01*
X020033Y012131D01*
X020133Y012331D02*
X020283Y012331D01*
X020333Y012381D01*
X022233Y012381D01*
X022283Y012331D01*
X022433Y012331D01*
X022450Y012333D01*
X022467Y012337D01*
X022483Y012344D01*
X022497Y012354D01*
X022510Y012367D01*
X022520Y012381D01*
X022527Y012397D01*
X022531Y012414D01*
X022533Y012431D01*
X022533Y013131D02*
X022531Y013148D01*
X022527Y013165D01*
X022520Y013181D01*
X022510Y013195D01*
X022497Y013208D01*
X022483Y013218D01*
X022467Y013225D01*
X022450Y013229D01*
X022433Y013231D01*
X022283Y013231D01*
X022233Y013181D01*
X020333Y013181D01*
X020283Y013231D01*
X020133Y013231D01*
X020116Y013229D01*
X020099Y013225D01*
X020083Y013218D01*
X020069Y013208D01*
X020056Y013195D01*
X020046Y013181D01*
X020039Y013165D01*
X020035Y013148D01*
X020033Y013131D01*
X020133Y013331D02*
X020283Y013331D01*
X020333Y013381D01*
X022233Y013381D01*
X022283Y013331D01*
X022433Y013331D01*
X022450Y013333D01*
X022467Y013337D01*
X022483Y013344D01*
X022497Y013354D01*
X022510Y013367D01*
X022520Y013381D01*
X022527Y013397D01*
X022531Y013414D01*
X022533Y013431D01*
X022533Y014131D02*
X022531Y014148D01*
X022527Y014165D01*
X022520Y014181D01*
X022510Y014195D01*
X022497Y014208D01*
X022483Y014218D01*
X022467Y014225D01*
X022450Y014229D01*
X022433Y014231D01*
X022283Y014231D01*
X022233Y014181D01*
X020333Y014181D01*
X020283Y014231D01*
X020133Y014231D01*
X020116Y014229D01*
X020099Y014225D01*
X020083Y014218D01*
X020069Y014208D01*
X020056Y014195D01*
X020046Y014181D01*
X020039Y014165D01*
X020035Y014148D01*
X020033Y014131D01*
X020033Y013431D02*
X020035Y013414D01*
X020039Y013397D01*
X020046Y013381D01*
X020056Y013367D01*
X020069Y013354D01*
X020083Y013344D01*
X020099Y013337D01*
X020116Y013333D01*
X020133Y013331D01*
X020033Y012431D02*
X020035Y012414D01*
X020039Y012397D01*
X020046Y012381D01*
X020056Y012367D01*
X020069Y012354D01*
X020083Y012344D01*
X020099Y012337D01*
X020116Y012333D01*
X020133Y012331D01*
X020033Y011431D02*
X020035Y011414D01*
X020039Y011397D01*
X020046Y011381D01*
X020056Y011367D01*
X020069Y011354D01*
X020083Y011344D01*
X020099Y011337D01*
X020116Y011333D01*
X020133Y011331D01*
X023539Y010450D02*
X024839Y010450D01*
X024865Y010448D01*
X024891Y010443D01*
X024916Y010435D01*
X024939Y010423D01*
X024961Y010409D01*
X024980Y010391D01*
X024998Y010372D01*
X025012Y010350D01*
X025024Y010327D01*
X025032Y010302D01*
X025037Y010276D01*
X025039Y010250D01*
X024689Y010000D02*
X024309Y010000D01*
X024059Y010000D02*
X023689Y010000D01*
X023339Y009750D02*
X023341Y009724D01*
X023346Y009698D01*
X023354Y009673D01*
X023366Y009650D01*
X023380Y009628D01*
X023398Y009609D01*
X023417Y009591D01*
X023439Y009577D01*
X023462Y009565D01*
X023487Y009557D01*
X023513Y009552D01*
X023539Y009550D01*
X024839Y009550D01*
X024865Y009552D01*
X024891Y009557D01*
X024916Y009565D01*
X024939Y009577D01*
X024961Y009591D01*
X024980Y009609D01*
X024998Y009628D01*
X025012Y009650D01*
X025024Y009673D01*
X025032Y009698D01*
X025037Y009724D01*
X025039Y009750D01*
X023539Y010450D02*
X023513Y010448D01*
X023487Y010443D01*
X023462Y010435D01*
X023439Y010423D01*
X023417Y010409D01*
X023398Y010391D01*
X023380Y010372D01*
X023366Y010350D01*
X023354Y010327D01*
X023346Y010302D01*
X023341Y010276D01*
X023339Y010250D01*
X025009Y011067D02*
X025063Y011093D01*
X025117Y011123D01*
X025168Y011156D01*
X025217Y011192D01*
X025263Y011231D01*
X025307Y011274D01*
X025348Y011318D01*
X025386Y011366D01*
X025421Y011416D01*
X025453Y011468D01*
X025481Y011521D01*
X025506Y011577D01*
X025527Y011634D01*
X025545Y011692D01*
X025559Y011751D01*
X025569Y011811D01*
X025575Y011872D01*
X025577Y011933D01*
X025575Y011994D01*
X025570Y012054D01*
X025560Y012114D01*
X025547Y012174D01*
X025530Y012232D01*
X025509Y012289D01*
X025485Y012345D01*
X025457Y012399D01*
X025426Y012451D01*
X025391Y012501D01*
X025353Y012549D01*
X025313Y012594D01*
X025269Y012637D01*
X023985Y012637D01*
X023941Y012594D01*
X023901Y012549D01*
X023863Y012501D01*
X023828Y012451D01*
X023797Y012399D01*
X023769Y012345D01*
X023745Y012289D01*
X023724Y012232D01*
X023707Y012174D01*
X023694Y012114D01*
X023684Y012054D01*
X023679Y011994D01*
X023677Y011933D01*
X023679Y011872D01*
X023685Y011811D01*
X023695Y011751D01*
X023709Y011692D01*
X023727Y011634D01*
X023748Y011577D01*
X023773Y011521D01*
X023801Y011468D01*
X023833Y011416D01*
X023868Y011366D01*
X023906Y011318D01*
X023947Y011274D01*
X023991Y011231D01*
X024037Y011192D01*
X024086Y011156D01*
X024137Y011123D01*
X024191Y011093D01*
X024245Y011067D01*
X025127Y013187D02*
X025129Y013231D01*
X025135Y013275D01*
X025145Y013318D01*
X025158Y013360D01*
X025175Y013401D01*
X025196Y013440D01*
X025220Y013477D01*
X025247Y013512D01*
X025277Y013544D01*
X025310Y013574D01*
X025346Y013600D01*
X025383Y013624D01*
X025423Y013643D01*
X025464Y013660D01*
X025507Y013672D01*
X025550Y013681D01*
X025594Y013686D01*
X025638Y013687D01*
X025682Y013684D01*
X025726Y013677D01*
X025769Y013666D01*
X025811Y013652D01*
X025851Y013634D01*
X025890Y013612D01*
X025926Y013588D01*
X025960Y013560D01*
X025992Y013529D01*
X026021Y013495D01*
X026047Y013459D01*
X026069Y013421D01*
X026088Y013381D01*
X026103Y013339D01*
X026115Y013297D01*
X026123Y013253D01*
X026127Y013209D01*
X026127Y013165D01*
X026123Y013121D01*
X026115Y013077D01*
X026103Y013035D01*
X026088Y012993D01*
X026069Y012953D01*
X026047Y012915D01*
X026021Y012879D01*
X025992Y012845D01*
X025960Y012814D01*
X025926Y012786D01*
X025890Y012762D01*
X025851Y012740D01*
X025811Y012722D01*
X025769Y012708D01*
X025726Y012697D01*
X025682Y012690D01*
X025638Y012687D01*
X025594Y012688D01*
X025550Y012693D01*
X025507Y012702D01*
X025464Y012714D01*
X025423Y012731D01*
X025383Y012750D01*
X025346Y012774D01*
X025310Y012800D01*
X025277Y012830D01*
X025247Y012862D01*
X025220Y012897D01*
X025196Y012934D01*
X025175Y012973D01*
X025158Y013014D01*
X025145Y013056D01*
X025135Y013099D01*
X025129Y013143D01*
X025127Y013187D01*
X022877Y016406D02*
X022879Y016450D01*
X022885Y016494D01*
X022895Y016537D01*
X022908Y016579D01*
X022925Y016620D01*
X022946Y016659D01*
X022970Y016696D01*
X022997Y016731D01*
X023027Y016763D01*
X023060Y016793D01*
X023096Y016819D01*
X023133Y016843D01*
X023173Y016862D01*
X023214Y016879D01*
X023257Y016891D01*
X023300Y016900D01*
X023344Y016905D01*
X023388Y016906D01*
X023432Y016903D01*
X023476Y016896D01*
X023519Y016885D01*
X023561Y016871D01*
X023601Y016853D01*
X023640Y016831D01*
X023676Y016807D01*
X023710Y016779D01*
X023742Y016748D01*
X023771Y016714D01*
X023797Y016678D01*
X023819Y016640D01*
X023838Y016600D01*
X023853Y016558D01*
X023865Y016516D01*
X023873Y016472D01*
X023877Y016428D01*
X023877Y016384D01*
X023873Y016340D01*
X023865Y016296D01*
X023853Y016254D01*
X023838Y016212D01*
X023819Y016172D01*
X023797Y016134D01*
X023771Y016098D01*
X023742Y016064D01*
X023710Y016033D01*
X023676Y016005D01*
X023640Y015981D01*
X023601Y015959D01*
X023561Y015941D01*
X023519Y015927D01*
X023476Y015916D01*
X023432Y015909D01*
X023388Y015906D01*
X023344Y015907D01*
X023300Y015912D01*
X023257Y015921D01*
X023214Y015933D01*
X023173Y015950D01*
X023133Y015969D01*
X023096Y015993D01*
X023060Y016019D01*
X023027Y016049D01*
X022997Y016081D01*
X022970Y016116D01*
X022946Y016153D01*
X022925Y016192D01*
X022908Y016233D01*
X022895Y016275D01*
X022885Y016318D01*
X022879Y016362D01*
X022877Y016406D01*
X022552Y017412D02*
X021952Y017412D01*
X021935Y017414D01*
X021918Y017418D01*
X021902Y017425D01*
X021888Y017435D01*
X021875Y017448D01*
X021865Y017462D01*
X021858Y017478D01*
X021854Y017495D01*
X021852Y017512D01*
X021852Y019112D01*
X021854Y019129D01*
X021858Y019146D01*
X021865Y019162D01*
X021875Y019176D01*
X021888Y019189D01*
X021902Y019199D01*
X021918Y019206D01*
X021935Y019210D01*
X021952Y019212D01*
X022552Y019212D01*
X022569Y019210D01*
X022586Y019206D01*
X022602Y019199D01*
X022616Y019189D01*
X022629Y019176D01*
X022639Y019162D01*
X022646Y019146D01*
X022650Y019129D01*
X022652Y019112D01*
X022652Y017512D01*
X022650Y017495D01*
X022646Y017478D01*
X022639Y017462D01*
X022629Y017448D01*
X022616Y017435D01*
X022602Y017425D01*
X022586Y017418D01*
X022569Y017414D01*
X022552Y017412D01*
X022252Y018062D02*
X022252Y018312D01*
X022502Y018312D01*
X022252Y018312D02*
X022002Y018312D01*
X022252Y018312D02*
X022002Y018712D01*
X022502Y018712D01*
X022252Y018312D01*
X022252Y018912D01*
X020683Y018156D02*
X018383Y018156D01*
X018383Y022156D01*
X019133Y022156D01*
X019135Y022117D01*
X019141Y022078D01*
X019150Y022040D01*
X019163Y022003D01*
X019180Y021967D01*
X019200Y021934D01*
X019224Y021902D01*
X019250Y021873D01*
X019279Y021847D01*
X019311Y021823D01*
X019344Y021803D01*
X019380Y021786D01*
X019417Y021773D01*
X019455Y021764D01*
X019494Y021758D01*
X019533Y021756D01*
X019572Y021758D01*
X019611Y021764D01*
X019649Y021773D01*
X019686Y021786D01*
X019722Y021803D01*
X019755Y021823D01*
X019787Y021847D01*
X019816Y021873D01*
X019842Y021902D01*
X019866Y021934D01*
X019886Y021967D01*
X019903Y022003D01*
X019916Y022040D01*
X019925Y022078D01*
X019931Y022117D01*
X019933Y022156D01*
X020683Y022156D01*
X020683Y018156D01*
X020183Y017200D02*
X020033Y017200D01*
X019983Y017150D01*
X018083Y017150D01*
X018033Y017200D01*
X017883Y017200D01*
X017866Y017198D01*
X017849Y017194D01*
X017833Y017187D01*
X017819Y017177D01*
X017806Y017164D01*
X017796Y017150D01*
X017789Y017134D01*
X017785Y017117D01*
X017783Y017100D01*
X017783Y016400D01*
X017785Y016383D01*
X017789Y016366D01*
X017796Y016350D01*
X017806Y016336D01*
X017819Y016323D01*
X017833Y016313D01*
X017849Y016306D01*
X017866Y016302D01*
X017883Y016300D01*
X018033Y016300D01*
X018083Y016350D01*
X019983Y016350D01*
X020033Y016300D01*
X020183Y016300D01*
X020200Y016302D01*
X020217Y016306D01*
X020233Y016313D01*
X020247Y016323D01*
X020260Y016336D01*
X020270Y016350D01*
X020277Y016366D01*
X020281Y016383D01*
X020283Y016400D01*
X020283Y017100D01*
X020281Y017117D01*
X020277Y017134D01*
X020270Y017150D01*
X020260Y017164D01*
X020247Y017177D01*
X020233Y017187D01*
X020217Y017194D01*
X020200Y017198D01*
X020183Y017200D01*
X018877Y017337D02*
X018877Y018037D01*
X018875Y018054D01*
X018871Y018071D01*
X018864Y018087D01*
X018854Y018101D01*
X018841Y018114D01*
X018827Y018124D01*
X018811Y018131D01*
X018794Y018135D01*
X018777Y018137D01*
X018627Y018137D01*
X018577Y018087D01*
X016677Y018087D01*
X016627Y018137D01*
X016477Y018137D01*
X016460Y018135D01*
X016443Y018131D01*
X016427Y018124D01*
X016413Y018114D01*
X016400Y018101D01*
X016390Y018087D01*
X016383Y018071D01*
X016379Y018054D01*
X016377Y018037D01*
X016377Y017337D01*
X016379Y017320D01*
X016383Y017303D01*
X016390Y017287D01*
X016400Y017273D01*
X016413Y017260D01*
X016427Y017250D01*
X016443Y017243D01*
X016460Y017239D01*
X016477Y017237D01*
X016627Y017237D01*
X016677Y017287D01*
X018577Y017287D01*
X018627Y017237D01*
X018777Y017237D01*
X018794Y017239D01*
X018811Y017243D01*
X018827Y017250D01*
X018841Y017260D01*
X018854Y017273D01*
X018864Y017287D01*
X018871Y017303D01*
X018875Y017320D01*
X018877Y017337D01*
X018852Y016200D02*
X019002Y016200D01*
X019052Y016150D01*
X020952Y016150D01*
X021002Y016200D01*
X021152Y016200D01*
X021169Y016198D01*
X021186Y016194D01*
X021202Y016187D01*
X021216Y016177D01*
X021229Y016164D01*
X021239Y016150D01*
X021246Y016134D01*
X021250Y016117D01*
X021252Y016100D01*
X021252Y015400D02*
X021250Y015383D01*
X021246Y015366D01*
X021239Y015350D01*
X021229Y015336D01*
X021216Y015323D01*
X021202Y015313D01*
X021186Y015306D01*
X021169Y015302D01*
X021152Y015300D01*
X021002Y015300D01*
X020952Y015350D01*
X019052Y015350D01*
X019002Y015300D01*
X018852Y015300D01*
X018835Y015302D01*
X018818Y015306D01*
X018802Y015313D01*
X018788Y015323D01*
X018775Y015336D01*
X018765Y015350D01*
X018758Y015366D01*
X018754Y015383D01*
X018752Y015400D01*
X018183Y015262D02*
X016883Y015262D01*
X016857Y015260D01*
X016831Y015255D01*
X016806Y015247D01*
X016783Y015235D01*
X016761Y015221D01*
X016742Y015203D01*
X016724Y015184D01*
X016710Y015162D01*
X016698Y015139D01*
X016690Y015114D01*
X016685Y015088D01*
X016683Y015062D01*
X017033Y014812D02*
X017403Y014812D01*
X017653Y014812D02*
X018033Y014812D01*
X018383Y015062D02*
X018381Y015088D01*
X018376Y015114D01*
X018368Y015139D01*
X018356Y015162D01*
X018342Y015184D01*
X018324Y015203D01*
X018305Y015221D01*
X018283Y015235D01*
X018260Y015247D01*
X018235Y015255D01*
X018209Y015260D01*
X018183Y015262D01*
X018383Y014562D02*
X018381Y014536D01*
X018376Y014510D01*
X018368Y014485D01*
X018356Y014462D01*
X018342Y014440D01*
X018324Y014421D01*
X018305Y014403D01*
X018283Y014389D01*
X018260Y014377D01*
X018235Y014369D01*
X018209Y014364D01*
X018183Y014362D01*
X016883Y014362D01*
X016857Y014364D01*
X016831Y014369D01*
X016806Y014377D01*
X016783Y014389D01*
X016761Y014403D01*
X016742Y014421D01*
X016724Y014440D01*
X016710Y014462D01*
X016698Y014485D01*
X016690Y014510D01*
X016685Y014536D01*
X016683Y014562D01*
X018752Y016100D02*
X018754Y016117D01*
X018758Y016134D01*
X018765Y016150D01*
X018775Y016164D01*
X018788Y016177D01*
X018802Y016187D01*
X018818Y016194D01*
X018835Y016198D01*
X018852Y016200D01*
X017283Y018306D02*
X016783Y018306D01*
X016757Y018308D01*
X016731Y018313D01*
X016706Y018321D01*
X016683Y018333D01*
X016661Y018347D01*
X016642Y018365D01*
X016624Y018384D01*
X016610Y018406D01*
X016598Y018429D01*
X016590Y018454D01*
X016585Y018480D01*
X016583Y018506D01*
X016583Y019806D01*
X016585Y019832D01*
X016590Y019858D01*
X016598Y019883D01*
X016610Y019906D01*
X016624Y019928D01*
X016642Y019947D01*
X016661Y019965D01*
X016683Y019979D01*
X016706Y019991D01*
X016731Y019999D01*
X016757Y020004D01*
X016783Y020006D01*
X017283Y020006D01*
X017309Y020004D01*
X017335Y019999D01*
X017360Y019991D01*
X017383Y019979D01*
X017405Y019965D01*
X017424Y019947D01*
X017442Y019928D01*
X017456Y019906D01*
X017468Y019883D01*
X017476Y019858D01*
X017481Y019832D01*
X017483Y019806D01*
X017483Y018506D01*
X017481Y018480D01*
X017476Y018454D01*
X017468Y018429D01*
X017456Y018406D01*
X017442Y018384D01*
X017424Y018365D01*
X017405Y018347D01*
X017383Y018333D01*
X017360Y018321D01*
X017335Y018313D01*
X017309Y018308D01*
X017283Y018306D01*
X014427Y019737D02*
X014127Y019737D01*
X014277Y019887D02*
X014277Y019587D01*
X013627Y018887D02*
X013627Y018787D01*
X014077Y018787D01*
X014077Y018537D01*
X013177Y018537D01*
X013177Y018787D01*
X013627Y018787D01*
X011877Y018437D02*
X011879Y018523D01*
X011885Y018609D01*
X011896Y018694D01*
X011911Y018778D01*
X011929Y018862D01*
X011952Y018945D01*
X011979Y019027D01*
X012010Y019107D01*
X012045Y019185D01*
X012084Y019262D01*
X012126Y019337D01*
X012172Y019409D01*
X012221Y019479D01*
X012274Y019547D01*
X012330Y019612D01*
X012390Y019674D01*
X012452Y019734D01*
X012517Y019790D01*
X012585Y019843D01*
X012655Y019892D01*
X012727Y019938D01*
X012802Y019980D01*
X012879Y020019D01*
X012957Y020054D01*
X013037Y020085D01*
X013119Y020112D01*
X013202Y020135D01*
X013286Y020153D01*
X013370Y020168D01*
X013455Y020179D01*
X013541Y020185D01*
X013627Y020187D01*
X013713Y020185D01*
X013799Y020179D01*
X013884Y020168D01*
X013968Y020153D01*
X014052Y020135D01*
X014135Y020112D01*
X014217Y020085D01*
X014297Y020054D01*
X014375Y020019D01*
X014452Y019980D01*
X014527Y019938D01*
X014599Y019892D01*
X014669Y019843D01*
X014737Y019790D01*
X014802Y019734D01*
X014864Y019674D01*
X014924Y019612D01*
X014980Y019547D01*
X015033Y019479D01*
X015082Y019409D01*
X015128Y019337D01*
X015170Y019262D01*
X015209Y019185D01*
X015244Y019107D01*
X015275Y019027D01*
X015302Y018945D01*
X015325Y018862D01*
X015343Y018778D01*
X015358Y018694D01*
X015369Y018609D01*
X015375Y018523D01*
X015377Y018437D01*
X015375Y018351D01*
X015369Y018265D01*
X015358Y018180D01*
X015343Y018096D01*
X015325Y018012D01*
X015302Y017929D01*
X015275Y017847D01*
X015244Y017767D01*
X015209Y017689D01*
X015170Y017612D01*
X015128Y017537D01*
X015082Y017465D01*
X015033Y017395D01*
X014980Y017327D01*
X014924Y017262D01*
X014864Y017200D01*
X014802Y017140D01*
X014737Y017084D01*
X014669Y017031D01*
X014599Y016982D01*
X014527Y016936D01*
X014452Y016894D01*
X014375Y016855D01*
X014297Y016820D01*
X014217Y016789D01*
X014135Y016762D01*
X014052Y016739D01*
X013968Y016721D01*
X013884Y016706D01*
X013799Y016695D01*
X013713Y016689D01*
X013627Y016687D01*
X013541Y016689D01*
X013455Y016695D01*
X013370Y016706D01*
X013286Y016721D01*
X013202Y016739D01*
X013119Y016762D01*
X013037Y016789D01*
X012957Y016820D01*
X012879Y016855D01*
X012802Y016894D01*
X012727Y016936D01*
X012655Y016982D01*
X012585Y017031D01*
X012517Y017084D01*
X012452Y017140D01*
X012390Y017200D01*
X012330Y017262D01*
X012274Y017327D01*
X012221Y017395D01*
X012172Y017465D01*
X012126Y017537D01*
X012084Y017612D01*
X012045Y017689D01*
X012010Y017767D01*
X011979Y017847D01*
X011952Y017929D01*
X011929Y018012D01*
X011911Y018096D01*
X011896Y018180D01*
X011885Y018265D01*
X011879Y018351D01*
X011877Y018437D01*
X013627Y018187D02*
X013627Y017987D01*
X011110Y016525D02*
X010952Y016525D01*
X010889Y015975D02*
X009240Y015975D01*
X008514Y015850D02*
X008514Y017150D01*
X008512Y017176D01*
X008507Y017202D01*
X008499Y017227D01*
X008487Y017250D01*
X008473Y017272D01*
X008455Y017291D01*
X008436Y017309D01*
X008414Y017323D01*
X008391Y017335D01*
X008366Y017343D01*
X008340Y017348D01*
X008314Y017350D01*
X008064Y017000D02*
X008064Y016630D01*
X008064Y016380D02*
X008064Y016000D01*
X007814Y015650D02*
X007788Y015652D01*
X007762Y015657D01*
X007737Y015665D01*
X007714Y015677D01*
X007692Y015691D01*
X007673Y015709D01*
X007655Y015728D01*
X007641Y015750D01*
X007629Y015773D01*
X007621Y015798D01*
X007616Y015824D01*
X007614Y015850D01*
X007614Y017150D01*
X007616Y017176D01*
X007621Y017202D01*
X007629Y017227D01*
X007641Y017250D01*
X007655Y017272D01*
X007673Y017291D01*
X007692Y017309D01*
X007714Y017323D01*
X007737Y017335D01*
X007762Y017343D01*
X007788Y017348D01*
X007814Y017350D01*
X009019Y016525D02*
X009177Y016525D01*
X009239Y015975D02*
X009202Y016026D01*
X009167Y016079D01*
X009135Y016135D01*
X009107Y016192D01*
X009083Y016251D01*
X009062Y016311D01*
X009045Y016372D01*
X009031Y016434D01*
X009022Y016497D01*
X009016Y016560D01*
X009014Y016624D01*
X009016Y016688D01*
X009022Y016751D01*
X009031Y016814D01*
X009044Y016876D01*
X009062Y016937D01*
X009082Y016997D01*
X009107Y017056D01*
X009135Y017113D01*
X009166Y017169D01*
X009200Y017222D01*
X009238Y017273D01*
X009279Y017322D01*
X009323Y017368D01*
X009369Y017412D01*
X009418Y017453D01*
X009469Y017490D01*
X009523Y017525D01*
X009578Y017556D01*
X009635Y017584D01*
X009694Y017608D01*
X009754Y017628D01*
X010375Y017628D02*
X010435Y017608D01*
X010494Y017584D01*
X010551Y017556D01*
X010606Y017525D01*
X010660Y017490D01*
X010711Y017453D01*
X010760Y017412D01*
X010806Y017368D01*
X010850Y017322D01*
X010891Y017273D01*
X010929Y017222D01*
X010963Y017169D01*
X010995Y017113D01*
X011022Y017056D01*
X011047Y016997D01*
X011067Y016937D01*
X011085Y016876D01*
X011098Y016814D01*
X011107Y016751D01*
X011113Y016688D01*
X011115Y016624D01*
X011113Y016560D01*
X011107Y016497D01*
X011098Y016434D01*
X011084Y016372D01*
X011067Y016311D01*
X011046Y016251D01*
X011022Y016192D01*
X010994Y016135D01*
X010962Y016079D01*
X010927Y016026D01*
X010890Y015975D01*
X009214Y015062D02*
X009216Y015120D01*
X009222Y015178D01*
X009232Y015235D01*
X009246Y015291D01*
X009263Y015347D01*
X009284Y015401D01*
X009309Y015453D01*
X009338Y015504D01*
X009370Y015552D01*
X009405Y015598D01*
X009443Y015642D01*
X009484Y015683D01*
X009528Y015721D01*
X009574Y015756D01*
X009622Y015788D01*
X009673Y015817D01*
X009725Y015842D01*
X009779Y015863D01*
X009835Y015880D01*
X009891Y015894D01*
X009948Y015904D01*
X010006Y015910D01*
X010064Y015912D01*
X010122Y015910D01*
X010180Y015904D01*
X010237Y015894D01*
X010293Y015880D01*
X010349Y015863D01*
X010403Y015842D01*
X010455Y015817D01*
X010506Y015788D01*
X010554Y015756D01*
X010600Y015721D01*
X010644Y015683D01*
X010685Y015642D01*
X010723Y015598D01*
X010758Y015552D01*
X010790Y015504D01*
X010819Y015453D01*
X010844Y015401D01*
X010865Y015347D01*
X010882Y015291D01*
X010896Y015235D01*
X010906Y015178D01*
X010912Y015120D01*
X010914Y015062D01*
X010912Y015004D01*
X010906Y014946D01*
X010896Y014889D01*
X010882Y014833D01*
X010865Y014777D01*
X010844Y014723D01*
X010819Y014671D01*
X010790Y014620D01*
X010758Y014572D01*
X010723Y014526D01*
X010685Y014482D01*
X010644Y014441D01*
X010600Y014403D01*
X010554Y014368D01*
X010506Y014336D01*
X010455Y014307D01*
X010403Y014282D01*
X010349Y014261D01*
X010293Y014244D01*
X010237Y014230D01*
X010180Y014220D01*
X010122Y014214D01*
X010064Y014212D01*
X010006Y014214D01*
X009948Y014220D01*
X009891Y014230D01*
X009835Y014244D01*
X009779Y014261D01*
X009725Y014282D01*
X009673Y014307D01*
X009622Y014336D01*
X009574Y014368D01*
X009528Y014403D01*
X009484Y014441D01*
X009443Y014482D01*
X009405Y014526D01*
X009370Y014572D01*
X009338Y014620D01*
X009309Y014671D01*
X009284Y014723D01*
X009263Y014777D01*
X009246Y014833D01*
X009232Y014889D01*
X009222Y014946D01*
X009216Y015004D01*
X009214Y015062D01*
X009714Y014462D02*
X009914Y014462D01*
X010164Y014462D02*
X010364Y014462D01*
X010264Y014562D02*
X010264Y014362D01*
X008514Y015850D02*
X008512Y015824D01*
X008507Y015798D01*
X008499Y015773D01*
X008487Y015750D01*
X008473Y015728D01*
X008455Y015709D01*
X008436Y015691D01*
X008414Y015677D01*
X008391Y015665D01*
X008366Y015657D01*
X008340Y015652D01*
X008314Y015650D01*
X006152Y017325D02*
X006152Y017925D01*
X006150Y017942D01*
X006146Y017959D01*
X006139Y017975D01*
X006129Y017989D01*
X006116Y018002D01*
X006102Y018012D01*
X006086Y018019D01*
X006069Y018023D01*
X006052Y018025D01*
X004452Y018025D01*
X004435Y018023D01*
X004418Y018019D01*
X004402Y018012D01*
X004388Y018002D01*
X004375Y017989D01*
X004365Y017975D01*
X004358Y017959D01*
X004354Y017942D01*
X004352Y017925D01*
X004352Y017325D01*
X004354Y017308D01*
X004358Y017291D01*
X004365Y017275D01*
X004375Y017261D01*
X004388Y017248D01*
X004402Y017238D01*
X004418Y017231D01*
X004435Y017227D01*
X004452Y017225D01*
X006052Y017225D01*
X006069Y017227D01*
X006086Y017231D01*
X006102Y017238D01*
X006116Y017248D01*
X006129Y017261D01*
X006139Y017275D01*
X006146Y017291D01*
X006150Y017308D01*
X006152Y017325D01*
X005502Y017625D02*
X005252Y017625D01*
X005252Y017875D01*
X005252Y017625D02*
X005252Y017375D01*
X005252Y017625D02*
X004852Y017375D01*
X004852Y017875D01*
X005252Y017625D01*
X004652Y017625D01*
X003952Y018137D02*
X003952Y018737D01*
X003552Y018437D01*
X003552Y018137D01*
X003552Y018437D02*
X003952Y018137D01*
X003552Y018437D02*
X003552Y018737D01*
X002615Y018644D02*
X002015Y018644D01*
X002315Y019044D01*
X002015Y019044D01*
X002315Y019044D02*
X002615Y019044D01*
X002315Y019044D02*
X002615Y018644D01*
X002502Y016812D02*
X004002Y016812D01*
X004252Y016562D01*
X004252Y016062D01*
X004002Y015812D01*
X002502Y015812D01*
X002252Y015562D01*
X002252Y015062D01*
X002502Y014812D01*
X004002Y014812D01*
X004252Y014562D01*
X004252Y014062D01*
X004002Y013812D01*
X002502Y013812D01*
X002252Y013562D01*
X002252Y013062D01*
X002502Y012812D01*
X004002Y012812D01*
X004252Y012562D01*
X004252Y012062D01*
X004002Y011812D01*
X002502Y011812D01*
X002252Y011562D01*
X002252Y011062D01*
X002502Y010812D01*
X004002Y010812D01*
X004252Y010562D01*
X004252Y010062D01*
X004002Y009812D01*
X002502Y009812D01*
X002252Y010062D01*
X002252Y010562D01*
X002502Y010812D01*
X002502Y009812D02*
X002252Y009562D01*
X002252Y009062D01*
X002502Y008812D01*
X004002Y008812D01*
X004252Y008562D01*
X004252Y008062D01*
X004002Y007812D01*
X004252Y007562D01*
X004252Y007062D01*
X004002Y006812D01*
X002502Y006812D01*
X002252Y007062D01*
X002252Y007562D01*
X002502Y007812D01*
X004002Y007812D01*
X004002Y008812D02*
X004252Y009062D01*
X004252Y009562D01*
X004002Y009812D01*
X004002Y010812D02*
X004252Y011062D01*
X004252Y011562D01*
X004002Y011812D01*
X004002Y012812D02*
X004252Y013062D01*
X004252Y013562D01*
X004002Y013812D01*
X005002Y013562D02*
X005002Y013062D01*
X005252Y012812D01*
X005002Y012562D01*
X005002Y012062D01*
X005252Y011812D01*
X005002Y011562D01*
X005002Y011062D01*
X005252Y010812D01*
X005752Y010812D01*
X006002Y011062D01*
X006002Y011562D01*
X005752Y011812D01*
X005252Y011812D01*
X005752Y011812D02*
X006002Y012062D01*
X006002Y012562D01*
X005752Y012812D01*
X005252Y012812D01*
X005752Y012812D02*
X006002Y013062D01*
X006002Y013562D01*
X005752Y013812D01*
X005252Y013812D01*
X005002Y014062D01*
X005002Y014562D01*
X005252Y014812D01*
X005002Y015062D01*
X005002Y015562D01*
X005252Y015812D01*
X005752Y015812D01*
X006002Y015562D01*
X006002Y015062D01*
X005752Y014812D01*
X006002Y014562D01*
X006002Y014062D01*
X005752Y013812D01*
X005252Y013812D02*
X005002Y013562D01*
X005252Y014812D02*
X005752Y014812D01*
X004252Y015062D02*
X004002Y014812D01*
X004252Y015062D02*
X004252Y015562D01*
X004002Y015812D01*
X002502Y015812D02*
X002252Y016062D01*
X002252Y016562D01*
X002502Y016812D01*
X002502Y014812D02*
X002252Y014562D01*
X002252Y014062D01*
X002502Y013812D01*
X002502Y012812D02*
X002252Y012562D01*
X002252Y012062D01*
X002502Y011812D01*
X005002Y010562D02*
X005002Y010062D01*
X005252Y009812D01*
X005002Y009562D01*
X005002Y009062D01*
X005252Y008812D01*
X005002Y008562D01*
X005002Y008062D01*
X005252Y007812D01*
X005752Y007812D01*
X006002Y008062D01*
X006002Y008562D01*
X005752Y008812D01*
X005252Y008812D01*
X005752Y008812D02*
X006002Y009062D01*
X006002Y009562D01*
X005752Y009812D01*
X005252Y009812D01*
X005752Y009812D02*
X006002Y010062D01*
X006002Y010562D01*
X005752Y010812D01*
X005252Y010812D02*
X005002Y010562D01*
X002502Y008812D02*
X002252Y008562D01*
X002252Y008062D01*
X002502Y007812D01*
X005002Y007562D02*
X005002Y007062D01*
X005252Y006812D01*
X005002Y006562D01*
X005002Y006062D01*
X005252Y005812D01*
X005752Y005812D01*
X006002Y006062D01*
X006002Y006562D01*
X005752Y006812D01*
X005252Y006812D01*
X005752Y006812D02*
X006002Y007062D01*
X006002Y007562D01*
X005752Y007812D01*
X005252Y007812D02*
X005002Y007562D01*
X005352Y005762D02*
X005502Y005762D01*
X005552Y005712D01*
X007452Y005712D01*
X007502Y005762D01*
X007652Y005762D01*
X007669Y005760D01*
X007686Y005756D01*
X007702Y005749D01*
X007716Y005739D01*
X007729Y005726D01*
X007739Y005712D01*
X007746Y005696D01*
X007750Y005679D01*
X007752Y005662D01*
X007752Y004962D01*
X007750Y004945D01*
X007746Y004928D01*
X007739Y004912D01*
X007729Y004898D01*
X007716Y004885D01*
X007702Y004875D01*
X007686Y004868D01*
X007669Y004864D01*
X007652Y004862D01*
X007502Y004862D01*
X007452Y004912D01*
X005552Y004912D01*
X005502Y004862D01*
X005352Y004862D01*
X005352Y004762D02*
X005502Y004762D01*
X005552Y004712D01*
X007452Y004712D01*
X007502Y004762D01*
X007652Y004762D01*
X007669Y004760D01*
X007686Y004756D01*
X007702Y004749D01*
X007716Y004739D01*
X007729Y004726D01*
X007739Y004712D01*
X007746Y004696D01*
X007750Y004679D01*
X007752Y004662D01*
X007752Y003962D01*
X007750Y003945D01*
X007746Y003928D01*
X007739Y003912D01*
X007729Y003898D01*
X007716Y003885D01*
X007702Y003875D01*
X007686Y003868D01*
X007669Y003864D01*
X007652Y003862D01*
X007502Y003862D01*
X007452Y003912D01*
X005552Y003912D01*
X005502Y003862D01*
X005352Y003862D01*
X005335Y003864D01*
X005318Y003868D01*
X005302Y003875D01*
X005288Y003885D01*
X005275Y003898D01*
X005265Y003912D01*
X005258Y003928D01*
X005254Y003945D01*
X005252Y003962D01*
X005252Y004662D01*
X005254Y004679D01*
X005258Y004696D01*
X005265Y004712D01*
X005275Y004726D01*
X005288Y004739D01*
X005302Y004749D01*
X005318Y004756D01*
X005335Y004760D01*
X005352Y004762D01*
X005352Y004862D02*
X005335Y004864D01*
X005318Y004868D01*
X005302Y004875D01*
X005288Y004885D01*
X005275Y004898D01*
X005265Y004912D01*
X005258Y004928D01*
X005254Y004945D01*
X005252Y004962D01*
X005252Y005662D01*
X005254Y005679D01*
X005258Y005696D01*
X005265Y005712D01*
X005275Y005726D01*
X005288Y005739D01*
X005302Y005749D01*
X005318Y005756D01*
X005335Y005760D01*
X005352Y005762D01*
X007907Y006217D02*
X007907Y006558D01*
X008077Y006558D01*
X008134Y006501D01*
X008134Y006388D01*
X008077Y006331D01*
X007907Y006331D01*
X008275Y006217D02*
X008389Y006331D01*
X008502Y006217D01*
X008502Y006558D01*
X008644Y006558D02*
X008757Y006444D01*
X008870Y006558D01*
X008870Y006217D01*
X008644Y006217D02*
X008644Y006558D01*
X008275Y006558D02*
X008275Y006217D01*
X008333Y009825D02*
X010733Y009825D01*
X010789Y009827D01*
X010844Y009833D01*
X010899Y009842D01*
X010954Y009856D01*
X011007Y009873D01*
X011058Y009894D01*
X011109Y009919D01*
X011157Y009947D01*
X011203Y009978D01*
X011247Y010012D01*
X011289Y010050D01*
X011328Y010090D01*
X011363Y010132D01*
X011396Y010178D01*
X011426Y010225D01*
X011452Y010274D01*
X011475Y010325D01*
X011494Y010378D01*
X011509Y010431D01*
X011521Y010486D01*
X011529Y010541D01*
X011533Y010597D01*
X011533Y010653D01*
X011529Y010709D01*
X011521Y010764D01*
X011509Y010819D01*
X011494Y010872D01*
X011475Y010925D01*
X011452Y010976D01*
X011426Y011025D01*
X011396Y011072D01*
X011363Y011118D01*
X011328Y011160D01*
X011289Y011200D01*
X011247Y011238D01*
X011203Y011272D01*
X011157Y011303D01*
X011109Y011331D01*
X011058Y011356D01*
X011007Y011377D01*
X010954Y011394D01*
X010899Y011408D01*
X010844Y011417D01*
X010789Y011423D01*
X010733Y011425D01*
X008333Y011425D01*
X008277Y011423D01*
X008222Y011417D01*
X008167Y011408D01*
X008112Y011394D01*
X008059Y011377D01*
X008008Y011356D01*
X007957Y011331D01*
X007909Y011303D01*
X007863Y011272D01*
X007819Y011238D01*
X007777Y011200D01*
X007738Y011160D01*
X007703Y011118D01*
X007670Y011072D01*
X007640Y011025D01*
X007614Y010976D01*
X007591Y010925D01*
X007572Y010872D01*
X007557Y010819D01*
X007545Y010764D01*
X007537Y010709D01*
X007533Y010653D01*
X007533Y010597D01*
X007537Y010541D01*
X007545Y010486D01*
X007557Y010431D01*
X007572Y010378D01*
X007591Y010325D01*
X007614Y010274D01*
X007640Y010225D01*
X007670Y010178D01*
X007703Y010132D01*
X007738Y010090D01*
X007777Y010050D01*
X007819Y010012D01*
X007863Y009978D01*
X007909Y009947D01*
X007957Y009919D01*
X008008Y009894D01*
X008059Y009873D01*
X008112Y009856D01*
X008167Y009842D01*
X008222Y009833D01*
X008277Y009827D01*
X008333Y009825D01*
X009263Y010225D02*
X009263Y010625D01*
X009263Y011025D01*
X009413Y011025D02*
X009413Y010225D01*
X009663Y010225D01*
X009663Y011025D01*
X009413Y011025D01*
X009803Y011025D02*
X009803Y010625D01*
X010083Y010625D01*
X009803Y010625D02*
X009803Y010225D01*
X009263Y010625D02*
X008983Y010625D01*
X009371Y019050D02*
X009621Y019050D01*
X009621Y019950D01*
X009371Y019950D01*
X009371Y019500D01*
X009371Y019050D01*
X009371Y019500D02*
X009271Y019500D01*
X007971Y019500D02*
X007973Y019586D01*
X007979Y019672D01*
X007990Y019757D01*
X008005Y019841D01*
X008023Y019925D01*
X008046Y020008D01*
X008073Y020090D01*
X008104Y020170D01*
X008139Y020248D01*
X008178Y020325D01*
X008220Y020400D01*
X008266Y020472D01*
X008315Y020542D01*
X008368Y020610D01*
X008424Y020675D01*
X008484Y020737D01*
X008546Y020797D01*
X008611Y020853D01*
X008679Y020906D01*
X008749Y020955D01*
X008821Y021001D01*
X008896Y021043D01*
X008973Y021082D01*
X009051Y021117D01*
X009131Y021148D01*
X009213Y021175D01*
X009296Y021198D01*
X009380Y021216D01*
X009464Y021231D01*
X009549Y021242D01*
X009635Y021248D01*
X009721Y021250D01*
X009807Y021248D01*
X009893Y021242D01*
X009978Y021231D01*
X010062Y021216D01*
X010146Y021198D01*
X010229Y021175D01*
X010311Y021148D01*
X010391Y021117D01*
X010469Y021082D01*
X010546Y021043D01*
X010621Y021001D01*
X010693Y020955D01*
X010763Y020906D01*
X010831Y020853D01*
X010896Y020797D01*
X010958Y020737D01*
X011018Y020675D01*
X011074Y020610D01*
X011127Y020542D01*
X011176Y020472D01*
X011222Y020400D01*
X011264Y020325D01*
X011303Y020248D01*
X011338Y020170D01*
X011369Y020090D01*
X011396Y020008D01*
X011419Y019925D01*
X011437Y019841D01*
X011452Y019757D01*
X011463Y019672D01*
X011469Y019586D01*
X011471Y019500D01*
X011469Y019414D01*
X011463Y019328D01*
X011452Y019243D01*
X011437Y019159D01*
X011419Y019075D01*
X011396Y018992D01*
X011369Y018910D01*
X011338Y018830D01*
X011303Y018752D01*
X011264Y018675D01*
X011222Y018600D01*
X011176Y018528D01*
X011127Y018458D01*
X011074Y018390D01*
X011018Y018325D01*
X010958Y018263D01*
X010896Y018203D01*
X010831Y018147D01*
X010763Y018094D01*
X010693Y018045D01*
X010621Y017999D01*
X010546Y017957D01*
X010469Y017918D01*
X010391Y017883D01*
X010311Y017852D01*
X010229Y017825D01*
X010146Y017802D01*
X010062Y017784D01*
X009978Y017769D01*
X009893Y017758D01*
X009807Y017752D01*
X009721Y017750D01*
X009635Y017752D01*
X009549Y017758D01*
X009464Y017769D01*
X009380Y017784D01*
X009296Y017802D01*
X009213Y017825D01*
X009131Y017852D01*
X009051Y017883D01*
X008973Y017918D01*
X008896Y017957D01*
X008821Y017999D01*
X008749Y018045D01*
X008679Y018094D01*
X008611Y018147D01*
X008546Y018203D01*
X008484Y018263D01*
X008424Y018325D01*
X008368Y018390D01*
X008315Y018458D01*
X008266Y018528D01*
X008220Y018600D01*
X008178Y018675D01*
X008139Y018752D01*
X008104Y018830D01*
X008073Y018910D01*
X008046Y018992D01*
X008023Y019075D01*
X008005Y019159D01*
X007990Y019243D01*
X007979Y019328D01*
X007973Y019414D01*
X007971Y019500D01*
X008421Y020000D02*
X008421Y020300D01*
X008271Y020150D02*
X008571Y020150D01*
X009971Y019500D02*
X010171Y019500D01*
X015021Y021500D02*
X015023Y021552D01*
X015029Y021604D01*
X015039Y021656D01*
X015052Y021706D01*
X015069Y021756D01*
X015090Y021804D01*
X015115Y021850D01*
X015143Y021894D01*
X015174Y021936D01*
X015208Y021976D01*
X015245Y022013D01*
X015285Y022047D01*
X015327Y022078D01*
X015371Y022106D01*
X015417Y022131D01*
X015465Y022152D01*
X015515Y022169D01*
X015565Y022182D01*
X015617Y022192D01*
X015669Y022198D01*
X015721Y022200D01*
X015773Y022198D01*
X015825Y022192D01*
X015877Y022182D01*
X015927Y022169D01*
X015977Y022152D01*
X016025Y022131D01*
X016071Y022106D01*
X016115Y022078D01*
X016157Y022047D01*
X016197Y022013D01*
X016234Y021976D01*
X016268Y021936D01*
X016299Y021894D01*
X016327Y021850D01*
X016352Y021804D01*
X016373Y021756D01*
X016390Y021706D01*
X016403Y021656D01*
X016413Y021604D01*
X016419Y021552D01*
X016421Y021500D01*
X016419Y021448D01*
X016413Y021396D01*
X016403Y021344D01*
X016390Y021294D01*
X016373Y021244D01*
X016352Y021196D01*
X016327Y021150D01*
X016299Y021106D01*
X016268Y021064D01*
X016234Y021024D01*
X016197Y020987D01*
X016157Y020953D01*
X016115Y020922D01*
X016071Y020894D01*
X016025Y020869D01*
X015977Y020848D01*
X015927Y020831D01*
X015877Y020818D01*
X015825Y020808D01*
X015773Y020802D01*
X015721Y020800D01*
X015669Y020802D01*
X015617Y020808D01*
X015565Y020818D01*
X015515Y020831D01*
X015465Y020848D01*
X015417Y020869D01*
X015371Y020894D01*
X015327Y020922D01*
X015285Y020953D01*
X015245Y020987D01*
X015208Y021024D01*
X015174Y021064D01*
X015143Y021106D01*
X015115Y021150D01*
X015090Y021196D01*
X015069Y021244D01*
X015052Y021294D01*
X015039Y021344D01*
X015029Y021396D01*
X015023Y021448D01*
X015021Y021500D01*
X018033Y022462D02*
X018033Y023162D01*
X018035Y023179D01*
X018039Y023196D01*
X018046Y023212D01*
X018056Y023226D01*
X018069Y023239D01*
X018083Y023249D01*
X018099Y023256D01*
X018116Y023260D01*
X018133Y023262D01*
X018283Y023262D01*
X018333Y023212D01*
X020233Y023212D01*
X020283Y023262D01*
X020433Y023262D01*
X020450Y023260D01*
X020467Y023256D01*
X020483Y023249D01*
X020497Y023239D01*
X020510Y023226D01*
X020520Y023212D01*
X020527Y023196D01*
X020531Y023179D01*
X020533Y023162D01*
X020533Y022462D01*
X020531Y022445D01*
X020527Y022428D01*
X020520Y022412D01*
X020510Y022398D01*
X020497Y022385D01*
X020483Y022375D01*
X020467Y022368D01*
X020450Y022364D01*
X020433Y022362D01*
X020283Y022362D01*
X020233Y022412D01*
X018333Y022412D01*
X018283Y022362D01*
X018133Y022362D01*
X018116Y022364D01*
X018099Y022368D01*
X018083Y022375D01*
X018069Y022385D01*
X018056Y022398D01*
X018046Y022412D01*
X018039Y022428D01*
X018035Y022445D01*
X018033Y022462D01*
X004988Y001189D02*
X004561Y001189D01*
X004561Y000549D01*
X004988Y000549D01*
X004775Y000869D02*
X004561Y000869D01*
X004344Y001189D02*
X003916Y001189D01*
X004130Y001189D02*
X004130Y000549D01*
X003699Y000869D02*
X003272Y000869D01*
X003592Y001189D01*
X003592Y000549D01*
X002410Y000655D02*
X002303Y000549D01*
X002090Y000549D01*
X001983Y000655D01*
X001983Y001082D01*
X002090Y001189D01*
X002303Y001189D01*
X002410Y001082D01*
X001765Y001082D02*
X001765Y000869D01*
X001659Y000762D01*
X001338Y000762D01*
X001338Y000549D02*
X001338Y001189D01*
X001659Y001189D01*
X001765Y001082D01*
X001121Y000549D02*
X000694Y000549D01*
X000694Y001189D01*
D13*
X003653Y001757D02*
X003728Y001682D01*
X003803Y001682D01*
X003878Y001757D01*
X003878Y002133D01*
X003803Y002133D02*
X003953Y002133D01*
X004114Y002133D02*
X004114Y001682D01*
X004114Y001833D02*
X004339Y001833D01*
X004414Y001908D01*
X004414Y002058D01*
X004339Y002133D01*
X004114Y002133D01*
X004082Y002276D02*
X004082Y002727D01*
X004307Y002727D01*
X004383Y002651D01*
X004383Y002501D01*
X004307Y002426D01*
X004082Y002426D01*
X003847Y002351D02*
X003772Y002276D01*
X003697Y002276D01*
X003622Y002351D01*
X003847Y002351D02*
X003847Y002727D01*
X003772Y002727D02*
X003922Y002727D01*
X003866Y002901D02*
X003791Y002901D01*
X003716Y002976D01*
X003866Y002901D02*
X003941Y002976D01*
X003941Y003352D01*
X003866Y003352D02*
X004016Y003352D01*
X004176Y003352D02*
X004401Y003352D01*
X004476Y003277D01*
X004476Y003126D01*
X004401Y003051D01*
X004176Y003051D01*
X004176Y002901D02*
X004176Y003352D01*
X004636Y003126D02*
X004862Y003126D01*
X004937Y003051D01*
X004937Y002976D01*
X004862Y002901D01*
X004711Y002901D01*
X004636Y002976D01*
X004636Y003126D01*
X004787Y003277D01*
X004937Y003352D01*
X004843Y002727D02*
X004543Y002727D01*
X004543Y002501D01*
X004693Y002576D01*
X004768Y002576D01*
X004843Y002501D01*
X004843Y002351D01*
X004768Y002276D01*
X004618Y002276D01*
X004543Y002351D01*
X004799Y002133D02*
X004574Y001908D01*
X004874Y001908D01*
X004799Y002133D02*
X004799Y001682D01*
X003910Y004062D02*
X003760Y004062D01*
X003685Y004137D01*
X003685Y004213D01*
X003760Y004288D01*
X003910Y004288D01*
X003985Y004213D01*
X003985Y004137D01*
X003910Y004062D01*
X003910Y004288D02*
X003985Y004363D01*
X003985Y004438D01*
X003910Y004513D01*
X003760Y004513D01*
X003685Y004438D01*
X003685Y004363D01*
X003760Y004288D01*
X003525Y004062D02*
X003225Y004062D01*
X003375Y004062D02*
X003375Y004513D01*
X003225Y004363D01*
X003065Y004438D02*
X003065Y004288D01*
X002990Y004213D01*
X002764Y004213D01*
X002915Y004213D02*
X003065Y004062D01*
X002764Y004062D02*
X002764Y004513D01*
X002990Y004513D01*
X003065Y004438D01*
X003065Y005062D02*
X002915Y005213D01*
X002990Y005213D02*
X002764Y005213D01*
X002764Y005062D02*
X002764Y005513D01*
X002990Y005513D01*
X003065Y005438D01*
X003065Y005288D01*
X002990Y005213D01*
X003225Y005363D02*
X003375Y005513D01*
X003375Y005062D01*
X003225Y005062D02*
X003525Y005062D01*
X003685Y005062D02*
X003985Y005363D01*
X003985Y005438D01*
X003910Y005513D01*
X003760Y005513D01*
X003685Y005438D01*
X003685Y005062D02*
X003985Y005062D01*
X005925Y005225D02*
X006000Y005150D01*
X006150Y005150D01*
X006225Y005225D01*
X006225Y005300D01*
X006150Y005375D01*
X006075Y005375D01*
X006150Y005375D02*
X006225Y005450D01*
X006225Y005525D01*
X006150Y005600D01*
X006000Y005600D01*
X005925Y005525D01*
X006385Y005600D02*
X006385Y005150D01*
X006385Y005300D02*
X006611Y005450D01*
X006769Y005525D02*
X006844Y005600D01*
X006994Y005600D01*
X007069Y005525D01*
X007069Y005450D01*
X006994Y005375D01*
X007069Y005300D01*
X007069Y005225D01*
X006994Y005150D01*
X006844Y005150D01*
X006769Y005225D01*
X006611Y005150D02*
X006385Y005300D01*
X006919Y005375D02*
X006994Y005375D01*
X006994Y004538D02*
X007069Y004463D01*
X007069Y004388D01*
X006994Y004313D01*
X007069Y004238D01*
X007069Y004162D01*
X006994Y004087D01*
X006844Y004087D01*
X006769Y004162D01*
X006611Y004087D02*
X006385Y004238D01*
X006611Y004388D01*
X006769Y004463D02*
X006844Y004538D01*
X006994Y004538D01*
X006994Y004313D02*
X006919Y004313D01*
X006385Y004087D02*
X006385Y004538D01*
X006225Y004463D02*
X006225Y004388D01*
X006150Y004313D01*
X006225Y004238D01*
X006225Y004162D01*
X006150Y004087D01*
X006000Y004087D01*
X005925Y004162D01*
X006075Y004313D02*
X006150Y004313D01*
X006225Y004463D02*
X006150Y004538D01*
X006000Y004538D01*
X005925Y004463D01*
X006533Y007013D02*
X006683Y007013D01*
X006758Y007088D01*
X006758Y007238D01*
X006683Y007313D01*
X006533Y007313D01*
X006458Y007238D01*
X006458Y007088D01*
X006533Y007013D01*
X006458Y007473D02*
X006458Y007698D01*
X006533Y007773D01*
X006758Y007773D01*
X006758Y007473D02*
X006458Y007473D01*
X006533Y008394D02*
X006533Y008619D01*
X006608Y008694D01*
X006683Y008694D01*
X006758Y008619D01*
X006758Y008394D01*
X006308Y008394D01*
X006308Y008619D01*
X006383Y008694D01*
X006458Y008694D01*
X006533Y008619D01*
X006383Y008854D02*
X006683Y008854D01*
X006758Y008929D01*
X006758Y009079D01*
X006683Y009154D01*
X006383Y009154D01*
X006308Y009079D01*
X006308Y008929D01*
X006383Y008854D01*
X006308Y009314D02*
X006308Y009615D01*
X006308Y009465D02*
X006758Y009465D01*
X007512Y009150D02*
X007512Y008850D01*
X007587Y008775D01*
X007738Y008775D01*
X007813Y008850D01*
X007813Y009150D01*
X007738Y009225D01*
X007587Y009225D01*
X007512Y009150D01*
X007663Y008925D02*
X007813Y008775D01*
X007973Y008775D02*
X008273Y009075D01*
X008273Y009150D01*
X008198Y009225D01*
X008048Y009225D01*
X007973Y009150D01*
X007973Y008775D02*
X008273Y008775D01*
X011477Y005540D02*
X011477Y005389D01*
X011552Y005314D01*
X011477Y005540D02*
X011552Y005615D01*
X011627Y005615D01*
X011927Y005314D01*
X011927Y005615D01*
X011927Y005154D02*
X011927Y004854D01*
X011927Y005004D02*
X011477Y005004D01*
X011627Y004854D01*
X011552Y004694D02*
X011477Y004619D01*
X011477Y004469D01*
X011552Y004394D01*
X011852Y004394D01*
X011927Y004469D01*
X011927Y004619D01*
X011852Y004694D01*
X011771Y003683D02*
X011771Y003533D01*
X011771Y003373D02*
X011996Y003373D01*
X011771Y003373D02*
X011695Y003298D01*
X011695Y003073D01*
X011996Y003073D01*
X011996Y002913D02*
X011996Y002612D01*
X011996Y002763D02*
X011545Y002763D01*
X011695Y002612D01*
X011490Y002906D02*
X011415Y002981D01*
X011415Y003281D01*
X011340Y003206D02*
X011490Y003206D01*
X011180Y003131D02*
X011180Y002981D01*
X011104Y002906D01*
X010954Y002906D01*
X010879Y002981D01*
X010879Y003131D01*
X010954Y003206D01*
X011104Y003206D01*
X011180Y003131D01*
X010721Y003206D02*
X010646Y003206D01*
X010496Y003056D01*
X010496Y002906D02*
X010496Y003206D01*
X010533Y003637D02*
X010083Y003637D01*
X010083Y003863D01*
X010158Y003938D01*
X010308Y003938D01*
X010383Y003863D01*
X010383Y003637D01*
X010383Y003788D02*
X010533Y003938D01*
X010533Y004098D02*
X010533Y004398D01*
X010533Y004248D02*
X010083Y004248D01*
X010233Y004098D01*
X010233Y004558D02*
X010083Y004708D01*
X010533Y004708D01*
X010533Y004558D02*
X010533Y004858D01*
X009727Y003758D02*
X009577Y003533D01*
X009427Y003758D01*
X009277Y003533D02*
X009727Y003533D01*
X009727Y003373D02*
X009727Y003072D01*
X009727Y003223D02*
X009277Y003223D01*
X009427Y003072D01*
X011545Y003683D02*
X011620Y003608D01*
X011996Y003608D01*
X013027Y004413D02*
X013027Y004563D01*
X013102Y004638D01*
X013402Y004638D01*
X013477Y004563D01*
X013477Y004413D01*
X013402Y004337D01*
X013102Y004337D01*
X013027Y004413D01*
X013327Y004488D02*
X013477Y004638D01*
X013477Y004798D02*
X013477Y005098D01*
X013477Y004948D02*
X013027Y004948D01*
X013177Y004798D01*
X013514Y005975D02*
X013589Y005975D01*
X013664Y006050D01*
X013664Y006200D01*
X013739Y006275D01*
X013814Y006275D01*
X013889Y006200D01*
X013889Y006050D01*
X013814Y005975D01*
X013739Y005975D01*
X013664Y006050D01*
X013664Y006200D02*
X013589Y006275D01*
X013514Y006275D01*
X013439Y006200D01*
X013439Y006050D01*
X013514Y005975D01*
X013514Y006435D02*
X013589Y006435D01*
X013664Y006510D01*
X013664Y006736D01*
X013814Y006736D02*
X013514Y006736D01*
X013439Y006660D01*
X013439Y006510D01*
X013514Y006435D01*
X013814Y006435D02*
X013889Y006510D01*
X013889Y006660D01*
X013814Y006736D01*
X013889Y006896D02*
X013889Y007196D01*
X013889Y007356D02*
X013439Y007356D01*
X013439Y007581D01*
X013514Y007656D01*
X013664Y007656D01*
X013739Y007581D01*
X013739Y007356D01*
X013814Y007816D02*
X013514Y007816D01*
X013439Y007891D01*
X013439Y008042D01*
X013514Y008117D01*
X013514Y008277D02*
X013589Y008277D01*
X013664Y008352D01*
X013664Y008577D01*
X013814Y008577D02*
X013514Y008577D01*
X013439Y008502D01*
X013439Y008352D01*
X013514Y008277D01*
X013814Y008277D02*
X013889Y008352D01*
X013889Y008502D01*
X013814Y008577D01*
X013889Y008737D02*
X013589Y009037D01*
X013514Y009037D01*
X013439Y008962D01*
X013439Y008812D01*
X013514Y008737D01*
X013889Y008737D02*
X013889Y009037D01*
X013889Y009197D02*
X013589Y009498D01*
X013514Y009498D01*
X013439Y009423D01*
X013439Y009272D01*
X013514Y009197D01*
X013889Y009197D02*
X013889Y009498D01*
X013889Y009658D02*
X013439Y009658D01*
X013439Y009958D01*
X013439Y010118D02*
X013889Y010418D01*
X013439Y010418D01*
X013439Y010118D02*
X013889Y010118D01*
X013664Y009808D02*
X013664Y009658D01*
X013814Y008117D02*
X013889Y008042D01*
X013889Y007891D01*
X013814Y007816D01*
X013889Y006896D02*
X013439Y006896D01*
X017418Y004638D02*
X017568Y004788D01*
X017568Y004337D01*
X017418Y004337D02*
X017719Y004337D01*
X017879Y004412D02*
X017879Y004713D01*
X017954Y004788D01*
X018104Y004788D01*
X018179Y004713D01*
X017879Y004412D01*
X017954Y004337D01*
X018104Y004337D01*
X018179Y004412D01*
X018179Y004713D01*
X018339Y004788D02*
X018339Y004337D01*
X018339Y004488D02*
X018564Y004638D01*
X018339Y004488D02*
X018564Y004337D01*
X018454Y003919D02*
X018154Y003919D01*
X018454Y003919D02*
X018454Y003844D01*
X018154Y003544D01*
X018154Y003469D01*
X017994Y003469D02*
X017694Y003469D01*
X017844Y003469D02*
X017844Y003919D01*
X017694Y003769D01*
X017534Y003844D02*
X017534Y003694D01*
X017458Y003619D01*
X017233Y003619D01*
X017233Y003469D02*
X017233Y003919D01*
X017458Y003919D01*
X017534Y003844D01*
X017383Y003619D02*
X017534Y003469D01*
X019614Y003448D02*
X019614Y003298D01*
X019689Y003223D01*
X019764Y003223D01*
X019839Y003298D01*
X019839Y003448D01*
X019914Y003523D01*
X019989Y003523D01*
X020064Y003448D01*
X020064Y003298D01*
X019989Y003223D01*
X019914Y003223D01*
X019839Y003298D01*
X019839Y003448D02*
X019764Y003523D01*
X019689Y003523D01*
X019614Y003448D01*
X019689Y003063D02*
X019614Y002988D01*
X019614Y002762D01*
X020064Y002762D01*
X019914Y002762D02*
X019914Y002988D01*
X019839Y003063D01*
X019689Y003063D01*
X019914Y002912D02*
X020064Y003063D01*
X020433Y003064D02*
X020433Y003364D01*
X020508Y003364D01*
X020808Y003064D01*
X020883Y003064D01*
X020883Y002829D02*
X020433Y002829D01*
X020658Y002604D01*
X020658Y002904D01*
X020733Y003524D02*
X020583Y003749D01*
X020433Y003524D02*
X020883Y003524D01*
X020733Y003524D02*
X020883Y003749D01*
X021964Y003524D02*
X022414Y003524D01*
X022264Y003524D02*
X022414Y003750D01*
X022264Y003524D02*
X022114Y003750D01*
X022114Y003364D02*
X022039Y003364D01*
X021964Y003289D01*
X021964Y003139D01*
X022039Y003064D01*
X022039Y002904D02*
X022114Y002904D01*
X022189Y002829D01*
X022189Y002679D01*
X022114Y002604D01*
X022039Y002604D01*
X021964Y002679D01*
X021964Y002829D01*
X022039Y002904D01*
X022189Y002829D02*
X022264Y002904D01*
X022339Y002904D01*
X022414Y002829D01*
X022414Y002679D01*
X022339Y002604D01*
X022264Y002604D01*
X022189Y002679D01*
X022414Y003064D02*
X022114Y003364D01*
X022414Y003364D02*
X022414Y003064D01*
X023339Y003139D02*
X023414Y003064D01*
X023714Y003064D01*
X023414Y003364D01*
X023714Y003364D01*
X023789Y003289D01*
X023789Y003139D01*
X023714Y003064D01*
X023789Y002904D02*
X023789Y002604D01*
X023789Y002754D02*
X023339Y002754D01*
X023489Y002604D01*
X024177Y002575D02*
X024177Y002800D01*
X024252Y002875D01*
X024402Y002875D01*
X024477Y002800D01*
X024477Y002575D01*
X024627Y002575D02*
X024177Y002575D01*
X024477Y002725D02*
X024627Y002875D01*
X024627Y003035D02*
X024627Y003336D01*
X024627Y003185D02*
X024177Y003185D01*
X024327Y003035D01*
X024252Y003496D02*
X024177Y003571D01*
X024177Y003721D01*
X024252Y003796D01*
X024327Y003796D01*
X024402Y003721D01*
X024477Y003796D01*
X024552Y003796D01*
X024627Y003721D01*
X024627Y003571D01*
X024552Y003496D01*
X024402Y003646D02*
X024402Y003721D01*
X023789Y003750D02*
X023639Y003525D01*
X023489Y003750D01*
X023339Y003525D02*
X023789Y003525D01*
X023414Y003364D02*
X023339Y003289D01*
X023339Y003139D01*
X022502Y005075D02*
X022052Y005075D01*
X022052Y005300D01*
X022127Y005375D01*
X022277Y005375D01*
X022352Y005300D01*
X022352Y005075D01*
X022352Y005225D02*
X022502Y005375D01*
X022502Y005535D02*
X022427Y005535D01*
X022127Y005836D01*
X022052Y005836D01*
X022052Y005535D01*
X020739Y005500D02*
X020664Y005425D01*
X020364Y005425D01*
X020289Y005500D01*
X020289Y005650D01*
X020364Y005725D01*
X020364Y005885D02*
X020439Y005885D01*
X020514Y005960D01*
X020514Y006185D01*
X020664Y006185D02*
X020364Y006185D01*
X020289Y006110D01*
X020289Y005960D01*
X020364Y005885D01*
X020664Y005885D02*
X020739Y005960D01*
X020739Y006110D01*
X020664Y006185D01*
X020664Y005725D02*
X020739Y005650D01*
X020739Y005500D01*
X021721Y007456D02*
X021721Y007907D01*
X021946Y007907D01*
X022021Y007832D01*
X022021Y007681D01*
X021946Y007606D01*
X021721Y007606D01*
X021871Y007606D02*
X022021Y007456D01*
X022181Y007456D02*
X022481Y007456D01*
X022331Y007456D02*
X022331Y007907D01*
X022181Y007756D01*
X022642Y007681D02*
X022642Y007531D01*
X022717Y007456D01*
X022867Y007456D01*
X022942Y007531D01*
X022942Y007606D01*
X022867Y007681D01*
X022642Y007681D01*
X022792Y007832D01*
X022942Y007907D01*
X022990Y008244D02*
X022990Y008694D01*
X022840Y008544D01*
X022840Y008244D02*
X023140Y008244D01*
X023300Y008319D02*
X023600Y008619D01*
X023600Y008319D01*
X023525Y008244D01*
X023375Y008244D01*
X023300Y008319D01*
X023300Y008619D01*
X023375Y008694D01*
X023525Y008694D01*
X023600Y008619D01*
X023760Y008619D02*
X023835Y008694D01*
X023986Y008694D01*
X024061Y008619D01*
X023760Y008319D01*
X023835Y008244D01*
X023986Y008244D01*
X024061Y008319D01*
X024061Y008619D01*
X024221Y008694D02*
X024221Y008244D01*
X024221Y008394D02*
X024446Y008544D01*
X024221Y008394D02*
X024446Y008244D01*
X023760Y008319D02*
X023760Y008619D01*
X022673Y009787D02*
X022523Y009787D01*
X022448Y009863D01*
X022748Y010163D01*
X022748Y009863D01*
X022673Y009787D01*
X022448Y009863D02*
X022448Y010163D01*
X022523Y010238D01*
X022673Y010238D01*
X022748Y010163D01*
X022288Y009787D02*
X021987Y009787D01*
X022138Y009787D02*
X022138Y010238D01*
X021987Y010088D01*
X021827Y010163D02*
X021752Y010238D01*
X021602Y010238D01*
X021527Y010163D01*
X021527Y009863D01*
X021602Y009787D01*
X021752Y009787D01*
X021827Y009863D01*
X020883Y009360D02*
X020883Y009210D01*
X020808Y009135D01*
X020658Y009135D01*
X020658Y009360D01*
X020733Y009435D01*
X020808Y009435D01*
X020883Y009360D01*
X020658Y009135D02*
X020508Y009285D01*
X020433Y009435D01*
X020127Y009438D02*
X019977Y009288D01*
X019977Y009363D02*
X019977Y009137D01*
X020127Y009137D02*
X019677Y009137D01*
X019677Y009363D01*
X019752Y009438D01*
X019902Y009438D01*
X019977Y009363D01*
X020127Y009598D02*
X020127Y009898D01*
X020127Y009748D02*
X019677Y009748D01*
X019827Y009598D01*
X019902Y010058D02*
X019902Y010358D01*
X020127Y010283D02*
X019677Y010283D01*
X019902Y010058D01*
X020583Y008977D02*
X020733Y008752D01*
X020883Y008977D01*
X020883Y008752D02*
X020433Y008752D01*
X020433Y008591D02*
X020433Y008291D01*
X020658Y008291D01*
X020583Y008441D01*
X020583Y008516D01*
X020658Y008591D01*
X020808Y008591D01*
X020883Y008516D01*
X020883Y008366D01*
X020808Y008291D01*
X019101Y008174D02*
X018650Y008174D01*
X018650Y008399D01*
X018725Y008474D01*
X018876Y008474D01*
X018951Y008399D01*
X018951Y008174D01*
X019026Y007939D02*
X018650Y007939D01*
X018650Y007864D02*
X018650Y008014D01*
X019026Y007939D02*
X019101Y007864D01*
X019101Y007789D01*
X019026Y007714D01*
X019026Y008634D02*
X019101Y008709D01*
X019101Y008860D01*
X019026Y008935D01*
X018951Y008935D01*
X018876Y008860D01*
X018876Y008785D01*
X018876Y008860D02*
X018801Y008935D01*
X018725Y008935D01*
X018650Y008860D01*
X018650Y008709D01*
X018725Y008634D01*
X021389Y010781D02*
X021389Y011232D01*
X021615Y011232D01*
X021690Y011156D01*
X021690Y011006D01*
X021615Y010931D01*
X021389Y010931D01*
X021540Y010931D02*
X021690Y010781D01*
X021850Y010856D02*
X021925Y010781D01*
X022075Y010781D01*
X022150Y010856D01*
X022150Y011156D01*
X022075Y011232D01*
X021925Y011232D01*
X021850Y011156D01*
X021850Y011081D01*
X021925Y011006D01*
X022150Y011006D01*
X021666Y011556D02*
X021441Y011706D01*
X021666Y011856D01*
X021441Y012006D02*
X021441Y011556D01*
X021281Y011556D02*
X020981Y011556D01*
X021131Y011556D02*
X021131Y012006D01*
X020981Y011856D01*
X021043Y012556D02*
X021344Y012556D01*
X021193Y012556D02*
X021193Y013006D01*
X021043Y012856D01*
X021504Y012706D02*
X021729Y012856D01*
X021504Y012706D02*
X021729Y012556D01*
X021504Y012556D02*
X021504Y013006D01*
X021512Y013556D02*
X021812Y013856D01*
X021812Y013931D01*
X021737Y014006D01*
X021587Y014006D01*
X021512Y013931D01*
X021354Y013856D02*
X021129Y013706D01*
X021354Y013556D01*
X021512Y013556D02*
X021812Y013556D01*
X021129Y013556D02*
X021129Y014006D01*
X020968Y013931D02*
X020893Y014006D01*
X020743Y014006D01*
X020668Y013931D01*
X020968Y013931D02*
X020968Y013856D01*
X020668Y013556D01*
X020968Y013556D01*
X020432Y015494D02*
X020507Y015569D01*
X020507Y015644D01*
X020432Y015719D01*
X020206Y015719D01*
X020206Y015569D01*
X020282Y015494D01*
X020432Y015494D01*
X020206Y015719D02*
X020357Y015869D01*
X020507Y015944D01*
X020048Y015794D02*
X019823Y015644D01*
X020048Y015494D01*
X019823Y015494D02*
X019823Y015944D01*
X019663Y015944D02*
X019363Y015944D01*
X019363Y015719D01*
X019513Y015794D01*
X019588Y015794D01*
X019663Y015719D01*
X019663Y015569D01*
X019588Y015494D01*
X019438Y015494D01*
X019363Y015569D01*
X019312Y016525D02*
X019012Y016525D01*
X019312Y016825D01*
X019312Y016900D01*
X019237Y016975D01*
X019087Y016975D01*
X019012Y016900D01*
X018854Y016825D02*
X018629Y016675D01*
X018854Y016525D01*
X018629Y016525D02*
X018629Y016975D01*
X018318Y016975D02*
X018318Y016525D01*
X018168Y016525D02*
X018468Y016525D01*
X018168Y016825D02*
X018318Y016975D01*
X018182Y017462D02*
X018257Y017538D01*
X018257Y017613D01*
X018182Y017688D01*
X017957Y017688D01*
X017957Y017538D01*
X018032Y017462D01*
X018182Y017462D01*
X017957Y017688D02*
X018107Y017838D01*
X018257Y017913D01*
X017798Y017763D02*
X017573Y017613D01*
X017798Y017462D01*
X017573Y017462D02*
X017573Y017913D01*
X017413Y017838D02*
X017413Y017763D01*
X017338Y017688D01*
X017413Y017613D01*
X017413Y017538D01*
X017338Y017462D01*
X017188Y017462D01*
X017113Y017538D01*
X017263Y017688D02*
X017338Y017688D01*
X017413Y017838D02*
X017338Y017913D01*
X017188Y017913D01*
X017113Y017838D01*
X016296Y017333D02*
X016296Y017183D01*
X016221Y017108D01*
X015920Y017409D01*
X016221Y017409D01*
X016296Y017333D01*
X016221Y017108D02*
X015920Y017108D01*
X015845Y017183D01*
X015845Y017333D01*
X015920Y017409D01*
X015920Y016948D02*
X015845Y016873D01*
X015845Y016723D01*
X015920Y016648D01*
X015920Y016488D02*
X016071Y016488D01*
X016146Y016413D01*
X016146Y016188D01*
X016296Y016188D02*
X015845Y016188D01*
X015845Y016413D01*
X015920Y016488D01*
X016146Y016338D02*
X016296Y016488D01*
X016296Y016648D02*
X015995Y016948D01*
X015920Y016948D01*
X016296Y016948D02*
X016296Y016648D01*
X016896Y015900D02*
X016896Y015450D01*
X016746Y015450D02*
X017046Y015450D01*
X017206Y015525D02*
X017506Y015825D01*
X017506Y015525D01*
X017431Y015450D01*
X017281Y015450D01*
X017206Y015525D01*
X017206Y015825D01*
X017281Y015900D01*
X017431Y015900D01*
X017506Y015825D01*
X017667Y015750D02*
X017892Y015750D01*
X017967Y015675D01*
X017967Y015450D01*
X017667Y015450D02*
X017667Y015750D01*
X016896Y015900D02*
X016746Y015750D01*
X017627Y014275D02*
X017552Y014200D01*
X017552Y013900D01*
X017627Y013825D01*
X017777Y013825D01*
X017852Y013900D01*
X018012Y013900D02*
X018087Y013825D01*
X018238Y013825D01*
X018313Y013900D01*
X018313Y013975D01*
X018238Y014050D01*
X018162Y014050D01*
X018238Y014050D02*
X018313Y014125D01*
X018313Y014200D01*
X018238Y014275D01*
X018087Y014275D01*
X018012Y014200D01*
X017852Y014200D02*
X017777Y014275D01*
X017627Y014275D01*
X017646Y013590D02*
X017421Y013590D01*
X017346Y013515D01*
X017346Y013289D01*
X017646Y013289D01*
X017571Y013129D02*
X017270Y013129D01*
X017571Y012829D01*
X017646Y012904D01*
X017646Y013054D01*
X017571Y013129D01*
X017571Y012829D02*
X017270Y012829D01*
X017195Y012904D01*
X017195Y013054D01*
X017270Y013129D01*
X016933Y012992D02*
X016933Y012842D01*
X016858Y012767D01*
X016558Y012767D01*
X016483Y012842D01*
X016483Y012992D01*
X016558Y013067D01*
X016708Y013227D02*
X016708Y013527D01*
X016483Y013452D02*
X016708Y013227D01*
X016858Y013067D02*
X016933Y012992D01*
X017270Y012669D02*
X017571Y012369D01*
X017646Y012444D01*
X017646Y012594D01*
X017571Y012669D01*
X017270Y012669D01*
X017195Y012594D01*
X017195Y012444D01*
X017270Y012369D01*
X017571Y012369D01*
X017646Y012209D02*
X017646Y011908D01*
X017646Y012059D02*
X017195Y012059D01*
X017346Y011908D01*
X016933Y013452D02*
X016483Y013452D01*
X020421Y017219D02*
X020421Y017669D01*
X020646Y017669D01*
X020721Y017594D01*
X020721Y017444D01*
X020646Y017369D01*
X020421Y017369D01*
X020571Y017369D02*
X020721Y017219D01*
X020881Y017219D02*
X021181Y017219D01*
X021031Y017219D02*
X021031Y017669D01*
X020881Y017519D01*
X022745Y017642D02*
X022971Y017417D01*
X022971Y017717D01*
X023196Y017642D02*
X022745Y017642D01*
X022820Y017256D02*
X022745Y017181D01*
X022745Y016956D01*
X023196Y016956D01*
X023196Y017181D01*
X023121Y017256D01*
X022820Y017256D01*
X023102Y018081D02*
X022952Y018231D01*
X023402Y018231D01*
X023402Y018081D02*
X023402Y018381D01*
X023402Y018542D02*
X022952Y018542D01*
X023402Y018842D01*
X022952Y018842D01*
X023177Y019002D02*
X023177Y019302D01*
X023102Y019462D02*
X022952Y019612D01*
X023402Y019612D01*
X023402Y019462D02*
X023402Y019762D01*
X023177Y019923D02*
X023177Y020223D01*
X023252Y020383D02*
X023177Y020458D01*
X023177Y020608D01*
X023252Y020683D01*
X023327Y020683D01*
X023402Y020608D01*
X023402Y020458D01*
X023327Y020383D01*
X023252Y020383D01*
X023177Y020458D02*
X023102Y020383D01*
X023027Y020383D01*
X022952Y020458D01*
X022952Y020608D01*
X023027Y020683D01*
X023102Y020683D01*
X023177Y020608D01*
X023402Y020148D02*
X022952Y020148D01*
X023177Y019923D01*
X023402Y019227D02*
X022952Y019227D01*
X023177Y019002D01*
X024006Y017444D02*
X024006Y016994D01*
X023856Y016994D02*
X024156Y016994D01*
X024316Y017069D02*
X024316Y017369D01*
X024391Y017444D01*
X024541Y017444D01*
X024616Y017369D01*
X024316Y017069D01*
X024391Y016994D01*
X024541Y016994D01*
X024616Y017069D01*
X024616Y017369D01*
X024776Y017369D02*
X024851Y017444D01*
X025001Y017444D01*
X025077Y017369D01*
X024776Y017069D01*
X024851Y016994D01*
X025001Y016994D01*
X025077Y017069D01*
X025077Y017369D01*
X025237Y017444D02*
X025237Y016994D01*
X025237Y017144D02*
X025462Y017294D01*
X025237Y017144D02*
X025462Y016994D01*
X024776Y017069D02*
X024776Y017369D01*
X024006Y017444D02*
X023856Y017294D01*
X024687Y015253D02*
X024747Y015233D01*
X024806Y015209D01*
X024863Y015181D01*
X024918Y015150D01*
X024972Y015115D01*
X025023Y015078D01*
X025072Y015037D01*
X025118Y014993D01*
X025162Y014947D01*
X025203Y014898D01*
X025241Y014847D01*
X025275Y014794D01*
X025307Y014738D01*
X025334Y014681D01*
X025359Y014622D01*
X025379Y014562D01*
X025397Y014501D01*
X025410Y014439D01*
X025419Y014376D01*
X025425Y014313D01*
X025427Y014249D01*
X025425Y014185D01*
X025419Y014122D01*
X025410Y014059D01*
X025396Y013997D01*
X025379Y013936D01*
X025358Y013876D01*
X025334Y013817D01*
X025306Y013760D01*
X025274Y013704D01*
X025239Y013651D01*
X025202Y013600D01*
X023552Y013600D01*
X023527Y013413D02*
X023753Y013413D01*
X023828Y013338D01*
X023828Y013188D01*
X023753Y013113D01*
X023527Y013113D01*
X023527Y012962D02*
X023527Y013413D01*
X023367Y013413D02*
X023067Y013413D01*
X023067Y013188D01*
X023217Y013263D01*
X023292Y013263D01*
X023367Y013188D01*
X023367Y013037D01*
X023292Y012962D01*
X023142Y012962D01*
X023067Y013037D01*
X023678Y013113D02*
X023828Y012962D01*
X023988Y013037D02*
X024063Y012962D01*
X024213Y012962D01*
X024288Y013037D01*
X024288Y013113D01*
X024213Y013188D01*
X023988Y013188D01*
X023988Y013037D01*
X023988Y013188D02*
X024138Y013338D01*
X024288Y013413D01*
X024264Y014150D02*
X024490Y014150D01*
X023332Y014150D02*
X023328Y014212D01*
X023327Y014275D01*
X023331Y014337D01*
X023338Y014399D01*
X023348Y014460D01*
X023363Y014521D01*
X023381Y014581D01*
X023402Y014640D01*
X023427Y014697D01*
X023455Y014752D01*
X023486Y014806D01*
X023521Y014858D01*
X023559Y014908D01*
X023599Y014955D01*
X023643Y015000D01*
X023688Y015043D01*
X023737Y015082D01*
X023787Y015119D01*
X023840Y015152D01*
X023894Y015183D01*
X023951Y015210D01*
X024008Y015233D01*
X024067Y015253D01*
X023332Y014150D02*
X023339Y014090D01*
X023350Y014031D01*
X023364Y013973D01*
X023382Y013916D01*
X023402Y013859D01*
X023426Y013804D01*
X023453Y013750D01*
X023484Y013698D01*
X023517Y013648D01*
X023552Y013600D01*
X023490Y014150D02*
X023332Y014150D01*
X025264Y014150D02*
X025422Y014150D01*
X026095Y013752D02*
X026095Y013452D01*
X026321Y013452D01*
X026245Y013602D01*
X026245Y013677D01*
X026321Y013752D01*
X026471Y013752D01*
X026546Y013677D01*
X026546Y013527D01*
X026471Y013452D01*
X026546Y013292D02*
X026546Y012992D01*
X026546Y013142D02*
X026095Y013142D01*
X026245Y012992D01*
X026170Y012832D02*
X026321Y012832D01*
X026396Y012757D01*
X026396Y012531D01*
X026546Y012531D02*
X026095Y012531D01*
X026095Y012757D01*
X026170Y012832D01*
X026396Y012681D02*
X026546Y012832D01*
X025806Y009588D02*
X025656Y009588D01*
X025581Y009513D01*
X025581Y009213D01*
X025881Y009513D01*
X025881Y009213D01*
X025806Y009138D01*
X025656Y009138D01*
X025581Y009213D01*
X025421Y009138D02*
X025121Y009138D01*
X025271Y009138D02*
X025271Y009588D01*
X025121Y009438D01*
X025806Y009588D02*
X025881Y009513D01*
X026042Y009438D02*
X026042Y009138D01*
X026042Y009438D02*
X026267Y009438D01*
X026342Y009363D01*
X026342Y009138D01*
X024360Y006113D02*
X024210Y006113D01*
X024135Y006038D01*
X023975Y006038D02*
X023900Y006113D01*
X023750Y006113D01*
X023675Y006038D01*
X023675Y005737D01*
X023750Y005662D01*
X023900Y005662D01*
X023975Y005737D01*
X024135Y005662D02*
X024436Y005963D01*
X024436Y006038D01*
X024360Y006113D01*
X024436Y005662D02*
X024135Y005662D01*
X013687Y002175D02*
X013687Y001725D01*
X013537Y001725D02*
X013838Y001725D01*
X013537Y002025D02*
X013687Y002175D01*
X013377Y002100D02*
X013302Y002175D01*
X013152Y002175D01*
X013077Y002100D01*
X013077Y002025D01*
X013152Y001950D01*
X013302Y001950D01*
X013377Y001875D01*
X013377Y001800D01*
X013302Y001725D01*
X013152Y001725D01*
X013077Y001800D01*
X013183Y001125D02*
X013033Y000975D01*
X012873Y001050D02*
X012798Y001125D01*
X012573Y001125D01*
X012573Y000675D01*
X012798Y000675D01*
X012873Y000750D01*
X012873Y001050D01*
X013183Y001125D02*
X013183Y000675D01*
X013033Y000675D02*
X013333Y000675D01*
X012413Y000675D02*
X012112Y000675D01*
X012112Y001125D01*
X012413Y001125D01*
X012262Y000900D02*
X012112Y000900D01*
X011952Y000675D02*
X011652Y000675D01*
X011652Y001125D01*
X009223Y013831D02*
X009073Y013831D01*
X008998Y013906D01*
X008838Y013831D02*
X008537Y013831D01*
X008688Y013831D02*
X008688Y014281D01*
X008537Y014131D01*
X008377Y014206D02*
X008302Y014281D01*
X008152Y014281D01*
X008077Y014206D01*
X008077Y013906D01*
X008152Y013831D01*
X008302Y013831D01*
X008377Y013906D01*
X008998Y014206D02*
X009073Y014281D01*
X009223Y014281D01*
X009298Y014206D01*
X009298Y014131D01*
X009223Y014056D01*
X009298Y013981D01*
X009298Y013906D01*
X009223Y013831D01*
X009223Y014056D02*
X009148Y014056D01*
X010850Y014156D02*
X011150Y014156D01*
X011000Y014156D02*
X011000Y014607D01*
X010850Y014456D01*
X011385Y014381D02*
X011385Y014231D01*
X011385Y014081D01*
X011310Y014006D01*
X011460Y014156D02*
X011535Y014156D01*
X011611Y014231D01*
X011611Y014381D01*
X011460Y014156D02*
X011385Y014231D01*
X012612Y017611D02*
X012462Y017761D01*
X012912Y017761D01*
X012912Y017611D02*
X012912Y017911D01*
X012837Y018071D02*
X012537Y018371D01*
X012837Y018371D01*
X012912Y018296D01*
X012912Y018146D01*
X012837Y018071D01*
X012537Y018071D01*
X012462Y018146D01*
X012462Y018296D01*
X012537Y018371D01*
X012537Y018532D02*
X012462Y018607D01*
X012462Y018757D01*
X012537Y018832D01*
X012837Y018532D01*
X012912Y018607D01*
X012912Y018757D01*
X012837Y018832D01*
X012537Y018832D01*
X012687Y019067D02*
X012837Y019067D01*
X012987Y019067D01*
X013062Y018992D01*
X012912Y019142D02*
X012837Y019067D01*
X012912Y019142D02*
X012912Y019217D01*
X012837Y019292D01*
X012687Y019292D01*
X012837Y018532D02*
X012537Y018532D01*
X011908Y018862D02*
X011908Y019012D01*
X011833Y019087D01*
X011908Y019247D02*
X011908Y019547D01*
X011908Y019397D02*
X011458Y019397D01*
X011608Y019247D01*
X011533Y019087D02*
X011458Y019012D01*
X011458Y018862D01*
X011533Y018787D01*
X011833Y018787D01*
X011908Y018862D01*
X010431Y020291D02*
X010356Y020216D01*
X010431Y020291D02*
X010431Y020441D01*
X010506Y020366D01*
X010581Y020366D01*
X010656Y020441D01*
X010656Y020591D01*
X010431Y020591D02*
X010431Y020441D01*
X010195Y020441D02*
X010195Y020741D01*
X009895Y020441D01*
X009970Y020366D01*
X010120Y020366D01*
X010195Y020441D01*
X009895Y020441D02*
X009895Y020741D01*
X009970Y020816D01*
X010120Y020816D01*
X010195Y020741D01*
X009735Y020741D02*
X009735Y020441D01*
X009660Y020366D01*
X009510Y020366D01*
X009435Y020441D01*
X009735Y020741D01*
X009660Y020816D01*
X009510Y020816D01*
X009435Y020741D01*
X009435Y020441D01*
X009275Y020366D02*
X008974Y020366D01*
X009125Y020366D02*
X009125Y020816D01*
X008974Y020666D01*
X008826Y021344D02*
X008676Y021344D01*
X008601Y021419D01*
X008601Y021719D01*
X008676Y021794D01*
X008826Y021794D01*
X008901Y021719D01*
X009062Y021569D02*
X009062Y021419D01*
X009137Y021344D01*
X009287Y021344D01*
X009362Y021419D01*
X009362Y021494D01*
X009287Y021569D01*
X009062Y021569D01*
X009212Y021719D01*
X009362Y021794D01*
X008901Y021419D02*
X008826Y021344D01*
X007248Y018644D02*
X007098Y018644D01*
X007023Y018569D01*
X007023Y018494D01*
X007098Y018419D01*
X007248Y018419D01*
X007323Y018344D01*
X007323Y018269D01*
X007248Y018194D01*
X007098Y018194D01*
X007023Y018269D01*
X007023Y018344D01*
X007098Y018419D01*
X007248Y018419D02*
X007323Y018494D01*
X007323Y018569D01*
X007248Y018644D01*
X006862Y018419D02*
X006562Y018419D01*
X006787Y018644D01*
X006787Y018194D01*
X006402Y018194D02*
X006102Y018194D01*
X006252Y018194D02*
X006252Y018644D01*
X006102Y018494D01*
X005942Y018419D02*
X005641Y018419D01*
X005867Y018644D01*
X005867Y018194D01*
X005481Y018194D02*
X005481Y018644D01*
X005181Y018644D02*
X005181Y018194D01*
X005021Y018194D02*
X004721Y018194D01*
X004871Y018194D02*
X004871Y018644D01*
X004721Y018494D01*
X005181Y018644D02*
X005481Y018194D01*
X003638Y018956D02*
X003638Y019031D01*
X003563Y019106D01*
X003337Y019106D01*
X003337Y018956D01*
X003412Y018881D01*
X003563Y018881D01*
X003638Y018956D01*
X003487Y019256D02*
X003337Y019106D01*
X003487Y019256D02*
X003638Y019332D01*
X003177Y019256D02*
X003177Y018956D01*
X003102Y018881D01*
X002877Y018881D01*
X002877Y019332D01*
X003102Y019332D01*
X003177Y019256D01*
X001896Y018690D02*
X001896Y018540D01*
X001821Y018465D01*
X001821Y018304D02*
X001520Y018304D01*
X001445Y018229D01*
X001445Y018004D01*
X001896Y018004D01*
X001896Y018229D01*
X001821Y018304D01*
X001520Y018465D02*
X001445Y018540D01*
X001445Y018690D01*
X001520Y018765D01*
X001596Y018765D01*
X001671Y018690D01*
X001746Y018765D01*
X001821Y018765D01*
X001896Y018690D01*
X001671Y018690D02*
X001671Y018615D01*
X001271Y018725D02*
X001271Y019025D01*
X001271Y018875D02*
X000820Y018875D01*
X000971Y018725D01*
X001046Y018565D02*
X001046Y018264D01*
X000820Y018489D01*
X001271Y018489D01*
X001271Y018104D02*
X000820Y018104D01*
X000820Y017804D02*
X001271Y018104D01*
X001271Y017804D02*
X000820Y017804D01*
X000820Y017494D02*
X001271Y017494D01*
X001271Y017344D02*
X001271Y017644D01*
X000971Y017344D02*
X000820Y017494D01*
X001946Y016527D02*
X001946Y016227D01*
X001946Y016377D02*
X001495Y016377D01*
X001645Y016227D01*
X001570Y016067D02*
X001721Y016067D01*
X001796Y015992D01*
X001796Y015766D01*
X001946Y015766D02*
X001495Y015766D01*
X001495Y015992D01*
X001570Y016067D01*
X001495Y015606D02*
X001495Y015456D01*
X001495Y015531D02*
X001871Y015531D01*
X001946Y015456D01*
X001946Y015381D01*
X001871Y015306D01*
X002412Y017119D02*
X002638Y017119D01*
X002713Y017194D01*
X002713Y017494D01*
X002638Y017569D01*
X002412Y017569D01*
X002412Y017119D01*
X002873Y017119D02*
X003173Y017119D01*
X003023Y017119D02*
X003023Y017569D01*
X002873Y017419D01*
X004444Y015903D02*
X004369Y015828D01*
X004369Y015678D01*
X004444Y015603D01*
X004444Y015443D02*
X004369Y015368D01*
X004369Y015143D01*
X004819Y015143D01*
X004669Y015143D02*
X004669Y015368D01*
X004594Y015443D01*
X004444Y015443D01*
X004819Y015603D02*
X004519Y015903D01*
X004444Y015903D01*
X004819Y015903D02*
X004819Y015603D01*
X004744Y014908D02*
X004369Y014908D01*
X004369Y014833D02*
X004369Y014983D01*
X004744Y014908D02*
X004819Y014833D01*
X004819Y014757D01*
X004744Y014682D01*
X001046Y019185D02*
X001046Y019485D01*
X001121Y019645D02*
X001046Y019720D01*
X001046Y019871D01*
X001121Y019946D01*
X001196Y019946D01*
X001271Y019871D01*
X001271Y019720D01*
X001196Y019645D01*
X001121Y019645D01*
X001046Y019720D02*
X000971Y019645D01*
X000895Y019645D01*
X000820Y019720D01*
X000820Y019871D01*
X000895Y019946D01*
X000971Y019946D01*
X001046Y019871D01*
X001271Y019410D02*
X000820Y019410D01*
X001046Y019185D01*
X014758Y019329D02*
X014758Y019554D01*
X014833Y019630D01*
X014908Y019630D01*
X014983Y019554D01*
X014983Y019329D01*
X015208Y019329D02*
X014758Y019329D01*
X014983Y019554D02*
X015058Y019630D01*
X015133Y019630D01*
X015208Y019554D01*
X015208Y019329D01*
X015208Y019790D02*
X014908Y019790D01*
X014758Y019940D01*
X014908Y020090D01*
X015208Y020090D01*
X014983Y020090D02*
X014983Y019790D01*
X014758Y020250D02*
X014758Y020550D01*
X014758Y020400D02*
X015208Y020400D01*
X014983Y020710D02*
X014983Y021011D01*
X014983Y021171D02*
X014983Y021396D01*
X015058Y021471D01*
X015133Y021471D01*
X015208Y021396D01*
X015208Y021246D01*
X015133Y021171D01*
X014983Y021171D01*
X014833Y021321D01*
X014758Y021471D01*
X014758Y020936D02*
X014983Y020710D01*
X015208Y020936D02*
X014758Y020936D01*
X016452Y020513D02*
X016452Y020213D01*
X016527Y020137D01*
X016677Y020137D01*
X016752Y020213D01*
X016912Y020213D02*
X016987Y020137D01*
X017137Y020137D01*
X017213Y020213D01*
X017213Y020363D01*
X017137Y020438D01*
X017062Y020438D01*
X016912Y020363D01*
X016912Y020588D01*
X017213Y020588D01*
X016964Y020898D02*
X016964Y021123D01*
X016889Y021198D01*
X016589Y021198D01*
X016514Y021123D01*
X016514Y020898D01*
X016964Y020898D01*
X016677Y020588D02*
X016527Y020588D01*
X016452Y020513D01*
X016677Y020588D02*
X016752Y020513D01*
X016589Y021358D02*
X016514Y021433D01*
X016514Y021583D01*
X016589Y021659D01*
X016664Y021659D01*
X016964Y021358D01*
X016964Y021659D01*
X018817Y022662D02*
X018892Y022587D01*
X019042Y022587D01*
X019117Y022662D01*
X019117Y022738D01*
X019042Y022813D01*
X018967Y022813D01*
X019042Y022813D02*
X019117Y022888D01*
X019117Y022963D01*
X019042Y023038D01*
X018892Y023038D01*
X018817Y022963D01*
X019277Y023038D02*
X019277Y022587D01*
X019277Y022738D02*
X019503Y022738D01*
X019578Y022813D01*
X019578Y022963D01*
X019503Y023038D01*
X019277Y023038D01*
X019428Y022738D02*
X019578Y022587D01*
X019738Y022662D02*
X019813Y022587D01*
X019963Y022587D01*
X020038Y022662D01*
X020038Y022738D01*
X019963Y022813D01*
X019888Y022813D01*
X019963Y022813D02*
X020038Y022888D01*
X020038Y022963D01*
X019963Y023038D01*
X019813Y023038D01*
X019738Y022963D01*
X021720Y022033D02*
X021720Y021883D01*
X021795Y021808D01*
X021795Y021648D02*
X021720Y021573D01*
X021720Y021423D01*
X021795Y021348D01*
X022096Y021348D01*
X022171Y021423D01*
X022171Y021573D01*
X022096Y021648D01*
X022171Y021808D02*
X021870Y022109D01*
X021795Y022109D01*
X021720Y022033D01*
X022171Y022109D02*
X022171Y021808D01*
X022171Y021191D02*
X022171Y021041D01*
X022171Y021116D02*
X021720Y021116D01*
X021720Y021041D02*
X021720Y021191D01*
X022002Y022800D02*
X022002Y023250D01*
X022227Y023250D01*
X022302Y023175D01*
X022302Y023025D01*
X022227Y022950D01*
X022002Y022950D01*
X022152Y022950D02*
X022302Y022800D01*
X022462Y022800D02*
X022763Y022800D01*
X022613Y022800D02*
X022613Y023250D01*
X022462Y023100D01*
X022923Y023100D02*
X022923Y023175D01*
X022998Y023250D01*
X023148Y023250D01*
X023223Y023175D01*
X023223Y022875D01*
X023148Y022800D01*
X022998Y022800D01*
X022923Y022875D01*
X022998Y023025D02*
X022923Y023100D01*
X022998Y023025D02*
X023223Y023025D01*
D14*
X022158Y015094D02*
X022158Y014531D01*
X022064Y014531D01*
X022064Y015094D01*
X010733Y011625D02*
X008333Y011625D01*
X008271Y011623D01*
X008210Y011617D01*
X008149Y011608D01*
X008089Y011595D01*
X008030Y011578D01*
X007972Y011557D01*
X007915Y011533D01*
X007860Y011506D01*
X007807Y011475D01*
X007755Y011441D01*
X007706Y011404D01*
X007659Y011364D01*
X007615Y011321D01*
X007574Y011276D01*
X007535Y011228D01*
X007499Y011177D01*
X007467Y011125D01*
X007438Y011071D01*
X007412Y011015D01*
X007390Y010957D01*
X007371Y010899D01*
X007356Y010839D01*
X007345Y010778D01*
X007337Y010717D01*
X007333Y010656D01*
X007333Y010594D01*
X007337Y010533D01*
X007345Y010472D01*
X007356Y010411D01*
X007371Y010351D01*
X007390Y010293D01*
X007412Y010235D01*
X007438Y010179D01*
X007467Y010125D01*
X007499Y010073D01*
X007535Y010022D01*
X007574Y009974D01*
X007615Y009929D01*
X007659Y009886D01*
X007706Y009846D01*
X007755Y009809D01*
X007807Y009775D01*
X007860Y009744D01*
X007915Y009717D01*
X007972Y009693D01*
X008030Y009672D01*
X008089Y009655D01*
X008149Y009642D01*
X008210Y009633D01*
X008271Y009627D01*
X008333Y009625D01*
X010733Y009625D01*
X010795Y009627D01*
X010856Y009633D01*
X010917Y009642D01*
X010977Y009655D01*
X011036Y009672D01*
X011094Y009693D01*
X011151Y009717D01*
X011206Y009744D01*
X011259Y009775D01*
X011311Y009809D01*
X011360Y009846D01*
X011407Y009886D01*
X011451Y009929D01*
X011492Y009974D01*
X011531Y010022D01*
X011567Y010073D01*
X011599Y010125D01*
X011628Y010179D01*
X011654Y010235D01*
X011676Y010293D01*
X011695Y010351D01*
X011710Y010411D01*
X011721Y010472D01*
X011729Y010533D01*
X011733Y010594D01*
X011733Y010656D01*
X011729Y010717D01*
X011721Y010778D01*
X011710Y010839D01*
X011695Y010899D01*
X011676Y010957D01*
X011654Y011015D01*
X011628Y011071D01*
X011599Y011125D01*
X011567Y011177D01*
X011531Y011228D01*
X011492Y011276D01*
X011451Y011321D01*
X011407Y011364D01*
X011360Y011404D01*
X011311Y011441D01*
X011259Y011475D01*
X011206Y011506D01*
X011151Y011533D01*
X011094Y011557D01*
X011036Y011578D01*
X010977Y011595D01*
X010917Y011608D01*
X010856Y011617D01*
X010795Y011623D01*
X010733Y011625D01*
D15*
X020183Y014781D02*
X020783Y014781D01*
X020783Y015281D01*
X021783Y014781D01*
X021783Y015281D01*
X022283Y015281D01*
X022383Y014781D02*
X021783Y014781D01*
X021783Y014281D01*
X021283Y014281D01*
X020783Y014281D02*
X020783Y014781D01*
X020783Y014281D02*
X021783Y014781D01*
X025564Y016094D02*
X026283Y016094D01*
X026283Y016781D01*
X026283Y016031D02*
X026283Y015406D01*
X016064Y020094D02*
X015783Y020812D01*
X015346Y020875D01*
X016064Y020875D01*
X015752Y020875D02*
X015346Y020094D01*
X016064Y020094D01*
X013596Y021031D02*
X013596Y021344D01*
X013564Y021062D02*
X013596Y021031D01*
X013564Y021062D02*
X010658Y021062D01*
X010658Y021312D01*
X010689Y022062D02*
X010689Y022406D01*
X010752Y022437D02*
X013533Y022437D01*
X013596Y022375D01*
X013596Y022125D01*
X026252Y005531D02*
X026252Y004812D01*
X026252Y004125D01*
X026252Y004812D02*
X025439Y004812D01*
X011002Y002612D02*
X010948Y002610D01*
X010894Y002605D01*
X010841Y002596D01*
X010788Y002583D01*
X010737Y002567D01*
X010687Y002547D01*
X010638Y002524D01*
X010590Y002498D01*
X010545Y002469D01*
X010502Y002436D01*
X010461Y002401D01*
X010422Y002363D01*
X010386Y002323D01*
X010353Y002280D01*
X010323Y002235D01*
X010296Y002188D01*
X010307Y001415D02*
X010337Y001367D01*
X010370Y001322D01*
X010406Y001279D01*
X010444Y001238D01*
X010486Y001201D01*
X010530Y001166D01*
X010576Y001135D01*
X010625Y001106D01*
X010675Y001082D01*
X010727Y001061D01*
X010781Y001043D01*
X010835Y001030D01*
X010890Y001020D01*
X010946Y001014D01*
X011002Y001012D01*
X011055Y001014D01*
X011109Y001019D01*
X011161Y001028D01*
X011213Y001040D01*
X011264Y001056D01*
X011314Y001075D01*
X011363Y001098D01*
X011410Y001124D01*
X011455Y001152D01*
X011498Y001184D01*
X011538Y001218D01*
X011577Y001256D01*
X011613Y001295D01*
X011617Y002324D02*
X011581Y002364D01*
X011542Y002402D01*
X011501Y002437D01*
X011458Y002469D01*
X011413Y002499D01*
X011366Y002525D01*
X011317Y002547D01*
X011266Y002567D01*
X011215Y002583D01*
X011163Y002596D01*
X011109Y002605D01*
X011056Y002610D01*
X011002Y002612D01*
D16*
X013343Y015930D02*
X013553Y015930D01*
X013448Y015930D02*
X013448Y016560D01*
X013343Y016560D02*
X013553Y016560D01*
X013773Y016455D02*
X013773Y016035D01*
X013878Y015930D01*
X014088Y015930D01*
X014193Y016035D01*
X014417Y015930D02*
X014838Y015930D01*
X014628Y015930D02*
X014628Y016560D01*
X014417Y016350D01*
X014193Y016455D02*
X014088Y016560D01*
X013878Y016560D01*
X013773Y016455D01*
D17*
X016733Y019026D02*
X017333Y019026D01*
X017333Y019276D02*
X016733Y019276D01*
X017403Y015112D02*
X017403Y014812D01*
X017403Y014512D01*
X017653Y014512D02*
X017653Y014812D01*
X017653Y015112D01*
X016958Y011432D02*
X016658Y011432D01*
X016358Y011432D01*
X016358Y011182D02*
X016658Y011182D01*
X016958Y011182D01*
X019327Y006536D02*
X019627Y006536D01*
X019927Y006536D01*
X019927Y006286D02*
X019627Y006286D01*
X019327Y006286D01*
X023976Y006419D02*
X023976Y006719D01*
X023976Y007019D01*
X024226Y007019D02*
X024226Y006719D01*
X024226Y006419D01*
X024309Y009700D02*
X024309Y010000D01*
X024309Y010300D01*
X024059Y010300D02*
X024059Y010000D01*
X024059Y009700D01*
X012864Y003817D02*
X012564Y003817D01*
X012264Y003817D01*
X012264Y003567D02*
X012564Y003567D01*
X012864Y003567D01*
X008364Y016380D02*
X008064Y016380D01*
X007764Y016380D01*
X007764Y016630D02*
X008064Y016630D01*
X008364Y016630D01*
D18*
X007038Y019709D02*
X007038Y020016D01*
X007038Y019863D02*
X006578Y019863D01*
X006731Y019709D01*
X006808Y020170D02*
X006731Y020323D01*
X006731Y020400D01*
X006808Y020476D01*
X006961Y020476D01*
X007038Y020400D01*
X007038Y020246D01*
X006961Y020170D01*
X006808Y020170D02*
X006578Y020170D01*
X006578Y020476D01*
X006654Y020630D02*
X006578Y020707D01*
X006578Y020860D01*
X006654Y020937D01*
X006961Y020630D01*
X007038Y020707D01*
X007038Y020860D01*
X006961Y020937D01*
X006654Y020937D01*
X006731Y021090D02*
X006731Y021167D01*
X006808Y021244D01*
X006731Y021320D01*
X006808Y021397D01*
X007038Y021397D01*
X007038Y021244D02*
X006808Y021244D01*
X006731Y021090D02*
X007038Y021090D01*
X007038Y021551D02*
X006578Y021551D01*
X006808Y021551D02*
X006808Y021857D01*
X006578Y021857D02*
X007038Y021857D01*
X007589Y022620D02*
X007896Y022620D01*
X008050Y022620D02*
X008356Y022927D01*
X008356Y023003D01*
X008280Y023080D01*
X008126Y023080D01*
X008050Y023003D01*
X008050Y022620D02*
X008356Y022620D01*
X007589Y022620D02*
X007589Y023080D01*
X009657Y023122D02*
X009734Y023199D01*
X009888Y023199D01*
X009964Y023122D01*
X009964Y023046D01*
X009657Y022739D01*
X009964Y022739D01*
X010118Y022739D02*
X010425Y023046D01*
X010425Y023122D01*
X010348Y023199D01*
X010195Y023199D01*
X010118Y023122D01*
X010118Y022739D02*
X010425Y022739D01*
X010578Y022815D02*
X010885Y023122D01*
X010885Y022815D01*
X010808Y022739D01*
X010655Y022739D01*
X010578Y022815D01*
X010578Y023122D01*
X010655Y023199D01*
X010808Y023199D01*
X010885Y023122D01*
X011115Y022969D02*
X011115Y022815D01*
X011115Y022662D01*
X011039Y022585D01*
X011192Y022739D02*
X011269Y022739D01*
X011345Y022815D01*
X011345Y022969D01*
X011499Y022969D02*
X011806Y022969D01*
X011806Y023199D02*
X011806Y022739D01*
X011499Y022739D02*
X011499Y023199D01*
X011115Y022815D02*
X011192Y022739D01*
X014741Y022551D02*
X015048Y022551D01*
X015201Y022551D02*
X015508Y022551D01*
X015354Y022551D02*
X015354Y023012D01*
X015201Y022858D01*
X014741Y023012D02*
X014741Y022551D01*
X018865Y021575D02*
X018865Y021395D01*
X019226Y021395D01*
X019106Y021395D02*
X019106Y021575D01*
X019046Y021636D01*
X018926Y021636D01*
X018865Y021575D01*
X018986Y021267D02*
X019226Y021267D01*
X019046Y021267D02*
X019046Y021027D01*
X018986Y021027D02*
X018865Y021147D01*
X018986Y021267D01*
X018986Y021027D02*
X019226Y021027D01*
X019166Y020899D02*
X019106Y020899D01*
X019046Y020839D01*
X019046Y020779D01*
X019046Y020839D02*
X018986Y020899D01*
X018926Y020899D01*
X018865Y020839D01*
X018865Y020719D01*
X018926Y020659D01*
X018865Y020531D02*
X018926Y020410D01*
X019046Y020290D01*
X019046Y020471D01*
X019106Y020531D01*
X019166Y020531D01*
X019226Y020471D01*
X019226Y020350D01*
X019166Y020290D01*
X019046Y020290D01*
X018926Y020162D02*
X019166Y020162D01*
X019226Y020102D01*
X019226Y019982D01*
X019166Y019922D01*
X018926Y020162D01*
X018865Y020102D01*
X018865Y019982D01*
X018926Y019922D01*
X019166Y019922D01*
X019046Y019794D02*
X019046Y019554D01*
X018865Y019734D01*
X019226Y019734D01*
X019166Y019426D02*
X019106Y019426D01*
X019046Y019366D01*
X019046Y019306D01*
X019046Y019366D02*
X018986Y019426D01*
X018926Y019426D01*
X018865Y019366D01*
X018865Y019246D01*
X018926Y019185D01*
X018926Y019057D02*
X018865Y018997D01*
X018865Y018877D01*
X018926Y018817D01*
X019166Y018817D01*
X019226Y018877D01*
X019226Y018997D01*
X019166Y019057D01*
X019166Y019185D02*
X019226Y019246D01*
X019226Y019366D01*
X019166Y019426D01*
X019226Y018689D02*
X018865Y018689D01*
X018986Y018569D01*
X018865Y018449D01*
X019226Y018449D01*
X019166Y020659D02*
X019226Y020719D01*
X019226Y020839D01*
X019166Y020899D01*
X024916Y016636D02*
X024916Y016276D01*
X024916Y016396D02*
X025096Y016396D01*
X025156Y016456D01*
X025156Y016576D01*
X025096Y016636D01*
X024916Y016636D01*
X025036Y016396D02*
X025156Y016276D01*
X025284Y016336D02*
X025344Y016276D01*
X025464Y016276D01*
X025524Y016336D01*
X025524Y016456D01*
X025464Y016516D01*
X025404Y016516D01*
X025284Y016456D01*
X025284Y016636D01*
X025524Y016636D01*
X025772Y014755D02*
X026012Y014755D01*
X025892Y014755D02*
X025892Y014395D01*
X026140Y014395D02*
X026380Y014395D01*
X026260Y014395D02*
X026260Y014755D01*
X026140Y014635D01*
X025305Y012574D02*
X025212Y012574D01*
X025165Y012527D01*
X025165Y012340D01*
X025212Y012294D01*
X025305Y012294D01*
X025352Y012340D01*
X025352Y012527D02*
X025305Y012574D01*
X025057Y012527D02*
X024870Y012340D01*
X024917Y012294D01*
X025010Y012294D01*
X025057Y012340D01*
X025057Y012527D01*
X025010Y012574D01*
X024917Y012574D01*
X024870Y012527D01*
X024870Y012340D01*
X024762Y012434D02*
X024576Y012434D01*
X024716Y012574D01*
X024716Y012294D01*
X024468Y012340D02*
X024468Y012387D01*
X024421Y012434D01*
X024281Y012434D01*
X024281Y012340D01*
X024328Y012294D01*
X024421Y012294D01*
X024468Y012340D01*
X024374Y012527D02*
X024281Y012434D01*
X024374Y012527D02*
X024468Y012574D01*
X024173Y012527D02*
X024126Y012574D01*
X024033Y012574D01*
X023986Y012527D01*
X023986Y012340D01*
X024033Y012294D01*
X024126Y012294D01*
X024173Y012340D01*
X023878Y012340D02*
X023832Y012294D01*
X023692Y012294D01*
X023692Y012574D01*
X023832Y012574D01*
X023878Y012527D01*
X023878Y012481D01*
X023832Y012434D01*
X023692Y012434D01*
X023832Y012434D02*
X023878Y012387D01*
X023878Y012340D01*
X025348Y011139D02*
X025408Y011199D01*
X025528Y011199D01*
X025588Y011139D01*
X025588Y010899D01*
X025528Y010839D01*
X025408Y010839D01*
X025348Y010899D01*
X025348Y011139D01*
X025468Y010959D02*
X025588Y010839D01*
X025716Y010899D02*
X025776Y010839D01*
X025896Y010839D01*
X025956Y010899D01*
X025956Y010959D01*
X025896Y011019D01*
X025836Y011019D01*
X025896Y011019D02*
X025956Y011079D01*
X025956Y011139D01*
X025896Y011199D01*
X025776Y011199D01*
X025716Y011139D01*
X020749Y015219D02*
X020509Y014979D01*
X020509Y014919D01*
X020381Y014979D02*
X020381Y015219D01*
X020320Y015279D01*
X020140Y015279D01*
X020140Y014919D01*
X020320Y014919D01*
X020381Y014979D01*
X020509Y015279D02*
X020749Y015279D01*
X020749Y015219D01*
X019469Y015318D02*
X019349Y015258D01*
X019229Y015138D01*
X019409Y015138D01*
X019469Y015078D01*
X019469Y015017D01*
X019409Y014957D01*
X019289Y014957D01*
X019229Y015017D01*
X019229Y015138D01*
X019101Y015138D02*
X019040Y015078D01*
X018860Y015078D01*
X018980Y015078D02*
X019101Y014957D01*
X019101Y015138D02*
X019101Y015258D01*
X019040Y015318D01*
X018860Y015318D01*
X018860Y014957D01*
X018998Y013824D02*
X018998Y013464D01*
X018878Y013464D02*
X019118Y013464D01*
X019246Y013524D02*
X019486Y013764D01*
X019486Y013524D01*
X019426Y013464D01*
X019306Y013464D01*
X019246Y013524D01*
X019246Y013764D01*
X019306Y013824D01*
X019426Y013824D01*
X019486Y013764D01*
X018998Y013824D02*
X018878Y013704D01*
X018750Y013764D02*
X018750Y013644D01*
X018690Y013584D01*
X018509Y013584D01*
X018509Y013464D02*
X018509Y013824D01*
X018690Y013824D01*
X018750Y013764D01*
X018629Y013584D02*
X018750Y013464D01*
X018759Y013011D02*
X018940Y013011D01*
X019000Y012951D01*
X019000Y012831D01*
X018940Y012771D01*
X018759Y012771D01*
X018759Y012651D02*
X018759Y013011D01*
X018880Y012771D02*
X019000Y012651D01*
X019128Y012651D02*
X019368Y012891D01*
X019368Y012951D01*
X019308Y013011D01*
X019188Y013011D01*
X019128Y012951D01*
X019128Y012651D02*
X019368Y012651D01*
X018451Y012557D02*
X018451Y012404D01*
X018374Y012327D01*
X018221Y012404D02*
X018221Y012557D01*
X018297Y012634D01*
X018374Y012634D01*
X018451Y012557D01*
X018451Y012787D02*
X017990Y012787D01*
X017990Y013017D01*
X018067Y013094D01*
X018221Y013094D01*
X018297Y013017D01*
X018297Y012787D01*
X018067Y012634D02*
X017990Y012557D01*
X017990Y012404D01*
X018067Y012327D01*
X018144Y012327D01*
X018221Y012404D01*
X018451Y012173D02*
X018451Y012020D01*
X018451Y012097D02*
X017990Y012097D01*
X017990Y012173D02*
X017990Y012020D01*
X011482Y012738D02*
X011405Y012662D01*
X011098Y012662D01*
X011022Y012738D01*
X011022Y012892D01*
X011098Y012969D01*
X011405Y012969D01*
X011482Y012892D01*
X011482Y012738D01*
X011329Y012815D02*
X011482Y012969D01*
X011252Y013122D02*
X011252Y013429D01*
X011482Y013352D02*
X011022Y013352D01*
X011252Y013122D01*
X008201Y013273D02*
X007971Y013273D01*
X007894Y013196D01*
X007894Y012966D01*
X008201Y012966D01*
X008124Y012812D02*
X008201Y012736D01*
X008201Y012582D01*
X008124Y012505D01*
X007817Y012812D01*
X008124Y012812D01*
X008124Y012505D02*
X007817Y012505D01*
X007740Y012582D01*
X007740Y012736D01*
X007817Y012812D01*
X007544Y012844D02*
X007544Y012537D01*
X007544Y012690D02*
X007084Y012690D01*
X007238Y012537D01*
X007161Y012383D02*
X007084Y012306D01*
X007084Y012153D01*
X007161Y012076D01*
X007468Y012076D01*
X007544Y012153D01*
X007544Y012306D01*
X007468Y012383D01*
X007740Y012199D02*
X007894Y012045D01*
X007740Y012199D02*
X008201Y012199D01*
X008201Y012352D02*
X008201Y012045D01*
X007314Y012997D02*
X007314Y013304D01*
X007084Y013227D02*
X007314Y012997D01*
X007544Y013227D02*
X007084Y013227D01*
X004794Y013201D02*
X004794Y012971D01*
X004794Y012817D02*
X004564Y012817D01*
X004488Y012741D01*
X004488Y012587D01*
X004641Y012587D02*
X004641Y012817D01*
X004794Y012817D02*
X004794Y012587D01*
X004718Y012511D01*
X004641Y012587D01*
X004334Y012357D02*
X004334Y012050D01*
X004334Y012204D02*
X004794Y012204D01*
X004564Y011897D02*
X004564Y011590D01*
X004411Y011436D02*
X004334Y011360D01*
X004334Y011129D01*
X004794Y011129D01*
X004794Y011360D01*
X004718Y011436D01*
X004411Y011436D01*
X004334Y010976D02*
X004334Y010669D01*
X004794Y010669D01*
X004794Y010976D01*
X004564Y010823D02*
X004564Y010669D01*
X004794Y010516D02*
X004794Y010209D01*
X004334Y010209D01*
X001794Y011076D02*
X001488Y011076D01*
X001334Y011230D01*
X001488Y011383D01*
X001794Y011383D01*
X001794Y011537D02*
X001334Y011537D01*
X001334Y011767D01*
X001411Y011844D01*
X001564Y011844D01*
X001641Y011767D01*
X001641Y011537D01*
X001564Y011383D02*
X001564Y011076D01*
X001641Y011997D02*
X001641Y012227D01*
X001564Y012304D01*
X001411Y012304D01*
X001334Y012227D01*
X001334Y011997D01*
X001794Y011997D01*
X004488Y013048D02*
X004488Y013278D01*
X004488Y013431D02*
X004488Y013585D01*
X004411Y013508D02*
X004718Y013508D01*
X004794Y013585D01*
X004718Y013738D02*
X004564Y013738D01*
X004488Y013815D01*
X004488Y013968D01*
X004564Y014045D01*
X004641Y014045D01*
X004641Y013738D01*
X004718Y013738D02*
X004794Y013815D01*
X004794Y013968D01*
X004794Y014198D02*
X004488Y014198D01*
X004641Y014198D02*
X004488Y014352D01*
X004488Y014429D01*
X004718Y013278D02*
X004641Y013201D01*
X004641Y013048D01*
X004564Y012971D01*
X004488Y013048D01*
X004718Y013278D02*
X004794Y013201D01*
X006654Y020630D02*
X006961Y020630D01*
X015650Y005695D02*
X015711Y005695D01*
X015771Y005635D01*
X015771Y005455D01*
X015650Y005327D02*
X015891Y005087D01*
X015951Y005087D01*
X015891Y004959D02*
X015771Y004959D01*
X015711Y004899D01*
X015711Y004839D01*
X015771Y004719D01*
X015590Y004719D01*
X015590Y004959D01*
X015590Y005087D02*
X015590Y005327D01*
X015650Y005327D01*
X015590Y005455D02*
X015590Y005635D01*
X015650Y005695D01*
X015771Y005635D02*
X015831Y005695D01*
X015891Y005695D01*
X015951Y005635D01*
X015951Y005455D01*
X015590Y005455D01*
X015891Y004959D02*
X015951Y004899D01*
X015951Y004779D01*
X015891Y004719D01*
X015891Y004591D02*
X015951Y004530D01*
X015951Y004410D01*
X015891Y004350D01*
X015771Y004350D02*
X015711Y004470D01*
X015711Y004530D01*
X015771Y004591D01*
X015891Y004591D01*
X015771Y004350D02*
X015590Y004350D01*
X015590Y004591D01*
X015650Y004222D02*
X015590Y004162D01*
X015590Y004042D01*
X015650Y003982D01*
X015891Y003982D01*
X015951Y004042D01*
X015951Y004162D01*
X015891Y004222D01*
X015891Y003854D02*
X015831Y003854D01*
X015771Y003794D01*
X015771Y003614D01*
X015951Y003614D02*
X015590Y003614D01*
X015590Y003794D01*
X015650Y003854D01*
X015711Y003854D01*
X015771Y003794D01*
X015891Y003854D02*
X015951Y003794D01*
X015951Y003614D01*
X018697Y000943D02*
X018877Y000943D01*
X018937Y000883D01*
X018937Y000763D01*
X018877Y000703D01*
X018697Y000703D01*
X018697Y000582D02*
X018697Y000943D01*
X019065Y000823D02*
X019065Y000582D01*
X019065Y000703D02*
X019185Y000823D01*
X019245Y000823D01*
X019372Y000763D02*
X019372Y000642D01*
X019432Y000582D01*
X019552Y000582D01*
X019612Y000642D01*
X019612Y000763D01*
X019552Y000823D01*
X019432Y000823D01*
X019372Y000763D01*
X019740Y000763D02*
X019740Y000642D01*
X019801Y000582D01*
X019981Y000582D01*
X019981Y000522D02*
X019981Y000823D01*
X019801Y000823D01*
X019740Y000763D01*
X019981Y000522D02*
X019921Y000462D01*
X019861Y000462D01*
X020109Y000582D02*
X020109Y000823D01*
X020109Y000703D02*
X020229Y000823D01*
X020289Y000823D01*
X020476Y000823D02*
X020596Y000823D01*
X020656Y000763D01*
X020656Y000582D01*
X020476Y000582D01*
X020416Y000642D01*
X020476Y000703D01*
X020656Y000703D01*
X020784Y000823D02*
X020844Y000823D01*
X020904Y000763D01*
X020964Y000823D01*
X021024Y000763D01*
X021024Y000582D01*
X020904Y000582D02*
X020904Y000763D01*
X020784Y000823D02*
X020784Y000582D01*
X021152Y000582D02*
X021152Y000823D01*
X021212Y000823D01*
X021272Y000763D01*
X021332Y000823D01*
X021392Y000763D01*
X021392Y000582D01*
X021272Y000582D02*
X021272Y000763D01*
X021521Y000823D02*
X021581Y000823D01*
X021581Y000582D01*
X021521Y000582D02*
X021641Y000582D01*
X021766Y000642D02*
X021766Y000763D01*
X021826Y000823D01*
X021946Y000823D01*
X022006Y000763D01*
X022006Y000703D01*
X021766Y000703D01*
X021766Y000642D02*
X021826Y000582D01*
X021946Y000582D01*
X022134Y000582D02*
X022134Y000823D01*
X022254Y000823D02*
X022315Y000823D01*
X022254Y000823D02*
X022134Y000703D01*
X022441Y000763D02*
X022681Y000763D01*
X022810Y000943D02*
X023050Y000943D01*
X022930Y000943D02*
X022930Y000582D01*
X023178Y000642D02*
X023238Y000703D01*
X023418Y000703D01*
X023418Y000763D02*
X023418Y000582D01*
X023238Y000582D01*
X023178Y000642D01*
X023238Y000823D02*
X023358Y000823D01*
X023418Y000763D01*
X023546Y000763D02*
X023606Y000703D01*
X023726Y000703D01*
X023786Y000642D01*
X023726Y000582D01*
X023546Y000582D01*
X023546Y000763D02*
X023606Y000823D01*
X023786Y000823D01*
X023915Y000823D02*
X024035Y000823D01*
X023975Y000883D02*
X023975Y000642D01*
X024035Y000582D01*
X024160Y000642D02*
X024160Y000763D01*
X024220Y000823D01*
X024340Y000823D01*
X024400Y000763D01*
X024400Y000703D01*
X024160Y000703D01*
X024160Y000642D02*
X024220Y000582D01*
X024340Y000582D01*
X024528Y000582D02*
X024528Y000823D01*
X024528Y000703D02*
X024648Y000823D01*
X024708Y000823D01*
X021581Y000943D02*
X021581Y001003D01*
D19*
X007922Y004312D03*
X007922Y005312D03*
X005082Y005312D03*
X005082Y004312D03*
X017613Y016750D03*
X016207Y017687D03*
X019047Y017687D03*
X020453Y016750D03*
X020703Y022812D03*
X017863Y022812D03*
D20*
X023777Y016406D02*
X023977Y016406D01*
X025027Y013187D02*
X025227Y013187D01*
D21*
X013627Y018212D03*
D22*
X009946Y019500D03*
D23*
X003481Y020875D02*
X003484Y020980D01*
X003491Y021085D01*
X003504Y021190D01*
X003522Y021294D01*
X003545Y021396D01*
X003573Y021498D01*
X003606Y021598D01*
X003644Y021696D01*
X003687Y021793D01*
X003734Y021887D01*
X003786Y021978D01*
X003843Y022067D01*
X003903Y022153D01*
X003968Y022236D01*
X004037Y022316D01*
X004110Y022392D01*
X004186Y022465D01*
X004266Y022534D01*
X004349Y022599D01*
X004435Y022659D01*
X004524Y022716D01*
X004615Y022768D01*
X004709Y022815D01*
X004806Y022858D01*
X004904Y022896D01*
X005004Y022929D01*
X005106Y022957D01*
X005208Y022980D01*
X005312Y022998D01*
X005417Y023011D01*
X005522Y023018D01*
X005627Y023021D01*
X005732Y023018D01*
X005837Y023011D01*
X005942Y022998D01*
X006046Y022980D01*
X006148Y022957D01*
X006250Y022929D01*
X006350Y022896D01*
X006448Y022858D01*
X006545Y022815D01*
X006639Y022768D01*
X006730Y022716D01*
X006819Y022659D01*
X006905Y022599D01*
X006988Y022534D01*
X007068Y022465D01*
X007144Y022392D01*
X007217Y022316D01*
X007286Y022236D01*
X007351Y022153D01*
X007411Y022067D01*
X007468Y021978D01*
X007520Y021887D01*
X007567Y021793D01*
X007610Y021696D01*
X007648Y021598D01*
X007681Y021498D01*
X007709Y021396D01*
X007732Y021294D01*
X007750Y021190D01*
X007763Y021085D01*
X007770Y020980D01*
X007773Y020875D01*
X007770Y020770D01*
X007763Y020665D01*
X007750Y020560D01*
X007732Y020456D01*
X007709Y020354D01*
X007681Y020252D01*
X007648Y020152D01*
X007610Y020054D01*
X007567Y019957D01*
X007520Y019863D01*
X007468Y019772D01*
X007411Y019683D01*
X007351Y019597D01*
X007286Y019514D01*
X007217Y019434D01*
X007144Y019358D01*
X007068Y019285D01*
X006988Y019216D01*
X006905Y019151D01*
X006819Y019091D01*
X006730Y019034D01*
X006639Y018982D01*
X006545Y018935D01*
X006448Y018892D01*
X006350Y018854D01*
X006250Y018821D01*
X006148Y018793D01*
X006046Y018770D01*
X005942Y018752D01*
X005837Y018739D01*
X005732Y018732D01*
X005627Y018729D01*
X005522Y018732D01*
X005417Y018739D01*
X005312Y018752D01*
X005208Y018770D01*
X005106Y018793D01*
X005004Y018821D01*
X004904Y018854D01*
X004806Y018892D01*
X004709Y018935D01*
X004615Y018982D01*
X004524Y019034D01*
X004435Y019091D01*
X004349Y019151D01*
X004266Y019216D01*
X004186Y019285D01*
X004110Y019358D01*
X004037Y019434D01*
X003968Y019514D01*
X003903Y019597D01*
X003843Y019683D01*
X003786Y019772D01*
X003734Y019863D01*
X003687Y019957D01*
X003644Y020054D01*
X003606Y020152D01*
X003573Y020252D01*
X003545Y020354D01*
X003522Y020456D01*
X003504Y020560D01*
X003491Y020665D01*
X003484Y020770D01*
X003481Y020875D01*
X003206Y020875D02*
X003209Y020994D01*
X003218Y021112D01*
X003232Y021230D01*
X003253Y021347D01*
X003279Y021463D01*
X003310Y021578D01*
X003348Y021691D01*
X003390Y021801D01*
X003438Y021910D01*
X003492Y022016D01*
X003550Y022120D01*
X003614Y022220D01*
X003682Y022317D01*
X003756Y022411D01*
X003833Y022501D01*
X003915Y022587D01*
X004001Y022669D01*
X004091Y022746D01*
X004185Y022820D01*
X004282Y022888D01*
X004382Y022952D01*
X004486Y023010D01*
X004592Y023064D01*
X004701Y023112D01*
X004811Y023154D01*
X004924Y023192D01*
X005039Y023223D01*
X005155Y023249D01*
X005272Y023270D01*
X005390Y023284D01*
X005508Y023293D01*
X005627Y023296D01*
X005746Y023293D01*
X005864Y023284D01*
X005982Y023270D01*
X006099Y023249D01*
X006215Y023223D01*
X006330Y023192D01*
X006443Y023154D01*
X006553Y023112D01*
X006662Y023064D01*
X006768Y023010D01*
X006872Y022952D01*
X006972Y022888D01*
X007069Y022820D01*
X007163Y022746D01*
X007253Y022669D01*
X007339Y022587D01*
X007421Y022501D01*
X007498Y022411D01*
X007572Y022317D01*
X007640Y022220D01*
X007704Y022120D01*
X007762Y022016D01*
X007816Y021910D01*
X007864Y021801D01*
X007906Y021691D01*
X007944Y021578D01*
X007975Y021463D01*
X008001Y021347D01*
X008022Y021230D01*
X008036Y021112D01*
X008045Y020994D01*
X008048Y020875D01*
X008045Y020756D01*
X008036Y020638D01*
X008022Y020520D01*
X008001Y020403D01*
X007975Y020287D01*
X007944Y020172D01*
X007906Y020059D01*
X007864Y019949D01*
X007816Y019840D01*
X007762Y019734D01*
X007704Y019630D01*
X007640Y019530D01*
X007572Y019433D01*
X007498Y019339D01*
X007421Y019249D01*
X007339Y019163D01*
X007253Y019081D01*
X007163Y019004D01*
X007069Y018930D01*
X006972Y018862D01*
X006872Y018798D01*
X006768Y018740D01*
X006662Y018686D01*
X006553Y018638D01*
X006443Y018596D01*
X006330Y018558D01*
X006215Y018527D01*
X006099Y018501D01*
X005982Y018480D01*
X005864Y018466D01*
X005746Y018457D01*
X005627Y018454D01*
X005508Y018457D01*
X005390Y018466D01*
X005272Y018480D01*
X005155Y018501D01*
X005039Y018527D01*
X004924Y018558D01*
X004811Y018596D01*
X004701Y018638D01*
X004592Y018686D01*
X004486Y018740D01*
X004382Y018798D01*
X004282Y018862D01*
X004185Y018930D01*
X004091Y019004D01*
X004001Y019081D01*
X003915Y019163D01*
X003833Y019249D01*
X003756Y019339D01*
X003682Y019433D01*
X003614Y019530D01*
X003550Y019630D01*
X003492Y019734D01*
X003438Y019840D01*
X003390Y019949D01*
X003348Y020059D01*
X003310Y020172D01*
X003279Y020287D01*
X003253Y020403D01*
X003232Y020520D01*
X003218Y020638D01*
X003209Y020756D01*
X003206Y020875D01*
X009490Y013507D02*
X009488Y013492D01*
X009484Y013477D01*
X009477Y013463D01*
X009467Y013451D01*
X009455Y013441D01*
X009441Y013434D01*
X009426Y013430D01*
X009411Y013428D01*
X009490Y013507D02*
X010514Y013507D01*
X010516Y013492D01*
X010520Y013477D01*
X010527Y013463D01*
X010537Y013451D01*
X010549Y013441D01*
X010563Y013434D01*
X010578Y013430D01*
X010593Y013428D01*
X010593Y011697D02*
X010578Y011695D01*
X010563Y011691D01*
X010549Y011684D01*
X010537Y011674D01*
X010527Y011662D01*
X010520Y011648D01*
X010516Y011633D01*
X010514Y011618D01*
X009490Y011618D01*
X009488Y011633D01*
X009484Y011648D01*
X009477Y011662D01*
X009467Y011674D01*
X009455Y011684D01*
X009441Y011691D01*
X009426Y011695D01*
X009411Y011697D01*
D24*
X015002Y003012D02*
X015002Y002912D01*
X016002Y002912D01*
X016002Y003012D01*
X015952Y000712D02*
X015002Y000712D01*
X015002Y000612D01*
X015952Y000612D02*
X015952Y000712D01*
D25*
X009502Y001955D03*
X009502Y004795D03*
X020689Y007299D03*
X020689Y010139D03*
D26*
X022252Y017662D03*
D27*
X022252Y017037D03*
X022252Y019587D03*
D28*
X011686Y021750D02*
X011688Y021828D01*
X011694Y021905D01*
X011704Y021982D01*
X011717Y022059D01*
X011735Y022135D01*
X011756Y022210D01*
X011782Y022283D01*
X011810Y022355D01*
X011843Y022426D01*
X011879Y022495D01*
X011918Y022562D01*
X011961Y022627D01*
X012007Y022690D01*
X012056Y022750D01*
X012108Y022808D01*
X012163Y022863D01*
X012221Y022915D01*
X012281Y022964D01*
X012344Y023010D01*
X012409Y023053D01*
X012476Y023092D01*
X012545Y023128D01*
X012616Y023161D01*
X012688Y023189D01*
X012761Y023215D01*
X012836Y023236D01*
X012912Y023254D01*
X012989Y023267D01*
X013066Y023277D01*
X013143Y023283D01*
X013221Y023285D01*
X013299Y023283D01*
X013376Y023277D01*
X013453Y023267D01*
X013530Y023254D01*
X013606Y023236D01*
X013681Y023215D01*
X013754Y023189D01*
X013826Y023161D01*
X013897Y023128D01*
X013966Y023092D01*
X014033Y023053D01*
X014098Y023010D01*
X014161Y022964D01*
X014221Y022915D01*
X014279Y022863D01*
X014334Y022808D01*
X014386Y022750D01*
X014435Y022690D01*
X014481Y022627D01*
X014524Y022562D01*
X014563Y022495D01*
X014599Y022426D01*
X014632Y022355D01*
X014660Y022283D01*
X014686Y022210D01*
X014707Y022135D01*
X014725Y022059D01*
X014738Y021982D01*
X014748Y021905D01*
X014754Y021828D01*
X014756Y021750D01*
X014754Y021672D01*
X014748Y021595D01*
X014738Y021518D01*
X014725Y021441D01*
X014707Y021365D01*
X014686Y021290D01*
X014660Y021217D01*
X014632Y021145D01*
X014599Y021074D01*
X014563Y021005D01*
X014524Y020938D01*
X014481Y020873D01*
X014435Y020810D01*
X014386Y020750D01*
X014334Y020692D01*
X014279Y020637D01*
X014221Y020585D01*
X014161Y020536D01*
X014098Y020490D01*
X014033Y020447D01*
X013966Y020408D01*
X013897Y020372D01*
X013826Y020339D01*
X013754Y020311D01*
X013681Y020285D01*
X013606Y020264D01*
X013530Y020246D01*
X013453Y020233D01*
X013376Y020223D01*
X013299Y020217D01*
X013221Y020215D01*
X013143Y020217D01*
X013066Y020223D01*
X012989Y020233D01*
X012912Y020246D01*
X012836Y020264D01*
X012761Y020285D01*
X012688Y020311D01*
X012616Y020339D01*
X012545Y020372D01*
X012476Y020408D01*
X012409Y020447D01*
X012344Y020490D01*
X012281Y020536D01*
X012221Y020585D01*
X012163Y020637D01*
X012108Y020692D01*
X012056Y020750D01*
X012007Y020810D01*
X011961Y020873D01*
X011918Y020938D01*
X011879Y021005D01*
X011843Y021074D01*
X011810Y021145D01*
X011782Y021217D01*
X011756Y021290D01*
X011735Y021365D01*
X011717Y021441D01*
X011704Y021518D01*
X011694Y021595D01*
X011688Y021672D01*
X011686Y021750D01*
D29*
X013221Y021750D03*
D30*
X015721Y020520D03*
D31*
X005902Y017625D03*
D32*
X006277Y017625D03*
X004227Y017625D03*
M02*
