%
M48
M72
T01C0.0276
T02C0.0315
T03C0.0320
T04C0.0394
T05C0.0400
T06C0.0433
T07C0.0512
T08C0.0550
T09C0.0551
T10C0.0591
T11C0.1102
%
T01
X2721Y1437
T02
X4471Y1781
X7064Y6125
X9533Y9062
X13877Y10969
X14564Y11281
X14415Y9790
X7189Y15125
X2908Y22625
X18502Y22812
X22533Y22344
T03
X21283Y22812
X21033Y21656
X21033Y20656
X21033Y19656
X21033Y18656
X19627Y17687
X18033Y18656
X17033Y18656
X17033Y19656
X18033Y19656
X18033Y20656
X18033Y21656
X17283Y22812
X22252Y20312
X21033Y16750
X22252Y16312
X21502Y15750
X22783Y14781
X22783Y13781
X22783Y12781
X22783Y11781
X24127Y11937
X24627Y11187
X25127Y11937
X24627Y13187
X25627Y13187
X24877Y14250
X24377Y15000
X23877Y14250
X24377Y16406
X23377Y16406
X19783Y14781
X19783Y13781
X19783Y12781
X19783Y11781
X20689Y10719
X23189Y10000
X22189Y8469
X23096Y6719
X25096Y6719
X25189Y8469
X25189Y10000
X20689Y6719
X19627Y7406
X19627Y5406
X19346Y4531
X20689Y4656
X22221Y4594
X23564Y4625
X23564Y1625
X22221Y1594
X20689Y1656
X16346Y4531
X14783Y4187
X14033Y4687
X14783Y5187
X15533Y6312
X15533Y7312
X15533Y8312
X15533Y9312
X15533Y10312
X15533Y11312
X15533Y12312
X15533Y13312
X15533Y14312
X16533Y14812
X15533Y15312
X17033Y16750
X15627Y17687
X18502Y15750
X18533Y14812
X16658Y12312
X16658Y10312
X12533Y10312
X12533Y9312
X12533Y8312
X12533Y7312
X12533Y6312
X12564Y4687
X12564Y2687
X11502Y1812
X10502Y1812
X9502Y1375
X8502Y4312
X8502Y5312
X9502Y5375
X4502Y5312
X4502Y4312
X8583Y10625
X10483Y10625
X12533Y11312
X12533Y12312
X12533Y13312
X12533Y14312
X12533Y15312
X10464Y15062
X9664Y15062
X9564Y16625
X10064Y17375
X10564Y16625
X8064Y17500
X6752Y17625
X8064Y15500
X4252Y18437
X3752Y17625
X3252Y18437
X2315Y18344
X2315Y19344
T04
X8971Y18031
X10908Y18031
X10283Y21750
X12236Y21750
X14205Y21750
X15721Y18656
X7564Y3437
T05
X7689Y1875
X6689Y1875
X5689Y1875
X5502Y6312
X5502Y7312
X5502Y8312
X5502Y9312
X5502Y10312
X5502Y11312
X5502Y12312
X5502Y13312
X5502Y14312
X5502Y15312
X3752Y15312
X2752Y15312
X2752Y16312
X3752Y16312
X3752Y14312
X2752Y14312
X2752Y13312
X3752Y13312
X3752Y12312
X2752Y12312
X2752Y11312
X3752Y11312
X3752Y10312
X2752Y10312
X2752Y9312
X3752Y9312
X3752Y8312
X2752Y8312
X2752Y7312
X3752Y7312
X14222Y2702
X14222Y922
X16782Y922
X16782Y2702
X17908Y6312
X17908Y7312
X17908Y8312
X17908Y9312
X17908Y10312
X17908Y11312
X13627Y17437
X13627Y19437
X10721Y19500
X8721Y19500
T06
X5627Y19891
X5627Y21859
T07
X25939Y4812
T08
X15721Y19500
X15721Y21500
T09
X25939Y16062
T10
X15502Y1812
T11
X1752Y2312
X1752Y21562
X25502Y21562
X25502Y2312
M30
