G75*
G70*
%OFA0B0*%
%FSLAX24Y24*%
%IPPOS*%
%LPD*%
%AMOC8*
5,1,8,0,0,1.08239X$1,22.5*
%
%ADD10C,0.1182*%
%ADD11C,0.0671*%
%ADD12R,0.0317X0.0595*%
%ADD13R,0.0373X0.0598*%
%ADD14C,0.0240*%
%ADD15C,0.0600*%
%ADD16OC8,0.0600*%
%ADD17C,0.0680*%
%ADD18OC8,0.0680*%
%ADD19C,0.1080*%
%ADD20OC8,0.1080*%
%ADD21C,0.0730*%
%ADD22C,0.0600*%
%ADD23R,0.0789X0.0710*%
%ADD24C,0.0674*%
%ADD25OC8,0.0905*%
%ADD26OC8,0.0555*%
%ADD27OC8,0.0740*%
%ADD28OC8,0.0580*%
%ADD29C,0.0555*%
%ADD30C,0.0740*%
%ADD31R,0.0516X0.0516*%
%ADD32OC8,0.0671*%
%ADD33R,0.0555X0.0555*%
D10*
X001811Y002312D03*
X001811Y021562D03*
X025561Y021562D03*
X025561Y002312D03*
D11*
X019749Y003437D03*
X011811Y001812D03*
X016405Y018031D03*
X018343Y018031D03*
X017030Y021750D03*
D12*
X015488Y001810D03*
D13*
X017114Y001811D03*
D14*
X020936Y001875D02*
X021280Y001875D01*
D15*
X015040Y006312D02*
X014520Y006312D01*
X014520Y007312D02*
X015040Y007312D01*
X015040Y008312D02*
X014520Y008312D01*
X014520Y009312D02*
X015040Y009312D01*
X015040Y010312D02*
X014520Y010312D01*
X014520Y011312D02*
X015040Y011312D01*
X015040Y012312D02*
X014520Y012312D01*
X014520Y013312D02*
X015040Y013312D01*
X015040Y014312D02*
X014520Y014312D01*
X014520Y015312D02*
X015040Y015312D01*
X012040Y015312D02*
X011520Y015312D01*
X011520Y014312D02*
X012040Y014312D01*
X012040Y013312D02*
X011520Y013312D01*
X011520Y012312D02*
X012040Y012312D01*
X012040Y011312D02*
X011520Y011312D01*
X011520Y010312D02*
X012040Y010312D01*
X012040Y009312D02*
X011520Y009312D01*
X011520Y008312D02*
X012040Y008312D01*
X012040Y007312D02*
X011520Y007312D01*
X011520Y006312D02*
X012040Y006312D01*
X005061Y016052D02*
X005061Y016572D01*
X006020Y018656D02*
X006540Y018656D01*
X006540Y019656D02*
X006020Y019656D01*
X006020Y020656D02*
X006540Y020656D01*
X006540Y021656D02*
X006020Y021656D01*
X005061Y020572D02*
X005061Y020052D01*
X009020Y019656D02*
X009540Y019656D01*
X009540Y018656D02*
X009020Y018656D01*
X009020Y020656D02*
X009540Y020656D01*
X009540Y021656D02*
X009020Y021656D01*
X020301Y017625D02*
X020821Y017625D01*
X023301Y017625D02*
X023821Y017625D01*
D16*
X024061Y018437D03*
X024999Y018344D03*
X024999Y019344D03*
X023061Y018437D03*
X019249Y017500D03*
X017749Y016625D03*
X017249Y017375D03*
X016749Y016625D03*
X017649Y015062D03*
X019249Y015500D03*
X011686Y017687D03*
X010280Y016750D03*
X008811Y015750D03*
X008780Y014812D03*
X007530Y014781D03*
X007530Y013781D03*
X007530Y012781D03*
X007530Y011781D03*
X006624Y010719D03*
X004530Y011781D03*
X004530Y012781D03*
X004530Y013781D03*
X004530Y014781D03*
X003436Y014250D03*
X002936Y015000D03*
X002436Y014250D03*
X002686Y013187D03*
X001686Y013187D03*
X002186Y011937D03*
X002686Y011187D03*
X003186Y011937D03*
X004124Y010000D03*
X005124Y008469D03*
X004218Y006719D03*
X002218Y006719D03*
X002124Y008469D03*
X002124Y010000D03*
X006624Y006719D03*
X007686Y007406D03*
X007686Y005406D03*
X007968Y004531D03*
X006624Y004656D03*
X005093Y004594D03*
X003749Y004625D03*
X003749Y001625D03*
X005093Y001594D03*
X006624Y001656D03*
X010968Y004531D03*
X012530Y004187D03*
X013280Y004687D03*
X012530Y005187D03*
X014749Y004687D03*
X014749Y002687D03*
X015811Y001812D03*
X016811Y001812D03*
X017811Y001375D03*
X018811Y004312D03*
X018811Y005312D03*
X017811Y005375D03*
X022811Y005312D03*
X022811Y004312D03*
X010655Y010312D03*
X010655Y012312D03*
X010780Y014812D03*
X007686Y017687D03*
X006280Y016750D03*
X005811Y015750D03*
X003936Y016406D03*
X002936Y016406D03*
X006030Y022812D03*
X010030Y022812D03*
X010280Y019656D03*
X010280Y018656D03*
D17*
X009705Y011312D02*
X009105Y011312D01*
X009105Y010312D02*
X009705Y010312D01*
X009705Y009312D02*
X009105Y009312D01*
X009105Y008312D02*
X009705Y008312D01*
X009705Y007312D02*
X009105Y007312D01*
X009105Y006312D02*
X009705Y006312D01*
X010231Y002702D02*
X010831Y002702D01*
X012791Y002702D02*
X013391Y002702D01*
X013391Y000922D02*
X012791Y000922D01*
X010831Y000922D02*
X010231Y000922D01*
X021511Y006312D02*
X022111Y006312D01*
X022111Y007312D02*
X021511Y007312D01*
X021511Y008312D02*
X022111Y008312D01*
X022111Y009312D02*
X021511Y009312D01*
X021511Y010312D02*
X022111Y010312D01*
X022111Y011312D02*
X021511Y011312D01*
X021511Y012312D02*
X022111Y012312D01*
X022111Y013312D02*
X021511Y013312D01*
X021511Y014312D02*
X022111Y014312D01*
X022111Y015312D02*
X021511Y015312D01*
D18*
X023561Y015312D03*
X024561Y015312D03*
X024561Y016312D03*
X023561Y016312D03*
X023561Y014312D03*
X024561Y014312D03*
X024561Y013312D03*
X023561Y013312D03*
X023561Y012312D03*
X024561Y012312D03*
X024561Y011312D03*
X023561Y011312D03*
X023561Y010312D03*
X024561Y010312D03*
X024561Y009312D03*
X023561Y009312D03*
X023561Y008312D03*
X024561Y008312D03*
X024561Y007312D03*
X023561Y007312D03*
X021624Y001875D03*
X020624Y001875D03*
X019624Y001875D03*
D19*
X018593Y019500D03*
X013686Y019437D03*
D20*
X013686Y017437D03*
X016593Y019500D03*
X001374Y016062D03*
X001374Y004812D03*
D21*
X021362Y019891D02*
X022011Y019891D01*
X022011Y021859D02*
X021362Y021859D01*
D22*
X016849Y015062D03*
X016830Y010625D03*
X018730Y010625D03*
D23*
X017718Y010230D03*
X017718Y011332D03*
X015936Y011332D03*
X015936Y010230D03*
D24*
X015077Y021750D03*
X013108Y021750D03*
D25*
X011593Y021500D03*
X011593Y019500D03*
D26*
X020124Y015125D03*
X013436Y010969D03*
X012749Y011281D03*
X022843Y001781D03*
D27*
X020249Y006125D03*
D28*
X012898Y009790D03*
D29*
X017780Y009062D03*
D30*
X004780Y022344D03*
D31*
X024593Y001437D03*
D32*
X011593Y018656D03*
D33*
X008811Y022812D03*
X024405Y022625D03*
M02*
