G75*
G70*
%OFA0B0*%
%FSLAX24Y24*%
%IPPOS*%
%LPD*%
%AMOC8*
5,1,8,0,0,1.08239X$1,22.5*
%
%ADD10C,0.1182*%
%ADD11C,0.0671*%
%ADD12C,0.0560*%
%ADD13C,0.0600*%
%ADD14OC8,0.0600*%
%ADD15C,0.0680*%
%ADD16OC8,0.0680*%
%ADD17C,0.1080*%
%ADD18OC8,0.1080*%
%ADD19C,0.0730*%
%ADD20C,0.0600*%
%ADD21C,0.0674*%
%ADD22OC8,0.0905*%
%ADD23R,0.0671X0.0710*%
%ADD24R,0.0789X0.0710*%
%ADD25OC8,0.0555*%
%ADD26OC8,0.0740*%
%ADD27OC8,0.0580*%
%ADD28C,0.0555*%
%ADD29C,0.0740*%
%ADD30R,0.0516X0.0516*%
%ADD31OC8,0.0671*%
%ADD32R,0.0555X0.0555*%
D10*
X001752Y002312D03*
X001752Y021562D03*
X025502Y021562D03*
X025502Y002312D03*
D11*
X015502Y001812D03*
X007564Y003437D03*
X008971Y018031D03*
X010908Y018031D03*
X010283Y021750D03*
D12*
X010439Y014000D02*
X010439Y013031D01*
X010439Y012062D02*
X011221Y012062D01*
D13*
X012273Y012312D02*
X012793Y012312D01*
X012793Y011312D02*
X012273Y011312D01*
X012273Y010312D02*
X012793Y010312D01*
X012793Y009312D02*
X012273Y009312D01*
X012273Y008312D02*
X012793Y008312D01*
X012793Y007312D02*
X012273Y007312D01*
X012273Y006312D02*
X012793Y006312D01*
X015273Y006312D02*
X015793Y006312D01*
X015793Y007312D02*
X015273Y007312D01*
X015273Y008312D02*
X015793Y008312D01*
X015793Y009312D02*
X015273Y009312D01*
X015273Y010312D02*
X015793Y010312D01*
X015793Y011312D02*
X015273Y011312D01*
X015273Y012312D02*
X015793Y012312D01*
X015793Y013312D02*
X015273Y013312D01*
X015273Y014312D02*
X015793Y014312D01*
X015793Y015312D02*
X015273Y015312D01*
X012793Y015312D02*
X012273Y015312D01*
X012273Y014312D02*
X012793Y014312D01*
X012793Y013312D02*
X012273Y013312D01*
X007012Y017625D02*
X006492Y017625D01*
X004012Y017625D02*
X003492Y017625D01*
X017773Y018656D02*
X018293Y018656D01*
X018293Y019656D02*
X017773Y019656D01*
X017773Y020656D02*
X018293Y020656D01*
X018293Y021656D02*
X017773Y021656D01*
X020773Y021656D02*
X021293Y021656D01*
X021293Y020656D02*
X020773Y020656D01*
X020773Y019656D02*
X021293Y019656D01*
X021293Y018656D02*
X020773Y018656D01*
X022252Y020052D02*
X022252Y020572D01*
X022252Y016572D02*
X022252Y016052D01*
D14*
X021502Y015750D03*
X021033Y016750D03*
X019627Y017687D03*
X018502Y015750D03*
X018533Y014812D03*
X019783Y014781D03*
X019783Y013781D03*
X019783Y012781D03*
X019783Y011781D03*
X020689Y010719D03*
X022783Y011781D03*
X022783Y012781D03*
X022783Y013781D03*
X022783Y014781D03*
X023877Y014250D03*
X024377Y015000D03*
X024877Y014250D03*
X024627Y013187D03*
X025627Y013187D03*
X025127Y011937D03*
X024627Y011187D03*
X024127Y011937D03*
X023189Y010000D03*
X022189Y008469D03*
X023096Y006719D03*
X025096Y006719D03*
X025189Y008469D03*
X025189Y010000D03*
X020689Y006719D03*
X019627Y007406D03*
X019627Y005406D03*
X019346Y004531D03*
X020689Y004656D03*
X022221Y004594D03*
X023564Y004625D03*
X023564Y001625D03*
X022221Y001594D03*
X020689Y001656D03*
X016346Y004531D03*
X014783Y004187D03*
X014033Y004687D03*
X014783Y005187D03*
X012564Y004687D03*
X012564Y002687D03*
X011502Y001812D03*
X010502Y001812D03*
X009502Y001375D03*
X008502Y004312D03*
X008502Y005312D03*
X009502Y005375D03*
X004502Y005312D03*
X004502Y004312D03*
X016658Y010312D03*
X016658Y012312D03*
X016533Y014812D03*
X017033Y016750D03*
X015627Y017687D03*
X017033Y018656D03*
X017033Y019656D03*
X017283Y022812D03*
X021283Y022812D03*
X023377Y016406D03*
X024377Y016406D03*
X010564Y016625D03*
X010064Y017375D03*
X009564Y016625D03*
X009664Y015062D03*
X008064Y015500D03*
X008064Y017500D03*
X004252Y018437D03*
X003252Y018437D03*
X002315Y018344D03*
X002315Y019344D03*
D15*
X005202Y015312D02*
X005802Y015312D01*
X005802Y014312D02*
X005202Y014312D01*
X005202Y013312D02*
X005802Y013312D01*
X005802Y012312D02*
X005202Y012312D01*
X005202Y011312D02*
X005802Y011312D01*
X005802Y010312D02*
X005202Y010312D01*
X005202Y009312D02*
X005802Y009312D01*
X005802Y008312D02*
X005202Y008312D01*
X005202Y007312D02*
X005802Y007312D01*
X005802Y006312D02*
X005202Y006312D01*
X013922Y002702D02*
X014522Y002702D01*
X016482Y002702D02*
X017082Y002702D01*
X017082Y000922D02*
X016482Y000922D01*
X014522Y000922D02*
X013922Y000922D01*
X017608Y006312D02*
X018208Y006312D01*
X018208Y007312D02*
X017608Y007312D01*
X017608Y008312D02*
X018208Y008312D01*
X018208Y009312D02*
X017608Y009312D01*
X017608Y010312D02*
X018208Y010312D01*
X018208Y011312D02*
X017608Y011312D01*
D16*
X007689Y001875D03*
X006689Y001875D03*
X005689Y001875D03*
X003752Y007312D03*
X002752Y007312D03*
X002752Y008312D03*
X003752Y008312D03*
X003752Y009312D03*
X002752Y009312D03*
X002752Y010312D03*
X003752Y010312D03*
X003752Y011312D03*
X002752Y011312D03*
X002752Y012312D03*
X003752Y012312D03*
X003752Y013312D03*
X002752Y013312D03*
X002752Y014312D03*
X003752Y014312D03*
X003752Y015312D03*
X002752Y015312D03*
X002752Y016312D03*
X003752Y016312D03*
D17*
X008721Y019500D03*
X013627Y019437D03*
D18*
X013627Y017437D03*
X010721Y019500D03*
X025939Y016062D03*
X025939Y004812D03*
D19*
X005952Y019891D02*
X005302Y019891D01*
X005302Y021859D02*
X005952Y021859D01*
D20*
X010464Y015062D03*
X010483Y010625D03*
X008583Y010625D03*
D21*
X012236Y021750D03*
X014205Y021750D03*
D22*
X015721Y021500D03*
X015721Y019500D03*
D23*
X010455Y013055D03*
X009549Y013055D03*
X009549Y012070D03*
X010455Y012070D03*
D24*
X008752Y012136D03*
X008752Y013239D03*
D25*
X007189Y015125D03*
X013877Y010969D03*
X014564Y011281D03*
X004471Y001781D03*
D26*
X007064Y006125D03*
D27*
X014415Y009790D03*
D28*
X009533Y009062D03*
D29*
X022533Y022344D03*
D30*
X002721Y001437D03*
D31*
X015721Y018656D03*
D32*
X018502Y022812D03*
X002908Y022625D03*
M02*
