%
M48
M72
T01C0.0236
T02C0.0315
T03C0.0320
T04C0.0394
T05C0.0400
T06C0.0433
T07C0.0440
T08C0.0512
T09C0.0551
T10C0.0591
T11C0.1102
%
T01
X4877Y16781
X6564Y16781
T02
X846Y20250
X9533Y9062
X7064Y6125
X13877Y10969
X14636Y9836
X20002Y17062
X20002Y22062
T03
X18752Y21062
X16752Y20562
X16752Y21562
X16752Y22812
X13752Y21562
X13752Y20562
X13752Y19562
X13752Y18562
X12752Y18562
X12752Y17562
X11877Y17375
X11127Y17875
X11127Y16875
X9502Y17375
X9502Y15375
X6721Y17719
X6752Y18812
X2752Y18812
X2721Y17719
X8583Y10625
X10483Y10625
X12533Y10312
X12533Y9312
X12533Y8312
X12533Y7312
X12533Y6312
X12564Y4687
X14033Y4687
X14783Y4187
X14783Y5187
X15533Y6312
X15533Y7312
X15533Y8312
X15533Y9312
X15533Y10312
X15533Y11312
X15533Y12312
X15533Y13312
X15533Y14312
X16533Y14812
X15533Y15312
X16752Y17562
X16752Y18562
X16752Y19562
X18752Y17062
X18471Y15844
X18533Y14812
X19783Y14781
X19783Y13781
X19783Y12781
X19783Y11781
X20689Y10719
X22783Y11781
X22783Y12781
X22783Y13781
X22783Y14781
X23877Y14250
X24377Y15000
X24877Y14250
X24627Y13187
X25627Y13187
X25127Y11937
X24627Y11187
X24127Y11937
X23189Y10000
X22189Y8469
X23096Y6719
X25096Y6719
X25189Y8469
X25189Y10000
X20689Y6719
X19627Y7406
X19627Y5406
X19346Y4531
X20689Y4656
X22221Y4594
X23564Y4625
X23564Y1625
X22221Y1594
X20689Y1656
X16346Y4531
X12564Y2687
X11502Y1812
X10502Y1812
X9502Y1312
X8502Y4312
X8502Y5312
X9502Y5312
X4502Y5312
X4502Y4312
X12533Y11312
X12533Y12312
X12533Y13312
X12533Y14312
X12533Y15312
X16658Y12312
X16658Y10312
X21471Y15844
X22252Y16312
X23377Y16406
X24377Y16406
X22252Y20312
X12752Y19562
X12752Y22812
T04
X7564Y3437
T05
X5502Y6312
X5502Y7312
X5502Y8312
X5502Y9312
X5502Y10312
X5502Y11312
X5502Y12312
X5502Y13312
X5502Y14312
X5502Y15312
X3752Y15312
X2752Y15312
X2752Y16312
X3752Y16312
X3752Y14312
X2752Y14312
X2752Y13312
X3752Y13312
X3752Y12312
X2752Y12312
X2752Y11312
X3752Y11312
X3752Y10312
X2752Y10312
X2752Y9312
X3752Y9312
X3752Y8312
X2752Y8312
X2752Y7312
X3752Y7312
X8283Y15687
X8283Y16687
X8283Y17687
X5002Y20312
X5002Y22312
X17908Y11312
X17908Y10312
X17908Y9312
X17908Y8312
X17908Y7312
X17908Y6312
X16782Y2702
X16782Y922
X14222Y922
X14222Y2702
X24502Y17812
X24502Y19812
T06
X9502Y19578
X9502Y21547
T07
X21252Y22062
X21252Y18062
T08
X26252Y4812
T09
X26252Y16062
T10
X15502Y1812
T11
X1752Y2312
X1752Y21562
X25502Y21562
X25502Y2312
M30
