G75*
G70*
%OFA0B0*%
%FSLAX24Y24*%
%IPPOS*%
%LPD*%
%AMOC8*
5,1,8,0,0,1.08239X$1,22.5*
%
%ADD10C,0.1182*%
%ADD11C,0.0671*%
%ADD12R,0.0317X0.0595*%
%ADD13R,0.0373X0.0598*%
%ADD14C,0.0240*%
%ADD15C,0.0600*%
%ADD16OC8,0.0600*%
%ADD17C,0.0680*%
%ADD18OC8,0.0680*%
%ADD19C,0.0595*%
%ADD20C,0.1080*%
%ADD21OC8,0.1080*%
%ADD22C,0.0740*%
%ADD23C,0.0730*%
%ADD24C,0.0600*%
%ADD25R,0.0789X0.0710*%
%ADD26OC8,0.0740*%
%ADD27OC8,0.0555*%
%ADD28OC8,0.0580*%
%ADD29C,0.0555*%
%ADD30C,0.0476*%
D10*
X001811Y002312D03*
X001811Y021562D03*
X025561Y021562D03*
X025561Y002312D03*
D11*
X019749Y003437D03*
X011811Y001812D03*
D12*
X015488Y001810D03*
D13*
X017114Y001811D03*
D14*
X019030Y015969D02*
X019030Y016312D01*
D15*
X020333Y017719D02*
X020853Y017719D01*
X020821Y018812D02*
X020301Y018812D01*
X024301Y018812D02*
X024821Y018812D01*
X024853Y017719D02*
X024333Y017719D01*
X015040Y015312D02*
X014520Y015312D01*
X014520Y014312D02*
X015040Y014312D01*
X015040Y013312D02*
X014520Y013312D01*
X014520Y012312D02*
X015040Y012312D01*
X015040Y011312D02*
X014520Y011312D01*
X014520Y010312D02*
X015040Y010312D01*
X015040Y009312D02*
X014520Y009312D01*
X014520Y008312D02*
X015040Y008312D01*
X015040Y007312D02*
X014520Y007312D01*
X014520Y006312D02*
X015040Y006312D01*
X012040Y006312D02*
X011520Y006312D01*
X011520Y007312D02*
X012040Y007312D01*
X012040Y008312D02*
X011520Y008312D01*
X011520Y009312D02*
X012040Y009312D01*
X012040Y010312D02*
X011520Y010312D01*
X011520Y011312D02*
X012040Y011312D01*
X012040Y012312D02*
X011520Y012312D01*
X011520Y013312D02*
X012040Y013312D01*
X012040Y014312D02*
X011520Y014312D01*
X011520Y015312D02*
X012040Y015312D01*
X010821Y018562D02*
X010301Y018562D01*
X010301Y019562D02*
X010821Y019562D01*
X010821Y020562D02*
X010301Y020562D01*
X010301Y021562D02*
X010821Y021562D01*
X013301Y021562D02*
X013821Y021562D01*
X013821Y020562D02*
X013301Y020562D01*
X013301Y019562D02*
X013821Y019562D01*
X013821Y018562D02*
X013301Y018562D01*
X005061Y020052D02*
X005061Y020572D01*
X005061Y016572D02*
X005061Y016052D01*
D16*
X005843Y015844D03*
X004530Y014781D03*
X004530Y013781D03*
X004530Y012781D03*
X004530Y011781D03*
X003186Y011937D03*
X002686Y011187D03*
X002186Y011937D03*
X001686Y013187D03*
X002686Y013187D03*
X002436Y014250D03*
X002936Y015000D03*
X003436Y014250D03*
X002936Y016406D03*
X003936Y016406D03*
X007530Y014781D03*
X007530Y013781D03*
X007530Y012781D03*
X007530Y011781D03*
X006624Y010719D03*
X004124Y010000D03*
X005124Y008469D03*
X004218Y006719D03*
X002218Y006719D03*
X002124Y008469D03*
X002124Y010000D03*
X006624Y006719D03*
X007686Y007406D03*
X007686Y005406D03*
X007968Y004531D03*
X006624Y004656D03*
X005093Y004594D03*
X003749Y004625D03*
X003749Y001625D03*
X005093Y001594D03*
X006624Y001656D03*
X010968Y004531D03*
X012530Y004187D03*
X013280Y004687D03*
X012530Y005187D03*
X014749Y004687D03*
X014749Y002687D03*
X015811Y001812D03*
X016811Y001812D03*
X017811Y001312D03*
X018811Y004312D03*
X018811Y005312D03*
X017811Y005312D03*
X022811Y005312D03*
X022811Y004312D03*
X010655Y010312D03*
X010655Y012312D03*
X010780Y014812D03*
X008780Y014812D03*
X008843Y015844D03*
X008561Y017062D03*
X010561Y017562D03*
X014561Y017562D03*
X015436Y017375D03*
X016186Y017875D03*
X016186Y016875D03*
X017811Y017375D03*
X017811Y015375D03*
X014561Y018562D03*
X014561Y019562D03*
X014561Y022812D03*
X010561Y022812D03*
X008561Y021062D03*
D17*
X009105Y011312D02*
X009705Y011312D01*
X009705Y010312D02*
X009105Y010312D01*
X009105Y009312D02*
X009705Y009312D01*
X009705Y008312D02*
X009105Y008312D01*
X009105Y007312D02*
X009705Y007312D01*
X009705Y006312D02*
X009105Y006312D01*
X010231Y002702D02*
X010831Y002702D01*
X012791Y002702D02*
X013391Y002702D01*
X013391Y000922D02*
X012791Y000922D01*
X010831Y000922D02*
X010231Y000922D01*
X021511Y006312D02*
X022111Y006312D01*
X022111Y007312D02*
X021511Y007312D01*
X021511Y008312D02*
X022111Y008312D01*
X022111Y009312D02*
X021511Y009312D01*
X021511Y010312D02*
X022111Y010312D01*
X022111Y011312D02*
X021511Y011312D01*
X021511Y012312D02*
X022111Y012312D01*
X022111Y013312D02*
X021511Y013312D01*
X021511Y014312D02*
X022111Y014312D01*
X022111Y015312D02*
X021511Y015312D01*
D18*
X023561Y015312D03*
X024561Y015312D03*
X024561Y016312D03*
X023561Y016312D03*
X023561Y014312D03*
X024561Y014312D03*
X024561Y013312D03*
X023561Y013312D03*
X023561Y012312D03*
X024561Y012312D03*
X024561Y011312D03*
X023561Y011312D03*
X023561Y010312D03*
X024561Y010312D03*
X024561Y009312D03*
X023561Y009312D03*
X023561Y008312D03*
X024561Y008312D03*
X024561Y007312D03*
X023561Y007312D03*
X019030Y015687D03*
X019030Y016687D03*
X019030Y017687D03*
D19*
X007311Y017062D03*
X007311Y022062D03*
D20*
X002811Y017812D03*
X022311Y022312D03*
D21*
X022311Y020312D03*
X002811Y019812D03*
X001061Y016062D03*
X001061Y004812D03*
D22*
X006061Y018062D03*
X006061Y022062D03*
X026468Y020250D03*
D23*
X018136Y019578D02*
X017487Y019578D01*
X017487Y021547D02*
X018136Y021547D01*
D24*
X018730Y010625D03*
X016830Y010625D03*
D25*
X017718Y010230D03*
X017718Y011332D03*
X015936Y011332D03*
X015936Y010230D03*
D26*
X020249Y006125D03*
D27*
X013436Y010969D03*
D28*
X012678Y009836D03*
D29*
X017780Y009062D03*
D30*
X020749Y016781D03*
X022436Y016781D03*
M02*
