G75*
G70*
%OFA0B0*%
%FSLAX24Y24*%
%IPPOS*%
%LPD*%
%AMOC8*
5,1,8,0,0,1.08239X$1,22.5*
%
%ADD10C,0.0000*%
%ADD11C,0.0030*%
%ADD12C,0.0060*%
%ADD13C,0.0160*%
%ADD14C,0.0050*%
%ADD15C,0.0100*%
%ADD16C,0.0120*%
%ADD17C,0.0070*%
%ADD18R,0.0200X0.0800*%
%ADD19R,0.0750X0.0200*%
%ADD20C,0.0040*%
%ADD21R,0.0340X0.0240*%
%ADD22C,0.0240*%
%ADD23R,0.0240X0.0340*%
%ADD24R,0.0900X0.0250*%
%ADD25R,0.1000X0.0200*%
%ADD26R,0.0300X0.0750*%
%ADD27C,0.0080*%
%ADD28C,0.0020*%
%ADD29R,0.0800X0.0200*%
%ADD30R,0.0200X0.0750*%
D10*
X000252Y000312D02*
X027002Y000312D01*
X027002Y009761D01*
X026608Y009761D01*
X026608Y014092D01*
X027002Y014092D01*
X027002Y023562D01*
X000252Y023562D01*
X000252Y014092D01*
X000646Y014092D01*
X000646Y009761D01*
X000252Y009761D01*
X000252Y000312D01*
X001201Y002312D02*
X001203Y002359D01*
X001209Y002405D01*
X001219Y002451D01*
X001232Y002496D01*
X001250Y002539D01*
X001271Y002581D01*
X001295Y002621D01*
X001323Y002658D01*
X001354Y002693D01*
X001388Y002726D01*
X001424Y002755D01*
X001463Y002781D01*
X001504Y002804D01*
X001547Y002823D01*
X001591Y002839D01*
X001636Y002851D01*
X001682Y002859D01*
X001729Y002863D01*
X001775Y002863D01*
X001822Y002859D01*
X001868Y002851D01*
X001913Y002839D01*
X001957Y002823D01*
X002000Y002804D01*
X002041Y002781D01*
X002080Y002755D01*
X002116Y002726D01*
X002150Y002693D01*
X002181Y002658D01*
X002209Y002621D01*
X002233Y002581D01*
X002254Y002539D01*
X002272Y002496D01*
X002285Y002451D01*
X002295Y002405D01*
X002301Y002359D01*
X002303Y002312D01*
X002301Y002265D01*
X002295Y002219D01*
X002285Y002173D01*
X002272Y002128D01*
X002254Y002085D01*
X002233Y002043D01*
X002209Y002003D01*
X002181Y001966D01*
X002150Y001931D01*
X002116Y001898D01*
X002080Y001869D01*
X002041Y001843D01*
X002000Y001820D01*
X001957Y001801D01*
X001913Y001785D01*
X001868Y001773D01*
X001822Y001765D01*
X001775Y001761D01*
X001729Y001761D01*
X001682Y001765D01*
X001636Y001773D01*
X001591Y001785D01*
X001547Y001801D01*
X001504Y001820D01*
X001463Y001843D01*
X001424Y001869D01*
X001388Y001898D01*
X001354Y001931D01*
X001323Y001966D01*
X001295Y002003D01*
X001271Y002043D01*
X001250Y002085D01*
X001232Y002128D01*
X001219Y002173D01*
X001209Y002219D01*
X001203Y002265D01*
X001201Y002312D01*
X015207Y001812D02*
X015209Y001846D01*
X015215Y001880D01*
X015225Y001913D01*
X015238Y001944D01*
X015256Y001974D01*
X015276Y002002D01*
X015300Y002027D01*
X015326Y002049D01*
X015354Y002067D01*
X015385Y002083D01*
X015417Y002095D01*
X015451Y002103D01*
X015485Y002107D01*
X015519Y002107D01*
X015553Y002103D01*
X015587Y002095D01*
X015619Y002083D01*
X015649Y002067D01*
X015678Y002049D01*
X015704Y002027D01*
X015728Y002002D01*
X015748Y001974D01*
X015766Y001944D01*
X015779Y001913D01*
X015789Y001880D01*
X015795Y001846D01*
X015797Y001812D01*
X015795Y001778D01*
X015789Y001744D01*
X015779Y001711D01*
X015766Y001680D01*
X015748Y001650D01*
X015728Y001622D01*
X015704Y001597D01*
X015678Y001575D01*
X015650Y001557D01*
X015619Y001541D01*
X015587Y001529D01*
X015553Y001521D01*
X015519Y001517D01*
X015485Y001517D01*
X015451Y001521D01*
X015417Y001529D01*
X015385Y001541D01*
X015354Y001557D01*
X015326Y001575D01*
X015300Y001597D01*
X015276Y001622D01*
X015256Y001650D01*
X015238Y001680D01*
X015225Y001711D01*
X015215Y001744D01*
X015209Y001778D01*
X015207Y001812D01*
X024951Y002312D02*
X024953Y002359D01*
X024959Y002405D01*
X024969Y002451D01*
X024982Y002496D01*
X025000Y002539D01*
X025021Y002581D01*
X025045Y002621D01*
X025073Y002658D01*
X025104Y002693D01*
X025138Y002726D01*
X025174Y002755D01*
X025213Y002781D01*
X025254Y002804D01*
X025297Y002823D01*
X025341Y002839D01*
X025386Y002851D01*
X025432Y002859D01*
X025479Y002863D01*
X025525Y002863D01*
X025572Y002859D01*
X025618Y002851D01*
X025663Y002839D01*
X025707Y002823D01*
X025750Y002804D01*
X025791Y002781D01*
X025830Y002755D01*
X025866Y002726D01*
X025900Y002693D01*
X025931Y002658D01*
X025959Y002621D01*
X025983Y002581D01*
X026004Y002539D01*
X026022Y002496D01*
X026035Y002451D01*
X026045Y002405D01*
X026051Y002359D01*
X026053Y002312D01*
X026051Y002265D01*
X026045Y002219D01*
X026035Y002173D01*
X026022Y002128D01*
X026004Y002085D01*
X025983Y002043D01*
X025959Y002003D01*
X025931Y001966D01*
X025900Y001931D01*
X025866Y001898D01*
X025830Y001869D01*
X025791Y001843D01*
X025750Y001820D01*
X025707Y001801D01*
X025663Y001785D01*
X025618Y001773D01*
X025572Y001765D01*
X025525Y001761D01*
X025479Y001761D01*
X025432Y001765D01*
X025386Y001773D01*
X025341Y001785D01*
X025297Y001801D01*
X025254Y001820D01*
X025213Y001843D01*
X025174Y001869D01*
X025138Y001898D01*
X025104Y001931D01*
X025073Y001966D01*
X025045Y002003D01*
X025021Y002043D01*
X025000Y002085D01*
X024982Y002128D01*
X024969Y002173D01*
X024959Y002219D01*
X024953Y002265D01*
X024951Y002312D01*
X024951Y021562D02*
X024953Y021609D01*
X024959Y021655D01*
X024969Y021701D01*
X024982Y021746D01*
X025000Y021789D01*
X025021Y021831D01*
X025045Y021871D01*
X025073Y021908D01*
X025104Y021943D01*
X025138Y021976D01*
X025174Y022005D01*
X025213Y022031D01*
X025254Y022054D01*
X025297Y022073D01*
X025341Y022089D01*
X025386Y022101D01*
X025432Y022109D01*
X025479Y022113D01*
X025525Y022113D01*
X025572Y022109D01*
X025618Y022101D01*
X025663Y022089D01*
X025707Y022073D01*
X025750Y022054D01*
X025791Y022031D01*
X025830Y022005D01*
X025866Y021976D01*
X025900Y021943D01*
X025931Y021908D01*
X025959Y021871D01*
X025983Y021831D01*
X026004Y021789D01*
X026022Y021746D01*
X026035Y021701D01*
X026045Y021655D01*
X026051Y021609D01*
X026053Y021562D01*
X026051Y021515D01*
X026045Y021469D01*
X026035Y021423D01*
X026022Y021378D01*
X026004Y021335D01*
X025983Y021293D01*
X025959Y021253D01*
X025931Y021216D01*
X025900Y021181D01*
X025866Y021148D01*
X025830Y021119D01*
X025791Y021093D01*
X025750Y021070D01*
X025707Y021051D01*
X025663Y021035D01*
X025618Y021023D01*
X025572Y021015D01*
X025525Y021011D01*
X025479Y021011D01*
X025432Y021015D01*
X025386Y021023D01*
X025341Y021035D01*
X025297Y021051D01*
X025254Y021070D01*
X025213Y021093D01*
X025174Y021119D01*
X025138Y021148D01*
X025104Y021181D01*
X025073Y021216D01*
X025045Y021253D01*
X025021Y021293D01*
X025000Y021335D01*
X024982Y021378D01*
X024969Y021423D01*
X024959Y021469D01*
X024953Y021515D01*
X024951Y021562D01*
X001201Y021562D02*
X001203Y021609D01*
X001209Y021655D01*
X001219Y021701D01*
X001232Y021746D01*
X001250Y021789D01*
X001271Y021831D01*
X001295Y021871D01*
X001323Y021908D01*
X001354Y021943D01*
X001388Y021976D01*
X001424Y022005D01*
X001463Y022031D01*
X001504Y022054D01*
X001547Y022073D01*
X001591Y022089D01*
X001636Y022101D01*
X001682Y022109D01*
X001729Y022113D01*
X001775Y022113D01*
X001822Y022109D01*
X001868Y022101D01*
X001913Y022089D01*
X001957Y022073D01*
X002000Y022054D01*
X002041Y022031D01*
X002080Y022005D01*
X002116Y021976D01*
X002150Y021943D01*
X002181Y021908D01*
X002209Y021871D01*
X002233Y021831D01*
X002254Y021789D01*
X002272Y021746D01*
X002285Y021701D01*
X002295Y021655D01*
X002301Y021609D01*
X002303Y021562D01*
X002301Y021515D01*
X002295Y021469D01*
X002285Y021423D01*
X002272Y021378D01*
X002254Y021335D01*
X002233Y021293D01*
X002209Y021253D01*
X002181Y021216D01*
X002150Y021181D01*
X002116Y021148D01*
X002080Y021119D01*
X002041Y021093D01*
X002000Y021070D01*
X001957Y021051D01*
X001913Y021035D01*
X001868Y021023D01*
X001822Y021015D01*
X001775Y021011D01*
X001729Y021011D01*
X001682Y021015D01*
X001636Y021023D01*
X001591Y021035D01*
X001547Y021051D01*
X001504Y021070D01*
X001463Y021093D01*
X001424Y021119D01*
X001388Y021148D01*
X001354Y021181D01*
X001323Y021216D01*
X001295Y021253D01*
X001271Y021293D01*
X001250Y021335D01*
X001232Y021378D01*
X001219Y021423D01*
X001209Y021469D01*
X001203Y021515D01*
X001201Y021562D01*
D11*
X007304Y017568D02*
X007551Y017568D01*
X007674Y017444D01*
X007551Y017321D01*
X007304Y017321D01*
X007304Y017199D02*
X007304Y016952D01*
X007489Y016952D01*
X007428Y017076D01*
X007428Y017138D01*
X007489Y017199D01*
X007613Y017199D01*
X007674Y017138D01*
X007674Y017014D01*
X007613Y016952D01*
X007395Y016556D02*
X007148Y016556D01*
X007148Y016310D02*
X007395Y016310D01*
X007518Y016433D01*
X007395Y016556D01*
X007395Y016188D02*
X007333Y016126D01*
X007333Y016065D01*
X007333Y016126D02*
X007271Y016188D01*
X007210Y016188D01*
X007148Y016126D01*
X007148Y016003D01*
X007210Y015941D01*
X007457Y015941D02*
X007518Y016003D01*
X007518Y016126D01*
X007457Y016188D01*
X007395Y016188D01*
X007457Y015819D02*
X007457Y015757D01*
X007518Y015757D01*
X007518Y015819D01*
X007457Y015819D01*
X007518Y015819D02*
X007642Y015696D01*
X007457Y015574D02*
X007518Y015513D01*
X007518Y015389D01*
X007457Y015327D01*
X007333Y015451D02*
X007333Y015513D01*
X007395Y015574D01*
X007457Y015574D01*
X007333Y015513D02*
X007271Y015574D01*
X007210Y015574D01*
X007148Y015513D01*
X007148Y015389D01*
X007210Y015327D01*
X009353Y014816D02*
X009353Y014622D01*
X009401Y014521D02*
X009353Y014473D01*
X009353Y014376D01*
X009401Y014327D01*
X009595Y014327D01*
X009643Y014376D01*
X009643Y014473D01*
X009595Y014521D01*
X009595Y014622D02*
X009643Y014622D01*
X009595Y014622D02*
X009401Y014816D01*
X009353Y014816D01*
X010023Y015045D02*
X010393Y015045D01*
X010393Y015168D02*
X010393Y014921D01*
X010146Y014921D02*
X010023Y015045D01*
X010085Y015290D02*
X010023Y015351D01*
X010023Y015475D01*
X010085Y015536D01*
X010332Y015290D01*
X010393Y015351D01*
X010393Y015475D01*
X010332Y015536D01*
X010085Y015536D01*
X010085Y015658D02*
X010023Y015720D01*
X010023Y015843D01*
X010085Y015905D01*
X010332Y015658D01*
X010393Y015720D01*
X010393Y015843D01*
X010332Y015905D01*
X010085Y015905D01*
X010146Y016026D02*
X010146Y016211D01*
X010208Y016273D01*
X010393Y016273D01*
X010393Y016026D02*
X010146Y016026D01*
X010085Y015658D02*
X010332Y015658D01*
X010332Y015290D02*
X010085Y015290D01*
X016361Y009430D02*
X016506Y009430D01*
X016554Y009382D01*
X016554Y009285D01*
X016506Y009237D01*
X016361Y009237D01*
X016457Y009237D02*
X016554Y009140D01*
X016655Y009188D02*
X016704Y009140D01*
X016801Y009140D01*
X016849Y009188D01*
X016849Y009237D01*
X016801Y009285D01*
X016704Y009285D01*
X016655Y009333D01*
X016655Y009382D01*
X016704Y009430D01*
X016801Y009430D01*
X016849Y009382D01*
X016950Y009430D02*
X017144Y009430D01*
X017047Y009430D02*
X017047Y009140D01*
X016361Y009140D02*
X016361Y009430D01*
X016486Y008430D02*
X016679Y008430D01*
X016582Y008430D02*
X016582Y008140D01*
X016780Y008140D02*
X016974Y008430D01*
X016780Y008430D02*
X016974Y008140D01*
X016911Y007430D02*
X016718Y007140D01*
X016617Y007140D02*
X016520Y007237D01*
X016568Y007237D02*
X016423Y007237D01*
X016423Y007140D02*
X016423Y007430D01*
X016568Y007430D01*
X016617Y007382D01*
X016617Y007285D01*
X016568Y007237D01*
X016718Y007430D02*
X016911Y007140D01*
X016919Y006493D02*
X017064Y006493D01*
X017112Y006444D01*
X017112Y006251D01*
X017064Y006202D01*
X016919Y006202D01*
X016919Y006493D01*
X016818Y006493D02*
X016818Y006202D01*
X016624Y006493D01*
X016624Y006202D01*
X016523Y006251D02*
X016475Y006202D01*
X016378Y006202D01*
X016329Y006251D01*
X016329Y006444D01*
X016378Y006493D01*
X016475Y006493D01*
X016523Y006444D01*
X016523Y006348D02*
X016426Y006348D01*
X016523Y006348D02*
X016523Y006251D01*
X018707Y010390D02*
X018804Y010487D01*
X018804Y010680D01*
X018905Y010583D02*
X018954Y010583D01*
X018954Y010390D01*
X019002Y010390D02*
X018905Y010390D01*
X019102Y010390D02*
X019102Y010583D01*
X019247Y010583D01*
X019295Y010535D01*
X019295Y010390D01*
X018954Y010680D02*
X018954Y010729D01*
X018954Y010921D02*
X018905Y010970D01*
X018905Y011066D01*
X018954Y011115D01*
X019051Y011115D01*
X019099Y011066D01*
X019099Y010970D01*
X019051Y010921D01*
X018954Y010921D01*
X018804Y011018D02*
X018804Y011211D01*
X018804Y011018D02*
X018707Y010921D01*
X018611Y011018D01*
X018611Y011211D01*
X018611Y010680D02*
X018611Y010487D01*
X018707Y010390D01*
X019248Y010921D02*
X019394Y010921D01*
X019394Y011115D01*
X019495Y011115D02*
X019591Y011115D01*
X019543Y011163D02*
X019543Y010970D01*
X019591Y010921D01*
X019248Y010921D02*
X019200Y010970D01*
X019200Y011115D01*
X019610Y001447D02*
X019610Y001385D01*
X019610Y001262D02*
X019548Y001200D01*
X019548Y001077D01*
X019610Y001015D01*
X019733Y001015D01*
X019795Y001077D01*
X019795Y001200D01*
X019733Y001262D01*
X019610Y001262D01*
X019733Y001385D02*
X019733Y001447D01*
X019916Y001262D02*
X020040Y001262D01*
X019978Y001324D02*
X019978Y001077D01*
X020040Y001015D01*
X020162Y001015D02*
X020347Y001015D01*
X020409Y001077D01*
X020347Y001138D01*
X020224Y001138D01*
X020162Y001200D01*
X020224Y001262D01*
X020409Y001262D01*
X020530Y001200D02*
X020530Y001077D01*
X020592Y001015D01*
X020715Y001015D01*
X020777Y001138D02*
X020530Y001138D01*
X020530Y001200D02*
X020592Y001262D01*
X020715Y001262D01*
X020777Y001200D01*
X020777Y001138D01*
X020899Y001015D02*
X021022Y001015D01*
X020960Y001015D02*
X020960Y001262D01*
X020899Y001262D01*
X020960Y001385D02*
X020960Y001447D01*
X021144Y001262D02*
X021268Y001262D01*
X021206Y001324D02*
X021206Y001077D01*
X021268Y001015D01*
X021390Y001077D02*
X021390Y001200D01*
X021451Y001262D01*
X021575Y001262D01*
X021636Y001200D01*
X021636Y001138D01*
X021390Y001138D01*
X021390Y001077D02*
X021451Y001015D01*
X021575Y001015D01*
X021758Y001015D02*
X021758Y001077D01*
X021820Y001077D01*
X021820Y001015D01*
X021758Y001015D01*
X021758Y001200D02*
X021758Y001262D01*
X021820Y001262D01*
X021820Y001200D01*
X021758Y001200D01*
X019427Y001015D02*
X019180Y001015D01*
X019180Y001385D01*
X018689Y001385D02*
X018628Y001324D01*
X018628Y001015D01*
X018445Y001015D02*
X018445Y001262D01*
X018566Y001200D02*
X018689Y001200D01*
X018445Y001015D02*
X018259Y001015D01*
X018198Y001077D01*
X018198Y001262D01*
X018076Y001200D02*
X018076Y001015D01*
X017891Y001015D01*
X017829Y001077D01*
X017891Y001138D01*
X018076Y001138D01*
X018076Y001200D02*
X018015Y001262D01*
X017891Y001262D01*
D12*
X016802Y001512D02*
X016802Y002112D01*
X016702Y002112D01*
X016702Y002212D01*
X016702Y001512D02*
X016702Y001412D01*
X016702Y001512D02*
X016802Y001512D01*
X016352Y000612D02*
X015952Y000612D01*
X015002Y000612D01*
X014652Y000612D01*
X014302Y001412D02*
X014302Y001512D01*
X014202Y001512D01*
X014202Y002112D01*
X014302Y002112D01*
X014302Y002212D01*
X014652Y003012D02*
X015002Y003012D01*
X016002Y003012D01*
X016352Y003012D01*
X015483Y004045D02*
X015483Y005330D01*
X015133Y005862D02*
X015133Y015762D01*
X014283Y015762D01*
X014281Y015732D01*
X014276Y015702D01*
X014267Y015673D01*
X014254Y015646D01*
X014239Y015620D01*
X014220Y015596D01*
X014199Y015575D01*
X014175Y015556D01*
X014149Y015541D01*
X014122Y015528D01*
X014093Y015519D01*
X014063Y015514D01*
X014033Y015512D01*
X014003Y015514D01*
X013973Y015519D01*
X013944Y015528D01*
X013917Y015541D01*
X013891Y015556D01*
X013867Y015575D01*
X013846Y015596D01*
X013827Y015620D01*
X013812Y015646D01*
X013799Y015673D01*
X013790Y015702D01*
X013785Y015732D01*
X013783Y015762D01*
X012933Y015762D01*
X012933Y005862D01*
X015133Y005862D01*
X015483Y004046D02*
X015440Y004002D01*
X015395Y003962D01*
X015347Y003924D01*
X015297Y003889D01*
X015245Y003858D01*
X015191Y003830D01*
X015135Y003806D01*
X015078Y003785D01*
X015020Y003768D01*
X014960Y003755D01*
X014900Y003745D01*
X014840Y003740D01*
X014779Y003738D01*
X014718Y003740D01*
X014657Y003746D01*
X014597Y003756D01*
X014538Y003770D01*
X014480Y003788D01*
X014423Y003809D01*
X014367Y003834D01*
X014314Y003862D01*
X014262Y003894D01*
X014212Y003929D01*
X014164Y003967D01*
X014120Y004008D01*
X014077Y004052D01*
X014038Y004098D01*
X014002Y004147D01*
X013969Y004198D01*
X013939Y004252D01*
X013913Y004306D01*
X013014Y004337D02*
X013014Y003037D01*
X013012Y003011D01*
X013007Y002985D01*
X012999Y002960D01*
X012987Y002937D01*
X012973Y002915D01*
X012955Y002896D01*
X012936Y002878D01*
X012914Y002864D01*
X012891Y002852D01*
X012866Y002844D01*
X012840Y002839D01*
X012814Y002837D01*
X012314Y002837D02*
X012288Y002839D01*
X012262Y002844D01*
X012237Y002852D01*
X012214Y002864D01*
X012192Y002878D01*
X012173Y002896D01*
X012155Y002915D01*
X012141Y002937D01*
X012129Y002960D01*
X012121Y002985D01*
X012116Y003011D01*
X012114Y003037D01*
X012114Y004337D01*
X012116Y004363D01*
X012121Y004389D01*
X012129Y004414D01*
X012141Y004437D01*
X012155Y004459D01*
X012173Y004478D01*
X012192Y004496D01*
X012214Y004510D01*
X012237Y004522D01*
X012262Y004530D01*
X012288Y004535D01*
X012314Y004537D01*
X012814Y004537D02*
X012840Y004535D01*
X012866Y004530D01*
X012891Y004522D01*
X012914Y004510D01*
X012936Y004496D01*
X012955Y004478D01*
X012973Y004459D01*
X012987Y004437D01*
X012999Y004414D01*
X013007Y004389D01*
X013012Y004363D01*
X013014Y004337D01*
X012564Y004187D02*
X012564Y003817D01*
X012564Y003567D02*
X012564Y003187D01*
X011002Y001212D02*
X010957Y001214D01*
X010911Y001219D01*
X010867Y001227D01*
X010823Y001239D01*
X010780Y001255D01*
X010738Y001273D01*
X010698Y001295D01*
X010660Y001319D01*
X010624Y001346D01*
X010589Y001376D01*
X010558Y001409D01*
X010528Y001444D01*
X010303Y001038D02*
X009876Y001038D01*
X010089Y001251D02*
X010089Y000824D01*
X011002Y001212D02*
X011047Y001214D01*
X011093Y001219D01*
X011137Y001227D01*
X011181Y001239D01*
X011224Y001255D01*
X011266Y001273D01*
X011306Y001295D01*
X011344Y001319D01*
X011380Y001346D01*
X011415Y001376D01*
X011446Y001409D01*
X011476Y001444D01*
X011002Y002412D02*
X010956Y002410D01*
X010910Y002405D01*
X010864Y002396D01*
X010819Y002384D01*
X010776Y002368D01*
X010734Y002349D01*
X010693Y002326D01*
X010654Y002301D01*
X010618Y002273D01*
X010583Y002242D01*
X010551Y002208D01*
X010522Y002172D01*
X009952Y002162D02*
X009952Y002312D01*
X009902Y002362D01*
X009902Y004262D01*
X009952Y004312D01*
X009952Y004462D01*
X009950Y004479D01*
X009946Y004496D01*
X009939Y004512D01*
X009929Y004526D01*
X009916Y004539D01*
X009902Y004549D01*
X009886Y004556D01*
X009869Y004560D01*
X009852Y004562D01*
X009152Y004562D01*
X009135Y004560D01*
X009118Y004556D01*
X009102Y004549D01*
X009088Y004539D01*
X009075Y004526D01*
X009065Y004512D01*
X009058Y004496D01*
X009054Y004479D01*
X009052Y004462D01*
X009052Y004312D01*
X009102Y004262D01*
X009102Y002362D01*
X009052Y002312D01*
X009052Y002162D01*
X009054Y002145D01*
X009058Y002128D01*
X009065Y002112D01*
X009075Y002098D01*
X009088Y002085D01*
X009102Y002075D01*
X009118Y002068D01*
X009135Y002064D01*
X009152Y002062D01*
X009852Y002062D01*
X009869Y002064D01*
X009886Y002068D01*
X009902Y002075D01*
X009916Y002085D01*
X009929Y002098D01*
X009939Y002112D01*
X009946Y002128D01*
X009950Y002145D01*
X009952Y002162D01*
X011002Y002412D02*
X011049Y002410D01*
X011097Y002404D01*
X011143Y002395D01*
X011189Y002382D01*
X011233Y002366D01*
X011277Y002346D01*
X011318Y002322D01*
X011357Y002296D01*
X011394Y002266D01*
X011429Y002233D01*
X011461Y002198D01*
X011490Y002161D01*
X008533Y001082D02*
X008426Y001189D01*
X008213Y001189D01*
X008106Y001082D01*
X007888Y001189D02*
X007461Y001189D01*
X007461Y000869D01*
X007675Y000976D01*
X007782Y000976D01*
X007888Y000869D01*
X007888Y000655D01*
X007782Y000549D01*
X007568Y000549D01*
X007461Y000655D01*
X007246Y000655D02*
X007246Y000549D01*
X007139Y000549D01*
X007139Y000655D01*
X007246Y000655D01*
X006922Y000655D02*
X006922Y000762D01*
X006815Y000869D01*
X006708Y000869D01*
X006815Y000869D02*
X006922Y000976D01*
X006922Y001082D01*
X006815Y001189D01*
X006601Y001189D01*
X006495Y001082D01*
X006277Y001189D02*
X006277Y000762D01*
X006064Y000549D01*
X005850Y000762D01*
X005850Y001189D01*
X006495Y000655D02*
X006601Y000549D01*
X006815Y000549D01*
X006922Y000655D01*
X008106Y000549D02*
X008533Y000976D01*
X008533Y001082D01*
X008533Y000549D02*
X008106Y000549D01*
X004988Y000549D02*
X004561Y000549D01*
X004561Y001189D01*
X004988Y001189D01*
X004775Y000869D02*
X004561Y000869D01*
X004344Y001189D02*
X003916Y001189D01*
X004130Y001189D02*
X004130Y000549D01*
X003699Y000869D02*
X003272Y000869D01*
X003592Y001189D01*
X003592Y000549D01*
X002410Y000655D02*
X002303Y000549D01*
X002090Y000549D01*
X001983Y000655D01*
X001983Y001082D01*
X002090Y001189D01*
X002303Y001189D01*
X002410Y001082D01*
X001765Y001082D02*
X001765Y000869D01*
X001659Y000762D01*
X001338Y000762D01*
X001338Y000549D02*
X001338Y001189D01*
X001659Y001189D01*
X001765Y001082D01*
X001121Y000549D02*
X000694Y000549D01*
X000694Y001189D01*
X005252Y003962D02*
X005252Y004662D01*
X005254Y004679D01*
X005258Y004696D01*
X005265Y004712D01*
X005275Y004726D01*
X005288Y004739D01*
X005302Y004749D01*
X005318Y004756D01*
X005335Y004760D01*
X005352Y004762D01*
X005502Y004762D01*
X005552Y004712D01*
X007452Y004712D01*
X007502Y004762D01*
X007652Y004762D01*
X007669Y004760D01*
X007686Y004756D01*
X007702Y004749D01*
X007716Y004739D01*
X007729Y004726D01*
X007739Y004712D01*
X007746Y004696D01*
X007750Y004679D01*
X007752Y004662D01*
X007752Y003962D01*
X007750Y003945D01*
X007746Y003928D01*
X007739Y003912D01*
X007729Y003898D01*
X007716Y003885D01*
X007702Y003875D01*
X007686Y003868D01*
X007669Y003864D01*
X007652Y003862D01*
X007502Y003862D01*
X007452Y003912D01*
X005552Y003912D01*
X005502Y003862D01*
X005352Y003862D01*
X005335Y003864D01*
X005318Y003868D01*
X005302Y003875D01*
X005288Y003885D01*
X005275Y003898D01*
X005265Y003912D01*
X005258Y003928D01*
X005254Y003945D01*
X005252Y003962D01*
X005352Y004862D02*
X005502Y004862D01*
X005552Y004912D01*
X007452Y004912D01*
X007502Y004862D01*
X007652Y004862D01*
X007669Y004864D01*
X007686Y004868D01*
X007702Y004875D01*
X007716Y004885D01*
X007729Y004898D01*
X007739Y004912D01*
X007746Y004928D01*
X007750Y004945D01*
X007752Y004962D01*
X007752Y005662D01*
X007750Y005679D01*
X007746Y005696D01*
X007739Y005712D01*
X007729Y005726D01*
X007716Y005739D01*
X007702Y005749D01*
X007686Y005756D01*
X007669Y005760D01*
X007652Y005762D01*
X007502Y005762D01*
X007452Y005712D01*
X005552Y005712D01*
X005502Y005762D01*
X005352Y005762D01*
X005335Y005760D01*
X005318Y005756D01*
X005302Y005749D01*
X005288Y005739D01*
X005275Y005726D01*
X005265Y005712D01*
X005258Y005696D01*
X005254Y005679D01*
X005252Y005662D01*
X005252Y004962D01*
X005254Y004945D01*
X005258Y004928D01*
X005265Y004912D01*
X005275Y004898D01*
X005288Y004885D01*
X005302Y004875D01*
X005318Y004868D01*
X005335Y004864D01*
X005352Y004862D01*
X005252Y005812D02*
X005002Y006062D01*
X005002Y006562D01*
X005252Y006812D01*
X005002Y007062D01*
X005002Y007562D01*
X005252Y007812D01*
X005002Y008062D01*
X005002Y008562D01*
X005252Y008812D01*
X005002Y009062D01*
X005002Y009562D01*
X005252Y009812D01*
X005002Y010062D01*
X005002Y010562D01*
X005252Y010812D01*
X005002Y011062D01*
X005002Y011562D01*
X005252Y011812D01*
X005002Y012062D01*
X005002Y012562D01*
X005252Y012812D01*
X005002Y013062D01*
X005002Y013562D01*
X005252Y013812D01*
X005002Y014062D01*
X005002Y014562D01*
X005252Y014812D01*
X005002Y015062D01*
X005002Y015562D01*
X005252Y015812D01*
X005752Y015812D01*
X006002Y015562D01*
X006002Y015062D01*
X005752Y014812D01*
X006002Y014562D01*
X006002Y014062D01*
X005752Y013812D01*
X005252Y013812D01*
X005752Y013812D02*
X006002Y013562D01*
X006002Y013062D01*
X005752Y012812D01*
X006002Y012562D01*
X006002Y012062D01*
X005752Y011812D01*
X006002Y011562D01*
X006002Y011062D01*
X005752Y010812D01*
X005252Y010812D01*
X005752Y010812D02*
X006002Y010562D01*
X006002Y010062D01*
X005752Y009812D01*
X006002Y009562D01*
X006002Y009062D01*
X005752Y008812D01*
X006002Y008562D01*
X006002Y008062D01*
X005752Y007812D01*
X005252Y007812D01*
X005752Y007812D02*
X006002Y007562D01*
X006002Y007062D01*
X005752Y006812D01*
X006002Y006562D01*
X006002Y006062D01*
X005752Y005812D01*
X005252Y005812D01*
X005252Y006812D02*
X005752Y006812D01*
X004252Y007062D02*
X004002Y006812D01*
X002502Y006812D01*
X002252Y007062D01*
X002252Y007562D01*
X002502Y007812D01*
X004002Y007812D01*
X004252Y007562D01*
X004252Y007062D01*
X004002Y007812D02*
X004252Y008062D01*
X004252Y008562D01*
X004002Y008812D01*
X002502Y008812D01*
X002252Y009062D01*
X002252Y009562D01*
X002502Y009812D01*
X004002Y009812D01*
X004252Y009562D01*
X004252Y009062D01*
X004002Y008812D01*
X004002Y009812D02*
X004252Y010062D01*
X004252Y010562D01*
X004002Y010812D01*
X002502Y010812D01*
X002252Y010562D01*
X002252Y010062D01*
X002502Y009812D01*
X002502Y010812D02*
X002252Y011062D01*
X002252Y011562D01*
X002502Y011812D01*
X004002Y011812D01*
X004252Y011562D01*
X004252Y011062D01*
X004002Y010812D01*
X004002Y011812D02*
X004252Y012062D01*
X004252Y012562D01*
X004002Y012812D01*
X002502Y012812D01*
X002252Y012562D01*
X002252Y012062D01*
X002502Y011812D01*
X002502Y012812D02*
X002252Y013062D01*
X002252Y013562D01*
X002502Y013812D01*
X004002Y013812D01*
X004252Y013562D01*
X004252Y013062D01*
X004002Y012812D01*
X004002Y013812D02*
X004252Y014062D01*
X004252Y014562D01*
X004002Y014812D01*
X002502Y014812D01*
X002252Y014562D01*
X002252Y014062D01*
X002502Y013812D01*
X002502Y014812D02*
X002252Y015062D01*
X002252Y015562D01*
X002502Y015812D01*
X004002Y015812D01*
X004252Y015562D01*
X004252Y015062D01*
X004002Y014812D01*
X004002Y015812D02*
X004252Y016062D01*
X004252Y016562D01*
X004002Y016812D01*
X002502Y016812D01*
X002252Y016562D01*
X002252Y016062D01*
X002502Y015812D01*
X002555Y016836D02*
X002328Y016836D01*
X002442Y016836D02*
X002442Y017176D01*
X002328Y017063D01*
X002697Y017176D02*
X002697Y016836D01*
X002924Y016836D02*
X002697Y017176D01*
X002924Y017176D02*
X002924Y016836D01*
X003065Y017006D02*
X003292Y017006D01*
X003433Y017063D02*
X003547Y017176D01*
X003547Y016836D01*
X003660Y016836D02*
X003433Y016836D01*
X003235Y016836D02*
X003235Y017176D01*
X003065Y017006D01*
X003802Y017006D02*
X004028Y017006D01*
X004170Y016950D02*
X004227Y017006D01*
X004340Y017006D01*
X004397Y016950D01*
X004397Y016893D01*
X004340Y016836D01*
X004227Y016836D01*
X004170Y016893D01*
X004170Y016950D01*
X004227Y017006D02*
X004170Y017063D01*
X004170Y017120D01*
X004227Y017176D01*
X004340Y017176D01*
X004397Y017120D01*
X004397Y017063D01*
X004340Y017006D01*
X003972Y016836D02*
X003972Y017176D01*
X003802Y017006D01*
X003921Y017319D02*
X005521Y017319D01*
X005538Y017321D01*
X005555Y017325D01*
X005571Y017332D01*
X005585Y017342D01*
X005598Y017355D01*
X005608Y017369D01*
X005615Y017385D01*
X005619Y017402D01*
X005621Y017419D01*
X005621Y018019D01*
X005619Y018036D01*
X005615Y018053D01*
X005608Y018069D01*
X005598Y018083D01*
X005585Y018096D01*
X005571Y018106D01*
X005555Y018113D01*
X005538Y018117D01*
X005521Y018119D01*
X003921Y018119D01*
X003904Y018117D01*
X003887Y018113D01*
X003871Y018106D01*
X003857Y018096D01*
X003844Y018083D01*
X003834Y018069D01*
X003827Y018053D01*
X003823Y018036D01*
X003821Y018019D01*
X003821Y017419D01*
X003823Y017402D01*
X003827Y017385D01*
X003834Y017369D01*
X003844Y017355D01*
X003857Y017342D01*
X003871Y017332D01*
X003887Y017325D01*
X003904Y017321D01*
X003921Y017319D01*
X004321Y017469D02*
X004721Y017719D01*
X004721Y017969D01*
X004721Y017719D02*
X004721Y017469D01*
X004721Y017719D02*
X004121Y017719D01*
X004321Y017469D02*
X004321Y017969D01*
X004721Y017719D01*
X004971Y017719D01*
X004752Y018562D02*
X004752Y018812D01*
X004752Y019062D01*
X004752Y018812D02*
X004352Y018562D01*
X004352Y019062D01*
X004752Y018812D01*
X004152Y018812D01*
X003852Y018512D02*
X003854Y018495D01*
X003858Y018478D01*
X003865Y018462D01*
X003875Y018448D01*
X003888Y018435D01*
X003902Y018425D01*
X003918Y018418D01*
X003935Y018414D01*
X003952Y018412D01*
X005552Y018412D01*
X005569Y018414D01*
X005586Y018418D01*
X005602Y018425D01*
X005616Y018435D01*
X005629Y018448D01*
X005639Y018462D01*
X005646Y018478D01*
X005650Y018495D01*
X005652Y018512D01*
X005652Y019112D01*
X005650Y019129D01*
X005646Y019146D01*
X005639Y019162D01*
X005629Y019176D01*
X005616Y019189D01*
X005602Y019199D01*
X005586Y019206D01*
X005569Y019210D01*
X005552Y019212D01*
X003952Y019212D01*
X003935Y019210D01*
X003918Y019206D01*
X003902Y019199D01*
X003888Y019189D01*
X003875Y019176D01*
X003865Y019162D01*
X003858Y019146D01*
X003854Y019129D01*
X003852Y019112D01*
X003852Y018512D01*
X004752Y018812D02*
X005002Y018812D01*
X005002Y020862D02*
X005002Y021062D01*
X003252Y021312D02*
X003254Y021398D01*
X003260Y021484D01*
X003271Y021569D01*
X003286Y021653D01*
X003304Y021737D01*
X003327Y021820D01*
X003354Y021902D01*
X003385Y021982D01*
X003420Y022060D01*
X003459Y022137D01*
X003501Y022212D01*
X003547Y022284D01*
X003596Y022354D01*
X003649Y022422D01*
X003705Y022487D01*
X003765Y022549D01*
X003827Y022609D01*
X003892Y022665D01*
X003960Y022718D01*
X004030Y022767D01*
X004102Y022813D01*
X004177Y022855D01*
X004254Y022894D01*
X004332Y022929D01*
X004412Y022960D01*
X004494Y022987D01*
X004577Y023010D01*
X004661Y023028D01*
X004745Y023043D01*
X004830Y023054D01*
X004916Y023060D01*
X005002Y023062D01*
X005088Y023060D01*
X005174Y023054D01*
X005259Y023043D01*
X005343Y023028D01*
X005427Y023010D01*
X005510Y022987D01*
X005592Y022960D01*
X005672Y022929D01*
X005750Y022894D01*
X005827Y022855D01*
X005902Y022813D01*
X005974Y022767D01*
X006044Y022718D01*
X006112Y022665D01*
X006177Y022609D01*
X006239Y022549D01*
X006299Y022487D01*
X006355Y022422D01*
X006408Y022354D01*
X006457Y022284D01*
X006503Y022212D01*
X006545Y022137D01*
X006584Y022060D01*
X006619Y021982D01*
X006650Y021902D01*
X006677Y021820D01*
X006700Y021737D01*
X006718Y021653D01*
X006733Y021569D01*
X006744Y021484D01*
X006750Y021398D01*
X006752Y021312D01*
X006750Y021226D01*
X006744Y021140D01*
X006733Y021055D01*
X006718Y020971D01*
X006700Y020887D01*
X006677Y020804D01*
X006650Y020722D01*
X006619Y020642D01*
X006584Y020564D01*
X006545Y020487D01*
X006503Y020412D01*
X006457Y020340D01*
X006408Y020270D01*
X006355Y020202D01*
X006299Y020137D01*
X006239Y020075D01*
X006177Y020015D01*
X006112Y019959D01*
X006044Y019906D01*
X005974Y019857D01*
X005902Y019811D01*
X005827Y019769D01*
X005750Y019730D01*
X005672Y019695D01*
X005592Y019664D01*
X005510Y019637D01*
X005427Y019614D01*
X005343Y019596D01*
X005259Y019581D01*
X005174Y019570D01*
X005088Y019564D01*
X005002Y019562D01*
X004916Y019564D01*
X004830Y019570D01*
X004745Y019581D01*
X004661Y019596D01*
X004577Y019614D01*
X004494Y019637D01*
X004412Y019664D01*
X004332Y019695D01*
X004254Y019730D01*
X004177Y019769D01*
X004102Y019811D01*
X004030Y019857D01*
X003960Y019906D01*
X003892Y019959D01*
X003827Y020015D01*
X003765Y020075D01*
X003705Y020137D01*
X003649Y020202D01*
X003596Y020270D01*
X003547Y020340D01*
X003501Y020412D01*
X003459Y020487D01*
X003420Y020564D01*
X003385Y020642D01*
X003354Y020722D01*
X003327Y020804D01*
X003304Y020887D01*
X003286Y020971D01*
X003271Y021055D01*
X003260Y021140D01*
X003254Y021226D01*
X003252Y021312D01*
X004552Y021412D02*
X005452Y021412D01*
X005452Y021662D01*
X005002Y021662D01*
X004552Y021662D01*
X004552Y021412D01*
X005002Y021662D02*
X005002Y021762D01*
X005652Y022462D02*
X005652Y022762D01*
X005802Y022612D02*
X005502Y022612D01*
X008033Y018187D02*
X007783Y017937D01*
X007783Y017437D01*
X008033Y017187D01*
X008533Y017187D01*
X008783Y017437D01*
X008783Y017937D01*
X008533Y018187D01*
X008033Y018187D01*
X008033Y017187D02*
X007783Y016937D01*
X007783Y016437D01*
X008033Y016187D01*
X007783Y015937D01*
X007783Y015437D01*
X008033Y015187D01*
X008533Y015187D01*
X008783Y015437D01*
X008783Y015937D01*
X008533Y016187D01*
X008033Y016187D01*
X008533Y016187D01*
X008783Y016437D01*
X008783Y016937D01*
X008533Y017187D01*
X008033Y017187D01*
X009052Y017025D02*
X009052Y015725D01*
X009054Y015699D01*
X009059Y015673D01*
X009067Y015648D01*
X009079Y015625D01*
X009093Y015603D01*
X009111Y015584D01*
X009130Y015566D01*
X009152Y015552D01*
X009175Y015540D01*
X009200Y015532D01*
X009226Y015527D01*
X009252Y015525D01*
X009502Y015875D02*
X009502Y016255D01*
X009502Y016505D02*
X009502Y016875D01*
X009752Y017225D02*
X009778Y017223D01*
X009804Y017218D01*
X009829Y017210D01*
X009852Y017198D01*
X009874Y017184D01*
X009893Y017166D01*
X009911Y017147D01*
X009925Y017125D01*
X009937Y017102D01*
X009945Y017077D01*
X009950Y017051D01*
X009952Y017025D01*
X009952Y015725D01*
X009950Y015699D01*
X009945Y015673D01*
X009937Y015648D01*
X009925Y015625D01*
X009911Y015603D01*
X009893Y015584D01*
X009874Y015566D01*
X009852Y015552D01*
X009829Y015540D01*
X009804Y015532D01*
X009778Y015527D01*
X009752Y015525D01*
X010477Y016550D02*
X010477Y018200D01*
X011027Y018262D02*
X011027Y018420D01*
X010477Y018200D02*
X010528Y018237D01*
X010581Y018272D01*
X010637Y018304D01*
X010694Y018332D01*
X010753Y018356D01*
X010813Y018377D01*
X010874Y018394D01*
X010936Y018408D01*
X010999Y018417D01*
X011062Y018423D01*
X011126Y018425D01*
X011190Y018423D01*
X011253Y018417D01*
X011316Y018408D01*
X011378Y018395D01*
X011439Y018377D01*
X011499Y018357D01*
X011558Y018332D01*
X011615Y018304D01*
X011671Y018273D01*
X011724Y018239D01*
X011775Y018201D01*
X011824Y018160D01*
X011870Y018116D01*
X011914Y018070D01*
X011955Y018021D01*
X011992Y017970D01*
X012027Y017916D01*
X012058Y017861D01*
X012086Y017804D01*
X012110Y017745D01*
X012130Y017685D01*
X012502Y018212D02*
X013002Y018212D01*
X013028Y018214D01*
X013054Y018219D01*
X013079Y018227D01*
X013102Y018239D01*
X013124Y018253D01*
X013143Y018271D01*
X013161Y018290D01*
X013175Y018312D01*
X013187Y018335D01*
X013195Y018360D01*
X013200Y018386D01*
X013202Y018412D01*
X013202Y019712D01*
X013200Y019738D01*
X013195Y019764D01*
X013187Y019789D01*
X013175Y019812D01*
X013161Y019834D01*
X013143Y019853D01*
X013124Y019871D01*
X013102Y019885D01*
X013079Y019897D01*
X013054Y019905D01*
X013028Y019910D01*
X013002Y019912D01*
X012502Y019912D01*
X012476Y019910D01*
X012450Y019905D01*
X012425Y019897D01*
X012402Y019885D01*
X012380Y019871D01*
X012361Y019853D01*
X012343Y019834D01*
X012329Y019812D01*
X012317Y019789D01*
X012309Y019764D01*
X012304Y019738D01*
X012302Y019712D01*
X012302Y018412D01*
X012304Y018386D01*
X012309Y018360D01*
X012317Y018335D01*
X012329Y018312D01*
X012343Y018290D01*
X012361Y018271D01*
X012380Y018253D01*
X012402Y018239D01*
X012425Y018227D01*
X012450Y018219D01*
X012476Y018214D01*
X012502Y018212D01*
X013502Y017912D02*
X013502Y017212D01*
X013504Y017195D01*
X013508Y017178D01*
X013515Y017162D01*
X013525Y017148D01*
X013538Y017135D01*
X013552Y017125D01*
X013568Y017118D01*
X013585Y017114D01*
X013602Y017112D01*
X013752Y017112D01*
X013802Y017162D01*
X015702Y017162D01*
X015752Y017112D01*
X015902Y017112D01*
X015919Y017114D01*
X015936Y017118D01*
X015952Y017125D01*
X015966Y017135D01*
X015979Y017148D01*
X015989Y017162D01*
X015996Y017178D01*
X016000Y017195D01*
X016002Y017212D01*
X016002Y017912D01*
X016000Y017929D01*
X015996Y017946D01*
X015989Y017962D01*
X015979Y017976D01*
X015966Y017989D01*
X015952Y017999D01*
X015936Y018006D01*
X015919Y018010D01*
X015902Y018012D01*
X015752Y018012D01*
X015702Y017962D01*
X013802Y017962D01*
X013752Y018012D01*
X013602Y018012D01*
X013585Y018010D01*
X013568Y018006D01*
X013552Y017999D01*
X013538Y017989D01*
X013525Y017976D01*
X013515Y017962D01*
X013508Y017946D01*
X013504Y017929D01*
X013502Y017912D01*
X014102Y018062D02*
X016402Y018062D01*
X016402Y022062D01*
X015652Y022062D01*
X015752Y022362D02*
X015702Y022412D01*
X013802Y022412D01*
X013752Y022362D01*
X013602Y022362D01*
X013585Y022364D01*
X013568Y022368D01*
X013552Y022375D01*
X013538Y022385D01*
X013525Y022398D01*
X013515Y022412D01*
X013508Y022428D01*
X013504Y022445D01*
X013502Y022462D01*
X013502Y023162D01*
X013504Y023179D01*
X013508Y023196D01*
X013515Y023212D01*
X013525Y023226D01*
X013538Y023239D01*
X013552Y023249D01*
X013568Y023256D01*
X013585Y023260D01*
X013602Y023262D01*
X013752Y023262D01*
X013802Y023212D01*
X015702Y023212D01*
X015752Y023262D01*
X015902Y023262D01*
X015919Y023260D01*
X015936Y023256D01*
X015952Y023249D01*
X015966Y023239D01*
X015979Y023226D01*
X015989Y023212D01*
X015996Y023196D01*
X016000Y023179D01*
X016002Y023162D01*
X016002Y022462D01*
X016000Y022445D01*
X015996Y022428D01*
X015989Y022412D01*
X015979Y022398D01*
X015966Y022385D01*
X015952Y022375D01*
X015936Y022368D01*
X015919Y022364D01*
X015902Y022362D01*
X015752Y022362D01*
X015652Y022062D02*
X015650Y022023D01*
X015644Y021984D01*
X015635Y021946D01*
X015622Y021909D01*
X015605Y021873D01*
X015585Y021840D01*
X015561Y021808D01*
X015535Y021779D01*
X015506Y021753D01*
X015474Y021729D01*
X015441Y021709D01*
X015405Y021692D01*
X015368Y021679D01*
X015330Y021670D01*
X015291Y021664D01*
X015252Y021662D01*
X015213Y021664D01*
X015174Y021670D01*
X015136Y021679D01*
X015099Y021692D01*
X015063Y021709D01*
X015030Y021729D01*
X014998Y021753D01*
X014969Y021779D01*
X014943Y021808D01*
X014919Y021840D01*
X014899Y021873D01*
X014882Y021909D01*
X014869Y021946D01*
X014860Y021984D01*
X014854Y022023D01*
X014852Y022062D01*
X014102Y022062D01*
X014102Y018062D01*
X012130Y017065D02*
X012110Y017005D01*
X012086Y016946D01*
X012058Y016889D01*
X012027Y016834D01*
X011992Y016780D01*
X011955Y016729D01*
X011914Y016680D01*
X011870Y016634D01*
X011824Y016590D01*
X011775Y016549D01*
X011724Y016511D01*
X011671Y016477D01*
X011615Y016445D01*
X011558Y016418D01*
X011499Y016393D01*
X011439Y016373D01*
X011378Y016355D01*
X011316Y016342D01*
X011253Y016333D01*
X011190Y016327D01*
X011126Y016325D01*
X011062Y016327D01*
X010999Y016333D01*
X010936Y016342D01*
X010874Y016356D01*
X010813Y016373D01*
X010753Y016394D01*
X010694Y016418D01*
X010637Y016446D01*
X010581Y016478D01*
X010528Y016513D01*
X010477Y016550D01*
X011027Y016488D02*
X011027Y016330D01*
X009252Y017225D02*
X009226Y017223D01*
X009200Y017218D01*
X009175Y017210D01*
X009152Y017198D01*
X009130Y017184D01*
X009111Y017166D01*
X009093Y017147D01*
X009079Y017125D01*
X009067Y017102D01*
X009059Y017077D01*
X009054Y017051D01*
X009052Y017025D01*
X005752Y014812D02*
X005252Y014812D01*
X005252Y012812D02*
X005752Y012812D01*
X005752Y011812D02*
X005252Y011812D01*
X005252Y009812D02*
X005752Y009812D01*
X005752Y008812D02*
X005252Y008812D01*
X007907Y006558D02*
X008077Y006558D01*
X008134Y006501D01*
X008134Y006388D01*
X008077Y006331D01*
X007907Y006331D01*
X007907Y006217D02*
X007907Y006558D01*
X008275Y006558D02*
X008275Y006217D01*
X008389Y006331D01*
X008502Y006217D01*
X008502Y006558D01*
X008644Y006558D02*
X008757Y006444D01*
X008870Y006558D01*
X008870Y006217D01*
X008644Y006217D02*
X008644Y006558D01*
X008333Y009825D02*
X010733Y009825D01*
X010789Y009827D01*
X010844Y009833D01*
X010899Y009842D01*
X010954Y009856D01*
X011007Y009873D01*
X011058Y009894D01*
X011109Y009919D01*
X011157Y009947D01*
X011203Y009978D01*
X011247Y010012D01*
X011289Y010050D01*
X011328Y010090D01*
X011363Y010132D01*
X011396Y010178D01*
X011426Y010225D01*
X011452Y010274D01*
X011475Y010325D01*
X011494Y010378D01*
X011509Y010431D01*
X011521Y010486D01*
X011529Y010541D01*
X011533Y010597D01*
X011533Y010653D01*
X011529Y010709D01*
X011521Y010764D01*
X011509Y010819D01*
X011494Y010872D01*
X011475Y010925D01*
X011452Y010976D01*
X011426Y011025D01*
X011396Y011072D01*
X011363Y011118D01*
X011328Y011160D01*
X011289Y011200D01*
X011247Y011238D01*
X011203Y011272D01*
X011157Y011303D01*
X011109Y011331D01*
X011058Y011356D01*
X011007Y011377D01*
X010954Y011394D01*
X010899Y011408D01*
X010844Y011417D01*
X010789Y011423D01*
X010733Y011425D01*
X008333Y011425D01*
X008277Y011423D01*
X008222Y011417D01*
X008167Y011408D01*
X008112Y011394D01*
X008059Y011377D01*
X008008Y011356D01*
X007957Y011331D01*
X007909Y011303D01*
X007863Y011272D01*
X007819Y011238D01*
X007777Y011200D01*
X007738Y011160D01*
X007703Y011118D01*
X007670Y011072D01*
X007640Y011025D01*
X007614Y010976D01*
X007591Y010925D01*
X007572Y010872D01*
X007557Y010819D01*
X007545Y010764D01*
X007537Y010709D01*
X007533Y010653D01*
X007533Y010597D01*
X007537Y010541D01*
X007545Y010486D01*
X007557Y010431D01*
X007572Y010378D01*
X007591Y010325D01*
X007614Y010274D01*
X007640Y010225D01*
X007670Y010178D01*
X007703Y010132D01*
X007738Y010090D01*
X007777Y010050D01*
X007819Y010012D01*
X007863Y009978D01*
X007909Y009947D01*
X007957Y009919D01*
X008008Y009894D01*
X008059Y009873D01*
X008112Y009856D01*
X008167Y009842D01*
X008222Y009833D01*
X008277Y009827D01*
X008333Y009825D01*
X009263Y010225D02*
X009263Y010625D01*
X009263Y011025D01*
X009413Y011025D02*
X009413Y010225D01*
X009663Y010225D01*
X009663Y011025D01*
X009413Y011025D01*
X009803Y011025D02*
X009803Y010625D01*
X010083Y010625D01*
X009803Y010625D02*
X009803Y010225D01*
X009263Y010625D02*
X008983Y010625D01*
X002502Y008812D02*
X002252Y008562D01*
X002252Y008062D01*
X002502Y007812D01*
X013913Y005069D02*
X013939Y005123D01*
X013969Y005177D01*
X014002Y005228D01*
X014038Y005277D01*
X014077Y005323D01*
X014120Y005367D01*
X014164Y005408D01*
X014212Y005446D01*
X014262Y005481D01*
X014314Y005513D01*
X014367Y005541D01*
X014423Y005566D01*
X014480Y005587D01*
X014538Y005605D01*
X014597Y005619D01*
X014657Y005629D01*
X014718Y005635D01*
X014779Y005637D01*
X014840Y005635D01*
X014900Y005630D01*
X014960Y005620D01*
X015020Y005607D01*
X015078Y005590D01*
X015135Y005569D01*
X015191Y005545D01*
X015245Y005517D01*
X015297Y005486D01*
X015347Y005451D01*
X015395Y005413D01*
X015440Y005373D01*
X015483Y005329D01*
X016696Y004981D02*
X016846Y004981D01*
X016896Y004931D01*
X018796Y004931D01*
X018846Y004981D01*
X018996Y004981D01*
X019013Y004979D01*
X019030Y004975D01*
X019046Y004968D01*
X019060Y004958D01*
X019073Y004945D01*
X019083Y004931D01*
X019090Y004915D01*
X019094Y004898D01*
X019096Y004881D01*
X019096Y004181D02*
X019094Y004164D01*
X019090Y004147D01*
X019083Y004131D01*
X019073Y004117D01*
X019060Y004104D01*
X019046Y004094D01*
X019030Y004087D01*
X019013Y004083D01*
X018996Y004081D01*
X018846Y004081D01*
X018796Y004131D01*
X016896Y004131D01*
X016846Y004081D01*
X016696Y004081D01*
X016679Y004083D01*
X016662Y004087D01*
X016646Y004094D01*
X016632Y004104D01*
X016619Y004117D01*
X016609Y004131D01*
X016602Y004147D01*
X016598Y004164D01*
X016596Y004181D01*
X016596Y004881D02*
X016598Y004898D01*
X016602Y004915D01*
X016609Y004931D01*
X016619Y004945D01*
X016632Y004958D01*
X016646Y004968D01*
X016662Y004975D01*
X016679Y004979D01*
X016696Y004981D01*
X017658Y005812D02*
X017408Y006062D01*
X017408Y006562D01*
X017658Y006812D01*
X017408Y007062D01*
X017408Y007562D01*
X017658Y007812D01*
X017408Y008062D01*
X017408Y008562D01*
X017658Y008812D01*
X017408Y009062D01*
X017408Y009562D01*
X017658Y009812D01*
X017408Y010062D01*
X017408Y010562D01*
X017658Y010812D01*
X017408Y011062D01*
X017408Y011562D01*
X017658Y011812D01*
X018158Y011812D01*
X018408Y011562D01*
X018408Y011062D01*
X018158Y010812D01*
X018408Y010562D01*
X018408Y010062D01*
X018158Y009812D01*
X017658Y009812D01*
X018158Y009812D02*
X018408Y009562D01*
X018408Y009062D01*
X018158Y008812D01*
X018408Y008562D01*
X018408Y008062D01*
X018158Y007812D01*
X018408Y007562D01*
X018408Y007062D01*
X018158Y006812D01*
X018408Y006562D01*
X018408Y006062D01*
X018158Y005812D01*
X017658Y005812D01*
X017658Y006812D02*
X018158Y006812D01*
X018158Y007812D02*
X017658Y007812D01*
X017658Y008812D02*
X018158Y008812D01*
X019177Y007056D02*
X019177Y005756D01*
X019179Y005730D01*
X019184Y005704D01*
X019192Y005679D01*
X019204Y005656D01*
X019218Y005634D01*
X019236Y005615D01*
X019255Y005597D01*
X019277Y005583D01*
X019300Y005571D01*
X019325Y005563D01*
X019351Y005558D01*
X019377Y005556D01*
X019627Y005906D02*
X019627Y006286D01*
X019627Y006536D02*
X019627Y006906D01*
X019877Y007256D02*
X019903Y007254D01*
X019929Y007249D01*
X019954Y007241D01*
X019977Y007229D01*
X019999Y007215D01*
X020018Y007197D01*
X020036Y007178D01*
X020050Y007156D01*
X020062Y007133D01*
X020070Y007108D01*
X020075Y007082D01*
X020077Y007056D01*
X020077Y005756D01*
X020075Y005730D01*
X020070Y005704D01*
X020062Y005679D01*
X020050Y005656D01*
X020036Y005634D01*
X020018Y005615D01*
X019999Y005597D01*
X019977Y005583D01*
X019954Y005571D01*
X019929Y005563D01*
X019903Y005558D01*
X019877Y005556D01*
X021088Y005575D02*
X021201Y005461D01*
X021088Y005575D02*
X021428Y005575D01*
X021428Y005688D02*
X021428Y005461D01*
X021371Y005829D02*
X021145Y005829D01*
X021088Y005886D01*
X021088Y006000D01*
X021145Y006056D01*
X021371Y005829D01*
X021428Y005886D01*
X021428Y006000D01*
X021371Y006056D01*
X021145Y006056D01*
X021145Y006198D02*
X021088Y006254D01*
X021088Y006368D01*
X021145Y006425D01*
X021371Y006198D01*
X021428Y006254D01*
X021428Y006368D01*
X021371Y006425D01*
X021145Y006425D01*
X021201Y006566D02*
X021201Y006736D01*
X021258Y006793D01*
X021428Y006793D01*
X021428Y006566D02*
X021201Y006566D01*
X021145Y006198D02*
X021371Y006198D01*
X021039Y007469D02*
X020339Y007469D01*
X020322Y007471D01*
X020305Y007475D01*
X020289Y007482D01*
X020275Y007492D01*
X020262Y007505D01*
X020252Y007519D01*
X020245Y007535D01*
X020241Y007552D01*
X020239Y007569D01*
X020239Y007719D01*
X020289Y007769D01*
X020289Y009669D01*
X020239Y009719D01*
X020239Y009869D01*
X020241Y009886D01*
X020245Y009903D01*
X020252Y009919D01*
X020262Y009933D01*
X020275Y009946D01*
X020289Y009956D01*
X020305Y009963D01*
X020322Y009967D01*
X020339Y009969D01*
X021039Y009969D01*
X021056Y009967D01*
X021073Y009963D01*
X021089Y009956D01*
X021103Y009946D01*
X021116Y009933D01*
X021126Y009919D01*
X021133Y009903D01*
X021137Y009886D01*
X021139Y009869D01*
X021139Y009719D01*
X021089Y009669D01*
X021089Y007769D01*
X021139Y007719D01*
X021139Y007569D01*
X021137Y007552D01*
X021133Y007535D01*
X021126Y007519D01*
X021116Y007505D01*
X021103Y007492D01*
X021089Y007482D01*
X021073Y007475D01*
X021056Y007471D01*
X021039Y007469D01*
X022539Y008019D02*
X022689Y008019D01*
X022739Y008069D01*
X024639Y008069D01*
X024689Y008019D01*
X024839Y008019D01*
X024856Y008021D01*
X024873Y008025D01*
X024889Y008032D01*
X024903Y008042D01*
X024916Y008055D01*
X024926Y008069D01*
X024933Y008085D01*
X024937Y008102D01*
X024939Y008119D01*
X024939Y008819D02*
X024937Y008836D01*
X024933Y008853D01*
X024926Y008869D01*
X024916Y008883D01*
X024903Y008896D01*
X024889Y008906D01*
X024873Y008913D01*
X024856Y008917D01*
X024839Y008919D01*
X024689Y008919D01*
X024639Y008869D01*
X022739Y008869D01*
X022689Y008919D01*
X022539Y008919D01*
X022522Y008917D01*
X022505Y008913D01*
X022489Y008906D01*
X022475Y008896D01*
X022462Y008883D01*
X022452Y008869D01*
X022445Y008853D01*
X022441Y008836D01*
X022439Y008819D01*
X022439Y008119D02*
X022441Y008102D01*
X022445Y008085D01*
X022452Y008069D01*
X022462Y008055D01*
X022475Y008042D01*
X022489Y008032D01*
X022505Y008025D01*
X022522Y008021D01*
X022539Y008019D01*
X023338Y007519D02*
X023452Y007633D01*
X023452Y007292D01*
X023565Y007292D02*
X023338Y007292D01*
X023446Y007169D02*
X024746Y007169D01*
X024670Y007292D02*
X024670Y007463D01*
X024613Y007519D01*
X024443Y007519D01*
X024443Y007292D01*
X024302Y007349D02*
X024302Y007576D01*
X024075Y007349D01*
X024131Y007292D01*
X024245Y007292D01*
X024302Y007349D01*
X024302Y007576D02*
X024245Y007633D01*
X024131Y007633D01*
X024075Y007576D01*
X024075Y007349D01*
X023933Y007349D02*
X023933Y007576D01*
X023706Y007349D01*
X023763Y007292D01*
X023877Y007292D01*
X023933Y007349D01*
X023706Y007349D02*
X023706Y007576D01*
X023763Y007633D01*
X023877Y007633D01*
X023933Y007576D01*
X023446Y007169D02*
X023420Y007167D01*
X023394Y007162D01*
X023369Y007154D01*
X023346Y007142D01*
X023324Y007128D01*
X023305Y007110D01*
X023287Y007091D01*
X023273Y007069D01*
X023261Y007046D01*
X023253Y007021D01*
X023248Y006995D01*
X023246Y006969D01*
X023596Y006719D02*
X023976Y006719D01*
X024226Y006719D02*
X024596Y006719D01*
X024946Y006969D02*
X024944Y006995D01*
X024939Y007021D01*
X024931Y007046D01*
X024919Y007069D01*
X024905Y007091D01*
X024887Y007110D01*
X024868Y007128D01*
X024846Y007142D01*
X024823Y007154D01*
X024798Y007162D01*
X024772Y007167D01*
X024746Y007169D01*
X024868Y007292D02*
X024868Y007576D01*
X024925Y007633D01*
X024925Y007463D02*
X024811Y007463D01*
X024946Y006469D02*
X024944Y006443D01*
X024939Y006417D01*
X024931Y006392D01*
X024919Y006369D01*
X024905Y006347D01*
X024887Y006328D01*
X024868Y006310D01*
X024846Y006296D01*
X024823Y006284D01*
X024798Y006276D01*
X024772Y006271D01*
X024746Y006269D01*
X023446Y006269D01*
X023420Y006271D01*
X023394Y006276D01*
X023369Y006284D01*
X023346Y006296D01*
X023324Y006310D01*
X023305Y006328D01*
X023287Y006347D01*
X023273Y006369D01*
X023261Y006392D01*
X023253Y006417D01*
X023248Y006443D01*
X023246Y006469D01*
X021139Y004306D02*
X021139Y004156D01*
X021089Y004106D01*
X021089Y002206D01*
X021139Y002156D01*
X021139Y002006D01*
X021137Y001989D01*
X021133Y001972D01*
X021126Y001956D01*
X021116Y001942D01*
X021103Y001929D01*
X021089Y001919D01*
X021073Y001912D01*
X021056Y001908D01*
X021039Y001906D01*
X021771Y001944D02*
X021771Y002094D01*
X021821Y002144D01*
X021821Y004044D01*
X021771Y004094D01*
X021771Y004244D01*
X021773Y004261D01*
X021777Y004278D01*
X021784Y004294D01*
X021794Y004308D01*
X021807Y004321D01*
X021821Y004331D01*
X021837Y004338D01*
X021854Y004342D01*
X021871Y004344D01*
X022571Y004344D02*
X022588Y004342D01*
X022605Y004338D01*
X022621Y004331D01*
X022635Y004321D01*
X022648Y004308D01*
X022658Y004294D01*
X022665Y004278D01*
X022669Y004261D01*
X022671Y004244D01*
X022671Y004094D01*
X022621Y004044D01*
X022621Y002144D01*
X022671Y002094D01*
X022671Y001944D01*
X022669Y001927D01*
X022665Y001910D01*
X022658Y001894D01*
X022648Y001880D01*
X022635Y001867D01*
X022621Y001857D01*
X022605Y001850D01*
X022588Y001846D01*
X022571Y001844D01*
X023114Y001975D02*
X023114Y002125D01*
X023164Y002175D01*
X023164Y004075D01*
X023114Y004125D01*
X023114Y004275D01*
X023116Y004292D01*
X023120Y004309D01*
X023127Y004325D01*
X023137Y004339D01*
X023150Y004352D01*
X023164Y004362D01*
X023180Y004369D01*
X023197Y004373D01*
X023214Y004375D01*
X023914Y004375D02*
X023931Y004373D01*
X023948Y004369D01*
X023964Y004362D01*
X023978Y004352D01*
X023991Y004339D01*
X024001Y004325D01*
X024008Y004309D01*
X024012Y004292D01*
X024014Y004275D01*
X024014Y004125D01*
X023964Y004075D01*
X023964Y002175D01*
X024014Y002125D01*
X024014Y001975D01*
X024012Y001958D01*
X024008Y001941D01*
X024001Y001925D01*
X023991Y001911D01*
X023978Y001898D01*
X023964Y001888D01*
X023948Y001881D01*
X023931Y001877D01*
X023914Y001875D01*
X023214Y001875D02*
X023197Y001877D01*
X023180Y001881D01*
X023164Y001888D01*
X023150Y001898D01*
X023137Y001911D01*
X023127Y001925D01*
X023120Y001941D01*
X023116Y001958D01*
X023114Y001975D01*
X021871Y001844D02*
X021854Y001846D01*
X021837Y001850D01*
X021821Y001857D01*
X021807Y001867D01*
X021794Y001880D01*
X021784Y001894D01*
X021777Y001910D01*
X021773Y001927D01*
X021771Y001944D01*
X020339Y001906D02*
X020322Y001908D01*
X020305Y001912D01*
X020289Y001919D01*
X020275Y001929D01*
X020262Y001942D01*
X020252Y001956D01*
X020245Y001972D01*
X020241Y001989D01*
X020239Y002006D01*
X020239Y002156D01*
X020289Y002206D01*
X020289Y004106D01*
X020239Y004156D01*
X020239Y004306D01*
X020241Y004323D01*
X020245Y004340D01*
X020252Y004356D01*
X020262Y004370D01*
X020275Y004383D01*
X020289Y004393D01*
X020305Y004400D01*
X020322Y004404D01*
X020339Y004406D01*
X021039Y004406D02*
X021056Y004404D01*
X021073Y004400D01*
X021089Y004393D01*
X021103Y004383D01*
X021116Y004370D01*
X021126Y004356D01*
X021133Y004340D01*
X021137Y004323D01*
X021139Y004306D01*
X019177Y007056D02*
X019179Y007082D01*
X019184Y007108D01*
X019192Y007133D01*
X019204Y007156D01*
X019218Y007178D01*
X019236Y007197D01*
X019255Y007215D01*
X019277Y007229D01*
X019300Y007241D01*
X019325Y007249D01*
X019351Y007254D01*
X019377Y007256D01*
X017108Y010662D02*
X017108Y011962D01*
X017106Y011988D01*
X017101Y012014D01*
X017093Y012039D01*
X017081Y012062D01*
X017067Y012084D01*
X017049Y012103D01*
X017030Y012121D01*
X017008Y012135D01*
X016985Y012147D01*
X016960Y012155D01*
X016934Y012160D01*
X016908Y012162D01*
X016658Y011812D02*
X016658Y011432D01*
X016658Y011182D02*
X016658Y010812D01*
X016408Y010462D02*
X016382Y010464D01*
X016356Y010469D01*
X016331Y010477D01*
X016308Y010489D01*
X016286Y010503D01*
X016267Y010521D01*
X016249Y010540D01*
X016235Y010562D01*
X016223Y010585D01*
X016215Y010610D01*
X016210Y010636D01*
X016208Y010662D01*
X016208Y011962D01*
X016210Y011988D01*
X016215Y012014D01*
X016223Y012039D01*
X016235Y012062D01*
X016249Y012084D01*
X016267Y012103D01*
X016286Y012121D01*
X016308Y012135D01*
X016331Y012147D01*
X016356Y012155D01*
X016382Y012160D01*
X016408Y012162D01*
X017658Y010812D02*
X018158Y010812D01*
X017108Y010662D02*
X017106Y010636D01*
X017101Y010610D01*
X017093Y010585D01*
X017081Y010562D01*
X017067Y010540D01*
X017049Y010521D01*
X017030Y010503D01*
X017008Y010489D01*
X016985Y010477D01*
X016960Y010469D01*
X016934Y010464D01*
X016908Y010462D01*
X020133Y011331D02*
X020283Y011331D01*
X020333Y011381D01*
X022233Y011381D01*
X022283Y011331D01*
X022433Y011331D01*
X022450Y011333D01*
X022467Y011337D01*
X022483Y011344D01*
X022497Y011354D01*
X022510Y011367D01*
X022520Y011381D01*
X022527Y011397D01*
X022531Y011414D01*
X022533Y011431D01*
X022533Y012131D02*
X022531Y012148D01*
X022527Y012165D01*
X022520Y012181D01*
X022510Y012195D01*
X022497Y012208D01*
X022483Y012218D01*
X022467Y012225D01*
X022450Y012229D01*
X022433Y012231D01*
X022283Y012231D01*
X022233Y012181D01*
X020333Y012181D01*
X020283Y012231D01*
X020133Y012231D01*
X020116Y012229D01*
X020099Y012225D01*
X020083Y012218D01*
X020069Y012208D01*
X020056Y012195D01*
X020046Y012181D01*
X020039Y012165D01*
X020035Y012148D01*
X020033Y012131D01*
X020133Y012331D02*
X020283Y012331D01*
X020333Y012381D01*
X022233Y012381D01*
X022283Y012331D01*
X022433Y012331D01*
X022450Y012333D01*
X022467Y012337D01*
X022483Y012344D01*
X022497Y012354D01*
X022510Y012367D01*
X022520Y012381D01*
X022527Y012397D01*
X022531Y012414D01*
X022533Y012431D01*
X022533Y013131D02*
X022531Y013148D01*
X022527Y013165D01*
X022520Y013181D01*
X022510Y013195D01*
X022497Y013208D01*
X022483Y013218D01*
X022467Y013225D01*
X022450Y013229D01*
X022433Y013231D01*
X022283Y013231D01*
X022233Y013181D01*
X020333Y013181D01*
X020283Y013231D01*
X020133Y013231D01*
X020116Y013229D01*
X020099Y013225D01*
X020083Y013218D01*
X020069Y013208D01*
X020056Y013195D01*
X020046Y013181D01*
X020039Y013165D01*
X020035Y013148D01*
X020033Y013131D01*
X020133Y013331D02*
X020283Y013331D01*
X020333Y013381D01*
X022233Y013381D01*
X022283Y013331D01*
X022433Y013331D01*
X022450Y013333D01*
X022467Y013337D01*
X022483Y013344D01*
X022497Y013354D01*
X022510Y013367D01*
X022520Y013381D01*
X022527Y013397D01*
X022531Y013414D01*
X022533Y013431D01*
X022533Y014131D02*
X022531Y014148D01*
X022527Y014165D01*
X022520Y014181D01*
X022510Y014195D01*
X022497Y014208D01*
X022483Y014218D01*
X022467Y014225D01*
X022450Y014229D01*
X022433Y014231D01*
X022283Y014231D01*
X022233Y014181D01*
X020333Y014181D01*
X020283Y014231D01*
X020133Y014231D01*
X020116Y014229D01*
X020099Y014225D01*
X020083Y014218D01*
X020069Y014208D01*
X020056Y014195D01*
X020046Y014181D01*
X020039Y014165D01*
X020035Y014148D01*
X020033Y014131D01*
X020133Y014331D02*
X020283Y014331D01*
X020333Y014381D01*
X022233Y014381D01*
X022283Y014331D01*
X022433Y014331D01*
X022450Y014333D01*
X022467Y014337D01*
X022483Y014344D01*
X022497Y014354D01*
X022510Y014367D01*
X022520Y014381D01*
X022527Y014397D01*
X022531Y014414D01*
X022533Y014431D01*
X022533Y015131D02*
X022531Y015148D01*
X022527Y015165D01*
X022520Y015181D01*
X022510Y015195D01*
X022497Y015208D01*
X022483Y015218D01*
X022467Y015225D01*
X022450Y015229D01*
X022433Y015231D01*
X022283Y015231D01*
X022233Y015181D01*
X020333Y015181D01*
X020283Y015231D01*
X020133Y015231D01*
X020116Y015229D01*
X020099Y015225D01*
X020083Y015218D01*
X020069Y015208D01*
X020056Y015195D01*
X020046Y015181D01*
X020039Y015165D01*
X020035Y015148D01*
X020033Y015131D01*
X020033Y014431D02*
X020035Y014414D01*
X020039Y014397D01*
X020046Y014381D01*
X020056Y014367D01*
X020069Y014354D01*
X020083Y014344D01*
X020099Y014337D01*
X020116Y014333D01*
X020133Y014331D01*
X020033Y013431D02*
X020035Y013414D01*
X020039Y013397D01*
X020046Y013381D01*
X020056Y013367D01*
X020069Y013354D01*
X020083Y013344D01*
X020099Y013337D01*
X020116Y013333D01*
X020133Y013331D01*
X020033Y012431D02*
X020035Y012414D01*
X020039Y012397D01*
X020046Y012381D01*
X020056Y012367D01*
X020069Y012354D01*
X020083Y012344D01*
X020099Y012337D01*
X020116Y012333D01*
X020133Y012331D01*
X020033Y011431D02*
X020035Y011414D01*
X020039Y011397D01*
X020046Y011381D01*
X020056Y011367D01*
X020069Y011354D01*
X020083Y011344D01*
X020099Y011337D01*
X020116Y011333D01*
X020133Y011331D01*
X023539Y010450D02*
X024839Y010450D01*
X024865Y010448D01*
X024891Y010443D01*
X024916Y010435D01*
X024939Y010423D01*
X024961Y010409D01*
X024980Y010391D01*
X024998Y010372D01*
X025012Y010350D01*
X025024Y010327D01*
X025032Y010302D01*
X025037Y010276D01*
X025039Y010250D01*
X024689Y010000D02*
X024309Y010000D01*
X024059Y010000D02*
X023689Y010000D01*
X023339Y009750D02*
X023341Y009724D01*
X023346Y009698D01*
X023354Y009673D01*
X023366Y009650D01*
X023380Y009628D01*
X023398Y009609D01*
X023417Y009591D01*
X023439Y009577D01*
X023462Y009565D01*
X023487Y009557D01*
X023513Y009552D01*
X023539Y009550D01*
X024839Y009550D01*
X024865Y009552D01*
X024891Y009557D01*
X024916Y009565D01*
X024939Y009577D01*
X024961Y009591D01*
X024980Y009609D01*
X024998Y009628D01*
X025012Y009650D01*
X025024Y009673D01*
X025032Y009698D01*
X025037Y009724D01*
X025039Y009750D01*
X023539Y010450D02*
X023513Y010448D01*
X023487Y010443D01*
X023462Y010435D01*
X023439Y010423D01*
X023417Y010409D01*
X023398Y010391D01*
X023380Y010372D01*
X023366Y010350D01*
X023354Y010327D01*
X023346Y010302D01*
X023341Y010276D01*
X023339Y010250D01*
X025009Y011067D02*
X025063Y011093D01*
X025117Y011123D01*
X025168Y011156D01*
X025217Y011192D01*
X025263Y011231D01*
X025307Y011274D01*
X025348Y011318D01*
X025386Y011366D01*
X025421Y011416D01*
X025453Y011468D01*
X025481Y011521D01*
X025506Y011577D01*
X025527Y011634D01*
X025545Y011692D01*
X025559Y011751D01*
X025569Y011811D01*
X025575Y011872D01*
X025577Y011933D01*
X025575Y011994D01*
X025570Y012054D01*
X025560Y012114D01*
X025547Y012174D01*
X025530Y012232D01*
X025509Y012289D01*
X025485Y012345D01*
X025457Y012399D01*
X025426Y012451D01*
X025391Y012501D01*
X025353Y012549D01*
X025313Y012594D01*
X025269Y012637D01*
X023985Y012637D01*
X023941Y012594D01*
X023901Y012549D01*
X023863Y012501D01*
X023828Y012451D01*
X023797Y012399D01*
X023769Y012345D01*
X023745Y012289D01*
X023724Y012232D01*
X023707Y012174D01*
X023694Y012114D01*
X023684Y012054D01*
X023679Y011994D01*
X023677Y011933D01*
X023679Y011872D01*
X023685Y011811D01*
X023695Y011751D01*
X023709Y011692D01*
X023727Y011634D01*
X023748Y011577D01*
X023773Y011521D01*
X023801Y011468D01*
X023833Y011416D01*
X023868Y011366D01*
X023906Y011318D01*
X023947Y011274D01*
X023991Y011231D01*
X024037Y011192D01*
X024086Y011156D01*
X024137Y011123D01*
X024191Y011093D01*
X024245Y011067D01*
X025127Y013187D02*
X025129Y013231D01*
X025135Y013275D01*
X025145Y013318D01*
X025158Y013360D01*
X025175Y013401D01*
X025196Y013440D01*
X025220Y013477D01*
X025247Y013512D01*
X025277Y013544D01*
X025310Y013574D01*
X025346Y013600D01*
X025383Y013624D01*
X025423Y013643D01*
X025464Y013660D01*
X025507Y013672D01*
X025550Y013681D01*
X025594Y013686D01*
X025638Y013687D01*
X025682Y013684D01*
X025726Y013677D01*
X025769Y013666D01*
X025811Y013652D01*
X025851Y013634D01*
X025890Y013612D01*
X025926Y013588D01*
X025960Y013560D01*
X025992Y013529D01*
X026021Y013495D01*
X026047Y013459D01*
X026069Y013421D01*
X026088Y013381D01*
X026103Y013339D01*
X026115Y013297D01*
X026123Y013253D01*
X026127Y013209D01*
X026127Y013165D01*
X026123Y013121D01*
X026115Y013077D01*
X026103Y013035D01*
X026088Y012993D01*
X026069Y012953D01*
X026047Y012915D01*
X026021Y012879D01*
X025992Y012845D01*
X025960Y012814D01*
X025926Y012786D01*
X025890Y012762D01*
X025851Y012740D01*
X025811Y012722D01*
X025769Y012708D01*
X025726Y012697D01*
X025682Y012690D01*
X025638Y012687D01*
X025594Y012688D01*
X025550Y012693D01*
X025507Y012702D01*
X025464Y012714D01*
X025423Y012731D01*
X025383Y012750D01*
X025346Y012774D01*
X025310Y012800D01*
X025277Y012830D01*
X025247Y012862D01*
X025220Y012897D01*
X025196Y012934D01*
X025175Y012973D01*
X025158Y013014D01*
X025145Y013056D01*
X025135Y013099D01*
X025129Y013143D01*
X025127Y013187D01*
X022877Y016406D02*
X022879Y016450D01*
X022885Y016494D01*
X022895Y016537D01*
X022908Y016579D01*
X022925Y016620D01*
X022946Y016659D01*
X022970Y016696D01*
X022997Y016731D01*
X023027Y016763D01*
X023060Y016793D01*
X023096Y016819D01*
X023133Y016843D01*
X023173Y016862D01*
X023214Y016879D01*
X023257Y016891D01*
X023300Y016900D01*
X023344Y016905D01*
X023388Y016906D01*
X023432Y016903D01*
X023476Y016896D01*
X023519Y016885D01*
X023561Y016871D01*
X023601Y016853D01*
X023640Y016831D01*
X023676Y016807D01*
X023710Y016779D01*
X023742Y016748D01*
X023771Y016714D01*
X023797Y016678D01*
X023819Y016640D01*
X023838Y016600D01*
X023853Y016558D01*
X023865Y016516D01*
X023873Y016472D01*
X023877Y016428D01*
X023877Y016384D01*
X023873Y016340D01*
X023865Y016296D01*
X023853Y016254D01*
X023838Y016212D01*
X023819Y016172D01*
X023797Y016134D01*
X023771Y016098D01*
X023742Y016064D01*
X023710Y016033D01*
X023676Y016005D01*
X023640Y015981D01*
X023601Y015959D01*
X023561Y015941D01*
X023519Y015927D01*
X023476Y015916D01*
X023432Y015909D01*
X023388Y015906D01*
X023344Y015907D01*
X023300Y015912D01*
X023257Y015921D01*
X023214Y015933D01*
X023173Y015950D01*
X023133Y015969D01*
X023096Y015993D01*
X023060Y016019D01*
X023027Y016049D01*
X022997Y016081D01*
X022970Y016116D01*
X022946Y016153D01*
X022925Y016192D01*
X022908Y016233D01*
X022895Y016275D01*
X022885Y016318D01*
X022879Y016362D01*
X022877Y016406D01*
X022552Y017412D02*
X021952Y017412D01*
X021935Y017414D01*
X021918Y017418D01*
X021902Y017425D01*
X021888Y017435D01*
X021875Y017448D01*
X021865Y017462D01*
X021858Y017478D01*
X021854Y017495D01*
X021852Y017512D01*
X021852Y019112D01*
X021854Y019129D01*
X021858Y019146D01*
X021865Y019162D01*
X021875Y019176D01*
X021888Y019189D01*
X021902Y019199D01*
X021918Y019206D01*
X021935Y019210D01*
X021952Y019212D01*
X022552Y019212D01*
X022569Y019210D01*
X022586Y019206D01*
X022602Y019199D01*
X022616Y019189D01*
X022629Y019176D01*
X022639Y019162D01*
X022646Y019146D01*
X022650Y019129D01*
X022652Y019112D01*
X022652Y017512D01*
X022650Y017495D01*
X022646Y017478D01*
X022639Y017462D01*
X022629Y017448D01*
X022616Y017435D01*
X022602Y017425D01*
X022586Y017418D01*
X022569Y017414D01*
X022552Y017412D01*
X022252Y018062D02*
X022252Y018312D01*
X022502Y018312D01*
X022252Y018312D02*
X022002Y018312D01*
X022252Y018312D02*
X022002Y018712D01*
X022502Y018712D01*
X022252Y018312D01*
X022252Y018912D01*
X021752Y019262D02*
X021752Y020862D01*
X020752Y020862D01*
X020752Y019262D01*
X021752Y019262D01*
X021502Y019662D02*
X021252Y020062D01*
X021002Y020062D01*
X021252Y020062D02*
X021252Y020312D01*
X021252Y020062D02*
X021502Y020062D01*
X021252Y020062D02*
X021252Y019462D01*
X021502Y019662D02*
X021002Y019662D01*
X021252Y020062D01*
X019202Y020062D02*
X019152Y020012D01*
X019152Y018112D01*
X019202Y018062D01*
X019202Y017912D01*
X019200Y017895D01*
X019196Y017878D01*
X019189Y017862D01*
X019179Y017848D01*
X019166Y017835D01*
X019152Y017825D01*
X019136Y017818D01*
X019119Y017814D01*
X019102Y017812D01*
X018402Y017812D01*
X018385Y017814D01*
X018368Y017818D01*
X018352Y017825D01*
X018338Y017835D01*
X018325Y017848D01*
X018315Y017862D01*
X018308Y017878D01*
X018304Y017895D01*
X018302Y017912D01*
X018302Y018062D01*
X018352Y018112D01*
X018352Y020012D01*
X018302Y020062D01*
X018302Y020212D01*
X018304Y020229D01*
X018308Y020246D01*
X018315Y020262D01*
X018325Y020276D01*
X018338Y020289D01*
X018352Y020299D01*
X018368Y020306D01*
X018385Y020310D01*
X018402Y020312D01*
X019102Y020312D01*
X019119Y020310D01*
X019136Y020306D01*
X019152Y020299D01*
X019166Y020289D01*
X019179Y020276D01*
X019189Y020262D01*
X019196Y020246D01*
X019200Y020229D01*
X019202Y020212D01*
X019202Y020062D01*
X018971Y016294D02*
X018821Y016294D01*
X018804Y016292D01*
X018787Y016288D01*
X018771Y016281D01*
X018757Y016271D01*
X018744Y016258D01*
X018734Y016244D01*
X018727Y016228D01*
X018723Y016211D01*
X018721Y016194D01*
X018971Y016294D02*
X019021Y016244D01*
X020921Y016244D01*
X020971Y016294D01*
X021121Y016294D01*
X021138Y016292D01*
X021155Y016288D01*
X021171Y016281D01*
X021185Y016271D01*
X021198Y016258D01*
X021208Y016244D01*
X021215Y016228D01*
X021219Y016211D01*
X021221Y016194D01*
X021221Y015494D02*
X021219Y015477D01*
X021215Y015460D01*
X021208Y015444D01*
X021198Y015430D01*
X021185Y015417D01*
X021171Y015407D01*
X021155Y015400D01*
X021138Y015396D01*
X021121Y015394D01*
X020971Y015394D01*
X020921Y015444D01*
X019021Y015444D01*
X018971Y015394D01*
X018821Y015394D01*
X018804Y015396D01*
X018787Y015400D01*
X018771Y015407D01*
X018757Y015417D01*
X018744Y015430D01*
X018734Y015444D01*
X018727Y015460D01*
X018723Y015477D01*
X018721Y015494D01*
X018183Y015262D02*
X016883Y015262D01*
X016857Y015260D01*
X016831Y015255D01*
X016806Y015247D01*
X016783Y015235D01*
X016761Y015221D01*
X016742Y015203D01*
X016724Y015184D01*
X016710Y015162D01*
X016698Y015139D01*
X016690Y015114D01*
X016685Y015088D01*
X016683Y015062D01*
X017033Y014812D02*
X017403Y014812D01*
X017653Y014812D02*
X018033Y014812D01*
X018383Y015062D02*
X018381Y015088D01*
X018376Y015114D01*
X018368Y015139D01*
X018356Y015162D01*
X018342Y015184D01*
X018324Y015203D01*
X018305Y015221D01*
X018283Y015235D01*
X018260Y015247D01*
X018235Y015255D01*
X018209Y015260D01*
X018183Y015262D01*
X018383Y014562D02*
X018381Y014536D01*
X018376Y014510D01*
X018368Y014485D01*
X018356Y014462D01*
X018342Y014440D01*
X018324Y014421D01*
X018305Y014403D01*
X018283Y014389D01*
X018260Y014377D01*
X018235Y014369D01*
X018209Y014364D01*
X018183Y014362D01*
X016883Y014362D01*
X016857Y014364D01*
X016831Y014369D01*
X016806Y014377D01*
X016783Y014389D01*
X016761Y014403D01*
X016742Y014421D01*
X016724Y014440D01*
X016710Y014462D01*
X016698Y014485D01*
X016690Y014510D01*
X016685Y014536D01*
X016683Y014562D01*
X023702Y017512D02*
X024002Y017512D01*
X023852Y017362D02*
X023852Y017662D01*
X024502Y018362D02*
X024502Y018462D01*
X024052Y018462D01*
X024052Y018712D01*
X024952Y018712D01*
X024952Y018462D01*
X024502Y018462D01*
X022752Y018812D02*
X022754Y018898D01*
X022760Y018984D01*
X022771Y019069D01*
X022786Y019153D01*
X022804Y019237D01*
X022827Y019320D01*
X022854Y019402D01*
X022885Y019482D01*
X022920Y019560D01*
X022959Y019637D01*
X023001Y019712D01*
X023047Y019784D01*
X023096Y019854D01*
X023149Y019922D01*
X023205Y019987D01*
X023265Y020049D01*
X023327Y020109D01*
X023392Y020165D01*
X023460Y020218D01*
X023530Y020267D01*
X023602Y020313D01*
X023677Y020355D01*
X023754Y020394D01*
X023832Y020429D01*
X023912Y020460D01*
X023994Y020487D01*
X024077Y020510D01*
X024161Y020528D01*
X024245Y020543D01*
X024330Y020554D01*
X024416Y020560D01*
X024502Y020562D01*
X024588Y020560D01*
X024674Y020554D01*
X024759Y020543D01*
X024843Y020528D01*
X024927Y020510D01*
X025010Y020487D01*
X025092Y020460D01*
X025172Y020429D01*
X025250Y020394D01*
X025327Y020355D01*
X025402Y020313D01*
X025474Y020267D01*
X025544Y020218D01*
X025612Y020165D01*
X025677Y020109D01*
X025739Y020049D01*
X025799Y019987D01*
X025855Y019922D01*
X025908Y019854D01*
X025957Y019784D01*
X026003Y019712D01*
X026045Y019637D01*
X026084Y019560D01*
X026119Y019482D01*
X026150Y019402D01*
X026177Y019320D01*
X026200Y019237D01*
X026218Y019153D01*
X026233Y019069D01*
X026244Y018984D01*
X026250Y018898D01*
X026252Y018812D01*
X026250Y018726D01*
X026244Y018640D01*
X026233Y018555D01*
X026218Y018471D01*
X026200Y018387D01*
X026177Y018304D01*
X026150Y018222D01*
X026119Y018142D01*
X026084Y018064D01*
X026045Y017987D01*
X026003Y017912D01*
X025957Y017840D01*
X025908Y017770D01*
X025855Y017702D01*
X025799Y017637D01*
X025739Y017575D01*
X025677Y017515D01*
X025612Y017459D01*
X025544Y017406D01*
X025474Y017357D01*
X025402Y017311D01*
X025327Y017269D01*
X025250Y017230D01*
X025172Y017195D01*
X025092Y017164D01*
X025010Y017137D01*
X024927Y017114D01*
X024843Y017096D01*
X024759Y017081D01*
X024674Y017070D01*
X024588Y017064D01*
X024502Y017062D01*
X024416Y017064D01*
X024330Y017070D01*
X024245Y017081D01*
X024161Y017096D01*
X024077Y017114D01*
X023994Y017137D01*
X023912Y017164D01*
X023832Y017195D01*
X023754Y017230D01*
X023677Y017269D01*
X023602Y017311D01*
X023530Y017357D01*
X023460Y017406D01*
X023392Y017459D01*
X023327Y017515D01*
X023265Y017575D01*
X023205Y017637D01*
X023149Y017702D01*
X023096Y017770D01*
X023047Y017840D01*
X023001Y017912D01*
X022959Y017987D01*
X022920Y018064D01*
X022885Y018142D01*
X022854Y018222D01*
X022827Y018304D01*
X022804Y018387D01*
X022786Y018471D01*
X022771Y018555D01*
X022760Y018640D01*
X022754Y018726D01*
X022752Y018812D01*
X024502Y019062D02*
X024502Y019262D01*
X015402Y001812D02*
X015404Y001832D01*
X015410Y001850D01*
X015419Y001868D01*
X015431Y001883D01*
X015446Y001895D01*
X015464Y001904D01*
X015482Y001910D01*
X015502Y001912D01*
X015522Y001910D01*
X015540Y001904D01*
X015558Y001895D01*
X015573Y001883D01*
X015585Y001868D01*
X015594Y001850D01*
X015600Y001832D01*
X015602Y001812D01*
X015600Y001792D01*
X015594Y001774D01*
X015585Y001756D01*
X015573Y001741D01*
X015558Y001729D01*
X015540Y001720D01*
X015522Y001714D01*
X015502Y001712D01*
X015482Y001714D01*
X015464Y001720D01*
X015446Y001729D01*
X015431Y001741D01*
X015419Y001756D01*
X015410Y001774D01*
X015404Y001792D01*
X015402Y001812D01*
X014802Y001812D02*
X014804Y001864D01*
X014810Y001916D01*
X014820Y001968D01*
X014833Y002018D01*
X014850Y002068D01*
X014871Y002116D01*
X014896Y002162D01*
X014924Y002206D01*
X014955Y002248D01*
X014989Y002288D01*
X015026Y002325D01*
X015066Y002359D01*
X015108Y002390D01*
X015152Y002418D01*
X015198Y002443D01*
X015246Y002464D01*
X015296Y002481D01*
X015346Y002494D01*
X015398Y002504D01*
X015450Y002510D01*
X015502Y002512D01*
X015554Y002510D01*
X015606Y002504D01*
X015658Y002494D01*
X015708Y002481D01*
X015758Y002464D01*
X015806Y002443D01*
X015852Y002418D01*
X015896Y002390D01*
X015938Y002359D01*
X015978Y002325D01*
X016015Y002288D01*
X016049Y002248D01*
X016080Y002206D01*
X016108Y002162D01*
X016133Y002116D01*
X016154Y002068D01*
X016171Y002018D01*
X016184Y001968D01*
X016194Y001916D01*
X016200Y001864D01*
X016202Y001812D01*
X016200Y001760D01*
X016194Y001708D01*
X016184Y001656D01*
X016171Y001606D01*
X016154Y001556D01*
X016133Y001508D01*
X016108Y001462D01*
X016080Y001418D01*
X016049Y001376D01*
X016015Y001336D01*
X015978Y001299D01*
X015938Y001265D01*
X015896Y001234D01*
X015852Y001206D01*
X015806Y001181D01*
X015758Y001160D01*
X015708Y001143D01*
X015658Y001130D01*
X015606Y001120D01*
X015554Y001114D01*
X015502Y001112D01*
X015450Y001114D01*
X015398Y001120D01*
X015346Y001130D01*
X015296Y001143D01*
X015246Y001160D01*
X015198Y001181D01*
X015152Y001206D01*
X015108Y001234D01*
X015066Y001265D01*
X015026Y001299D01*
X014989Y001336D01*
X014955Y001376D01*
X014924Y001418D01*
X014896Y001462D01*
X014871Y001508D01*
X014850Y001556D01*
X014833Y001606D01*
X014820Y001656D01*
X014810Y001708D01*
X014804Y001760D01*
X014802Y001812D01*
D13*
X010733Y009625D02*
X008333Y009625D01*
X008271Y009627D01*
X008210Y009633D01*
X008149Y009642D01*
X008089Y009655D01*
X008030Y009672D01*
X007972Y009693D01*
X007915Y009717D01*
X007860Y009744D01*
X007807Y009775D01*
X007755Y009809D01*
X007706Y009846D01*
X007659Y009886D01*
X007615Y009929D01*
X007574Y009974D01*
X007535Y010022D01*
X007499Y010073D01*
X007467Y010125D01*
X007438Y010179D01*
X007412Y010235D01*
X007390Y010293D01*
X007371Y010351D01*
X007356Y010411D01*
X007345Y010472D01*
X007337Y010533D01*
X007333Y010594D01*
X007333Y010656D01*
X007337Y010717D01*
X007345Y010778D01*
X007356Y010839D01*
X007371Y010899D01*
X007390Y010957D01*
X007412Y011015D01*
X007438Y011071D01*
X007467Y011125D01*
X007499Y011177D01*
X007535Y011228D01*
X007574Y011276D01*
X007615Y011321D01*
X007659Y011364D01*
X007706Y011404D01*
X007755Y011441D01*
X007807Y011475D01*
X007860Y011506D01*
X007915Y011533D01*
X007972Y011557D01*
X008030Y011578D01*
X008089Y011595D01*
X008149Y011608D01*
X008210Y011617D01*
X008271Y011623D01*
X008333Y011625D01*
X010733Y011625D01*
X010795Y011623D01*
X010856Y011617D01*
X010917Y011608D01*
X010977Y011595D01*
X011036Y011578D01*
X011094Y011557D01*
X011151Y011533D01*
X011206Y011506D01*
X011259Y011475D01*
X011311Y011441D01*
X011360Y011404D01*
X011407Y011364D01*
X011451Y011321D01*
X011492Y011276D01*
X011531Y011228D01*
X011567Y011177D01*
X011599Y011125D01*
X011628Y011071D01*
X011654Y011015D01*
X011676Y010957D01*
X011695Y010899D01*
X011710Y010839D01*
X011721Y010778D01*
X011729Y010717D01*
X011733Y010656D01*
X011733Y010594D01*
X011729Y010533D01*
X011721Y010472D01*
X011710Y010411D01*
X011695Y010351D01*
X011676Y010293D01*
X011654Y010235D01*
X011628Y010179D01*
X011599Y010125D01*
X011567Y010073D01*
X011531Y010022D01*
X011492Y009974D01*
X011451Y009929D01*
X011407Y009886D01*
X011360Y009846D01*
X011311Y009809D01*
X011259Y009775D01*
X011206Y009744D01*
X011151Y009717D01*
X011094Y009693D01*
X011036Y009672D01*
X010977Y009655D01*
X010917Y009642D01*
X010856Y009633D01*
X010795Y009627D01*
X010733Y009625D01*
X005064Y006937D02*
X002502Y006000D01*
D14*
X002304Y006225D02*
X002004Y006225D01*
X002154Y006225D02*
X002154Y005775D01*
X001844Y005850D02*
X001844Y006150D01*
X001769Y006225D01*
X001619Y006225D01*
X001544Y006150D01*
X001544Y005850D01*
X001619Y005775D01*
X001769Y005775D01*
X001844Y005850D01*
X001384Y005850D02*
X001308Y005775D01*
X001083Y005775D01*
X001083Y006225D01*
X001308Y006225D01*
X001384Y006150D01*
X001384Y006075D01*
X001308Y006000D01*
X001083Y006000D01*
X000923Y006000D02*
X000848Y005925D01*
X000848Y006075D01*
X000698Y006075D01*
X000698Y005925D01*
X000848Y005925D01*
X000923Y005850D02*
X000848Y005775D01*
X000698Y005775D01*
X000623Y005850D01*
X000623Y006150D01*
X000698Y006225D01*
X000848Y006225D01*
X000923Y006150D01*
X000923Y006000D01*
X001308Y006000D02*
X001384Y005925D01*
X001384Y005850D01*
X002764Y005513D02*
X002764Y005062D01*
X002764Y005213D02*
X002990Y005213D01*
X003065Y005288D01*
X003065Y005438D01*
X002990Y005513D01*
X002764Y005513D01*
X003225Y005363D02*
X003375Y005513D01*
X003375Y005062D01*
X003225Y005062D02*
X003525Y005062D01*
X003685Y005062D02*
X003985Y005363D01*
X003985Y005438D01*
X003910Y005513D01*
X003760Y005513D01*
X003685Y005438D01*
X003685Y005062D02*
X003985Y005062D01*
X003910Y004513D02*
X003760Y004513D01*
X003685Y004438D01*
X003685Y004363D01*
X003760Y004288D01*
X003910Y004288D01*
X003985Y004213D01*
X003985Y004137D01*
X003910Y004062D01*
X003760Y004062D01*
X003685Y004137D01*
X003685Y004213D01*
X003760Y004288D01*
X003910Y004288D02*
X003985Y004363D01*
X003985Y004438D01*
X003910Y004513D01*
X003375Y004513D02*
X003375Y004062D01*
X003225Y004062D02*
X003525Y004062D01*
X003225Y004363D02*
X003375Y004513D01*
X003065Y004438D02*
X003065Y004288D01*
X002990Y004213D01*
X002764Y004213D01*
X002915Y004213D02*
X003065Y004062D01*
X002764Y004062D02*
X002764Y004513D01*
X002990Y004513D01*
X003065Y004438D01*
X003065Y005062D02*
X002915Y005213D01*
X005925Y005225D02*
X006000Y005150D01*
X006150Y005150D01*
X006225Y005225D01*
X006225Y005300D01*
X006150Y005375D01*
X006075Y005375D01*
X006150Y005375D02*
X006225Y005450D01*
X006225Y005525D01*
X006150Y005600D01*
X006000Y005600D01*
X005925Y005525D01*
X006385Y005600D02*
X006385Y005150D01*
X006385Y005300D02*
X006611Y005450D01*
X006769Y005525D02*
X006844Y005600D01*
X006994Y005600D01*
X007069Y005525D01*
X007069Y005450D01*
X006994Y005375D01*
X007069Y005300D01*
X007069Y005225D01*
X006994Y005150D01*
X006844Y005150D01*
X006769Y005225D01*
X006611Y005150D02*
X006385Y005300D01*
X006919Y005375D02*
X006994Y005375D01*
X006994Y004538D02*
X007069Y004463D01*
X007069Y004388D01*
X006994Y004313D01*
X007069Y004238D01*
X007069Y004162D01*
X006994Y004087D01*
X006844Y004087D01*
X006769Y004162D01*
X006611Y004087D02*
X006385Y004238D01*
X006611Y004388D01*
X006769Y004463D02*
X006844Y004538D01*
X006994Y004538D01*
X006994Y004313D02*
X006919Y004313D01*
X006385Y004087D02*
X006385Y004538D01*
X006225Y004463D02*
X006225Y004388D01*
X006150Y004313D01*
X006225Y004238D01*
X006225Y004162D01*
X006150Y004087D01*
X006000Y004087D01*
X005925Y004162D01*
X006075Y004313D02*
X006150Y004313D01*
X006225Y004463D02*
X006150Y004538D01*
X006000Y004538D01*
X005925Y004463D01*
X009277Y003470D02*
X009727Y003470D01*
X009577Y003470D02*
X009427Y003695D01*
X009577Y003470D02*
X009727Y003695D01*
X010083Y003800D02*
X010083Y003575D01*
X010533Y003575D01*
X010383Y003575D02*
X010383Y003800D01*
X010308Y003875D01*
X010158Y003875D01*
X010083Y003800D01*
X010233Y004035D02*
X010083Y004185D01*
X010533Y004185D01*
X010533Y004035D02*
X010533Y004336D01*
X010533Y004496D02*
X010533Y004796D01*
X010533Y004646D02*
X010083Y004646D01*
X010233Y004496D01*
X010533Y003875D02*
X010383Y003725D01*
X010496Y003206D02*
X010496Y002906D01*
X010496Y003056D02*
X010646Y003206D01*
X010721Y003206D01*
X010879Y003131D02*
X010879Y002981D01*
X010954Y002906D01*
X011104Y002906D01*
X011180Y002981D01*
X011180Y003131D01*
X011104Y003206D01*
X010954Y003206D01*
X010879Y003131D01*
X011340Y003206D02*
X011490Y003206D01*
X011415Y003281D02*
X011415Y002981D01*
X011490Y002906D01*
X011545Y002763D02*
X011996Y002763D01*
X011996Y002913D02*
X011996Y002612D01*
X011695Y002612D02*
X011545Y002763D01*
X011695Y003073D02*
X011695Y003298D01*
X011771Y003373D01*
X011996Y003373D01*
X011996Y003608D02*
X011620Y003608D01*
X011545Y003683D01*
X011771Y003683D02*
X011771Y003533D01*
X011695Y003073D02*
X011996Y003073D01*
X013077Y002100D02*
X013077Y002025D01*
X013152Y001950D01*
X013302Y001950D01*
X013377Y001875D01*
X013377Y001800D01*
X013302Y001725D01*
X013152Y001725D01*
X013077Y001800D01*
X013077Y002100D02*
X013152Y002175D01*
X013302Y002175D01*
X013377Y002100D01*
X013537Y002025D02*
X013687Y002175D01*
X013687Y001725D01*
X013537Y001725D02*
X013838Y001725D01*
X013183Y001125D02*
X013033Y000975D01*
X012873Y001050D02*
X012798Y001125D01*
X012573Y001125D01*
X012573Y000675D01*
X012798Y000675D01*
X012873Y000750D01*
X012873Y001050D01*
X013183Y001125D02*
X013183Y000675D01*
X013033Y000675D02*
X013333Y000675D01*
X012413Y000675D02*
X012112Y000675D01*
X012112Y001125D01*
X012413Y001125D01*
X012262Y000900D02*
X012112Y000900D01*
X011952Y000675D02*
X011652Y000675D01*
X011652Y001125D01*
X009727Y003010D02*
X009727Y003310D01*
X009727Y003160D02*
X009277Y003160D01*
X009427Y003010D01*
X011477Y004469D02*
X011552Y004394D01*
X011852Y004394D01*
X011927Y004469D01*
X011927Y004619D01*
X011852Y004694D01*
X011927Y004854D02*
X011927Y005154D01*
X011927Y005004D02*
X011477Y005004D01*
X011627Y004854D01*
X011552Y004694D02*
X011477Y004619D01*
X011477Y004469D01*
X011552Y005314D02*
X011477Y005389D01*
X011477Y005540D01*
X011552Y005615D01*
X011627Y005615D01*
X011927Y005314D01*
X011927Y005615D01*
X013027Y004948D02*
X013477Y004948D01*
X013477Y004798D02*
X013477Y005098D01*
X013177Y004798D02*
X013027Y004948D01*
X013102Y004638D02*
X013402Y004638D01*
X013477Y004563D01*
X013477Y004413D01*
X013402Y004337D01*
X013102Y004337D01*
X013027Y004413D01*
X013027Y004563D01*
X013102Y004638D01*
X013327Y004488D02*
X013477Y004638D01*
X017233Y003919D02*
X017233Y003469D01*
X017233Y003619D02*
X017458Y003619D01*
X017534Y003694D01*
X017534Y003844D01*
X017458Y003919D01*
X017233Y003919D01*
X017383Y003619D02*
X017534Y003469D01*
X017694Y003469D02*
X017994Y003469D01*
X017844Y003469D02*
X017844Y003919D01*
X017694Y003769D01*
X018154Y003919D02*
X018454Y003919D01*
X018454Y003844D01*
X018154Y003544D01*
X018154Y003469D01*
X018104Y004337D02*
X017954Y004337D01*
X017879Y004412D01*
X018179Y004713D01*
X018179Y004412D01*
X018104Y004337D01*
X018339Y004337D02*
X018339Y004788D01*
X018179Y004713D02*
X018104Y004788D01*
X017954Y004788D01*
X017879Y004713D01*
X017879Y004412D01*
X017719Y004337D02*
X017418Y004337D01*
X017568Y004337D02*
X017568Y004788D01*
X017418Y004638D01*
X018339Y004488D02*
X018564Y004638D01*
X018339Y004488D02*
X018564Y004337D01*
X019614Y003448D02*
X019689Y003523D01*
X019764Y003523D01*
X019839Y003448D01*
X019839Y003298D01*
X019764Y003223D01*
X019689Y003223D01*
X019614Y003298D01*
X019614Y003448D01*
X019839Y003448D02*
X019914Y003523D01*
X019989Y003523D01*
X020064Y003448D01*
X020064Y003298D01*
X019989Y003223D01*
X019914Y003223D01*
X019839Y003298D01*
X019839Y003063D02*
X019914Y002988D01*
X019914Y002762D01*
X020064Y002762D02*
X019614Y002762D01*
X019614Y002988D01*
X019689Y003063D01*
X019839Y003063D01*
X019914Y002912D02*
X020064Y003063D01*
X020433Y003064D02*
X020433Y003364D01*
X020508Y003364D01*
X020808Y003064D01*
X020883Y003064D01*
X020883Y002829D02*
X020433Y002829D01*
X020658Y002604D01*
X020658Y002904D01*
X020733Y003524D02*
X020583Y003749D01*
X020433Y003524D02*
X020883Y003524D01*
X020733Y003524D02*
X020883Y003749D01*
X021964Y003524D02*
X022414Y003524D01*
X022264Y003524D02*
X022414Y003750D01*
X022264Y003524D02*
X022114Y003750D01*
X022114Y003364D02*
X022039Y003364D01*
X021964Y003289D01*
X021964Y003139D01*
X022039Y003064D01*
X022039Y002904D02*
X022114Y002904D01*
X022189Y002829D01*
X022189Y002679D01*
X022114Y002604D01*
X022039Y002604D01*
X021964Y002679D01*
X021964Y002829D01*
X022039Y002904D01*
X022189Y002829D02*
X022264Y002904D01*
X022339Y002904D01*
X022414Y002829D01*
X022414Y002679D01*
X022339Y002604D01*
X022264Y002604D01*
X022189Y002679D01*
X022414Y003064D02*
X022114Y003364D01*
X022414Y003364D02*
X022414Y003064D01*
X023339Y003139D02*
X023414Y003064D01*
X023714Y003064D01*
X023414Y003364D01*
X023714Y003364D01*
X023789Y003289D01*
X023789Y003139D01*
X023714Y003064D01*
X023789Y002904D02*
X023789Y002604D01*
X023789Y002754D02*
X023339Y002754D01*
X023489Y002604D01*
X024177Y002575D02*
X024177Y002800D01*
X024252Y002875D01*
X024402Y002875D01*
X024477Y002800D01*
X024477Y002575D01*
X024627Y002575D02*
X024177Y002575D01*
X024477Y002725D02*
X024627Y002875D01*
X024627Y003035D02*
X024627Y003336D01*
X024627Y003185D02*
X024177Y003185D01*
X024327Y003035D01*
X024252Y003496D02*
X024177Y003571D01*
X024177Y003721D01*
X024252Y003796D01*
X024327Y003796D01*
X024402Y003721D01*
X024477Y003796D01*
X024552Y003796D01*
X024627Y003721D01*
X024627Y003571D01*
X024552Y003496D01*
X024402Y003646D02*
X024402Y003721D01*
X023789Y003750D02*
X023639Y003525D01*
X023489Y003750D01*
X023339Y003525D02*
X023789Y003525D01*
X023414Y003364D02*
X023339Y003289D01*
X023339Y003139D01*
X022502Y005075D02*
X022052Y005075D01*
X022052Y005300D01*
X022127Y005375D01*
X022277Y005375D01*
X022352Y005300D01*
X022352Y005075D01*
X022352Y005225D02*
X022502Y005375D01*
X022502Y005535D02*
X022427Y005535D01*
X022127Y005836D01*
X022052Y005836D01*
X022052Y005535D01*
X020739Y005500D02*
X020664Y005425D01*
X020364Y005425D01*
X020289Y005500D01*
X020289Y005650D01*
X020364Y005725D01*
X020364Y005885D02*
X020439Y005885D01*
X020514Y005960D01*
X020514Y006185D01*
X020664Y006185D02*
X020364Y006185D01*
X020289Y006110D01*
X020289Y005960D01*
X020364Y005885D01*
X020664Y005885D02*
X020739Y005960D01*
X020739Y006110D01*
X020664Y006185D01*
X020664Y005725D02*
X020739Y005650D01*
X020739Y005500D01*
X021721Y007456D02*
X021721Y007907D01*
X021946Y007907D01*
X022021Y007832D01*
X022021Y007681D01*
X021946Y007606D01*
X021721Y007606D01*
X021871Y007606D02*
X022021Y007456D01*
X022181Y007456D02*
X022481Y007456D01*
X022331Y007456D02*
X022331Y007907D01*
X022181Y007756D01*
X022642Y007681D02*
X022642Y007531D01*
X022717Y007456D01*
X022867Y007456D01*
X022942Y007531D01*
X022942Y007606D01*
X022867Y007681D01*
X022642Y007681D01*
X022792Y007832D01*
X022942Y007907D01*
X022990Y008244D02*
X022990Y008694D01*
X022840Y008544D01*
X022840Y008244D02*
X023140Y008244D01*
X023300Y008319D02*
X023600Y008619D01*
X023600Y008319D01*
X023525Y008244D01*
X023375Y008244D01*
X023300Y008319D01*
X023300Y008619D01*
X023375Y008694D01*
X023525Y008694D01*
X023600Y008619D01*
X023760Y008619D02*
X023835Y008694D01*
X023986Y008694D01*
X024061Y008619D01*
X023760Y008319D01*
X023835Y008244D01*
X023986Y008244D01*
X024061Y008319D01*
X024061Y008619D01*
X024221Y008694D02*
X024221Y008244D01*
X024221Y008394D02*
X024446Y008544D01*
X024221Y008394D02*
X024446Y008244D01*
X023760Y008319D02*
X023760Y008619D01*
X022673Y009787D02*
X022523Y009787D01*
X022448Y009863D01*
X022748Y010163D01*
X022748Y009863D01*
X022673Y009787D01*
X022448Y009863D02*
X022448Y010163D01*
X022523Y010238D01*
X022673Y010238D01*
X022748Y010163D01*
X022288Y009787D02*
X021987Y009787D01*
X022138Y009787D02*
X022138Y010238D01*
X021987Y010088D01*
X021827Y010163D02*
X021752Y010238D01*
X021602Y010238D01*
X021527Y010163D01*
X021527Y009863D01*
X021602Y009787D01*
X021752Y009787D01*
X021827Y009863D01*
X021481Y010687D02*
X021556Y010762D01*
X021556Y011063D01*
X021481Y011138D01*
X021331Y011138D01*
X021256Y011063D01*
X021256Y010988D01*
X021331Y010913D01*
X021556Y010913D01*
X021481Y010687D02*
X021331Y010687D01*
X021256Y010762D01*
X021096Y010687D02*
X020946Y010838D01*
X021021Y010838D02*
X020796Y010838D01*
X020796Y010687D02*
X020796Y011138D01*
X021021Y011138D01*
X021096Y011063D01*
X021096Y010913D01*
X021021Y010838D01*
X020981Y011556D02*
X021281Y011556D01*
X021131Y011556D02*
X021131Y012006D01*
X020981Y011856D01*
X021441Y011706D02*
X021666Y011856D01*
X021441Y011706D02*
X021666Y011556D01*
X021441Y011556D02*
X021441Y012006D01*
X021504Y012556D02*
X021504Y013006D01*
X021729Y012856D02*
X021504Y012706D01*
X021729Y012556D01*
X021344Y012556D02*
X021043Y012556D01*
X021193Y012556D02*
X021193Y013006D01*
X021043Y012856D01*
X020968Y013556D02*
X020668Y013556D01*
X020968Y013856D01*
X020968Y013931D01*
X020893Y014006D01*
X020743Y014006D01*
X020668Y013931D01*
X021129Y014006D02*
X021129Y013556D01*
X021129Y013706D02*
X021354Y013856D01*
X021512Y013931D02*
X021587Y014006D01*
X021737Y014006D01*
X021812Y013931D01*
X021812Y013856D01*
X021512Y013556D01*
X021812Y013556D01*
X021354Y013556D02*
X021129Y013706D01*
X021097Y014525D02*
X021097Y014975D01*
X021322Y014825D02*
X021097Y014675D01*
X021322Y014525D01*
X021481Y014600D02*
X021556Y014525D01*
X021706Y014525D01*
X021781Y014600D01*
X021781Y014750D01*
X021706Y014825D01*
X021631Y014825D01*
X021481Y014750D01*
X021481Y014975D01*
X021781Y014975D01*
X020937Y014525D02*
X020637Y014525D01*
X020787Y014525D02*
X020787Y014975D01*
X020637Y014825D01*
X020400Y015587D02*
X020475Y015663D01*
X020475Y015738D01*
X020400Y015813D01*
X020175Y015813D01*
X020175Y015663D01*
X020250Y015587D01*
X020400Y015587D01*
X020175Y015813D02*
X020325Y015963D01*
X020475Y016038D01*
X020017Y015888D02*
X019792Y015738D01*
X020017Y015587D01*
X019792Y015587D02*
X019792Y016038D01*
X019631Y016038D02*
X019331Y016038D01*
X019331Y015813D01*
X019481Y015888D01*
X019556Y015888D01*
X019631Y015813D01*
X019631Y015663D01*
X019556Y015587D01*
X019406Y015587D01*
X019331Y015663D01*
X019362Y014575D02*
X019513Y014575D01*
X019588Y014500D01*
X019588Y014425D01*
X019513Y014350D01*
X019588Y014275D01*
X019588Y014200D01*
X019513Y014125D01*
X019362Y014125D01*
X019287Y014200D01*
X019127Y014125D02*
X018977Y014275D01*
X019052Y014275D02*
X018827Y014275D01*
X018827Y014125D02*
X018827Y014575D01*
X019052Y014575D01*
X019127Y014500D01*
X019127Y014350D01*
X019052Y014275D01*
X019287Y014500D02*
X019362Y014575D01*
X019437Y014350D02*
X019513Y014350D01*
X018313Y014200D02*
X018313Y014125D01*
X018238Y014050D01*
X018313Y013975D01*
X018313Y013900D01*
X018238Y013825D01*
X018087Y013825D01*
X018012Y013900D01*
X017852Y013900D02*
X017777Y013825D01*
X017627Y013825D01*
X017552Y013900D01*
X017552Y014200D01*
X017627Y014275D01*
X017777Y014275D01*
X017852Y014200D01*
X018012Y014200D02*
X018087Y014275D01*
X018238Y014275D01*
X018313Y014200D01*
X018238Y014050D02*
X018162Y014050D01*
X017646Y013590D02*
X017421Y013590D01*
X017346Y013515D01*
X017346Y013289D01*
X017646Y013289D01*
X017571Y013129D02*
X017270Y013129D01*
X017571Y012829D01*
X017646Y012904D01*
X017646Y013054D01*
X017571Y013129D01*
X017571Y012829D02*
X017270Y012829D01*
X017195Y012904D01*
X017195Y013054D01*
X017270Y013129D01*
X016933Y012992D02*
X016933Y012842D01*
X016858Y012767D01*
X016558Y012767D01*
X016483Y012842D01*
X016483Y012992D01*
X016558Y013067D01*
X016708Y013227D02*
X016708Y013527D01*
X016483Y013452D02*
X016708Y013227D01*
X016858Y013067D02*
X016933Y012992D01*
X017270Y012669D02*
X017571Y012369D01*
X017646Y012444D01*
X017646Y012594D01*
X017571Y012669D01*
X017270Y012669D01*
X017195Y012594D01*
X017195Y012444D01*
X017270Y012369D01*
X017571Y012369D01*
X017646Y012209D02*
X017646Y011908D01*
X017646Y012059D02*
X017195Y012059D01*
X017346Y011908D01*
X016933Y013452D02*
X016483Y013452D01*
X014733Y013502D02*
X014733Y013352D01*
X014658Y013277D01*
X014658Y013117D02*
X014733Y013042D01*
X014733Y012891D01*
X014658Y012816D01*
X014358Y012816D01*
X014283Y012891D01*
X014283Y013042D01*
X014358Y013117D01*
X014358Y013277D02*
X014433Y013277D01*
X014508Y013352D01*
X014508Y013577D01*
X014658Y013577D02*
X014358Y013577D01*
X014283Y013502D01*
X014283Y013352D01*
X014358Y013277D01*
X014658Y013577D02*
X014733Y013502D01*
X014733Y013737D02*
X014433Y014037D01*
X014358Y014037D01*
X014283Y013962D01*
X014283Y013812D01*
X014358Y013737D01*
X014733Y013737D02*
X014733Y014037D01*
X014733Y014197D02*
X014433Y014498D01*
X014358Y014498D01*
X014283Y014423D01*
X014283Y014272D01*
X014358Y014197D01*
X014733Y014197D02*
X014733Y014498D01*
X014733Y014658D02*
X014283Y014658D01*
X014283Y014958D01*
X014283Y015118D02*
X014733Y015418D01*
X014283Y015418D01*
X014283Y015118D02*
X014733Y015118D01*
X014508Y014808D02*
X014508Y014658D01*
X016285Y015450D02*
X016586Y015450D01*
X016436Y015450D02*
X016436Y015900D01*
X016285Y015750D01*
X016746Y015825D02*
X016746Y015525D01*
X017046Y015825D01*
X017046Y015525D01*
X016971Y015450D01*
X016821Y015450D01*
X016746Y015525D01*
X016746Y015825D02*
X016821Y015900D01*
X016971Y015900D01*
X017046Y015825D01*
X017206Y015825D02*
X017206Y015525D01*
X017506Y015825D01*
X017506Y015525D01*
X017431Y015450D01*
X017281Y015450D01*
X017206Y015525D01*
X017206Y015825D02*
X017281Y015900D01*
X017431Y015900D01*
X017506Y015825D01*
X017667Y015750D02*
X017892Y015750D01*
X017967Y015675D01*
X017967Y015450D01*
X017667Y015450D02*
X017667Y015750D01*
X016338Y016562D02*
X016037Y016562D01*
X016187Y016562D02*
X016187Y017013D01*
X016037Y016863D01*
X015877Y016938D02*
X015877Y016788D01*
X015802Y016713D01*
X015577Y016713D01*
X015727Y016713D02*
X015877Y016562D01*
X015577Y016562D02*
X015577Y017013D01*
X015802Y017013D01*
X015877Y016938D01*
X015031Y017337D02*
X014731Y017337D01*
X015031Y017638D01*
X015031Y017713D01*
X014956Y017788D01*
X014806Y017788D01*
X014731Y017713D01*
X014572Y017638D02*
X014347Y017488D01*
X014572Y017337D01*
X014347Y017337D02*
X014347Y017788D01*
X014037Y017788D02*
X014037Y017337D01*
X013887Y017337D02*
X014187Y017337D01*
X013887Y017638D02*
X014037Y017788D01*
X012114Y018515D02*
X011664Y018515D01*
X011889Y018290D01*
X011889Y018590D01*
X012039Y018750D02*
X012114Y018750D01*
X012039Y018750D02*
X011739Y019050D01*
X011664Y019050D01*
X011664Y018750D01*
X011739Y019210D02*
X011664Y019285D01*
X011664Y019436D01*
X011739Y019511D01*
X012039Y019210D01*
X012114Y019285D01*
X012114Y019436D01*
X012039Y019511D01*
X011739Y019511D01*
X011814Y019671D02*
X011814Y019896D01*
X011889Y019971D01*
X012039Y019971D01*
X012114Y019896D01*
X012114Y019671D01*
X012265Y019671D02*
X011814Y019671D01*
X011739Y019210D02*
X012039Y019210D01*
X012364Y020200D02*
X012289Y020275D01*
X012289Y020425D01*
X012364Y020500D01*
X012289Y020660D02*
X012514Y020660D01*
X012439Y020810D01*
X012439Y020885D01*
X012514Y020961D01*
X012664Y020961D01*
X012739Y020885D01*
X012739Y020735D01*
X012664Y020660D01*
X012664Y020500D02*
X012739Y020425D01*
X012739Y020275D01*
X012664Y020200D01*
X012364Y020200D01*
X012289Y020660D02*
X012289Y020961D01*
X014286Y022662D02*
X014361Y022587D01*
X014511Y022587D01*
X014586Y022662D01*
X014586Y022738D01*
X014511Y022813D01*
X014436Y022813D01*
X014511Y022813D02*
X014586Y022888D01*
X014586Y022963D01*
X014511Y023038D01*
X014361Y023038D01*
X014286Y022963D01*
X014746Y023038D02*
X014971Y023038D01*
X015046Y022963D01*
X015046Y022813D01*
X014971Y022738D01*
X014746Y022738D01*
X014896Y022738D02*
X015046Y022587D01*
X015207Y022662D02*
X015282Y022587D01*
X015432Y022587D01*
X015507Y022662D01*
X015507Y022738D01*
X015432Y022813D01*
X015357Y022813D01*
X015432Y022813D02*
X015507Y022888D01*
X015507Y022963D01*
X015432Y023038D01*
X015282Y023038D01*
X015207Y022963D01*
X014746Y023038D02*
X014746Y022587D01*
X017471Y022800D02*
X017471Y023250D01*
X017696Y023250D01*
X017771Y023175D01*
X017771Y023025D01*
X017696Y022950D01*
X017471Y022950D01*
X017621Y022950D02*
X017771Y022800D01*
X017931Y022800D02*
X018231Y022800D01*
X018081Y022800D02*
X018081Y023250D01*
X017931Y023100D01*
X018392Y023100D02*
X018467Y023025D01*
X018692Y023025D01*
X018692Y022875D02*
X018692Y023175D01*
X018617Y023250D01*
X018467Y023250D01*
X018392Y023175D01*
X018392Y023100D01*
X018392Y022875D02*
X018467Y022800D01*
X018617Y022800D01*
X018692Y022875D01*
X017889Y022015D02*
X017889Y021715D01*
X017589Y022015D01*
X017514Y022015D01*
X017439Y021940D01*
X017439Y021790D01*
X017514Y021715D01*
X017514Y021554D02*
X017439Y021479D01*
X017439Y021329D01*
X017514Y021254D01*
X017814Y021254D01*
X017889Y021329D01*
X017889Y021479D01*
X017814Y021554D01*
X017889Y021097D02*
X017889Y020947D01*
X017889Y021022D02*
X017439Y021022D01*
X017439Y020947D02*
X017439Y021097D01*
X018527Y019692D02*
X018602Y019542D01*
X018752Y019392D01*
X018752Y019617D01*
X018827Y019692D01*
X018902Y019692D01*
X018977Y019617D01*
X018977Y019467D01*
X018902Y019392D01*
X018752Y019392D01*
X018677Y019234D02*
X018827Y019008D01*
X018977Y019234D01*
X018977Y019008D02*
X018527Y019008D01*
X018602Y018848D02*
X018527Y018773D01*
X018527Y018623D01*
X018602Y018548D01*
X018752Y018698D02*
X018752Y018773D01*
X018827Y018848D01*
X018902Y018848D01*
X018977Y018773D01*
X018977Y018623D01*
X018902Y018548D01*
X018752Y018773D02*
X018677Y018848D01*
X018602Y018848D01*
X018171Y018965D02*
X018171Y019115D01*
X018096Y019190D01*
X017795Y019190D01*
X018096Y018890D01*
X018171Y018965D01*
X018096Y018890D02*
X017795Y018890D01*
X017720Y018965D01*
X017720Y019115D01*
X017795Y019190D01*
X017795Y018729D02*
X017720Y018654D01*
X017720Y018504D01*
X017795Y018429D01*
X017795Y018269D02*
X017720Y018194D01*
X017720Y017969D01*
X018171Y017969D01*
X018021Y017969D02*
X018021Y018194D01*
X017946Y018269D01*
X017795Y018269D01*
X018021Y018119D02*
X018171Y018269D01*
X018171Y018429D02*
X017870Y018729D01*
X017795Y018729D01*
X018171Y018729D02*
X018171Y018429D01*
X020939Y017442D02*
X020939Y017292D01*
X021014Y017216D01*
X021014Y017056D02*
X020939Y016981D01*
X020939Y016756D01*
X021389Y016756D01*
X021389Y016981D01*
X021314Y017056D01*
X021014Y017056D01*
X020939Y017442D02*
X021014Y017517D01*
X021089Y017517D01*
X021389Y017216D01*
X021389Y017517D01*
X022745Y017642D02*
X022971Y017417D01*
X022971Y017717D01*
X023196Y017642D02*
X022745Y017642D01*
X022820Y017256D02*
X022745Y017181D01*
X022745Y016956D01*
X023196Y016956D01*
X023196Y017181D01*
X023121Y017256D01*
X022820Y017256D01*
X022912Y015944D02*
X022912Y015494D01*
X022762Y015494D02*
X023062Y015494D01*
X023222Y015569D02*
X023522Y015869D01*
X023522Y015569D01*
X023447Y015494D01*
X023297Y015494D01*
X023222Y015569D01*
X023222Y015869D01*
X023297Y015944D01*
X023447Y015944D01*
X023522Y015869D01*
X023683Y015869D02*
X023758Y015944D01*
X023908Y015944D01*
X023983Y015869D01*
X023683Y015569D01*
X023758Y015494D01*
X023908Y015494D01*
X023983Y015569D01*
X023983Y015869D01*
X024143Y015944D02*
X024143Y015494D01*
X024143Y015644D02*
X024368Y015794D01*
X024143Y015644D02*
X024368Y015494D01*
X023683Y015569D02*
X023683Y015869D01*
X022912Y015944D02*
X022762Y015794D01*
X023332Y014150D02*
X023490Y014150D01*
X024264Y014150D02*
X024490Y014150D01*
X025202Y013600D02*
X025239Y013651D01*
X025274Y013704D01*
X025306Y013760D01*
X025334Y013817D01*
X025358Y013876D01*
X025379Y013936D01*
X025396Y013997D01*
X025410Y014059D01*
X025419Y014122D01*
X025425Y014185D01*
X025427Y014249D01*
X025425Y014313D01*
X025419Y014376D01*
X025410Y014439D01*
X025397Y014501D01*
X025379Y014562D01*
X025359Y014622D01*
X025334Y014681D01*
X025307Y014738D01*
X025275Y014794D01*
X025241Y014847D01*
X025203Y014898D01*
X025162Y014947D01*
X025118Y014993D01*
X025072Y015037D01*
X025023Y015078D01*
X024972Y015115D01*
X024918Y015150D01*
X024863Y015181D01*
X024806Y015209D01*
X024747Y015233D01*
X024687Y015253D01*
X024067Y015253D02*
X024008Y015233D01*
X023951Y015210D01*
X023894Y015183D01*
X023840Y015152D01*
X023787Y015119D01*
X023737Y015082D01*
X023688Y015043D01*
X023643Y015000D01*
X023599Y014955D01*
X023559Y014908D01*
X023521Y014858D01*
X023486Y014806D01*
X023455Y014752D01*
X023427Y014697D01*
X023402Y014640D01*
X023381Y014581D01*
X023363Y014521D01*
X023348Y014460D01*
X023338Y014399D01*
X023331Y014337D01*
X023327Y014275D01*
X023328Y014212D01*
X023332Y014150D01*
X023552Y013600D02*
X025202Y013600D01*
X025264Y014150D02*
X025422Y014150D01*
X026095Y013752D02*
X026095Y013452D01*
X026321Y013452D01*
X026245Y013602D01*
X026245Y013677D01*
X026321Y013752D01*
X026471Y013752D01*
X026546Y013677D01*
X026546Y013527D01*
X026471Y013452D01*
X026546Y013292D02*
X026546Y012992D01*
X026546Y013142D02*
X026095Y013142D01*
X026245Y012992D01*
X026170Y012832D02*
X026321Y012832D01*
X026396Y012757D01*
X026396Y012531D01*
X026546Y012531D02*
X026095Y012531D01*
X026095Y012757D01*
X026170Y012832D01*
X026396Y012681D02*
X026546Y012832D01*
X025350Y012524D02*
X025170Y012344D01*
X025215Y012299D01*
X025305Y012299D01*
X025350Y012344D01*
X025350Y012524D01*
X025305Y012569D01*
X025215Y012569D01*
X025170Y012524D01*
X025170Y012344D01*
X025055Y012434D02*
X024875Y012434D01*
X025010Y012569D01*
X025010Y012299D01*
X024761Y012344D02*
X024761Y012389D01*
X024716Y012434D01*
X024581Y012434D01*
X024581Y012344D01*
X024626Y012299D01*
X024716Y012299D01*
X024761Y012344D01*
X024671Y012524D02*
X024581Y012434D01*
X024671Y012524D02*
X024761Y012569D01*
X024466Y012524D02*
X024421Y012569D01*
X024331Y012569D01*
X024286Y012524D01*
X024286Y012344D01*
X024331Y012299D01*
X024421Y012299D01*
X024466Y012344D01*
X024171Y012344D02*
X024126Y012299D01*
X023991Y012299D01*
X023991Y012569D01*
X024126Y012569D01*
X024171Y012524D01*
X024171Y012479D01*
X024126Y012434D01*
X023991Y012434D01*
X024126Y012434D02*
X024171Y012389D01*
X024171Y012344D01*
X024244Y012931D02*
X024319Y013006D01*
X024319Y013081D01*
X024244Y013156D01*
X024019Y013156D01*
X024019Y013006D01*
X024094Y012931D01*
X024244Y012931D01*
X024019Y013156D02*
X024169Y013306D01*
X024319Y013382D01*
X023859Y013306D02*
X023859Y013156D01*
X023784Y013081D01*
X023559Y013081D01*
X023559Y012931D02*
X023559Y013382D01*
X023784Y013382D01*
X023859Y013306D01*
X023709Y013081D02*
X023859Y012931D01*
X023399Y013006D02*
X023324Y012931D01*
X023173Y012931D01*
X023098Y013006D01*
X023098Y013156D02*
X023249Y013231D01*
X023324Y013231D01*
X023399Y013156D01*
X023399Y013006D01*
X023098Y013156D02*
X023098Y013382D01*
X023399Y013382D01*
X023552Y013600D02*
X023517Y013648D01*
X023484Y013698D01*
X023453Y013750D01*
X023426Y013804D01*
X023402Y013859D01*
X023382Y013916D01*
X023364Y013973D01*
X023350Y014031D01*
X023339Y014090D01*
X023332Y014150D01*
X025367Y017847D02*
X025217Y017998D01*
X025667Y017998D01*
X025667Y018148D02*
X025667Y017847D01*
X025592Y018308D02*
X025292Y018308D01*
X025217Y018383D01*
X025217Y018533D01*
X025292Y018608D01*
X025592Y018308D01*
X025667Y018383D01*
X025667Y018533D01*
X025592Y018608D01*
X025292Y018608D01*
X025292Y018768D02*
X025217Y018843D01*
X025217Y018993D01*
X025292Y019068D01*
X025592Y018768D01*
X025667Y018843D01*
X025667Y018993D01*
X025592Y019068D01*
X025292Y019068D01*
X025442Y019304D02*
X025592Y019304D01*
X025742Y019304D01*
X025817Y019229D01*
X025667Y019379D02*
X025667Y019454D01*
X025592Y019529D01*
X025442Y019529D01*
X025592Y019304D02*
X025667Y019379D01*
X026077Y020030D02*
X026377Y020030D01*
X026452Y020105D01*
X026452Y020255D01*
X026377Y020330D01*
X026452Y020490D02*
X026452Y020791D01*
X026452Y020640D02*
X026002Y020640D01*
X026152Y020490D01*
X026077Y020330D02*
X026002Y020255D01*
X026002Y020105D01*
X026077Y020030D01*
X025592Y018768D02*
X025292Y018768D01*
X023152Y020331D02*
X023152Y020631D01*
X023152Y020481D02*
X022702Y020481D01*
X022852Y020331D01*
X022702Y020792D02*
X023152Y021092D01*
X022702Y021092D01*
X022927Y021252D02*
X022927Y021552D01*
X022852Y021712D02*
X022702Y021862D01*
X023152Y021862D01*
X023152Y021712D02*
X023152Y022012D01*
X022927Y022173D02*
X022702Y022398D01*
X023152Y022398D01*
X022927Y022473D02*
X022927Y022173D01*
X023002Y022633D02*
X022927Y022708D01*
X022927Y022858D01*
X023002Y022933D01*
X023077Y022933D01*
X023152Y022858D01*
X023152Y022708D01*
X023077Y022633D01*
X023002Y022633D01*
X022927Y022708D02*
X022852Y022633D01*
X022777Y022633D01*
X022702Y022708D01*
X022702Y022858D01*
X022777Y022933D01*
X022852Y022933D01*
X022927Y022858D01*
X022252Y022971D02*
X022177Y022896D01*
X022027Y022896D01*
X022027Y023121D01*
X022102Y023196D01*
X022177Y023196D01*
X022252Y023121D01*
X022252Y022971D01*
X022027Y022896D02*
X021877Y023046D01*
X021802Y023196D01*
X022027Y022736D02*
X022027Y022435D01*
X021802Y022661D01*
X022252Y022661D01*
X022252Y022125D02*
X021802Y022125D01*
X021802Y021975D02*
X021802Y022275D01*
X021952Y021815D02*
X022252Y021815D01*
X022027Y021815D02*
X022027Y021515D01*
X021952Y021515D02*
X021802Y021665D01*
X021952Y021815D01*
X021952Y021515D02*
X022252Y021515D01*
X022177Y021355D02*
X022102Y021355D01*
X022027Y021279D01*
X022027Y021054D01*
X022252Y021054D02*
X022252Y021279D01*
X022177Y021355D01*
X022027Y021279D02*
X021952Y021355D01*
X021877Y021355D01*
X021802Y021279D01*
X021802Y021054D01*
X022252Y021054D01*
X022702Y020792D02*
X023152Y020792D01*
X022927Y021252D02*
X022702Y021477D01*
X023152Y021477D01*
X014508Y012656D02*
X014358Y012656D01*
X014283Y012581D01*
X014283Y012356D01*
X014733Y012356D01*
X014583Y012356D02*
X014583Y012581D01*
X014508Y012656D01*
X014733Y012196D02*
X014733Y011896D01*
X014283Y011896D01*
X014358Y011736D02*
X014283Y011660D01*
X014283Y011510D01*
X014358Y011435D01*
X014433Y011435D01*
X014508Y011510D01*
X014508Y011736D01*
X014658Y011736D02*
X014358Y011736D01*
X014658Y011736D02*
X014733Y011660D01*
X014733Y011510D01*
X014658Y011435D01*
X014658Y011275D02*
X014733Y011200D01*
X014733Y011050D01*
X014658Y010975D01*
X014583Y010975D01*
X014508Y011050D01*
X014508Y011200D01*
X014583Y011275D01*
X014658Y011275D01*
X014508Y011200D02*
X014433Y011275D01*
X014358Y011275D01*
X014283Y011200D01*
X014283Y011050D01*
X014358Y010975D01*
X014433Y010975D01*
X014508Y011050D01*
X018650Y008860D02*
X018650Y008709D01*
X018725Y008634D01*
X018725Y008474D02*
X018876Y008474D01*
X018951Y008399D01*
X018951Y008174D01*
X019101Y008174D02*
X018650Y008174D01*
X018650Y008399D01*
X018725Y008474D01*
X019026Y008634D02*
X019101Y008709D01*
X019101Y008860D01*
X019026Y008935D01*
X018951Y008935D01*
X018876Y008860D01*
X018876Y008785D01*
X018876Y008860D02*
X018801Y008935D01*
X018725Y008935D01*
X018650Y008860D01*
X018650Y008014D02*
X018650Y007864D01*
X018650Y007939D02*
X019026Y007939D01*
X019101Y007864D01*
X019101Y007789D01*
X019026Y007714D01*
X020433Y008291D02*
X020658Y008291D01*
X020583Y008441D01*
X020583Y008516D01*
X020658Y008591D01*
X020808Y008591D01*
X020883Y008516D01*
X020883Y008366D01*
X020808Y008291D01*
X020433Y008291D02*
X020433Y008591D01*
X020433Y008752D02*
X020883Y008752D01*
X020733Y008752D02*
X020583Y008977D01*
X020658Y009135D02*
X020658Y009360D01*
X020733Y009435D01*
X020808Y009435D01*
X020883Y009360D01*
X020883Y009210D01*
X020808Y009135D01*
X020658Y009135D01*
X020508Y009285D01*
X020433Y009435D01*
X020127Y009438D02*
X019977Y009288D01*
X019977Y009363D02*
X019977Y009137D01*
X020127Y009137D02*
X019677Y009137D01*
X019677Y009363D01*
X019752Y009438D01*
X019902Y009438D01*
X019977Y009363D01*
X020127Y009598D02*
X020127Y009898D01*
X020127Y009748D02*
X019677Y009748D01*
X019827Y009598D01*
X019902Y010058D02*
X019902Y010358D01*
X020127Y010283D02*
X019677Y010283D01*
X019902Y010058D01*
X020883Y008977D02*
X020733Y008752D01*
X023675Y006038D02*
X023675Y005737D01*
X023750Y005662D01*
X023900Y005662D01*
X023975Y005737D01*
X024135Y005662D02*
X024436Y005963D01*
X024436Y006038D01*
X024360Y006113D01*
X024210Y006113D01*
X024135Y006038D01*
X023975Y006038D02*
X023900Y006113D01*
X023750Y006113D01*
X023675Y006038D01*
X024135Y005662D02*
X024436Y005662D01*
X025121Y009138D02*
X025421Y009138D01*
X025271Y009138D02*
X025271Y009588D01*
X025121Y009438D01*
X025581Y009513D02*
X025581Y009213D01*
X025881Y009513D01*
X025881Y009213D01*
X025806Y009138D01*
X025656Y009138D01*
X025581Y009213D01*
X025581Y009513D02*
X025656Y009588D01*
X025806Y009588D01*
X025881Y009513D01*
X026042Y009438D02*
X026042Y009138D01*
X026042Y009438D02*
X026267Y009438D01*
X026342Y009363D01*
X026342Y009138D01*
X011289Y014954D02*
X011289Y015104D01*
X011289Y015029D02*
X010839Y015029D01*
X010839Y014954D02*
X010839Y015104D01*
X010914Y015260D02*
X011214Y015260D01*
X011289Y015335D01*
X011289Y015486D01*
X011214Y015561D01*
X011214Y015721D02*
X011289Y015796D01*
X011289Y015946D01*
X011214Y016021D01*
X011139Y016021D01*
X011064Y015946D01*
X011064Y015871D01*
X011064Y015946D02*
X010989Y016021D01*
X010914Y016021D01*
X010839Y015946D01*
X010839Y015796D01*
X010914Y015721D01*
X010914Y015561D02*
X010839Y015486D01*
X010839Y015335D01*
X010914Y015260D01*
X006529Y018025D02*
X006229Y018025D01*
X006379Y018025D02*
X006379Y018475D01*
X006229Y018325D01*
X006069Y018400D02*
X005994Y018475D01*
X005769Y018475D01*
X005769Y018025D01*
X005994Y018025D01*
X006069Y018100D01*
X006069Y018400D01*
X006144Y019275D02*
X006369Y019275D01*
X006444Y019350D01*
X006444Y019650D01*
X006369Y019725D01*
X006144Y019725D01*
X006144Y019275D01*
X006604Y019350D02*
X006679Y019275D01*
X006829Y019275D01*
X006904Y019350D01*
X006904Y019425D01*
X006829Y019500D01*
X006754Y019500D01*
X006829Y019500D02*
X006904Y019575D01*
X006904Y019650D01*
X006829Y019725D01*
X006679Y019725D01*
X006604Y019650D01*
X004287Y020486D02*
X004287Y020786D01*
X004287Y020636D02*
X003837Y020636D01*
X003987Y020486D01*
X003912Y020946D02*
X003837Y021021D01*
X003837Y021171D01*
X003912Y021246D01*
X004212Y020946D01*
X004287Y021021D01*
X004287Y021171D01*
X004212Y021246D01*
X003912Y021246D01*
X003912Y021407D02*
X003837Y021482D01*
X003837Y021632D01*
X003912Y021707D01*
X004212Y021407D01*
X004287Y021482D01*
X004287Y021632D01*
X004212Y021707D01*
X003912Y021707D01*
X004062Y021942D02*
X004212Y021942D01*
X004362Y021942D01*
X004437Y021867D01*
X004287Y022017D02*
X004287Y022092D01*
X004212Y022167D01*
X004062Y022167D01*
X004212Y021942D02*
X004287Y022017D01*
X004212Y021407D02*
X003912Y021407D01*
X003912Y020946D02*
X004212Y020946D01*
X003704Y019775D02*
X003779Y019700D01*
X003779Y019625D01*
X003704Y019550D01*
X003554Y019550D01*
X003479Y019625D01*
X003479Y019700D01*
X003554Y019775D01*
X003704Y019775D01*
X003704Y019550D02*
X003779Y019475D01*
X003779Y019400D01*
X003704Y019325D01*
X003554Y019325D01*
X003479Y019400D01*
X003479Y019475D01*
X003554Y019550D01*
X003319Y019550D02*
X003019Y019550D01*
X003244Y019775D01*
X003244Y019325D01*
X002858Y019325D02*
X002558Y019325D01*
X002708Y019325D02*
X002708Y019775D01*
X002558Y019625D01*
X002398Y019550D02*
X002098Y019550D01*
X002323Y019775D01*
X002323Y019325D01*
X001938Y019325D02*
X001938Y019775D01*
X001638Y019775D02*
X001638Y019325D01*
X001477Y019325D02*
X001177Y019325D01*
X001327Y019325D02*
X001327Y019775D01*
X001177Y019625D01*
X001638Y019775D02*
X001938Y019325D01*
X001289Y017121D02*
X001289Y016821D01*
X001289Y016971D02*
X000839Y016971D01*
X000989Y016821D01*
X000914Y016661D02*
X001064Y016661D01*
X001139Y016585D01*
X001139Y016360D01*
X001289Y016360D02*
X000839Y016360D01*
X000839Y016585D01*
X000914Y016661D01*
X000839Y016200D02*
X000839Y016050D01*
X000839Y016125D02*
X001214Y016125D01*
X001289Y016050D01*
X001289Y015975D01*
X001214Y015900D01*
X004369Y015828D02*
X004369Y015678D01*
X004444Y015603D01*
X004444Y015443D02*
X004369Y015368D01*
X004369Y015143D01*
X004819Y015143D01*
X004669Y015143D02*
X004669Y015368D01*
X004594Y015443D01*
X004444Y015443D01*
X004819Y015603D02*
X004519Y015903D01*
X004444Y015903D01*
X004369Y015828D01*
X004819Y015903D02*
X004819Y015603D01*
X004744Y014908D02*
X004369Y014908D01*
X004369Y014833D02*
X004369Y014983D01*
X004744Y014908D02*
X004819Y014833D01*
X004819Y014757D01*
X004744Y014682D01*
X007587Y009225D02*
X007738Y009225D01*
X007813Y009150D01*
X007813Y008850D01*
X007738Y008775D01*
X007587Y008775D01*
X007512Y008850D01*
X007512Y009150D01*
X007587Y009225D01*
X007663Y008925D02*
X007813Y008775D01*
X007973Y008775D02*
X008273Y009075D01*
X008273Y009150D01*
X008198Y009225D01*
X008048Y009225D01*
X007973Y009150D01*
X007973Y008775D02*
X008273Y008775D01*
X007092Y022737D02*
X007168Y022812D01*
X007168Y022888D01*
X007092Y022963D01*
X006867Y022963D01*
X006867Y022812D01*
X006942Y022737D01*
X007092Y022737D01*
X006867Y022963D02*
X007017Y023113D01*
X007168Y023188D01*
X006707Y023113D02*
X006632Y023188D01*
X006482Y023188D01*
X006407Y023113D01*
X006407Y022812D01*
X006482Y022737D01*
X006632Y022737D01*
X006707Y022812D01*
D15*
X019283Y021469D02*
X019283Y017656D01*
X020721Y017656D01*
X020721Y021469D01*
X019283Y021469D01*
X010307Y001415D02*
X010337Y001367D01*
X010370Y001322D01*
X010406Y001279D01*
X010444Y001238D01*
X010486Y001201D01*
X010530Y001166D01*
X010576Y001135D01*
X010625Y001106D01*
X010675Y001082D01*
X010727Y001061D01*
X010781Y001043D01*
X010835Y001030D01*
X010890Y001020D01*
X010946Y001014D01*
X011002Y001012D01*
X011055Y001014D01*
X011109Y001019D01*
X011161Y001028D01*
X011213Y001040D01*
X011264Y001056D01*
X011314Y001075D01*
X011363Y001098D01*
X011410Y001124D01*
X011455Y001152D01*
X011498Y001184D01*
X011538Y001218D01*
X011577Y001256D01*
X011613Y001295D01*
X011002Y002612D02*
X010948Y002610D01*
X010894Y002605D01*
X010841Y002596D01*
X010788Y002583D01*
X010737Y002567D01*
X010687Y002547D01*
X010638Y002524D01*
X010590Y002498D01*
X010545Y002469D01*
X010502Y002436D01*
X010461Y002401D01*
X010422Y002363D01*
X010386Y002323D01*
X010353Y002280D01*
X010323Y002235D01*
X010296Y002188D01*
X011002Y002612D02*
X011056Y002610D01*
X011109Y002605D01*
X011163Y002596D01*
X011215Y002583D01*
X011266Y002567D01*
X011317Y002547D01*
X011366Y002525D01*
X011413Y002499D01*
X011458Y002469D01*
X011501Y002437D01*
X011542Y002402D01*
X011581Y002364D01*
X011617Y002324D01*
D16*
X012264Y003567D02*
X012564Y003567D01*
X012864Y003567D01*
X012864Y003817D02*
X012564Y003817D01*
X012264Y003817D01*
X019327Y006286D02*
X019627Y006286D01*
X019927Y006286D01*
X019927Y006536D02*
X019627Y006536D01*
X019327Y006536D01*
X023976Y006419D02*
X023976Y006719D01*
X023976Y007019D01*
X024226Y007019D02*
X024226Y006719D01*
X024226Y006419D01*
X024309Y009700D02*
X024309Y010000D01*
X024309Y010300D01*
X024059Y010300D02*
X024059Y010000D01*
X024059Y009700D01*
X017653Y014512D02*
X017653Y014812D01*
X017653Y015112D01*
X017403Y015112D02*
X017403Y014812D01*
X017403Y014512D01*
X020002Y017219D02*
X020002Y017625D01*
X019971Y021500D02*
X019971Y021719D01*
X013052Y019182D02*
X012452Y019182D01*
X012452Y018932D02*
X013052Y018932D01*
X009802Y016505D02*
X009502Y016505D01*
X009202Y016505D01*
X009202Y016255D02*
X009502Y016255D01*
X009802Y016255D01*
X016358Y011432D02*
X016658Y011432D01*
X016958Y011432D01*
X016958Y011182D02*
X016658Y011182D01*
X016358Y011182D01*
D17*
X014775Y016180D02*
X014355Y016180D01*
X014565Y016180D02*
X014565Y016810D01*
X014355Y016600D01*
X014131Y016705D02*
X014026Y016810D01*
X013816Y016810D01*
X013710Y016705D01*
X013710Y016285D01*
X013816Y016180D01*
X014026Y016180D01*
X014131Y016285D01*
X013491Y016180D02*
X013281Y016180D01*
X013386Y016180D02*
X013386Y016810D01*
X013281Y016810D02*
X013491Y016810D01*
D18*
X005371Y017719D03*
X005402Y018812D03*
D19*
X006027Y018812D03*
X005996Y017719D03*
X003446Y017719D03*
X003477Y018812D03*
D20*
X004488Y014429D02*
X004488Y014352D01*
X004641Y014198D01*
X004641Y014045D02*
X004641Y013738D01*
X004564Y013738D02*
X004488Y013815D01*
X004488Y013968D01*
X004564Y014045D01*
X004641Y014045D01*
X004794Y013968D02*
X004794Y013815D01*
X004718Y013738D01*
X004564Y013738D01*
X004488Y013585D02*
X004488Y013431D01*
X004411Y013508D02*
X004718Y013508D01*
X004794Y013585D01*
X004718Y013278D02*
X004641Y013201D01*
X004641Y013048D01*
X004564Y012971D01*
X004488Y013048D01*
X004488Y013278D01*
X004718Y013278D02*
X004794Y013201D01*
X004794Y012971D01*
X004794Y012817D02*
X004564Y012817D01*
X004488Y012741D01*
X004488Y012587D01*
X004641Y012587D02*
X004641Y012817D01*
X004794Y012817D02*
X004794Y012587D01*
X004718Y012511D01*
X004641Y012587D01*
X004334Y012357D02*
X004334Y012050D01*
X004334Y012204D02*
X004794Y012204D01*
X004564Y011897D02*
X004564Y011590D01*
X004411Y011436D02*
X004334Y011360D01*
X004334Y011129D01*
X004794Y011129D01*
X004794Y011360D01*
X004718Y011436D01*
X004411Y011436D01*
X004334Y010976D02*
X004334Y010669D01*
X004794Y010669D01*
X004794Y010976D01*
X004564Y010823D02*
X004564Y010669D01*
X004794Y010516D02*
X004794Y010209D01*
X004334Y010209D01*
X001794Y011076D02*
X001488Y011076D01*
X001334Y011230D01*
X001488Y011383D01*
X001794Y011383D01*
X001794Y011537D02*
X001334Y011537D01*
X001334Y011767D01*
X001411Y011844D01*
X001564Y011844D01*
X001641Y011767D01*
X001641Y011537D01*
X001564Y011383D02*
X001564Y011076D01*
X001641Y011997D02*
X001641Y012227D01*
X001564Y012304D01*
X001411Y012304D01*
X001334Y012227D01*
X001334Y011997D01*
X001794Y011997D01*
X004488Y014198D02*
X004794Y014198D01*
X010453Y019519D02*
X010913Y019519D01*
X010913Y019672D02*
X010913Y019365D01*
X010606Y019365D02*
X010453Y019519D01*
X010453Y019826D02*
X010683Y019826D01*
X010606Y019979D01*
X010606Y020056D01*
X010683Y020133D01*
X010836Y020133D01*
X010913Y020056D01*
X010913Y019902D01*
X010836Y019826D01*
X010453Y019826D02*
X010453Y020133D01*
X010529Y020286D02*
X010453Y020363D01*
X010453Y020516D01*
X010529Y020593D01*
X010836Y020286D01*
X010913Y020363D01*
X010913Y020516D01*
X010836Y020593D01*
X010529Y020593D01*
X010606Y020746D02*
X010606Y020823D01*
X010683Y020900D01*
X010606Y020977D01*
X010683Y021053D01*
X010913Y021053D01*
X010913Y020900D02*
X010683Y020900D01*
X010606Y020746D02*
X010913Y020746D01*
X010913Y021207D02*
X010453Y021207D01*
X010683Y021207D02*
X010683Y021514D01*
X010453Y021514D02*
X010913Y021514D01*
X011371Y022407D02*
X011832Y022407D01*
X011832Y022714D01*
X011832Y022867D02*
X011525Y023174D01*
X011448Y023174D01*
X011371Y023097D01*
X011371Y022944D01*
X011448Y022867D01*
X011832Y022867D02*
X011832Y023174D01*
X014584Y021482D02*
X014644Y021542D01*
X014764Y021542D01*
X014824Y021482D01*
X014824Y021302D01*
X014944Y021302D02*
X014584Y021302D01*
X014584Y021482D01*
X014704Y021173D02*
X014944Y021173D01*
X014764Y021173D02*
X014764Y020933D01*
X014704Y020933D02*
X014944Y020933D01*
X014884Y020805D02*
X014944Y020745D01*
X014944Y020625D01*
X014884Y020565D01*
X014884Y020437D02*
X014824Y020437D01*
X014764Y020377D01*
X014764Y020197D01*
X014884Y020197D01*
X014944Y020257D01*
X014944Y020377D01*
X014884Y020437D01*
X014644Y020317D02*
X014764Y020197D01*
X014644Y020317D02*
X014584Y020437D01*
X014644Y020565D02*
X014584Y020625D01*
X014584Y020745D01*
X014644Y020805D01*
X014704Y020805D01*
X014764Y020745D01*
X014824Y020805D01*
X014884Y020805D01*
X014764Y020745D02*
X014764Y020685D01*
X014704Y020933D02*
X014584Y021053D01*
X014704Y021173D01*
X014644Y020069D02*
X014884Y019828D01*
X014944Y019888D01*
X014944Y020008D01*
X014884Y020069D01*
X014644Y020069D01*
X014584Y020008D01*
X014584Y019888D01*
X014644Y019828D01*
X014884Y019828D01*
X014764Y019700D02*
X014764Y019460D01*
X014584Y019640D01*
X014944Y019640D01*
X014884Y019332D02*
X014944Y019272D01*
X014944Y019152D01*
X014884Y019092D01*
X014884Y018964D02*
X014944Y018904D01*
X014944Y018783D01*
X014884Y018723D01*
X014644Y018723D01*
X014584Y018783D01*
X014584Y018904D01*
X014644Y018964D01*
X014644Y019092D02*
X014584Y019152D01*
X014584Y019272D01*
X014644Y019332D01*
X014704Y019332D01*
X014764Y019272D01*
X014824Y019332D01*
X014884Y019332D01*
X014764Y019272D02*
X014764Y019212D01*
X014584Y018595D02*
X014944Y018595D01*
X014944Y018355D02*
X014584Y018355D01*
X014704Y018475D01*
X014584Y018595D01*
X010836Y020286D02*
X010529Y020286D01*
X018509Y013824D02*
X018509Y013464D01*
X018509Y013584D02*
X018690Y013584D01*
X018750Y013644D01*
X018750Y013764D01*
X018690Y013824D01*
X018509Y013824D01*
X018629Y013584D02*
X018750Y013464D01*
X018878Y013464D02*
X019118Y013464D01*
X018998Y013464D02*
X018998Y013824D01*
X018878Y013704D01*
X019246Y013764D02*
X019246Y013524D01*
X019486Y013764D01*
X019486Y013524D01*
X019426Y013464D01*
X019306Y013464D01*
X019246Y013524D01*
X019246Y013764D02*
X019306Y013824D01*
X019426Y013824D01*
X019486Y013764D01*
X019308Y013011D02*
X019188Y013011D01*
X019128Y012951D01*
X019000Y012951D02*
X019000Y012831D01*
X018940Y012771D01*
X018759Y012771D01*
X018759Y012651D02*
X018759Y013011D01*
X018940Y013011D01*
X019000Y012951D01*
X018880Y012771D02*
X019000Y012651D01*
X019128Y012651D02*
X019368Y012891D01*
X019368Y012951D01*
X019308Y013011D01*
X019368Y012651D02*
X019128Y012651D01*
X018451Y012557D02*
X018451Y012404D01*
X018374Y012327D01*
X018221Y012404D02*
X018221Y012557D01*
X018297Y012634D01*
X018374Y012634D01*
X018451Y012557D01*
X018451Y012787D02*
X017990Y012787D01*
X017990Y013017D01*
X018067Y013094D01*
X018221Y013094D01*
X018297Y013017D01*
X018297Y012787D01*
X018067Y012634D02*
X017990Y012557D01*
X017990Y012404D01*
X018067Y012327D01*
X018144Y012327D01*
X018221Y012404D01*
X018451Y012173D02*
X018451Y012020D01*
X018451Y012097D02*
X017990Y012097D01*
X017990Y012173D02*
X017990Y012020D01*
X019048Y016395D02*
X019048Y016755D01*
X019228Y016755D01*
X019288Y016695D01*
X019288Y016575D01*
X019228Y016515D01*
X019048Y016515D01*
X019168Y016515D02*
X019288Y016395D01*
X019416Y016455D02*
X019416Y016575D01*
X019596Y016575D01*
X019656Y016515D01*
X019656Y016455D01*
X019596Y016395D01*
X019476Y016395D01*
X019416Y016455D01*
X019416Y016575D02*
X019536Y016695D01*
X019656Y016755D01*
X019598Y018645D02*
X019522Y018722D01*
X019522Y018875D01*
X019598Y018952D01*
X019675Y018952D01*
X019982Y018645D01*
X019982Y018952D01*
X019982Y019105D02*
X019675Y019412D01*
X019598Y019412D01*
X019522Y019335D01*
X019522Y019182D01*
X019598Y019105D01*
X019598Y019566D02*
X019522Y019642D01*
X019522Y019796D01*
X019598Y019873D01*
X019905Y019566D01*
X019982Y019642D01*
X019982Y019796D01*
X019905Y019873D01*
X019598Y019873D01*
X019752Y020103D02*
X019905Y020103D01*
X020059Y020103D01*
X020135Y020026D01*
X019982Y020179D02*
X019905Y020103D01*
X019982Y020179D02*
X019982Y020256D01*
X019905Y020333D01*
X019752Y020333D01*
X019752Y020486D02*
X019752Y020793D01*
X019522Y020793D02*
X019982Y020793D01*
X019982Y020486D02*
X019522Y020486D01*
X019598Y019566D02*
X019905Y019566D01*
X019982Y019412D02*
X019982Y019105D01*
X020201Y022614D02*
X019740Y022614D01*
X020201Y022614D02*
X020201Y022921D01*
X020201Y023074D02*
X020201Y023381D01*
X020201Y023227D02*
X019740Y023227D01*
X019894Y023074D01*
X024916Y016636D02*
X025096Y016636D01*
X025156Y016576D01*
X025156Y016456D01*
X025096Y016396D01*
X024916Y016396D01*
X025036Y016396D02*
X025156Y016276D01*
X025284Y016336D02*
X025344Y016276D01*
X025464Y016276D01*
X025524Y016336D01*
X025524Y016456D01*
X025464Y016516D01*
X025404Y016516D01*
X025284Y016456D01*
X025284Y016636D01*
X025524Y016636D01*
X024916Y016636D02*
X024916Y016276D01*
X025116Y015349D02*
X025296Y015349D01*
X025356Y015289D01*
X025356Y015229D01*
X025296Y015169D01*
X025116Y015169D01*
X025296Y015169D02*
X025356Y015109D01*
X025356Y015049D01*
X025296Y014989D01*
X025116Y014989D01*
X025116Y015349D01*
X025484Y015289D02*
X025484Y015049D01*
X025544Y014989D01*
X025664Y014989D01*
X025724Y015049D01*
X025852Y015049D02*
X025912Y014989D01*
X026032Y014989D01*
X026092Y015049D01*
X026092Y015169D01*
X026032Y015229D01*
X025972Y015229D01*
X025852Y015169D01*
X025852Y015349D01*
X026092Y015349D01*
X026221Y015169D02*
X026461Y015169D01*
X026589Y015049D02*
X026589Y014989D01*
X026589Y015049D02*
X026829Y015289D01*
X026829Y015349D01*
X026589Y015349D01*
X026401Y015349D02*
X026221Y015169D01*
X026401Y014989D02*
X026401Y015349D01*
X025724Y015289D02*
X025664Y015349D01*
X025544Y015349D01*
X025484Y015289D01*
X025772Y014755D02*
X026012Y014755D01*
X025892Y014755D02*
X025892Y014395D01*
X026140Y014395D02*
X026380Y014395D01*
X026260Y014395D02*
X026260Y014755D01*
X026140Y014635D01*
X025896Y011199D02*
X025956Y011139D01*
X025956Y011079D01*
X025896Y011019D01*
X025956Y010959D01*
X025956Y010899D01*
X025896Y010839D01*
X025776Y010839D01*
X025716Y010899D01*
X025588Y010899D02*
X025588Y011139D01*
X025528Y011199D01*
X025408Y011199D01*
X025348Y011139D01*
X025348Y010899D01*
X025408Y010839D01*
X025528Y010839D01*
X025588Y010899D01*
X025588Y010839D02*
X025468Y010959D01*
X025716Y011139D02*
X025776Y011199D01*
X025896Y011199D01*
X025896Y011019D02*
X025836Y011019D01*
X015982Y005243D02*
X015922Y005243D01*
X015682Y005483D01*
X015622Y005483D01*
X015622Y005243D01*
X015622Y005115D02*
X015622Y004875D01*
X015802Y004875D01*
X015742Y004995D01*
X015742Y005055D01*
X015802Y005115D01*
X015922Y005115D01*
X015982Y005055D01*
X015982Y004935D01*
X015922Y004875D01*
X015922Y004747D02*
X015802Y004747D01*
X015742Y004687D01*
X015742Y004627D01*
X015802Y004507D01*
X015622Y004507D01*
X015622Y004747D01*
X015922Y004747D02*
X015982Y004687D01*
X015982Y004567D01*
X015922Y004507D01*
X015922Y004378D02*
X015982Y004318D01*
X015982Y004198D01*
X015922Y004138D01*
X015682Y004138D01*
X015622Y004198D01*
X015622Y004318D01*
X015682Y004378D01*
X015682Y004010D02*
X015742Y004010D01*
X015802Y003950D01*
X015802Y003770D01*
X015982Y003770D02*
X015622Y003770D01*
X015622Y003950D01*
X015682Y004010D01*
X015802Y003950D02*
X015862Y004010D01*
X015922Y004010D01*
X015982Y003950D01*
X015982Y003770D01*
X018697Y000943D02*
X018877Y000943D01*
X018937Y000883D01*
X018937Y000763D01*
X018877Y000703D01*
X018697Y000703D01*
X018697Y000582D02*
X018697Y000943D01*
X019065Y000823D02*
X019065Y000582D01*
X019065Y000703D02*
X019185Y000823D01*
X019245Y000823D01*
X019372Y000763D02*
X019372Y000642D01*
X019432Y000582D01*
X019552Y000582D01*
X019612Y000642D01*
X019612Y000763D01*
X019552Y000823D01*
X019432Y000823D01*
X019372Y000763D01*
X019740Y000763D02*
X019740Y000642D01*
X019801Y000582D01*
X019981Y000582D01*
X019981Y000522D02*
X019981Y000823D01*
X019801Y000823D01*
X019740Y000763D01*
X019981Y000522D02*
X019921Y000462D01*
X019861Y000462D01*
X020109Y000582D02*
X020109Y000823D01*
X020109Y000703D02*
X020229Y000823D01*
X020289Y000823D01*
X020476Y000823D02*
X020596Y000823D01*
X020656Y000763D01*
X020656Y000582D01*
X020476Y000582D01*
X020416Y000642D01*
X020476Y000703D01*
X020656Y000703D01*
X020784Y000823D02*
X020844Y000823D01*
X020904Y000763D01*
X020964Y000823D01*
X021024Y000763D01*
X021024Y000582D01*
X020904Y000582D02*
X020904Y000763D01*
X020784Y000823D02*
X020784Y000582D01*
X021152Y000582D02*
X021152Y000823D01*
X021212Y000823D01*
X021272Y000763D01*
X021332Y000823D01*
X021392Y000763D01*
X021392Y000582D01*
X021272Y000582D02*
X021272Y000763D01*
X021521Y000823D02*
X021581Y000823D01*
X021581Y000582D01*
X021521Y000582D02*
X021641Y000582D01*
X021766Y000642D02*
X021766Y000763D01*
X021826Y000823D01*
X021946Y000823D01*
X022006Y000763D01*
X022006Y000703D01*
X021766Y000703D01*
X021766Y000642D02*
X021826Y000582D01*
X021946Y000582D01*
X022134Y000582D02*
X022134Y000823D01*
X022254Y000823D02*
X022315Y000823D01*
X022254Y000823D02*
X022134Y000703D01*
X022441Y000763D02*
X022681Y000763D01*
X022810Y000943D02*
X023050Y000943D01*
X022930Y000943D02*
X022930Y000582D01*
X023178Y000642D02*
X023238Y000703D01*
X023418Y000703D01*
X023418Y000763D02*
X023418Y000582D01*
X023238Y000582D01*
X023178Y000642D01*
X023238Y000823D02*
X023358Y000823D01*
X023418Y000763D01*
X023546Y000763D02*
X023606Y000703D01*
X023726Y000703D01*
X023786Y000642D01*
X023726Y000582D01*
X023546Y000582D01*
X023546Y000763D02*
X023606Y000823D01*
X023786Y000823D01*
X023915Y000823D02*
X024035Y000823D01*
X023975Y000883D02*
X023975Y000642D01*
X024035Y000582D01*
X024160Y000642D02*
X024160Y000763D01*
X024220Y000823D01*
X024340Y000823D01*
X024400Y000763D01*
X024400Y000703D01*
X024160Y000703D01*
X024160Y000642D02*
X024220Y000582D01*
X024340Y000582D01*
X024528Y000582D02*
X024528Y000823D01*
X024528Y000703D02*
X024648Y000823D01*
X024708Y000823D01*
X021581Y000943D02*
X021581Y001003D01*
D21*
X007922Y004312D03*
X007922Y005312D03*
X005082Y005312D03*
X005082Y004312D03*
X013332Y017562D03*
X016172Y017562D03*
X016172Y022812D03*
X013332Y022812D03*
D22*
X023777Y016406D02*
X023977Y016406D01*
X025027Y013187D02*
X025227Y013187D01*
D23*
X020689Y010139D03*
X020689Y007299D03*
X009502Y004732D03*
X009502Y001892D03*
X018752Y017642D03*
X018752Y020482D03*
D24*
X024502Y019037D03*
X005002Y021087D03*
D25*
X021252Y020612D03*
D26*
X021252Y021237D03*
X021252Y018887D03*
D27*
X007356Y020562D02*
X007359Y020667D01*
X007366Y020772D01*
X007379Y020877D01*
X007397Y020981D01*
X007420Y021083D01*
X007448Y021185D01*
X007481Y021285D01*
X007519Y021383D01*
X007562Y021480D01*
X007609Y021574D01*
X007661Y021665D01*
X007718Y021754D01*
X007778Y021840D01*
X007843Y021923D01*
X007912Y022003D01*
X007985Y022079D01*
X008061Y022152D01*
X008141Y022221D01*
X008224Y022286D01*
X008310Y022346D01*
X008399Y022403D01*
X008490Y022455D01*
X008584Y022502D01*
X008681Y022545D01*
X008779Y022583D01*
X008879Y022616D01*
X008981Y022644D01*
X009083Y022667D01*
X009187Y022685D01*
X009292Y022698D01*
X009397Y022705D01*
X009502Y022708D01*
X009607Y022705D01*
X009712Y022698D01*
X009817Y022685D01*
X009921Y022667D01*
X010023Y022644D01*
X010125Y022616D01*
X010225Y022583D01*
X010323Y022545D01*
X010420Y022502D01*
X010514Y022455D01*
X010605Y022403D01*
X010694Y022346D01*
X010780Y022286D01*
X010863Y022221D01*
X010943Y022152D01*
X011019Y022079D01*
X011092Y022003D01*
X011161Y021923D01*
X011226Y021840D01*
X011286Y021754D01*
X011343Y021665D01*
X011395Y021574D01*
X011442Y021480D01*
X011485Y021383D01*
X011523Y021285D01*
X011556Y021185D01*
X011584Y021083D01*
X011607Y020981D01*
X011625Y020877D01*
X011638Y020772D01*
X011645Y020667D01*
X011648Y020562D01*
X011645Y020457D01*
X011638Y020352D01*
X011625Y020247D01*
X011607Y020143D01*
X011584Y020041D01*
X011556Y019939D01*
X011523Y019839D01*
X011485Y019741D01*
X011442Y019644D01*
X011395Y019550D01*
X011343Y019459D01*
X011286Y019370D01*
X011226Y019284D01*
X011161Y019201D01*
X011092Y019121D01*
X011019Y019045D01*
X010943Y018972D01*
X010863Y018903D01*
X010780Y018838D01*
X010694Y018778D01*
X010605Y018721D01*
X010514Y018669D01*
X010420Y018622D01*
X010323Y018579D01*
X010225Y018541D01*
X010125Y018508D01*
X010023Y018480D01*
X009921Y018457D01*
X009817Y018439D01*
X009712Y018426D01*
X009607Y018419D01*
X009502Y018416D01*
X009397Y018419D01*
X009292Y018426D01*
X009187Y018439D01*
X009083Y018457D01*
X008981Y018480D01*
X008879Y018508D01*
X008779Y018541D01*
X008681Y018579D01*
X008584Y018622D01*
X008490Y018669D01*
X008399Y018721D01*
X008310Y018778D01*
X008224Y018838D01*
X008141Y018903D01*
X008061Y018972D01*
X007985Y019045D01*
X007912Y019121D01*
X007843Y019201D01*
X007778Y019284D01*
X007718Y019370D01*
X007661Y019459D01*
X007609Y019550D01*
X007562Y019644D01*
X007519Y019741D01*
X007481Y019839D01*
X007448Y019939D01*
X007420Y020041D01*
X007397Y020143D01*
X007379Y020247D01*
X007366Y020352D01*
X007359Y020457D01*
X007356Y020562D01*
X007081Y020562D02*
X007084Y020681D01*
X007093Y020799D01*
X007107Y020917D01*
X007128Y021034D01*
X007154Y021150D01*
X007185Y021265D01*
X007223Y021378D01*
X007265Y021488D01*
X007313Y021597D01*
X007367Y021703D01*
X007425Y021807D01*
X007489Y021907D01*
X007557Y022004D01*
X007631Y022098D01*
X007708Y022188D01*
X007790Y022274D01*
X007876Y022356D01*
X007966Y022433D01*
X008060Y022507D01*
X008157Y022575D01*
X008257Y022639D01*
X008361Y022697D01*
X008467Y022751D01*
X008576Y022799D01*
X008686Y022841D01*
X008799Y022879D01*
X008914Y022910D01*
X009030Y022936D01*
X009147Y022957D01*
X009265Y022971D01*
X009383Y022980D01*
X009502Y022983D01*
X009621Y022980D01*
X009739Y022971D01*
X009857Y022957D01*
X009974Y022936D01*
X010090Y022910D01*
X010205Y022879D01*
X010318Y022841D01*
X010428Y022799D01*
X010537Y022751D01*
X010643Y022697D01*
X010747Y022639D01*
X010847Y022575D01*
X010944Y022507D01*
X011038Y022433D01*
X011128Y022356D01*
X011214Y022274D01*
X011296Y022188D01*
X011373Y022098D01*
X011447Y022004D01*
X011515Y021907D01*
X011579Y021807D01*
X011637Y021703D01*
X011691Y021597D01*
X011739Y021488D01*
X011781Y021378D01*
X011819Y021265D01*
X011850Y021150D01*
X011876Y021034D01*
X011897Y020917D01*
X011911Y020799D01*
X011920Y020681D01*
X011923Y020562D01*
X011920Y020443D01*
X011911Y020325D01*
X011897Y020207D01*
X011876Y020090D01*
X011850Y019974D01*
X011819Y019859D01*
X011781Y019746D01*
X011739Y019636D01*
X011691Y019527D01*
X011637Y019421D01*
X011579Y019317D01*
X011515Y019217D01*
X011447Y019120D01*
X011373Y019026D01*
X011296Y018936D01*
X011214Y018850D01*
X011128Y018768D01*
X011038Y018691D01*
X010944Y018617D01*
X010847Y018549D01*
X010747Y018485D01*
X010643Y018427D01*
X010537Y018373D01*
X010428Y018325D01*
X010318Y018283D01*
X010205Y018245D01*
X010090Y018214D01*
X009974Y018188D01*
X009857Y018167D01*
X009739Y018153D01*
X009621Y018144D01*
X009502Y018141D01*
X009383Y018144D01*
X009265Y018153D01*
X009147Y018167D01*
X009030Y018188D01*
X008914Y018214D01*
X008799Y018245D01*
X008686Y018283D01*
X008576Y018325D01*
X008467Y018373D01*
X008361Y018427D01*
X008257Y018485D01*
X008157Y018549D01*
X008060Y018617D01*
X007966Y018691D01*
X007876Y018768D01*
X007790Y018850D01*
X007708Y018936D01*
X007631Y019026D01*
X007557Y019120D01*
X007489Y019217D01*
X007425Y019317D01*
X007367Y019421D01*
X007313Y019527D01*
X007265Y019636D01*
X007223Y019746D01*
X007185Y019859D01*
X007154Y019974D01*
X007128Y020090D01*
X007107Y020207D01*
X007093Y020325D01*
X007084Y020443D01*
X007081Y020562D01*
D28*
X015002Y003012D02*
X015002Y002912D01*
X016002Y002912D01*
X016002Y003012D01*
X015952Y000712D02*
X015002Y000712D01*
X015002Y000612D01*
X015952Y000612D02*
X015952Y000712D01*
D29*
X022252Y017662D03*
D30*
X022252Y017037D03*
X022252Y019587D03*
M02*
