G75*
G70*
%OFA0B0*%
%FSLAX24Y24*%
%IPPOS*%
%LPD*%
%AMOC8*
5,1,8,0,0,1.08239X$1,22.5*
%
%ADD10C,0.0520*%
%ADD11OC8,0.0520*%
%ADD12C,0.0600*%
%ADD13OC8,0.0600*%
%ADD14C,0.0515*%
%ADD15C,0.1000*%
%ADD16OC8,0.1000*%
%ADD17C,0.0660*%
%ADD18C,0.0650*%
%ADD19C,0.0520*%
%ADD20OC8,0.0660*%
%ADD21C,0.0160*%
%ADD22OC8,0.0475*%
%ADD23OC8,0.0500*%
%ADD24C,0.0591*%
%ADD25C,0.0240*%
%ADD26C,0.0475*%
%ADD27C,0.0320*%
%ADD28C,0.0396*%
%ADD29C,0.0000*%
D10*
X012273Y006312D02*
X012793Y006312D01*
X012793Y007312D02*
X012273Y007312D01*
X012273Y008312D02*
X012793Y008312D01*
X012793Y009312D02*
X012273Y009312D01*
X012273Y010312D02*
X012793Y010312D01*
X012793Y011312D02*
X012273Y011312D01*
X012273Y012312D02*
X012793Y012312D01*
X012793Y013312D02*
X012273Y013312D01*
X012273Y014312D02*
X012793Y014312D01*
X012793Y015312D02*
X012273Y015312D01*
X015273Y015312D02*
X015793Y015312D01*
X015793Y014312D02*
X015273Y014312D01*
X015273Y013312D02*
X015793Y013312D01*
X015793Y012312D02*
X015273Y012312D01*
X015273Y011312D02*
X015793Y011312D01*
X015793Y010312D02*
X015273Y010312D01*
X015273Y009312D02*
X015793Y009312D01*
X015793Y008312D02*
X015273Y008312D01*
X015273Y007312D02*
X015793Y007312D01*
X015793Y006312D02*
X015273Y006312D01*
X022252Y016052D02*
X022252Y016572D01*
X022252Y020052D02*
X022252Y020572D01*
X017012Y020562D02*
X016492Y020562D01*
X016492Y021562D02*
X017012Y021562D01*
X017012Y019562D02*
X016492Y019562D01*
X016492Y018562D02*
X017012Y018562D01*
X014012Y018562D02*
X013492Y018562D01*
X013492Y019562D02*
X014012Y019562D01*
X014012Y020562D02*
X013492Y020562D01*
X013492Y021562D02*
X014012Y021562D01*
X007012Y018812D02*
X006492Y018812D01*
X006461Y017719D02*
X006981Y017719D01*
X003012Y018812D02*
X002492Y018812D01*
X002461Y017719D02*
X002981Y017719D01*
D11*
X009502Y017375D03*
X011127Y017875D03*
X011877Y017375D03*
X012752Y017562D03*
X012752Y018562D03*
X012752Y019562D03*
X011127Y016875D03*
X009502Y015375D03*
X016533Y014812D03*
X018533Y014812D03*
X018471Y015844D03*
X018752Y017062D03*
X016752Y017562D03*
X019783Y014781D03*
X019783Y013781D03*
X019783Y012781D03*
X019783Y011781D03*
X020689Y010719D03*
X022783Y011781D03*
X022783Y012781D03*
X022783Y013781D03*
X022783Y014781D03*
X023877Y014250D03*
X024377Y015000D03*
X024877Y014250D03*
X024627Y013187D03*
X025627Y013187D03*
X025127Y011937D03*
X024627Y011187D03*
X024127Y011937D03*
X023189Y010000D03*
X022189Y008469D03*
X023096Y006719D03*
X025096Y006719D03*
X025189Y008469D03*
X025189Y010000D03*
X020689Y006719D03*
X019627Y007406D03*
X019627Y005406D03*
X019346Y004531D03*
X020689Y004656D03*
X022221Y004594D03*
X023564Y004625D03*
X023564Y001625D03*
X022221Y001594D03*
X020689Y001656D03*
X016346Y004531D03*
X014783Y004187D03*
X014033Y004687D03*
X014783Y005187D03*
X012564Y004687D03*
X012564Y002687D03*
X011502Y001812D03*
X010502Y001812D03*
X009502Y001312D03*
X008502Y004312D03*
X008502Y005312D03*
X009502Y005312D03*
X004502Y005312D03*
X004502Y004312D03*
X016658Y010312D03*
X016658Y012312D03*
X021471Y015844D03*
X023377Y016406D03*
X024377Y016406D03*
X018752Y021062D03*
X016752Y022812D03*
X012752Y022812D03*
D12*
X005802Y015312D02*
X005202Y015312D01*
X005202Y014312D02*
X005802Y014312D01*
X005802Y013312D02*
X005202Y013312D01*
X005202Y012312D02*
X005802Y012312D01*
X005802Y011312D02*
X005202Y011312D01*
X005202Y010312D02*
X005802Y010312D01*
X005802Y009312D02*
X005202Y009312D01*
X005202Y008312D02*
X005802Y008312D01*
X005802Y007312D02*
X005202Y007312D01*
X005202Y006312D02*
X005802Y006312D01*
X013922Y002702D02*
X014522Y002702D01*
X016482Y002702D02*
X017082Y002702D01*
X017082Y000922D02*
X016482Y000922D01*
X014522Y000922D02*
X013922Y000922D01*
X017608Y006312D02*
X018208Y006312D01*
X018208Y007312D02*
X017608Y007312D01*
X017608Y008312D02*
X018208Y008312D01*
X018208Y009312D02*
X017608Y009312D01*
X017608Y010312D02*
X018208Y010312D01*
X018208Y011312D02*
X017608Y011312D01*
D13*
X008283Y015687D03*
X008283Y016687D03*
X008283Y017687D03*
X003752Y016312D03*
X002752Y016312D03*
X002752Y015312D03*
X003752Y015312D03*
X003752Y014312D03*
X002752Y014312D03*
X002752Y013312D03*
X003752Y013312D03*
X003752Y012312D03*
X002752Y012312D03*
X002752Y011312D03*
X003752Y011312D03*
X003752Y010312D03*
X002752Y010312D03*
X002752Y009312D03*
X003752Y009312D03*
X003752Y008312D03*
X002752Y008312D03*
X002752Y007312D03*
X003752Y007312D03*
D14*
X020002Y017062D03*
X020002Y022062D03*
D15*
X024502Y017812D03*
X005002Y022312D03*
D16*
X005002Y020312D03*
X024502Y019812D03*
X026252Y016062D03*
X026252Y004812D03*
D17*
X021252Y018062D03*
X021252Y022062D03*
X000846Y020250D03*
D18*
X009177Y019578D02*
X009827Y019578D01*
X009827Y021547D02*
X009177Y021547D01*
D19*
X008583Y010625D03*
X010483Y010625D03*
D20*
X007064Y006125D03*
D21*
X000572Y009441D02*
X000572Y000632D01*
X013371Y000632D01*
X013302Y000799D01*
X013302Y001046D01*
X013396Y001274D01*
X013571Y001448D01*
X013799Y001542D01*
X014645Y001542D01*
X014873Y001448D01*
X015048Y001274D01*
X015142Y001046D01*
X015142Y000799D01*
X015073Y000632D01*
X015931Y000632D01*
X015862Y000799D01*
X015862Y001046D01*
X015956Y001274D01*
X016131Y001448D01*
X016359Y001542D01*
X017205Y001542D01*
X017433Y001448D01*
X017608Y001274D01*
X017702Y001046D01*
X017702Y000799D01*
X017633Y000632D01*
X026682Y000632D01*
X026682Y009441D01*
X026672Y009441D01*
X026545Y009441D01*
X026427Y009490D01*
X026337Y009580D01*
X026288Y009698D01*
X026288Y014028D01*
X026288Y014156D01*
X026337Y014273D01*
X026427Y014363D01*
X026545Y014412D01*
X026682Y014412D01*
X026682Y023242D01*
X017142Y023242D01*
X017332Y023053D01*
X017332Y022572D01*
X016992Y022232D01*
X016512Y022232D01*
X016172Y022572D01*
X016172Y023053D01*
X016362Y023242D01*
X013142Y023242D01*
X013332Y023053D01*
X013332Y022572D01*
X012992Y022232D01*
X012512Y022232D01*
X012172Y022572D01*
X012172Y023053D01*
X012362Y023242D01*
X000572Y023242D01*
X000572Y014412D01*
X000709Y014412D01*
X000827Y014363D01*
X000917Y014273D01*
X000966Y014156D01*
X000966Y014028D01*
X000966Y009698D01*
X000917Y009580D01*
X000827Y009490D01*
X000709Y009441D01*
X000582Y009441D01*
X000572Y009441D01*
X000572Y009349D02*
X002132Y009349D01*
X002132Y009191D02*
X000572Y009191D01*
X000572Y009032D02*
X002155Y009032D01*
X002132Y009056D02*
X002375Y008812D01*
X002132Y008569D01*
X002132Y008056D01*
X002375Y007812D01*
X002132Y007569D01*
X002132Y007056D01*
X002495Y006692D01*
X003009Y006692D01*
X003252Y006936D01*
X003495Y006692D01*
X004009Y006692D01*
X004372Y007056D01*
X004372Y007569D01*
X004129Y007812D01*
X004372Y008056D01*
X004372Y008569D01*
X004129Y008812D01*
X004372Y009056D01*
X004372Y009569D01*
X004129Y009812D01*
X004372Y010056D01*
X004372Y010127D01*
X004525Y009973D01*
X004672Y009912D01*
X004725Y009912D01*
X004825Y009812D01*
X004676Y009664D01*
X004582Y009436D01*
X004582Y009189D01*
X004676Y008961D01*
X004825Y008812D01*
X004676Y008664D01*
X004582Y008436D01*
X004582Y008189D01*
X004676Y007961D01*
X004851Y007787D01*
X004972Y007737D01*
X004930Y007719D01*
X004795Y007584D01*
X004722Y007408D01*
X004722Y007332D01*
X005482Y007332D01*
X005482Y007292D01*
X004722Y007292D01*
X004722Y007217D01*
X004795Y007041D01*
X004930Y006906D01*
X004972Y006888D01*
X004851Y006838D01*
X004676Y006664D01*
X004582Y006436D01*
X004582Y006189D01*
X004676Y005961D01*
X004851Y005787D01*
X005079Y005692D01*
X005925Y005692D01*
X006153Y005787D01*
X006328Y005961D01*
X006414Y006171D01*
X006414Y005856D01*
X006795Y005475D01*
X007334Y005475D01*
X007714Y005856D01*
X007714Y006394D01*
X007334Y006775D01*
X006795Y006775D01*
X006422Y006402D01*
X006422Y006436D01*
X006328Y006664D01*
X006153Y006838D01*
X006032Y006888D01*
X006074Y006906D01*
X006209Y007041D01*
X006282Y007217D01*
X006282Y007292D01*
X005522Y007292D01*
X005522Y007332D01*
X006282Y007332D01*
X006282Y007408D01*
X006260Y007461D01*
X011707Y007461D01*
X011693Y007428D01*
X011693Y007197D01*
X011782Y006984D01*
X011945Y006821D01*
X011965Y006812D01*
X011945Y006804D01*
X011782Y006641D01*
X011693Y006428D01*
X011693Y006197D01*
X011782Y005984D01*
X011945Y005821D01*
X012158Y005732D01*
X012909Y005732D01*
X013122Y005821D01*
X013285Y005984D01*
X013373Y006197D01*
X013373Y006428D01*
X013285Y006641D01*
X013122Y006804D01*
X013102Y006812D01*
X013122Y006821D01*
X013285Y006984D01*
X013373Y007197D01*
X013373Y007428D01*
X013285Y007641D01*
X013122Y007804D01*
X013102Y007812D01*
X013122Y007821D01*
X013285Y007984D01*
X013373Y008197D01*
X013373Y008428D01*
X013285Y008641D01*
X013122Y008804D01*
X013102Y008812D01*
X013122Y008821D01*
X013285Y008984D01*
X013373Y009197D01*
X013373Y009428D01*
X013285Y009641D01*
X013122Y009804D01*
X013102Y009812D01*
X013122Y009821D01*
X013285Y009984D01*
X013373Y010197D01*
X013373Y010428D01*
X013285Y010641D01*
X013122Y010804D01*
X012919Y010888D01*
X013042Y010939D01*
X013166Y011063D01*
X013233Y011225D01*
X013233Y011312D01*
X012534Y011312D01*
X012534Y011313D01*
X013233Y011313D01*
X013233Y011400D01*
X013166Y011562D01*
X013042Y011685D01*
X012919Y011737D01*
X013122Y011821D01*
X013285Y011984D01*
X013373Y012197D01*
X013373Y012412D01*
X013477Y012412D01*
X013477Y011357D01*
X013319Y011200D01*
X013319Y010738D01*
X013646Y010411D01*
X014108Y010411D01*
X014434Y010738D01*
X014434Y011033D01*
X014494Y010973D01*
X014641Y010912D01*
X014853Y010912D01*
X014945Y010821D01*
X014965Y010812D01*
X014945Y010804D01*
X014782Y010641D01*
X014693Y010428D01*
X014693Y010197D01*
X014782Y009984D01*
X013285Y009984D01*
X013350Y010142D02*
X014716Y010142D01*
X014693Y010301D02*
X013373Y010301D01*
X013360Y010459D02*
X013598Y010459D01*
X013440Y010618D02*
X013295Y010618D01*
X013319Y010776D02*
X013150Y010776D01*
X013031Y010935D02*
X013319Y010935D01*
X013319Y011093D02*
X013179Y011093D01*
X013233Y011252D02*
X013372Y011252D01*
X013477Y011410D02*
X013229Y011410D01*
X013159Y011569D02*
X013477Y011569D01*
X013477Y011728D02*
X012941Y011728D01*
X013187Y011886D02*
X013477Y011886D01*
X013477Y012045D02*
X013310Y012045D01*
X013373Y012203D02*
X013477Y012203D01*
X013477Y012362D02*
X013373Y012362D01*
X013721Y012812D02*
X013877Y012656D01*
X013877Y010969D01*
X014434Y010935D02*
X014587Y010935D01*
X014434Y010776D02*
X014917Y010776D01*
X014772Y010618D02*
X014314Y010618D01*
X014156Y010459D02*
X014706Y010459D01*
X014782Y009984D02*
X014945Y009821D01*
X014965Y009812D01*
X014945Y009804D01*
X014782Y009641D01*
X014693Y009428D01*
X014693Y009197D01*
X014782Y008984D01*
X014945Y008821D01*
X014965Y008812D01*
X014945Y008804D01*
X014782Y008641D01*
X014693Y008428D01*
X014693Y008197D01*
X014782Y007984D01*
X014945Y007821D01*
X014965Y007812D01*
X014945Y007804D01*
X014782Y007641D01*
X014693Y007428D01*
X014693Y007197D01*
X014782Y006984D01*
X014945Y006821D01*
X014965Y006812D01*
X014945Y006804D01*
X014782Y006641D01*
X014693Y006428D01*
X014693Y006197D01*
X014782Y005984D01*
X014945Y005821D01*
X015158Y005732D01*
X015909Y005732D01*
X016122Y005821D01*
X016285Y005984D01*
X016373Y006197D01*
X016373Y006428D01*
X016285Y006641D01*
X016122Y006804D01*
X016102Y006812D01*
X016122Y006821D01*
X016285Y006984D01*
X016373Y007197D01*
X016373Y007428D01*
X016285Y007641D01*
X016122Y007804D01*
X016102Y007812D01*
X016122Y007821D01*
X016285Y007984D01*
X016373Y008197D01*
X016373Y008428D01*
X016285Y008641D01*
X016122Y008804D01*
X016102Y008812D01*
X016122Y008821D01*
X016285Y008984D01*
X016373Y009197D01*
X016373Y009428D01*
X016285Y009641D01*
X016122Y009804D01*
X016102Y009812D01*
X016122Y009821D01*
X016226Y009925D01*
X016418Y009732D01*
X016898Y009732D01*
X017105Y009939D01*
X017231Y009812D01*
X017083Y009664D01*
X016988Y009436D01*
X016988Y009189D01*
X017083Y008961D01*
X017231Y008812D01*
X017083Y008664D01*
X016988Y008436D01*
X016988Y008189D01*
X017083Y007961D01*
X017231Y007812D01*
X017083Y007664D01*
X016988Y007436D01*
X016988Y007189D01*
X017083Y006961D01*
X017257Y006787D01*
X017378Y006737D01*
X017336Y006719D01*
X017201Y006584D01*
X017128Y006408D01*
X017128Y006332D01*
X017888Y006332D01*
X017888Y006292D01*
X017928Y006292D01*
X017928Y005832D01*
X018304Y005832D01*
X018480Y005906D01*
X018571Y005996D01*
X018571Y004986D01*
X018571Y004827D01*
X018632Y004680D01*
X018752Y004559D01*
X018101Y003909D01*
X015127Y003909D01*
X015223Y004005D01*
X015223Y004187D01*
X014784Y004187D01*
X014784Y004188D01*
X015223Y004188D01*
X015223Y004370D01*
X014985Y004607D01*
X015023Y004607D01*
X015363Y004947D01*
X015363Y005428D01*
X015023Y005767D01*
X014543Y005767D01*
X014203Y005428D01*
X014203Y005267D01*
X013793Y005267D01*
X013453Y004928D01*
X013453Y004447D01*
X013793Y004107D01*
X014273Y004107D01*
X014343Y004177D01*
X014343Y004005D01*
X014440Y003909D01*
X012809Y003909D01*
X012610Y004107D01*
X012805Y004107D01*
X013144Y004447D01*
X013144Y004928D01*
X012805Y005267D01*
X012324Y005267D01*
X011984Y004928D01*
X011984Y004733D01*
X011187Y005530D01*
X011064Y005654D01*
X010902Y005721D01*
X009913Y005721D01*
X009742Y005892D01*
X009262Y005892D01*
X009002Y005633D01*
X008742Y005892D01*
X008262Y005892D01*
X007922Y005553D01*
X007922Y005072D01*
X008182Y004812D01*
X007922Y004553D01*
X007922Y004072D01*
X008262Y003732D01*
X008742Y003732D01*
X009082Y004072D01*
X009082Y004553D01*
X008822Y004812D01*
X009002Y004992D01*
X009262Y004732D01*
X009742Y004732D01*
X009851Y004841D01*
X010632Y004841D01*
X012254Y003219D01*
X012364Y003109D01*
X012124Y002870D01*
X012124Y002688D01*
X012564Y002688D01*
X012564Y002687D01*
X012565Y002687D01*
X012565Y002688D01*
X013004Y002688D01*
X013004Y002870D01*
X012845Y003029D01*
X013569Y003029D01*
X013515Y002974D01*
X013442Y002798D01*
X013442Y002722D01*
X014202Y002722D01*
X014202Y002682D01*
X014242Y002682D01*
X014242Y002222D01*
X014617Y002222D01*
X014794Y002296D01*
X014929Y002431D01*
X015002Y002607D01*
X015002Y002682D01*
X014242Y002682D01*
X014242Y002722D01*
X015002Y002722D01*
X015002Y002798D01*
X014929Y002974D01*
X014874Y003029D01*
X016129Y003029D01*
X016075Y002974D01*
X016002Y002798D01*
X016002Y002722D01*
X016762Y002722D01*
X016762Y002682D01*
X016802Y002682D01*
X016802Y002222D01*
X017177Y002222D01*
X017354Y002296D01*
X017489Y002431D01*
X017562Y002607D01*
X017562Y002682D01*
X016802Y002682D01*
X016802Y002722D01*
X017562Y002722D01*
X017562Y002798D01*
X017489Y002974D01*
X017434Y003029D01*
X018196Y003029D01*
X018371Y003029D01*
X018532Y003096D01*
X019388Y003951D01*
X019586Y003951D01*
X019926Y004291D01*
X019926Y004771D01*
X019731Y004966D01*
X019809Y004966D01*
X020067Y005224D01*
X020067Y005406D01*
X019627Y005406D01*
X019627Y005406D01*
X020067Y005406D01*
X020067Y005588D01*
X019809Y005846D01*
X019627Y005846D01*
X019627Y005406D01*
X019627Y005406D01*
X019627Y005846D01*
X019445Y005846D01*
X019371Y005772D01*
X019371Y006842D01*
X019387Y006826D01*
X019867Y006826D01*
X020207Y007166D01*
X020207Y007646D01*
X019867Y007986D01*
X019772Y007986D01*
X019822Y008036D01*
X019822Y008036D01*
X019935Y008148D01*
X019996Y008295D01*
X019996Y009459D01*
X020675Y010139D01*
X020930Y010139D01*
X021269Y010478D01*
X021269Y010959D01*
X020930Y011299D01*
X020449Y011299D01*
X020109Y010959D01*
X020109Y010704D01*
X019257Y009852D01*
X019196Y009705D01*
X019196Y009545D01*
X019196Y008541D01*
X018817Y008162D01*
X018828Y008189D01*
X018828Y008436D01*
X018734Y008664D01*
X018585Y008812D01*
X018734Y008961D01*
X018828Y009189D01*
X018828Y009436D01*
X018734Y009664D01*
X018585Y009812D01*
X018734Y009961D01*
X018828Y010189D01*
X018828Y010436D01*
X018734Y010664D01*
X018585Y010812D01*
X018734Y010961D01*
X018828Y011189D01*
X018828Y011436D01*
X018734Y011664D01*
X018559Y011838D01*
X018348Y011925D01*
X018348Y014232D01*
X018773Y014232D01*
X019113Y014572D01*
X019113Y015053D01*
X018806Y015359D01*
X019051Y015604D01*
X019051Y016084D01*
X018711Y016424D01*
X018230Y016424D01*
X017891Y016084D01*
X017891Y015765D01*
X017437Y016218D01*
X017314Y016342D01*
X017152Y016409D01*
X012215Y016409D01*
X011829Y016795D01*
X012117Y016795D01*
X012457Y017135D01*
X012457Y017235D01*
X012570Y017122D01*
X012752Y017122D01*
X012934Y017122D01*
X013192Y017380D01*
X013192Y017562D01*
X012752Y017562D01*
X012752Y017122D01*
X012752Y017562D01*
X012752Y017562D01*
X012752Y017563D01*
X012752Y017563D01*
X012752Y018002D01*
X012934Y018002D01*
X013192Y017745D01*
X013192Y017563D01*
X012752Y017563D01*
X012752Y018002D01*
X012570Y018002D01*
X012320Y017752D01*
X012117Y017955D01*
X011637Y017955D01*
X011567Y017885D01*
X011567Y018057D01*
X011309Y018315D01*
X011127Y018315D01*
X011127Y017875D01*
X011127Y017875D01*
X011127Y018315D01*
X010945Y018315D01*
X010687Y018057D01*
X010687Y017875D01*
X011127Y017875D01*
X011127Y017875D01*
X010687Y017875D01*
X010687Y017693D01*
X010925Y017455D01*
X010887Y017455D01*
X010707Y017275D01*
X010113Y017275D01*
X010082Y017275D01*
X010082Y017615D01*
X009742Y017955D01*
X009262Y017955D01*
X008922Y017615D01*
X008922Y017135D01*
X009262Y016795D01*
X009388Y016795D01*
X008720Y016127D01*
X008660Y016187D01*
X008903Y016431D01*
X008903Y016944D01*
X008660Y017187D01*
X008903Y017431D01*
X008903Y017944D01*
X008540Y018307D01*
X008026Y018307D01*
X007663Y017944D01*
X007663Y017431D01*
X007906Y017187D01*
X007824Y017105D01*
X006973Y017105D01*
X006940Y017139D01*
X007096Y017139D01*
X007309Y017227D01*
X007472Y017390D01*
X007561Y017603D01*
X007561Y017834D01*
X007472Y018047D01*
X007309Y018210D01*
X007192Y018259D01*
X007340Y018321D01*
X007504Y018484D01*
X007592Y018697D01*
X007592Y018928D01*
X007504Y019141D01*
X007340Y019304D01*
X007127Y019392D01*
X006377Y019392D01*
X006163Y019304D01*
X006000Y019141D01*
X005912Y018928D01*
X005912Y018697D01*
X006000Y018484D01*
X006163Y018321D01*
X006281Y018272D01*
X006132Y018210D01*
X005969Y018047D01*
X005881Y017834D01*
X005881Y017603D01*
X005969Y017390D01*
X006132Y017227D01*
X006235Y017184D01*
X006125Y017075D01*
X006046Y016884D01*
X006046Y016678D01*
X006125Y016488D01*
X006271Y016342D01*
X006363Y016304D01*
X006449Y016218D01*
X006625Y016145D01*
X006816Y016145D01*
X007864Y016145D01*
X007663Y015944D01*
X007663Y015431D01*
X008026Y015067D01*
X008540Y015067D01*
X008729Y015256D01*
X008894Y015256D01*
X009041Y015317D01*
X009062Y015338D01*
X009062Y015193D01*
X009320Y014935D01*
X009502Y014935D01*
X009684Y014935D01*
X009942Y015193D01*
X009942Y015375D01*
X009942Y015557D01*
X009684Y015815D01*
X009539Y015815D01*
X010199Y016475D01*
X010707Y016475D01*
X010887Y016295D01*
X011085Y016295D01*
X011769Y015611D01*
X011693Y015428D01*
X011693Y015197D01*
X011782Y014984D01*
X011945Y014821D01*
X011965Y014812D01*
X011945Y014804D01*
X011782Y014641D01*
X011693Y014428D01*
X011693Y014212D01*
X006422Y014212D01*
X006422Y014436D01*
X006328Y014664D01*
X006179Y014812D01*
X006328Y014961D01*
X006422Y015189D01*
X006422Y015436D01*
X006328Y015664D01*
X006153Y015838D01*
X005925Y015932D01*
X005079Y015932D01*
X004964Y015885D01*
X004964Y016263D01*
X004980Y016263D01*
X005170Y016342D01*
X005316Y016488D01*
X005395Y016678D01*
X005395Y016884D01*
X005316Y017075D01*
X005170Y017220D01*
X004980Y017299D01*
X004774Y017299D01*
X004583Y017220D01*
X004438Y017075D01*
X004359Y016884D01*
X004359Y016806D01*
X004275Y016714D01*
X004225Y016664D01*
X004222Y016655D01*
X004215Y016648D01*
X004191Y016582D01*
X004183Y016561D01*
X003951Y016792D01*
X003772Y016792D01*
X003772Y016333D01*
X003732Y016333D01*
X003732Y016792D01*
X003553Y016792D01*
X003351Y016590D01*
X003009Y016932D01*
X002495Y016932D01*
X002132Y016569D01*
X002132Y016056D01*
X002375Y015812D01*
X002132Y015569D01*
X002132Y015056D01*
X002375Y014812D01*
X002132Y014569D01*
X002132Y014056D01*
X002375Y013812D01*
X002132Y013569D01*
X002132Y013056D01*
X002375Y012812D01*
X002132Y012569D01*
X002132Y012056D01*
X002375Y011812D01*
X002132Y011569D01*
X000966Y011569D01*
X000966Y011410D02*
X002132Y011410D01*
X002132Y011252D02*
X000966Y011252D01*
X000966Y011093D02*
X002132Y011093D01*
X002132Y011056D02*
X002375Y010812D01*
X002132Y010569D01*
X002132Y010056D01*
X002375Y009812D01*
X002132Y009569D01*
X002132Y009056D01*
X002314Y008874D02*
X000572Y008874D01*
X000572Y008715D02*
X002278Y008715D01*
X002132Y008557D02*
X000572Y008557D01*
X000572Y008398D02*
X002132Y008398D01*
X002132Y008240D02*
X000572Y008240D01*
X000572Y008081D02*
X002132Y008081D01*
X002265Y007923D02*
X000572Y007923D01*
X000572Y007764D02*
X002327Y007764D01*
X002168Y007605D02*
X000572Y007605D01*
X000572Y007447D02*
X002132Y007447D01*
X002132Y007288D02*
X000572Y007288D01*
X000572Y007130D02*
X002132Y007130D01*
X002216Y006971D02*
X000572Y006971D01*
X000572Y006813D02*
X002375Y006813D01*
X003129Y006813D02*
X003375Y006813D01*
X004129Y006813D02*
X004825Y006813D01*
X004864Y006971D02*
X004288Y006971D01*
X004372Y007130D02*
X004758Y007130D01*
X004722Y007288D02*
X004372Y007288D01*
X004372Y007447D02*
X004738Y007447D01*
X004816Y007605D02*
X004336Y007605D01*
X004177Y007764D02*
X004906Y007764D01*
X004715Y007923D02*
X004239Y007923D01*
X004372Y008081D02*
X004627Y008081D01*
X004582Y008240D02*
X004372Y008240D01*
X004372Y008398D02*
X004582Y008398D01*
X004632Y008557D02*
X004372Y008557D01*
X004226Y008715D02*
X004728Y008715D01*
X004764Y008874D02*
X004190Y008874D01*
X004349Y009032D02*
X004647Y009032D01*
X004582Y009191D02*
X004372Y009191D01*
X004372Y009349D02*
X004582Y009349D01*
X004612Y009508D02*
X004372Y009508D01*
X004275Y009666D02*
X004679Y009666D01*
X004813Y009825D02*
X004141Y009825D01*
X004300Y009984D02*
X004515Y009984D01*
X004752Y010312D02*
X004314Y010750D01*
X004314Y013375D01*
X004752Y013812D01*
X013408Y013812D01*
X014408Y012812D01*
X014408Y011625D01*
X014721Y011312D01*
X015533Y011312D01*
X016102Y010812D02*
X016122Y010821D01*
X016285Y010984D01*
X016373Y011197D01*
X016373Y011428D01*
X016285Y011641D01*
X016122Y011804D01*
X016102Y011812D01*
X016122Y011821D01*
X016285Y011984D01*
X016308Y012040D01*
X016476Y011872D01*
X016658Y011872D01*
X016658Y012312D01*
X016658Y012312D01*
X016658Y011872D01*
X016840Y011872D01*
X017098Y012130D01*
X017098Y012312D01*
X016659Y012312D01*
X016659Y012313D01*
X017098Y012313D01*
X017098Y012495D01*
X016840Y012752D01*
X016658Y012752D01*
X016476Y012752D01*
X016308Y012585D01*
X016285Y012641D01*
X016122Y012804D01*
X016102Y012812D01*
X016122Y012821D01*
X016285Y012984D01*
X016373Y013197D01*
X016373Y013428D01*
X016285Y013641D01*
X016122Y013804D01*
X016102Y013812D01*
X016122Y013821D01*
X016285Y013984D01*
X016373Y014197D01*
X016373Y014232D01*
X016773Y014232D01*
X017113Y014572D01*
X017113Y015053D01*
X016773Y015392D01*
X016373Y015392D01*
X016373Y015428D01*
X016331Y015529D01*
X016882Y015529D01*
X017468Y014943D01*
X017468Y011925D01*
X017257Y011838D01*
X017083Y011664D01*
X016988Y011436D01*
X016988Y011189D01*
X017083Y010961D01*
X017231Y010812D01*
X017105Y010686D01*
X016898Y010892D01*
X016418Y010892D01*
X016226Y010700D01*
X016122Y010804D01*
X016102Y010812D01*
X016150Y010776D02*
X016302Y010776D01*
X016236Y010935D02*
X017109Y010935D01*
X017028Y011093D02*
X016330Y011093D01*
X016373Y011252D02*
X016988Y011252D01*
X016988Y011410D02*
X016373Y011410D01*
X016315Y011569D02*
X017043Y011569D01*
X017147Y011728D02*
X016198Y011728D01*
X016187Y011886D02*
X016462Y011886D01*
X016658Y011886D02*
X016658Y011886D01*
X016658Y012045D02*
X016658Y012045D01*
X016658Y012203D02*
X016658Y012203D01*
X016658Y012313D02*
X016658Y012752D01*
X016658Y012313D01*
X016658Y012313D01*
X016658Y012362D02*
X016658Y012362D01*
X016658Y012520D02*
X016658Y012520D01*
X016658Y012679D02*
X016658Y012679D01*
X016402Y012679D02*
X016247Y012679D01*
X016138Y012837D02*
X017468Y012837D01*
X017468Y012679D02*
X016914Y012679D01*
X017073Y012520D02*
X017468Y012520D01*
X017468Y012362D02*
X017098Y012362D01*
X017098Y012203D02*
X017468Y012203D01*
X017468Y012045D02*
X017013Y012045D01*
X016854Y011886D02*
X017373Y011886D01*
X018348Y012045D02*
X019227Y012045D01*
X019203Y012021D02*
X019203Y011541D01*
X019543Y011201D01*
X020023Y011201D01*
X020363Y011541D01*
X020363Y012021D01*
X020103Y012281D01*
X020363Y012541D01*
X020363Y013021D01*
X020103Y013281D01*
X020363Y013541D01*
X020363Y014021D01*
X020103Y014281D01*
X020363Y014541D01*
X020363Y015021D01*
X020023Y015361D01*
X019543Y015361D01*
X019203Y015021D01*
X019203Y014541D01*
X019463Y014281D01*
X019203Y014021D01*
X019203Y013541D01*
X019463Y013281D01*
X019203Y013021D01*
X019203Y012541D01*
X019463Y012281D01*
X019203Y012021D01*
X019203Y011886D02*
X018443Y011886D01*
X018670Y011728D02*
X019203Y011728D01*
X019203Y011569D02*
X018773Y011569D01*
X018828Y011410D02*
X019334Y011410D01*
X019492Y011252D02*
X018828Y011252D01*
X018789Y011093D02*
X020244Y011093D01*
X020109Y010935D02*
X018707Y010935D01*
X018621Y010776D02*
X020109Y010776D01*
X020023Y010618D02*
X018753Y010618D01*
X018819Y010459D02*
X019864Y010459D01*
X019706Y010301D02*
X018828Y010301D01*
X018809Y010142D02*
X019547Y010142D01*
X019389Y009984D02*
X018743Y009984D01*
X018598Y009825D02*
X019246Y009825D01*
X019196Y009666D02*
X018731Y009666D01*
X018798Y009508D02*
X019196Y009508D01*
X019196Y009349D02*
X018828Y009349D01*
X018828Y009191D02*
X019196Y009191D01*
X019196Y009032D02*
X018763Y009032D01*
X018646Y008874D02*
X019196Y008874D01*
X019196Y008715D02*
X018682Y008715D01*
X018778Y008557D02*
X019196Y008557D01*
X019053Y008398D02*
X018828Y008398D01*
X018828Y008240D02*
X018895Y008240D01*
X018971Y007750D02*
X018971Y004906D01*
X019346Y004531D01*
X019752Y004117D02*
X021877Y004117D01*
X021980Y004014D02*
X021641Y004354D01*
X021641Y004834D01*
X021980Y005174D01*
X022461Y005174D01*
X022801Y004834D01*
X022801Y004354D01*
X022461Y004014D01*
X021980Y004014D01*
X021718Y004276D02*
X020932Y004276D01*
X020872Y004216D02*
X021129Y004474D01*
X021129Y004656D01*
X020690Y004656D01*
X020690Y004656D01*
X021129Y004656D01*
X021129Y004838D01*
X020872Y005096D01*
X020690Y005096D01*
X020690Y004656D01*
X020690Y004216D01*
X020872Y004216D01*
X020689Y004216D02*
X020689Y004656D01*
X020249Y004656D01*
X020249Y004474D01*
X020507Y004216D01*
X020689Y004216D01*
X020689Y004276D02*
X020690Y004276D01*
X020689Y004435D02*
X020690Y004435D01*
X020689Y004593D02*
X020690Y004593D01*
X020689Y004656D02*
X020690Y004656D01*
X020689Y004656D01*
X020689Y004656D01*
X020249Y004656D01*
X020249Y004838D01*
X020507Y005096D01*
X020689Y005096D01*
X020689Y004656D01*
X020689Y004752D02*
X020690Y004752D01*
X020689Y004910D02*
X020690Y004910D01*
X020689Y005069D02*
X020690Y005069D01*
X020899Y005069D02*
X021875Y005069D01*
X021717Y004910D02*
X021058Y004910D01*
X021129Y004752D02*
X021641Y004752D01*
X021641Y004593D02*
X021129Y004593D01*
X021090Y004435D02*
X021641Y004435D01*
X022565Y004117D02*
X023252Y004117D01*
X023324Y004045D02*
X022984Y004385D01*
X022984Y004865D01*
X023324Y005205D01*
X023805Y005205D01*
X024144Y004865D01*
X024144Y004385D01*
X023805Y004045D01*
X023324Y004045D01*
X023093Y004276D02*
X022723Y004276D01*
X022801Y004435D02*
X022984Y004435D01*
X022984Y004593D02*
X022801Y004593D01*
X022801Y004752D02*
X022984Y004752D01*
X023030Y004910D02*
X022724Y004910D01*
X022566Y005069D02*
X023188Y005069D01*
X023941Y005069D02*
X026682Y005069D01*
X026682Y005227D02*
X020067Y005227D01*
X020067Y005386D02*
X026682Y005386D01*
X026682Y005544D02*
X020067Y005544D01*
X019952Y005703D02*
X026682Y005703D01*
X026682Y005861D02*
X019371Y005861D01*
X019371Y006020D02*
X026682Y006020D01*
X026682Y006179D02*
X025376Y006179D01*
X025336Y006139D02*
X025676Y006478D01*
X025676Y006959D01*
X025336Y007299D01*
X024855Y007299D01*
X024516Y006959D01*
X024516Y006478D01*
X024855Y006139D01*
X025336Y006139D01*
X025534Y006337D02*
X026682Y006337D01*
X026682Y006496D02*
X025676Y006496D01*
X025676Y006654D02*
X026682Y006654D01*
X026682Y006813D02*
X025676Y006813D01*
X025663Y006971D02*
X026682Y006971D01*
X026682Y007130D02*
X025505Y007130D01*
X025346Y007288D02*
X026682Y007288D01*
X026682Y007447D02*
X020207Y007447D01*
X020207Y007605D02*
X026682Y007605D01*
X026682Y007764D02*
X020089Y007764D01*
X019931Y007923D02*
X021915Y007923D01*
X021949Y007889D02*
X022430Y007889D01*
X022769Y008228D01*
X022769Y008709D01*
X022430Y009049D01*
X021949Y009049D01*
X021609Y008709D01*
X021609Y008228D01*
X021949Y007889D01*
X021757Y008081D02*
X019867Y008081D01*
X019973Y008240D02*
X021609Y008240D01*
X021609Y008398D02*
X019996Y008398D01*
X019996Y008557D02*
X021609Y008557D01*
X021616Y008715D02*
X019996Y008715D01*
X019996Y008874D02*
X021774Y008874D01*
X021933Y009032D02*
X019996Y009032D01*
X019996Y009191D02*
X026682Y009191D01*
X026682Y009349D02*
X019996Y009349D01*
X020044Y009508D02*
X022861Y009508D01*
X022949Y009420D02*
X022609Y009760D01*
X022609Y010240D01*
X022949Y010580D01*
X023430Y010580D01*
X023769Y010240D01*
X023769Y009760D01*
X023430Y009420D01*
X022949Y009420D01*
X022703Y009666D02*
X020203Y009666D01*
X020361Y009825D02*
X022609Y009825D01*
X022609Y009984D02*
X020520Y009984D01*
X020933Y010142D02*
X022609Y010142D01*
X022670Y010301D02*
X021092Y010301D01*
X021250Y010459D02*
X022828Y010459D01*
X023550Y010459D02*
X024828Y010459D01*
X024867Y010607D02*
X024387Y010607D01*
X024047Y010947D01*
X024047Y011357D01*
X023887Y011357D01*
X023547Y011697D01*
X023547Y012178D01*
X023887Y012517D01*
X024367Y012517D01*
X024627Y012258D01*
X024887Y012517D01*
X025367Y012517D01*
X025707Y012178D01*
X025707Y011697D01*
X025367Y011357D01*
X025207Y011357D01*
X025207Y010947D01*
X024867Y010607D01*
X024878Y010618D02*
X026288Y010618D01*
X026288Y010776D02*
X025036Y010776D01*
X024949Y010580D02*
X024609Y010240D01*
X024609Y009760D01*
X024949Y009420D01*
X025430Y009420D01*
X025769Y009760D01*
X025769Y010240D01*
X025430Y010580D01*
X024949Y010580D01*
X024670Y010301D02*
X023709Y010301D01*
X023769Y010142D02*
X024609Y010142D01*
X024609Y009984D02*
X023769Y009984D01*
X023769Y009825D02*
X024609Y009825D01*
X024703Y009666D02*
X023676Y009666D01*
X023518Y009508D02*
X024861Y009508D01*
X025007Y008909D02*
X024749Y008651D01*
X024749Y008469D01*
X025189Y008469D01*
X025189Y008468D01*
X025190Y008468D01*
X025190Y008469D01*
X025629Y008469D01*
X025629Y008651D01*
X025372Y008909D01*
X025190Y008909D01*
X025190Y008469D01*
X025189Y008469D01*
X025189Y008909D01*
X025007Y008909D01*
X024972Y008874D02*
X022605Y008874D01*
X022763Y008715D02*
X024814Y008715D01*
X024749Y008557D02*
X022769Y008557D01*
X022769Y008398D02*
X024749Y008398D01*
X024749Y008468D02*
X024749Y008286D01*
X025007Y008029D01*
X025189Y008029D01*
X025189Y008468D01*
X024749Y008468D01*
X024796Y008240D02*
X022769Y008240D01*
X022622Y008081D02*
X024955Y008081D01*
X025189Y008081D02*
X025190Y008081D01*
X025190Y008029D02*
X025372Y008029D01*
X025629Y008286D01*
X025629Y008468D01*
X025190Y008468D01*
X025190Y008029D01*
X025189Y008240D02*
X025190Y008240D01*
X025189Y008398D02*
X025190Y008398D01*
X025189Y008469D02*
X025252Y008531D01*
X025814Y008531D01*
X026252Y008094D01*
X026252Y004812D01*
X026682Y004752D02*
X024144Y004752D01*
X024144Y004593D02*
X026682Y004593D01*
X026682Y004435D02*
X024144Y004435D01*
X024036Y004276D02*
X026682Y004276D01*
X026682Y004117D02*
X023877Y004117D01*
X024099Y004910D02*
X026682Y004910D01*
X026682Y003959D02*
X019594Y003959D01*
X019237Y003800D02*
X026682Y003800D01*
X026682Y003642D02*
X019079Y003642D01*
X018920Y003483D02*
X026682Y003483D01*
X026682Y003325D02*
X018762Y003325D01*
X018603Y003166D02*
X025287Y003166D01*
X025329Y003184D02*
X025008Y003051D01*
X024763Y002806D01*
X024631Y002486D01*
X024631Y002139D01*
X024763Y001819D01*
X025008Y001574D01*
X025329Y001441D01*
X025675Y001441D01*
X025995Y001574D01*
X026240Y001819D01*
X026373Y002139D01*
X026373Y002486D01*
X026240Y002806D01*
X025995Y003051D01*
X025675Y003184D01*
X025329Y003184D01*
X024965Y003008D02*
X017456Y003008D01*
X017541Y002849D02*
X024807Y002849D01*
X024716Y002691D02*
X016802Y002691D01*
X016762Y002691D02*
X014242Y002691D01*
X014202Y002691D02*
X013004Y002691D01*
X013004Y002687D02*
X012565Y002687D01*
X012565Y002247D01*
X012747Y002247D01*
X013004Y002505D01*
X013004Y002687D01*
X013004Y002532D02*
X013473Y002532D01*
X013442Y002607D02*
X013515Y002431D01*
X013650Y002296D01*
X013826Y002222D01*
X014202Y002222D01*
X014202Y002682D01*
X013442Y002682D01*
X013442Y002607D01*
X013463Y002849D02*
X013004Y002849D01*
X012866Y003008D02*
X013548Y003008D01*
X013572Y002374D02*
X012873Y002374D01*
X012565Y002374D02*
X012564Y002374D01*
X012564Y002247D02*
X012564Y002687D01*
X012124Y002687D01*
X012124Y002505D01*
X012382Y002247D01*
X012564Y002247D01*
X012564Y002532D02*
X012565Y002532D01*
X012256Y002374D02*
X011761Y002374D01*
X011742Y002392D02*
X011262Y002392D01*
X011002Y002133D01*
X010742Y002392D01*
X010262Y002392D01*
X009922Y002053D01*
X009922Y001713D01*
X009742Y001892D01*
X009262Y001892D01*
X008922Y001553D01*
X008922Y001072D01*
X009262Y000732D01*
X009742Y000732D01*
X010082Y001072D01*
X010082Y001412D01*
X010262Y001232D01*
X010742Y001232D01*
X011002Y001492D01*
X011262Y001232D01*
X011742Y001232D01*
X012082Y001572D01*
X012082Y002053D01*
X011742Y002392D01*
X011920Y002215D02*
X015034Y002215D01*
X014980Y002161D02*
X015153Y002334D01*
X015380Y002428D01*
X015624Y002428D01*
X015850Y002334D01*
X016024Y002161D01*
X016117Y001935D01*
X016117Y001690D01*
X016024Y001464D01*
X015850Y001291D01*
X015624Y001197D01*
X015380Y001197D01*
X015153Y001291D01*
X014980Y001464D01*
X014887Y001690D01*
X014887Y001935D01*
X014980Y002161D01*
X014937Y002056D02*
X012078Y002056D01*
X012082Y001898D02*
X014887Y001898D01*
X014887Y001739D02*
X012082Y001739D01*
X012082Y001581D02*
X014932Y001581D01*
X014899Y001422D02*
X015022Y001422D01*
X015052Y001264D02*
X015219Y001264D01*
X015117Y001105D02*
X015887Y001105D01*
X015862Y000947D02*
X015142Y000947D01*
X015137Y000788D02*
X015866Y000788D01*
X015785Y001264D02*
X015952Y001264D01*
X015982Y001422D02*
X016105Y001422D01*
X016072Y001581D02*
X020109Y001581D01*
X020109Y001739D02*
X016117Y001739D01*
X016117Y001898D02*
X020111Y001898D01*
X020109Y001896D02*
X020109Y001416D01*
X020449Y001076D01*
X020930Y001076D01*
X021269Y001416D01*
X021269Y001896D01*
X020930Y002236D01*
X020449Y002236D01*
X020109Y001896D01*
X020270Y002056D02*
X016067Y002056D01*
X015970Y002215D02*
X020428Y002215D01*
X020951Y002215D02*
X024631Y002215D01*
X024631Y002374D02*
X017432Y002374D01*
X017531Y002532D02*
X024650Y002532D01*
X024665Y002056D02*
X023953Y002056D01*
X023805Y002205D02*
X023324Y002205D01*
X022984Y001865D01*
X022984Y001385D01*
X023324Y001045D01*
X023805Y001045D01*
X024144Y001385D01*
X024144Y001865D01*
X023805Y002205D01*
X024112Y001898D02*
X024731Y001898D01*
X024843Y001739D02*
X024144Y001739D01*
X024144Y001581D02*
X025002Y001581D01*
X024144Y001422D02*
X026682Y001422D01*
X026682Y001264D02*
X024024Y001264D01*
X023865Y001105D02*
X026682Y001105D01*
X026682Y000947D02*
X017702Y000947D01*
X017697Y000788D02*
X026682Y000788D01*
X026682Y001581D02*
X026002Y001581D01*
X026161Y001739D02*
X026682Y001739D01*
X026682Y001898D02*
X026273Y001898D01*
X026339Y002056D02*
X026682Y002056D01*
X026682Y002215D02*
X026373Y002215D01*
X026373Y002374D02*
X026682Y002374D01*
X026682Y002532D02*
X026354Y002532D01*
X026288Y002691D02*
X026682Y002691D01*
X026682Y002849D02*
X026197Y002849D01*
X026039Y003008D02*
X026682Y003008D01*
X026682Y003166D02*
X025717Y003166D01*
X023264Y001105D02*
X022552Y001105D01*
X022461Y001014D02*
X022801Y001354D01*
X022801Y001834D01*
X022461Y002174D01*
X021980Y002174D01*
X021641Y001834D01*
X021641Y001354D01*
X021980Y001014D01*
X022461Y001014D01*
X022711Y001264D02*
X023105Y001264D01*
X022984Y001422D02*
X022801Y001422D01*
X022801Y001581D02*
X022984Y001581D01*
X022984Y001739D02*
X022801Y001739D01*
X022737Y001898D02*
X023017Y001898D01*
X023176Y002056D02*
X022578Y002056D01*
X021863Y002056D02*
X021109Y002056D01*
X021268Y001898D02*
X021705Y001898D01*
X021641Y001739D02*
X021269Y001739D01*
X021269Y001581D02*
X021641Y001581D01*
X021641Y001422D02*
X021269Y001422D01*
X021117Y001264D02*
X021730Y001264D01*
X021889Y001105D02*
X020959Y001105D01*
X020420Y001105D02*
X017677Y001105D01*
X017612Y001264D02*
X020262Y001264D01*
X020109Y001422D02*
X017459Y001422D01*
X016762Y002222D02*
X016386Y002222D01*
X016210Y002296D01*
X016075Y002431D01*
X016002Y002607D01*
X016002Y002682D01*
X016762Y002682D01*
X016762Y002222D01*
X016762Y002374D02*
X016802Y002374D01*
X016802Y002532D02*
X016762Y002532D01*
X016132Y002374D02*
X015755Y002374D01*
X016033Y002532D02*
X014971Y002532D01*
X014872Y002374D02*
X015249Y002374D01*
X014981Y002849D02*
X016023Y002849D01*
X016108Y003008D02*
X014896Y003008D01*
X014242Y002532D02*
X014202Y002532D01*
X014202Y002374D02*
X014242Y002374D01*
X013545Y001422D02*
X011932Y001422D01*
X011773Y001264D02*
X013392Y001264D01*
X013327Y001105D02*
X010082Y001105D01*
X010082Y001264D02*
X010230Y001264D01*
X009956Y000947D02*
X013302Y000947D01*
X013306Y000788D02*
X009798Y000788D01*
X009206Y000788D02*
X000572Y000788D01*
X000572Y000947D02*
X009048Y000947D01*
X008922Y001105D02*
X000572Y001105D01*
X000572Y001264D02*
X008922Y001264D01*
X008922Y001422D02*
X000572Y001422D01*
X000572Y001581D02*
X001252Y001581D01*
X001258Y001574D02*
X001579Y001441D01*
X001925Y001441D01*
X002245Y001574D01*
X002490Y001819D01*
X002623Y002139D01*
X002623Y002486D01*
X002490Y002806D01*
X002245Y003051D01*
X001925Y003184D01*
X001579Y003184D01*
X001258Y003051D01*
X001013Y002806D01*
X000881Y002486D01*
X000881Y002139D01*
X001013Y001819D01*
X001258Y001574D01*
X001093Y001739D02*
X000572Y001739D01*
X000572Y001898D02*
X000981Y001898D01*
X000915Y002056D02*
X000572Y002056D01*
X000572Y002215D02*
X000881Y002215D01*
X000881Y002374D02*
X000572Y002374D01*
X000572Y002532D02*
X000900Y002532D01*
X000966Y002691D02*
X000572Y002691D01*
X000572Y002849D02*
X001057Y002849D01*
X001215Y003008D02*
X000572Y003008D01*
X000572Y003166D02*
X001537Y003166D01*
X001967Y003166D02*
X012307Y003166D01*
X012254Y003219D02*
X012254Y003219D01*
X012149Y003325D02*
X000572Y003325D01*
X000572Y003483D02*
X011990Y003483D01*
X011832Y003642D02*
X000572Y003642D01*
X000572Y003800D02*
X004194Y003800D01*
X004262Y003732D02*
X004742Y003732D01*
X005082Y004072D01*
X005082Y004553D01*
X004822Y004812D01*
X005082Y005072D01*
X005082Y005553D01*
X004742Y005892D01*
X004262Y005892D01*
X003922Y005553D01*
X003922Y005072D01*
X004182Y004812D01*
X003922Y004553D01*
X003922Y004072D01*
X004262Y003732D01*
X004035Y003959D02*
X000572Y003959D01*
X000572Y004117D02*
X003922Y004117D01*
X003922Y004276D02*
X000572Y004276D01*
X000572Y004435D02*
X003922Y004435D01*
X003962Y004593D02*
X000572Y004593D01*
X000572Y004752D02*
X004121Y004752D01*
X004084Y004910D02*
X000572Y004910D01*
X000572Y005069D02*
X003925Y005069D01*
X003922Y005227D02*
X000572Y005227D01*
X000572Y005386D02*
X003922Y005386D01*
X003922Y005544D02*
X000572Y005544D01*
X000572Y005703D02*
X004072Y005703D01*
X004231Y005861D02*
X000572Y005861D01*
X000572Y006020D02*
X004652Y006020D01*
X004586Y006179D02*
X000572Y006179D01*
X000572Y006337D02*
X004582Y006337D01*
X004607Y006496D02*
X000572Y006496D01*
X000572Y006654D02*
X004672Y006654D01*
X004773Y005861D02*
X004776Y005861D01*
X004932Y005703D02*
X005053Y005703D01*
X005082Y005544D02*
X006726Y005544D01*
X006567Y005703D02*
X005951Y005703D01*
X006228Y005861D02*
X006414Y005861D01*
X006414Y006020D02*
X006352Y006020D01*
X006397Y006496D02*
X006516Y006496D01*
X006675Y006654D02*
X006331Y006654D01*
X006178Y006813D02*
X011964Y006813D01*
X011795Y006654D02*
X007454Y006654D01*
X007613Y006496D02*
X011721Y006496D01*
X011693Y006337D02*
X007714Y006337D01*
X007714Y006179D02*
X011701Y006179D01*
X011767Y006020D02*
X007714Y006020D01*
X007714Y005861D02*
X008231Y005861D01*
X008072Y005703D02*
X007562Y005703D01*
X007403Y005544D02*
X007922Y005544D01*
X007922Y005386D02*
X005082Y005386D01*
X005082Y005227D02*
X007922Y005227D01*
X007925Y005069D02*
X005078Y005069D01*
X004920Y004910D02*
X008084Y004910D01*
X008121Y004752D02*
X004883Y004752D01*
X005041Y004593D02*
X007962Y004593D01*
X007922Y004435D02*
X005082Y004435D01*
X005082Y004276D02*
X007922Y004276D01*
X007922Y004117D02*
X005082Y004117D01*
X004969Y003959D02*
X008035Y003959D01*
X008194Y003800D02*
X004810Y003800D01*
X002538Y002691D02*
X012124Y002691D01*
X012124Y002849D02*
X002447Y002849D01*
X002289Y003008D02*
X012263Y003008D01*
X012124Y002532D02*
X002604Y002532D01*
X002623Y002374D02*
X010243Y002374D01*
X010084Y002215D02*
X002623Y002215D01*
X002589Y002056D02*
X009926Y002056D01*
X009922Y001898D02*
X002523Y001898D01*
X002411Y001739D02*
X009109Y001739D01*
X008950Y001581D02*
X002252Y001581D01*
X006140Y006971D02*
X011794Y006971D01*
X011721Y007130D02*
X006246Y007130D01*
X006282Y007288D02*
X011693Y007288D01*
X011701Y007447D02*
X006266Y007447D01*
X006385Y008101D02*
X006422Y008189D01*
X006422Y008436D01*
X006328Y008664D01*
X006179Y008812D01*
X006328Y008961D01*
X006422Y009189D01*
X006422Y009436D01*
X006328Y009664D01*
X006179Y009812D01*
X006328Y009961D01*
X006422Y010189D01*
X006422Y010436D01*
X006328Y010664D01*
X006179Y010812D01*
X006328Y010961D01*
X006422Y011189D01*
X006422Y011436D01*
X006328Y011664D01*
X006179Y011812D01*
X006328Y011961D01*
X006422Y012189D01*
X006422Y012436D01*
X006400Y012489D01*
X006824Y012912D01*
X011368Y012912D01*
X011694Y012586D01*
X011740Y012540D01*
X011693Y012428D01*
X011693Y012197D01*
X011782Y011984D01*
X011945Y011821D01*
X012148Y011737D01*
X012024Y011685D01*
X011900Y011562D01*
X011833Y011400D01*
X011833Y011313D01*
X012533Y011313D01*
X012533Y011312D01*
X011833Y011312D01*
X011833Y011225D01*
X011900Y011063D01*
X012024Y010939D01*
X012148Y010888D01*
X011945Y010804D01*
X011782Y010641D01*
X011693Y010428D01*
X011693Y010197D01*
X011782Y009984D01*
X006337Y009984D01*
X006402Y010142D02*
X008246Y010142D01*
X008255Y010133D02*
X008468Y010045D01*
X008699Y010045D01*
X008912Y010133D01*
X009075Y010296D01*
X009163Y010510D01*
X009163Y010740D01*
X009075Y010953D01*
X008912Y011117D01*
X008699Y011205D01*
X008468Y011205D01*
X008255Y011117D01*
X008091Y010953D01*
X008003Y010740D01*
X008003Y010510D01*
X008091Y010296D01*
X008255Y010133D01*
X008090Y010301D02*
X006422Y010301D01*
X006412Y010459D02*
X008024Y010459D01*
X008003Y010618D02*
X006347Y010618D01*
X006215Y010776D02*
X008018Y010776D01*
X008084Y010935D02*
X006301Y010935D01*
X006382Y011093D02*
X008231Y011093D01*
X008935Y011093D02*
X010131Y011093D01*
X010155Y011117D02*
X009991Y010953D01*
X009903Y010740D01*
X009903Y010510D01*
X009991Y010296D01*
X010155Y010133D01*
X010368Y010045D01*
X010599Y010045D01*
X010812Y010133D01*
X010975Y010296D01*
X011063Y010510D01*
X011063Y010740D01*
X010975Y010953D01*
X010812Y011117D01*
X010599Y011205D01*
X010368Y011205D01*
X010155Y011117D01*
X009984Y010935D02*
X009083Y010935D01*
X009148Y010776D02*
X009918Y010776D01*
X009903Y010618D02*
X009163Y010618D01*
X009142Y010459D02*
X009924Y010459D01*
X009990Y010301D02*
X009077Y010301D01*
X008921Y010142D02*
X010146Y010142D01*
X010821Y010142D02*
X011716Y010142D01*
X011693Y010301D02*
X010977Y010301D01*
X011042Y010459D02*
X011706Y010459D01*
X011772Y010618D02*
X011063Y010618D01*
X011048Y010776D02*
X011917Y010776D01*
X012035Y010935D02*
X010983Y010935D01*
X010835Y011093D02*
X011888Y011093D01*
X011833Y011252D02*
X006422Y011252D01*
X006422Y011410D02*
X011838Y011410D01*
X011908Y011569D02*
X006367Y011569D01*
X006264Y011728D02*
X012126Y011728D01*
X011879Y011886D02*
X006252Y011886D01*
X006362Y012045D02*
X011756Y012045D01*
X011693Y012203D02*
X006422Y012203D01*
X006422Y012362D02*
X011693Y012362D01*
X011732Y012520D02*
X006432Y012520D01*
X006590Y012679D02*
X011601Y012679D01*
X011443Y012837D02*
X006749Y012837D01*
X006658Y013312D02*
X011533Y013312D01*
X012033Y012812D01*
X013721Y012812D01*
X011693Y014264D02*
X006422Y014264D01*
X006422Y014423D02*
X011693Y014423D01*
X011757Y014581D02*
X006362Y014581D01*
X006251Y014740D02*
X011880Y014740D01*
X011867Y014898D02*
X006265Y014898D01*
X006367Y015057D02*
X009198Y015057D01*
X009062Y015216D02*
X008688Y015216D01*
X008814Y015656D02*
X008283Y015656D01*
X008283Y015687D01*
X008814Y015656D02*
X010033Y016875D01*
X011127Y016875D01*
X010708Y017277D02*
X010082Y017277D01*
X010082Y017435D02*
X010867Y017435D01*
X010786Y017594D02*
X010082Y017594D01*
X009945Y017752D02*
X010687Y017752D01*
X010687Y017911D02*
X009786Y017911D01*
X009217Y017911D02*
X008903Y017911D01*
X008903Y017752D02*
X009059Y017752D01*
X008922Y017594D02*
X008903Y017594D01*
X008903Y017435D02*
X008922Y017435D01*
X008922Y017277D02*
X008749Y017277D01*
X008729Y017118D02*
X008939Y017118D01*
X008888Y016959D02*
X009097Y016959D01*
X009256Y016801D02*
X008903Y016801D01*
X008903Y016642D02*
X009235Y016642D01*
X009077Y016484D02*
X008903Y016484D01*
X008918Y016325D02*
X008798Y016325D01*
X008759Y016167D02*
X008681Y016167D01*
X008252Y016625D02*
X008283Y016687D01*
X007837Y017118D02*
X006960Y017118D01*
X007359Y017277D02*
X007817Y017277D01*
X007663Y017435D02*
X007491Y017435D01*
X007557Y017594D02*
X007663Y017594D01*
X007663Y017752D02*
X007561Y017752D01*
X007529Y017911D02*
X007663Y017911D01*
X007788Y018069D02*
X007450Y018069D01*
X007267Y018228D02*
X007947Y018228D01*
X007529Y018545D02*
X012312Y018545D01*
X012312Y018562D02*
X012312Y018380D01*
X012570Y018122D01*
X012752Y018122D01*
X012934Y018122D01*
X013122Y018310D01*
X013243Y018189D01*
X013404Y018122D01*
X013752Y018122D01*
X014099Y018122D01*
X014261Y018189D01*
X014385Y018313D01*
X014452Y018475D01*
X014452Y018562D01*
X013752Y018562D01*
X013752Y018122D01*
X013752Y018562D01*
X013752Y018562D01*
X013752Y018563D01*
X014452Y018563D01*
X014452Y018650D01*
X014385Y018812D01*
X014261Y018935D01*
X014137Y018987D01*
X014340Y019071D01*
X014504Y019234D01*
X014592Y019447D01*
X014592Y019678D01*
X014504Y019891D01*
X014340Y020054D01*
X014320Y020062D01*
X014340Y020071D01*
X014504Y020234D01*
X014592Y020447D01*
X014592Y020678D01*
X014504Y020891D01*
X014340Y021054D01*
X014320Y021062D01*
X014340Y021071D01*
X014504Y021234D01*
X014592Y021447D01*
X014592Y021678D01*
X014504Y021891D01*
X014340Y022054D01*
X014127Y022142D01*
X013377Y022142D01*
X013163Y022054D01*
X013000Y021891D01*
X012912Y021678D01*
X012912Y021447D01*
X013000Y021234D01*
X013163Y021071D01*
X013184Y021062D01*
X013163Y021054D01*
X013000Y020891D01*
X012912Y020678D01*
X012912Y020447D01*
X013000Y020234D01*
X013163Y020071D01*
X013184Y020062D01*
X013163Y020054D01*
X013122Y020013D01*
X012992Y020142D01*
X012512Y020142D01*
X012172Y019803D01*
X012172Y019322D01*
X012512Y018982D01*
X012550Y018982D01*
X012312Y018745D01*
X012312Y018563D01*
X012752Y018563D01*
X013192Y018563D01*
X013752Y018563D01*
X013752Y018562D01*
X013192Y018562D01*
X012752Y018562D01*
X012752Y018122D01*
X012752Y018562D01*
X012752Y018562D01*
X012752Y018563D01*
X012752Y018562D01*
X012312Y018562D01*
X012312Y018703D02*
X007592Y018703D01*
X007592Y018862D02*
X012429Y018862D01*
X012474Y019021D02*
X010165Y019021D01*
X010192Y019032D02*
X010373Y019213D01*
X010472Y019450D01*
X010472Y019706D01*
X010373Y019943D01*
X010192Y020125D01*
X009955Y020223D01*
X009049Y020223D01*
X008812Y020125D01*
X008631Y019943D01*
X008532Y019706D01*
X008532Y019450D01*
X008631Y019213D01*
X008812Y019032D01*
X009049Y018933D01*
X009955Y018933D01*
X010192Y019032D01*
X010340Y019179D02*
X012315Y019179D01*
X012172Y019338D02*
X010425Y019338D01*
X010472Y019496D02*
X012172Y019496D01*
X012172Y019655D02*
X010472Y019655D01*
X010427Y019813D02*
X012183Y019813D01*
X012341Y019972D02*
X010345Y019972D01*
X010179Y020130D02*
X012500Y020130D01*
X012977Y020289D02*
X005682Y020289D01*
X005682Y020292D02*
X005022Y020292D01*
X005022Y019632D01*
X005284Y019632D01*
X005682Y020031D01*
X005682Y020292D01*
X005682Y020332D02*
X005682Y020594D01*
X005284Y020992D01*
X005022Y020992D01*
X005022Y020333D01*
X004982Y020333D01*
X004982Y020992D01*
X004720Y020992D01*
X004322Y020594D01*
X004322Y020332D01*
X004982Y020332D01*
X004982Y020292D01*
X005022Y020292D01*
X005022Y020332D01*
X005682Y020332D01*
X005682Y020447D02*
X012912Y020447D01*
X012912Y020606D02*
X005670Y020606D01*
X005511Y020765D02*
X012948Y020765D01*
X013032Y020923D02*
X010006Y020923D01*
X009955Y020902D02*
X010192Y021000D01*
X010373Y021181D01*
X010472Y021418D01*
X010472Y021675D01*
X010373Y021912D01*
X010192Y022093D01*
X009955Y022191D01*
X019430Y022191D01*
X019424Y022177D02*
X019424Y021948D01*
X019512Y021735D01*
X019675Y021573D01*
X019887Y021485D01*
X020117Y021485D01*
X020329Y021573D01*
X020491Y021735D01*
X020579Y021948D01*
X020579Y022177D01*
X020491Y022390D01*
X020329Y022552D01*
X020117Y022640D01*
X019887Y022640D01*
X019675Y022552D01*
X019512Y022390D01*
X019424Y022177D01*
X019424Y022033D02*
X017362Y022033D01*
X017340Y022054D02*
X017127Y022142D01*
X016377Y022142D01*
X016163Y022054D01*
X016000Y021891D01*
X015912Y021678D01*
X015912Y021447D01*
X016000Y021234D01*
X016163Y021071D01*
X016184Y021062D01*
X016163Y021054D01*
X016000Y020891D01*
X015912Y020678D01*
X015912Y020447D01*
X016000Y020234D01*
X016163Y020071D01*
X016184Y020062D01*
X016163Y020054D01*
X016000Y019891D01*
X015912Y019678D01*
X015912Y019447D01*
X016000Y019234D01*
X016163Y019071D01*
X016184Y019062D01*
X016163Y019054D01*
X016000Y018891D01*
X015912Y018678D01*
X015912Y018447D01*
X016000Y018234D01*
X016163Y018071D01*
X016359Y017990D01*
X016172Y017803D01*
X016172Y017322D01*
X016512Y016982D01*
X016992Y016982D01*
X017332Y017322D01*
X017332Y017803D01*
X017145Y017990D01*
X017340Y018071D01*
X017504Y018234D01*
X017592Y018447D01*
X017592Y018678D01*
X017504Y018891D01*
X017340Y019054D01*
X017320Y019062D01*
X017340Y019071D01*
X017504Y019234D01*
X017592Y019447D01*
X017592Y019678D01*
X017504Y019891D01*
X017340Y020054D01*
X017320Y020062D01*
X017340Y020071D01*
X017504Y020234D01*
X017592Y020447D01*
X017592Y020678D01*
X017504Y020891D01*
X017340Y021054D01*
X017320Y021062D01*
X017340Y021071D01*
X017504Y021234D01*
X017592Y021447D01*
X017592Y021678D01*
X017504Y021891D01*
X017340Y022054D01*
X017511Y021874D02*
X019455Y021874D01*
X019532Y021716D02*
X017576Y021716D01*
X017592Y021557D02*
X018427Y021557D01*
X018512Y021642D02*
X018172Y021303D01*
X018172Y020822D01*
X018512Y020482D01*
X018992Y020482D01*
X019332Y020822D01*
X019332Y021303D01*
X018992Y021642D01*
X018512Y021642D01*
X018268Y021399D02*
X017572Y021399D01*
X017506Y021240D02*
X018172Y021240D01*
X018172Y021082D02*
X017351Y021082D01*
X017471Y020923D02*
X018172Y020923D01*
X018230Y020765D02*
X017556Y020765D01*
X017592Y020606D02*
X018388Y020606D01*
X019116Y020606D02*
X021672Y020606D01*
X021672Y020688D02*
X021760Y020901D01*
X021923Y021064D01*
X022137Y021152D01*
X022367Y021152D01*
X022581Y021064D01*
X022744Y020901D01*
X022832Y020688D01*
X022832Y019937D01*
X022744Y019724D01*
X022581Y019561D01*
X022367Y019472D01*
X022137Y019472D01*
X021923Y019561D01*
X021760Y019724D01*
X021672Y019937D01*
X021672Y020688D01*
X021704Y020765D02*
X019274Y020765D01*
X019332Y020923D02*
X021782Y020923D01*
X021966Y021082D02*
X019332Y021082D01*
X019332Y021240D02*
X024692Y021240D01*
X024631Y021389D02*
X024763Y021069D01*
X025008Y020824D01*
X025329Y020691D01*
X025675Y020691D01*
X025995Y020824D01*
X026240Y021069D01*
X026373Y021389D01*
X026373Y021736D01*
X026240Y022056D01*
X025995Y022301D01*
X025675Y022434D01*
X025329Y022434D01*
X025008Y022301D01*
X024763Y022056D01*
X024631Y021736D01*
X024631Y021389D01*
X024631Y021399D02*
X019236Y021399D01*
X019077Y021557D02*
X019713Y021557D01*
X020291Y021557D02*
X020838Y021557D01*
X020884Y021511D02*
X021123Y021412D01*
X021381Y021412D01*
X021620Y021511D01*
X021803Y021694D01*
X021902Y021933D01*
X021902Y022192D01*
X021803Y022431D01*
X021620Y022613D01*
X021381Y022712D01*
X021123Y022712D01*
X020884Y022613D01*
X020701Y022431D01*
X020602Y022192D01*
X020602Y021933D01*
X020701Y021694D01*
X020884Y021511D01*
X020692Y021716D02*
X020472Y021716D01*
X020549Y021874D02*
X020626Y021874D01*
X020602Y022033D02*
X020579Y022033D01*
X020574Y022191D02*
X020602Y022191D01*
X020668Y022350D02*
X020508Y022350D01*
X020373Y022509D02*
X020779Y022509D01*
X021013Y022667D02*
X017332Y022667D01*
X017332Y022826D02*
X026682Y022826D01*
X026682Y022984D02*
X017332Y022984D01*
X017242Y023143D02*
X026682Y023143D01*
X026682Y022667D02*
X021491Y022667D01*
X021725Y022509D02*
X026682Y022509D01*
X026682Y022350D02*
X025877Y022350D01*
X026105Y022191D02*
X026682Y022191D01*
X026682Y022033D02*
X026250Y022033D01*
X026316Y021874D02*
X026682Y021874D01*
X026682Y021716D02*
X026373Y021716D01*
X026373Y021557D02*
X026682Y021557D01*
X026682Y021399D02*
X026373Y021399D01*
X026311Y021240D02*
X026682Y021240D01*
X026682Y021082D02*
X026246Y021082D01*
X026095Y020923D02*
X026682Y020923D01*
X026682Y020765D02*
X025852Y020765D01*
X025152Y020765D02*
X022800Y020765D01*
X022832Y020606D02*
X026682Y020606D01*
X026682Y020447D02*
X024829Y020447D01*
X024784Y020492D02*
X024522Y020492D01*
X024522Y019833D01*
X024482Y019833D01*
X024482Y020492D01*
X024220Y020492D01*
X023822Y020094D01*
X023822Y019832D01*
X024482Y019832D01*
X024482Y019792D01*
X024522Y019792D01*
X024522Y019132D01*
X024784Y019132D01*
X025182Y019531D01*
X025182Y019792D01*
X024522Y019792D01*
X024522Y019832D01*
X025182Y019832D01*
X025182Y020094D01*
X024784Y020492D01*
X024522Y020447D02*
X024482Y020447D01*
X024482Y020289D02*
X024522Y020289D01*
X024522Y020130D02*
X024482Y020130D01*
X024482Y019972D02*
X024522Y019972D01*
X024522Y019813D02*
X026682Y019813D01*
X026682Y019655D02*
X025182Y019655D01*
X025147Y019496D02*
X026682Y019496D01*
X026682Y019338D02*
X024989Y019338D01*
X024830Y019179D02*
X026682Y019179D01*
X026682Y019021D02*
X017374Y019021D01*
X017449Y019179D02*
X024174Y019179D01*
X024220Y019132D02*
X023822Y019531D01*
X023822Y019792D01*
X024482Y019792D01*
X024482Y019132D01*
X024220Y019132D01*
X024482Y019179D02*
X024522Y019179D01*
X024522Y019338D02*
X024482Y019338D01*
X024482Y019496D02*
X024522Y019496D01*
X024522Y019655D02*
X024482Y019655D01*
X024482Y019813D02*
X022781Y019813D01*
X022832Y019972D02*
X023822Y019972D01*
X023858Y020130D02*
X022832Y020130D01*
X022832Y020289D02*
X024017Y020289D01*
X024175Y020447D02*
X022832Y020447D01*
X022722Y020923D02*
X024909Y020923D01*
X024758Y021082D02*
X022538Y021082D01*
X021812Y021716D02*
X024631Y021716D01*
X024631Y021557D02*
X021666Y021557D01*
X021878Y021874D02*
X024688Y021874D01*
X024754Y022033D02*
X021902Y022033D01*
X021902Y022191D02*
X024899Y022191D01*
X025127Y022350D02*
X021836Y022350D01*
X021672Y020447D02*
X017592Y020447D01*
X017526Y020289D02*
X021672Y020289D01*
X021672Y020130D02*
X017400Y020130D01*
X017423Y019972D02*
X021672Y019972D01*
X021723Y019813D02*
X017536Y019813D01*
X017592Y019655D02*
X021829Y019655D01*
X022079Y019496D02*
X017592Y019496D01*
X017547Y019338D02*
X024015Y019338D01*
X023857Y019496D02*
X022425Y019496D01*
X022674Y019655D02*
X023822Y019655D01*
X024339Y018632D02*
X024037Y018508D01*
X023807Y018277D01*
X023682Y017976D01*
X023682Y017649D01*
X023807Y017348D01*
X024037Y017117D01*
X024339Y016992D01*
X024665Y016992D01*
X024966Y017117D01*
X025197Y017348D01*
X025322Y017649D01*
X025322Y017976D01*
X025197Y018277D01*
X024966Y018508D01*
X024665Y018632D01*
X024339Y018632D01*
X024128Y018545D02*
X021420Y018545D01*
X021353Y018572D02*
X021282Y018572D01*
X021282Y018093D01*
X021222Y018093D01*
X021222Y018572D01*
X021150Y018572D01*
X020963Y018495D01*
X020820Y018351D01*
X020742Y018164D01*
X020742Y018092D01*
X021222Y018092D01*
X021222Y018032D01*
X021282Y018032D01*
X021282Y017552D01*
X021353Y017552D01*
X021541Y017630D01*
X021684Y017774D01*
X021762Y017961D01*
X021762Y018032D01*
X021282Y018032D01*
X021282Y018092D01*
X021762Y018092D01*
X021762Y018164D01*
X021684Y018351D01*
X021541Y018495D01*
X021353Y018572D01*
X021282Y018545D02*
X021222Y018545D01*
X021084Y018545D02*
X017592Y018545D01*
X017581Y018703D02*
X026682Y018703D01*
X026682Y018545D02*
X024876Y018545D01*
X025088Y018386D02*
X026682Y018386D01*
X026682Y018228D02*
X025217Y018228D01*
X025283Y018069D02*
X026682Y018069D01*
X026682Y017911D02*
X025322Y017911D01*
X025322Y017752D02*
X026682Y017752D01*
X026682Y017594D02*
X025299Y017594D01*
X025233Y017435D02*
X026682Y017435D01*
X026682Y017277D02*
X025126Y017277D01*
X024967Y017118D02*
X026682Y017118D01*
X026682Y016959D02*
X023644Y016959D01*
X023617Y016986D02*
X023137Y016986D01*
X022832Y016681D01*
X022832Y016688D01*
X022744Y016901D01*
X022581Y017064D01*
X022367Y017152D01*
X022137Y017152D01*
X021923Y017064D01*
X021760Y016901D01*
X021672Y016688D01*
X021672Y016424D01*
X021230Y016424D01*
X020891Y016084D01*
X020891Y015604D01*
X021230Y015264D01*
X021711Y015264D01*
X021852Y015405D01*
X021852Y015264D01*
X021913Y015117D01*
X022025Y015005D01*
X022203Y014827D01*
X022203Y014541D01*
X022463Y014281D01*
X022203Y014021D01*
X022203Y013541D01*
X022463Y013281D01*
X022203Y013021D01*
X022203Y012541D01*
X022463Y012281D01*
X022203Y012021D01*
X022203Y011541D01*
X022543Y011201D01*
X023023Y011201D01*
X023363Y011541D01*
X023363Y012021D01*
X023103Y012281D01*
X023363Y012541D01*
X023363Y013021D01*
X023103Y013281D01*
X023363Y013541D01*
X023363Y013944D01*
X023637Y013670D01*
X024117Y013670D01*
X024377Y013930D01*
X024539Y013767D01*
X024387Y013767D01*
X024047Y013428D01*
X024047Y012947D01*
X024387Y012607D01*
X024867Y012607D01*
X025207Y012947D01*
X025207Y012985D01*
X025445Y012747D01*
X025627Y012747D01*
X025809Y012747D01*
X026067Y013005D01*
X026067Y013187D01*
X025627Y013187D01*
X025627Y012747D01*
X025627Y013187D01*
X025627Y013187D01*
X025627Y013188D01*
X025627Y013188D01*
X025627Y013627D01*
X025809Y013627D01*
X026067Y013370D01*
X026067Y013188D01*
X025627Y013188D01*
X025627Y013627D01*
X025445Y013627D01*
X025207Y013390D01*
X025207Y013428D01*
X024965Y013670D01*
X025117Y013670D01*
X025457Y014010D01*
X025457Y014490D01*
X025117Y014830D01*
X024957Y014830D01*
X024957Y015240D01*
X024617Y015580D01*
X024137Y015580D01*
X023797Y015240D01*
X023797Y014830D01*
X023637Y014830D01*
X023363Y014556D01*
X023363Y015021D01*
X023023Y015361D01*
X022800Y015361D01*
X022652Y015509D01*
X022652Y015632D01*
X022744Y015724D01*
X022832Y015937D01*
X022832Y016131D01*
X023137Y015826D01*
X023617Y015826D01*
X023957Y016166D01*
X023957Y016204D01*
X024195Y015966D01*
X024377Y015966D01*
X024559Y015966D01*
X024817Y016224D01*
X024817Y016406D01*
X024377Y016406D01*
X024377Y015966D01*
X024377Y016406D01*
X024377Y016406D01*
X024721Y016062D01*
X026252Y016062D01*
X026682Y016008D02*
X024601Y016008D01*
X024377Y016008D02*
X024377Y016008D01*
X024377Y016167D02*
X024377Y016167D01*
X024377Y016325D02*
X024377Y016325D01*
X024377Y016406D02*
X024377Y016406D01*
X024817Y016406D01*
X024817Y016588D01*
X024559Y016846D01*
X024377Y016846D01*
X024377Y016407D01*
X024377Y016407D01*
X024377Y016846D01*
X024195Y016846D01*
X023957Y016608D01*
X023957Y016646D01*
X023617Y016986D01*
X023802Y016801D02*
X024149Y016801D01*
X023991Y016642D02*
X023957Y016642D01*
X024377Y016642D02*
X024377Y016642D01*
X024377Y016484D02*
X024377Y016484D01*
X024377Y016801D02*
X024377Y016801D01*
X024604Y016801D02*
X026682Y016801D01*
X026682Y016642D02*
X024763Y016642D01*
X024817Y016484D02*
X026682Y016484D01*
X026682Y016325D02*
X024817Y016325D01*
X024760Y016167D02*
X026682Y016167D01*
X026682Y015850D02*
X023641Y015850D01*
X023799Y016008D02*
X024153Y016008D01*
X023994Y016167D02*
X023957Y016167D01*
X024089Y015533D02*
X022652Y015533D01*
X022711Y015691D02*
X026682Y015691D01*
X026682Y015533D02*
X024665Y015533D01*
X024823Y015374D02*
X026682Y015374D01*
X026682Y015216D02*
X024957Y015216D01*
X024957Y015057D02*
X026682Y015057D01*
X026682Y014898D02*
X024957Y014898D01*
X025207Y014740D02*
X026682Y014740D01*
X026682Y014581D02*
X025366Y014581D01*
X025457Y014423D02*
X026682Y014423D01*
X026333Y014264D02*
X025457Y014264D01*
X025457Y014106D02*
X026288Y014106D01*
X026288Y013947D02*
X025394Y013947D01*
X025236Y013789D02*
X026288Y013789D01*
X026288Y013630D02*
X025005Y013630D01*
X025163Y013472D02*
X025289Y013472D01*
X025627Y013472D02*
X025627Y013472D01*
X025627Y013313D02*
X025627Y013313D01*
X025627Y013154D02*
X025627Y013154D01*
X025627Y012996D02*
X025627Y012996D01*
X025627Y012837D02*
X025627Y012837D01*
X025899Y012837D02*
X026288Y012837D01*
X026288Y012679D02*
X024939Y012679D01*
X025097Y012837D02*
X025355Y012837D01*
X025523Y012362D02*
X026288Y012362D01*
X026288Y012520D02*
X023343Y012520D01*
X023363Y012679D02*
X024315Y012679D01*
X024157Y012837D02*
X023363Y012837D01*
X023363Y012996D02*
X024047Y012996D01*
X024047Y013154D02*
X023230Y013154D01*
X023135Y013313D02*
X024047Y013313D01*
X024091Y013472D02*
X023294Y013472D01*
X023363Y013630D02*
X024249Y013630D01*
X024236Y013789D02*
X024518Y013789D01*
X023518Y013789D02*
X023363Y013789D01*
X022446Y014264D02*
X020120Y014264D01*
X020245Y014423D02*
X022321Y014423D01*
X022203Y014581D02*
X020363Y014581D01*
X020363Y014740D02*
X022203Y014740D01*
X022132Y014898D02*
X020363Y014898D01*
X020328Y015057D02*
X021973Y015057D01*
X021872Y015216D02*
X020169Y015216D01*
X020721Y015531D02*
X020971Y012906D01*
X021564Y012312D01*
X021564Y009875D01*
X021533Y009844D01*
X021269Y010618D02*
X024376Y010618D01*
X024218Y010776D02*
X021269Y010776D01*
X021269Y010935D02*
X024059Y010935D01*
X024047Y011093D02*
X021135Y011093D01*
X020976Y011252D02*
X022492Y011252D01*
X022334Y011410D02*
X020233Y011410D01*
X020363Y011569D02*
X022203Y011569D01*
X022203Y011728D02*
X020363Y011728D01*
X020363Y011886D02*
X022203Y011886D01*
X022227Y012045D02*
X020340Y012045D01*
X020181Y012203D02*
X022385Y012203D01*
X022382Y012362D02*
X020184Y012362D01*
X020343Y012520D02*
X022224Y012520D01*
X022203Y012679D02*
X020363Y012679D01*
X020363Y012837D02*
X022203Y012837D01*
X022203Y012996D02*
X020363Y012996D01*
X020230Y013154D02*
X022336Y013154D01*
X022431Y013313D02*
X020135Y013313D01*
X020294Y013472D02*
X022272Y013472D01*
X022203Y013630D02*
X020363Y013630D01*
X020363Y013789D02*
X022203Y013789D01*
X022203Y013947D02*
X020363Y013947D01*
X020279Y014106D02*
X022288Y014106D01*
X022783Y014781D02*
X022783Y014812D01*
X022252Y015344D01*
X022252Y016312D01*
X022252Y016312D01*
X021672Y016484D02*
X018994Y016484D01*
X018992Y016482D02*
X019332Y016822D01*
X019332Y017303D01*
X018992Y017642D01*
X018512Y017642D01*
X018172Y017303D01*
X018172Y016822D01*
X018512Y016482D01*
X018992Y016482D01*
X019152Y016642D02*
X019605Y016642D01*
X019675Y016573D02*
X019512Y016735D01*
X019424Y016948D01*
X019424Y017177D01*
X019512Y017390D01*
X019675Y017552D01*
X019887Y017640D01*
X020117Y017640D01*
X020329Y017552D01*
X020491Y017390D01*
X020579Y017177D01*
X020579Y016948D01*
X020491Y016735D01*
X020329Y016573D01*
X020117Y016485D01*
X019887Y016485D01*
X019675Y016573D01*
X019485Y016801D02*
X019311Y016801D01*
X019332Y016959D02*
X019424Y016959D01*
X019424Y017118D02*
X019332Y017118D01*
X019332Y017277D02*
X019466Y017277D01*
X019558Y017435D02*
X019199Y017435D01*
X019041Y017594D02*
X019776Y017594D01*
X020228Y017594D02*
X021051Y017594D01*
X020963Y017630D02*
X021150Y017552D01*
X021222Y017552D01*
X021222Y018032D01*
X020742Y018032D01*
X020742Y017961D01*
X020820Y017774D01*
X020963Y017630D01*
X020841Y017752D02*
X017332Y017752D01*
X017332Y017594D02*
X018463Y017594D01*
X018304Y017435D02*
X017332Y017435D01*
X017286Y017277D02*
X018172Y017277D01*
X018172Y017118D02*
X017128Y017118D01*
X016376Y017118D02*
X012440Y017118D01*
X012282Y016959D02*
X018172Y016959D01*
X018193Y016801D02*
X012123Y016801D01*
X011982Y016642D02*
X018352Y016642D01*
X018510Y016484D02*
X012140Y016484D01*
X011530Y015850D02*
X009574Y015850D01*
X009732Y016008D02*
X011371Y016008D01*
X011213Y016167D02*
X009891Y016167D01*
X010049Y016325D02*
X010856Y016325D01*
X011689Y015691D02*
X009808Y015691D01*
X009942Y015533D02*
X011737Y015533D01*
X011693Y015374D02*
X009942Y015374D01*
X009942Y015375D02*
X009502Y015375D01*
X009942Y015375D01*
X009942Y015216D02*
X011693Y015216D01*
X011751Y015057D02*
X009806Y015057D01*
X009502Y015057D02*
X009502Y015057D01*
X009502Y014935D02*
X009502Y015375D01*
X009502Y015375D01*
X009502Y015375D01*
X009502Y014935D01*
X009502Y015216D02*
X009502Y015216D01*
X009502Y015374D02*
X009502Y015374D01*
X007878Y015216D02*
X006422Y015216D01*
X006422Y015374D02*
X007720Y015374D01*
X007663Y015533D02*
X006382Y015533D01*
X006300Y015691D02*
X007663Y015691D01*
X007663Y015850D02*
X006125Y015850D01*
X006311Y016325D02*
X005130Y016325D01*
X004964Y016167D02*
X006573Y016167D01*
X006129Y016484D02*
X005312Y016484D01*
X005380Y016642D02*
X006061Y016642D01*
X006046Y016801D02*
X005395Y016801D01*
X005364Y016959D02*
X006078Y016959D01*
X006169Y017118D02*
X005273Y017118D01*
X005035Y017277D02*
X006083Y017277D01*
X005950Y017435D02*
X003491Y017435D01*
X003472Y017390D02*
X003561Y017603D01*
X003561Y017834D01*
X003472Y018047D01*
X003309Y018210D01*
X003192Y018259D01*
X003340Y018321D01*
X003504Y018484D01*
X003592Y018697D01*
X003592Y018928D01*
X003504Y019141D01*
X003340Y019304D01*
X003127Y019392D01*
X002377Y019392D01*
X002163Y019304D01*
X002000Y019141D01*
X001912Y018928D01*
X001912Y018697D01*
X002000Y018484D01*
X002163Y018321D01*
X002281Y018272D01*
X002132Y018210D01*
X001969Y018047D01*
X001881Y017834D01*
X001881Y017603D01*
X001969Y017390D01*
X002132Y017227D01*
X002345Y017139D01*
X003096Y017139D01*
X003309Y017227D01*
X003472Y017390D01*
X003359Y017277D02*
X004719Y017277D01*
X004481Y017118D02*
X000572Y017118D01*
X000572Y016959D02*
X004390Y016959D01*
X004354Y016801D02*
X003140Y016801D01*
X003299Y016642D02*
X003403Y016642D01*
X003732Y016642D02*
X003772Y016642D01*
X003772Y016484D02*
X003732Y016484D01*
X004101Y016642D02*
X004213Y016642D01*
X004564Y016437D02*
X004564Y014812D01*
X003252Y014812D01*
X002752Y014312D01*
X002303Y014740D02*
X000572Y014740D01*
X000572Y014898D02*
X002289Y014898D01*
X002132Y015057D02*
X000572Y015057D01*
X000572Y015216D02*
X002132Y015216D01*
X002132Y015374D02*
X000572Y015374D01*
X000572Y015533D02*
X002132Y015533D01*
X002254Y015691D02*
X000572Y015691D01*
X000572Y015850D02*
X002338Y015850D01*
X002179Y016008D02*
X000572Y016008D01*
X000572Y016167D02*
X002132Y016167D01*
X002132Y016325D02*
X000572Y016325D01*
X000572Y016484D02*
X002132Y016484D01*
X002205Y016642D02*
X000572Y016642D01*
X000572Y016801D02*
X002364Y016801D01*
X002083Y017277D02*
X000572Y017277D01*
X000572Y017435D02*
X001950Y017435D01*
X001885Y017594D02*
X000572Y017594D01*
X000572Y017752D02*
X001881Y017752D01*
X001913Y017911D02*
X000572Y017911D01*
X000572Y018069D02*
X001991Y018069D01*
X002174Y018228D02*
X000572Y018228D01*
X000572Y018386D02*
X002098Y018386D01*
X001975Y018545D02*
X000572Y018545D01*
X000572Y018703D02*
X001912Y018703D01*
X001912Y018862D02*
X000572Y018862D01*
X000572Y019021D02*
X001950Y019021D01*
X002038Y019179D02*
X000572Y019179D01*
X000572Y019338D02*
X002244Y019338D01*
X003260Y019338D02*
X006244Y019338D01*
X006038Y019179D02*
X003465Y019179D01*
X003554Y019021D02*
X005950Y019021D01*
X005912Y018862D02*
X003592Y018862D01*
X003592Y018703D02*
X005912Y018703D01*
X005975Y018545D02*
X003529Y018545D01*
X003406Y018386D02*
X006098Y018386D01*
X006174Y018228D02*
X003267Y018228D01*
X003450Y018069D02*
X005991Y018069D01*
X005913Y017911D02*
X003529Y017911D01*
X003561Y017752D02*
X005881Y017752D01*
X005885Y017594D02*
X003557Y017594D01*
X004564Y016437D02*
X004877Y016781D01*
X004964Y016008D02*
X007727Y016008D01*
X008778Y018069D02*
X010699Y018069D01*
X010858Y018228D02*
X008620Y018228D01*
X008838Y019021D02*
X007554Y019021D01*
X007465Y019179D02*
X008664Y019179D01*
X008579Y019338D02*
X007260Y019338D01*
X007406Y018386D02*
X012312Y018386D01*
X012464Y018228D02*
X011396Y018228D01*
X011555Y018069D02*
X016167Y018069D01*
X016280Y017911D02*
X013026Y017911D01*
X013184Y017752D02*
X016172Y017752D01*
X016172Y017594D02*
X013192Y017594D01*
X013192Y017435D02*
X016172Y017435D01*
X016218Y017277D02*
X013088Y017277D01*
X012752Y017277D02*
X012752Y017277D01*
X012752Y017435D02*
X012752Y017435D01*
X012752Y017594D02*
X012752Y017594D01*
X012752Y017752D02*
X012752Y017752D01*
X012752Y017911D02*
X012752Y017911D01*
X012478Y017911D02*
X012161Y017911D01*
X011593Y017911D02*
X011567Y017911D01*
X011127Y017911D02*
X011127Y017911D01*
X011127Y018069D02*
X011127Y018069D01*
X011127Y018228D02*
X011127Y018228D01*
X012752Y018228D02*
X012752Y018228D01*
X012752Y018386D02*
X012752Y018386D01*
X012752Y018545D02*
X012752Y018545D01*
X013040Y018228D02*
X013204Y018228D01*
X013752Y018228D02*
X013752Y018228D01*
X013752Y018386D02*
X013752Y018386D01*
X013752Y018545D02*
X013752Y018545D01*
X014300Y018228D02*
X016006Y018228D01*
X015937Y018386D02*
X014415Y018386D01*
X014452Y018545D02*
X015912Y018545D01*
X015923Y018703D02*
X014430Y018703D01*
X014335Y018862D02*
X015988Y018862D01*
X016130Y019021D02*
X014219Y019021D01*
X014449Y019179D02*
X016055Y019179D01*
X015957Y019338D02*
X014547Y019338D01*
X014592Y019496D02*
X015912Y019496D01*
X015912Y019655D02*
X014592Y019655D01*
X014536Y019813D02*
X015968Y019813D01*
X016081Y019972D02*
X014423Y019972D01*
X014400Y020130D02*
X016104Y020130D01*
X015977Y020289D02*
X014526Y020289D01*
X014592Y020447D02*
X015912Y020447D01*
X015912Y020606D02*
X014592Y020606D01*
X014556Y020765D02*
X015948Y020765D01*
X016032Y020923D02*
X014471Y020923D01*
X014351Y021082D02*
X016153Y021082D01*
X015998Y021240D02*
X014506Y021240D01*
X014572Y021399D02*
X015932Y021399D01*
X015912Y021557D02*
X014592Y021557D01*
X014576Y021716D02*
X015928Y021716D01*
X015993Y021874D02*
X014511Y021874D01*
X014362Y022033D02*
X016142Y022033D01*
X016394Y022350D02*
X013110Y022350D01*
X013268Y022509D02*
X016236Y022509D01*
X016172Y022667D02*
X013332Y022667D01*
X013332Y022826D02*
X016172Y022826D01*
X016172Y022984D02*
X013332Y022984D01*
X013242Y023143D02*
X016262Y023143D01*
X017110Y022350D02*
X019496Y022350D01*
X019631Y022509D02*
X017268Y022509D01*
X017516Y018862D02*
X026682Y018862D01*
X026682Y019972D02*
X025182Y019972D01*
X025146Y020130D02*
X026682Y020130D01*
X026682Y020289D02*
X024987Y020289D01*
X023916Y018386D02*
X021649Y018386D01*
X021735Y018228D02*
X023786Y018228D01*
X023721Y018069D02*
X021282Y018069D01*
X021222Y018069D02*
X017337Y018069D01*
X017224Y017911D02*
X020763Y017911D01*
X020768Y018228D02*
X017498Y018228D01*
X017567Y018386D02*
X020855Y018386D01*
X021222Y018386D02*
X021282Y018386D01*
X021282Y018228D02*
X021222Y018228D01*
X021222Y017911D02*
X021282Y017911D01*
X021282Y017752D02*
X021222Y017752D01*
X021222Y017594D02*
X021282Y017594D01*
X021453Y017594D02*
X023705Y017594D01*
X023682Y017752D02*
X021663Y017752D01*
X021741Y017911D02*
X023682Y017911D01*
X023771Y017435D02*
X020446Y017435D01*
X020538Y017277D02*
X023878Y017277D01*
X024037Y017118D02*
X022450Y017118D01*
X022685Y016959D02*
X023110Y016959D01*
X022951Y016801D02*
X022785Y016801D01*
X022832Y016008D02*
X022955Y016008D01*
X023113Y015850D02*
X022796Y015850D01*
X022787Y015374D02*
X023931Y015374D01*
X023797Y015216D02*
X023169Y015216D01*
X023328Y015057D02*
X023797Y015057D01*
X023797Y014898D02*
X023363Y014898D01*
X023363Y014740D02*
X023547Y014740D01*
X023388Y014581D02*
X023363Y014581D01*
X021852Y015374D02*
X021821Y015374D01*
X021120Y015374D02*
X018821Y015374D01*
X018950Y015216D02*
X019397Y015216D01*
X019239Y015057D02*
X019109Y015057D01*
X019113Y014898D02*
X019203Y014898D01*
X019203Y014740D02*
X019113Y014740D01*
X019113Y014581D02*
X019203Y014581D01*
X019321Y014423D02*
X018964Y014423D01*
X018805Y014264D02*
X019446Y014264D01*
X019288Y014106D02*
X018348Y014106D01*
X018348Y013947D02*
X019203Y013947D01*
X019203Y013789D02*
X018348Y013789D01*
X018348Y013630D02*
X019203Y013630D01*
X019272Y013472D02*
X018348Y013472D01*
X018348Y013313D02*
X019431Y013313D01*
X019336Y013154D02*
X018348Y013154D01*
X018348Y012996D02*
X019203Y012996D01*
X019203Y012837D02*
X018348Y012837D01*
X018348Y012679D02*
X019203Y012679D01*
X019224Y012520D02*
X018348Y012520D01*
X018348Y012362D02*
X019382Y012362D01*
X019385Y012203D02*
X018348Y012203D01*
X017468Y012996D02*
X016290Y012996D01*
X016356Y013154D02*
X017468Y013154D01*
X017468Y013313D02*
X016373Y013313D01*
X016355Y013472D02*
X017468Y013472D01*
X017468Y013630D02*
X016289Y013630D01*
X016137Y013789D02*
X017468Y013789D01*
X017468Y013947D02*
X016248Y013947D01*
X016335Y014106D02*
X017468Y014106D01*
X017468Y014264D02*
X016805Y014264D01*
X016964Y014423D02*
X017468Y014423D01*
X017468Y014581D02*
X017113Y014581D01*
X017113Y014740D02*
X017468Y014740D01*
X017468Y014898D02*
X017113Y014898D01*
X017109Y015057D02*
X017354Y015057D01*
X017195Y015216D02*
X016950Y015216D01*
X017037Y015374D02*
X016792Y015374D01*
X017489Y016167D02*
X017974Y016167D01*
X017891Y016008D02*
X017647Y016008D01*
X017806Y015850D02*
X017891Y015850D01*
X018132Y016325D02*
X017330Y016325D01*
X017437Y016218D02*
X017437Y016218D01*
X018809Y016325D02*
X021132Y016325D01*
X020974Y016167D02*
X018968Y016167D01*
X019051Y016008D02*
X020891Y016008D01*
X020891Y015850D02*
X019051Y015850D01*
X019051Y015691D02*
X020891Y015691D01*
X020962Y015533D02*
X018980Y015533D01*
X020399Y016642D02*
X021672Y016642D01*
X021719Y016801D02*
X020519Y016801D01*
X020579Y016959D02*
X021819Y016959D01*
X022054Y017118D02*
X020579Y017118D01*
X023184Y012362D02*
X023731Y012362D01*
X023573Y012203D02*
X023181Y012203D01*
X023340Y012045D02*
X023547Y012045D01*
X023547Y011886D02*
X023363Y011886D01*
X023363Y011728D02*
X023547Y011728D01*
X023675Y011569D02*
X023363Y011569D01*
X023233Y011410D02*
X023834Y011410D01*
X024047Y011252D02*
X023074Y011252D01*
X024523Y012362D02*
X024731Y012362D01*
X025579Y011569D02*
X026288Y011569D01*
X026288Y011410D02*
X025420Y011410D01*
X025207Y011252D02*
X026288Y011252D01*
X026288Y011093D02*
X025207Y011093D01*
X025195Y010935D02*
X026288Y010935D01*
X026288Y010459D02*
X025550Y010459D01*
X025709Y010301D02*
X026288Y010301D01*
X026288Y010142D02*
X025769Y010142D01*
X025769Y009984D02*
X026288Y009984D01*
X026288Y009825D02*
X025769Y009825D01*
X025676Y009666D02*
X026301Y009666D01*
X026409Y009508D02*
X025518Y009508D01*
X025407Y008874D02*
X026682Y008874D01*
X026682Y009032D02*
X022446Y009032D01*
X022463Y007923D02*
X026682Y007923D01*
X026682Y008081D02*
X025424Y008081D01*
X025583Y008240D02*
X026682Y008240D01*
X026682Y008398D02*
X025629Y008398D01*
X025629Y008557D02*
X026682Y008557D01*
X026682Y008715D02*
X025565Y008715D01*
X025190Y008715D02*
X025189Y008715D01*
X025189Y008557D02*
X025190Y008557D01*
X025189Y008874D02*
X025190Y008874D01*
X024845Y007288D02*
X023346Y007288D01*
X023336Y007299D02*
X022855Y007299D01*
X022516Y006959D01*
X022516Y006478D01*
X022855Y006139D01*
X023336Y006139D01*
X023676Y006478D01*
X023676Y006959D01*
X023336Y007299D01*
X023505Y007130D02*
X024687Y007130D01*
X024528Y006971D02*
X023663Y006971D01*
X023676Y006813D02*
X024516Y006813D01*
X024516Y006654D02*
X023676Y006654D01*
X023676Y006496D02*
X024516Y006496D01*
X024657Y006337D02*
X023534Y006337D01*
X023376Y006179D02*
X024816Y006179D01*
X022816Y006179D02*
X020969Y006179D01*
X020930Y006139D02*
X021269Y006478D01*
X021269Y006959D01*
X020930Y007299D01*
X020449Y007299D01*
X020109Y006959D01*
X020109Y006478D01*
X020449Y006139D01*
X020930Y006139D01*
X021128Y006337D02*
X022657Y006337D01*
X022516Y006496D02*
X021269Y006496D01*
X021269Y006654D02*
X022516Y006654D01*
X022516Y006813D02*
X021269Y006813D01*
X021257Y006971D02*
X022528Y006971D01*
X022687Y007130D02*
X021099Y007130D01*
X020940Y007288D02*
X022845Y007288D01*
X020439Y007288D02*
X020207Y007288D01*
X020171Y007130D02*
X020280Y007130D01*
X020122Y006971D02*
X020012Y006971D01*
X020109Y006813D02*
X019371Y006813D01*
X019371Y006654D02*
X020109Y006654D01*
X020109Y006496D02*
X019371Y006496D01*
X019371Y006337D02*
X020251Y006337D01*
X020409Y006179D02*
X019371Y006179D01*
X019627Y005703D02*
X019627Y005703D01*
X019627Y005544D02*
X019627Y005544D01*
X019912Y005069D02*
X020480Y005069D01*
X020321Y004910D02*
X019787Y004910D01*
X019926Y004752D02*
X020249Y004752D01*
X020249Y004593D02*
X019926Y004593D01*
X019926Y004435D02*
X020289Y004435D01*
X020447Y004276D02*
X019911Y004276D01*
X018718Y004593D02*
X016926Y004593D01*
X016926Y004435D02*
X018627Y004435D01*
X018468Y004276D02*
X016911Y004276D01*
X016926Y004291D02*
X016586Y003951D01*
X016106Y003951D01*
X015766Y004291D01*
X015766Y004771D01*
X016106Y005111D01*
X016586Y005111D01*
X016926Y004771D01*
X016926Y004291D01*
X016752Y004117D02*
X018310Y004117D01*
X018151Y003959D02*
X016594Y003959D01*
X016098Y003959D02*
X015177Y003959D01*
X015223Y004117D02*
X015939Y004117D01*
X015781Y004276D02*
X015223Y004276D01*
X015158Y004435D02*
X015766Y004435D01*
X015766Y004593D02*
X015000Y004593D01*
X015168Y004752D02*
X015766Y004752D01*
X015905Y004910D02*
X015326Y004910D01*
X015363Y005069D02*
X016063Y005069D01*
X016628Y005069D02*
X018571Y005069D01*
X018571Y005227D02*
X015363Y005227D01*
X015363Y005386D02*
X018571Y005386D01*
X018571Y005544D02*
X015246Y005544D01*
X015088Y005703D02*
X018571Y005703D01*
X018571Y005861D02*
X018374Y005861D01*
X017928Y005861D02*
X017888Y005861D01*
X017888Y005832D02*
X017888Y006292D01*
X017128Y006292D01*
X017128Y006217D01*
X017201Y006041D01*
X017336Y005906D01*
X017513Y005832D01*
X017888Y005832D01*
X017888Y006020D02*
X017928Y006020D01*
X017928Y006179D02*
X017888Y006179D01*
X017443Y005861D02*
X016162Y005861D01*
X016300Y006020D02*
X017222Y006020D01*
X017144Y006179D02*
X016366Y006179D01*
X016373Y006337D02*
X017128Y006337D01*
X017165Y006496D02*
X016345Y006496D01*
X016272Y006654D02*
X017271Y006654D01*
X017231Y006813D02*
X016102Y006813D01*
X016272Y006971D02*
X017078Y006971D01*
X017013Y007130D02*
X016345Y007130D01*
X016373Y007288D02*
X016988Y007288D01*
X016993Y007447D02*
X016365Y007447D01*
X016300Y007605D02*
X017059Y007605D01*
X017183Y007764D02*
X016162Y007764D01*
X016224Y007923D02*
X017121Y007923D01*
X017033Y008081D02*
X016325Y008081D01*
X016373Y008240D02*
X016988Y008240D01*
X016988Y008398D02*
X016373Y008398D01*
X016320Y008557D02*
X017038Y008557D01*
X017134Y008715D02*
X016211Y008715D01*
X016175Y008874D02*
X017170Y008874D01*
X017053Y009032D02*
X016305Y009032D01*
X016371Y009191D02*
X016988Y009191D01*
X016988Y009349D02*
X016373Y009349D01*
X016340Y009508D02*
X017018Y009508D01*
X017085Y009666D02*
X016259Y009666D01*
X016325Y009825D02*
X016126Y009825D01*
X016991Y009825D02*
X017219Y009825D01*
X017195Y010776D02*
X017015Y010776D01*
X014940Y009825D02*
X013126Y009825D01*
X013259Y009666D02*
X014807Y009666D01*
X014726Y009508D02*
X013340Y009508D01*
X013373Y009349D02*
X014693Y009349D01*
X014696Y009191D02*
X013371Y009191D01*
X013305Y009032D02*
X014761Y009032D01*
X014892Y008874D02*
X013175Y008874D01*
X013211Y008715D02*
X014856Y008715D01*
X014747Y008557D02*
X013320Y008557D01*
X013373Y008398D02*
X014693Y008398D01*
X014693Y008240D02*
X013373Y008240D01*
X013325Y008081D02*
X014741Y008081D01*
X014843Y007923D02*
X013224Y007923D01*
X013162Y007764D02*
X014905Y007764D01*
X014767Y007605D02*
X013300Y007605D01*
X013365Y007447D02*
X014701Y007447D01*
X014693Y007288D02*
X013373Y007288D01*
X013345Y007130D02*
X014721Y007130D01*
X014794Y006971D02*
X013272Y006971D01*
X013102Y006813D02*
X014964Y006813D01*
X014795Y006654D02*
X013272Y006654D01*
X013345Y006496D02*
X014721Y006496D01*
X014693Y006337D02*
X013373Y006337D01*
X013366Y006179D02*
X014701Y006179D01*
X014767Y006020D02*
X013300Y006020D01*
X013162Y005861D02*
X014904Y005861D01*
X014478Y005703D02*
X010946Y005703D01*
X011174Y005544D02*
X014320Y005544D01*
X014203Y005386D02*
X011332Y005386D01*
X011491Y005227D02*
X012284Y005227D01*
X012126Y005069D02*
X011649Y005069D01*
X011808Y004910D02*
X011984Y004910D01*
X011984Y004752D02*
X011966Y004752D01*
X011356Y004117D02*
X009082Y004117D01*
X009082Y004276D02*
X011197Y004276D01*
X011039Y004435D02*
X009082Y004435D01*
X009041Y004593D02*
X010880Y004593D01*
X010722Y004752D02*
X009761Y004752D01*
X009243Y004752D02*
X008883Y004752D01*
X008920Y004910D02*
X009084Y004910D01*
X009072Y005703D02*
X008932Y005703D01*
X008773Y005861D02*
X009231Y005861D01*
X009773Y005861D02*
X011904Y005861D01*
X012845Y005227D02*
X013753Y005227D01*
X013594Y005069D02*
X013003Y005069D01*
X013144Y004910D02*
X013453Y004910D01*
X013453Y004752D02*
X013144Y004752D01*
X013144Y004593D02*
X013453Y004593D01*
X013466Y004435D02*
X013132Y004435D01*
X012973Y004276D02*
X013624Y004276D01*
X013783Y004117D02*
X012815Y004117D01*
X012759Y003959D02*
X014390Y003959D01*
X014343Y004117D02*
X014283Y004117D01*
X016787Y004910D02*
X018571Y004910D01*
X018602Y004752D02*
X016926Y004752D01*
X018971Y007750D02*
X019596Y008375D01*
X019596Y009625D01*
X020689Y010719D01*
X020402Y011252D02*
X020074Y011252D01*
X025707Y011728D02*
X026288Y011728D01*
X026288Y011886D02*
X025707Y011886D01*
X025707Y012045D02*
X026288Y012045D01*
X026288Y012203D02*
X025681Y012203D01*
X026058Y012996D02*
X026288Y012996D01*
X026288Y013154D02*
X026067Y013154D01*
X026067Y013313D02*
X026288Y013313D01*
X026288Y013472D02*
X025965Y013472D01*
X013153Y021082D02*
X010274Y021082D01*
X010398Y021240D02*
X012998Y021240D01*
X012932Y021399D02*
X010463Y021399D01*
X010472Y021557D02*
X012912Y021557D01*
X012928Y021716D02*
X010455Y021716D01*
X010389Y021874D02*
X012993Y021874D01*
X013142Y022033D02*
X010252Y022033D01*
X009955Y022191D02*
X009049Y022191D01*
X005822Y022191D01*
X005822Y022149D02*
X005697Y021848D01*
X005466Y021617D01*
X005165Y021492D01*
X004839Y021492D01*
X004537Y021617D01*
X004307Y021848D01*
X004182Y022149D01*
X004182Y022476D01*
X004307Y022777D01*
X004537Y023008D01*
X004839Y023132D01*
X005165Y023132D01*
X005466Y023008D01*
X005697Y022777D01*
X005822Y022476D01*
X005822Y022149D01*
X005774Y022033D02*
X008751Y022033D01*
X008812Y022093D02*
X008631Y021912D01*
X008532Y021675D01*
X008532Y021418D01*
X008631Y021181D01*
X008812Y021000D01*
X009049Y020902D01*
X009955Y020902D01*
X008998Y020923D02*
X005353Y020923D01*
X005022Y020923D02*
X004982Y020923D01*
X004982Y020765D02*
X005022Y020765D01*
X005022Y020606D02*
X004982Y020606D01*
X004982Y020447D02*
X005022Y020447D01*
X005022Y020289D02*
X004982Y020289D01*
X004982Y020292D02*
X004982Y019632D01*
X004720Y019632D01*
X004322Y020031D01*
X004322Y020292D01*
X004982Y020292D01*
X004982Y020130D02*
X005022Y020130D01*
X005022Y019972D02*
X004982Y019972D01*
X004982Y019813D02*
X005022Y019813D01*
X005022Y019655D02*
X004982Y019655D01*
X004698Y019655D02*
X000572Y019655D01*
X000572Y019813D02*
X004539Y019813D01*
X004381Y019972D02*
X000572Y019972D01*
X000572Y020130D02*
X004322Y020130D01*
X004322Y020289D02*
X000572Y020289D01*
X000572Y020447D02*
X004322Y020447D01*
X004334Y020606D02*
X000572Y020606D01*
X000572Y020765D02*
X001402Y020765D01*
X001258Y020824D02*
X001579Y020691D01*
X001925Y020691D01*
X002245Y020824D01*
X002490Y021069D01*
X002623Y021389D01*
X002623Y021736D01*
X002490Y022056D01*
X002245Y022301D01*
X001925Y022434D01*
X001579Y022434D01*
X001258Y022301D01*
X001013Y022056D01*
X000881Y021736D01*
X000881Y021389D01*
X001013Y021069D01*
X001258Y020824D01*
X001159Y020923D02*
X000572Y020923D01*
X000572Y021082D02*
X001008Y021082D01*
X000942Y021240D02*
X000572Y021240D01*
X000572Y021399D02*
X000881Y021399D01*
X000881Y021557D02*
X000572Y021557D01*
X000572Y021716D02*
X000881Y021716D01*
X000938Y021874D02*
X000572Y021874D01*
X000572Y022033D02*
X001004Y022033D01*
X001149Y022191D02*
X000572Y022191D01*
X000572Y022350D02*
X001377Y022350D01*
X002127Y022350D02*
X004182Y022350D01*
X004182Y022191D02*
X002355Y022191D01*
X002500Y022033D02*
X004230Y022033D01*
X004296Y021874D02*
X002566Y021874D01*
X002623Y021716D02*
X004439Y021716D01*
X004682Y021557D02*
X002623Y021557D01*
X002623Y021399D02*
X008541Y021399D01*
X008532Y021557D02*
X005321Y021557D01*
X005565Y021716D02*
X008549Y021716D01*
X008615Y021874D02*
X005708Y021874D01*
X005822Y022350D02*
X012394Y022350D01*
X012236Y022509D02*
X005808Y022509D01*
X005743Y022667D02*
X012172Y022667D01*
X012172Y022826D02*
X005648Y022826D01*
X005490Y022984D02*
X012172Y022984D01*
X012262Y023143D02*
X000572Y023143D01*
X000572Y022984D02*
X004514Y022984D01*
X004355Y022826D02*
X000572Y022826D01*
X000572Y022667D02*
X004261Y022667D01*
X004196Y022509D02*
X000572Y022509D01*
X002561Y021240D02*
X008606Y021240D01*
X008730Y021082D02*
X002496Y021082D01*
X002345Y020923D02*
X004651Y020923D01*
X004492Y020765D02*
X002102Y020765D01*
X000572Y019496D02*
X008532Y019496D01*
X008532Y019655D02*
X005306Y019655D01*
X005464Y019813D02*
X008577Y019813D01*
X008659Y019972D02*
X005623Y019972D01*
X005682Y020130D02*
X008825Y020130D01*
X008812Y022093D02*
X009049Y022191D01*
X013004Y020130D02*
X013104Y020130D01*
X006658Y013312D02*
X006158Y012812D01*
X004814Y012812D01*
X004596Y012594D01*
X004596Y011781D01*
X005064Y011312D01*
X005502Y011312D01*
X005502Y010312D02*
X004752Y010312D01*
X006191Y009825D02*
X011940Y009825D01*
X011945Y009821D02*
X011965Y009812D01*
X011945Y009804D01*
X011782Y009641D01*
X011693Y009428D01*
X011693Y009197D01*
X011782Y008984D01*
X011945Y008821D01*
X011965Y008812D01*
X011945Y008804D01*
X011782Y008641D01*
X011693Y008428D01*
X011693Y008197D01*
X011733Y008101D01*
X006385Y008101D01*
X006422Y008240D02*
X011693Y008240D01*
X011693Y008398D02*
X006422Y008398D01*
X006372Y008557D02*
X011747Y008557D01*
X011856Y008715D02*
X006276Y008715D01*
X006240Y008874D02*
X011892Y008874D01*
X011761Y009032D02*
X006357Y009032D01*
X006422Y009191D02*
X011696Y009191D01*
X011693Y009349D02*
X006422Y009349D01*
X006392Y009508D02*
X011726Y009508D01*
X011807Y009666D02*
X006325Y009666D01*
X002363Y009825D02*
X000966Y009825D01*
X000966Y009984D02*
X002204Y009984D01*
X002132Y010142D02*
X000966Y010142D01*
X000966Y010301D02*
X002132Y010301D01*
X002132Y010459D02*
X000966Y010459D01*
X000966Y010618D02*
X002181Y010618D01*
X002339Y010776D02*
X000966Y010776D01*
X000966Y010935D02*
X002253Y010935D01*
X002132Y011056D02*
X002132Y011569D01*
X002290Y011728D02*
X000966Y011728D01*
X000966Y011886D02*
X002301Y011886D01*
X002143Y012045D02*
X000966Y012045D01*
X000966Y012203D02*
X002132Y012203D01*
X002132Y012362D02*
X000966Y012362D01*
X000966Y012520D02*
X002132Y012520D01*
X002242Y012679D02*
X000966Y012679D01*
X000966Y012837D02*
X002350Y012837D01*
X002192Y012996D02*
X000966Y012996D01*
X000966Y013154D02*
X002132Y013154D01*
X002132Y013313D02*
X000966Y013313D01*
X000966Y013472D02*
X002132Y013472D01*
X002193Y013630D02*
X000966Y013630D01*
X000966Y013789D02*
X002351Y013789D01*
X002240Y013947D02*
X000966Y013947D01*
X000966Y014106D02*
X002132Y014106D01*
X002132Y014264D02*
X000921Y014264D01*
X000572Y014423D02*
X002132Y014423D01*
X002144Y014581D02*
X000572Y014581D01*
X000953Y009666D02*
X002229Y009666D01*
X002132Y009508D02*
X000845Y009508D01*
X008810Y003800D02*
X011673Y003800D01*
X011514Y003959D02*
X008969Y003959D01*
X010761Y002374D02*
X011243Y002374D01*
X011084Y002215D02*
X010920Y002215D01*
X009922Y001739D02*
X009895Y001739D01*
X010773Y001264D02*
X011230Y001264D01*
X011072Y001422D02*
X010932Y001422D01*
X011945Y009821D02*
X011782Y009984D01*
D22*
X013877Y010969D03*
D23*
X014636Y009836D03*
D24*
X007564Y003437D03*
D25*
X009502Y005312D02*
X009533Y005281D01*
X010814Y005281D01*
X012627Y003469D01*
X018283Y003469D01*
X019346Y004531D01*
X019627Y005406D02*
X019658Y005437D01*
X020627Y005437D01*
X021533Y006344D01*
X021533Y009844D01*
X017908Y011312D02*
X017908Y015125D01*
X017064Y015969D01*
X012033Y015969D01*
X011127Y016875D01*
X020721Y015531D02*
X020971Y017781D01*
X021252Y018062D01*
D26*
X009533Y009062D03*
D27*
X008252Y016625D02*
X006721Y016625D01*
X006564Y016781D01*
D28*
X006564Y016781D03*
X004877Y016781D03*
D29*
X005846Y007781D02*
X012064Y007781D01*
X012064Y007750D01*
M02*
