G75*
G70*
%OFA0B0*%
%FSLAX24Y24*%
%IPPOS*%
%LPD*%
%AMOC8*
5,1,8,0,0,1.08239X$1,22.5*
%
%ADD10C,0.1182*%
%ADD11C,0.0671*%
%ADD12C,0.0600*%
%ADD13OC8,0.0600*%
%ADD14C,0.0680*%
%ADD15OC8,0.0680*%
%ADD16C,0.0595*%
%ADD17C,0.1080*%
%ADD18OC8,0.1080*%
%ADD19C,0.0740*%
%ADD20C,0.0730*%
%ADD21C,0.0600*%
%ADD22OC8,0.0740*%
%ADD23OC8,0.0555*%
%ADD24OC8,0.0580*%
%ADD25C,0.0555*%
%ADD26C,0.0476*%
D10*
X001752Y002312D03*
X001752Y021562D03*
X025502Y021562D03*
X025502Y002312D03*
D11*
X015502Y001812D03*
X007564Y003437D03*
D12*
X012273Y006312D02*
X012793Y006312D01*
X012793Y007312D02*
X012273Y007312D01*
X012273Y008312D02*
X012793Y008312D01*
X012793Y009312D02*
X012273Y009312D01*
X012273Y010312D02*
X012793Y010312D01*
X012793Y011312D02*
X012273Y011312D01*
X012273Y012312D02*
X012793Y012312D01*
X012793Y013312D02*
X012273Y013312D01*
X012273Y014312D02*
X012793Y014312D01*
X012793Y015312D02*
X012273Y015312D01*
X015273Y015312D02*
X015793Y015312D01*
X015793Y014312D02*
X015273Y014312D01*
X015273Y013312D02*
X015793Y013312D01*
X015793Y012312D02*
X015273Y012312D01*
X015273Y011312D02*
X015793Y011312D01*
X015793Y010312D02*
X015273Y010312D01*
X015273Y009312D02*
X015793Y009312D01*
X015793Y008312D02*
X015273Y008312D01*
X015273Y007312D02*
X015793Y007312D01*
X015793Y006312D02*
X015273Y006312D01*
X022252Y016052D02*
X022252Y016572D01*
X022252Y020052D02*
X022252Y020572D01*
X017012Y020562D02*
X016492Y020562D01*
X016492Y021562D02*
X017012Y021562D01*
X017012Y019562D02*
X016492Y019562D01*
X016492Y018562D02*
X017012Y018562D01*
X014012Y018562D02*
X013492Y018562D01*
X013492Y019562D02*
X014012Y019562D01*
X014012Y020562D02*
X013492Y020562D01*
X013492Y021562D02*
X014012Y021562D01*
X007012Y018812D02*
X006492Y018812D01*
X006461Y017719D02*
X006981Y017719D01*
X003012Y018812D02*
X002492Y018812D01*
X002461Y017719D02*
X002981Y017719D01*
D13*
X009502Y017375D03*
X011127Y017875D03*
X011877Y017375D03*
X012752Y017562D03*
X012752Y018562D03*
X012752Y019562D03*
X011127Y016875D03*
X009502Y015375D03*
X016533Y014812D03*
X018533Y014812D03*
X018471Y015844D03*
X018752Y017062D03*
X016752Y017562D03*
X019783Y014781D03*
X019783Y013781D03*
X019783Y012781D03*
X019783Y011781D03*
X020689Y010719D03*
X022783Y011781D03*
X022783Y012781D03*
X022783Y013781D03*
X022783Y014781D03*
X023877Y014250D03*
X024377Y015000D03*
X024877Y014250D03*
X024627Y013187D03*
X025627Y013187D03*
X025127Y011937D03*
X024627Y011187D03*
X024127Y011937D03*
X023189Y010000D03*
X022189Y008469D03*
X023096Y006719D03*
X025096Y006719D03*
X025189Y008469D03*
X025189Y010000D03*
X020689Y006719D03*
X019627Y007406D03*
X019627Y005406D03*
X019346Y004531D03*
X020689Y004656D03*
X022221Y004594D03*
X023564Y004625D03*
X023564Y001625D03*
X022221Y001594D03*
X020689Y001656D03*
X016346Y004531D03*
X014783Y004187D03*
X014033Y004687D03*
X014783Y005187D03*
X012564Y004687D03*
X012564Y002687D03*
X011502Y001812D03*
X010502Y001812D03*
X009502Y001312D03*
X008502Y004312D03*
X008502Y005312D03*
X009502Y005312D03*
X004502Y005312D03*
X004502Y004312D03*
X016658Y010312D03*
X016658Y012312D03*
X021471Y015844D03*
X023377Y016406D03*
X024377Y016406D03*
X018752Y021062D03*
X016752Y022812D03*
X012752Y022812D03*
D14*
X005802Y015312D02*
X005202Y015312D01*
X005202Y014312D02*
X005802Y014312D01*
X005802Y013312D02*
X005202Y013312D01*
X005202Y012312D02*
X005802Y012312D01*
X005802Y011312D02*
X005202Y011312D01*
X005202Y010312D02*
X005802Y010312D01*
X005802Y009312D02*
X005202Y009312D01*
X005202Y008312D02*
X005802Y008312D01*
X005802Y007312D02*
X005202Y007312D01*
X005202Y006312D02*
X005802Y006312D01*
X013922Y002702D02*
X014522Y002702D01*
X016482Y002702D02*
X017082Y002702D01*
X017082Y000922D02*
X016482Y000922D01*
X014522Y000922D02*
X013922Y000922D01*
X017608Y006312D02*
X018208Y006312D01*
X018208Y007312D02*
X017608Y007312D01*
X017608Y008312D02*
X018208Y008312D01*
X018208Y009312D02*
X017608Y009312D01*
X017608Y010312D02*
X018208Y010312D01*
X018208Y011312D02*
X017608Y011312D01*
D15*
X008283Y015687D03*
X008283Y016687D03*
X008283Y017687D03*
X003752Y016312D03*
X002752Y016312D03*
X002752Y015312D03*
X003752Y015312D03*
X003752Y014312D03*
X002752Y014312D03*
X002752Y013312D03*
X003752Y013312D03*
X003752Y012312D03*
X002752Y012312D03*
X002752Y011312D03*
X003752Y011312D03*
X003752Y010312D03*
X002752Y010312D03*
X002752Y009312D03*
X003752Y009312D03*
X003752Y008312D03*
X002752Y008312D03*
X002752Y007312D03*
X003752Y007312D03*
D16*
X020002Y017062D03*
X020002Y022062D03*
D17*
X024502Y017812D03*
X005002Y022312D03*
D18*
X005002Y020312D03*
X024502Y019812D03*
X026252Y016062D03*
X026252Y004812D03*
D19*
X021252Y018062D03*
X021252Y022062D03*
X000846Y020250D03*
D20*
X009177Y019578D02*
X009827Y019578D01*
X009827Y021547D02*
X009177Y021547D01*
D21*
X008583Y010625D03*
X010483Y010625D03*
D22*
X007064Y006125D03*
D23*
X013877Y010969D03*
D24*
X014636Y009836D03*
D25*
X009533Y009062D03*
D26*
X006564Y016781D03*
X004877Y016781D03*
M02*
