G04 #@! TF.GenerationSoftware,KiCad,Pcbnew,5.0.0-rc2-dev-unknown-6866c0c~65~ubuntu16.04.1*
G04 #@! TF.CreationDate,2018-07-16T22:36:55+02:00*
G04 #@! TF.ProjectId,Rauchmelder_3.6,52617563686D656C6465725F332E362E,rev?*
G04 #@! TF.SameCoordinates,Original*
G04 #@! TF.FileFunction,Paste,Top*
G04 #@! TF.FilePolarity,Positive*
%FSLAX46Y46*%
G04 Gerber Fmt 4.6, Leading zero omitted, Abs format (unit mm)*
G04 Created by KiCad (PCBNEW 5.0.0-rc2-dev-unknown-6866c0c~65~ubuntu16.04.1) date Mon Jul 16 22:36:55 2018*
%MOMM*%
%LPD*%
G01*
G04 APERTURE LIST*
%ADD10R,1.200000X1.400000*%
%ADD11R,1.400000X1.200000*%
%ADD12R,1.200000X1.403000*%
%ADD13R,1.403000X1.200000*%
%ADD14R,0.170000X1.420000*%
%ADD15R,1.420000X0.170000*%
%ADD16R,1.200000X1.100000*%
%ADD17R,3.100000X1.200000*%
%ADD18R,1.835200X0.819200*%
%ADD19R,1.800000X3.200000*%
%ADD20R,1.780000X1.380000*%
%ADD21R,0.600000X1.000000*%
%ADD22R,1.380000X1.760000*%
%ADD23R,1.380000X1.780000*%
%ADD24R,1.000000X0.600000*%
%ADD25R,0.480000X0.780000*%
%ADD26R,3.200000X2.100000*%
%ADD27R,1.600000X1.100000*%
%ADD28R,1.600000X1.600000*%
G04 APERTURE END LIST*
D10*
X164800000Y-127000000D03*
X162000000Y-127000000D03*
D11*
X142400000Y-89600000D03*
X142400000Y-86800000D03*
D10*
X151000000Y-127000000D03*
X153800000Y-127000000D03*
X160600000Y-110400000D03*
X163400000Y-110400000D03*
D11*
X160400000Y-106600000D03*
X160400000Y-103800000D03*
D10*
X151000000Y-129800000D03*
X153800000Y-129800000D03*
D11*
X160400000Y-115200000D03*
X160400000Y-118000000D03*
D10*
X163200000Y-120600000D03*
X160400000Y-120600000D03*
X162800000Y-113000000D03*
X165600000Y-113000000D03*
X146000000Y-121200000D03*
X143200000Y-121200000D03*
X136000000Y-116200000D03*
X133200000Y-116200000D03*
D11*
X135200000Y-125200000D03*
X135200000Y-128000000D03*
D10*
X134800000Y-133000000D03*
X132000000Y-133000000D03*
X136000000Y-113800000D03*
X133200000Y-113800000D03*
D12*
X164822000Y-124400000D03*
X161978000Y-124400000D03*
X155378000Y-110400000D03*
X158222000Y-110400000D03*
X152822000Y-110400000D03*
X149978000Y-110400000D03*
D13*
X141200000Y-107378000D03*
X141200000Y-110222000D03*
X145000000Y-89622000D03*
X145000000Y-86778000D03*
D12*
X146178000Y-81800000D03*
X149022000Y-81800000D03*
D13*
X142400000Y-92378000D03*
X142400000Y-95222000D03*
D12*
X144178000Y-102600000D03*
X147022000Y-102600000D03*
D13*
X163000000Y-106622000D03*
X163000000Y-103778000D03*
D12*
X134822000Y-135600000D03*
X131978000Y-135600000D03*
D13*
X150200000Y-86778000D03*
X150200000Y-89622000D03*
X147600000Y-89622000D03*
X147600000Y-86778000D03*
D12*
X147022000Y-105200000D03*
X144178000Y-105200000D03*
D13*
X152800000Y-86778000D03*
X152800000Y-89622000D03*
D12*
X161978000Y-129600000D03*
X164822000Y-129600000D03*
X152978000Y-98800000D03*
X155822000Y-98800000D03*
X143022000Y-113000000D03*
X140178000Y-113000000D03*
X146022000Y-118600000D03*
X143178000Y-118600000D03*
X131978000Y-130400000D03*
X134822000Y-130400000D03*
X141178000Y-127200000D03*
X144022000Y-127200000D03*
D13*
X137600000Y-135022000D03*
X137600000Y-132178000D03*
D14*
X155950000Y-124100000D03*
X155450000Y-124100000D03*
X154950000Y-124100000D03*
X154450000Y-124100000D03*
X153950000Y-124100000D03*
X153450000Y-124100000D03*
X152950000Y-124100000D03*
X152450000Y-124100000D03*
X151950000Y-124100000D03*
X151450000Y-124100000D03*
X150950000Y-124100000D03*
X150450000Y-124100000D03*
D15*
X148900000Y-122550000D03*
X148900000Y-122050000D03*
X148900000Y-121550000D03*
X148900000Y-121050000D03*
X148900000Y-120550000D03*
X148900000Y-120050000D03*
X148900000Y-119550000D03*
X148900000Y-119050000D03*
X148900000Y-118550000D03*
X148900000Y-118050000D03*
X148900000Y-117550000D03*
X148900000Y-117050000D03*
D14*
X150450000Y-115500000D03*
X150950000Y-115500000D03*
X151450000Y-115500000D03*
X151950000Y-115500000D03*
X152450000Y-115500000D03*
X152950000Y-115500000D03*
X153450000Y-115500000D03*
X153950000Y-115500000D03*
X154450000Y-115500000D03*
X154950000Y-115500000D03*
X155450000Y-115500000D03*
X155950000Y-115500000D03*
D15*
X157500000Y-117050000D03*
X157500000Y-117550000D03*
X157500000Y-118050000D03*
X157500000Y-118550000D03*
X157500000Y-119050000D03*
X157500000Y-119550000D03*
X157500000Y-120050000D03*
X157500000Y-120550000D03*
X157500000Y-121050000D03*
X157500000Y-121550000D03*
X157500000Y-122050000D03*
X157500000Y-122550000D03*
D16*
X165450000Y-117750000D03*
X162950000Y-117750000D03*
X162950000Y-115450000D03*
X165450000Y-115450000D03*
D17*
X137600000Y-109000000D03*
X132000000Y-109000000D03*
D18*
X150701200Y-102888600D03*
X150701200Y-105200000D03*
X150701200Y-107511400D03*
D19*
X156899000Y-105200000D03*
D20*
X132000000Y-89300000D03*
X132000000Y-92700000D03*
D21*
X149250000Y-94500000D03*
X151150000Y-94500000D03*
X150200000Y-92300000D03*
D22*
X139040000Y-87400000D03*
X134970000Y-87400000D03*
D20*
X165600000Y-96900000D03*
X165600000Y-93500000D03*
D23*
X134900000Y-91200000D03*
X138300000Y-91200000D03*
X135100000Y-104000000D03*
X131700000Y-104000000D03*
D24*
X143700000Y-109800000D03*
X145900000Y-108850000D03*
X145900000Y-110750000D03*
D23*
X137900000Y-104000000D03*
X141300000Y-104000000D03*
X159300000Y-93400000D03*
X162700000Y-93400000D03*
X146000000Y-116000000D03*
X142600000Y-116000000D03*
D25*
X137250000Y-125250000D03*
X138200000Y-125250000D03*
X139150000Y-125250000D03*
X139150000Y-127550000D03*
X138200000Y-127550000D03*
X137250000Y-127550000D03*
D26*
X132400000Y-118975000D03*
X132400000Y-123025000D03*
D27*
X140200000Y-122900000D03*
X140200000Y-119900000D03*
D28*
X136800000Y-118800000D03*
X136800000Y-122800000D03*
M02*
