  0
SECTION
  2
HEADER
  9
$ACADVER
  1
AC1009
  9
$FILLMODE
 70
0
  9
$EXTMIN
 10
-10.5216
 20
-10.5216
 30
0.0000
  9
$EXTMAX
 10
70.5280
 20
70.5280
 30
0.0000
  0
ENDSEC
  0
SECTION
  2
TABLES
  0
TABLE
  2
LTYPE
 70
1
  0
LTYPE
  2
CONTINUOUS
 70
64
  3
Solid line
 72
65
 73
0
 40
0
  0
ENDTAB
  0
TABLE
  2
LAYER
 70
255
  0
LAYER
  2
16
 70
64
 62
175
  6
CONTINUOUS
  0
LAYER
  2
20
 70
64
 62
7
  6
CONTINUOUS
  0
ENDTAB
  0
ENDSEC
  0
SECTION
  2
BLOCKS
  0
BLOCK
  8
0
  2
RECT
 70
64
 10
0.0000
 20
0.0000
 30
0.0000
  3
RECT
  0
SOLID
  8
0
 10
-0.5000
 20
-0.5000
 30
0.0000
 11
0.5000
 21
-0.5000
 31
0.0000
 12
-0.5000
 22
0.5000
 32
0.0000
 13
0.5000
 23
0.5000
 33
0.0000
  0
ENDBLK
  8
0
  0
BLOCK
  8
0
  2
PIE
 70
64
 10
0.0000
 20
0.0000
 30
0.0000
  3
PIE
  0
CIRCLE
  8
0
 10
0.0000
 20
0.0000
 30
0.0000
 40
0.5000
  0
ENDBLK
  8
0
  0
BLOCK
  8
0
  2
OCTAGONP
 70
64
 10
0.0000
 20
0.0000
 30
0.0000
  3
OCTAGONP
  0
POLYLINE
  8
0
 66
1
 10
0.0000
 20
0.0000
 30
0.0000
 40
0.0000
 41
0.0000
 70
1
  0
VERTEX
  8
0
 10
-0.5000
 20
-0.2071
 30
0.0000
  0
VERTEX
  8
0
 10
-0.5000
 20
0.2071
 30
0.0000
  0
VERTEX
  8
0
 10
-0.2071
 20
0.5000
 30
0.0000
  0
VERTEX
  8
0
 10
0.2071
 20
0.5000
 30
0.0000
  0
VERTEX
  8
0
 10
0.5000
 20
0.2071
 30
0.0000
  0
VERTEX
  8
0
 10
0.5000
 20
-0.2071
 30
0.0000
  0
VERTEX
  8
0
 10
0.2071
 20
-0.5000
 30
0.0000
  0
VERTEX
  8
0
 10
-0.2071
 20
-0.5000
 30
0.0000
  0
SEQEND
  8
0
  0
ENDBLK
  8
0
  0
BLOCK
  8
0
  2
SQUAREP
 70
64
 10
0.0000
 20
0.0000
 30
0.0000
  3
SQUAREP
  0
SOLID
  8
0
 10
-0.5000
 20
-0.5000
 30
0.0000
 11
0.5000
 21
-0.5000
 31
0.0000
 12
-0.5000
 22
0.5000
 32
0.0000
 13
0.5000
 23
0.5000
 33
0.0000
  0
ENDBLK
  8
0
  0
BLOCK
  8
0
  2
ROUNDP
 70
64
 10
0.0000
 20
0.0000
 30
0.0000
  3
ROUNDP
  0
CIRCLE
  8
0
 10
0.0000
 20
0.0000
 30
0.0000
 40
0.5000
  0
ENDBLK
  8
0
  0
BLOCK
  8
0
  2
ANNULUSP
 70
64
 10
0.0000
 20
0.0000
 30
0.0000
  3
ANNULUSP
  0
CIRCLE
  8
0
 10
0.0000
 20
0.0000
 30
0.0000
 40
0.5000
  0
ENDBLK
  8
0
  0
BLOCK
  8
0
  2
THERMALP
 70
64
 10
0.0000
 20
0.0000
 30
0.0000
  3
THERMALP
  0
LINE
  8
0
 10
-0.2379
 20
0.4500
 30
0.0000
 11
0.2379
 21
0.4500
 31
0.0000
  0
LINE
  8
0
 10
0.4500
 20
0.2379
 30
0.0000
 11
0.4500
 21
-0.2379
 31
0.0000
  0
LINE
  8
0
 10
0.2379
 20
-0.4500
 30
0.0000
 11
-0.2379
 21
-0.4500
 31
0.0000
  0
LINE
  8
0
 10
-0.4500
 20
-0.2379
 30
0.0000
 11
-0.4500
 21
0.2379
 31
0.0000
  0
ENDBLK
  8
0
  0
BLOCK
  8
0
  2
OCTAGONV
 70
64
 10
0.0000
 20
0.0000
 30
0.0000
  3
OCTAGONV
  0
POLYLINE
  8
0
 66
1
 10
0.0000
 20
0.0000
 30
0.0000
 40
0.0000
 41
0.0000
 70
1
  0
VERTEX
  8
0
 10
-0.5000
 20
-0.2071
 30
0.0000
  0
VERTEX
  8
0
 10
-0.5000
 20
0.2071
 30
0.0000
  0
VERTEX
  8
0
 10
-0.2071
 20
0.5000
 30
0.0000
  0
VERTEX
  8
0
 10
0.2071
 20
0.5000
 30
0.0000
  0
VERTEX
  8
0
 10
0.5000
 20
0.2071
 30
0.0000
  0
VERTEX
  8
0
 10
0.5000
 20
-0.2071
 30
0.0000
  0
VERTEX
  8
0
 10
0.2071
 20
-0.5000
 30
0.0000
  0
VERTEX
  8
0
 10
-0.2071
 20
-0.5000
 30
0.0000
  0
SEQEND
  8
0
  0
ENDBLK
  8
0
  0
BLOCK
  8
0
  2
SQUAREV
 70
64
 10
0.0000
 20
0.0000
 30
0.0000
  3
SQUAREV
  0
SOLID
  8
0
 10
-0.5000
 20
-0.5000
 30
0.0000
 11
0.5000
 21
-0.5000
 31
0.0000
 12
-0.5000
 22
0.5000
 32
0.0000
 13
0.5000
 23
0.5000
 33
0.0000
  0
ENDBLK
  8
0
  0
BLOCK
  8
0
  2
ROUNDV
 70
64
 10
0.0000
 20
0.0000
 30
0.0000
  3
ROUNDV
  0
CIRCLE
  8
0
 10
0.0000
 20
0.0000
 30
0.0000
 40
0.5000
  0
ENDBLK
  8
0
  0
BLOCK
  8
0
  2
ANNULUSV
 70
64
 10
0.0000
 20
0.0000
 30
0.0000
  3
ANNULUSV
  0
CIRCLE
  8
0
 10
0.0000
 20
0.0000
 30
0.0000
 40
0.5000
  0
ENDBLK
  8
0
  0
BLOCK
  8
0
  2
THERMALV
 70
64
 10
0.0000
 20
0.0000
 30
0.0000
  3
THERMALV
  0
LINE
  8
0
 10
-0.2379
 20
0.4500
 30
0.0000
 11
0.2379
 21
0.4500
 31
0.0000
  0
LINE
  8
0
 10
0.4500
 20
0.2379
 30
0.0000
 11
0.4500
 21
-0.2379
 31
0.0000
  0
LINE
  8
0
 10
0.2379
 20
-0.4500
 30
0.0000
 11
-0.2379
 21
-0.4500
 31
0.0000
  0
LINE
  8
0
 10
-0.4500
 20
-0.2379
 30
0.0000
 11
-0.4500
 21
0.2379
 31
0.0000
  0
ENDBLK
  8
0
  0
ENDSEC
  0
SECTION
  2
ENTITIES
  0
ARC
  8
20
 10
22.4018
 20
59.0241
 30
0.0000
 40
2.9500
 50
48.5731
 51
335.6356
  0
ARC
  8
20
 10
35.7447
 20
59.4486
 30
0.0000
 40
1.7514
 50
259.6384
 51
78.2685
  0
ARC
  8
20
 10
30.0412
 20
30.0138
 30
0.0000
 40
28.2310
 50
78.9963
 51
100.1027
  0
ARC
  8
20
 10
30.0342
 20
29.9639
 30
0.0000
 40
31.7838
 50
78.9964
 51
100.2954
  0
ARC
  8
20
 10
0.5395
 20
35.8157
 30
0.0000
 40
1.7513
 50
349.6185
 51
168.2512
  0
ARC
  8
20
 10
29.9745
 20
30.1127
 30
0.0000
 40
28.2310
 50
168.9963
 51
190.1027
  0
ARC
  8
20
 10
30.0244
 20
30.1057
 30
0.0000
 40
31.7838
 50
168.9964
 51
190.2954
  0
ARC
  8
20
 10
37.6862
 20
0.9525
 30
0.0000
 40
2.9500
 50
228.5731
 51
155.6356
  0
ARC
  8
20
 10
24.3422
 20
0.5273
 30
0.0000
 40
1.7522
 50
79.6071
 51
258.2437
  0
ARC
  8
20
 10
30.0468
 20
29.9628
 30
0.0000
 40
28.2310
 50
258.9963
 51
280.1027
  0
ARC
  8
20
 10
30.0493
 20
30.0173
 30
0.0000
 40
31.7892
 50
259.0029
 51
280.3019
  0
ARC
  8
20
 10
59.4676
 20
24.0804
 30
0.0000
 40
1.7514
 50
169.6384
 51
348.2685
  0
ARC
  8
20
 10
30.0328
 20
29.7839
 30
0.0000
 40
28.2310
 50
348.9963
 51
10.1027
  0
ARC
  8
20
 10
29.9830
 20
29.7909
 30
0.0000
 40
31.7837
 50
348.9964
 51
10.2954
  0
LINE
  8
20
 10
11.0000
 20
-4.4000
 30
0.0000
 11
11.0000
 21
-1.0000
 31
0.0000
  0
LINE
  8
20
 10
11.0000
 20
-1.0000
 30
0.0000
 11
0.0000
 21
-1.0000
 31
0.0000
  0
LINE
  8
20
 10
-1.0000
 20
0.0000
 30
0.0000
 11
-1.0000
 21
11.0000
 31
0.0000
  0
LINE
  8
20
 10
-1.0000
 20
11.0000
 30
0.0000
 11
-4.4000
 21
11.0000
 31
0.0000
  0
LINE
  8
20
 10
-5.4000
 20
12.0000
 30
0.0000
 11
-5.4000
 21
48.0000
 31
0.0000
  0
LINE
  8
20
 10
-4.4000
 20
49.0000
 30
0.0000
 11
-1.0000
 21
49.0000
 31
0.0000
  0
LINE
  8
20
 10
-1.0000
 20
49.0000
 30
0.0000
 11
-1.0000
 21
60.0000
 31
0.0000
  0
LINE
  8
20
 10
0.0000
 20
61.0000
 30
0.0000
 11
11.0000
 21
61.0000
 31
0.0000
  0
LINE
  8
20
 10
11.0000
 20
61.0000
 30
0.0000
 11
11.0000
 21
64.4000
 31
0.0000
  0
LINE
  8
20
 10
12.0000
 20
65.4000
 30
0.0000
 11
48.0000
 21
65.4000
 31
0.0000
  0
LINE
  8
20
 10
49.0000
 20
64.4000
 30
0.0000
 11
49.0000
 21
61.0000
 31
0.0000
  0
LINE
  8
20
 10
49.0000
 20
61.0000
 30
0.0000
 11
60.0000
 21
61.0000
 31
0.0000
  0
LINE
  8
20
 10
61.0000
 20
60.0000
 30
0.0000
 11
61.0000
 21
49.0000
 31
0.0000
  0
LINE
  8
20
 10
61.0000
 20
49.0000
 30
0.0000
 11
64.4000
 21
49.0000
 31
0.0000
  0
LINE
  8
20
 10
65.4000
 20
48.0000
 30
0.0000
 11
65.4000
 21
12.0000
 31
0.0000
  0
LINE
  8
20
 10
64.4000
 20
11.0000
 30
0.0000
 11
61.0000
 21
11.0000
 31
0.0000
  0
LINE
  8
20
 10
61.0000
 20
11.0000
 30
0.0000
 11
61.0000
 21
0.0000
 31
0.0000
  0
LINE
  8
20
 10
60.0000
 20
-1.0000
 30
0.0000
 11
49.0000
 21
-1.0000
 31
0.0000
  0
LINE
  8
20
 10
49.0000
 20
-1.0000
 30
0.0000
 11
49.0000
 21
-4.4000
 31
0.0000
  0
LINE
  8
20
 10
48.0000
 20
-5.4000
 30
0.0000
 11
12.0000
 21
-5.4000
 31
0.0000
  0
ARC
  8
20
 10
0.4678
 20
24.7879
 30
0.0000
 40
1.7534
 50
191.9380
 51
12.2719
  0
ARC
  8
20
 10
59.5406
 20
35.1037
 30
0.0000
 40
1.7535
 50
12.1053
 51
192.1046
  0
ARC
  8
20
 10
23.2800
 20
30.0000
 30
0.0000
 40
3.7000
 50
270.0000
 51
90.0000
  0
LINE
  8
20
 10
18.3000
 20
28.9000
 30
0.0000
 11
18.3000
 21
30.9000
 31
0.0000
  0
ARC
  8
20
 10
36.7200
 20
30.0000
 30
0.0000
 40
3.7000
 50
90.0000
 51
270.0000
  0
LINE
  8
20
 10
41.7000
 20
31.0000
 30
0.0000
 11
41.7000
 21
29.0000
 31
0.0000
  0
LINE
  8
20
 10
7.0000
 20
13.6000
 30
0.0000
 11
14.5000
 21
13.6000
 31
0.0000
  0
LINE
  8
20
 10
14.5000
 20
13.6000
 30
0.0000
 11
14.5000
 21
16.4400
 31
0.0000
  0
LINE
  8
20
 10
14.5000
 20
16.4400
 30
0.0000
 11
7.0000
 21
16.4400
 31
0.0000
  0
LINE
  8
20
 10
7.0000
 20
16.4400
 30
0.0000
 11
7.0000
 21
13.6000
 31
0.0000
  0
LINE
  8
20
 10
7.0000
 20
43.5600
 30
0.0000
 11
14.5000
 21
43.5600
 31
0.0000
  0
LINE
  8
20
 10
14.5000
 20
43.5600
 30
0.0000
 11
14.5000
 21
46.4000
 31
0.0000
  0
LINE
  8
20
 10
14.5000
 20
46.4000
 30
0.0000
 11
7.0000
 21
46.4000
 31
0.0000
  0
LINE
  8
20
 10
7.0000
 20
46.4000
 30
0.0000
 11
7.0000
 21
43.5600
 31
0.0000
  0
LINE
  8
20
 10
45.5000
 20
13.6000
 30
0.0000
 11
53.0000
 21
13.6000
 31
0.0000
  0
LINE
  8
20
 10
53.0000
 20
13.6000
 30
0.0000
 11
53.0000
 21
16.4400
 31
0.0000
  0
LINE
  8
20
 10
53.0000
 20
16.4400
 30
0.0000
 11
45.5000
 21
16.4400
 31
0.0000
  0
LINE
  8
20
 10
45.5000
 20
16.4400
 30
0.0000
 11
45.5000
 21
13.6000
 31
0.0000
  0
LINE
  8
20
 10
45.5000
 20
43.5600
 30
0.0000
 11
53.0000
 21
43.5600
 31
0.0000
  0
LINE
  8
20
 10
53.0000
 20
43.5600
 30
0.0000
 11
53.0000
 21
46.4000
 31
0.0000
  0
LINE
  8
20
 10
53.0000
 20
46.4000
 30
0.0000
 11
45.5000
 21
46.4000
 31
0.0000
  0
LINE
  8
20
 10
45.5000
 20
46.4000
 30
0.0000
 11
45.5000
 21
43.5600
 31
0.0000
  0
LINE
  8
20
 10
9.0500
 20
24.5000
 30
0.0000
 11
9.0500
 21
20.0000
 31
0.0000
  0
LINE
  8
20
 10
12.5500
 20
24.5000
 30
0.0000
 11
12.5500
 21
20.0000
 31
0.0000
  0
ARC
  8
20
 10
10.8000
 20
24.5000
 30
0.0000
 40
1.7500
 50
0.0000
 51
180.0000
  0
ARC
  8
20
 10
10.8000
 20
20.0000
 30
0.0000
 40
1.7500
 50
180.0000
 51
0.0000
  0
LINE
  8
20
 10
47.4500
 20
24.5000
 30
0.0000
 11
47.4500
 21
20.0000
 31
0.0000
  0
LINE
  8
20
 10
50.9500
 20
24.5000
 30
0.0000
 11
50.9500
 21
20.0000
 31
0.0000
  0
ARC
  8
20
 10
49.2000
 20
24.5000
 30
0.0000
 40
1.7500
 50
0.0000
 51
180.0000
  0
ARC
  8
20
 10
49.2000
 20
20.0000
 30
0.0000
 40
1.7500
 50
180.0000
 51
0.0000
  0
LINE
  8
20
 10
12.5500
 20
35.5000
 30
0.0000
 11
12.5500
 21
40.0000
 31
0.0000
  0
LINE
  8
20
 10
9.0500
 20
35.5000
 30
0.0000
 11
9.0500
 21
40.0000
 31
0.0000
  0
ARC
  8
20
 10
10.8000
 20
35.5000
 30
0.0000
 40
1.7500
 50
180.0000
 51
0.0000
  0
ARC
  8
20
 10
10.8000
 20
40.0000
 30
0.0000
 40
1.7500
 50
0.0000
 51
180.0000
  0
LINE
  8
20
 10
50.9500
 20
35.5000
 30
0.0000
 11
50.9500
 21
40.0000
 31
0.0000
  0
LINE
  8
20
 10
47.4500
 20
35.5000
 30
0.0000
 11
47.4500
 21
40.0000
 31
0.0000
  0
ARC
  8
20
 10
49.2000
 20
35.5000
 30
0.0000
 40
1.7500
 50
180.0000
 51
0.0000
  0
ARC
  8
20
 10
49.2000
 20
40.0000
 30
0.0000
 40
1.7500
 50
0.0000
 51
180.0000
  0
LINE
  8
20
 10
41.9000
 20
34.2000
 30
0.0000
 11
41.9000
 21
35.6000
 31
0.0000
  0
LINE
  8
20
 10
41.9000
 20
35.6000
 30
0.0000
 11
41.9000
 21
54.4000
 31
0.0000
  0
LINE
  8
20
 10
18.1000
 20
34.2000
 30
0.0000
 11
18.1000
 21
35.6000
 31
0.0000
  0
LINE
  8
20
 10
18.1000
 20
35.6000
 30
0.0000
 11
18.1000
 21
54.4000
 31
0.0000
  0
LINE
  8
20
 10
18.1000
 20
25.8000
 30
0.0000
 11
18.1000
 21
24.4000
 31
0.0000
  0
LINE
  8
20
 10
18.1000
 20
24.4000
 30
0.0000
 11
18.1000
 21
5.6000
 31
0.0000
  0
LINE
  8
20
 10
19.1000
 20
5.6000
 30
0.0000
 11
22.2000
 21
5.6000
 31
0.0000
  0
LINE
  8
20
 10
23.5000
 20
5.6000
 30
0.0000
 11
27.3000
 21
5.6000
 31
0.0000
  0
LINE
  8
20
 10
28.8500
 20
5.6000
 30
0.0000
 11
32.5000
 21
5.6000
 31
0.0000
  0
LINE
  8
20
 10
34.3500
 20
5.6000
 30
0.0000
 11
40.5500
 21
5.6000
 31
0.0000
  0
LINE
  8
20
 10
41.9000
 20
5.6000
 30
0.0000
 11
41.9000
 21
24.4000
 31
0.0000
  0
LINE
  8
20
 10
41.9000
 20
24.4000
 30
0.0000
 11
41.9000
 21
25.4000
 31
0.0000
  0
LINE
  8
20
 10
41.9000
 20
25.4000
 30
0.0000
 11
41.9000
 21
25.8000
 31
0.0000
  0
LINE
  8
20
 10
24.0000
 20
38.2000
 30
0.0000
 11
36.0000
 21
38.2000
 31
0.0000
  0
LINE
  8
20
 10
24.0000
 20
21.8000
 30
0.0000
 11
36.0000
 21
21.8000
 31
0.0000
  0
LINE
  8
20
 10
24.0000
 20
36.5000
 30
0.0000
 11
36.0000
 21
36.5000
 31
0.0000
  0
LINE
  8
20
 10
24.0000
 20
23.5000
 30
0.0000
 11
36.0000
 21
23.5000
 31
0.0000
  0
LINE
  8
20
 10
24.0000
 20
38.2000
 30
0.0000
 11
24.0000
 21
36.5000
 31
0.0000
  0
LINE
  8
20
 10
36.0000
 20
38.2000
 30
0.0000
 11
36.0000
 21
36.5000
 31
0.0000
  0
LINE
  8
20
 10
24.0000
 20
23.5000
 30
0.0000
 11
24.0000
 21
21.8000
 31
0.0000
  0
LINE
  8
20
 10
36.0000
 20
23.5000
 30
0.0000
 11
36.0000
 21
21.8000
 31
0.0000
  0
LINE
  8
20
 10
17.9000
 20
30.9000
 30
0.0000
 11
18.3000
 21
30.9000
 31
0.0000
  0
LINE
  8
20
 10
17.9000
 20
28.9000
 30
0.0000
 11
18.3000
 21
28.9000
 31
0.0000
  0
LINE
  8
20
 10
17.9000
 20
30.9000
 30
0.0000
 11
17.9000
 21
28.9000
 31
0.0000
  0
LINE
  8
20
 10
41.7000
 20
31.0000
 30
0.0000
 11
42.1000
 21
31.0000
 31
0.0000
  0
LINE
  8
20
 10
41.7000
 20
29.0000
 30
0.0000
 11
42.1000
 21
29.0000
 31
0.0000
  0
LINE
  8
20
 10
42.1000
 20
31.0000
 30
0.0000
 11
42.1000
 21
29.0000
 31
0.0000
  0
LINE
  8
20
 10
19.4500
 20
54.4000
 30
0.0000
 11
22.4000
 21
54.4000
 31
0.0000
  0
LINE
  8
20
 10
22.9500
 20
54.4000
 30
0.0000
 11
26.7000
 21
54.4000
 31
0.0000
  0
LINE
  8
20
 10
28.1500
 20
54.4000
 30
0.0000
 11
31.8500
 21
54.4000
 31
0.0000
  0
LINE
  8
20
 10
33.3000
 20
54.4000
 30
0.0000
 11
36.9500
 21
54.4000
 31
0.0000
  0
LINE
  8
20
 10
38.1500
 20
54.4000
 30
0.0000
 11
41.1000
 21
54.4000
 31
0.0000
  0
LINE
  8
20
 10
18.3000
 20
34.2000
 30
0.0000
 11
18.1000
 21
34.2000
 31
0.0000
  0
LINE
  8
20
 10
41.7000
 20
34.2000
 30
0.0000
 11
41.9000
 21
34.2000
 31
0.0000
  0
LINE
  8
20
 10
41.7000
 20
25.8000
 30
0.0000
 11
41.9000
 21
25.8000
 31
0.0000
  0
LINE
  8
20
 10
18.1000
 20
25.8000
 30
0.0000
 11
18.3000
 21
25.8000
 31
0.0000
  0
LINE
  8
20
 10
22.2000
 20
5.6000
 30
0.0000
 11
19.1000
 21
5.6000
 31
0.0000
  0
LINE
  8
20
 10
19.1000
 20
34.6000
 30
0.0000
 11
40.9000
 21
34.6000
 31
0.0000
  0
LINE
  8
20
 10
18.3000
 20
34.2000
 30
0.0000
 11
23.2800
 21
33.7000
 31
0.0000
  0
LINE
  8
20
 10
36.7200
 20
33.7000
 30
0.0000
 11
41.7000
 21
34.2000
 31
0.0000
  0
LINE
  8
20
 10
18.3000
 20
25.8000
 30
0.0000
 11
23.2800
 21
26.3000
 31
0.0000
  0
LINE
  8
20
 10
36.7200
 20
26.3000
 30
0.0000
 11
41.7000
 21
25.8000
 31
0.0000
  0
LINE
  8
20
 10
19.1000
 20
25.4000
 30
0.0000
 11
40.9000
 21
25.4000
 31
0.0000
  0
ARC
  8
20
 10
-4.4000
 20
48.0000
 30
0.0000
 40
1.0000
 50
90.0000
 51
180.0000
  0
ARC
  8
20
 10
0.0000
 20
60.0000
 30
0.0000
 40
1.0000
 50
90.0000
 51
180.0000
  0
ARC
  8
20
 10
12.0000
 20
64.4000
 30
0.0000
 40
1.0000
 50
90.0000
 51
180.0000
  0
ARC
  8
20
 10
48.0000
 20
64.4000
 30
0.0000
 40
1.0000
 50
0.0000
 51
90.0000
  0
ARC
  8
20
 10
60.0000
 20
60.0000
 30
0.0000
 40
1.0000
 50
0.0000
 51
90.0000
  0
ARC
  8
20
 10
64.4000
 20
48.0000
 30
0.0000
 40
1.0000
 50
0.0000
 51
90.0000
  0
ARC
  8
20
 10
-4.4002
 20
11.9998
 30
0.0000
 40
0.9998
 50
179.9885
 51
270.0115
  0
ARC
  8
20
 10
0.0000
 20
0.0000
 30
0.0000
 40
1.0000
 50
180.0000
 51
270.0000
  0
ARC
  8
20
 10
12.0000
 20
-4.4000
 30
0.0000
 40
1.0000
 50
180.0000
 51
270.0000
  0
ARC
  8
20
 10
48.0000
 20
-4.4000
 30
0.0000
 40
1.0000
 50
270.0000
 51
0.0000
  0
ARC
  8
20
 10
60.0000
 20
0.0000
 30
0.0000
 40
1.0000
 50
270.0000
 51
0.0000
  0
ARC
  8
20
 10
64.4000
 20
12.0000
 30
0.0000
 40
1.0000
 50
270.0000
 51
0.0000
  0
ARC
  8
20
 10
19.1000
 20
35.6000
 30
0.0000
 40
1.0000
 50
180.0000
 51
270.0000
  0
ARC
  8
20
 10
40.9000
 20
35.6000
 30
0.0000
 40
1.0000
 50
270.0000
 51
0.0000
  0
ARC
  8
20
 10
19.1000
 20
24.4000
 30
0.0000
 40
1.0000
 50
90.0000
 51
180.0000
  0
ARC
  8
20
 10
40.9000
 20
24.4000
 30
0.0000
 40
1.0000
 50
0.0000
 51
90.0000
  0
CIRCLE
  8
20
 10
23.2800
 20
30.0000
 30
0.0000
 40
1.5000
  0
CIRCLE
  8
20
 10
36.7200
 20
30.0000
 30
0.0000
 40
1.5000
  0
ENDSEC
  0
EOF
