G04 #@! TF.GenerationSoftware,KiCad,Pcbnew,5.0.0-rc2-dev-unknown-9f5316e~63~ubuntu16.04.1*
G04 #@! TF.CreationDate,2018-04-30T23:34:32+02:00*
G04 #@! TF.ProjectId,Rauchmelder_3.6_panelized,52617563686D656C64657220332E365F,rev?*
G04 #@! TF.SameCoordinates,Original*
G04 #@! TF.FileFunction,Profile,NP*
%FSLAX46Y46*%
G04 Gerber Fmt 4.6, Leading zero omitted, Abs format (unit mm)*
G04 Created by KiCad (PCBNEW 5.0.0-rc2-dev-unknown-9f5316e~63~ubuntu16.04.1) date Mon Apr 30 23:34:32 2018*
%MOMM*%
%LPD*%
G01*
G04 APERTURE LIST*
%ADD10C,0.150000*%
G04 APERTURE END LIST*
D10*
X155500000Y-139500000D02*
X189500000Y-139500000D01*
X146500000Y-70500000D02*
X180500000Y-70500000D01*
X207500000Y-70500000D02*
X186500000Y-70500000D01*
X207500000Y-65500000D02*
X207500000Y-70500000D01*
X129500000Y-65500000D02*
X207500000Y-65500000D01*
X129500000Y-70500000D02*
X129500000Y-65500000D01*
X140500000Y-70500000D02*
X129500000Y-70500000D01*
X207500000Y-139500000D02*
X195500000Y-139500000D01*
X207500000Y-144500000D02*
X207500000Y-139500000D01*
X129500000Y-144500000D02*
X207500000Y-144500000D01*
X129500000Y-139500000D02*
X129500000Y-144500000D01*
X149500000Y-139500000D02*
X129500000Y-139500000D01*
X195500000Y-139500000D02*
G75*
G02X195500000Y-137500000I0J1000000D01*
G01*
X189500000Y-137500000D02*
G75*
G02X189500000Y-139500000I0J-1000000D01*
G01*
X149500000Y-137500000D02*
G75*
G02X149500000Y-139500000I0J-1000000D01*
G01*
X155500000Y-139500000D02*
G75*
G02X155500000Y-137500000I0J1000000D01*
G01*
X163000000Y-137500000D02*
X155500000Y-137500000D01*
X203000000Y-137500000D02*
X195500000Y-137500000D01*
X167500000Y-105000000D02*
G75*
G02X169500000Y-105000000I1000000J0D01*
G01*
X169500000Y-99000000D02*
G75*
G02X167500000Y-99000000I-1000000J0D01*
G01*
X167500000Y-99000000D02*
X167500000Y-86500000D01*
X169500000Y-72500000D02*
X169500000Y-99000000D01*
X186500000Y-72500000D02*
X194500000Y-72500000D01*
X186500000Y-72500000D02*
G75*
G02X186500000Y-70500000I0J1000000D01*
G01*
X180500000Y-70500000D02*
G75*
G02X180500000Y-72500000I0J-1000000D01*
G01*
X140500000Y-70500000D02*
G75*
G02X140500000Y-72500000I0J-1000000D01*
G01*
X146500000Y-72500000D02*
G75*
G02X146500000Y-70500000I0J1000000D01*
G01*
X154500000Y-72500000D02*
X146500000Y-72500000D01*
X194500000Y-72500000D02*
X207500000Y-86500000D01*
X169536000Y-113373500D02*
X169501000Y-113373500D01*
X207500000Y-132500000D02*
X207500000Y-86500000D01*
X203000000Y-137500000D02*
X207500000Y-132500000D01*
X169500000Y-137500000D02*
X189500000Y-137500000D01*
X169500000Y-72500000D02*
X180500000Y-72500000D01*
X169500000Y-137500000D02*
X169500000Y-105000000D01*
X129501000Y-103848500D02*
X129536000Y-103848500D01*
X129536000Y-113373500D02*
X129501000Y-113373500D01*
X129500000Y-137500000D02*
X129500000Y-72500000D01*
X129500000Y-72500000D02*
X140500000Y-72500000D01*
X129500000Y-137500000D02*
X149500000Y-137500000D01*
X163000000Y-137500000D02*
X167500000Y-132500000D01*
X167500000Y-132500000D02*
X167500000Y-105000000D01*
X154500000Y-72500000D02*
X167500000Y-86500000D01*
M02*
