G04 #@! TF.GenerationSoftware,KiCad,Pcbnew,5.0.0-rc2-dev-unknown-9f5316e~63~ubuntu16.04.1*
G04 #@! TF.CreationDate,2018-04-30T23:34:32+02:00*
G04 #@! TF.ProjectId,Rauchmelder_3.6_panelized,52617563686D656C64657220332E365F,rev?*
G04 #@! TF.SameCoordinates,Original*
G04 #@! TF.FileFunction,Legend,Top*
G04 #@! TF.FilePolarity,Positive*
%FSLAX46Y46*%
G04 Gerber Fmt 4.6, Leading zero omitted, Abs format (unit mm)*
G04 Created by KiCad (PCBNEW 5.0.0-rc2-dev-unknown-9f5316e~63~ubuntu16.04.1) date Mon Apr 30 23:34:32 2018*
%MOMM*%
%LPD*%
G01*
G04 APERTURE LIST*
%ADD10C,0.300000*%
%ADD11C,0.150000*%
%ADD12C,0.100000*%
%ADD13C,0.200000*%
%ADD14C,0.120000*%
%ADD15C,0.203200*%
%ADD16C,0.152400*%
%ADD17C,0.254000*%
%ADD18C,0.050800*%
%ADD19C,0.101600*%
%ADD20C,0.406400*%
%ADD21C,0.400000*%
%ADD22C,0.127000*%
%ADD23C,2.540000*%
%ADD24R,2.003200X1.803200*%
%ADD25R,1.803200X2.003200*%
%ADD26R,1.603200X2.003200*%
%ADD27R,1.803200X2.006200*%
%ADD28R,2.006200X1.803200*%
%ADD29R,2.403200X3.803200*%
%ADD30R,2.438400X1.422400*%
%ADD31C,1.778000*%
%ADD32R,2.203200X1.703200*%
%ADD33R,3.703200X1.803200*%
%ADD34R,1.203200X1.603200*%
%ADD35R,2.203200X2.203200*%
%ADD36C,1.803400*%
%ADD37O,3.352800X1.778000*%
%ADD38R,1.983200X2.363200*%
%ADD39R,0.803200X1.103200*%
%ADD40R,1.703200X0.453200*%
%ADD41R,0.453200X1.703200*%
%ADD42O,3.120800X1.662000*%
%ADD43R,2.003200X1.603200*%
%ADD44C,1.676400*%
%ADD45R,1.676400X1.676400*%
%ADD46R,3.803200X2.703200*%
%ADD47R,1.603200X1.203200*%
%ADD48R,1.803200X1.703200*%
%ADD49O,2.153200X4.103200*%
G04 APERTURE END LIST*
D10*
X142642857Y-68809523D02*
X142928571Y-68904761D01*
X143404761Y-68904761D01*
X143595238Y-68809523D01*
X143690476Y-68714285D01*
X143785714Y-68523809D01*
X143785714Y-68333333D01*
X143690476Y-68142857D01*
X143595238Y-68047619D01*
X143404761Y-67952380D01*
X143023809Y-67857142D01*
X142833333Y-67761904D01*
X142738095Y-67666666D01*
X142642857Y-67476190D01*
X142642857Y-67285714D01*
X142738095Y-67095238D01*
X142833333Y-67000000D01*
X143023809Y-66904761D01*
X143500000Y-66904761D01*
X143785714Y-67000000D01*
X145404761Y-68809523D02*
X145214285Y-68904761D01*
X144833333Y-68904761D01*
X144642857Y-68809523D01*
X144547619Y-68619047D01*
X144547619Y-67857142D01*
X144642857Y-67666666D01*
X144833333Y-67571428D01*
X145214285Y-67571428D01*
X145404761Y-67666666D01*
X145500000Y-67857142D01*
X145500000Y-68047619D01*
X144547619Y-68238095D01*
X146642857Y-68904761D02*
X146452380Y-68809523D01*
X146357142Y-68619047D01*
X146357142Y-66904761D01*
X147119047Y-67571428D02*
X147880952Y-67571428D01*
X147404761Y-68904761D02*
X147404761Y-67190476D01*
X147500000Y-67000000D01*
X147690476Y-66904761D01*
X147880952Y-66904761D01*
X148547619Y-68904761D02*
X148547619Y-66904761D01*
X148547619Y-67666666D02*
X148738095Y-67571428D01*
X149119047Y-67571428D01*
X149309523Y-67666666D01*
X149404761Y-67761904D01*
X149500000Y-67952380D01*
X149500000Y-68523809D01*
X149404761Y-68714285D01*
X149309523Y-68809523D01*
X149119047Y-68904761D01*
X148738095Y-68904761D01*
X148547619Y-68809523D01*
X151214285Y-67571428D02*
X151214285Y-68904761D01*
X150357142Y-67571428D02*
X150357142Y-68619047D01*
X150452380Y-68809523D01*
X150642857Y-68904761D01*
X150928571Y-68904761D01*
X151119047Y-68809523D01*
X151214285Y-68714285D01*
X152071428Y-68809523D02*
X152261904Y-68904761D01*
X152642857Y-68904761D01*
X152833333Y-68809523D01*
X152928571Y-68619047D01*
X152928571Y-68523809D01*
X152833333Y-68333333D01*
X152642857Y-68238095D01*
X152357142Y-68238095D01*
X152166666Y-68142857D01*
X152071428Y-67952380D01*
X152071428Y-67857142D01*
X152166666Y-67666666D01*
X152357142Y-67571428D01*
X152642857Y-67571428D01*
X152833333Y-67666666D01*
X156452380Y-68904761D02*
X155785714Y-67952380D01*
X155309523Y-68904761D02*
X155309523Y-66904761D01*
X156071428Y-66904761D01*
X156261904Y-67000000D01*
X156357142Y-67095238D01*
X156452380Y-67285714D01*
X156452380Y-67571428D01*
X156357142Y-67761904D01*
X156261904Y-67857142D01*
X156071428Y-67952380D01*
X155309523Y-67952380D01*
X158166666Y-68904761D02*
X158166666Y-67857142D01*
X158071428Y-67666666D01*
X157880952Y-67571428D01*
X157500000Y-67571428D01*
X157309523Y-67666666D01*
X158166666Y-68809523D02*
X157976190Y-68904761D01*
X157500000Y-68904761D01*
X157309523Y-68809523D01*
X157214285Y-68619047D01*
X157214285Y-68428571D01*
X157309523Y-68238095D01*
X157500000Y-68142857D01*
X157976190Y-68142857D01*
X158166666Y-68047619D01*
X159976190Y-67571428D02*
X159976190Y-68904761D01*
X159119047Y-67571428D02*
X159119047Y-68619047D01*
X159214285Y-68809523D01*
X159404761Y-68904761D01*
X159690476Y-68904761D01*
X159880952Y-68809523D01*
X159976190Y-68714285D01*
X161785714Y-68809523D02*
X161595238Y-68904761D01*
X161214285Y-68904761D01*
X161023809Y-68809523D01*
X160928571Y-68714285D01*
X160833333Y-68523809D01*
X160833333Y-67952380D01*
X160928571Y-67761904D01*
X161023809Y-67666666D01*
X161214285Y-67571428D01*
X161595238Y-67571428D01*
X161785714Y-67666666D01*
X162642857Y-68904761D02*
X162642857Y-66904761D01*
X163500000Y-68904761D02*
X163500000Y-67857142D01*
X163404761Y-67666666D01*
X163214285Y-67571428D01*
X162928571Y-67571428D01*
X162738095Y-67666666D01*
X162642857Y-67761904D01*
X164452380Y-68904761D02*
X164452380Y-67571428D01*
X164452380Y-67761904D02*
X164547619Y-67666666D01*
X164738095Y-67571428D01*
X165023809Y-67571428D01*
X165214285Y-67666666D01*
X165309523Y-67857142D01*
X165309523Y-68904761D01*
X165309523Y-67857142D02*
X165404761Y-67666666D01*
X165595238Y-67571428D01*
X165880952Y-67571428D01*
X166071428Y-67666666D01*
X166166666Y-67857142D01*
X166166666Y-68904761D01*
X167880952Y-68809523D02*
X167690476Y-68904761D01*
X167309523Y-68904761D01*
X167119047Y-68809523D01*
X167023809Y-68619047D01*
X167023809Y-67857142D01*
X167119047Y-67666666D01*
X167309523Y-67571428D01*
X167690476Y-67571428D01*
X167880952Y-67666666D01*
X167976190Y-67857142D01*
X167976190Y-68047619D01*
X167023809Y-68238095D01*
X169119047Y-68904761D02*
X168928571Y-68809523D01*
X168833333Y-68619047D01*
X168833333Y-66904761D01*
X170738095Y-68904761D02*
X170738095Y-66904761D01*
X170738095Y-68809523D02*
X170547619Y-68904761D01*
X170166666Y-68904761D01*
X169976190Y-68809523D01*
X169880952Y-68714285D01*
X169785714Y-68523809D01*
X169785714Y-67952380D01*
X169880952Y-67761904D01*
X169976190Y-67666666D01*
X170166666Y-67571428D01*
X170547619Y-67571428D01*
X170738095Y-67666666D01*
X172452380Y-68809523D02*
X172261904Y-68904761D01*
X171880952Y-68904761D01*
X171690476Y-68809523D01*
X171595238Y-68619047D01*
X171595238Y-67857142D01*
X171690476Y-67666666D01*
X171880952Y-67571428D01*
X172261904Y-67571428D01*
X172452380Y-67666666D01*
X172547619Y-67857142D01*
X172547619Y-68047619D01*
X171595238Y-68238095D01*
X173404761Y-68904761D02*
X173404761Y-67571428D01*
X173404761Y-67952380D02*
X173500000Y-67761904D01*
X173595238Y-67666666D01*
X173785714Y-67571428D01*
X173976190Y-67571428D01*
X177309523Y-68904761D02*
X176642857Y-67952380D01*
X176166666Y-68904761D02*
X176166666Y-66904761D01*
X176928571Y-66904761D01*
X177119047Y-67000000D01*
X177214285Y-67095238D01*
X177309523Y-67285714D01*
X177309523Y-67571428D01*
X177214285Y-67761904D01*
X177119047Y-67857142D01*
X176928571Y-67952380D01*
X176166666Y-67952380D01*
X178166666Y-68904761D02*
X178166666Y-66904761D01*
X178833333Y-68333333D01*
X179500000Y-66904761D01*
X179500000Y-68904761D01*
X180452380Y-68142857D02*
X181976190Y-68142857D01*
X182833333Y-68333333D02*
X183785714Y-68333333D01*
X182642857Y-68904761D02*
X183309523Y-66904761D01*
X183976190Y-68904761D01*
X185785714Y-68904761D02*
X185119047Y-67952380D01*
X184642857Y-68904761D02*
X184642857Y-66904761D01*
X185404761Y-66904761D01*
X185595238Y-67000000D01*
X185690476Y-67095238D01*
X185785714Y-67285714D01*
X185785714Y-67571428D01*
X185690476Y-67761904D01*
X185595238Y-67857142D01*
X185404761Y-67952380D01*
X184642857Y-67952380D01*
X186642857Y-68904761D02*
X186642857Y-66904761D01*
X187309523Y-68333333D01*
X187976190Y-66904761D01*
X187976190Y-68904761D01*
X190261904Y-66904761D02*
X191500000Y-66904761D01*
X190833333Y-67666666D01*
X191119047Y-67666666D01*
X191309523Y-67761904D01*
X191404761Y-67857142D01*
X191500000Y-68047619D01*
X191500000Y-68523809D01*
X191404761Y-68714285D01*
X191309523Y-68809523D01*
X191119047Y-68904761D01*
X190547619Y-68904761D01*
X190357142Y-68809523D01*
X190261904Y-68714285D01*
X192357142Y-68714285D02*
X192452380Y-68809523D01*
X192357142Y-68904761D01*
X192261904Y-68809523D01*
X192357142Y-68714285D01*
X192357142Y-68904761D01*
X194166666Y-66904761D02*
X193785714Y-66904761D01*
X193595238Y-67000000D01*
X193500000Y-67095238D01*
X193309523Y-67380952D01*
X193214285Y-67761904D01*
X193214285Y-68523809D01*
X193309523Y-68714285D01*
X193404761Y-68809523D01*
X193595238Y-68904761D01*
X193976190Y-68904761D01*
X194166666Y-68809523D01*
X194261904Y-68714285D01*
X194357142Y-68523809D01*
X194357142Y-68047619D01*
X194261904Y-67857142D01*
X194166666Y-67761904D01*
X193976190Y-67666666D01*
X193595238Y-67666666D01*
X193404761Y-67761904D01*
X193309523Y-67857142D01*
X193214285Y-68047619D01*
X206900000Y-114535714D02*
X206971428Y-114607142D01*
X206900000Y-114678571D01*
X206828571Y-114607142D01*
X206900000Y-114535714D01*
X206900000Y-114678571D01*
D11*
X186300000Y-101900000D02*
X192300000Y-101900000D01*
D10*
X176700000Y-128435714D02*
X176771428Y-128507142D01*
X176700000Y-128578571D01*
X176628571Y-128507142D01*
X176700000Y-128435714D01*
X176700000Y-128578571D01*
D12*
X178831666Y-132500000D02*
X179365000Y-132500000D01*
D11*
X177200000Y-101900000D02*
X184900000Y-101900000D01*
X177200550Y-92418600D02*
X177200000Y-101900000D01*
X192361250Y-92418600D02*
X177200550Y-92418600D01*
D13*
X173438095Y-75542857D02*
X174961904Y-75542857D01*
X174200000Y-76304761D02*
X174200000Y-74780952D01*
D12*
X179038095Y-75542857D02*
X180561904Y-75542857D01*
D11*
X197203075Y-97895475D02*
X203235575Y-97895475D01*
X205537450Y-97895475D02*
X205140575Y-97895475D01*
X205537450Y-110357350D02*
X205537450Y-97895475D01*
X197203075Y-110357350D02*
X205537450Y-110357350D01*
X197203075Y-97895475D02*
X197203075Y-110357350D01*
D12*
X177150000Y-133916666D02*
X176816666Y-133916666D01*
X176816666Y-133216666D01*
X177383333Y-133550000D02*
X177616666Y-133550000D01*
X177716666Y-133916666D02*
X177383333Y-133916666D01*
X177383333Y-133216666D01*
X177716666Y-133216666D01*
X178016666Y-133916666D02*
X178016666Y-133216666D01*
X178183333Y-133216666D01*
X178283333Y-133250000D01*
X178350000Y-133316666D01*
X178383333Y-133383333D01*
X178416666Y-133516666D01*
X178416666Y-133616666D01*
X178383333Y-133750000D01*
X178350000Y-133816666D01*
X178283333Y-133883333D01*
X178183333Y-133916666D01*
X178016666Y-133916666D01*
X207301200Y-114853600D02*
G75*
G03X207301200Y-114853600I-400000J0D01*
G01*
D13*
X184220476Y-74547619D02*
X183853809Y-74023809D01*
X183591904Y-74547619D02*
X183591904Y-73447619D01*
X184010952Y-73447619D01*
X184115714Y-73500000D01*
X184168095Y-73552380D01*
X184220476Y-73657142D01*
X184220476Y-73814285D01*
X184168095Y-73919047D01*
X184115714Y-73971428D01*
X184010952Y-74023809D01*
X183591904Y-74023809D01*
X184691904Y-74547619D02*
X184691904Y-73447619D01*
X185058571Y-74233333D01*
X185425238Y-73447619D01*
X185425238Y-74547619D01*
X185949047Y-74128571D02*
X186787142Y-74128571D01*
X187258571Y-74233333D02*
X187782380Y-74233333D01*
X187153809Y-74547619D02*
X187520476Y-73447619D01*
X187887142Y-74547619D01*
X188882380Y-74547619D02*
X188515714Y-74023809D01*
X188253809Y-74547619D02*
X188253809Y-73447619D01*
X188672857Y-73447619D01*
X188777619Y-73500000D01*
X188830000Y-73552380D01*
X188882380Y-73657142D01*
X188882380Y-73814285D01*
X188830000Y-73919047D01*
X188777619Y-73971428D01*
X188672857Y-74023809D01*
X188253809Y-74023809D01*
X189353809Y-74547619D02*
X189353809Y-73447619D01*
X189720476Y-74233333D01*
X190087142Y-73447619D01*
X190087142Y-74547619D01*
X191344285Y-73447619D02*
X192025238Y-73447619D01*
X191658571Y-73866666D01*
X191815714Y-73866666D01*
X191920476Y-73919047D01*
X191972857Y-73971428D01*
X192025238Y-74076190D01*
X192025238Y-74338095D01*
X191972857Y-74442857D01*
X191920476Y-74495238D01*
X191815714Y-74547619D01*
X191501428Y-74547619D01*
X191396666Y-74495238D01*
X191344285Y-74442857D01*
X192496666Y-74442857D02*
X192549047Y-74495238D01*
X192496666Y-74547619D01*
X192444285Y-74495238D01*
X192496666Y-74442857D01*
X192496666Y-74547619D01*
X193491904Y-73447619D02*
X193282380Y-73447619D01*
X193177619Y-73500000D01*
X193125238Y-73552380D01*
X193020476Y-73709523D01*
X192968095Y-73919047D01*
X192968095Y-74338095D01*
X193020476Y-74442857D01*
X193072857Y-74495238D01*
X193177619Y-74547619D01*
X193387142Y-74547619D01*
X193491904Y-74495238D01*
X193544285Y-74442857D01*
X193596666Y-74338095D01*
X193596666Y-74076190D01*
X193544285Y-73971428D01*
X193491904Y-73919047D01*
X193387142Y-73866666D01*
X193177619Y-73866666D01*
X193072857Y-73919047D01*
X193020476Y-73971428D01*
X192968095Y-74076190D01*
X170914285Y-87268095D02*
X171647619Y-87058571D01*
X171123809Y-86849047D01*
X171647619Y-86639523D01*
X170914285Y-86430000D01*
X170914285Y-86115714D02*
X171647619Y-85906190D01*
X171123809Y-85696666D01*
X171647619Y-85487142D01*
X170914285Y-85277619D01*
X170914285Y-84963333D02*
X171647619Y-84753809D01*
X171123809Y-84544285D01*
X171647619Y-84334761D01*
X170914285Y-84125238D01*
X171542857Y-83706190D02*
X171595238Y-83653809D01*
X171647619Y-83706190D01*
X171595238Y-83758571D01*
X171542857Y-83706190D01*
X171647619Y-83706190D01*
X171595238Y-83234761D02*
X171647619Y-83130000D01*
X171647619Y-82920476D01*
X171595238Y-82815714D01*
X171490476Y-82763333D01*
X171438095Y-82763333D01*
X171333333Y-82815714D01*
X171280952Y-82920476D01*
X171280952Y-83077619D01*
X171228571Y-83182380D01*
X171123809Y-83234761D01*
X171071428Y-83234761D01*
X170966666Y-83182380D01*
X170914285Y-83077619D01*
X170914285Y-82920476D01*
X170966666Y-82815714D01*
X171595238Y-81872857D02*
X171647619Y-81977619D01*
X171647619Y-82187142D01*
X171595238Y-82291904D01*
X171490476Y-82344285D01*
X171071428Y-82344285D01*
X170966666Y-82291904D01*
X170914285Y-82187142D01*
X170914285Y-81977619D01*
X170966666Y-81872857D01*
X171071428Y-81820476D01*
X171176190Y-81820476D01*
X171280952Y-82344285D01*
X171647619Y-81191904D02*
X171595238Y-81296666D01*
X171490476Y-81349047D01*
X170547619Y-81349047D01*
X170914285Y-80930000D02*
X170914285Y-80510952D01*
X171647619Y-80772857D02*
X170704761Y-80772857D01*
X170600000Y-80720476D01*
X170547619Y-80615714D01*
X170547619Y-80510952D01*
X171647619Y-80144285D02*
X170547619Y-80144285D01*
X170966666Y-80144285D02*
X170914285Y-80039523D01*
X170914285Y-79830000D01*
X170966666Y-79725238D01*
X171019047Y-79672857D01*
X171123809Y-79620476D01*
X171438095Y-79620476D01*
X171542857Y-79672857D01*
X171595238Y-79725238D01*
X171647619Y-79830000D01*
X171647619Y-80039523D01*
X171595238Y-80144285D01*
X170914285Y-78677619D02*
X171647619Y-78677619D01*
X170914285Y-79149047D02*
X171490476Y-79149047D01*
X171595238Y-79096666D01*
X171647619Y-78991904D01*
X171647619Y-78834761D01*
X171595238Y-78730000D01*
X171542857Y-78677619D01*
X171595238Y-78206190D02*
X171647619Y-78101428D01*
X171647619Y-77891904D01*
X171595238Y-77787142D01*
X171490476Y-77734761D01*
X171438095Y-77734761D01*
X171333333Y-77787142D01*
X171280952Y-77891904D01*
X171280952Y-78049047D01*
X171228571Y-78153809D01*
X171123809Y-78206190D01*
X171071428Y-78206190D01*
X170966666Y-78153809D01*
X170914285Y-78049047D01*
X170914285Y-77891904D01*
X170966666Y-77787142D01*
X171542857Y-77263333D02*
X171595238Y-77210952D01*
X171647619Y-77263333D01*
X171595238Y-77315714D01*
X171542857Y-77263333D01*
X171647619Y-77263333D01*
X171647619Y-76582380D02*
X171595238Y-76687142D01*
X171542857Y-76739523D01*
X171438095Y-76791904D01*
X171123809Y-76791904D01*
X171019047Y-76739523D01*
X170966666Y-76687142D01*
X170914285Y-76582380D01*
X170914285Y-76425238D01*
X170966666Y-76320476D01*
X171019047Y-76268095D01*
X171123809Y-76215714D01*
X171438095Y-76215714D01*
X171542857Y-76268095D01*
X171595238Y-76320476D01*
X171647619Y-76425238D01*
X171647619Y-76582380D01*
X171647619Y-75744285D02*
X170914285Y-75744285D01*
X171123809Y-75744285D02*
X171019047Y-75691904D01*
X170966666Y-75639523D01*
X170914285Y-75534761D01*
X170914285Y-75430000D01*
X170914285Y-74591904D02*
X171804761Y-74591904D01*
X171909523Y-74644285D01*
X171961904Y-74696666D01*
X172014285Y-74801428D01*
X172014285Y-74958571D01*
X171961904Y-75063333D01*
X171595238Y-74591904D02*
X171647619Y-74696666D01*
X171647619Y-74906190D01*
X171595238Y-75010952D01*
X171542857Y-75063333D01*
X171438095Y-75115714D01*
X171123809Y-75115714D01*
X171019047Y-75063333D01*
X170966666Y-75010952D01*
X170914285Y-74906190D01*
X170914285Y-74696666D01*
X170966666Y-74591904D01*
D14*
X202750571Y-134457142D02*
X202750571Y-133557142D01*
X203136285Y-134414285D02*
X203264857Y-134457142D01*
X203479142Y-134457142D01*
X203564857Y-134414285D01*
X203607714Y-134371428D01*
X203650571Y-134285714D01*
X203650571Y-134200000D01*
X203607714Y-134114285D01*
X203564857Y-134071428D01*
X203479142Y-134028571D01*
X203307714Y-133985714D01*
X203222000Y-133942857D01*
X203179142Y-133900000D01*
X203136285Y-133814285D01*
X203136285Y-133728571D01*
X203179142Y-133642857D01*
X203222000Y-133600000D01*
X203307714Y-133557142D01*
X203522000Y-133557142D01*
X203650571Y-133600000D01*
X204036285Y-134457142D02*
X204036285Y-133557142D01*
X204379142Y-133557142D01*
X204464857Y-133600000D01*
X204507714Y-133642857D01*
X204550571Y-133728571D01*
X204550571Y-133857142D01*
X204507714Y-133942857D01*
X204464857Y-133985714D01*
X204379142Y-134028571D01*
X204036285Y-134028571D01*
D12*
X178831666Y-134600000D02*
X179365000Y-134600000D01*
X179098333Y-134866666D02*
X179098333Y-134333333D01*
D11*
X192281850Y-101943600D02*
X192281850Y-92498000D01*
D10*
X136700000Y-128435714D02*
X136771428Y-128507142D01*
X136700000Y-128578571D01*
X136628571Y-128507142D01*
X136700000Y-128435714D01*
X136700000Y-128578571D01*
X166900000Y-114535714D02*
X166971428Y-114607142D01*
X166900000Y-114678571D01*
X166828571Y-114607142D01*
X166900000Y-114535714D01*
X166900000Y-114678571D01*
D12*
X137150000Y-133916666D02*
X136816666Y-133916666D01*
X136816666Y-133216666D01*
X137383333Y-133550000D02*
X137616666Y-133550000D01*
X137716666Y-133916666D02*
X137383333Y-133916666D01*
X137383333Y-133216666D01*
X137716666Y-133216666D01*
X138016666Y-133916666D02*
X138016666Y-133216666D01*
X138183333Y-133216666D01*
X138283333Y-133250000D01*
X138350000Y-133316666D01*
X138383333Y-133383333D01*
X138416666Y-133516666D01*
X138416666Y-133616666D01*
X138383333Y-133750000D01*
X138350000Y-133816666D01*
X138283333Y-133883333D01*
X138183333Y-133916666D01*
X138016666Y-133916666D01*
D11*
X146300000Y-101900000D02*
X152300000Y-101900000D01*
D12*
X139038095Y-75542857D02*
X140561904Y-75542857D01*
D13*
X133438095Y-75542857D02*
X134961904Y-75542857D01*
X134200000Y-76304761D02*
X134200000Y-74780952D01*
D12*
X138831666Y-132500000D02*
X139365000Y-132500000D01*
D11*
X152361250Y-92418600D02*
X137200550Y-92418600D01*
X137200550Y-92418600D02*
X137200000Y-101900000D01*
X137200000Y-101900000D02*
X144900000Y-101900000D01*
X152281850Y-101943600D02*
X152281850Y-92498000D01*
D12*
X138831666Y-134600000D02*
X139365000Y-134600000D01*
X139098333Y-134866666D02*
X139098333Y-134333333D01*
D14*
X162750571Y-134457142D02*
X162750571Y-133557142D01*
X163136285Y-134414285D02*
X163264857Y-134457142D01*
X163479142Y-134457142D01*
X163564857Y-134414285D01*
X163607714Y-134371428D01*
X163650571Y-134285714D01*
X163650571Y-134200000D01*
X163607714Y-134114285D01*
X163564857Y-134071428D01*
X163479142Y-134028571D01*
X163307714Y-133985714D01*
X163222000Y-133942857D01*
X163179142Y-133900000D01*
X163136285Y-133814285D01*
X163136285Y-133728571D01*
X163179142Y-133642857D01*
X163222000Y-133600000D01*
X163307714Y-133557142D01*
X163522000Y-133557142D01*
X163650571Y-133600000D01*
X164036285Y-134457142D02*
X164036285Y-133557142D01*
X164379142Y-133557142D01*
X164464857Y-133600000D01*
X164507714Y-133642857D01*
X164550571Y-133728571D01*
X164550571Y-133857142D01*
X164507714Y-133942857D01*
X164464857Y-133985714D01*
X164379142Y-134028571D01*
X164036285Y-134028571D01*
D13*
X130914285Y-87268095D02*
X131647619Y-87058571D01*
X131123809Y-86849047D01*
X131647619Y-86639523D01*
X130914285Y-86430000D01*
X130914285Y-86115714D02*
X131647619Y-85906190D01*
X131123809Y-85696666D01*
X131647619Y-85487142D01*
X130914285Y-85277619D01*
X130914285Y-84963333D02*
X131647619Y-84753809D01*
X131123809Y-84544285D01*
X131647619Y-84334761D01*
X130914285Y-84125238D01*
X131542857Y-83706190D02*
X131595238Y-83653809D01*
X131647619Y-83706190D01*
X131595238Y-83758571D01*
X131542857Y-83706190D01*
X131647619Y-83706190D01*
X131595238Y-83234761D02*
X131647619Y-83130000D01*
X131647619Y-82920476D01*
X131595238Y-82815714D01*
X131490476Y-82763333D01*
X131438095Y-82763333D01*
X131333333Y-82815714D01*
X131280952Y-82920476D01*
X131280952Y-83077619D01*
X131228571Y-83182380D01*
X131123809Y-83234761D01*
X131071428Y-83234761D01*
X130966666Y-83182380D01*
X130914285Y-83077619D01*
X130914285Y-82920476D01*
X130966666Y-82815714D01*
X131595238Y-81872857D02*
X131647619Y-81977619D01*
X131647619Y-82187142D01*
X131595238Y-82291904D01*
X131490476Y-82344285D01*
X131071428Y-82344285D01*
X130966666Y-82291904D01*
X130914285Y-82187142D01*
X130914285Y-81977619D01*
X130966666Y-81872857D01*
X131071428Y-81820476D01*
X131176190Y-81820476D01*
X131280952Y-82344285D01*
X131647619Y-81191904D02*
X131595238Y-81296666D01*
X131490476Y-81349047D01*
X130547619Y-81349047D01*
X130914285Y-80930000D02*
X130914285Y-80510952D01*
X131647619Y-80772857D02*
X130704761Y-80772857D01*
X130600000Y-80720476D01*
X130547619Y-80615714D01*
X130547619Y-80510952D01*
X131647619Y-80144285D02*
X130547619Y-80144285D01*
X130966666Y-80144285D02*
X130914285Y-80039523D01*
X130914285Y-79830000D01*
X130966666Y-79725238D01*
X131019047Y-79672857D01*
X131123809Y-79620476D01*
X131438095Y-79620476D01*
X131542857Y-79672857D01*
X131595238Y-79725238D01*
X131647619Y-79830000D01*
X131647619Y-80039523D01*
X131595238Y-80144285D01*
X130914285Y-78677619D02*
X131647619Y-78677619D01*
X130914285Y-79149047D02*
X131490476Y-79149047D01*
X131595238Y-79096666D01*
X131647619Y-78991904D01*
X131647619Y-78834761D01*
X131595238Y-78730000D01*
X131542857Y-78677619D01*
X131595238Y-78206190D02*
X131647619Y-78101428D01*
X131647619Y-77891904D01*
X131595238Y-77787142D01*
X131490476Y-77734761D01*
X131438095Y-77734761D01*
X131333333Y-77787142D01*
X131280952Y-77891904D01*
X131280952Y-78049047D01*
X131228571Y-78153809D01*
X131123809Y-78206190D01*
X131071428Y-78206190D01*
X130966666Y-78153809D01*
X130914285Y-78049047D01*
X130914285Y-77891904D01*
X130966666Y-77787142D01*
X131542857Y-77263333D02*
X131595238Y-77210952D01*
X131647619Y-77263333D01*
X131595238Y-77315714D01*
X131542857Y-77263333D01*
X131647619Y-77263333D01*
X131647619Y-76582380D02*
X131595238Y-76687142D01*
X131542857Y-76739523D01*
X131438095Y-76791904D01*
X131123809Y-76791904D01*
X131019047Y-76739523D01*
X130966666Y-76687142D01*
X130914285Y-76582380D01*
X130914285Y-76425238D01*
X130966666Y-76320476D01*
X131019047Y-76268095D01*
X131123809Y-76215714D01*
X131438095Y-76215714D01*
X131542857Y-76268095D01*
X131595238Y-76320476D01*
X131647619Y-76425238D01*
X131647619Y-76582380D01*
X131647619Y-75744285D02*
X130914285Y-75744285D01*
X131123809Y-75744285D02*
X131019047Y-75691904D01*
X130966666Y-75639523D01*
X130914285Y-75534761D01*
X130914285Y-75430000D01*
X130914285Y-74591904D02*
X131804761Y-74591904D01*
X131909523Y-74644285D01*
X131961904Y-74696666D01*
X132014285Y-74801428D01*
X132014285Y-74958571D01*
X131961904Y-75063333D01*
X131595238Y-74591904D02*
X131647619Y-74696666D01*
X131647619Y-74906190D01*
X131595238Y-75010952D01*
X131542857Y-75063333D01*
X131438095Y-75115714D01*
X131123809Y-75115714D01*
X131019047Y-75063333D01*
X130966666Y-75010952D01*
X130914285Y-74906190D01*
X130914285Y-74696666D01*
X130966666Y-74591904D01*
X144220476Y-74547619D02*
X143853809Y-74023809D01*
X143591904Y-74547619D02*
X143591904Y-73447619D01*
X144010952Y-73447619D01*
X144115714Y-73500000D01*
X144168095Y-73552380D01*
X144220476Y-73657142D01*
X144220476Y-73814285D01*
X144168095Y-73919047D01*
X144115714Y-73971428D01*
X144010952Y-74023809D01*
X143591904Y-74023809D01*
X144691904Y-74547619D02*
X144691904Y-73447619D01*
X145058571Y-74233333D01*
X145425238Y-73447619D01*
X145425238Y-74547619D01*
X145949047Y-74128571D02*
X146787142Y-74128571D01*
X147258571Y-74233333D02*
X147782380Y-74233333D01*
X147153809Y-74547619D02*
X147520476Y-73447619D01*
X147887142Y-74547619D01*
X148882380Y-74547619D02*
X148515714Y-74023809D01*
X148253809Y-74547619D02*
X148253809Y-73447619D01*
X148672857Y-73447619D01*
X148777619Y-73500000D01*
X148830000Y-73552380D01*
X148882380Y-73657142D01*
X148882380Y-73814285D01*
X148830000Y-73919047D01*
X148777619Y-73971428D01*
X148672857Y-74023809D01*
X148253809Y-74023809D01*
X149353809Y-74547619D02*
X149353809Y-73447619D01*
X149720476Y-74233333D01*
X150087142Y-73447619D01*
X150087142Y-74547619D01*
X151344285Y-73447619D02*
X152025238Y-73447619D01*
X151658571Y-73866666D01*
X151815714Y-73866666D01*
X151920476Y-73919047D01*
X151972857Y-73971428D01*
X152025238Y-74076190D01*
X152025238Y-74338095D01*
X151972857Y-74442857D01*
X151920476Y-74495238D01*
X151815714Y-74547619D01*
X151501428Y-74547619D01*
X151396666Y-74495238D01*
X151344285Y-74442857D01*
X152496666Y-74442857D02*
X152549047Y-74495238D01*
X152496666Y-74547619D01*
X152444285Y-74495238D01*
X152496666Y-74442857D01*
X152496666Y-74547619D01*
X153491904Y-73447619D02*
X153282380Y-73447619D01*
X153177619Y-73500000D01*
X153125238Y-73552380D01*
X153020476Y-73709523D01*
X152968095Y-73919047D01*
X152968095Y-74338095D01*
X153020476Y-74442857D01*
X153072857Y-74495238D01*
X153177619Y-74547619D01*
X153387142Y-74547619D01*
X153491904Y-74495238D01*
X153544285Y-74442857D01*
X153596666Y-74338095D01*
X153596666Y-74076190D01*
X153544285Y-73971428D01*
X153491904Y-73919047D01*
X153387142Y-73866666D01*
X153177619Y-73866666D01*
X153072857Y-73919047D01*
X153020476Y-73971428D01*
X152968095Y-74076190D01*
D12*
X167301200Y-114853600D02*
G75*
G03X167301200Y-114853600I-400000J0D01*
G01*
D11*
X157203075Y-97895475D02*
X157203075Y-110357350D01*
X157203075Y-110357350D02*
X165537450Y-110357350D01*
X165537450Y-110357350D02*
X165537450Y-97895475D01*
X165537450Y-97895475D02*
X165140575Y-97895475D01*
X157203075Y-97895475D02*
X163235575Y-97895475D01*
D15*
X176100000Y-91700000D02*
X177100000Y-91200000D01*
X177100000Y-91200000D02*
X176100000Y-90700000D01*
X176100000Y-90700000D02*
X176100000Y-91700000D01*
D12*
G36*
X177463600Y-90412600D02*
X176854000Y-90412600D01*
X176854000Y-91987400D01*
X177463600Y-91987400D01*
X177463600Y-90412600D01*
G37*
D15*
X195578000Y-101923400D02*
X195578000Y-108476600D01*
X192022000Y-101923400D02*
X195578000Y-101923400D01*
X192022000Y-108476600D02*
X192022000Y-101923400D01*
X195578000Y-108476600D02*
X192022000Y-108476600D01*
D16*
X205404418Y-88592741D02*
X205404418Y-87694715D01*
X204506392Y-86796690D02*
X203608366Y-86796690D01*
X203608366Y-86796690D02*
X203608366Y-85898664D01*
X202710341Y-85000638D02*
X201812315Y-85000638D01*
X201812315Y-85000638D02*
X201812315Y-84102613D01*
X200914290Y-83204587D02*
X200016264Y-83204587D01*
X200016264Y-83204587D02*
X200016264Y-82306562D01*
X199118238Y-81408536D02*
X198220213Y-81408536D01*
X198220213Y-81408536D02*
X198220213Y-80510510D01*
X197322187Y-79612485D02*
X196424162Y-79612485D01*
X196424162Y-79612485D02*
X196424162Y-78714459D01*
X195526136Y-77816434D02*
X194628110Y-77816434D01*
X205404418Y-88592741D02*
X202710341Y-91286818D01*
X202710341Y-91286818D02*
X201812315Y-91286818D01*
X201812315Y-91286818D02*
X200914290Y-90388792D01*
X200914290Y-90388792D02*
X200914290Y-89490766D01*
X200914290Y-89490766D02*
X200016264Y-89490766D01*
X200016264Y-89490766D02*
X199118238Y-88592741D01*
X199118238Y-88592741D02*
X199118238Y-87694715D01*
X199118238Y-87694715D02*
X198220213Y-87694715D01*
X198220213Y-87694715D02*
X197322187Y-86796690D01*
X197322187Y-86796690D02*
X197322187Y-85898664D01*
X197322187Y-85898664D02*
X196424162Y-85898664D01*
X196424162Y-85898664D02*
X195526136Y-85000638D01*
X195526136Y-85000638D02*
X195526136Y-84102613D01*
X195526136Y-84102613D02*
X194628110Y-84102613D01*
X194628110Y-84102613D02*
X193730085Y-83204587D01*
X193730085Y-83204587D02*
X193730085Y-82306562D01*
X193730085Y-82306562D02*
X192832059Y-82306562D01*
X192832059Y-82306562D02*
X191934034Y-81408536D01*
X191934034Y-81408536D02*
X191934034Y-80510510D01*
X200914290Y-89490766D02*
X203608366Y-86796690D01*
X199118238Y-87694715D02*
X201812315Y-85000638D01*
X197322187Y-85898664D02*
X200016264Y-83204587D01*
X195526136Y-84102613D02*
X198220213Y-81408536D01*
X193730085Y-82306562D02*
X196424162Y-79612485D01*
X191934034Y-80510510D02*
X194628110Y-77816434D01*
X196424162Y-78714459D02*
X195526136Y-77816434D01*
X198220213Y-80510510D02*
X197322187Y-79612485D01*
X200016264Y-82306562D02*
X199118238Y-81408536D01*
X201812315Y-84102613D02*
X200914290Y-83204587D01*
X203608366Y-85898664D02*
X202710341Y-85000638D01*
X205404418Y-87694715D02*
X204506392Y-86796690D01*
X194628110Y-77816434D02*
X194628110Y-76918408D01*
X193730085Y-76020382D02*
X192832059Y-76020382D01*
X191934034Y-80510510D02*
X191036008Y-80510510D01*
X191036008Y-80510510D02*
X190137982Y-79612485D01*
X190137982Y-79612485D02*
X190137982Y-78714459D01*
X190137982Y-78714459D02*
X192832059Y-76020382D01*
X194628110Y-76918408D02*
X193730085Y-76020382D01*
D15*
X171600000Y-105800000D02*
X177200000Y-105800000D01*
X177200000Y-105800000D02*
X178000000Y-106600000D01*
X178000000Y-111400000D02*
X177200000Y-112200000D01*
X177200000Y-112200000D02*
X171600000Y-112200000D01*
D12*
G36*
X178736400Y-104787400D02*
X179346000Y-104787400D01*
X179346000Y-103212600D01*
X178736400Y-103212600D01*
X178736400Y-104787400D01*
G37*
D15*
X180100000Y-104500000D02*
X180100000Y-103500000D01*
X179100000Y-104000000D02*
X180100000Y-104500000D01*
X180100000Y-103500000D02*
X179100000Y-104000000D01*
D12*
G36*
X174263600Y-103212600D02*
X173654000Y-103212600D01*
X173654000Y-104787400D01*
X174263600Y-104787400D01*
X174263600Y-103212600D01*
G37*
D15*
X172900000Y-103500000D02*
X172900000Y-104500000D01*
X173900000Y-104000000D02*
X172900000Y-103500000D01*
X172900000Y-104500000D02*
X173900000Y-104000000D01*
D17*
X174975000Y-123050000D02*
X174975000Y-118550000D01*
X178625000Y-118550000D02*
X178625000Y-123050000D01*
X174975000Y-123050000D02*
X175550000Y-123050000D01*
X178625000Y-123050000D02*
X178050000Y-123050000D01*
X178050000Y-118550000D02*
G75*
G03X178625000Y-118550000I287500J17297803D01*
G01*
X174975000Y-118550000D02*
X175550000Y-118550000D01*
D12*
G36*
X175550000Y-122300000D02*
X175550000Y-121550000D01*
X175050000Y-121550000D01*
X175050000Y-122300000D01*
X175550000Y-122300000D01*
G37*
G36*
X178550000Y-122300000D02*
X178550000Y-121550000D01*
X178050000Y-121550000D01*
X178050000Y-122300000D01*
X178550000Y-122300000D01*
G37*
D16*
X204429000Y-98143000D02*
X203667000Y-98143000D01*
X204048000Y-97762000D02*
X204048000Y-98524000D01*
X205064000Y-97000000D02*
G75*
G03X205064000Y-97000000I-4064000J0D01*
G01*
X181098000Y-133238000D02*
X181352000Y-133238000D01*
X181098000Y-133238000D02*
X181098000Y-134762000D01*
X181352000Y-134762000D02*
X181098000Y-134762000D01*
X187702000Y-134762000D02*
X187448000Y-134762000D01*
X187702000Y-134762000D02*
X187702000Y-133238000D01*
X187448000Y-133238000D02*
X187702000Y-133238000D01*
D18*
X185670000Y-137048000D02*
X185670000Y-136794000D01*
X183130000Y-136794000D02*
X185670000Y-136794000D01*
X183130000Y-136794000D02*
X183130000Y-137048000D01*
X183257000Y-131206000D02*
X185670000Y-131206000D01*
X183257000Y-131206000D02*
X183257000Y-130952000D01*
X185670000Y-131206000D02*
X185670000Y-130952000D01*
D16*
X186559000Y-130952000D02*
X185670000Y-130952000D01*
X182241000Y-137048000D02*
X183130000Y-137048000D01*
X183130000Y-137048000D02*
X185670000Y-137048000D01*
X185670000Y-137048000D02*
X186559000Y-137048000D01*
X185670000Y-130952000D02*
X183257000Y-130952000D01*
X183257000Y-130952000D02*
X182241000Y-130952000D01*
X181352000Y-133238000D02*
X181352000Y-132984000D01*
X181352000Y-134762000D02*
X181352000Y-135016000D01*
X187448000Y-133238000D02*
X187448000Y-132984000D01*
X187448000Y-134762000D02*
X187448000Y-135016000D01*
X186178000Y-134000000D02*
G75*
G03X186178000Y-134000000I-1778000J0D01*
G01*
X184654000Y-134000000D02*
G75*
G03X184654000Y-134000000I-254000J0D01*
G01*
D19*
X179240000Y-89320000D02*
X174760000Y-89320000D01*
X174760000Y-85480000D02*
X179240000Y-85480000D01*
D16*
X176777000Y-127181000D02*
X176777000Y-125619000D01*
X179622000Y-125619000D02*
X179622000Y-127181000D01*
D12*
X177150000Y-126900000D02*
G75*
G03X177150000Y-126900000I-100000J0D01*
G01*
D15*
X196200000Y-116500000D02*
X190200000Y-116500000D01*
X189900000Y-116800000D02*
X189900000Y-122800000D01*
X190200000Y-123100000D02*
X196200000Y-123100000D01*
X196200000Y-123100000D02*
X196500000Y-122800000D01*
X196500000Y-122800000D02*
X196500000Y-116800000D01*
X196500000Y-116800000D02*
X196200000Y-116500000D01*
X190200000Y-116500000D02*
X189900000Y-116800000D01*
X189900000Y-122800000D02*
X190200000Y-123100000D01*
D20*
X197650000Y-123504000D02*
G75*
G03X197650000Y-123504000I-150000J0D01*
G01*
D21*
X195800000Y-122150000D02*
G75*
G03X195800000Y-122150000I-200000J0D01*
G01*
D15*
X180350000Y-97000000D02*
G75*
G03X180350000Y-97000000I-5150000J0D01*
G01*
X206100000Y-95700000D02*
X205600000Y-94700000D01*
X205600000Y-94700000D02*
X205100000Y-95700000D01*
X205100000Y-95700000D02*
X206100000Y-95700000D01*
D12*
G36*
X204812600Y-94336400D02*
X204812600Y-94946000D01*
X206387400Y-94946000D01*
X206387400Y-94336400D01*
X204812600Y-94336400D01*
G37*
D15*
X191551200Y-131553600D02*
X202051200Y-131553600D01*
X191551200Y-136053600D02*
X191551200Y-131553600D01*
X202051200Y-136053600D02*
X191551200Y-136053600D01*
X202051200Y-131553600D02*
X202051200Y-136053600D01*
D22*
X174500000Y-123100000D02*
X170300000Y-123100000D01*
X170300000Y-123100000D02*
X170300000Y-118900000D01*
X170300000Y-118900000D02*
X174500000Y-118900000D01*
X174500000Y-118900000D02*
X174500000Y-123100000D01*
X174305000Y-119857000D02*
X174305000Y-122143000D01*
X174305000Y-122143000D02*
X173543000Y-122905000D01*
X173543000Y-122905000D02*
X171257000Y-122905000D01*
X171257000Y-122905000D02*
X170495000Y-122143000D01*
X170495000Y-122143000D02*
X170495000Y-119857000D01*
X170495000Y-119857000D02*
X171257000Y-119095000D01*
X171257000Y-119095000D02*
X173543000Y-119095000D01*
X173543000Y-119095000D02*
X174305000Y-119857000D01*
D15*
X184800000Y-115500000D02*
X183800000Y-116000000D01*
X183800000Y-116000000D02*
X184800000Y-116500000D01*
X184800000Y-116500000D02*
X184800000Y-115500000D01*
D12*
G36*
X183436400Y-116787400D02*
X184046000Y-116787400D01*
X184046000Y-115212600D01*
X183436400Y-115212600D01*
X183436400Y-116787400D01*
G37*
D15*
X171500000Y-90500000D02*
X172000000Y-91500000D01*
X172000000Y-91500000D02*
X172500000Y-90500000D01*
X172500000Y-90500000D02*
X171500000Y-90500000D01*
D12*
G36*
X172787400Y-91863600D02*
X172787400Y-91254000D01*
X171212600Y-91254000D01*
X171212600Y-91863600D01*
X172787400Y-91863600D01*
G37*
D15*
X201800000Y-117900000D02*
X201800000Y-115300000D01*
X206600000Y-115300000D02*
X206600000Y-117900000D01*
X206600000Y-117900000D02*
G75*
G03X206400000Y-118100000I0J-200000D01*
G01*
X202000000Y-118100000D02*
G75*
G03X201800000Y-117900000I-200000J0D01*
G01*
X206400000Y-115100000D02*
G75*
G03X206600000Y-115300000I200000J0D01*
G01*
X201800000Y-115300000D02*
G75*
G03X202000000Y-115100000I0J200000D01*
G01*
X200500000Y-93900000D02*
X201500000Y-93400000D01*
X201500000Y-93400000D02*
X200500000Y-92900000D01*
X200500000Y-92900000D02*
X200500000Y-93900000D01*
D12*
G36*
X201863600Y-92612600D02*
X201254000Y-92612600D01*
X201254000Y-94187400D01*
X201863600Y-94187400D01*
X201863600Y-92612600D01*
G37*
D21*
X155800000Y-122150000D02*
G75*
G03X155800000Y-122150000I-200000J0D01*
G01*
D20*
X157650000Y-123504000D02*
G75*
G03X157650000Y-123504000I-150000J0D01*
G01*
D15*
X149900000Y-122800000D02*
X150200000Y-123100000D01*
X150200000Y-116500000D02*
X149900000Y-116800000D01*
X156500000Y-116800000D02*
X156200000Y-116500000D01*
X156500000Y-122800000D02*
X156500000Y-116800000D01*
X156200000Y-123100000D02*
X156500000Y-122800000D01*
X150200000Y-123100000D02*
X156200000Y-123100000D01*
X149900000Y-116800000D02*
X149900000Y-122800000D01*
X156200000Y-116500000D02*
X150200000Y-116500000D01*
X161800000Y-115300000D02*
G75*
G03X162000000Y-115100000I0J200000D01*
G01*
X166400000Y-115100000D02*
G75*
G03X166600000Y-115300000I200000J0D01*
G01*
X162000000Y-118100000D02*
G75*
G03X161800000Y-117900000I-200000J0D01*
G01*
X166600000Y-117900000D02*
G75*
G03X166400000Y-118100000I0J-200000D01*
G01*
X166600000Y-115300000D02*
X166600000Y-117900000D01*
X161800000Y-117900000D02*
X161800000Y-115300000D01*
X137200000Y-112200000D02*
X131600000Y-112200000D01*
X138000000Y-111400000D02*
X137200000Y-112200000D01*
X137200000Y-105800000D02*
X138000000Y-106600000D01*
X131600000Y-105800000D02*
X137200000Y-105800000D01*
X155578000Y-108476600D02*
X152022000Y-108476600D01*
X152022000Y-108476600D02*
X152022000Y-101923400D01*
X152022000Y-101923400D02*
X155578000Y-101923400D01*
X155578000Y-101923400D02*
X155578000Y-108476600D01*
D12*
G36*
X132787400Y-91863600D02*
X132787400Y-91254000D01*
X131212600Y-91254000D01*
X131212600Y-91863600D01*
X132787400Y-91863600D01*
G37*
D15*
X132500000Y-90500000D02*
X131500000Y-90500000D01*
X132000000Y-91500000D02*
X132500000Y-90500000D01*
X131500000Y-90500000D02*
X132000000Y-91500000D01*
D16*
X144654000Y-134000000D02*
G75*
G03X144654000Y-134000000I-254000J0D01*
G01*
X146178000Y-134000000D02*
G75*
G03X146178000Y-134000000I-1778000J0D01*
G01*
X147448000Y-134762000D02*
X147448000Y-135016000D01*
X147448000Y-133238000D02*
X147448000Y-132984000D01*
X141352000Y-134762000D02*
X141352000Y-135016000D01*
X141352000Y-133238000D02*
X141352000Y-132984000D01*
X143257000Y-130952000D02*
X142241000Y-130952000D01*
X145670000Y-130952000D02*
X143257000Y-130952000D01*
X145670000Y-137048000D02*
X146559000Y-137048000D01*
X143130000Y-137048000D02*
X145670000Y-137048000D01*
X142241000Y-137048000D02*
X143130000Y-137048000D01*
X146559000Y-130952000D02*
X145670000Y-130952000D01*
D18*
X145670000Y-131206000D02*
X145670000Y-130952000D01*
X143257000Y-131206000D02*
X143257000Y-130952000D01*
X143257000Y-131206000D02*
X145670000Y-131206000D01*
X143130000Y-136794000D02*
X143130000Y-137048000D01*
X143130000Y-136794000D02*
X145670000Y-136794000D01*
X145670000Y-137048000D02*
X145670000Y-136794000D01*
D16*
X147448000Y-133238000D02*
X147702000Y-133238000D01*
X147702000Y-134762000D02*
X147702000Y-133238000D01*
X147702000Y-134762000D02*
X147448000Y-134762000D01*
X141352000Y-134762000D02*
X141098000Y-134762000D01*
X141098000Y-133238000D02*
X141098000Y-134762000D01*
X141098000Y-133238000D02*
X141352000Y-133238000D01*
D15*
X140350000Y-97000000D02*
G75*
G03X140350000Y-97000000I-5150000J0D01*
G01*
D16*
X154628110Y-76918408D02*
X153730085Y-76020382D01*
X150137982Y-78714459D02*
X152832059Y-76020382D01*
X150137982Y-79612485D02*
X150137982Y-78714459D01*
X151036008Y-80510510D02*
X150137982Y-79612485D01*
X151934034Y-80510510D02*
X151036008Y-80510510D01*
X153730085Y-76020382D02*
X152832059Y-76020382D01*
X154628110Y-77816434D02*
X154628110Y-76918408D01*
X165404418Y-87694715D02*
X164506392Y-86796690D01*
X163608366Y-85898664D02*
X162710341Y-85000638D01*
X161812315Y-84102613D02*
X160914290Y-83204587D01*
X160016264Y-82306562D02*
X159118238Y-81408536D01*
X158220213Y-80510510D02*
X157322187Y-79612485D01*
X156424162Y-78714459D02*
X155526136Y-77816434D01*
X151934034Y-80510510D02*
X154628110Y-77816434D01*
X153730085Y-82306562D02*
X156424162Y-79612485D01*
X155526136Y-84102613D02*
X158220213Y-81408536D01*
X157322187Y-85898664D02*
X160016264Y-83204587D01*
X159118238Y-87694715D02*
X161812315Y-85000638D01*
X160914290Y-89490766D02*
X163608366Y-86796690D01*
X151934034Y-81408536D02*
X151934034Y-80510510D01*
X152832059Y-82306562D02*
X151934034Y-81408536D01*
X153730085Y-82306562D02*
X152832059Y-82306562D01*
X153730085Y-83204587D02*
X153730085Y-82306562D01*
X154628110Y-84102613D02*
X153730085Y-83204587D01*
X155526136Y-84102613D02*
X154628110Y-84102613D01*
X155526136Y-85000638D02*
X155526136Y-84102613D01*
X156424162Y-85898664D02*
X155526136Y-85000638D01*
X157322187Y-85898664D02*
X156424162Y-85898664D01*
X157322187Y-86796690D02*
X157322187Y-85898664D01*
X158220213Y-87694715D02*
X157322187Y-86796690D01*
X159118238Y-87694715D02*
X158220213Y-87694715D01*
X159118238Y-88592741D02*
X159118238Y-87694715D01*
X160016264Y-89490766D02*
X159118238Y-88592741D01*
X160914290Y-89490766D02*
X160016264Y-89490766D01*
X160914290Y-90388792D02*
X160914290Y-89490766D01*
X161812315Y-91286818D02*
X160914290Y-90388792D01*
X162710341Y-91286818D02*
X161812315Y-91286818D01*
X165404418Y-88592741D02*
X162710341Y-91286818D01*
X155526136Y-77816434D02*
X154628110Y-77816434D01*
X156424162Y-79612485D02*
X156424162Y-78714459D01*
X157322187Y-79612485D02*
X156424162Y-79612485D01*
X158220213Y-81408536D02*
X158220213Y-80510510D01*
X159118238Y-81408536D02*
X158220213Y-81408536D01*
X160016264Y-83204587D02*
X160016264Y-82306562D01*
X160914290Y-83204587D02*
X160016264Y-83204587D01*
X161812315Y-85000638D02*
X161812315Y-84102613D01*
X162710341Y-85000638D02*
X161812315Y-85000638D01*
X163608366Y-86796690D02*
X163608366Y-85898664D01*
X164506392Y-86796690D02*
X163608366Y-86796690D01*
X165404418Y-88592741D02*
X165404418Y-87694715D01*
D19*
X134760000Y-85480000D02*
X139240000Y-85480000D01*
X139240000Y-89320000D02*
X134760000Y-89320000D01*
D16*
X165064000Y-97000000D02*
G75*
G03X165064000Y-97000000I-4064000J0D01*
G01*
X164048000Y-97762000D02*
X164048000Y-98524000D01*
X164429000Y-98143000D02*
X163667000Y-98143000D01*
D12*
G36*
X164812600Y-94336400D02*
X164812600Y-94946000D01*
X166387400Y-94946000D01*
X166387400Y-94336400D01*
X164812600Y-94336400D01*
G37*
D15*
X165100000Y-95700000D02*
X166100000Y-95700000D01*
X165600000Y-94700000D02*
X165100000Y-95700000D01*
X166100000Y-95700000D02*
X165600000Y-94700000D01*
D12*
G36*
X137463600Y-90412600D02*
X136854000Y-90412600D01*
X136854000Y-91987400D01*
X137463600Y-91987400D01*
X137463600Y-90412600D01*
G37*
D15*
X136100000Y-90700000D02*
X136100000Y-91700000D01*
X137100000Y-91200000D02*
X136100000Y-90700000D01*
X136100000Y-91700000D02*
X137100000Y-91200000D01*
X132900000Y-104500000D02*
X133900000Y-104000000D01*
X133900000Y-104000000D02*
X132900000Y-103500000D01*
X132900000Y-103500000D02*
X132900000Y-104500000D01*
D12*
G36*
X134263600Y-103212600D02*
X133654000Y-103212600D01*
X133654000Y-104787400D01*
X134263600Y-104787400D01*
X134263600Y-103212600D01*
G37*
D15*
X140100000Y-103500000D02*
X139100000Y-104000000D01*
X139100000Y-104000000D02*
X140100000Y-104500000D01*
X140100000Y-104500000D02*
X140100000Y-103500000D01*
D12*
G36*
X138736400Y-104787400D02*
X139346000Y-104787400D01*
X139346000Y-103212600D01*
X138736400Y-103212600D01*
X138736400Y-104787400D01*
G37*
G36*
X161863600Y-92612600D02*
X161254000Y-92612600D01*
X161254000Y-94187400D01*
X161863600Y-94187400D01*
X161863600Y-92612600D01*
G37*
D15*
X160500000Y-92900000D02*
X160500000Y-93900000D01*
X161500000Y-93400000D02*
X160500000Y-92900000D01*
X160500000Y-93900000D02*
X161500000Y-93400000D01*
X162051200Y-131553600D02*
X162051200Y-136053600D01*
X162051200Y-136053600D02*
X151551200Y-136053600D01*
X151551200Y-136053600D02*
X151551200Y-131553600D01*
X151551200Y-131553600D02*
X162051200Y-131553600D01*
D12*
G36*
X143436400Y-116787400D02*
X144046000Y-116787400D01*
X144046000Y-115212600D01*
X143436400Y-115212600D01*
X143436400Y-116787400D01*
G37*
D15*
X144800000Y-116500000D02*
X144800000Y-115500000D01*
X143800000Y-116000000D02*
X144800000Y-116500000D01*
X144800000Y-115500000D02*
X143800000Y-116000000D01*
D12*
X137150000Y-126900000D02*
G75*
G03X137150000Y-126900000I-100000J0D01*
G01*
D16*
X139622000Y-125619000D02*
X139622000Y-127181000D01*
X136777000Y-127181000D02*
X136777000Y-125619000D01*
D22*
X133543000Y-119095000D02*
X134305000Y-119857000D01*
X131257000Y-119095000D02*
X133543000Y-119095000D01*
X130495000Y-119857000D02*
X131257000Y-119095000D01*
X130495000Y-122143000D02*
X130495000Y-119857000D01*
X131257000Y-122905000D02*
X130495000Y-122143000D01*
X133543000Y-122905000D02*
X131257000Y-122905000D01*
X134305000Y-122143000D02*
X133543000Y-122905000D01*
X134305000Y-119857000D02*
X134305000Y-122143000D01*
X134500000Y-118900000D02*
X134500000Y-123100000D01*
X130300000Y-118900000D02*
X134500000Y-118900000D01*
X130300000Y-123100000D02*
X130300000Y-118900000D01*
X134500000Y-123100000D02*
X130300000Y-123100000D01*
D12*
G36*
X138550000Y-122300000D02*
X138550000Y-121550000D01*
X138050000Y-121550000D01*
X138050000Y-122300000D01*
X138550000Y-122300000D01*
G37*
G36*
X135550000Y-122300000D02*
X135550000Y-121550000D01*
X135050000Y-121550000D01*
X135050000Y-122300000D01*
X135550000Y-122300000D01*
G37*
D17*
X134975000Y-118550000D02*
X135550000Y-118550000D01*
X138050000Y-118550000D02*
G75*
G03X138625000Y-118550000I287500J17297803D01*
G01*
X138625000Y-123050000D02*
X138050000Y-123050000D01*
X134975000Y-123050000D02*
X135550000Y-123050000D01*
X138625000Y-118550000D02*
X138625000Y-123050000D01*
X134975000Y-123050000D02*
X134975000Y-118550000D01*
D11*
X200928571Y-67928571D02*
X200595238Y-67928571D01*
X200595238Y-68452380D02*
X200595238Y-67452380D01*
X201071428Y-67452380D01*
X201452380Y-68452380D02*
X201452380Y-67452380D01*
X201833333Y-67452380D02*
X202452380Y-67452380D01*
X202119047Y-67833333D01*
X202261904Y-67833333D01*
X202357142Y-67880952D01*
X202404761Y-67928571D01*
X202452380Y-68023809D01*
X202452380Y-68261904D01*
X202404761Y-68357142D01*
X202357142Y-68404761D01*
X202261904Y-68452380D01*
X201976190Y-68452380D01*
X201880952Y-68404761D01*
X201833333Y-68357142D01*
X134828571Y-67928571D02*
X134495238Y-67928571D01*
X134495238Y-68452380D02*
X134495238Y-67452380D01*
X134971428Y-67452380D01*
X135352380Y-68452380D02*
X135352380Y-67452380D01*
X136257142Y-67785714D02*
X136257142Y-68452380D01*
X136019047Y-67404761D02*
X135780952Y-68119047D01*
X136400000Y-68119047D01*
X200928571Y-141928571D02*
X200595238Y-141928571D01*
X200595238Y-142452380D02*
X200595238Y-141452380D01*
X201071428Y-141452380D01*
X201452380Y-142452380D02*
X201452380Y-141452380D01*
X201880952Y-141547619D02*
X201928571Y-141500000D01*
X202023809Y-141452380D01*
X202261904Y-141452380D01*
X202357142Y-141500000D01*
X202404761Y-141547619D01*
X202452380Y-141642857D01*
X202452380Y-141738095D01*
X202404761Y-141880952D01*
X201833333Y-142452380D01*
X202452380Y-142452380D01*
D12*
X174931666Y-126900000D02*
X174898333Y-126933333D01*
X174798333Y-126966666D01*
X174731666Y-126966666D01*
X174631666Y-126933333D01*
X174565000Y-126866666D01*
X174531666Y-126800000D01*
X174498333Y-126666666D01*
X174498333Y-126566666D01*
X174531666Y-126433333D01*
X174565000Y-126366666D01*
X174631666Y-126300000D01*
X174731666Y-126266666D01*
X174798333Y-126266666D01*
X174898333Y-126300000D01*
X174931666Y-126333333D01*
X175598333Y-126966666D02*
X175198333Y-126966666D01*
X175398333Y-126966666D02*
X175398333Y-126266666D01*
X175331666Y-126366666D01*
X175265000Y-126433333D01*
X175198333Y-126466666D01*
X175831666Y-126266666D02*
X176298333Y-126266666D01*
X175998333Y-126966666D01*
X184900000Y-121668333D02*
X184933333Y-121701666D01*
X184966666Y-121801666D01*
X184966666Y-121868333D01*
X184933333Y-121968333D01*
X184866666Y-122035000D01*
X184800000Y-122068333D01*
X184666666Y-122101666D01*
X184566666Y-122101666D01*
X184433333Y-122068333D01*
X184366666Y-122035000D01*
X184300000Y-121968333D01*
X184266666Y-121868333D01*
X184266666Y-121801666D01*
X184300000Y-121701666D01*
X184333333Y-121668333D01*
X184333333Y-121401666D02*
X184300000Y-121368333D01*
X184266666Y-121301666D01*
X184266666Y-121135000D01*
X184300000Y-121068333D01*
X184333333Y-121035000D01*
X184400000Y-121001666D01*
X184466666Y-121001666D01*
X184566666Y-121035000D01*
X184966666Y-121435000D01*
X184966666Y-121001666D01*
X184266666Y-120568333D02*
X184266666Y-120501666D01*
X184300000Y-120435000D01*
X184333333Y-120401666D01*
X184400000Y-120368333D01*
X184533333Y-120335000D01*
X184700000Y-120335000D01*
X184833333Y-120368333D01*
X184900000Y-120401666D01*
X184933333Y-120435000D01*
X184966666Y-120501666D01*
X184966666Y-120568333D01*
X184933333Y-120635000D01*
X184900000Y-120668333D01*
X184833333Y-120701666D01*
X184700000Y-120735000D01*
X184533333Y-120735000D01*
X184400000Y-120701666D01*
X184333333Y-120668333D01*
X184300000Y-120635000D01*
X184266666Y-120568333D01*
X192700000Y-130168333D02*
X192733333Y-130201666D01*
X192766666Y-130301666D01*
X192766666Y-130368333D01*
X192733333Y-130468333D01*
X192666666Y-130535000D01*
X192600000Y-130568333D01*
X192466666Y-130601666D01*
X192366666Y-130601666D01*
X192233333Y-130568333D01*
X192166666Y-130535000D01*
X192100000Y-130468333D01*
X192066666Y-130368333D01*
X192066666Y-130301666D01*
X192100000Y-130201666D01*
X192133333Y-130168333D01*
X192766666Y-129501666D02*
X192766666Y-129901666D01*
X192766666Y-129701666D02*
X192066666Y-129701666D01*
X192166666Y-129768333D01*
X192233333Y-129835000D01*
X192266666Y-129901666D01*
X192066666Y-129068333D02*
X192066666Y-129001666D01*
X192100000Y-128935000D01*
X192133333Y-128901666D01*
X192200000Y-128868333D01*
X192333333Y-128835000D01*
X192500000Y-128835000D01*
X192633333Y-128868333D01*
X192700000Y-128901666D01*
X192733333Y-128935000D01*
X192766666Y-129001666D01*
X192766666Y-129068333D01*
X192733333Y-129135000D01*
X192700000Y-129168333D01*
X192633333Y-129201666D01*
X192500000Y-129235000D01*
X192333333Y-129235000D01*
X192200000Y-129201666D01*
X192133333Y-129168333D01*
X192100000Y-129135000D01*
X192066666Y-129068333D01*
X203700000Y-127165000D02*
X203733333Y-127198333D01*
X203766666Y-127298333D01*
X203766666Y-127365000D01*
X203733333Y-127465000D01*
X203666666Y-127531666D01*
X203600000Y-127565000D01*
X203466666Y-127598333D01*
X203366666Y-127598333D01*
X203233333Y-127565000D01*
X203166666Y-127531666D01*
X203100000Y-127465000D01*
X203066666Y-127365000D01*
X203066666Y-127298333D01*
X203100000Y-127198333D01*
X203133333Y-127165000D01*
X203366666Y-126765000D02*
X203333333Y-126831666D01*
X203300000Y-126865000D01*
X203233333Y-126898333D01*
X203200000Y-126898333D01*
X203133333Y-126865000D01*
X203100000Y-126831666D01*
X203066666Y-126765000D01*
X203066666Y-126631666D01*
X203100000Y-126565000D01*
X203133333Y-126531666D01*
X203200000Y-126498333D01*
X203233333Y-126498333D01*
X203300000Y-126531666D01*
X203333333Y-126565000D01*
X203366666Y-126631666D01*
X203366666Y-126765000D01*
X203400000Y-126831666D01*
X203433333Y-126865000D01*
X203500000Y-126898333D01*
X203633333Y-126898333D01*
X203700000Y-126865000D01*
X203733333Y-126831666D01*
X203766666Y-126765000D01*
X203766666Y-126631666D01*
X203733333Y-126565000D01*
X203700000Y-126531666D01*
X203633333Y-126498333D01*
X203500000Y-126498333D01*
X203433333Y-126531666D01*
X203400000Y-126565000D01*
X203366666Y-126631666D01*
X202100000Y-121131666D02*
X202133333Y-121165000D01*
X202166666Y-121265000D01*
X202166666Y-121331666D01*
X202133333Y-121431666D01*
X202066666Y-121498333D01*
X202000000Y-121531666D01*
X201866666Y-121565000D01*
X201766666Y-121565000D01*
X201633333Y-121531666D01*
X201566666Y-121498333D01*
X201500000Y-121431666D01*
X201466666Y-121331666D01*
X201466666Y-121265000D01*
X201500000Y-121165000D01*
X201533333Y-121131666D01*
X202166666Y-120465000D02*
X202166666Y-120865000D01*
X202166666Y-120665000D02*
X201466666Y-120665000D01*
X201566666Y-120731666D01*
X201633333Y-120798333D01*
X201666666Y-120865000D01*
X201766666Y-120065000D02*
X201733333Y-120131666D01*
X201700000Y-120165000D01*
X201633333Y-120198333D01*
X201600000Y-120198333D01*
X201533333Y-120165000D01*
X201500000Y-120131666D01*
X201466666Y-120065000D01*
X201466666Y-119931666D01*
X201500000Y-119865000D01*
X201533333Y-119831666D01*
X201600000Y-119798333D01*
X201633333Y-119798333D01*
X201700000Y-119831666D01*
X201733333Y-119865000D01*
X201766666Y-119931666D01*
X201766666Y-120065000D01*
X201800000Y-120131666D01*
X201833333Y-120165000D01*
X201900000Y-120198333D01*
X202033333Y-120198333D01*
X202100000Y-120165000D01*
X202133333Y-120131666D01*
X202166666Y-120065000D01*
X202166666Y-119931666D01*
X202133333Y-119865000D01*
X202100000Y-119831666D01*
X202033333Y-119798333D01*
X201900000Y-119798333D01*
X201833333Y-119831666D01*
X201800000Y-119865000D01*
X201766666Y-119931666D01*
X170668333Y-116200000D02*
X170635000Y-116233333D01*
X170535000Y-116266666D01*
X170468333Y-116266666D01*
X170368333Y-116233333D01*
X170301666Y-116166666D01*
X170268333Y-116100000D01*
X170235000Y-115966666D01*
X170235000Y-115866666D01*
X170268333Y-115733333D01*
X170301666Y-115666666D01*
X170368333Y-115600000D01*
X170468333Y-115566666D01*
X170535000Y-115566666D01*
X170635000Y-115600000D01*
X170668333Y-115633333D01*
X171335000Y-116266666D02*
X170935000Y-116266666D01*
X171135000Y-116266666D02*
X171135000Y-115566666D01*
X171068333Y-115666666D01*
X171001666Y-115733333D01*
X170935000Y-115766666D01*
X171968333Y-115566666D02*
X171635000Y-115566666D01*
X171601666Y-115900000D01*
X171635000Y-115866666D01*
X171701666Y-115833333D01*
X171868333Y-115833333D01*
X171935000Y-115866666D01*
X171968333Y-115900000D01*
X172001666Y-115966666D01*
X172001666Y-116133333D01*
X171968333Y-116200000D01*
X171935000Y-116233333D01*
X171868333Y-116266666D01*
X171701666Y-116266666D01*
X171635000Y-116233333D01*
X171601666Y-116200000D01*
X170935000Y-113800000D02*
X170901666Y-113833333D01*
X170801666Y-113866666D01*
X170735000Y-113866666D01*
X170635000Y-113833333D01*
X170568333Y-113766666D01*
X170535000Y-113700000D01*
X170501666Y-113566666D01*
X170501666Y-113466666D01*
X170535000Y-113333333D01*
X170568333Y-113266666D01*
X170635000Y-113200000D01*
X170735000Y-113166666D01*
X170801666Y-113166666D01*
X170901666Y-113200000D01*
X170935000Y-113233333D01*
X171168333Y-113166666D02*
X171601666Y-113166666D01*
X171368333Y-113433333D01*
X171468333Y-113433333D01*
X171535000Y-113466666D01*
X171568333Y-113500000D01*
X171601666Y-113566666D01*
X171601666Y-113733333D01*
X171568333Y-113800000D01*
X171535000Y-113833333D01*
X171468333Y-113866666D01*
X171268333Y-113866666D01*
X171201666Y-113833333D01*
X171168333Y-113800000D01*
X175835000Y-93166666D02*
X175835000Y-92466666D01*
X176001666Y-92466666D01*
X176101666Y-92500000D01*
X176168333Y-92566666D01*
X176201666Y-92633333D01*
X176235000Y-92766666D01*
X176235000Y-92866666D01*
X176201666Y-93000000D01*
X176168333Y-93066666D01*
X176101666Y-93133333D01*
X176001666Y-93166666D01*
X175835000Y-93166666D01*
X176468333Y-92466666D02*
X176901666Y-92466666D01*
X176668333Y-92733333D01*
X176768333Y-92733333D01*
X176835000Y-92766666D01*
X176868333Y-92800000D01*
X176901666Y-92866666D01*
X176901666Y-93033333D01*
X176868333Y-93100000D01*
X176835000Y-93133333D01*
X176768333Y-93166666D01*
X176568333Y-93166666D01*
X176501666Y-93133333D01*
X176468333Y-93100000D01*
X184866666Y-119131666D02*
X184533333Y-119365000D01*
X184866666Y-119531666D02*
X184166666Y-119531666D01*
X184166666Y-119265000D01*
X184200000Y-119198333D01*
X184233333Y-119165000D01*
X184300000Y-119131666D01*
X184400000Y-119131666D01*
X184466666Y-119165000D01*
X184500000Y-119198333D01*
X184533333Y-119265000D01*
X184533333Y-119531666D01*
X184866666Y-118465000D02*
X184866666Y-118865000D01*
X184866666Y-118665000D02*
X184166666Y-118665000D01*
X184266666Y-118731666D01*
X184333333Y-118798333D01*
X184366666Y-118865000D01*
X184866666Y-118131666D02*
X184866666Y-117998333D01*
X184833333Y-117931666D01*
X184800000Y-117898333D01*
X184700000Y-117831666D01*
X184566666Y-117798333D01*
X184300000Y-117798333D01*
X184233333Y-117831666D01*
X184200000Y-117865000D01*
X184166666Y-117931666D01*
X184166666Y-118065000D01*
X184200000Y-118131666D01*
X184233333Y-118165000D01*
X184300000Y-118198333D01*
X184466666Y-118198333D01*
X184533333Y-118165000D01*
X184566666Y-118131666D01*
X184600000Y-118065000D01*
X184600000Y-117931666D01*
X184566666Y-117865000D01*
X184533333Y-117831666D01*
X184466666Y-117798333D01*
X173766666Y-130768333D02*
X173433333Y-131001666D01*
X173766666Y-131168333D02*
X173066666Y-131168333D01*
X173066666Y-130901666D01*
X173100000Y-130835000D01*
X173133333Y-130801666D01*
X173200000Y-130768333D01*
X173300000Y-130768333D01*
X173366666Y-130801666D01*
X173400000Y-130835000D01*
X173433333Y-130901666D01*
X173433333Y-131168333D01*
X173133333Y-130501666D02*
X173100000Y-130468333D01*
X173066666Y-130401666D01*
X173066666Y-130235000D01*
X173100000Y-130168333D01*
X173133333Y-130135000D01*
X173200000Y-130101666D01*
X173266666Y-130101666D01*
X173366666Y-130135000D01*
X173766666Y-130535000D01*
X173766666Y-130101666D01*
X173066666Y-129468333D02*
X173066666Y-129801666D01*
X173400000Y-129835000D01*
X173366666Y-129801666D01*
X173333333Y-129735000D01*
X173333333Y-129568333D01*
X173366666Y-129501666D01*
X173400000Y-129468333D01*
X173466666Y-129435000D01*
X173633333Y-129435000D01*
X173700000Y-129468333D01*
X173733333Y-129501666D01*
X173766666Y-129568333D01*
X173766666Y-129735000D01*
X173733333Y-129801666D01*
X173700000Y-129835000D01*
X189768333Y-88566666D02*
X189535000Y-88233333D01*
X189368333Y-88566666D02*
X189368333Y-87866666D01*
X189635000Y-87866666D01*
X189701666Y-87900000D01*
X189735000Y-87933333D01*
X189768333Y-88000000D01*
X189768333Y-88100000D01*
X189735000Y-88166666D01*
X189701666Y-88200000D01*
X189635000Y-88233333D01*
X189368333Y-88233333D01*
X190435000Y-88566666D02*
X190035000Y-88566666D01*
X190235000Y-88566666D02*
X190235000Y-87866666D01*
X190168333Y-87966666D01*
X190101666Y-88033333D01*
X190035000Y-88066666D01*
X191035000Y-88100000D02*
X191035000Y-88566666D01*
X190868333Y-87833333D02*
X190701666Y-88333333D01*
X191135000Y-88333333D01*
X187531666Y-88566666D02*
X187298333Y-88233333D01*
X187131666Y-88566666D02*
X187131666Y-87866666D01*
X187398333Y-87866666D01*
X187465000Y-87900000D01*
X187498333Y-87933333D01*
X187531666Y-88000000D01*
X187531666Y-88100000D01*
X187498333Y-88166666D01*
X187465000Y-88200000D01*
X187398333Y-88233333D01*
X187131666Y-88233333D01*
X187765000Y-87866666D02*
X188231666Y-87866666D01*
X187931666Y-88566666D01*
X199868333Y-116900000D02*
X199835000Y-116933333D01*
X199735000Y-116966666D01*
X199668333Y-116966666D01*
X199568333Y-116933333D01*
X199501666Y-116866666D01*
X199468333Y-116800000D01*
X199435000Y-116666666D01*
X199435000Y-116566666D01*
X199468333Y-116433333D01*
X199501666Y-116366666D01*
X199568333Y-116300000D01*
X199668333Y-116266666D01*
X199735000Y-116266666D01*
X199835000Y-116300000D01*
X199868333Y-116333333D01*
X200535000Y-116966666D02*
X200135000Y-116966666D01*
X200335000Y-116966666D02*
X200335000Y-116266666D01*
X200268333Y-116366666D01*
X200201666Y-116433333D01*
X200135000Y-116466666D01*
X200801666Y-116333333D02*
X200835000Y-116300000D01*
X200901666Y-116266666D01*
X201068333Y-116266666D01*
X201135000Y-116300000D01*
X201168333Y-116333333D01*
X201201666Y-116400000D01*
X201201666Y-116466666D01*
X201168333Y-116566666D01*
X200768333Y-116966666D01*
X201201666Y-116966666D01*
X202631666Y-105566666D02*
X202398333Y-105233333D01*
X202231666Y-105566666D02*
X202231666Y-104866666D01*
X202498333Y-104866666D01*
X202565000Y-104900000D01*
X202598333Y-104933333D01*
X202631666Y-105000000D01*
X202631666Y-105100000D01*
X202598333Y-105166666D01*
X202565000Y-105200000D01*
X202498333Y-105233333D01*
X202231666Y-105233333D01*
X203298333Y-105566666D02*
X202898333Y-105566666D01*
X203098333Y-105566666D02*
X203098333Y-104866666D01*
X203031666Y-104966666D01*
X202965000Y-105033333D01*
X202898333Y-105066666D01*
X203698333Y-105166666D02*
X203631666Y-105133333D01*
X203598333Y-105100000D01*
X203565000Y-105033333D01*
X203565000Y-105000000D01*
X203598333Y-104933333D01*
X203631666Y-104900000D01*
X203698333Y-104866666D01*
X203831666Y-104866666D01*
X203898333Y-104900000D01*
X203931666Y-104933333D01*
X203965000Y-105000000D01*
X203965000Y-105033333D01*
X203931666Y-105100000D01*
X203898333Y-105133333D01*
X203831666Y-105166666D01*
X203698333Y-105166666D01*
X203631666Y-105200000D01*
X203598333Y-105233333D01*
X203565000Y-105300000D01*
X203565000Y-105433333D01*
X203598333Y-105500000D01*
X203631666Y-105533333D01*
X203698333Y-105566666D01*
X203831666Y-105566666D01*
X203898333Y-105533333D01*
X203931666Y-105500000D01*
X203965000Y-105433333D01*
X203965000Y-105300000D01*
X203931666Y-105233333D01*
X203898333Y-105200000D01*
X203831666Y-105166666D01*
X173766666Y-136131666D02*
X173433333Y-136365000D01*
X173766666Y-136531666D02*
X173066666Y-136531666D01*
X173066666Y-136265000D01*
X173100000Y-136198333D01*
X173133333Y-136165000D01*
X173200000Y-136131666D01*
X173300000Y-136131666D01*
X173366666Y-136165000D01*
X173400000Y-136198333D01*
X173433333Y-136265000D01*
X173433333Y-136531666D01*
X173766666Y-135465000D02*
X173766666Y-135865000D01*
X173766666Y-135665000D02*
X173066666Y-135665000D01*
X173166666Y-135731666D01*
X173233333Y-135798333D01*
X173266666Y-135865000D01*
X173066666Y-135231666D02*
X173066666Y-134798333D01*
X173333333Y-135031666D01*
X173333333Y-134931666D01*
X173366666Y-134865000D01*
X173400000Y-134831666D01*
X173466666Y-134798333D01*
X173633333Y-134798333D01*
X173700000Y-134831666D01*
X173733333Y-134865000D01*
X173766666Y-134931666D01*
X173766666Y-135131666D01*
X173733333Y-135198333D01*
X173700000Y-135231666D01*
X184931666Y-88566666D02*
X184698333Y-88233333D01*
X184531666Y-88566666D02*
X184531666Y-87866666D01*
X184798333Y-87866666D01*
X184865000Y-87900000D01*
X184898333Y-87933333D01*
X184931666Y-88000000D01*
X184931666Y-88100000D01*
X184898333Y-88166666D01*
X184865000Y-88200000D01*
X184798333Y-88233333D01*
X184531666Y-88233333D01*
X185565000Y-87866666D02*
X185231666Y-87866666D01*
X185198333Y-88200000D01*
X185231666Y-88166666D01*
X185298333Y-88133333D01*
X185465000Y-88133333D01*
X185531666Y-88166666D01*
X185565000Y-88200000D01*
X185598333Y-88266666D01*
X185598333Y-88433333D01*
X185565000Y-88500000D01*
X185531666Y-88533333D01*
X185465000Y-88566666D01*
X185298333Y-88566666D01*
X185231666Y-88533333D01*
X185198333Y-88500000D01*
X187966666Y-81865000D02*
X187633333Y-82098333D01*
X187966666Y-82265000D02*
X187266666Y-82265000D01*
X187266666Y-81998333D01*
X187300000Y-81931666D01*
X187333333Y-81898333D01*
X187400000Y-81865000D01*
X187500000Y-81865000D01*
X187566666Y-81898333D01*
X187600000Y-81931666D01*
X187633333Y-81998333D01*
X187633333Y-82265000D01*
X187966666Y-81198333D02*
X187966666Y-81598333D01*
X187966666Y-81398333D02*
X187266666Y-81398333D01*
X187366666Y-81465000D01*
X187433333Y-81531666D01*
X187466666Y-81598333D01*
X203766666Y-130131666D02*
X203433333Y-130365000D01*
X203766666Y-130531666D02*
X203066666Y-130531666D01*
X203066666Y-130265000D01*
X203100000Y-130198333D01*
X203133333Y-130165000D01*
X203200000Y-130131666D01*
X203300000Y-130131666D01*
X203366666Y-130165000D01*
X203400000Y-130198333D01*
X203433333Y-130265000D01*
X203433333Y-130531666D01*
X203766666Y-129465000D02*
X203766666Y-129865000D01*
X203766666Y-129665000D02*
X203066666Y-129665000D01*
X203166666Y-129731666D01*
X203233333Y-129798333D01*
X203266666Y-129865000D01*
X203066666Y-128831666D02*
X203066666Y-129165000D01*
X203400000Y-129198333D01*
X203366666Y-129165000D01*
X203333333Y-129098333D01*
X203333333Y-128931666D01*
X203366666Y-128865000D01*
X203400000Y-128831666D01*
X203466666Y-128798333D01*
X203633333Y-128798333D01*
X203700000Y-128831666D01*
X203733333Y-128865000D01*
X203766666Y-128931666D01*
X203766666Y-129098333D01*
X203733333Y-129165000D01*
X203700000Y-129198333D01*
X192731666Y-88566666D02*
X192498333Y-88233333D01*
X192331666Y-88566666D02*
X192331666Y-87866666D01*
X192598333Y-87866666D01*
X192665000Y-87900000D01*
X192698333Y-87933333D01*
X192731666Y-88000000D01*
X192731666Y-88100000D01*
X192698333Y-88166666D01*
X192665000Y-88200000D01*
X192598333Y-88233333D01*
X192331666Y-88233333D01*
X192965000Y-87866666D02*
X193398333Y-87866666D01*
X193165000Y-88133333D01*
X193265000Y-88133333D01*
X193331666Y-88166666D01*
X193365000Y-88200000D01*
X193398333Y-88266666D01*
X193398333Y-88433333D01*
X193365000Y-88500000D01*
X193331666Y-88533333D01*
X193265000Y-88566666D01*
X193065000Y-88566666D01*
X192998333Y-88533333D01*
X192965000Y-88500000D01*
X194033333Y-105301666D02*
X194000000Y-105368333D01*
X193933333Y-105435000D01*
X193833333Y-105535000D01*
X193800000Y-105601666D01*
X193800000Y-105668333D01*
X193966666Y-105635000D02*
X193933333Y-105701666D01*
X193866666Y-105768333D01*
X193733333Y-105801666D01*
X193500000Y-105801666D01*
X193366666Y-105768333D01*
X193300000Y-105701666D01*
X193266666Y-105635000D01*
X193266666Y-105501666D01*
X193300000Y-105435000D01*
X193366666Y-105368333D01*
X193500000Y-105335000D01*
X193733333Y-105335000D01*
X193866666Y-105368333D01*
X193933333Y-105435000D01*
X193966666Y-105501666D01*
X193966666Y-105635000D01*
X193266666Y-105101666D02*
X193266666Y-104668333D01*
X193533333Y-104901666D01*
X193533333Y-104801666D01*
X193566666Y-104735000D01*
X193600000Y-104701666D01*
X193666666Y-104668333D01*
X193833333Y-104668333D01*
X193900000Y-104701666D01*
X193933333Y-104735000D01*
X193966666Y-104801666D01*
X193966666Y-105001666D01*
X193933333Y-105068333D01*
X193900000Y-105101666D01*
X203766666Y-124768333D02*
X203433333Y-125001666D01*
X203766666Y-125168333D02*
X203066666Y-125168333D01*
X203066666Y-124901666D01*
X203100000Y-124835000D01*
X203133333Y-124801666D01*
X203200000Y-124768333D01*
X203300000Y-124768333D01*
X203366666Y-124801666D01*
X203400000Y-124835000D01*
X203433333Y-124901666D01*
X203433333Y-125168333D01*
X203133333Y-124501666D02*
X203100000Y-124468333D01*
X203066666Y-124401666D01*
X203066666Y-124235000D01*
X203100000Y-124168333D01*
X203133333Y-124135000D01*
X203200000Y-124101666D01*
X203266666Y-124101666D01*
X203366666Y-124135000D01*
X203766666Y-124535000D01*
X203766666Y-124101666D01*
X203766666Y-123435000D02*
X203766666Y-123835000D01*
X203766666Y-123635000D02*
X203066666Y-123635000D01*
X203166666Y-123701666D01*
X203233333Y-123768333D01*
X203266666Y-123835000D01*
X182235000Y-94166666D02*
X182001666Y-93833333D01*
X181835000Y-94166666D02*
X181835000Y-93466666D01*
X182101666Y-93466666D01*
X182168333Y-93500000D01*
X182201666Y-93533333D01*
X182235000Y-93600000D01*
X182235000Y-93700000D01*
X182201666Y-93766666D01*
X182168333Y-93800000D01*
X182101666Y-93833333D01*
X181835000Y-93833333D01*
X182568333Y-94166666D02*
X182701666Y-94166666D01*
X182768333Y-94133333D01*
X182801666Y-94100000D01*
X182868333Y-94000000D01*
X182901666Y-93866666D01*
X182901666Y-93600000D01*
X182868333Y-93533333D01*
X182835000Y-93500000D01*
X182768333Y-93466666D01*
X182635000Y-93466666D01*
X182568333Y-93500000D01*
X182535000Y-93533333D01*
X182501666Y-93600000D01*
X182501666Y-93766666D01*
X182535000Y-93833333D01*
X182568333Y-93866666D01*
X182635000Y-93900000D01*
X182768333Y-93900000D01*
X182835000Y-93866666D01*
X182868333Y-93833333D01*
X182901666Y-93766666D01*
X197166666Y-110931666D02*
X196833333Y-111165000D01*
X197166666Y-111331666D02*
X196466666Y-111331666D01*
X196466666Y-111065000D01*
X196500000Y-110998333D01*
X196533333Y-110965000D01*
X196600000Y-110931666D01*
X196700000Y-110931666D01*
X196766666Y-110965000D01*
X196800000Y-110998333D01*
X196833333Y-111065000D01*
X196833333Y-111331666D01*
X197166666Y-110265000D02*
X197166666Y-110665000D01*
X197166666Y-110465000D02*
X196466666Y-110465000D01*
X196566666Y-110531666D01*
X196633333Y-110598333D01*
X196666666Y-110665000D01*
X196533333Y-109998333D02*
X196500000Y-109965000D01*
X196466666Y-109898333D01*
X196466666Y-109731666D01*
X196500000Y-109665000D01*
X196533333Y-109631666D01*
X196600000Y-109598333D01*
X196666666Y-109598333D01*
X196766666Y-109631666D01*
X197166666Y-110031666D01*
X197166666Y-109598333D01*
X191666666Y-110468333D02*
X191333333Y-110701666D01*
X191666666Y-110868333D02*
X190966666Y-110868333D01*
X190966666Y-110601666D01*
X191000000Y-110535000D01*
X191033333Y-110501666D01*
X191100000Y-110468333D01*
X191200000Y-110468333D01*
X191266666Y-110501666D01*
X191300000Y-110535000D01*
X191333333Y-110601666D01*
X191333333Y-110868333D01*
X190966666Y-109868333D02*
X190966666Y-110001666D01*
X191000000Y-110068333D01*
X191033333Y-110101666D01*
X191133333Y-110168333D01*
X191266666Y-110201666D01*
X191533333Y-110201666D01*
X191600000Y-110168333D01*
X191633333Y-110135000D01*
X191666666Y-110068333D01*
X191666666Y-109935000D01*
X191633333Y-109868333D01*
X191600000Y-109835000D01*
X191533333Y-109801666D01*
X191366666Y-109801666D01*
X191300000Y-109835000D01*
X191266666Y-109868333D01*
X191233333Y-109935000D01*
X191233333Y-110068333D01*
X191266666Y-110135000D01*
X191300000Y-110168333D01*
X191366666Y-110201666D01*
X199623778Y-79986689D02*
X199270225Y-80340242D01*
X199175944Y-80387383D01*
X199081663Y-80387383D01*
X198987382Y-80340242D01*
X198940241Y-80293102D01*
X199364505Y-80717366D02*
X199859480Y-80222391D01*
X200048042Y-80410953D01*
X200071612Y-80481664D01*
X200071612Y-80528804D01*
X200048042Y-80599515D01*
X199977331Y-80670226D01*
X199906621Y-80693796D01*
X199859480Y-80693796D01*
X199788769Y-80670226D01*
X199600208Y-80481664D01*
X200118753Y-81471613D02*
X199835910Y-81188770D01*
X199977331Y-81330192D02*
X200472306Y-80835217D01*
X200354455Y-80858787D01*
X200260174Y-80858787D01*
X200189463Y-80835217D01*
X194766666Y-99231666D02*
X194433333Y-99465000D01*
X194766666Y-99631666D02*
X194066666Y-99631666D01*
X194066666Y-99365000D01*
X194100000Y-99298333D01*
X194133333Y-99265000D01*
X194200000Y-99231666D01*
X194300000Y-99231666D01*
X194366666Y-99265000D01*
X194400000Y-99298333D01*
X194433333Y-99365000D01*
X194433333Y-99631666D01*
X194766666Y-98565000D02*
X194766666Y-98965000D01*
X194766666Y-98765000D02*
X194066666Y-98765000D01*
X194166666Y-98831666D01*
X194233333Y-98898333D01*
X194266666Y-98965000D01*
X194066666Y-97965000D02*
X194066666Y-98098333D01*
X194100000Y-98165000D01*
X194133333Y-98198333D01*
X194233333Y-98265000D01*
X194366666Y-98298333D01*
X194633333Y-98298333D01*
X194700000Y-98265000D01*
X194733333Y-98231666D01*
X194766666Y-98165000D01*
X194766666Y-98031666D01*
X194733333Y-97965000D01*
X194700000Y-97931666D01*
X194633333Y-97898333D01*
X194466666Y-97898333D01*
X194400000Y-97931666D01*
X194366666Y-97965000D01*
X194333333Y-98031666D01*
X194333333Y-98165000D01*
X194366666Y-98231666D01*
X194400000Y-98265000D01*
X194466666Y-98298333D01*
X179935000Y-121700000D02*
X179901666Y-121733333D01*
X179801666Y-121766666D01*
X179735000Y-121766666D01*
X179635000Y-121733333D01*
X179568333Y-121666666D01*
X179535000Y-121600000D01*
X179501666Y-121466666D01*
X179501666Y-121366666D01*
X179535000Y-121233333D01*
X179568333Y-121166666D01*
X179635000Y-121100000D01*
X179735000Y-121066666D01*
X179801666Y-121066666D01*
X179901666Y-121100000D01*
X179935000Y-121133333D01*
X180168333Y-121066666D02*
X180635000Y-121066666D01*
X180335000Y-121766666D01*
X175200000Y-109268333D02*
X175233333Y-109301666D01*
X175266666Y-109401666D01*
X175266666Y-109468333D01*
X175233333Y-109568333D01*
X175166666Y-109635000D01*
X175100000Y-109668333D01*
X174966666Y-109701666D01*
X174866666Y-109701666D01*
X174733333Y-109668333D01*
X174666666Y-109635000D01*
X174600000Y-109568333D01*
X174566666Y-109468333D01*
X174566666Y-109401666D01*
X174600000Y-109301666D01*
X174633333Y-109268333D01*
X174566666Y-108635000D02*
X174566666Y-108968333D01*
X174900000Y-109001666D01*
X174866666Y-108968333D01*
X174833333Y-108901666D01*
X174833333Y-108735000D01*
X174866666Y-108668333D01*
X174900000Y-108635000D01*
X174966666Y-108601666D01*
X175133333Y-108601666D01*
X175200000Y-108635000D01*
X175233333Y-108668333D01*
X175266666Y-108735000D01*
X175266666Y-108901666D01*
X175233333Y-108968333D01*
X175200000Y-109001666D01*
X188468333Y-93433333D02*
X188401666Y-93400000D01*
X188335000Y-93333333D01*
X188235000Y-93233333D01*
X188168333Y-93200000D01*
X188101666Y-93200000D01*
X188135000Y-93366666D02*
X188068333Y-93333333D01*
X188001666Y-93266666D01*
X187968333Y-93133333D01*
X187968333Y-92900000D01*
X188001666Y-92766666D01*
X188068333Y-92700000D01*
X188135000Y-92666666D01*
X188268333Y-92666666D01*
X188335000Y-92700000D01*
X188401666Y-92766666D01*
X188435000Y-92900000D01*
X188435000Y-93133333D01*
X188401666Y-93266666D01*
X188335000Y-93333333D01*
X188268333Y-93366666D01*
X188135000Y-93366666D01*
X189101666Y-93366666D02*
X188701666Y-93366666D01*
X188901666Y-93366666D02*
X188901666Y-92666666D01*
X188835000Y-92766666D01*
X188768333Y-92833333D01*
X188701666Y-92866666D01*
X182331666Y-88500000D02*
X182298333Y-88533333D01*
X182198333Y-88566666D01*
X182131666Y-88566666D01*
X182031666Y-88533333D01*
X181965000Y-88466666D01*
X181931666Y-88400000D01*
X181898333Y-88266666D01*
X181898333Y-88166666D01*
X181931666Y-88033333D01*
X181965000Y-87966666D01*
X182031666Y-87900000D01*
X182131666Y-87866666D01*
X182198333Y-87866666D01*
X182298333Y-87900000D01*
X182331666Y-87933333D01*
X182998333Y-88566666D02*
X182598333Y-88566666D01*
X182798333Y-88566666D02*
X182798333Y-87866666D01*
X182731666Y-87966666D01*
X182665000Y-88033333D01*
X182598333Y-88066666D01*
X178831666Y-102866666D02*
X178831666Y-102166666D01*
X178998333Y-102166666D01*
X179098333Y-102200000D01*
X179165000Y-102266666D01*
X179198333Y-102333333D01*
X179231666Y-102466666D01*
X179231666Y-102566666D01*
X179198333Y-102700000D01*
X179165000Y-102766666D01*
X179098333Y-102833333D01*
X178998333Y-102866666D01*
X178831666Y-102866666D01*
X179898333Y-102866666D02*
X179498333Y-102866666D01*
X179698333Y-102866666D02*
X179698333Y-102166666D01*
X179631666Y-102266666D01*
X179565000Y-102333333D01*
X179498333Y-102366666D01*
X180331666Y-102166666D02*
X180398333Y-102166666D01*
X180465000Y-102200000D01*
X180498333Y-102233333D01*
X180531666Y-102300000D01*
X180565000Y-102433333D01*
X180565000Y-102600000D01*
X180531666Y-102733333D01*
X180498333Y-102800000D01*
X180465000Y-102833333D01*
X180398333Y-102866666D01*
X180331666Y-102866666D01*
X180265000Y-102833333D01*
X180231666Y-102800000D01*
X180198333Y-102733333D01*
X180165000Y-102600000D01*
X180165000Y-102433333D01*
X180198333Y-102300000D01*
X180231666Y-102233333D01*
X180265000Y-102200000D01*
X180331666Y-102166666D01*
X172935000Y-102966666D02*
X172935000Y-102266666D01*
X173101666Y-102266666D01*
X173201666Y-102300000D01*
X173268333Y-102366666D01*
X173301666Y-102433333D01*
X173335000Y-102566666D01*
X173335000Y-102666666D01*
X173301666Y-102800000D01*
X173268333Y-102866666D01*
X173201666Y-102933333D01*
X173101666Y-102966666D01*
X172935000Y-102966666D01*
X173935000Y-102500000D02*
X173935000Y-102966666D01*
X173768333Y-102233333D02*
X173601666Y-102733333D01*
X174035000Y-102733333D01*
X175631666Y-121166666D02*
X175631666Y-120466666D01*
X175798333Y-120466666D01*
X175898333Y-120500000D01*
X175965000Y-120566666D01*
X175998333Y-120633333D01*
X176031666Y-120766666D01*
X176031666Y-120866666D01*
X175998333Y-121000000D01*
X175965000Y-121066666D01*
X175898333Y-121133333D01*
X175798333Y-121166666D01*
X175631666Y-121166666D01*
X176698333Y-121166666D02*
X176298333Y-121166666D01*
X176498333Y-121166666D02*
X176498333Y-120466666D01*
X176431666Y-120566666D01*
X176365000Y-120633333D01*
X176298333Y-120666666D01*
X177131666Y-120466666D02*
X177198333Y-120466666D01*
X177265000Y-120500000D01*
X177298333Y-120533333D01*
X177331666Y-120600000D01*
X177365000Y-120733333D01*
X177365000Y-120900000D01*
X177331666Y-121033333D01*
X177298333Y-121100000D01*
X177265000Y-121133333D01*
X177198333Y-121166666D01*
X177131666Y-121166666D01*
X177065000Y-121133333D01*
X177031666Y-121100000D01*
X176998333Y-121033333D01*
X176965000Y-120900000D01*
X176965000Y-120733333D01*
X176998333Y-120600000D01*
X177031666Y-120533333D01*
X177065000Y-120500000D01*
X177131666Y-120466666D01*
X177798333Y-120466666D02*
X177865000Y-120466666D01*
X177931666Y-120500000D01*
X177965000Y-120533333D01*
X177998333Y-120600000D01*
X178031666Y-120733333D01*
X178031666Y-120900000D01*
X177998333Y-121033333D01*
X177965000Y-121100000D01*
X177931666Y-121133333D01*
X177865000Y-121166666D01*
X177798333Y-121166666D01*
X177731666Y-121133333D01*
X177698333Y-121100000D01*
X177665000Y-121033333D01*
X177631666Y-120900000D01*
X177631666Y-120733333D01*
X177665000Y-120600000D01*
X177698333Y-120533333D01*
X177731666Y-120500000D01*
X177798333Y-120466666D01*
X201500000Y-97168333D02*
X201533333Y-97201666D01*
X201566666Y-97301666D01*
X201566666Y-97368333D01*
X201533333Y-97468333D01*
X201466666Y-97535000D01*
X201400000Y-97568333D01*
X201266666Y-97601666D01*
X201166666Y-97601666D01*
X201033333Y-97568333D01*
X200966666Y-97535000D01*
X200900000Y-97468333D01*
X200866666Y-97368333D01*
X200866666Y-97301666D01*
X200900000Y-97201666D01*
X200933333Y-97168333D01*
X201566666Y-96835000D02*
X201566666Y-96701666D01*
X201533333Y-96635000D01*
X201500000Y-96601666D01*
X201400000Y-96535000D01*
X201266666Y-96501666D01*
X201000000Y-96501666D01*
X200933333Y-96535000D01*
X200900000Y-96568333D01*
X200866666Y-96635000D01*
X200866666Y-96768333D01*
X200900000Y-96835000D01*
X200933333Y-96868333D01*
X201000000Y-96901666D01*
X201166666Y-96901666D01*
X201233333Y-96868333D01*
X201266666Y-96835000D01*
X201300000Y-96768333D01*
X201300000Y-96635000D01*
X201266666Y-96568333D01*
X201233333Y-96535000D01*
X201166666Y-96501666D01*
X199968333Y-105500000D02*
X199935000Y-105533333D01*
X199835000Y-105566666D01*
X199768333Y-105566666D01*
X199668333Y-105533333D01*
X199601666Y-105466666D01*
X199568333Y-105400000D01*
X199535000Y-105266666D01*
X199535000Y-105166666D01*
X199568333Y-105033333D01*
X199601666Y-104966666D01*
X199668333Y-104900000D01*
X199768333Y-104866666D01*
X199835000Y-104866666D01*
X199935000Y-104900000D01*
X199968333Y-104933333D01*
X200635000Y-105566666D02*
X200235000Y-105566666D01*
X200435000Y-105566666D02*
X200435000Y-104866666D01*
X200368333Y-104966666D01*
X200301666Y-105033333D01*
X200235000Y-105066666D01*
X201301666Y-105566666D02*
X200901666Y-105566666D01*
X201101666Y-105566666D02*
X201101666Y-104866666D01*
X201035000Y-104966666D01*
X200968333Y-105033333D01*
X200901666Y-105066666D01*
X185966666Y-105168333D02*
X185633333Y-105401666D01*
X185966666Y-105568333D02*
X185266666Y-105568333D01*
X185266666Y-105301666D01*
X185300000Y-105235000D01*
X185333333Y-105201666D01*
X185400000Y-105168333D01*
X185500000Y-105168333D01*
X185566666Y-105201666D01*
X185600000Y-105235000D01*
X185633333Y-105301666D01*
X185633333Y-105568333D01*
X185566666Y-104768333D02*
X185533333Y-104835000D01*
X185500000Y-104868333D01*
X185433333Y-104901666D01*
X185400000Y-104901666D01*
X185333333Y-104868333D01*
X185300000Y-104835000D01*
X185266666Y-104768333D01*
X185266666Y-104635000D01*
X185300000Y-104568333D01*
X185333333Y-104535000D01*
X185400000Y-104501666D01*
X185433333Y-104501666D01*
X185500000Y-104535000D01*
X185533333Y-104568333D01*
X185566666Y-104635000D01*
X185566666Y-104768333D01*
X185600000Y-104835000D01*
X185633333Y-104868333D01*
X185700000Y-104901666D01*
X185833333Y-104901666D01*
X185900000Y-104868333D01*
X185933333Y-104835000D01*
X185966666Y-104768333D01*
X185966666Y-104635000D01*
X185933333Y-104568333D01*
X185900000Y-104535000D01*
X185833333Y-104501666D01*
X185700000Y-104501666D01*
X185633333Y-104535000D01*
X185600000Y-104568333D01*
X185566666Y-104635000D01*
X183898333Y-135333333D02*
X183998333Y-135366666D01*
X184165000Y-135366666D01*
X184231666Y-135333333D01*
X184265000Y-135300000D01*
X184298333Y-135233333D01*
X184298333Y-135166666D01*
X184265000Y-135100000D01*
X184231666Y-135066666D01*
X184165000Y-135033333D01*
X184031666Y-135000000D01*
X183965000Y-134966666D01*
X183931666Y-134933333D01*
X183898333Y-134866666D01*
X183898333Y-134800000D01*
X183931666Y-134733333D01*
X183965000Y-134700000D01*
X184031666Y-134666666D01*
X184198333Y-134666666D01*
X184298333Y-134700000D01*
X184965000Y-135366666D02*
X184565000Y-135366666D01*
X184765000Y-135366666D02*
X184765000Y-134666666D01*
X184698333Y-134766666D01*
X184631666Y-134833333D01*
X184565000Y-134866666D01*
X177266666Y-87868333D02*
X176566666Y-87868333D01*
X176566666Y-87701666D01*
X176600000Y-87601666D01*
X176666666Y-87535000D01*
X176733333Y-87501666D01*
X176866666Y-87468333D01*
X176966666Y-87468333D01*
X177100000Y-87501666D01*
X177166666Y-87535000D01*
X177233333Y-87601666D01*
X177266666Y-87701666D01*
X177266666Y-87868333D01*
X176566666Y-86835000D02*
X176566666Y-87168333D01*
X176900000Y-87201666D01*
X176866666Y-87168333D01*
X176833333Y-87101666D01*
X176833333Y-86935000D01*
X176866666Y-86868333D01*
X176900000Y-86835000D01*
X176966666Y-86801666D01*
X177133333Y-86801666D01*
X177200000Y-86835000D01*
X177233333Y-86868333D01*
X177266666Y-86935000D01*
X177266666Y-87101666D01*
X177233333Y-87168333D01*
X177200000Y-87201666D01*
X177631666Y-126766666D02*
X177631666Y-126066666D01*
X178365000Y-126700000D02*
X178331666Y-126733333D01*
X178231666Y-126766666D01*
X178165000Y-126766666D01*
X178065000Y-126733333D01*
X177998333Y-126666666D01*
X177965000Y-126600000D01*
X177931666Y-126466666D01*
X177931666Y-126366666D01*
X177965000Y-126233333D01*
X177998333Y-126166666D01*
X178065000Y-126100000D01*
X178165000Y-126066666D01*
X178231666Y-126066666D01*
X178331666Y-126100000D01*
X178365000Y-126133333D01*
X178598333Y-126066666D02*
X179031666Y-126066666D01*
X178798333Y-126333333D01*
X178898333Y-126333333D01*
X178965000Y-126366666D01*
X178998333Y-126400000D01*
X179031666Y-126466666D01*
X179031666Y-126633333D01*
X178998333Y-126700000D01*
X178965000Y-126733333D01*
X178898333Y-126766666D01*
X178698333Y-126766666D01*
X178631666Y-126733333D01*
X178598333Y-126700000D01*
X192601666Y-119866666D02*
X192601666Y-119166666D01*
X193335000Y-119800000D02*
X193301666Y-119833333D01*
X193201666Y-119866666D01*
X193135000Y-119866666D01*
X193035000Y-119833333D01*
X192968333Y-119766666D01*
X192935000Y-119700000D01*
X192901666Y-119566666D01*
X192901666Y-119466666D01*
X192935000Y-119333333D01*
X192968333Y-119266666D01*
X193035000Y-119200000D01*
X193135000Y-119166666D01*
X193201666Y-119166666D01*
X193301666Y-119200000D01*
X193335000Y-119233333D01*
X193601666Y-119233333D02*
X193635000Y-119200000D01*
X193701666Y-119166666D01*
X193868333Y-119166666D01*
X193935000Y-119200000D01*
X193968333Y-119233333D01*
X194001666Y-119300000D01*
X194001666Y-119366666D01*
X193968333Y-119466666D01*
X193568333Y-119866666D01*
X194001666Y-119866666D01*
X175766666Y-97235000D02*
X175766666Y-97568333D01*
X175066666Y-97568333D01*
X175133333Y-97035000D02*
X175100000Y-97001666D01*
X175066666Y-96935000D01*
X175066666Y-96768333D01*
X175100000Y-96701666D01*
X175133333Y-96668333D01*
X175200000Y-96635000D01*
X175266666Y-96635000D01*
X175366666Y-96668333D01*
X175766666Y-97068333D01*
X175766666Y-96635000D01*
X207266666Y-95768333D02*
X206566666Y-95768333D01*
X206566666Y-95601666D01*
X206600000Y-95501666D01*
X206666666Y-95435000D01*
X206733333Y-95401666D01*
X206866666Y-95368333D01*
X206966666Y-95368333D01*
X207100000Y-95401666D01*
X207166666Y-95435000D01*
X207233333Y-95501666D01*
X207266666Y-95601666D01*
X207266666Y-95768333D01*
X206633333Y-95101666D02*
X206600000Y-95068333D01*
X206566666Y-95001666D01*
X206566666Y-94835000D01*
X206600000Y-94768333D01*
X206633333Y-94735000D01*
X206700000Y-94701666D01*
X206766666Y-94701666D01*
X206866666Y-94735000D01*
X207266666Y-95135000D01*
X207266666Y-94701666D01*
X172301666Y-121366666D02*
X171968333Y-121366666D01*
X171968333Y-120666666D01*
X172468333Y-120666666D02*
X172901666Y-120666666D01*
X172668333Y-120933333D01*
X172768333Y-120933333D01*
X172835000Y-120966666D01*
X172868333Y-121000000D01*
X172901666Y-121066666D01*
X172901666Y-121233333D01*
X172868333Y-121300000D01*
X172835000Y-121333333D01*
X172768333Y-121366666D01*
X172568333Y-121366666D01*
X172501666Y-121333333D01*
X172468333Y-121300000D01*
X183735000Y-115066666D02*
X183735000Y-114366666D01*
X183901666Y-114366666D01*
X184001666Y-114400000D01*
X184068333Y-114466666D01*
X184101666Y-114533333D01*
X184135000Y-114666666D01*
X184135000Y-114766666D01*
X184101666Y-114900000D01*
X184068333Y-114966666D01*
X184001666Y-115033333D01*
X183901666Y-115066666D01*
X183735000Y-115066666D01*
X184368333Y-114366666D02*
X184835000Y-114366666D01*
X184535000Y-115066666D01*
X183701666Y-108066666D02*
X184101666Y-108066666D01*
X183901666Y-108766666D02*
X183901666Y-108066666D01*
X184701666Y-108766666D02*
X184301666Y-108766666D01*
X184501666Y-108766666D02*
X184501666Y-108066666D01*
X184435000Y-108166666D01*
X184368333Y-108233333D01*
X184301666Y-108266666D01*
X173700000Y-133468333D02*
X173733333Y-133501666D01*
X173766666Y-133601666D01*
X173766666Y-133668333D01*
X173733333Y-133768333D01*
X173666666Y-133835000D01*
X173600000Y-133868333D01*
X173466666Y-133901666D01*
X173366666Y-133901666D01*
X173233333Y-133868333D01*
X173166666Y-133835000D01*
X173100000Y-133768333D01*
X173066666Y-133668333D01*
X173066666Y-133601666D01*
X173100000Y-133501666D01*
X173133333Y-133468333D01*
X173766666Y-132801666D02*
X173766666Y-133201666D01*
X173766666Y-133001666D02*
X173066666Y-133001666D01*
X173166666Y-133068333D01*
X173233333Y-133135000D01*
X173266666Y-133201666D01*
X173066666Y-132201666D02*
X173066666Y-132335000D01*
X173100000Y-132401666D01*
X173133333Y-132435000D01*
X173233333Y-132501666D01*
X173366666Y-132535000D01*
X173633333Y-132535000D01*
X173700000Y-132501666D01*
X173733333Y-132468333D01*
X173766666Y-132401666D01*
X173766666Y-132268333D01*
X173733333Y-132201666D01*
X173700000Y-132168333D01*
X173633333Y-132135000D01*
X173466666Y-132135000D01*
X173400000Y-132168333D01*
X173366666Y-132201666D01*
X173333333Y-132268333D01*
X173333333Y-132401666D01*
X173366666Y-132468333D01*
X173400000Y-132501666D01*
X173466666Y-132535000D01*
X185966666Y-103068333D02*
X185633333Y-103301666D01*
X185966666Y-103468333D02*
X185266666Y-103468333D01*
X185266666Y-103201666D01*
X185300000Y-103135000D01*
X185333333Y-103101666D01*
X185400000Y-103068333D01*
X185500000Y-103068333D01*
X185566666Y-103101666D01*
X185600000Y-103135000D01*
X185633333Y-103201666D01*
X185633333Y-103468333D01*
X185966666Y-102401666D02*
X185966666Y-102801666D01*
X185966666Y-102601666D02*
X185266666Y-102601666D01*
X185366666Y-102668333D01*
X185433333Y-102735000D01*
X185466666Y-102801666D01*
X185966666Y-101735000D02*
X185966666Y-102135000D01*
X185966666Y-101935000D02*
X185266666Y-101935000D01*
X185366666Y-102001666D01*
X185433333Y-102068333D01*
X185466666Y-102135000D01*
X181135000Y-109166666D02*
X180901666Y-108833333D01*
X180735000Y-109166666D02*
X180735000Y-108466666D01*
X181001666Y-108466666D01*
X181068333Y-108500000D01*
X181101666Y-108533333D01*
X181135000Y-108600000D01*
X181135000Y-108700000D01*
X181101666Y-108766666D01*
X181068333Y-108800000D01*
X181001666Y-108833333D01*
X180735000Y-108833333D01*
X181735000Y-108700000D02*
X181735000Y-109166666D01*
X181568333Y-108433333D02*
X181401666Y-108933333D01*
X181835000Y-108933333D01*
X192700000Y-127165000D02*
X192733333Y-127198333D01*
X192766666Y-127298333D01*
X192766666Y-127365000D01*
X192733333Y-127465000D01*
X192666666Y-127531666D01*
X192600000Y-127565000D01*
X192466666Y-127598333D01*
X192366666Y-127598333D01*
X192233333Y-127565000D01*
X192166666Y-127531666D01*
X192100000Y-127465000D01*
X192066666Y-127365000D01*
X192066666Y-127298333D01*
X192100000Y-127198333D01*
X192133333Y-127165000D01*
X192133333Y-126898333D02*
X192100000Y-126865000D01*
X192066666Y-126798333D01*
X192066666Y-126631666D01*
X192100000Y-126565000D01*
X192133333Y-126531666D01*
X192200000Y-126498333D01*
X192266666Y-126498333D01*
X192366666Y-126531666D01*
X192766666Y-126931666D01*
X192766666Y-126498333D01*
X202300000Y-110468333D02*
X202333333Y-110501666D01*
X202366666Y-110601666D01*
X202366666Y-110668333D01*
X202333333Y-110768333D01*
X202266666Y-110835000D01*
X202200000Y-110868333D01*
X202066666Y-110901666D01*
X201966666Y-110901666D01*
X201833333Y-110868333D01*
X201766666Y-110835000D01*
X201700000Y-110768333D01*
X201666666Y-110668333D01*
X201666666Y-110601666D01*
X201700000Y-110501666D01*
X201733333Y-110468333D01*
X201900000Y-109868333D02*
X202366666Y-109868333D01*
X201633333Y-110035000D02*
X202133333Y-110201666D01*
X202133333Y-109768333D01*
X170866666Y-91465000D02*
X170166666Y-91465000D01*
X170166666Y-91298333D01*
X170200000Y-91198333D01*
X170266666Y-91131666D01*
X170333333Y-91098333D01*
X170466666Y-91065000D01*
X170566666Y-91065000D01*
X170700000Y-91098333D01*
X170766666Y-91131666D01*
X170833333Y-91198333D01*
X170866666Y-91298333D01*
X170866666Y-91465000D01*
X170466666Y-90665000D02*
X170433333Y-90731666D01*
X170400000Y-90765000D01*
X170333333Y-90798333D01*
X170300000Y-90798333D01*
X170233333Y-90765000D01*
X170200000Y-90731666D01*
X170166666Y-90665000D01*
X170166666Y-90531666D01*
X170200000Y-90465000D01*
X170233333Y-90431666D01*
X170300000Y-90398333D01*
X170333333Y-90398333D01*
X170400000Y-90431666D01*
X170433333Y-90465000D01*
X170466666Y-90531666D01*
X170466666Y-90665000D01*
X170500000Y-90731666D01*
X170533333Y-90765000D01*
X170600000Y-90798333D01*
X170733333Y-90798333D01*
X170800000Y-90765000D01*
X170833333Y-90731666D01*
X170866666Y-90665000D01*
X170866666Y-90531666D01*
X170833333Y-90465000D01*
X170800000Y-90431666D01*
X170733333Y-90398333D01*
X170600000Y-90398333D01*
X170533333Y-90431666D01*
X170500000Y-90465000D01*
X170466666Y-90531666D01*
X205468333Y-119873333D02*
X205401666Y-119840000D01*
X205335000Y-119773333D01*
X205235000Y-119673333D01*
X205168333Y-119640000D01*
X205101666Y-119640000D01*
X205135000Y-119806666D02*
X205068333Y-119773333D01*
X205001666Y-119706666D01*
X204968333Y-119573333D01*
X204968333Y-119340000D01*
X205001666Y-119206666D01*
X205068333Y-119140000D01*
X205135000Y-119106666D01*
X205268333Y-119106666D01*
X205335000Y-119140000D01*
X205401666Y-119206666D01*
X205435000Y-119340000D01*
X205435000Y-119573333D01*
X205401666Y-119706666D01*
X205335000Y-119773333D01*
X205268333Y-119806666D01*
X205135000Y-119806666D01*
X206035000Y-119340000D02*
X206035000Y-119806666D01*
X205868333Y-119073333D02*
X205701666Y-119573333D01*
X206135000Y-119573333D01*
X181966666Y-113531666D02*
X181633333Y-113765000D01*
X181966666Y-113931666D02*
X181266666Y-113931666D01*
X181266666Y-113665000D01*
X181300000Y-113598333D01*
X181333333Y-113565000D01*
X181400000Y-113531666D01*
X181500000Y-113531666D01*
X181566666Y-113565000D01*
X181600000Y-113598333D01*
X181633333Y-113665000D01*
X181633333Y-113931666D01*
X181966666Y-112865000D02*
X181966666Y-113265000D01*
X181966666Y-113065000D02*
X181266666Y-113065000D01*
X181366666Y-113131666D01*
X181433333Y-113198333D01*
X181466666Y-113265000D01*
X181266666Y-112631666D02*
X181266666Y-112165000D01*
X181966666Y-112465000D01*
X182966666Y-127731666D02*
X182633333Y-127965000D01*
X182966666Y-128131666D02*
X182266666Y-128131666D01*
X182266666Y-127865000D01*
X182300000Y-127798333D01*
X182333333Y-127765000D01*
X182400000Y-127731666D01*
X182500000Y-127731666D01*
X182566666Y-127765000D01*
X182600000Y-127798333D01*
X182633333Y-127865000D01*
X182633333Y-128131666D01*
X182333333Y-127465000D02*
X182300000Y-127431666D01*
X182266666Y-127365000D01*
X182266666Y-127198333D01*
X182300000Y-127131666D01*
X182333333Y-127098333D01*
X182400000Y-127065000D01*
X182466666Y-127065000D01*
X182566666Y-127098333D01*
X182966666Y-127498333D01*
X182966666Y-127065000D01*
X182266666Y-126465000D02*
X182266666Y-126598333D01*
X182300000Y-126665000D01*
X182333333Y-126698333D01*
X182433333Y-126765000D01*
X182566666Y-126798333D01*
X182833333Y-126798333D01*
X182900000Y-126765000D01*
X182933333Y-126731666D01*
X182966666Y-126665000D01*
X182966666Y-126531666D01*
X182933333Y-126465000D01*
X182900000Y-126431666D01*
X182833333Y-126398333D01*
X182666666Y-126398333D01*
X182600000Y-126431666D01*
X182566666Y-126465000D01*
X182533333Y-126531666D01*
X182533333Y-126665000D01*
X182566666Y-126731666D01*
X182600000Y-126765000D01*
X182666666Y-126798333D01*
X204500000Y-113468333D02*
X204533333Y-113501666D01*
X204566666Y-113601666D01*
X204566666Y-113668333D01*
X204533333Y-113768333D01*
X204466666Y-113835000D01*
X204400000Y-113868333D01*
X204266666Y-113901666D01*
X204166666Y-113901666D01*
X204033333Y-113868333D01*
X203966666Y-113835000D01*
X203900000Y-113768333D01*
X203866666Y-113668333D01*
X203866666Y-113601666D01*
X203900000Y-113501666D01*
X203933333Y-113468333D01*
X204566666Y-112801666D02*
X204566666Y-113201666D01*
X204566666Y-113001666D02*
X203866666Y-113001666D01*
X203966666Y-113068333D01*
X204033333Y-113135000D01*
X204066666Y-113201666D01*
X203866666Y-112568333D02*
X203866666Y-112135000D01*
X204133333Y-112368333D01*
X204133333Y-112268333D01*
X204166666Y-112201666D01*
X204200000Y-112168333D01*
X204266666Y-112135000D01*
X204433333Y-112135000D01*
X204500000Y-112168333D01*
X204533333Y-112201666D01*
X204566666Y-112268333D01*
X204566666Y-112468333D01*
X204533333Y-112535000D01*
X204500000Y-112568333D01*
X200535000Y-95266666D02*
X200535000Y-94566666D01*
X200701666Y-94566666D01*
X200801666Y-94600000D01*
X200868333Y-94666666D01*
X200901666Y-94733333D01*
X200935000Y-94866666D01*
X200935000Y-94966666D01*
X200901666Y-95100000D01*
X200868333Y-95166666D01*
X200801666Y-95233333D01*
X200701666Y-95266666D01*
X200535000Y-95266666D01*
X201535000Y-94566666D02*
X201401666Y-94566666D01*
X201335000Y-94600000D01*
X201301666Y-94633333D01*
X201235000Y-94733333D01*
X201201666Y-94866666D01*
X201201666Y-95133333D01*
X201235000Y-95200000D01*
X201268333Y-95233333D01*
X201335000Y-95266666D01*
X201468333Y-95266666D01*
X201535000Y-95233333D01*
X201568333Y-95200000D01*
X201601666Y-95133333D01*
X201601666Y-94966666D01*
X201568333Y-94900000D01*
X201535000Y-94866666D01*
X201468333Y-94833333D01*
X201335000Y-94833333D01*
X201268333Y-94866666D01*
X201235000Y-94900000D01*
X201201666Y-94966666D01*
X163700000Y-127165000D02*
X163733333Y-127198333D01*
X163766666Y-127298333D01*
X163766666Y-127365000D01*
X163733333Y-127465000D01*
X163666666Y-127531666D01*
X163600000Y-127565000D01*
X163466666Y-127598333D01*
X163366666Y-127598333D01*
X163233333Y-127565000D01*
X163166666Y-127531666D01*
X163100000Y-127465000D01*
X163066666Y-127365000D01*
X163066666Y-127298333D01*
X163100000Y-127198333D01*
X163133333Y-127165000D01*
X163366666Y-126765000D02*
X163333333Y-126831666D01*
X163300000Y-126865000D01*
X163233333Y-126898333D01*
X163200000Y-126898333D01*
X163133333Y-126865000D01*
X163100000Y-126831666D01*
X163066666Y-126765000D01*
X163066666Y-126631666D01*
X163100000Y-126565000D01*
X163133333Y-126531666D01*
X163200000Y-126498333D01*
X163233333Y-126498333D01*
X163300000Y-126531666D01*
X163333333Y-126565000D01*
X163366666Y-126631666D01*
X163366666Y-126765000D01*
X163400000Y-126831666D01*
X163433333Y-126865000D01*
X163500000Y-126898333D01*
X163633333Y-126898333D01*
X163700000Y-126865000D01*
X163733333Y-126831666D01*
X163766666Y-126765000D01*
X163766666Y-126631666D01*
X163733333Y-126565000D01*
X163700000Y-126531666D01*
X163633333Y-126498333D01*
X163500000Y-126498333D01*
X163433333Y-126531666D01*
X163400000Y-126565000D01*
X163366666Y-126631666D01*
X142331666Y-88500000D02*
X142298333Y-88533333D01*
X142198333Y-88566666D01*
X142131666Y-88566666D01*
X142031666Y-88533333D01*
X141965000Y-88466666D01*
X141931666Y-88400000D01*
X141898333Y-88266666D01*
X141898333Y-88166666D01*
X141931666Y-88033333D01*
X141965000Y-87966666D01*
X142031666Y-87900000D01*
X142131666Y-87866666D01*
X142198333Y-87866666D01*
X142298333Y-87900000D01*
X142331666Y-87933333D01*
X142998333Y-88566666D02*
X142598333Y-88566666D01*
X142798333Y-88566666D02*
X142798333Y-87866666D01*
X142731666Y-87966666D01*
X142665000Y-88033333D01*
X142598333Y-88066666D01*
X152700000Y-127165000D02*
X152733333Y-127198333D01*
X152766666Y-127298333D01*
X152766666Y-127365000D01*
X152733333Y-127465000D01*
X152666666Y-127531666D01*
X152600000Y-127565000D01*
X152466666Y-127598333D01*
X152366666Y-127598333D01*
X152233333Y-127565000D01*
X152166666Y-127531666D01*
X152100000Y-127465000D01*
X152066666Y-127365000D01*
X152066666Y-127298333D01*
X152100000Y-127198333D01*
X152133333Y-127165000D01*
X152133333Y-126898333D02*
X152100000Y-126865000D01*
X152066666Y-126798333D01*
X152066666Y-126631666D01*
X152100000Y-126565000D01*
X152133333Y-126531666D01*
X152200000Y-126498333D01*
X152266666Y-126498333D01*
X152366666Y-126531666D01*
X152766666Y-126931666D01*
X152766666Y-126498333D01*
X162300000Y-110468333D02*
X162333333Y-110501666D01*
X162366666Y-110601666D01*
X162366666Y-110668333D01*
X162333333Y-110768333D01*
X162266666Y-110835000D01*
X162200000Y-110868333D01*
X162066666Y-110901666D01*
X161966666Y-110901666D01*
X161833333Y-110868333D01*
X161766666Y-110835000D01*
X161700000Y-110768333D01*
X161666666Y-110668333D01*
X161666666Y-110601666D01*
X161700000Y-110501666D01*
X161733333Y-110468333D01*
X161900000Y-109868333D02*
X162366666Y-109868333D01*
X161633333Y-110035000D02*
X162133333Y-110201666D01*
X162133333Y-109768333D01*
X159968333Y-105500000D02*
X159935000Y-105533333D01*
X159835000Y-105566666D01*
X159768333Y-105566666D01*
X159668333Y-105533333D01*
X159601666Y-105466666D01*
X159568333Y-105400000D01*
X159535000Y-105266666D01*
X159535000Y-105166666D01*
X159568333Y-105033333D01*
X159601666Y-104966666D01*
X159668333Y-104900000D01*
X159768333Y-104866666D01*
X159835000Y-104866666D01*
X159935000Y-104900000D01*
X159968333Y-104933333D01*
X160635000Y-105566666D02*
X160235000Y-105566666D01*
X160435000Y-105566666D02*
X160435000Y-104866666D01*
X160368333Y-104966666D01*
X160301666Y-105033333D01*
X160235000Y-105066666D01*
X161301666Y-105566666D02*
X160901666Y-105566666D01*
X161101666Y-105566666D02*
X161101666Y-104866666D01*
X161035000Y-104966666D01*
X160968333Y-105033333D01*
X160901666Y-105066666D01*
X152700000Y-130168333D02*
X152733333Y-130201666D01*
X152766666Y-130301666D01*
X152766666Y-130368333D01*
X152733333Y-130468333D01*
X152666666Y-130535000D01*
X152600000Y-130568333D01*
X152466666Y-130601666D01*
X152366666Y-130601666D01*
X152233333Y-130568333D01*
X152166666Y-130535000D01*
X152100000Y-130468333D01*
X152066666Y-130368333D01*
X152066666Y-130301666D01*
X152100000Y-130201666D01*
X152133333Y-130168333D01*
X152766666Y-129501666D02*
X152766666Y-129901666D01*
X152766666Y-129701666D02*
X152066666Y-129701666D01*
X152166666Y-129768333D01*
X152233333Y-129835000D01*
X152266666Y-129901666D01*
X152066666Y-129068333D02*
X152066666Y-129001666D01*
X152100000Y-128935000D01*
X152133333Y-128901666D01*
X152200000Y-128868333D01*
X152333333Y-128835000D01*
X152500000Y-128835000D01*
X152633333Y-128868333D01*
X152700000Y-128901666D01*
X152733333Y-128935000D01*
X152766666Y-129001666D01*
X152766666Y-129068333D01*
X152733333Y-129135000D01*
X152700000Y-129168333D01*
X152633333Y-129201666D01*
X152500000Y-129235000D01*
X152333333Y-129235000D01*
X152200000Y-129201666D01*
X152133333Y-129168333D01*
X152100000Y-129135000D01*
X152066666Y-129068333D01*
X159868333Y-116900000D02*
X159835000Y-116933333D01*
X159735000Y-116966666D01*
X159668333Y-116966666D01*
X159568333Y-116933333D01*
X159501666Y-116866666D01*
X159468333Y-116800000D01*
X159435000Y-116666666D01*
X159435000Y-116566666D01*
X159468333Y-116433333D01*
X159501666Y-116366666D01*
X159568333Y-116300000D01*
X159668333Y-116266666D01*
X159735000Y-116266666D01*
X159835000Y-116300000D01*
X159868333Y-116333333D01*
X160535000Y-116966666D02*
X160135000Y-116966666D01*
X160335000Y-116966666D02*
X160335000Y-116266666D01*
X160268333Y-116366666D01*
X160201666Y-116433333D01*
X160135000Y-116466666D01*
X160801666Y-116333333D02*
X160835000Y-116300000D01*
X160901666Y-116266666D01*
X161068333Y-116266666D01*
X161135000Y-116300000D01*
X161168333Y-116333333D01*
X161201666Y-116400000D01*
X161201666Y-116466666D01*
X161168333Y-116566666D01*
X160768333Y-116966666D01*
X161201666Y-116966666D01*
X162100000Y-121131666D02*
X162133333Y-121165000D01*
X162166666Y-121265000D01*
X162166666Y-121331666D01*
X162133333Y-121431666D01*
X162066666Y-121498333D01*
X162000000Y-121531666D01*
X161866666Y-121565000D01*
X161766666Y-121565000D01*
X161633333Y-121531666D01*
X161566666Y-121498333D01*
X161500000Y-121431666D01*
X161466666Y-121331666D01*
X161466666Y-121265000D01*
X161500000Y-121165000D01*
X161533333Y-121131666D01*
X162166666Y-120465000D02*
X162166666Y-120865000D01*
X162166666Y-120665000D02*
X161466666Y-120665000D01*
X161566666Y-120731666D01*
X161633333Y-120798333D01*
X161666666Y-120865000D01*
X161766666Y-120065000D02*
X161733333Y-120131666D01*
X161700000Y-120165000D01*
X161633333Y-120198333D01*
X161600000Y-120198333D01*
X161533333Y-120165000D01*
X161500000Y-120131666D01*
X161466666Y-120065000D01*
X161466666Y-119931666D01*
X161500000Y-119865000D01*
X161533333Y-119831666D01*
X161600000Y-119798333D01*
X161633333Y-119798333D01*
X161700000Y-119831666D01*
X161733333Y-119865000D01*
X161766666Y-119931666D01*
X161766666Y-120065000D01*
X161800000Y-120131666D01*
X161833333Y-120165000D01*
X161900000Y-120198333D01*
X162033333Y-120198333D01*
X162100000Y-120165000D01*
X162133333Y-120131666D01*
X162166666Y-120065000D01*
X162166666Y-119931666D01*
X162133333Y-119865000D01*
X162100000Y-119831666D01*
X162033333Y-119798333D01*
X161900000Y-119798333D01*
X161833333Y-119831666D01*
X161800000Y-119865000D01*
X161766666Y-119931666D01*
X164500000Y-113468333D02*
X164533333Y-113501666D01*
X164566666Y-113601666D01*
X164566666Y-113668333D01*
X164533333Y-113768333D01*
X164466666Y-113835000D01*
X164400000Y-113868333D01*
X164266666Y-113901666D01*
X164166666Y-113901666D01*
X164033333Y-113868333D01*
X163966666Y-113835000D01*
X163900000Y-113768333D01*
X163866666Y-113668333D01*
X163866666Y-113601666D01*
X163900000Y-113501666D01*
X163933333Y-113468333D01*
X164566666Y-112801666D02*
X164566666Y-113201666D01*
X164566666Y-113001666D02*
X163866666Y-113001666D01*
X163966666Y-113068333D01*
X164033333Y-113135000D01*
X164066666Y-113201666D01*
X163866666Y-112568333D02*
X163866666Y-112135000D01*
X164133333Y-112368333D01*
X164133333Y-112268333D01*
X164166666Y-112201666D01*
X164200000Y-112168333D01*
X164266666Y-112135000D01*
X164433333Y-112135000D01*
X164500000Y-112168333D01*
X164533333Y-112201666D01*
X164566666Y-112268333D01*
X164566666Y-112468333D01*
X164533333Y-112535000D01*
X164500000Y-112568333D01*
X144900000Y-121668333D02*
X144933333Y-121701666D01*
X144966666Y-121801666D01*
X144966666Y-121868333D01*
X144933333Y-121968333D01*
X144866666Y-122035000D01*
X144800000Y-122068333D01*
X144666666Y-122101666D01*
X144566666Y-122101666D01*
X144433333Y-122068333D01*
X144366666Y-122035000D01*
X144300000Y-121968333D01*
X144266666Y-121868333D01*
X144266666Y-121801666D01*
X144300000Y-121701666D01*
X144333333Y-121668333D01*
X144333333Y-121401666D02*
X144300000Y-121368333D01*
X144266666Y-121301666D01*
X144266666Y-121135000D01*
X144300000Y-121068333D01*
X144333333Y-121035000D01*
X144400000Y-121001666D01*
X144466666Y-121001666D01*
X144566666Y-121035000D01*
X144966666Y-121435000D01*
X144966666Y-121001666D01*
X144266666Y-120568333D02*
X144266666Y-120501666D01*
X144300000Y-120435000D01*
X144333333Y-120401666D01*
X144400000Y-120368333D01*
X144533333Y-120335000D01*
X144700000Y-120335000D01*
X144833333Y-120368333D01*
X144900000Y-120401666D01*
X144933333Y-120435000D01*
X144966666Y-120501666D01*
X144966666Y-120568333D01*
X144933333Y-120635000D01*
X144900000Y-120668333D01*
X144833333Y-120701666D01*
X144700000Y-120735000D01*
X144533333Y-120735000D01*
X144400000Y-120701666D01*
X144333333Y-120668333D01*
X144300000Y-120635000D01*
X144266666Y-120568333D01*
X130668333Y-116200000D02*
X130635000Y-116233333D01*
X130535000Y-116266666D01*
X130468333Y-116266666D01*
X130368333Y-116233333D01*
X130301666Y-116166666D01*
X130268333Y-116100000D01*
X130235000Y-115966666D01*
X130235000Y-115866666D01*
X130268333Y-115733333D01*
X130301666Y-115666666D01*
X130368333Y-115600000D01*
X130468333Y-115566666D01*
X130535000Y-115566666D01*
X130635000Y-115600000D01*
X130668333Y-115633333D01*
X131335000Y-116266666D02*
X130935000Y-116266666D01*
X131135000Y-116266666D02*
X131135000Y-115566666D01*
X131068333Y-115666666D01*
X131001666Y-115733333D01*
X130935000Y-115766666D01*
X131968333Y-115566666D02*
X131635000Y-115566666D01*
X131601666Y-115900000D01*
X131635000Y-115866666D01*
X131701666Y-115833333D01*
X131868333Y-115833333D01*
X131935000Y-115866666D01*
X131968333Y-115900000D01*
X132001666Y-115966666D01*
X132001666Y-116133333D01*
X131968333Y-116200000D01*
X131935000Y-116233333D01*
X131868333Y-116266666D01*
X131701666Y-116266666D01*
X131635000Y-116233333D01*
X131601666Y-116200000D01*
X134931666Y-126900000D02*
X134898333Y-126933333D01*
X134798333Y-126966666D01*
X134731666Y-126966666D01*
X134631666Y-126933333D01*
X134565000Y-126866666D01*
X134531666Y-126800000D01*
X134498333Y-126666666D01*
X134498333Y-126566666D01*
X134531666Y-126433333D01*
X134565000Y-126366666D01*
X134631666Y-126300000D01*
X134731666Y-126266666D01*
X134798333Y-126266666D01*
X134898333Y-126300000D01*
X134931666Y-126333333D01*
X135598333Y-126966666D02*
X135198333Y-126966666D01*
X135398333Y-126966666D02*
X135398333Y-126266666D01*
X135331666Y-126366666D01*
X135265000Y-126433333D01*
X135198333Y-126466666D01*
X135831666Y-126266666D02*
X136298333Y-126266666D01*
X135998333Y-126966666D01*
X133700000Y-133468333D02*
X133733333Y-133501666D01*
X133766666Y-133601666D01*
X133766666Y-133668333D01*
X133733333Y-133768333D01*
X133666666Y-133835000D01*
X133600000Y-133868333D01*
X133466666Y-133901666D01*
X133366666Y-133901666D01*
X133233333Y-133868333D01*
X133166666Y-133835000D01*
X133100000Y-133768333D01*
X133066666Y-133668333D01*
X133066666Y-133601666D01*
X133100000Y-133501666D01*
X133133333Y-133468333D01*
X133766666Y-132801666D02*
X133766666Y-133201666D01*
X133766666Y-133001666D02*
X133066666Y-133001666D01*
X133166666Y-133068333D01*
X133233333Y-133135000D01*
X133266666Y-133201666D01*
X133066666Y-132201666D02*
X133066666Y-132335000D01*
X133100000Y-132401666D01*
X133133333Y-132435000D01*
X133233333Y-132501666D01*
X133366666Y-132535000D01*
X133633333Y-132535000D01*
X133700000Y-132501666D01*
X133733333Y-132468333D01*
X133766666Y-132401666D01*
X133766666Y-132268333D01*
X133733333Y-132201666D01*
X133700000Y-132168333D01*
X133633333Y-132135000D01*
X133466666Y-132135000D01*
X133400000Y-132168333D01*
X133366666Y-132201666D01*
X133333333Y-132268333D01*
X133333333Y-132401666D01*
X133366666Y-132468333D01*
X133400000Y-132501666D01*
X133466666Y-132535000D01*
X130935000Y-113800000D02*
X130901666Y-113833333D01*
X130801666Y-113866666D01*
X130735000Y-113866666D01*
X130635000Y-113833333D01*
X130568333Y-113766666D01*
X130535000Y-113700000D01*
X130501666Y-113566666D01*
X130501666Y-113466666D01*
X130535000Y-113333333D01*
X130568333Y-113266666D01*
X130635000Y-113200000D01*
X130735000Y-113166666D01*
X130801666Y-113166666D01*
X130901666Y-113200000D01*
X130935000Y-113233333D01*
X131168333Y-113166666D02*
X131601666Y-113166666D01*
X131368333Y-113433333D01*
X131468333Y-113433333D01*
X131535000Y-113466666D01*
X131568333Y-113500000D01*
X131601666Y-113566666D01*
X131601666Y-113733333D01*
X131568333Y-113800000D01*
X131535000Y-113833333D01*
X131468333Y-113866666D01*
X131268333Y-113866666D01*
X131201666Y-113833333D01*
X131168333Y-113800000D01*
X163766666Y-124768333D02*
X163433333Y-125001666D01*
X163766666Y-125168333D02*
X163066666Y-125168333D01*
X163066666Y-124901666D01*
X163100000Y-124835000D01*
X163133333Y-124801666D01*
X163200000Y-124768333D01*
X163300000Y-124768333D01*
X163366666Y-124801666D01*
X163400000Y-124835000D01*
X163433333Y-124901666D01*
X163433333Y-125168333D01*
X163133333Y-124501666D02*
X163100000Y-124468333D01*
X163066666Y-124401666D01*
X163066666Y-124235000D01*
X163100000Y-124168333D01*
X163133333Y-124135000D01*
X163200000Y-124101666D01*
X163266666Y-124101666D01*
X163366666Y-124135000D01*
X163766666Y-124535000D01*
X163766666Y-124101666D01*
X163766666Y-123435000D02*
X163766666Y-123835000D01*
X163766666Y-123635000D02*
X163066666Y-123635000D01*
X163166666Y-123701666D01*
X163233333Y-123768333D01*
X163266666Y-123835000D01*
X157166666Y-110931666D02*
X156833333Y-111165000D01*
X157166666Y-111331666D02*
X156466666Y-111331666D01*
X156466666Y-111065000D01*
X156500000Y-110998333D01*
X156533333Y-110965000D01*
X156600000Y-110931666D01*
X156700000Y-110931666D01*
X156766666Y-110965000D01*
X156800000Y-110998333D01*
X156833333Y-111065000D01*
X156833333Y-111331666D01*
X157166666Y-110265000D02*
X157166666Y-110665000D01*
X157166666Y-110465000D02*
X156466666Y-110465000D01*
X156566666Y-110531666D01*
X156633333Y-110598333D01*
X156666666Y-110665000D01*
X156533333Y-109998333D02*
X156500000Y-109965000D01*
X156466666Y-109898333D01*
X156466666Y-109731666D01*
X156500000Y-109665000D01*
X156533333Y-109631666D01*
X156600000Y-109598333D01*
X156666666Y-109598333D01*
X156766666Y-109631666D01*
X157166666Y-110031666D01*
X157166666Y-109598333D01*
X151666666Y-110468333D02*
X151333333Y-110701666D01*
X151666666Y-110868333D02*
X150966666Y-110868333D01*
X150966666Y-110601666D01*
X151000000Y-110535000D01*
X151033333Y-110501666D01*
X151100000Y-110468333D01*
X151200000Y-110468333D01*
X151266666Y-110501666D01*
X151300000Y-110535000D01*
X151333333Y-110601666D01*
X151333333Y-110868333D01*
X150966666Y-109868333D02*
X150966666Y-110001666D01*
X151000000Y-110068333D01*
X151033333Y-110101666D01*
X151133333Y-110168333D01*
X151266666Y-110201666D01*
X151533333Y-110201666D01*
X151600000Y-110168333D01*
X151633333Y-110135000D01*
X151666666Y-110068333D01*
X151666666Y-109935000D01*
X151633333Y-109868333D01*
X151600000Y-109835000D01*
X151533333Y-109801666D01*
X151366666Y-109801666D01*
X151300000Y-109835000D01*
X151266666Y-109868333D01*
X151233333Y-109935000D01*
X151233333Y-110068333D01*
X151266666Y-110135000D01*
X151300000Y-110168333D01*
X151366666Y-110201666D01*
X141135000Y-109166666D02*
X140901666Y-108833333D01*
X140735000Y-109166666D02*
X140735000Y-108466666D01*
X141001666Y-108466666D01*
X141068333Y-108500000D01*
X141101666Y-108533333D01*
X141135000Y-108600000D01*
X141135000Y-108700000D01*
X141101666Y-108766666D01*
X141068333Y-108800000D01*
X141001666Y-108833333D01*
X140735000Y-108833333D01*
X141735000Y-108700000D02*
X141735000Y-109166666D01*
X141568333Y-108433333D02*
X141401666Y-108933333D01*
X141835000Y-108933333D01*
X144931666Y-88566666D02*
X144698333Y-88233333D01*
X144531666Y-88566666D02*
X144531666Y-87866666D01*
X144798333Y-87866666D01*
X144865000Y-87900000D01*
X144898333Y-87933333D01*
X144931666Y-88000000D01*
X144931666Y-88100000D01*
X144898333Y-88166666D01*
X144865000Y-88200000D01*
X144798333Y-88233333D01*
X144531666Y-88233333D01*
X145565000Y-87866666D02*
X145231666Y-87866666D01*
X145198333Y-88200000D01*
X145231666Y-88166666D01*
X145298333Y-88133333D01*
X145465000Y-88133333D01*
X145531666Y-88166666D01*
X145565000Y-88200000D01*
X145598333Y-88266666D01*
X145598333Y-88433333D01*
X145565000Y-88500000D01*
X145531666Y-88533333D01*
X145465000Y-88566666D01*
X145298333Y-88566666D01*
X145231666Y-88533333D01*
X145198333Y-88500000D01*
X147966666Y-81865000D02*
X147633333Y-82098333D01*
X147966666Y-82265000D02*
X147266666Y-82265000D01*
X147266666Y-81998333D01*
X147300000Y-81931666D01*
X147333333Y-81898333D01*
X147400000Y-81865000D01*
X147500000Y-81865000D01*
X147566666Y-81898333D01*
X147600000Y-81931666D01*
X147633333Y-81998333D01*
X147633333Y-82265000D01*
X147966666Y-81198333D02*
X147966666Y-81598333D01*
X147966666Y-81398333D02*
X147266666Y-81398333D01*
X147366666Y-81465000D01*
X147433333Y-81531666D01*
X147466666Y-81598333D01*
X142235000Y-94166666D02*
X142001666Y-93833333D01*
X141835000Y-94166666D02*
X141835000Y-93466666D01*
X142101666Y-93466666D01*
X142168333Y-93500000D01*
X142201666Y-93533333D01*
X142235000Y-93600000D01*
X142235000Y-93700000D01*
X142201666Y-93766666D01*
X142168333Y-93800000D01*
X142101666Y-93833333D01*
X141835000Y-93833333D01*
X142568333Y-94166666D02*
X142701666Y-94166666D01*
X142768333Y-94133333D01*
X142801666Y-94100000D01*
X142868333Y-94000000D01*
X142901666Y-93866666D01*
X142901666Y-93600000D01*
X142868333Y-93533333D01*
X142835000Y-93500000D01*
X142768333Y-93466666D01*
X142635000Y-93466666D01*
X142568333Y-93500000D01*
X142535000Y-93533333D01*
X142501666Y-93600000D01*
X142501666Y-93766666D01*
X142535000Y-93833333D01*
X142568333Y-93866666D01*
X142635000Y-93900000D01*
X142768333Y-93900000D01*
X142835000Y-93866666D01*
X142868333Y-93833333D01*
X142901666Y-93766666D01*
X145966666Y-103068333D02*
X145633333Y-103301666D01*
X145966666Y-103468333D02*
X145266666Y-103468333D01*
X145266666Y-103201666D01*
X145300000Y-103135000D01*
X145333333Y-103101666D01*
X145400000Y-103068333D01*
X145500000Y-103068333D01*
X145566666Y-103101666D01*
X145600000Y-103135000D01*
X145633333Y-103201666D01*
X145633333Y-103468333D01*
X145966666Y-102401666D02*
X145966666Y-102801666D01*
X145966666Y-102601666D02*
X145266666Y-102601666D01*
X145366666Y-102668333D01*
X145433333Y-102735000D01*
X145466666Y-102801666D01*
X145966666Y-101735000D02*
X145966666Y-102135000D01*
X145966666Y-101935000D02*
X145266666Y-101935000D01*
X145366666Y-102001666D01*
X145433333Y-102068333D01*
X145466666Y-102135000D01*
X162631666Y-105566666D02*
X162398333Y-105233333D01*
X162231666Y-105566666D02*
X162231666Y-104866666D01*
X162498333Y-104866666D01*
X162565000Y-104900000D01*
X162598333Y-104933333D01*
X162631666Y-105000000D01*
X162631666Y-105100000D01*
X162598333Y-105166666D01*
X162565000Y-105200000D01*
X162498333Y-105233333D01*
X162231666Y-105233333D01*
X163298333Y-105566666D02*
X162898333Y-105566666D01*
X163098333Y-105566666D02*
X163098333Y-104866666D01*
X163031666Y-104966666D01*
X162965000Y-105033333D01*
X162898333Y-105066666D01*
X163698333Y-105166666D02*
X163631666Y-105133333D01*
X163598333Y-105100000D01*
X163565000Y-105033333D01*
X163565000Y-105000000D01*
X163598333Y-104933333D01*
X163631666Y-104900000D01*
X163698333Y-104866666D01*
X163831666Y-104866666D01*
X163898333Y-104900000D01*
X163931666Y-104933333D01*
X163965000Y-105000000D01*
X163965000Y-105033333D01*
X163931666Y-105100000D01*
X163898333Y-105133333D01*
X163831666Y-105166666D01*
X163698333Y-105166666D01*
X163631666Y-105200000D01*
X163598333Y-105233333D01*
X163565000Y-105300000D01*
X163565000Y-105433333D01*
X163598333Y-105500000D01*
X163631666Y-105533333D01*
X163698333Y-105566666D01*
X163831666Y-105566666D01*
X163898333Y-105533333D01*
X163931666Y-105500000D01*
X163965000Y-105433333D01*
X163965000Y-105300000D01*
X163931666Y-105233333D01*
X163898333Y-105200000D01*
X163831666Y-105166666D01*
X133766666Y-136131666D02*
X133433333Y-136365000D01*
X133766666Y-136531666D02*
X133066666Y-136531666D01*
X133066666Y-136265000D01*
X133100000Y-136198333D01*
X133133333Y-136165000D01*
X133200000Y-136131666D01*
X133300000Y-136131666D01*
X133366666Y-136165000D01*
X133400000Y-136198333D01*
X133433333Y-136265000D01*
X133433333Y-136531666D01*
X133766666Y-135465000D02*
X133766666Y-135865000D01*
X133766666Y-135665000D02*
X133066666Y-135665000D01*
X133166666Y-135731666D01*
X133233333Y-135798333D01*
X133266666Y-135865000D01*
X133066666Y-135231666D02*
X133066666Y-134798333D01*
X133333333Y-135031666D01*
X133333333Y-134931666D01*
X133366666Y-134865000D01*
X133400000Y-134831666D01*
X133466666Y-134798333D01*
X133633333Y-134798333D01*
X133700000Y-134831666D01*
X133733333Y-134865000D01*
X133766666Y-134931666D01*
X133766666Y-135131666D01*
X133733333Y-135198333D01*
X133700000Y-135231666D01*
X149768333Y-88566666D02*
X149535000Y-88233333D01*
X149368333Y-88566666D02*
X149368333Y-87866666D01*
X149635000Y-87866666D01*
X149701666Y-87900000D01*
X149735000Y-87933333D01*
X149768333Y-88000000D01*
X149768333Y-88100000D01*
X149735000Y-88166666D01*
X149701666Y-88200000D01*
X149635000Y-88233333D01*
X149368333Y-88233333D01*
X150435000Y-88566666D02*
X150035000Y-88566666D01*
X150235000Y-88566666D02*
X150235000Y-87866666D01*
X150168333Y-87966666D01*
X150101666Y-88033333D01*
X150035000Y-88066666D01*
X151035000Y-88100000D02*
X151035000Y-88566666D01*
X150868333Y-87833333D02*
X150701666Y-88333333D01*
X151135000Y-88333333D01*
X147531666Y-88566666D02*
X147298333Y-88233333D01*
X147131666Y-88566666D02*
X147131666Y-87866666D01*
X147398333Y-87866666D01*
X147465000Y-87900000D01*
X147498333Y-87933333D01*
X147531666Y-88000000D01*
X147531666Y-88100000D01*
X147498333Y-88166666D01*
X147465000Y-88200000D01*
X147398333Y-88233333D01*
X147131666Y-88233333D01*
X147765000Y-87866666D02*
X148231666Y-87866666D01*
X147931666Y-88566666D01*
X145966666Y-105168333D02*
X145633333Y-105401666D01*
X145966666Y-105568333D02*
X145266666Y-105568333D01*
X145266666Y-105301666D01*
X145300000Y-105235000D01*
X145333333Y-105201666D01*
X145400000Y-105168333D01*
X145500000Y-105168333D01*
X145566666Y-105201666D01*
X145600000Y-105235000D01*
X145633333Y-105301666D01*
X145633333Y-105568333D01*
X145566666Y-104768333D02*
X145533333Y-104835000D01*
X145500000Y-104868333D01*
X145433333Y-104901666D01*
X145400000Y-104901666D01*
X145333333Y-104868333D01*
X145300000Y-104835000D01*
X145266666Y-104768333D01*
X145266666Y-104635000D01*
X145300000Y-104568333D01*
X145333333Y-104535000D01*
X145400000Y-104501666D01*
X145433333Y-104501666D01*
X145500000Y-104535000D01*
X145533333Y-104568333D01*
X145566666Y-104635000D01*
X145566666Y-104768333D01*
X145600000Y-104835000D01*
X145633333Y-104868333D01*
X145700000Y-104901666D01*
X145833333Y-104901666D01*
X145900000Y-104868333D01*
X145933333Y-104835000D01*
X145966666Y-104768333D01*
X145966666Y-104635000D01*
X145933333Y-104568333D01*
X145900000Y-104535000D01*
X145833333Y-104501666D01*
X145700000Y-104501666D01*
X145633333Y-104535000D01*
X145600000Y-104568333D01*
X145566666Y-104635000D01*
X152731666Y-88566666D02*
X152498333Y-88233333D01*
X152331666Y-88566666D02*
X152331666Y-87866666D01*
X152598333Y-87866666D01*
X152665000Y-87900000D01*
X152698333Y-87933333D01*
X152731666Y-88000000D01*
X152731666Y-88100000D01*
X152698333Y-88166666D01*
X152665000Y-88200000D01*
X152598333Y-88233333D01*
X152331666Y-88233333D01*
X152965000Y-87866666D02*
X153398333Y-87866666D01*
X153165000Y-88133333D01*
X153265000Y-88133333D01*
X153331666Y-88166666D01*
X153365000Y-88200000D01*
X153398333Y-88266666D01*
X153398333Y-88433333D01*
X153365000Y-88500000D01*
X153331666Y-88533333D01*
X153265000Y-88566666D01*
X153065000Y-88566666D01*
X152998333Y-88533333D01*
X152965000Y-88500000D01*
X163766666Y-130131666D02*
X163433333Y-130365000D01*
X163766666Y-130531666D02*
X163066666Y-130531666D01*
X163066666Y-130265000D01*
X163100000Y-130198333D01*
X163133333Y-130165000D01*
X163200000Y-130131666D01*
X163300000Y-130131666D01*
X163366666Y-130165000D01*
X163400000Y-130198333D01*
X163433333Y-130265000D01*
X163433333Y-130531666D01*
X163766666Y-129465000D02*
X163766666Y-129865000D01*
X163766666Y-129665000D02*
X163066666Y-129665000D01*
X163166666Y-129731666D01*
X163233333Y-129798333D01*
X163266666Y-129865000D01*
X163066666Y-128831666D02*
X163066666Y-129165000D01*
X163400000Y-129198333D01*
X163366666Y-129165000D01*
X163333333Y-129098333D01*
X163333333Y-128931666D01*
X163366666Y-128865000D01*
X163400000Y-128831666D01*
X163466666Y-128798333D01*
X163633333Y-128798333D01*
X163700000Y-128831666D01*
X163733333Y-128865000D01*
X163766666Y-128931666D01*
X163766666Y-129098333D01*
X163733333Y-129165000D01*
X163700000Y-129198333D01*
X154766666Y-99231666D02*
X154433333Y-99465000D01*
X154766666Y-99631666D02*
X154066666Y-99631666D01*
X154066666Y-99365000D01*
X154100000Y-99298333D01*
X154133333Y-99265000D01*
X154200000Y-99231666D01*
X154300000Y-99231666D01*
X154366666Y-99265000D01*
X154400000Y-99298333D01*
X154433333Y-99365000D01*
X154433333Y-99631666D01*
X154766666Y-98565000D02*
X154766666Y-98965000D01*
X154766666Y-98765000D02*
X154066666Y-98765000D01*
X154166666Y-98831666D01*
X154233333Y-98898333D01*
X154266666Y-98965000D01*
X154066666Y-97965000D02*
X154066666Y-98098333D01*
X154100000Y-98165000D01*
X154133333Y-98198333D01*
X154233333Y-98265000D01*
X154366666Y-98298333D01*
X154633333Y-98298333D01*
X154700000Y-98265000D01*
X154733333Y-98231666D01*
X154766666Y-98165000D01*
X154766666Y-98031666D01*
X154733333Y-97965000D01*
X154700000Y-97931666D01*
X154633333Y-97898333D01*
X154466666Y-97898333D01*
X154400000Y-97931666D01*
X154366666Y-97965000D01*
X154333333Y-98031666D01*
X154333333Y-98165000D01*
X154366666Y-98231666D01*
X154400000Y-98265000D01*
X154466666Y-98298333D01*
X141966666Y-113531666D02*
X141633333Y-113765000D01*
X141966666Y-113931666D02*
X141266666Y-113931666D01*
X141266666Y-113665000D01*
X141300000Y-113598333D01*
X141333333Y-113565000D01*
X141400000Y-113531666D01*
X141500000Y-113531666D01*
X141566666Y-113565000D01*
X141600000Y-113598333D01*
X141633333Y-113665000D01*
X141633333Y-113931666D01*
X141966666Y-112865000D02*
X141966666Y-113265000D01*
X141966666Y-113065000D02*
X141266666Y-113065000D01*
X141366666Y-113131666D01*
X141433333Y-113198333D01*
X141466666Y-113265000D01*
X141266666Y-112631666D02*
X141266666Y-112165000D01*
X141966666Y-112465000D01*
X144866666Y-119131666D02*
X144533333Y-119365000D01*
X144866666Y-119531666D02*
X144166666Y-119531666D01*
X144166666Y-119265000D01*
X144200000Y-119198333D01*
X144233333Y-119165000D01*
X144300000Y-119131666D01*
X144400000Y-119131666D01*
X144466666Y-119165000D01*
X144500000Y-119198333D01*
X144533333Y-119265000D01*
X144533333Y-119531666D01*
X144866666Y-118465000D02*
X144866666Y-118865000D01*
X144866666Y-118665000D02*
X144166666Y-118665000D01*
X144266666Y-118731666D01*
X144333333Y-118798333D01*
X144366666Y-118865000D01*
X144866666Y-118131666D02*
X144866666Y-117998333D01*
X144833333Y-117931666D01*
X144800000Y-117898333D01*
X144700000Y-117831666D01*
X144566666Y-117798333D01*
X144300000Y-117798333D01*
X144233333Y-117831666D01*
X144200000Y-117865000D01*
X144166666Y-117931666D01*
X144166666Y-118065000D01*
X144200000Y-118131666D01*
X144233333Y-118165000D01*
X144300000Y-118198333D01*
X144466666Y-118198333D01*
X144533333Y-118165000D01*
X144566666Y-118131666D01*
X144600000Y-118065000D01*
X144600000Y-117931666D01*
X144566666Y-117865000D01*
X144533333Y-117831666D01*
X144466666Y-117798333D01*
X133766666Y-130768333D02*
X133433333Y-131001666D01*
X133766666Y-131168333D02*
X133066666Y-131168333D01*
X133066666Y-130901666D01*
X133100000Y-130835000D01*
X133133333Y-130801666D01*
X133200000Y-130768333D01*
X133300000Y-130768333D01*
X133366666Y-130801666D01*
X133400000Y-130835000D01*
X133433333Y-130901666D01*
X133433333Y-131168333D01*
X133133333Y-130501666D02*
X133100000Y-130468333D01*
X133066666Y-130401666D01*
X133066666Y-130235000D01*
X133100000Y-130168333D01*
X133133333Y-130135000D01*
X133200000Y-130101666D01*
X133266666Y-130101666D01*
X133366666Y-130135000D01*
X133766666Y-130535000D01*
X133766666Y-130101666D01*
X133066666Y-129468333D02*
X133066666Y-129801666D01*
X133400000Y-129835000D01*
X133366666Y-129801666D01*
X133333333Y-129735000D01*
X133333333Y-129568333D01*
X133366666Y-129501666D01*
X133400000Y-129468333D01*
X133466666Y-129435000D01*
X133633333Y-129435000D01*
X133700000Y-129468333D01*
X133733333Y-129501666D01*
X133766666Y-129568333D01*
X133766666Y-129735000D01*
X133733333Y-129801666D01*
X133700000Y-129835000D01*
X142966666Y-127731666D02*
X142633333Y-127965000D01*
X142966666Y-128131666D02*
X142266666Y-128131666D01*
X142266666Y-127865000D01*
X142300000Y-127798333D01*
X142333333Y-127765000D01*
X142400000Y-127731666D01*
X142500000Y-127731666D01*
X142566666Y-127765000D01*
X142600000Y-127798333D01*
X142633333Y-127865000D01*
X142633333Y-128131666D01*
X142333333Y-127465000D02*
X142300000Y-127431666D01*
X142266666Y-127365000D01*
X142266666Y-127198333D01*
X142300000Y-127131666D01*
X142333333Y-127098333D01*
X142400000Y-127065000D01*
X142466666Y-127065000D01*
X142566666Y-127098333D01*
X142966666Y-127498333D01*
X142966666Y-127065000D01*
X142266666Y-126465000D02*
X142266666Y-126598333D01*
X142300000Y-126665000D01*
X142333333Y-126698333D01*
X142433333Y-126765000D01*
X142566666Y-126798333D01*
X142833333Y-126798333D01*
X142900000Y-126765000D01*
X142933333Y-126731666D01*
X142966666Y-126665000D01*
X142966666Y-126531666D01*
X142933333Y-126465000D01*
X142900000Y-126431666D01*
X142833333Y-126398333D01*
X142666666Y-126398333D01*
X142600000Y-126431666D01*
X142566666Y-126465000D01*
X142533333Y-126531666D01*
X142533333Y-126665000D01*
X142566666Y-126731666D01*
X142600000Y-126765000D01*
X142666666Y-126798333D01*
X152601666Y-119866666D02*
X152601666Y-119166666D01*
X153335000Y-119800000D02*
X153301666Y-119833333D01*
X153201666Y-119866666D01*
X153135000Y-119866666D01*
X153035000Y-119833333D01*
X152968333Y-119766666D01*
X152935000Y-119700000D01*
X152901666Y-119566666D01*
X152901666Y-119466666D01*
X152935000Y-119333333D01*
X152968333Y-119266666D01*
X153035000Y-119200000D01*
X153135000Y-119166666D01*
X153201666Y-119166666D01*
X153301666Y-119200000D01*
X153335000Y-119233333D01*
X153601666Y-119233333D02*
X153635000Y-119200000D01*
X153701666Y-119166666D01*
X153868333Y-119166666D01*
X153935000Y-119200000D01*
X153968333Y-119233333D01*
X154001666Y-119300000D01*
X154001666Y-119366666D01*
X153968333Y-119466666D01*
X153568333Y-119866666D01*
X154001666Y-119866666D01*
X165468333Y-119873333D02*
X165401666Y-119840000D01*
X165335000Y-119773333D01*
X165235000Y-119673333D01*
X165168333Y-119640000D01*
X165101666Y-119640000D01*
X165135000Y-119806666D02*
X165068333Y-119773333D01*
X165001666Y-119706666D01*
X164968333Y-119573333D01*
X164968333Y-119340000D01*
X165001666Y-119206666D01*
X165068333Y-119140000D01*
X165135000Y-119106666D01*
X165268333Y-119106666D01*
X165335000Y-119140000D01*
X165401666Y-119206666D01*
X165435000Y-119340000D01*
X165435000Y-119573333D01*
X165401666Y-119706666D01*
X165335000Y-119773333D01*
X165268333Y-119806666D01*
X165135000Y-119806666D01*
X166035000Y-119340000D02*
X166035000Y-119806666D01*
X165868333Y-119073333D02*
X165701666Y-119573333D01*
X166135000Y-119573333D01*
X135200000Y-109268333D02*
X135233333Y-109301666D01*
X135266666Y-109401666D01*
X135266666Y-109468333D01*
X135233333Y-109568333D01*
X135166666Y-109635000D01*
X135100000Y-109668333D01*
X134966666Y-109701666D01*
X134866666Y-109701666D01*
X134733333Y-109668333D01*
X134666666Y-109635000D01*
X134600000Y-109568333D01*
X134566666Y-109468333D01*
X134566666Y-109401666D01*
X134600000Y-109301666D01*
X134633333Y-109268333D01*
X134566666Y-108635000D02*
X134566666Y-108968333D01*
X134900000Y-109001666D01*
X134866666Y-108968333D01*
X134833333Y-108901666D01*
X134833333Y-108735000D01*
X134866666Y-108668333D01*
X134900000Y-108635000D01*
X134966666Y-108601666D01*
X135133333Y-108601666D01*
X135200000Y-108635000D01*
X135233333Y-108668333D01*
X135266666Y-108735000D01*
X135266666Y-108901666D01*
X135233333Y-108968333D01*
X135200000Y-109001666D01*
X154033333Y-105301666D02*
X154000000Y-105368333D01*
X153933333Y-105435000D01*
X153833333Y-105535000D01*
X153800000Y-105601666D01*
X153800000Y-105668333D01*
X153966666Y-105635000D02*
X153933333Y-105701666D01*
X153866666Y-105768333D01*
X153733333Y-105801666D01*
X153500000Y-105801666D01*
X153366666Y-105768333D01*
X153300000Y-105701666D01*
X153266666Y-105635000D01*
X153266666Y-105501666D01*
X153300000Y-105435000D01*
X153366666Y-105368333D01*
X153500000Y-105335000D01*
X153733333Y-105335000D01*
X153866666Y-105368333D01*
X153933333Y-105435000D01*
X153966666Y-105501666D01*
X153966666Y-105635000D01*
X153266666Y-105101666D02*
X153266666Y-104668333D01*
X153533333Y-104901666D01*
X153533333Y-104801666D01*
X153566666Y-104735000D01*
X153600000Y-104701666D01*
X153666666Y-104668333D01*
X153833333Y-104668333D01*
X153900000Y-104701666D01*
X153933333Y-104735000D01*
X153966666Y-104801666D01*
X153966666Y-105001666D01*
X153933333Y-105068333D01*
X153900000Y-105101666D01*
X130866666Y-91465000D02*
X130166666Y-91465000D01*
X130166666Y-91298333D01*
X130200000Y-91198333D01*
X130266666Y-91131666D01*
X130333333Y-91098333D01*
X130466666Y-91065000D01*
X130566666Y-91065000D01*
X130700000Y-91098333D01*
X130766666Y-91131666D01*
X130833333Y-91198333D01*
X130866666Y-91298333D01*
X130866666Y-91465000D01*
X130466666Y-90665000D02*
X130433333Y-90731666D01*
X130400000Y-90765000D01*
X130333333Y-90798333D01*
X130300000Y-90798333D01*
X130233333Y-90765000D01*
X130200000Y-90731666D01*
X130166666Y-90665000D01*
X130166666Y-90531666D01*
X130200000Y-90465000D01*
X130233333Y-90431666D01*
X130300000Y-90398333D01*
X130333333Y-90398333D01*
X130400000Y-90431666D01*
X130433333Y-90465000D01*
X130466666Y-90531666D01*
X130466666Y-90665000D01*
X130500000Y-90731666D01*
X130533333Y-90765000D01*
X130600000Y-90798333D01*
X130733333Y-90798333D01*
X130800000Y-90765000D01*
X130833333Y-90731666D01*
X130866666Y-90665000D01*
X130866666Y-90531666D01*
X130833333Y-90465000D01*
X130800000Y-90431666D01*
X130733333Y-90398333D01*
X130600000Y-90398333D01*
X130533333Y-90431666D01*
X130500000Y-90465000D01*
X130466666Y-90531666D01*
X148468333Y-93433333D02*
X148401666Y-93400000D01*
X148335000Y-93333333D01*
X148235000Y-93233333D01*
X148168333Y-93200000D01*
X148101666Y-93200000D01*
X148135000Y-93366666D02*
X148068333Y-93333333D01*
X148001666Y-93266666D01*
X147968333Y-93133333D01*
X147968333Y-92900000D01*
X148001666Y-92766666D01*
X148068333Y-92700000D01*
X148135000Y-92666666D01*
X148268333Y-92666666D01*
X148335000Y-92700000D01*
X148401666Y-92766666D01*
X148435000Y-92900000D01*
X148435000Y-93133333D01*
X148401666Y-93266666D01*
X148335000Y-93333333D01*
X148268333Y-93366666D01*
X148135000Y-93366666D01*
X149101666Y-93366666D02*
X148701666Y-93366666D01*
X148901666Y-93366666D02*
X148901666Y-92666666D01*
X148835000Y-92766666D01*
X148768333Y-92833333D01*
X148701666Y-92866666D01*
X143898333Y-135333333D02*
X143998333Y-135366666D01*
X144165000Y-135366666D01*
X144231666Y-135333333D01*
X144265000Y-135300000D01*
X144298333Y-135233333D01*
X144298333Y-135166666D01*
X144265000Y-135100000D01*
X144231666Y-135066666D01*
X144165000Y-135033333D01*
X144031666Y-135000000D01*
X143965000Y-134966666D01*
X143931666Y-134933333D01*
X143898333Y-134866666D01*
X143898333Y-134800000D01*
X143931666Y-134733333D01*
X143965000Y-134700000D01*
X144031666Y-134666666D01*
X144198333Y-134666666D01*
X144298333Y-134700000D01*
X144965000Y-135366666D02*
X144565000Y-135366666D01*
X144765000Y-135366666D02*
X144765000Y-134666666D01*
X144698333Y-134766666D01*
X144631666Y-134833333D01*
X144565000Y-134866666D01*
X135766666Y-97235000D02*
X135766666Y-97568333D01*
X135066666Y-97568333D01*
X135133333Y-97035000D02*
X135100000Y-97001666D01*
X135066666Y-96935000D01*
X135066666Y-96768333D01*
X135100000Y-96701666D01*
X135133333Y-96668333D01*
X135200000Y-96635000D01*
X135266666Y-96635000D01*
X135366666Y-96668333D01*
X135766666Y-97068333D01*
X135766666Y-96635000D01*
X159623778Y-79986689D02*
X159270225Y-80340242D01*
X159175944Y-80387383D01*
X159081663Y-80387383D01*
X158987382Y-80340242D01*
X158940241Y-80293102D01*
X159364505Y-80717366D02*
X159859480Y-80222391D01*
X160048042Y-80410953D01*
X160071612Y-80481664D01*
X160071612Y-80528804D01*
X160048042Y-80599515D01*
X159977331Y-80670226D01*
X159906621Y-80693796D01*
X159859480Y-80693796D01*
X159788769Y-80670226D01*
X159600208Y-80481664D01*
X160118753Y-81471613D02*
X159835910Y-81188770D01*
X159977331Y-81330192D02*
X160472306Y-80835217D01*
X160354455Y-80858787D01*
X160260174Y-80858787D01*
X160189463Y-80835217D01*
X137266666Y-87868333D02*
X136566666Y-87868333D01*
X136566666Y-87701666D01*
X136600000Y-87601666D01*
X136666666Y-87535000D01*
X136733333Y-87501666D01*
X136866666Y-87468333D01*
X136966666Y-87468333D01*
X137100000Y-87501666D01*
X137166666Y-87535000D01*
X137233333Y-87601666D01*
X137266666Y-87701666D01*
X137266666Y-87868333D01*
X136566666Y-86835000D02*
X136566666Y-87168333D01*
X136900000Y-87201666D01*
X136866666Y-87168333D01*
X136833333Y-87101666D01*
X136833333Y-86935000D01*
X136866666Y-86868333D01*
X136900000Y-86835000D01*
X136966666Y-86801666D01*
X137133333Y-86801666D01*
X137200000Y-86835000D01*
X137233333Y-86868333D01*
X137266666Y-86935000D01*
X137266666Y-87101666D01*
X137233333Y-87168333D01*
X137200000Y-87201666D01*
X161500000Y-97168333D02*
X161533333Y-97201666D01*
X161566666Y-97301666D01*
X161566666Y-97368333D01*
X161533333Y-97468333D01*
X161466666Y-97535000D01*
X161400000Y-97568333D01*
X161266666Y-97601666D01*
X161166666Y-97601666D01*
X161033333Y-97568333D01*
X160966666Y-97535000D01*
X160900000Y-97468333D01*
X160866666Y-97368333D01*
X160866666Y-97301666D01*
X160900000Y-97201666D01*
X160933333Y-97168333D01*
X161566666Y-96835000D02*
X161566666Y-96701666D01*
X161533333Y-96635000D01*
X161500000Y-96601666D01*
X161400000Y-96535000D01*
X161266666Y-96501666D01*
X161000000Y-96501666D01*
X160933333Y-96535000D01*
X160900000Y-96568333D01*
X160866666Y-96635000D01*
X160866666Y-96768333D01*
X160900000Y-96835000D01*
X160933333Y-96868333D01*
X161000000Y-96901666D01*
X161166666Y-96901666D01*
X161233333Y-96868333D01*
X161266666Y-96835000D01*
X161300000Y-96768333D01*
X161300000Y-96635000D01*
X161266666Y-96568333D01*
X161233333Y-96535000D01*
X161166666Y-96501666D01*
X167266666Y-95768333D02*
X166566666Y-95768333D01*
X166566666Y-95601666D01*
X166600000Y-95501666D01*
X166666666Y-95435000D01*
X166733333Y-95401666D01*
X166866666Y-95368333D01*
X166966666Y-95368333D01*
X167100000Y-95401666D01*
X167166666Y-95435000D01*
X167233333Y-95501666D01*
X167266666Y-95601666D01*
X167266666Y-95768333D01*
X166633333Y-95101666D02*
X166600000Y-95068333D01*
X166566666Y-95001666D01*
X166566666Y-94835000D01*
X166600000Y-94768333D01*
X166633333Y-94735000D01*
X166700000Y-94701666D01*
X166766666Y-94701666D01*
X166866666Y-94735000D01*
X167266666Y-95135000D01*
X167266666Y-94701666D01*
X135835000Y-93166666D02*
X135835000Y-92466666D01*
X136001666Y-92466666D01*
X136101666Y-92500000D01*
X136168333Y-92566666D01*
X136201666Y-92633333D01*
X136235000Y-92766666D01*
X136235000Y-92866666D01*
X136201666Y-93000000D01*
X136168333Y-93066666D01*
X136101666Y-93133333D01*
X136001666Y-93166666D01*
X135835000Y-93166666D01*
X136468333Y-92466666D02*
X136901666Y-92466666D01*
X136668333Y-92733333D01*
X136768333Y-92733333D01*
X136835000Y-92766666D01*
X136868333Y-92800000D01*
X136901666Y-92866666D01*
X136901666Y-93033333D01*
X136868333Y-93100000D01*
X136835000Y-93133333D01*
X136768333Y-93166666D01*
X136568333Y-93166666D01*
X136501666Y-93133333D01*
X136468333Y-93100000D01*
X132935000Y-102966666D02*
X132935000Y-102266666D01*
X133101666Y-102266666D01*
X133201666Y-102300000D01*
X133268333Y-102366666D01*
X133301666Y-102433333D01*
X133335000Y-102566666D01*
X133335000Y-102666666D01*
X133301666Y-102800000D01*
X133268333Y-102866666D01*
X133201666Y-102933333D01*
X133101666Y-102966666D01*
X132935000Y-102966666D01*
X133935000Y-102500000D02*
X133935000Y-102966666D01*
X133768333Y-102233333D02*
X133601666Y-102733333D01*
X134035000Y-102733333D01*
X143701666Y-108066666D02*
X144101666Y-108066666D01*
X143901666Y-108766666D02*
X143901666Y-108066666D01*
X144701666Y-108766666D02*
X144301666Y-108766666D01*
X144501666Y-108766666D02*
X144501666Y-108066666D01*
X144435000Y-108166666D01*
X144368333Y-108233333D01*
X144301666Y-108266666D01*
X138831666Y-102866666D02*
X138831666Y-102166666D01*
X138998333Y-102166666D01*
X139098333Y-102200000D01*
X139165000Y-102266666D01*
X139198333Y-102333333D01*
X139231666Y-102466666D01*
X139231666Y-102566666D01*
X139198333Y-102700000D01*
X139165000Y-102766666D01*
X139098333Y-102833333D01*
X138998333Y-102866666D01*
X138831666Y-102866666D01*
X139898333Y-102866666D02*
X139498333Y-102866666D01*
X139698333Y-102866666D02*
X139698333Y-102166666D01*
X139631666Y-102266666D01*
X139565000Y-102333333D01*
X139498333Y-102366666D01*
X140331666Y-102166666D02*
X140398333Y-102166666D01*
X140465000Y-102200000D01*
X140498333Y-102233333D01*
X140531666Y-102300000D01*
X140565000Y-102433333D01*
X140565000Y-102600000D01*
X140531666Y-102733333D01*
X140498333Y-102800000D01*
X140465000Y-102833333D01*
X140398333Y-102866666D01*
X140331666Y-102866666D01*
X140265000Y-102833333D01*
X140231666Y-102800000D01*
X140198333Y-102733333D01*
X140165000Y-102600000D01*
X140165000Y-102433333D01*
X140198333Y-102300000D01*
X140231666Y-102233333D01*
X140265000Y-102200000D01*
X140331666Y-102166666D01*
X160535000Y-95266666D02*
X160535000Y-94566666D01*
X160701666Y-94566666D01*
X160801666Y-94600000D01*
X160868333Y-94666666D01*
X160901666Y-94733333D01*
X160935000Y-94866666D01*
X160935000Y-94966666D01*
X160901666Y-95100000D01*
X160868333Y-95166666D01*
X160801666Y-95233333D01*
X160701666Y-95266666D01*
X160535000Y-95266666D01*
X161535000Y-94566666D02*
X161401666Y-94566666D01*
X161335000Y-94600000D01*
X161301666Y-94633333D01*
X161235000Y-94733333D01*
X161201666Y-94866666D01*
X161201666Y-95133333D01*
X161235000Y-95200000D01*
X161268333Y-95233333D01*
X161335000Y-95266666D01*
X161468333Y-95266666D01*
X161535000Y-95233333D01*
X161568333Y-95200000D01*
X161601666Y-95133333D01*
X161601666Y-94966666D01*
X161568333Y-94900000D01*
X161535000Y-94866666D01*
X161468333Y-94833333D01*
X161335000Y-94833333D01*
X161268333Y-94866666D01*
X161235000Y-94900000D01*
X161201666Y-94966666D01*
X143735000Y-115066666D02*
X143735000Y-114366666D01*
X143901666Y-114366666D01*
X144001666Y-114400000D01*
X144068333Y-114466666D01*
X144101666Y-114533333D01*
X144135000Y-114666666D01*
X144135000Y-114766666D01*
X144101666Y-114900000D01*
X144068333Y-114966666D01*
X144001666Y-115033333D01*
X143901666Y-115066666D01*
X143735000Y-115066666D01*
X144368333Y-114366666D02*
X144835000Y-114366666D01*
X144535000Y-115066666D01*
X137631666Y-126766666D02*
X137631666Y-126066666D01*
X138365000Y-126700000D02*
X138331666Y-126733333D01*
X138231666Y-126766666D01*
X138165000Y-126766666D01*
X138065000Y-126733333D01*
X137998333Y-126666666D01*
X137965000Y-126600000D01*
X137931666Y-126466666D01*
X137931666Y-126366666D01*
X137965000Y-126233333D01*
X137998333Y-126166666D01*
X138065000Y-126100000D01*
X138165000Y-126066666D01*
X138231666Y-126066666D01*
X138331666Y-126100000D01*
X138365000Y-126133333D01*
X138598333Y-126066666D02*
X139031666Y-126066666D01*
X138798333Y-126333333D01*
X138898333Y-126333333D01*
X138965000Y-126366666D01*
X138998333Y-126400000D01*
X139031666Y-126466666D01*
X139031666Y-126633333D01*
X138998333Y-126700000D01*
X138965000Y-126733333D01*
X138898333Y-126766666D01*
X138698333Y-126766666D01*
X138631666Y-126733333D01*
X138598333Y-126700000D01*
X132301666Y-121366666D02*
X131968333Y-121366666D01*
X131968333Y-120666666D01*
X132468333Y-120666666D02*
X132901666Y-120666666D01*
X132668333Y-120933333D01*
X132768333Y-120933333D01*
X132835000Y-120966666D01*
X132868333Y-121000000D01*
X132901666Y-121066666D01*
X132901666Y-121233333D01*
X132868333Y-121300000D01*
X132835000Y-121333333D01*
X132768333Y-121366666D01*
X132568333Y-121366666D01*
X132501666Y-121333333D01*
X132468333Y-121300000D01*
X139935000Y-121700000D02*
X139901666Y-121733333D01*
X139801666Y-121766666D01*
X139735000Y-121766666D01*
X139635000Y-121733333D01*
X139568333Y-121666666D01*
X139535000Y-121600000D01*
X139501666Y-121466666D01*
X139501666Y-121366666D01*
X139535000Y-121233333D01*
X139568333Y-121166666D01*
X139635000Y-121100000D01*
X139735000Y-121066666D01*
X139801666Y-121066666D01*
X139901666Y-121100000D01*
X139935000Y-121133333D01*
X140168333Y-121066666D02*
X140635000Y-121066666D01*
X140335000Y-121766666D01*
X135631666Y-121166666D02*
X135631666Y-120466666D01*
X135798333Y-120466666D01*
X135898333Y-120500000D01*
X135965000Y-120566666D01*
X135998333Y-120633333D01*
X136031666Y-120766666D01*
X136031666Y-120866666D01*
X135998333Y-121000000D01*
X135965000Y-121066666D01*
X135898333Y-121133333D01*
X135798333Y-121166666D01*
X135631666Y-121166666D01*
X136698333Y-121166666D02*
X136298333Y-121166666D01*
X136498333Y-121166666D02*
X136498333Y-120466666D01*
X136431666Y-120566666D01*
X136365000Y-120633333D01*
X136298333Y-120666666D01*
X137131666Y-120466666D02*
X137198333Y-120466666D01*
X137265000Y-120500000D01*
X137298333Y-120533333D01*
X137331666Y-120600000D01*
X137365000Y-120733333D01*
X137365000Y-120900000D01*
X137331666Y-121033333D01*
X137298333Y-121100000D01*
X137265000Y-121133333D01*
X137198333Y-121166666D01*
X137131666Y-121166666D01*
X137065000Y-121133333D01*
X137031666Y-121100000D01*
X136998333Y-121033333D01*
X136965000Y-120900000D01*
X136965000Y-120733333D01*
X136998333Y-120600000D01*
X137031666Y-120533333D01*
X137065000Y-120500000D01*
X137131666Y-120466666D01*
X137798333Y-120466666D02*
X137865000Y-120466666D01*
X137931666Y-120500000D01*
X137965000Y-120533333D01*
X137998333Y-120600000D01*
X138031666Y-120733333D01*
X138031666Y-120900000D01*
X137998333Y-121033333D01*
X137965000Y-121100000D01*
X137931666Y-121133333D01*
X137865000Y-121166666D01*
X137798333Y-121166666D01*
X137731666Y-121133333D01*
X137698333Y-121100000D01*
X137665000Y-121033333D01*
X137631666Y-120900000D01*
X137631666Y-120733333D01*
X137665000Y-120600000D01*
X137698333Y-120533333D01*
X137731666Y-120500000D01*
X137798333Y-120466666D01*
D11*
X134828571Y-141928571D02*
X134495238Y-141928571D01*
X134495238Y-142452380D02*
X134495238Y-141452380D01*
X134971428Y-141452380D01*
X135352380Y-142452380D02*
X135352380Y-141452380D01*
X136352380Y-142452380D02*
X135780952Y-142452380D01*
X136066666Y-142452380D02*
X136066666Y-141452380D01*
X135971428Y-141595238D01*
X135876190Y-141690476D01*
X135780952Y-141738095D01*
%LPC*%
D23*
X205000000Y-68000000D03*
X132000000Y-68000000D03*
X205000000Y-142000000D03*
D24*
X175200000Y-128000000D03*
X175200000Y-125200000D03*
D25*
X183200000Y-121200000D03*
X186000000Y-121200000D03*
X193800000Y-129800000D03*
X191000000Y-129800000D03*
X202000000Y-127000000D03*
X204800000Y-127000000D03*
X200400000Y-120600000D03*
X203200000Y-120600000D03*
X173200000Y-116200000D03*
X176000000Y-116200000D03*
X173200000Y-113800000D03*
X176000000Y-113800000D03*
D26*
X178300000Y-91200000D03*
X174900000Y-91200000D03*
D27*
X183178000Y-118600000D03*
X186022000Y-118600000D03*
X174822000Y-130400000D03*
X171978000Y-130400000D03*
D28*
X190200000Y-89622000D03*
X190200000Y-86778000D03*
X187600000Y-86778000D03*
X187600000Y-89622000D03*
D24*
X200400000Y-118000000D03*
X200400000Y-115200000D03*
D28*
X177600000Y-132178000D03*
X177600000Y-135022000D03*
X203000000Y-103778000D03*
X203000000Y-106622000D03*
D27*
X171978000Y-135600000D03*
X174822000Y-135600000D03*
D28*
X185000000Y-86778000D03*
X185000000Y-89622000D03*
D27*
X189022000Y-81800000D03*
X186178000Y-81800000D03*
X204822000Y-129600000D03*
X201978000Y-129600000D03*
D28*
X192800000Y-89622000D03*
X192800000Y-86778000D03*
D29*
X196899000Y-105200000D03*
D30*
X190701200Y-107511400D03*
X190701200Y-105200000D03*
X190701200Y-102888600D03*
D27*
X201978000Y-124400000D03*
X204822000Y-124400000D03*
D28*
X182400000Y-95222000D03*
X182400000Y-92378000D03*
D27*
X198222000Y-110400000D03*
X195378000Y-110400000D03*
X189978000Y-110400000D03*
X192822000Y-110400000D03*
D31*
X204057379Y-88143728D03*
X202261328Y-89939779D03*
X202261328Y-86347677D03*
X200465277Y-88143728D03*
X200465277Y-84551626D03*
X198669226Y-86347677D03*
X198669226Y-82755574D03*
X196873174Y-84551626D03*
X196873174Y-80959523D03*
X195077123Y-82755574D03*
X195077123Y-79163472D03*
X193281072Y-80959523D03*
X193281072Y-77367421D03*
X191485021Y-79163472D03*
D27*
X195822000Y-98800000D03*
X192978000Y-98800000D03*
D32*
X180200000Y-119900000D03*
X180200000Y-122900000D03*
D33*
X172000000Y-109000000D03*
X177600000Y-109000000D03*
D34*
X190200000Y-92300000D03*
X191150000Y-94500000D03*
X189250000Y-94500000D03*
D24*
X182400000Y-86800000D03*
X182400000Y-89600000D03*
D26*
X181300000Y-104000000D03*
X177900000Y-104000000D03*
X171700000Y-104000000D03*
X175100000Y-104000000D03*
D35*
X176800000Y-122800000D03*
X176800000Y-118800000D03*
D36*
X199222000Y-97000000D03*
X202778000Y-97000000D03*
D24*
X200400000Y-103800000D03*
X200400000Y-106600000D03*
D27*
X184178000Y-105200000D03*
X187022000Y-105200000D03*
D37*
X187651200Y-136260600D03*
X187651200Y-131739400D03*
X181148800Y-136260600D03*
X181148800Y-131739400D03*
D38*
X174970000Y-87400000D03*
X179040000Y-87400000D03*
D39*
X177250000Y-127550000D03*
X178200000Y-127550000D03*
X179150000Y-127550000D03*
X179150000Y-125250000D03*
X178200000Y-125250000D03*
X177250000Y-125250000D03*
D40*
X197500000Y-122550000D03*
X197500000Y-122050000D03*
X197500000Y-121550000D03*
X197500000Y-121050000D03*
X197500000Y-120550000D03*
X197500000Y-120050000D03*
X197500000Y-119550000D03*
X197500000Y-119050000D03*
X197500000Y-118550000D03*
X197500000Y-118050000D03*
X197500000Y-117550000D03*
X197500000Y-117050000D03*
D41*
X195950000Y-115500000D03*
X195450000Y-115500000D03*
X194950000Y-115500000D03*
X194450000Y-115500000D03*
X193950000Y-115500000D03*
X193450000Y-115500000D03*
X192950000Y-115500000D03*
X192450000Y-115500000D03*
X191950000Y-115500000D03*
X191450000Y-115500000D03*
X190950000Y-115500000D03*
X190450000Y-115500000D03*
D40*
X188900000Y-117050000D03*
X188900000Y-117550000D03*
X188900000Y-118050000D03*
X188900000Y-118550000D03*
X188900000Y-119050000D03*
X188900000Y-119550000D03*
X188900000Y-120050000D03*
X188900000Y-120550000D03*
X188900000Y-121050000D03*
X188900000Y-121550000D03*
X188900000Y-122050000D03*
X188900000Y-122550000D03*
D41*
X190450000Y-124100000D03*
X190950000Y-124100000D03*
X191450000Y-124100000D03*
X191950000Y-124100000D03*
X192450000Y-124100000D03*
X192950000Y-124100000D03*
X193450000Y-124100000D03*
X193950000Y-124100000D03*
X194450000Y-124100000D03*
X194950000Y-124100000D03*
X195450000Y-124100000D03*
X195950000Y-124100000D03*
D42*
X175200000Y-94500000D03*
X175200000Y-99500000D03*
D43*
X205600000Y-93500000D03*
X205600000Y-96900000D03*
D44*
X200801200Y-132803600D03*
X200801200Y-134803600D03*
X198801200Y-132803600D03*
X198801200Y-134803600D03*
X196801200Y-132803600D03*
X196801200Y-134803600D03*
X194801200Y-132803600D03*
X194801200Y-134803600D03*
X192801200Y-132803600D03*
D45*
X192801200Y-134803600D03*
D46*
X172400000Y-123025000D03*
X172400000Y-118975000D03*
D26*
X182600000Y-116000000D03*
X186000000Y-116000000D03*
D47*
X185900000Y-110750000D03*
X185900000Y-108850000D03*
X183700000Y-109800000D03*
D25*
X172000000Y-133000000D03*
X174800000Y-133000000D03*
D27*
X187022000Y-102600000D03*
X184178000Y-102600000D03*
D28*
X181200000Y-110222000D03*
X181200000Y-107378000D03*
D25*
X193800000Y-127000000D03*
X191000000Y-127000000D03*
X203400000Y-110400000D03*
X200600000Y-110400000D03*
D43*
X172000000Y-92700000D03*
X172000000Y-89300000D03*
D48*
X205450000Y-115450000D03*
X202950000Y-115450000D03*
X202950000Y-117750000D03*
X205450000Y-117750000D03*
D49*
X179875000Y-80400000D03*
X174125000Y-80400000D03*
D27*
X180178000Y-113000000D03*
X183022000Y-113000000D03*
X184022000Y-127200000D03*
X181178000Y-127200000D03*
D25*
X205600000Y-113000000D03*
X202800000Y-113000000D03*
D26*
X202700000Y-93400000D03*
X199300000Y-93400000D03*
D25*
X164800000Y-127000000D03*
X162000000Y-127000000D03*
D24*
X142400000Y-89600000D03*
X142400000Y-86800000D03*
D25*
X151000000Y-127000000D03*
X153800000Y-127000000D03*
X160600000Y-110400000D03*
X163400000Y-110400000D03*
D24*
X160400000Y-106600000D03*
X160400000Y-103800000D03*
D25*
X151000000Y-129800000D03*
X153800000Y-129800000D03*
D24*
X160400000Y-115200000D03*
X160400000Y-118000000D03*
D25*
X163200000Y-120600000D03*
X160400000Y-120600000D03*
X162800000Y-113000000D03*
X165600000Y-113000000D03*
X146000000Y-121200000D03*
X143200000Y-121200000D03*
X136000000Y-116200000D03*
X133200000Y-116200000D03*
D24*
X135200000Y-125200000D03*
X135200000Y-128000000D03*
D25*
X134800000Y-133000000D03*
X132000000Y-133000000D03*
X136000000Y-113800000D03*
X133200000Y-113800000D03*
D27*
X164822000Y-124400000D03*
X161978000Y-124400000D03*
X155378000Y-110400000D03*
X158222000Y-110400000D03*
X152822000Y-110400000D03*
X149978000Y-110400000D03*
D28*
X141200000Y-107378000D03*
X141200000Y-110222000D03*
X145000000Y-89622000D03*
X145000000Y-86778000D03*
D27*
X146178000Y-81800000D03*
X149022000Y-81800000D03*
D28*
X142400000Y-92378000D03*
X142400000Y-95222000D03*
D27*
X144178000Y-102600000D03*
X147022000Y-102600000D03*
D28*
X163000000Y-106622000D03*
X163000000Y-103778000D03*
D27*
X134822000Y-135600000D03*
X131978000Y-135600000D03*
D28*
X150200000Y-86778000D03*
X150200000Y-89622000D03*
X147600000Y-89622000D03*
X147600000Y-86778000D03*
D27*
X147022000Y-105200000D03*
X144178000Y-105200000D03*
D28*
X152800000Y-86778000D03*
X152800000Y-89622000D03*
D27*
X161978000Y-129600000D03*
X164822000Y-129600000D03*
X152978000Y-98800000D03*
X155822000Y-98800000D03*
X143022000Y-113000000D03*
X140178000Y-113000000D03*
X146022000Y-118600000D03*
X143178000Y-118600000D03*
X131978000Y-130400000D03*
X134822000Y-130400000D03*
X141178000Y-127200000D03*
X144022000Y-127200000D03*
D28*
X137600000Y-135022000D03*
X137600000Y-132178000D03*
D41*
X155950000Y-124100000D03*
X155450000Y-124100000D03*
X154950000Y-124100000D03*
X154450000Y-124100000D03*
X153950000Y-124100000D03*
X153450000Y-124100000D03*
X152950000Y-124100000D03*
X152450000Y-124100000D03*
X151950000Y-124100000D03*
X151450000Y-124100000D03*
X150950000Y-124100000D03*
X150450000Y-124100000D03*
D40*
X148900000Y-122550000D03*
X148900000Y-122050000D03*
X148900000Y-121550000D03*
X148900000Y-121050000D03*
X148900000Y-120550000D03*
X148900000Y-120050000D03*
X148900000Y-119550000D03*
X148900000Y-119050000D03*
X148900000Y-118550000D03*
X148900000Y-118050000D03*
X148900000Y-117550000D03*
X148900000Y-117050000D03*
D41*
X150450000Y-115500000D03*
X150950000Y-115500000D03*
X151450000Y-115500000D03*
X151950000Y-115500000D03*
X152450000Y-115500000D03*
X152950000Y-115500000D03*
X153450000Y-115500000D03*
X153950000Y-115500000D03*
X154450000Y-115500000D03*
X154950000Y-115500000D03*
X155450000Y-115500000D03*
X155950000Y-115500000D03*
D40*
X157500000Y-117050000D03*
X157500000Y-117550000D03*
X157500000Y-118050000D03*
X157500000Y-118550000D03*
X157500000Y-119050000D03*
X157500000Y-119550000D03*
X157500000Y-120050000D03*
X157500000Y-120550000D03*
X157500000Y-121050000D03*
X157500000Y-121550000D03*
X157500000Y-122050000D03*
X157500000Y-122550000D03*
D48*
X165450000Y-117750000D03*
X162950000Y-117750000D03*
X162950000Y-115450000D03*
X165450000Y-115450000D03*
D33*
X137600000Y-109000000D03*
X132000000Y-109000000D03*
D30*
X150701200Y-102888600D03*
X150701200Y-105200000D03*
X150701200Y-107511400D03*
D29*
X156899000Y-105200000D03*
D43*
X132000000Y-89300000D03*
X132000000Y-92700000D03*
D34*
X149250000Y-94500000D03*
X151150000Y-94500000D03*
X150200000Y-92300000D03*
D37*
X141148800Y-131739400D03*
X141148800Y-136260600D03*
X147651200Y-131739400D03*
X147651200Y-136260600D03*
D42*
X135200000Y-99500000D03*
X135200000Y-94500000D03*
D31*
X151485021Y-79163472D03*
X153281072Y-77367421D03*
X153281072Y-80959523D03*
X155077123Y-79163472D03*
X155077123Y-82755574D03*
X156873174Y-80959523D03*
X156873174Y-84551626D03*
X158669226Y-82755574D03*
X158669226Y-86347677D03*
X160465277Y-84551626D03*
X160465277Y-88143728D03*
X162261328Y-86347677D03*
X162261328Y-89939779D03*
X164057379Y-88143728D03*
D38*
X139040000Y-87400000D03*
X134970000Y-87400000D03*
D36*
X162778000Y-97000000D03*
X159222000Y-97000000D03*
D49*
X134125000Y-80400000D03*
X139875000Y-80400000D03*
D43*
X165600000Y-96900000D03*
X165600000Y-93500000D03*
D26*
X134900000Y-91200000D03*
X138300000Y-91200000D03*
X135100000Y-104000000D03*
X131700000Y-104000000D03*
D47*
X143700000Y-109800000D03*
X145900000Y-108850000D03*
X145900000Y-110750000D03*
D26*
X137900000Y-104000000D03*
X141300000Y-104000000D03*
X159300000Y-93400000D03*
X162700000Y-93400000D03*
D45*
X152801200Y-134803600D03*
D44*
X152801200Y-132803600D03*
X154801200Y-134803600D03*
X154801200Y-132803600D03*
X156801200Y-134803600D03*
X156801200Y-132803600D03*
X158801200Y-134803600D03*
X158801200Y-132803600D03*
X160801200Y-134803600D03*
X160801200Y-132803600D03*
D26*
X146000000Y-116000000D03*
X142600000Y-116000000D03*
D39*
X137250000Y-125250000D03*
X138200000Y-125250000D03*
X139150000Y-125250000D03*
X139150000Y-127550000D03*
X138200000Y-127550000D03*
X137250000Y-127550000D03*
D46*
X132400000Y-118975000D03*
X132400000Y-123025000D03*
D32*
X140200000Y-122900000D03*
X140200000Y-119900000D03*
D35*
X136800000Y-118800000D03*
X136800000Y-122800000D03*
D23*
X132000000Y-142000000D03*
M02*
