G04 #@! TF.GenerationSoftware,KiCad,Pcbnew,5.0.0-rc2-dev-unknown-9f5316e~63~ubuntu16.04.1*
G04 #@! TF.CreationDate,2018-04-30T23:34:32+02:00*
G04 #@! TF.ProjectId,Rauchmelder_3.6_panelized,52617563686D656C64657220332E365F,rev?*
G04 #@! TF.SameCoordinates,Original*
G04 #@! TF.FileFunction,Soldermask,Top*
G04 #@! TF.FilePolarity,Negative*
%FSLAX46Y46*%
G04 Gerber Fmt 4.6, Leading zero omitted, Abs format (unit mm)*
G04 Created by KiCad (PCBNEW 5.0.0-rc2-dev-unknown-9f5316e~63~ubuntu16.04.1) date Mon Apr 30 23:34:32 2018*
%MOMM*%
%LPD*%
G01*
G04 APERTURE LIST*
%ADD10C,2.540000*%
%ADD11R,2.003200X1.803200*%
%ADD12R,1.803200X2.003200*%
%ADD13R,1.603200X2.003200*%
%ADD14R,1.803200X2.006200*%
%ADD15R,2.006200X1.803200*%
%ADD16R,2.403200X3.803200*%
%ADD17R,2.438400X1.422400*%
%ADD18C,1.778000*%
%ADD19R,2.203200X1.703200*%
%ADD20R,3.703200X1.803200*%
%ADD21R,1.203200X1.603200*%
%ADD22R,2.203200X2.203200*%
%ADD23C,1.803400*%
%ADD24O,3.352800X1.778000*%
%ADD25R,1.983200X2.363200*%
%ADD26R,0.803200X1.103200*%
%ADD27R,1.703200X0.453200*%
%ADD28R,0.453200X1.703200*%
%ADD29O,3.120800X1.662000*%
%ADD30R,2.003200X1.603200*%
%ADD31C,1.676400*%
%ADD32R,1.676400X1.676400*%
%ADD33R,3.803200X2.703200*%
%ADD34R,1.603200X1.203200*%
%ADD35R,1.803200X1.703200*%
%ADD36O,2.153200X4.103200*%
G04 APERTURE END LIST*
D10*
X205000000Y-68000000D03*
X132000000Y-68000000D03*
X205000000Y-142000000D03*
D11*
X175200000Y-128000000D03*
X175200000Y-125200000D03*
D12*
X183200000Y-121200000D03*
X186000000Y-121200000D03*
X193800000Y-129800000D03*
X191000000Y-129800000D03*
X202000000Y-127000000D03*
X204800000Y-127000000D03*
X200400000Y-120600000D03*
X203200000Y-120600000D03*
X173200000Y-116200000D03*
X176000000Y-116200000D03*
X173200000Y-113800000D03*
X176000000Y-113800000D03*
D13*
X178300000Y-91200000D03*
X174900000Y-91200000D03*
D14*
X183178000Y-118600000D03*
X186022000Y-118600000D03*
X174822000Y-130400000D03*
X171978000Y-130400000D03*
D15*
X190200000Y-89622000D03*
X190200000Y-86778000D03*
X187600000Y-86778000D03*
X187600000Y-89622000D03*
D11*
X200400000Y-118000000D03*
X200400000Y-115200000D03*
D15*
X177600000Y-132178000D03*
X177600000Y-135022000D03*
X203000000Y-103778000D03*
X203000000Y-106622000D03*
D14*
X171978000Y-135600000D03*
X174822000Y-135600000D03*
D15*
X185000000Y-86778000D03*
X185000000Y-89622000D03*
D14*
X189022000Y-81800000D03*
X186178000Y-81800000D03*
X204822000Y-129600000D03*
X201978000Y-129600000D03*
D15*
X192800000Y-89622000D03*
X192800000Y-86778000D03*
D16*
X196899000Y-105200000D03*
D17*
X190701200Y-107511400D03*
X190701200Y-105200000D03*
X190701200Y-102888600D03*
D14*
X201978000Y-124400000D03*
X204822000Y-124400000D03*
D15*
X182400000Y-95222000D03*
X182400000Y-92378000D03*
D14*
X198222000Y-110400000D03*
X195378000Y-110400000D03*
X189978000Y-110400000D03*
X192822000Y-110400000D03*
D18*
X204057379Y-88143728D03*
X202261328Y-89939779D03*
X202261328Y-86347677D03*
X200465277Y-88143728D03*
X200465277Y-84551626D03*
X198669226Y-86347677D03*
X198669226Y-82755574D03*
X196873174Y-84551626D03*
X196873174Y-80959523D03*
X195077123Y-82755574D03*
X195077123Y-79163472D03*
X193281072Y-80959523D03*
X193281072Y-77367421D03*
X191485021Y-79163472D03*
D14*
X195822000Y-98800000D03*
X192978000Y-98800000D03*
D19*
X180200000Y-119900000D03*
X180200000Y-122900000D03*
D20*
X172000000Y-109000000D03*
X177600000Y-109000000D03*
D21*
X190200000Y-92300000D03*
X191150000Y-94500000D03*
X189250000Y-94500000D03*
D11*
X182400000Y-86800000D03*
X182400000Y-89600000D03*
D13*
X181300000Y-104000000D03*
X177900000Y-104000000D03*
X171700000Y-104000000D03*
X175100000Y-104000000D03*
D22*
X176800000Y-122800000D03*
X176800000Y-118800000D03*
D23*
X199222000Y-97000000D03*
X202778000Y-97000000D03*
D11*
X200400000Y-103800000D03*
X200400000Y-106600000D03*
D14*
X184178000Y-105200000D03*
X187022000Y-105200000D03*
D24*
X187651200Y-136260600D03*
X187651200Y-131739400D03*
X181148800Y-136260600D03*
X181148800Y-131739400D03*
D25*
X174970000Y-87400000D03*
X179040000Y-87400000D03*
D26*
X177250000Y-127550000D03*
X178200000Y-127550000D03*
X179150000Y-127550000D03*
X179150000Y-125250000D03*
X178200000Y-125250000D03*
X177250000Y-125250000D03*
D27*
X197500000Y-122550000D03*
X197500000Y-122050000D03*
X197500000Y-121550000D03*
X197500000Y-121050000D03*
X197500000Y-120550000D03*
X197500000Y-120050000D03*
X197500000Y-119550000D03*
X197500000Y-119050000D03*
X197500000Y-118550000D03*
X197500000Y-118050000D03*
X197500000Y-117550000D03*
X197500000Y-117050000D03*
D28*
X195950000Y-115500000D03*
X195450000Y-115500000D03*
X194950000Y-115500000D03*
X194450000Y-115500000D03*
X193950000Y-115500000D03*
X193450000Y-115500000D03*
X192950000Y-115500000D03*
X192450000Y-115500000D03*
X191950000Y-115500000D03*
X191450000Y-115500000D03*
X190950000Y-115500000D03*
X190450000Y-115500000D03*
D27*
X188900000Y-117050000D03*
X188900000Y-117550000D03*
X188900000Y-118050000D03*
X188900000Y-118550000D03*
X188900000Y-119050000D03*
X188900000Y-119550000D03*
X188900000Y-120050000D03*
X188900000Y-120550000D03*
X188900000Y-121050000D03*
X188900000Y-121550000D03*
X188900000Y-122050000D03*
X188900000Y-122550000D03*
D28*
X190450000Y-124100000D03*
X190950000Y-124100000D03*
X191450000Y-124100000D03*
X191950000Y-124100000D03*
X192450000Y-124100000D03*
X192950000Y-124100000D03*
X193450000Y-124100000D03*
X193950000Y-124100000D03*
X194450000Y-124100000D03*
X194950000Y-124100000D03*
X195450000Y-124100000D03*
X195950000Y-124100000D03*
D29*
X175200000Y-94500000D03*
X175200000Y-99500000D03*
D30*
X205600000Y-93500000D03*
X205600000Y-96900000D03*
D31*
X200801200Y-132803600D03*
X200801200Y-134803600D03*
X198801200Y-132803600D03*
X198801200Y-134803600D03*
X196801200Y-132803600D03*
X196801200Y-134803600D03*
X194801200Y-132803600D03*
X194801200Y-134803600D03*
X192801200Y-132803600D03*
D32*
X192801200Y-134803600D03*
D33*
X172400000Y-123025000D03*
X172400000Y-118975000D03*
D13*
X182600000Y-116000000D03*
X186000000Y-116000000D03*
D34*
X185900000Y-110750000D03*
X185900000Y-108850000D03*
X183700000Y-109800000D03*
D12*
X172000000Y-133000000D03*
X174800000Y-133000000D03*
D14*
X187022000Y-102600000D03*
X184178000Y-102600000D03*
D15*
X181200000Y-110222000D03*
X181200000Y-107378000D03*
D12*
X193800000Y-127000000D03*
X191000000Y-127000000D03*
X203400000Y-110400000D03*
X200600000Y-110400000D03*
D30*
X172000000Y-92700000D03*
X172000000Y-89300000D03*
D35*
X205450000Y-115450000D03*
X202950000Y-115450000D03*
X202950000Y-117750000D03*
X205450000Y-117750000D03*
D36*
X179875000Y-80400000D03*
X174125000Y-80400000D03*
D14*
X180178000Y-113000000D03*
X183022000Y-113000000D03*
X184022000Y-127200000D03*
X181178000Y-127200000D03*
D12*
X205600000Y-113000000D03*
X202800000Y-113000000D03*
D13*
X202700000Y-93400000D03*
X199300000Y-93400000D03*
D12*
X164800000Y-127000000D03*
X162000000Y-127000000D03*
D11*
X142400000Y-89600000D03*
X142400000Y-86800000D03*
D12*
X151000000Y-127000000D03*
X153800000Y-127000000D03*
X160600000Y-110400000D03*
X163400000Y-110400000D03*
D11*
X160400000Y-106600000D03*
X160400000Y-103800000D03*
D12*
X151000000Y-129800000D03*
X153800000Y-129800000D03*
D11*
X160400000Y-115200000D03*
X160400000Y-118000000D03*
D12*
X163200000Y-120600000D03*
X160400000Y-120600000D03*
X162800000Y-113000000D03*
X165600000Y-113000000D03*
X146000000Y-121200000D03*
X143200000Y-121200000D03*
X136000000Y-116200000D03*
X133200000Y-116200000D03*
D11*
X135200000Y-125200000D03*
X135200000Y-128000000D03*
D12*
X134800000Y-133000000D03*
X132000000Y-133000000D03*
X136000000Y-113800000D03*
X133200000Y-113800000D03*
D14*
X164822000Y-124400000D03*
X161978000Y-124400000D03*
X155378000Y-110400000D03*
X158222000Y-110400000D03*
X152822000Y-110400000D03*
X149978000Y-110400000D03*
D15*
X141200000Y-107378000D03*
X141200000Y-110222000D03*
X145000000Y-89622000D03*
X145000000Y-86778000D03*
D14*
X146178000Y-81800000D03*
X149022000Y-81800000D03*
D15*
X142400000Y-92378000D03*
X142400000Y-95222000D03*
D14*
X144178000Y-102600000D03*
X147022000Y-102600000D03*
D15*
X163000000Y-106622000D03*
X163000000Y-103778000D03*
D14*
X134822000Y-135600000D03*
X131978000Y-135600000D03*
D15*
X150200000Y-86778000D03*
X150200000Y-89622000D03*
X147600000Y-89622000D03*
X147600000Y-86778000D03*
D14*
X147022000Y-105200000D03*
X144178000Y-105200000D03*
D15*
X152800000Y-86778000D03*
X152800000Y-89622000D03*
D14*
X161978000Y-129600000D03*
X164822000Y-129600000D03*
X152978000Y-98800000D03*
X155822000Y-98800000D03*
X143022000Y-113000000D03*
X140178000Y-113000000D03*
X146022000Y-118600000D03*
X143178000Y-118600000D03*
X131978000Y-130400000D03*
X134822000Y-130400000D03*
X141178000Y-127200000D03*
X144022000Y-127200000D03*
D15*
X137600000Y-135022000D03*
X137600000Y-132178000D03*
D28*
X155950000Y-124100000D03*
X155450000Y-124100000D03*
X154950000Y-124100000D03*
X154450000Y-124100000D03*
X153950000Y-124100000D03*
X153450000Y-124100000D03*
X152950000Y-124100000D03*
X152450000Y-124100000D03*
X151950000Y-124100000D03*
X151450000Y-124100000D03*
X150950000Y-124100000D03*
X150450000Y-124100000D03*
D27*
X148900000Y-122550000D03*
X148900000Y-122050000D03*
X148900000Y-121550000D03*
X148900000Y-121050000D03*
X148900000Y-120550000D03*
X148900000Y-120050000D03*
X148900000Y-119550000D03*
X148900000Y-119050000D03*
X148900000Y-118550000D03*
X148900000Y-118050000D03*
X148900000Y-117550000D03*
X148900000Y-117050000D03*
D28*
X150450000Y-115500000D03*
X150950000Y-115500000D03*
X151450000Y-115500000D03*
X151950000Y-115500000D03*
X152450000Y-115500000D03*
X152950000Y-115500000D03*
X153450000Y-115500000D03*
X153950000Y-115500000D03*
X154450000Y-115500000D03*
X154950000Y-115500000D03*
X155450000Y-115500000D03*
X155950000Y-115500000D03*
D27*
X157500000Y-117050000D03*
X157500000Y-117550000D03*
X157500000Y-118050000D03*
X157500000Y-118550000D03*
X157500000Y-119050000D03*
X157500000Y-119550000D03*
X157500000Y-120050000D03*
X157500000Y-120550000D03*
X157500000Y-121050000D03*
X157500000Y-121550000D03*
X157500000Y-122050000D03*
X157500000Y-122550000D03*
D35*
X165450000Y-117750000D03*
X162950000Y-117750000D03*
X162950000Y-115450000D03*
X165450000Y-115450000D03*
D20*
X137600000Y-109000000D03*
X132000000Y-109000000D03*
D17*
X150701200Y-102888600D03*
X150701200Y-105200000D03*
X150701200Y-107511400D03*
D16*
X156899000Y-105200000D03*
D30*
X132000000Y-89300000D03*
X132000000Y-92700000D03*
D21*
X149250000Y-94500000D03*
X151150000Y-94500000D03*
X150200000Y-92300000D03*
D24*
X141148800Y-131739400D03*
X141148800Y-136260600D03*
X147651200Y-131739400D03*
X147651200Y-136260600D03*
D29*
X135200000Y-99500000D03*
X135200000Y-94500000D03*
D18*
X151485021Y-79163472D03*
X153281072Y-77367421D03*
X153281072Y-80959523D03*
X155077123Y-79163472D03*
X155077123Y-82755574D03*
X156873174Y-80959523D03*
X156873174Y-84551626D03*
X158669226Y-82755574D03*
X158669226Y-86347677D03*
X160465277Y-84551626D03*
X160465277Y-88143728D03*
X162261328Y-86347677D03*
X162261328Y-89939779D03*
X164057379Y-88143728D03*
D25*
X139040000Y-87400000D03*
X134970000Y-87400000D03*
D23*
X162778000Y-97000000D03*
X159222000Y-97000000D03*
D36*
X134125000Y-80400000D03*
X139875000Y-80400000D03*
D30*
X165600000Y-96900000D03*
X165600000Y-93500000D03*
D13*
X134900000Y-91200000D03*
X138300000Y-91200000D03*
X135100000Y-104000000D03*
X131700000Y-104000000D03*
D34*
X143700000Y-109800000D03*
X145900000Y-108850000D03*
X145900000Y-110750000D03*
D13*
X137900000Y-104000000D03*
X141300000Y-104000000D03*
X159300000Y-93400000D03*
X162700000Y-93400000D03*
D32*
X152801200Y-134803600D03*
D31*
X152801200Y-132803600D03*
X154801200Y-134803600D03*
X154801200Y-132803600D03*
X156801200Y-134803600D03*
X156801200Y-132803600D03*
X158801200Y-134803600D03*
X158801200Y-132803600D03*
X160801200Y-134803600D03*
X160801200Y-132803600D03*
D13*
X146000000Y-116000000D03*
X142600000Y-116000000D03*
D26*
X137250000Y-125250000D03*
X138200000Y-125250000D03*
X139150000Y-125250000D03*
X139150000Y-127550000D03*
X138200000Y-127550000D03*
X137250000Y-127550000D03*
D33*
X132400000Y-118975000D03*
X132400000Y-123025000D03*
D19*
X140200000Y-122900000D03*
X140200000Y-119900000D03*
D22*
X136800000Y-118800000D03*
X136800000Y-122800000D03*
D10*
X132000000Y-142000000D03*
M02*
