M48
;DRILL file {KiCad 5.0.0-rc2-dev-unknown-9f5316e~63~ubuntu16.04.1} date Mon Apr 30 23:34:16 2018
;FORMAT={-:-/ absolute / metric / decimal}
FMAT,2
METRIC,TZ
T1C0.400
T2C0.600
T3C0.813
T4C0.900
T5C0.914
T6C1.016
T7C1.100
T8C1.300
T9C0.500
%
G90
G05
M71
T1
X138.2Y-126.4
X138.2Y-128.8
X140.Y-92.4
X140.2Y-128.8
X141.6Y-125.4
X143.2Y-123.
X146.2Y-79.4
X148.6Y-91.4
X148.8Y-115.
X149.8Y-134.
X150.2Y-84.6
X150.4Y-119.8
X151.2Y-96.4
X151.2Y-118.4
X151.6Y-120.8
X151.8Y-91.4
X152.6Y-122.2
X152.8Y-120.8
X153.2Y-117.4
X153.8Y-122.2
X153.8Y-128.4
X155.8Y-122.2
X160.4Y-113.
X160.4Y-130.6
X164.8Y-122.6
X164.8Y-131.6
X166.6Y-127.
X178.2Y-126.4
X178.2Y-128.8
X180.Y-92.4
X180.2Y-128.8
X181.6Y-125.4
X183.2Y-123.
X186.2Y-79.4
X188.6Y-91.4
X188.8Y-115.
X189.8Y-134.
X190.2Y-84.6
X190.4Y-119.8
X191.2Y-96.4
X191.2Y-118.4
X191.6Y-120.8
X191.8Y-91.4
X192.6Y-122.2
X192.8Y-120.8
X193.2Y-117.4
X193.8Y-122.2
X193.8Y-128.4
X195.8Y-122.2
X200.4Y-113.
X200.4Y-130.6
X204.8Y-122.6
X204.8Y-131.6
X206.6Y-127.
T2
X130.4Y-107.
X130.4Y-111.
X131.601Y-115.854
X131.601Y-128.767
X138.2Y-115.
X138.2Y-116.4
X139.6Y-97.4
X139.6Y-100.2
X140.Y-115.2
X140.Y-124.4
X148.2Y-107.6
X170.4Y-107.
X170.4Y-111.
X171.601Y-115.854
X171.601Y-128.767
X178.2Y-115.
X178.2Y-116.4
X179.6Y-97.4
X179.6Y-100.2
X180.Y-115.2
X180.Y-124.4
X188.2Y-107.6
T3
X159.222Y-97.
X162.778Y-97.
X199.222Y-97.
X202.778Y-97.
T4
X135.2Y-94.5
X135.2Y-99.5
X175.2Y-94.5
X175.2Y-99.5
T5
X152.801Y-132.804
X152.801Y-134.804
X154.801Y-132.804
X154.801Y-134.804
X156.801Y-132.804
X156.801Y-134.804
X158.801Y-132.804
X158.801Y-134.804
X160.801Y-132.804
X160.801Y-134.804
X192.801Y-132.804
X192.801Y-134.804
X194.801Y-132.804
X194.801Y-134.804
X196.801Y-132.804
X196.801Y-134.804
X198.801Y-132.804
X198.801Y-134.804
X200.801Y-132.804
X200.801Y-134.804
T6
X191.485Y-79.163
X193.281Y-77.367
X193.281Y-80.96
X195.077Y-79.163
X195.077Y-82.756
X196.873Y-80.96
X196.873Y-84.552
X198.669Y-82.756
X198.669Y-86.348
X200.465Y-84.552
X200.465Y-88.144
X202.261Y-86.348
X202.261Y-89.94
X204.057Y-88.144
X151.485Y-79.163
X153.281Y-77.367
X153.281Y-80.96
X155.077Y-79.163
X155.077Y-82.756
X156.873Y-80.96
X156.873Y-84.552
X158.669Y-82.756
X158.669Y-86.348
X160.465Y-84.552
X160.465Y-88.144
X162.261Y-86.348
X162.261Y-89.94
X164.057Y-88.144
T7
X141.149Y-131.739
X141.149Y-136.261
X147.651Y-131.739
X147.651Y-136.261
X181.149Y-131.739
X181.149Y-136.261
X187.651Y-131.739
X187.651Y-136.261
T8
X174.125Y-80.4
X179.875Y-80.4
X134.125Y-80.4
X139.875Y-80.4
T9
X141.5Y-70.25
X141.5Y-72.75
X142.5Y-70.25
X142.5Y-72.75
X143.5Y-70.25
X143.5Y-72.75
X144.5Y-70.25
X144.5Y-72.75
X145.5Y-70.25
X145.5Y-72.75
X190.5Y-137.25
X190.5Y-139.75
X191.5Y-137.25
X191.5Y-139.75
X192.5Y-137.25
X192.5Y-139.75
X193.5Y-137.25
X193.5Y-139.75
X194.5Y-137.25
X194.5Y-139.75
X181.5Y-70.25
X181.5Y-72.75
X182.5Y-70.25
X182.5Y-72.75
X183.5Y-70.25
X183.5Y-72.75
X184.5Y-70.25
X184.5Y-72.75
X185.5Y-70.25
X185.5Y-72.75
X167.25Y-100.
X167.25Y-101.
X167.25Y-102.
X167.25Y-103.
X167.25Y-104.
X169.75Y-100.
X169.75Y-101.
X169.75Y-102.
X169.75Y-103.
X169.75Y-104.
X150.5Y-137.25
X150.5Y-139.75
X151.5Y-137.25
X151.5Y-139.75
X152.5Y-137.25
X152.5Y-139.75
X153.5Y-137.25
X153.5Y-139.75
X154.5Y-137.25
X154.5Y-139.75
T0
M30
