G04 #@! TF.GenerationSoftware,KiCad,Pcbnew,5.0.0-rc2-dev-unknown-9f5316e~63~ubuntu16.04.1*
G04 #@! TF.CreationDate,2018-04-30T23:34:32+02:00*
G04 #@! TF.ProjectId,Rauchmelder_3.6_panelized,52617563686D656C64657220332E365F,rev?*
G04 #@! TF.SameCoordinates,Original*
G04 #@! TF.FileFunction,Soldermask,Bot*
G04 #@! TF.FilePolarity,Negative*
%FSLAX46Y46*%
G04 Gerber Fmt 4.6, Leading zero omitted, Abs format (unit mm)*
G04 Created by KiCad (PCBNEW 5.0.0-rc2-dev-unknown-9f5316e~63~ubuntu16.04.1) date Mon Apr 30 23:34:32 2018*
%MOMM*%
%LPD*%
G01*
G04 APERTURE LIST*
%ADD10C,1.778000*%
%ADD11C,1.803400*%
%ADD12O,3.352800X1.778000*%
%ADD13O,3.120800X1.662000*%
%ADD14C,1.676400*%
%ADD15R,1.676400X1.676400*%
%ADD16O,2.153200X4.103200*%
G04 APERTURE END LIST*
D10*
X204057379Y-88143728D03*
X202261328Y-89939779D03*
X202261328Y-86347677D03*
X200465277Y-88143728D03*
X200465277Y-84551626D03*
X198669226Y-86347677D03*
X198669226Y-82755574D03*
X196873174Y-84551626D03*
X196873174Y-80959523D03*
X195077123Y-82755574D03*
X195077123Y-79163472D03*
X193281072Y-80959523D03*
X193281072Y-77367421D03*
X191485021Y-79163472D03*
D11*
X199222000Y-97000000D03*
X202778000Y-97000000D03*
D12*
X187651200Y-136260600D03*
X187651200Y-131739400D03*
X181148800Y-136260600D03*
X181148800Y-131739400D03*
D13*
X175200000Y-94500000D03*
X175200000Y-99500000D03*
D14*
X200801200Y-132803600D03*
X200801200Y-134803600D03*
X198801200Y-132803600D03*
X198801200Y-134803600D03*
X196801200Y-132803600D03*
X196801200Y-134803600D03*
X194801200Y-132803600D03*
X194801200Y-134803600D03*
X192801200Y-132803600D03*
D15*
X192801200Y-134803600D03*
D16*
X179875000Y-80400000D03*
X174125000Y-80400000D03*
D12*
X141148800Y-131739400D03*
X141148800Y-136260600D03*
X147651200Y-131739400D03*
X147651200Y-136260600D03*
D13*
X135200000Y-99500000D03*
X135200000Y-94500000D03*
D10*
X151485021Y-79163472D03*
X153281072Y-77367421D03*
X153281072Y-80959523D03*
X155077123Y-79163472D03*
X155077123Y-82755574D03*
X156873174Y-80959523D03*
X156873174Y-84551626D03*
X158669226Y-82755574D03*
X158669226Y-86347677D03*
X160465277Y-84551626D03*
X160465277Y-88143728D03*
X162261328Y-86347677D03*
X162261328Y-89939779D03*
X164057379Y-88143728D03*
D11*
X162778000Y-97000000D03*
X159222000Y-97000000D03*
D16*
X134125000Y-80400000D03*
X139875000Y-80400000D03*
D15*
X152801200Y-134803600D03*
D14*
X152801200Y-132803600D03*
X154801200Y-134803600D03*
X154801200Y-132803600D03*
X156801200Y-134803600D03*
X156801200Y-132803600D03*
X158801200Y-134803600D03*
X158801200Y-132803600D03*
X160801200Y-134803600D03*
X160801200Y-132803600D03*
M02*
