G75*
G70*
%OFA0B0*%
%FSLAX24Y24*%
%IPPOS*%
%LPD*%
%AMOC8*
5,1,8,0,0,1.08239X$1,22.5*
%
%ADD10C,0.0560*%
%ADD11OC8,0.0600*%
%ADD12C,0.0680*%
%ADD13C,0.0600*%
%ADD14OC8,0.0680*%
%ADD15OC8,0.1080*%
D10*
X002565Y002809D02*
X005190Y002809D01*
X005190Y003840D02*
X002565Y003840D01*
X002565Y004809D02*
X005159Y004809D01*
X005159Y005809D02*
X002565Y005809D01*
X002565Y006840D02*
X005190Y006840D01*
X005190Y007809D02*
X002596Y007809D01*
X002565Y008809D02*
X005190Y008809D01*
X005159Y009809D02*
X005127Y009809D01*
X005127Y009872D01*
X002565Y009872D01*
X002565Y010809D02*
X002565Y010809D01*
X005159Y010809D01*
X005159Y011840D02*
X002627Y011840D01*
D11*
X004639Y013869D03*
X007639Y013869D03*
X010393Y013835D03*
X010393Y014835D03*
X010467Y010877D03*
X010467Y009877D03*
X009818Y009065D03*
X007227Y008212D03*
X006818Y009065D03*
X010459Y006842D03*
X010459Y005842D03*
X007227Y005212D03*
X010472Y002877D03*
X009100Y002034D03*
X010472Y001877D03*
X006100Y002034D03*
X020757Y004200D03*
X023757Y004200D03*
X024947Y002854D03*
X024947Y001854D03*
X024955Y005838D03*
X024955Y006838D03*
X023741Y008386D03*
X024990Y009848D03*
X024990Y010848D03*
X023758Y012324D03*
X024935Y013841D03*
X024935Y014841D03*
X020758Y012324D03*
X019468Y014354D03*
X016468Y014354D03*
X020741Y008386D03*
D12*
X020676Y009464D02*
X021276Y009464D01*
X023236Y009464D02*
X023836Y009464D01*
X023836Y011244D02*
X023236Y011244D01*
X021276Y011244D02*
X020676Y011244D01*
X020647Y013458D02*
X021247Y013458D01*
X023207Y013458D02*
X023807Y013458D01*
X023807Y015238D02*
X023207Y015238D01*
X021247Y015238D02*
X020647Y015238D01*
X014699Y015230D02*
X014099Y015230D01*
X012139Y015230D02*
X011539Y015230D01*
X011539Y013450D02*
X012139Y013450D01*
X014099Y013450D02*
X014699Y013450D01*
X014695Y011258D02*
X014095Y011258D01*
X012135Y011258D02*
X011535Y011258D01*
X011535Y009478D02*
X012135Y009478D01*
X014095Y009478D02*
X014695Y009478D01*
X014695Y007214D02*
X014095Y007214D01*
X012135Y007214D02*
X011535Y007214D01*
X011535Y005434D02*
X012135Y005434D01*
X014095Y005434D02*
X014695Y005434D01*
X014695Y003260D02*
X014095Y003260D01*
X012135Y003260D02*
X011535Y003260D01*
X011535Y001480D02*
X012135Y001480D01*
X014095Y001480D02*
X014695Y001480D01*
X020687Y001475D02*
X021287Y001475D01*
X023247Y001475D02*
X023847Y001475D01*
X023847Y003255D02*
X023247Y003255D01*
X021287Y003255D02*
X020687Y003255D01*
X020687Y005450D02*
X021287Y005450D01*
X023247Y005450D02*
X023847Y005450D01*
X023847Y007230D02*
X023247Y007230D01*
X021287Y007230D02*
X020687Y007230D01*
X005475Y006826D02*
X004875Y006826D01*
X004875Y005826D02*
X005475Y005826D01*
X005475Y004826D02*
X004875Y004826D01*
X004875Y003826D02*
X005475Y003826D01*
X005475Y002826D02*
X004875Y002826D01*
X004875Y007826D02*
X005475Y007826D01*
X005475Y008826D02*
X004875Y008826D01*
X004875Y009826D02*
X005475Y009826D01*
X005475Y010826D02*
X004875Y010826D01*
X004875Y011826D02*
X005475Y011826D01*
D13*
X009082Y013444D02*
X009082Y013964D01*
X009082Y009964D02*
X009082Y009444D01*
X009783Y008172D02*
X010303Y008172D01*
X013783Y008172D02*
X014303Y008172D01*
X017706Y008921D02*
X017706Y009441D01*
X019368Y007816D02*
X019368Y007296D01*
X018534Y005748D02*
X018534Y005228D01*
X019567Y005205D02*
X019567Y005725D01*
X014295Y004262D02*
X013775Y004262D01*
X010295Y004262D02*
X009775Y004262D01*
X009405Y000999D02*
X008885Y000999D01*
X005405Y000999D02*
X004885Y000999D01*
X018534Y001228D02*
X018534Y001748D01*
X019567Y001725D02*
X019567Y001205D01*
X019368Y011296D02*
X019368Y011816D01*
X017706Y012921D02*
X017706Y013441D01*
D14*
X017315Y007497D03*
X016315Y007497D03*
X016315Y006497D03*
X017315Y006497D03*
X017315Y005497D03*
X016315Y005497D03*
X016315Y004497D03*
X017315Y004497D03*
X017315Y003497D03*
X016315Y003497D03*
D15*
X025929Y001315D03*
X025929Y012466D03*
M02*
