G75*
G70*
%OFA0B0*%
%FSLAX24Y24*%
%IPPOS*%
%LPD*%
%AMOC8*
5,1,8,0,0,1.08239X$1,22.5*
%
%ADD10OC8,0.0520*%
%ADD11C,0.0600*%
%ADD12C,0.0520*%
%ADD13OC8,0.0600*%
%ADD14C,0.0160*%
%ADD15OC8,0.1000*%
D10*
X001802Y001854D03*
X001802Y002854D03*
X002992Y004200D03*
X001794Y005838D03*
X001794Y006838D03*
X003008Y008386D03*
X001759Y009848D03*
X001759Y010848D03*
X002991Y012324D03*
X001814Y013841D03*
X001814Y014841D03*
X005991Y012324D03*
X007281Y014354D03*
X010281Y014354D03*
X016282Y010877D03*
X016282Y009877D03*
X016931Y009065D03*
X019522Y008212D03*
X019931Y009065D03*
X016290Y006842D03*
X016290Y005842D03*
X019522Y005212D03*
X016277Y002877D03*
X017649Y002034D03*
X016277Y001877D03*
X020649Y002034D03*
X005992Y004200D03*
X006008Y008386D03*
X016356Y013835D03*
X016356Y014835D03*
X019110Y013869D03*
X022110Y013869D03*
D11*
X021874Y011826D02*
X021274Y011826D01*
X021274Y010826D02*
X021874Y010826D01*
X021874Y009826D02*
X021274Y009826D01*
X021274Y008826D02*
X021874Y008826D01*
X021874Y007826D02*
X021274Y007826D01*
X021274Y006826D02*
X021874Y006826D01*
X021874Y005826D02*
X021274Y005826D01*
X021274Y004826D02*
X021874Y004826D01*
X021874Y003826D02*
X021274Y003826D01*
X021274Y002826D02*
X021874Y002826D01*
X015214Y003260D02*
X014614Y003260D01*
X012654Y003260D02*
X012054Y003260D01*
X012054Y001480D02*
X012654Y001480D01*
X014614Y001480D02*
X015214Y001480D01*
X015214Y005434D02*
X014614Y005434D01*
X012654Y005434D02*
X012054Y005434D01*
X012054Y007214D02*
X012654Y007214D01*
X014614Y007214D02*
X015214Y007214D01*
X015214Y009478D02*
X014614Y009478D01*
X012654Y009478D02*
X012054Y009478D01*
X012054Y011258D02*
X012654Y011258D01*
X014614Y011258D02*
X015214Y011258D01*
X015210Y013450D02*
X014610Y013450D01*
X012650Y013450D02*
X012050Y013450D01*
X012050Y015230D02*
X012650Y015230D01*
X014610Y015230D02*
X015210Y015230D01*
X006102Y015238D02*
X005502Y015238D01*
X003542Y015238D02*
X002942Y015238D01*
X002942Y013458D02*
X003542Y013458D01*
X005502Y013458D02*
X006102Y013458D01*
X006073Y011244D02*
X005473Y011244D01*
X003513Y011244D02*
X002913Y011244D01*
X002913Y009464D02*
X003513Y009464D01*
X005473Y009464D02*
X006073Y009464D01*
X006062Y007230D02*
X005462Y007230D01*
X003502Y007230D02*
X002902Y007230D01*
X002902Y005450D02*
X003502Y005450D01*
X005462Y005450D02*
X006062Y005450D01*
X006062Y003255D02*
X005462Y003255D01*
X003502Y003255D02*
X002902Y003255D01*
X002902Y001475D02*
X003502Y001475D01*
X005462Y001475D02*
X006062Y001475D01*
D12*
X007182Y001725D02*
X007182Y001205D01*
X008215Y001228D02*
X008215Y001748D01*
X012454Y004262D02*
X012974Y004262D01*
X016454Y004262D02*
X016974Y004262D01*
X017344Y000999D02*
X017864Y000999D01*
X021344Y000999D02*
X021864Y000999D01*
X016966Y008172D02*
X016446Y008172D01*
X017667Y009444D02*
X017667Y009964D01*
X012966Y008172D02*
X012446Y008172D01*
X009043Y008921D02*
X009043Y009441D01*
X007381Y007816D02*
X007381Y007296D01*
X008215Y005748D02*
X008215Y005228D01*
X007182Y005205D02*
X007182Y005725D01*
X007381Y011296D02*
X007381Y011816D01*
X009043Y012921D02*
X009043Y013441D01*
X017667Y013444D02*
X017667Y013964D01*
D13*
X010434Y007497D03*
X009434Y007497D03*
X009434Y006497D03*
X010434Y006497D03*
X010434Y005497D03*
X009434Y005497D03*
X009434Y004497D03*
X010434Y004497D03*
X010434Y003497D03*
X009434Y003497D03*
D14*
X001640Y000975D02*
X001294Y000629D01*
X007058Y000629D01*
X006854Y000713D01*
X006691Y000876D01*
X006602Y001089D01*
X006602Y001158D01*
X006588Y001123D01*
X006414Y000949D01*
X006186Y000855D01*
X005339Y000855D01*
X005111Y000949D01*
X004937Y001123D01*
X004842Y001351D01*
X004842Y001598D01*
X004937Y001826D01*
X005111Y002000D01*
X005339Y002094D01*
X006186Y002094D01*
X006414Y002000D01*
X006588Y001826D01*
X006602Y001791D01*
X006602Y001840D01*
X006691Y002053D01*
X006854Y002216D01*
X007067Y002305D01*
X007298Y002305D01*
X007511Y002216D01*
X007674Y002053D01*
X007694Y002006D01*
X007723Y002076D01*
X007886Y002239D01*
X008099Y002328D01*
X008330Y002328D01*
X008472Y002269D01*
X008472Y003855D01*
X008472Y004014D01*
X008533Y004161D01*
X008814Y004442D01*
X008814Y004753D01*
X009057Y004997D01*
X008814Y005240D01*
X008814Y005551D01*
X008795Y005571D01*
X008795Y005112D01*
X008706Y004899D01*
X008543Y004736D01*
X008330Y004648D01*
X008099Y004648D01*
X007886Y004736D01*
X007723Y004899D01*
X007703Y004947D01*
X007674Y004876D01*
X007511Y004713D01*
X007298Y004625D01*
X007067Y004625D01*
X006854Y004713D01*
X006691Y004876D01*
X006602Y005089D01*
X006602Y005134D01*
X006588Y005099D01*
X006414Y004925D01*
X006186Y004830D01*
X005339Y004830D01*
X005111Y004925D01*
X004937Y005099D01*
X004842Y005327D01*
X004842Y005573D01*
X004937Y005801D01*
X005111Y005976D01*
X005339Y006070D01*
X006186Y006070D01*
X006414Y005976D01*
X006588Y005801D01*
X006602Y005766D01*
X006602Y005840D01*
X006691Y006053D01*
X006854Y006216D01*
X007067Y006305D01*
X007298Y006305D01*
X007511Y006216D01*
X007674Y006053D01*
X007694Y006006D01*
X007723Y006076D01*
X007886Y006239D01*
X008099Y006328D01*
X008284Y006328D01*
X008284Y006667D01*
X008284Y006826D01*
X008345Y006973D01*
X008681Y007309D01*
X007892Y008098D01*
X007961Y007931D01*
X007961Y007181D01*
X007873Y006967D01*
X007710Y006804D01*
X007497Y006716D01*
X007266Y006716D01*
X007053Y006804D01*
X006889Y006967D01*
X006801Y007181D01*
X006801Y007931D01*
X006889Y008144D01*
X007053Y008308D01*
X007266Y008396D01*
X007497Y008396D01*
X007663Y008327D01*
X007518Y008472D01*
X006588Y008472D01*
X006588Y008146D01*
X006261Y007819D01*
X006414Y007756D01*
X006588Y007581D01*
X006682Y007353D01*
X006682Y007107D01*
X006588Y006879D01*
X006414Y006705D01*
X006186Y006610D01*
X005339Y006610D01*
X005111Y006705D01*
X004937Y006879D01*
X004842Y007107D01*
X004842Y007353D01*
X004937Y007581D01*
X005111Y007756D01*
X005339Y007850D01*
X005724Y007850D01*
X005428Y008146D01*
X005428Y008472D01*
X004667Y008472D01*
X004520Y008533D01*
X004408Y008645D01*
X004207Y008845D01*
X004095Y008958D01*
X004034Y009105D01*
X004034Y009109D01*
X003864Y008938D01*
X003636Y008844D01*
X003371Y008844D01*
X003588Y008627D01*
X003588Y008146D01*
X003292Y007850D01*
X003626Y007850D01*
X003854Y007756D01*
X004028Y007581D01*
X004122Y007353D01*
X004122Y007107D01*
X004028Y006879D01*
X003854Y006705D01*
X003626Y006610D01*
X002779Y006610D01*
X002551Y006705D01*
X002377Y006879D01*
X002374Y006886D01*
X002374Y006597D01*
X002034Y006258D01*
X001996Y006258D01*
X002234Y006020D01*
X002234Y005838D01*
X001794Y005838D01*
X001794Y005837D01*
X001794Y005398D01*
X001976Y005398D01*
X002234Y005655D01*
X002234Y005837D01*
X001794Y005837D01*
X001794Y005837D01*
X001794Y005398D01*
X001612Y005398D01*
X001354Y005655D01*
X001354Y005837D01*
X001793Y005837D01*
X001793Y005838D01*
X001354Y005838D01*
X001354Y006020D01*
X001592Y006258D01*
X001554Y006258D01*
X001214Y006597D01*
X001214Y007078D01*
X001554Y007418D01*
X002034Y007418D01*
X002282Y007169D01*
X002282Y007353D01*
X002377Y007581D01*
X002551Y007756D01*
X002740Y007834D01*
X002428Y008146D01*
X002428Y008627D01*
X002688Y008886D01*
X002561Y008938D01*
X002387Y009113D01*
X002293Y009341D01*
X002293Y009587D01*
X002387Y009815D01*
X002561Y009990D01*
X002789Y010084D01*
X003636Y010084D01*
X003864Y009990D01*
X004034Y009819D01*
X004034Y010889D01*
X003864Y010718D01*
X003636Y010624D01*
X002789Y010624D01*
X002561Y010718D01*
X002387Y010893D01*
X002339Y011008D01*
X002339Y010607D01*
X002000Y010268D01*
X001961Y010268D01*
X002199Y010030D01*
X002199Y009848D01*
X002420Y009848D01*
X002335Y009689D02*
X002199Y009689D01*
X002199Y009665D02*
X002199Y009847D01*
X001760Y009847D01*
X001760Y009848D01*
X002199Y009848D01*
X002199Y010006D02*
X002602Y010006D01*
X002199Y009665D02*
X001942Y009408D01*
X001760Y009408D01*
X001760Y009847D01*
X001759Y009847D01*
X001759Y009408D01*
X001577Y009408D01*
X001319Y009665D01*
X001319Y009847D01*
X001759Y009847D01*
X001759Y009848D01*
X001319Y009848D01*
X000547Y009848D01*
X000547Y010006D02*
X001319Y010006D01*
X001319Y010030D02*
X001319Y009848D01*
X001319Y009689D02*
X000547Y009689D01*
X000547Y009531D02*
X001454Y009531D01*
X001759Y009531D02*
X001760Y009531D01*
X001759Y009689D02*
X001760Y009689D01*
X002065Y009531D02*
X002293Y009531D01*
X002293Y009372D02*
X000547Y009372D01*
X000547Y009214D02*
X002345Y009214D01*
X002445Y009055D02*
X000547Y009055D01*
X000547Y008897D02*
X002662Y008897D01*
X002540Y008738D02*
X000547Y008738D01*
X000547Y008579D02*
X002428Y008579D01*
X002428Y008421D02*
X000547Y008421D01*
X000547Y008262D02*
X002428Y008262D01*
X002471Y008104D02*
X000547Y008104D01*
X000547Y007945D02*
X002629Y007945D01*
X002626Y007787D02*
X000547Y007787D01*
X000547Y007628D02*
X002424Y007628D01*
X002330Y007470D02*
X000547Y007470D01*
X000547Y007311D02*
X001447Y007311D01*
X001289Y007153D02*
X000547Y007153D01*
X000547Y006994D02*
X001214Y006994D01*
X001214Y006836D02*
X000547Y006836D01*
X000547Y006677D02*
X001214Y006677D01*
X001293Y006518D02*
X000547Y006518D01*
X000547Y006360D02*
X001451Y006360D01*
X001535Y006201D02*
X000547Y006201D01*
X000547Y006043D02*
X001377Y006043D01*
X001354Y005884D02*
X000547Y005884D01*
X000547Y005726D02*
X001354Y005726D01*
X001442Y005567D02*
X000547Y005567D01*
X000547Y005409D02*
X001601Y005409D01*
X001794Y005409D02*
X001794Y005409D01*
X001794Y005567D02*
X001794Y005567D01*
X001794Y005726D02*
X001794Y005726D01*
X001987Y005409D02*
X002282Y005409D01*
X002282Y005327D02*
X002377Y005099D01*
X002551Y004925D01*
X002779Y004830D01*
X003626Y004830D01*
X003854Y004925D01*
X004028Y005099D01*
X004122Y005327D01*
X004122Y005573D01*
X004028Y005801D01*
X003854Y005976D01*
X003626Y006070D01*
X002779Y006070D01*
X002551Y005976D01*
X002377Y005801D01*
X002282Y005573D01*
X002282Y005327D01*
X002314Y005250D02*
X000547Y005250D01*
X000547Y005092D02*
X002384Y005092D01*
X002543Y004933D02*
X000547Y004933D01*
X000547Y004774D02*
X002746Y004774D01*
X002752Y004780D02*
X002412Y004440D01*
X002412Y003959D01*
X002580Y003792D01*
X002551Y003780D01*
X002377Y003606D01*
X002282Y003378D01*
X002282Y003194D01*
X002042Y003434D01*
X001562Y003434D01*
X001222Y003094D01*
X001222Y002614D01*
X001562Y002274D01*
X001600Y002274D01*
X001362Y002036D01*
X001362Y001932D01*
X001160Y002135D01*
X000547Y002135D01*
X000547Y011646D01*
X001160Y011646D01*
X001640Y012126D01*
X001640Y012806D01*
X001160Y013286D01*
X000547Y013286D01*
X000547Y016268D01*
X026089Y016249D01*
X026089Y000629D01*
X022314Y000629D01*
X022356Y000671D01*
X022444Y000884D01*
X022444Y001115D01*
X022356Y001328D01*
X022193Y001491D01*
X021980Y001579D01*
X021229Y001579D01*
X021016Y001491D01*
X020853Y001328D01*
X020764Y001115D01*
X020764Y000884D01*
X020853Y000671D01*
X020895Y000629D01*
X018314Y000629D01*
X018356Y000671D01*
X018444Y000884D01*
X018444Y001115D01*
X018356Y001328D01*
X018193Y001491D01*
X018004Y001569D01*
X018229Y001794D01*
X018229Y002274D01*
X017890Y002614D01*
X017742Y002614D01*
X018912Y003784D01*
X019292Y003784D01*
X019451Y003784D01*
X019598Y003845D01*
X020654Y004901D01*
X020654Y004703D01*
X020748Y004475D01*
X020923Y004301D01*
X021044Y004251D01*
X021002Y004233D01*
X020867Y004098D01*
X020794Y003922D01*
X020794Y003846D01*
X021554Y003846D01*
X021554Y003806D01*
X020794Y003806D01*
X020794Y003731D01*
X020867Y003554D01*
X021002Y003419D01*
X021044Y003402D01*
X020923Y003352D01*
X020748Y003178D01*
X020654Y002950D01*
X020654Y002703D01*
X020748Y002475D01*
X020749Y002474D01*
X020650Y002474D01*
X020650Y002035D01*
X020649Y002035D01*
X020649Y002474D01*
X020467Y002474D01*
X020209Y002216D01*
X020209Y002034D01*
X020209Y001852D01*
X020467Y001594D01*
X020649Y001594D01*
X020649Y002034D01*
X020209Y002034D01*
X020649Y002034D01*
X020649Y002034D01*
X020650Y002034D01*
X020650Y002034D01*
X021089Y002034D01*
X021089Y001852D01*
X020832Y001594D01*
X020650Y001594D01*
X020650Y002034D01*
X021089Y002034D01*
X021089Y002216D01*
X021063Y002243D01*
X021151Y002206D01*
X021997Y002206D01*
X022225Y002301D01*
X022399Y002475D01*
X022494Y002703D01*
X022494Y002950D01*
X022399Y003178D01*
X022225Y003352D01*
X022104Y003402D01*
X022146Y003419D01*
X022281Y003554D01*
X022354Y003731D01*
X022354Y003806D01*
X021594Y003806D01*
X021594Y003846D01*
X022354Y003846D01*
X022354Y003922D01*
X022281Y004098D01*
X022146Y004233D01*
X022104Y004251D01*
X022225Y004301D01*
X022399Y004475D01*
X022494Y004703D01*
X022494Y004950D01*
X022399Y005178D01*
X022251Y005326D01*
X022399Y005475D01*
X022494Y005703D01*
X022494Y005950D01*
X022399Y006178D01*
X022251Y006326D01*
X022399Y006475D01*
X022494Y006703D01*
X022494Y006950D01*
X022399Y007178D01*
X022251Y007326D01*
X022399Y007475D01*
X022494Y007703D01*
X022494Y007950D01*
X022399Y008178D01*
X022251Y008326D01*
X022399Y008475D01*
X022494Y008703D01*
X022494Y008950D01*
X022399Y009178D01*
X022251Y009326D01*
X022399Y009475D01*
X022494Y009703D01*
X022494Y009950D01*
X022399Y010178D01*
X022251Y010326D01*
X022399Y010475D01*
X022494Y010703D01*
X022494Y010950D01*
X022399Y011178D01*
X022251Y011326D01*
X022399Y011475D01*
X022494Y011703D01*
X022494Y011950D01*
X022399Y012178D01*
X022225Y012352D01*
X021997Y012446D01*
X021151Y012446D01*
X020923Y012352D01*
X020748Y012178D01*
X020654Y011950D01*
X020654Y011703D01*
X020748Y011475D01*
X020897Y011326D01*
X020748Y011178D01*
X020654Y010950D01*
X020654Y010703D01*
X020748Y010475D01*
X020897Y010326D01*
X020748Y010178D01*
X020654Y009950D01*
X020654Y009703D01*
X020748Y009475D01*
X020897Y009326D01*
X020748Y009178D01*
X020712Y009090D01*
X020658Y009036D01*
X019962Y008340D01*
X019962Y008394D01*
X019704Y008652D01*
X019522Y008652D01*
X019522Y008212D01*
X019521Y008212D01*
X019521Y008212D01*
X019082Y008212D01*
X019082Y008394D01*
X019339Y008652D01*
X019521Y008652D01*
X019521Y008212D01*
X019082Y008212D01*
X019082Y008030D01*
X019339Y007772D01*
X019394Y007772D01*
X017268Y005647D01*
X016870Y005647D01*
X016870Y006082D01*
X016610Y006342D01*
X016870Y006602D01*
X016870Y007082D01*
X016530Y007422D01*
X016050Y007422D01*
X015834Y007207D01*
X015834Y007338D01*
X015740Y007566D01*
X015565Y007740D01*
X015337Y007834D01*
X014491Y007834D01*
X014263Y007740D01*
X014089Y007566D01*
X014022Y007404D01*
X014022Y009288D01*
X014089Y009126D01*
X014263Y008952D01*
X014491Y008858D01*
X015337Y008858D01*
X015565Y008952D01*
X015740Y009126D01*
X015834Y009354D01*
X015834Y009505D01*
X016042Y009297D01*
X016351Y009297D01*
X016351Y008825D01*
X016423Y008752D01*
X016331Y008752D01*
X016117Y008664D01*
X015954Y008501D01*
X015866Y008288D01*
X015866Y008057D01*
X015954Y007844D01*
X016117Y007681D01*
X016331Y007592D01*
X017081Y007592D01*
X017295Y007681D01*
X017458Y007844D01*
X017546Y008057D01*
X017546Y008288D01*
X017458Y008501D01*
X017322Y008636D01*
X017511Y008825D01*
X017511Y008881D01*
X017551Y008864D01*
X017782Y008864D01*
X017995Y008952D01*
X018158Y009116D01*
X018247Y009329D01*
X018247Y010079D01*
X018158Y010293D01*
X017995Y010456D01*
X017782Y010544D01*
X017551Y010544D01*
X017338Y010456D01*
X017175Y010293D01*
X017087Y010079D01*
X017087Y009645D01*
X016862Y009645D01*
X016862Y010118D01*
X016602Y010377D01*
X016862Y010637D01*
X016862Y011118D01*
X016522Y011457D01*
X016042Y011457D01*
X015834Y011250D01*
X015834Y011381D01*
X015740Y011609D01*
X015565Y011783D01*
X015337Y011878D01*
X014491Y011878D01*
X014263Y011783D01*
X014089Y011609D01*
X014022Y011447D01*
X014022Y013250D01*
X014084Y013099D01*
X014259Y012925D01*
X014486Y012830D01*
X015333Y012830D01*
X015561Y012925D01*
X015735Y013099D01*
X015830Y013327D01*
X015830Y013542D01*
X016116Y013255D01*
X016596Y013255D01*
X016936Y013595D01*
X016936Y014076D01*
X016676Y014335D01*
X016936Y014595D01*
X016936Y015076D01*
X016596Y015415D01*
X016116Y015415D01*
X015830Y015129D01*
X015830Y015354D01*
X015735Y015582D01*
X015561Y015756D01*
X015333Y015850D01*
X014486Y015850D01*
X014259Y015756D01*
X014084Y015582D01*
X013990Y015354D01*
X013990Y015107D01*
X014060Y014938D01*
X013283Y014161D01*
X013222Y014014D01*
X013222Y013855D01*
X013222Y013690D01*
X013175Y013802D01*
X013001Y013976D01*
X012773Y014070D01*
X011926Y014070D01*
X011699Y013976D01*
X011524Y013802D01*
X011430Y013574D01*
X011430Y013327D01*
X011524Y013099D01*
X011699Y012925D01*
X011926Y012830D01*
X012773Y012830D01*
X013001Y012925D01*
X013175Y013099D01*
X013222Y013211D01*
X013222Y011508D01*
X013180Y011609D01*
X013005Y011783D01*
X012777Y011878D01*
X011931Y011878D01*
X011703Y011783D01*
X011529Y011609D01*
X011434Y011381D01*
X011434Y011134D01*
X011529Y010906D01*
X011703Y010732D01*
X011931Y010638D01*
X012777Y010638D01*
X013005Y010732D01*
X013180Y010906D01*
X013222Y011008D01*
X013222Y009728D01*
X013180Y009829D01*
X013005Y010003D01*
X012777Y010098D01*
X011931Y010098D01*
X011703Y010003D01*
X011529Y009829D01*
X011434Y009601D01*
X011434Y009354D01*
X011529Y009126D01*
X011703Y008952D01*
X011931Y008858D01*
X012777Y008858D01*
X013005Y008952D01*
X013180Y009126D01*
X013222Y009228D01*
X013222Y008694D01*
X013081Y008752D01*
X012331Y008752D01*
X012117Y008664D01*
X011954Y008501D01*
X011866Y008288D01*
X011866Y008057D01*
X011954Y007844D01*
X011964Y007834D01*
X011931Y007834D01*
X011703Y007740D01*
X011529Y007566D01*
X011434Y007338D01*
X011434Y007091D01*
X011499Y006935D01*
X011211Y007223D01*
X011098Y007336D01*
X011054Y007354D01*
X011054Y007753D01*
X010834Y007973D01*
X010834Y009014D01*
X010773Y009161D01*
X010661Y009273D01*
X009223Y010711D01*
X009076Y010772D01*
X008917Y010772D01*
X007631Y010772D01*
X007710Y010804D01*
X007873Y010967D01*
X007961Y011181D01*
X007961Y011931D01*
X007873Y012144D01*
X007710Y012308D01*
X007497Y012396D01*
X007266Y012396D01*
X007053Y012308D01*
X006889Y012144D01*
X006860Y012074D01*
X006571Y012363D01*
X006571Y012565D01*
X006277Y012859D01*
X006453Y012932D01*
X006627Y013107D01*
X006722Y013334D01*
X006722Y013581D01*
X006627Y013809D01*
X006453Y013983D01*
X006225Y014078D01*
X005378Y014078D01*
X005150Y013983D01*
X004976Y013809D01*
X004882Y013581D01*
X004882Y013334D01*
X004976Y013107D01*
X005150Y012932D01*
X005378Y012838D01*
X005684Y012838D01*
X005411Y012565D01*
X005411Y012084D01*
X005631Y011864D01*
X005349Y011864D01*
X005121Y011770D01*
X004947Y011595D01*
X004853Y011367D01*
X004853Y011121D01*
X004947Y010893D01*
X005121Y010718D01*
X005349Y010624D01*
X006196Y010624D01*
X006284Y010660D01*
X006284Y010451D01*
X006284Y010292D01*
X006345Y010145D01*
X006457Y010033D01*
X006604Y009972D01*
X008809Y009972D01*
X008714Y009933D01*
X008551Y009769D01*
X008463Y009556D01*
X008463Y008806D01*
X008551Y008592D01*
X008714Y008429D01*
X008927Y008341D01*
X009158Y008341D01*
X009371Y008429D01*
X009534Y008592D01*
X009623Y008806D01*
X009623Y009180D01*
X010034Y008768D01*
X010034Y007973D01*
X009934Y007873D01*
X009691Y008117D01*
X009177Y008117D01*
X009091Y008030D01*
X008023Y009098D01*
X008023Y009098D01*
X007911Y009211D01*
X007764Y009272D01*
X006664Y009272D01*
X006693Y009341D01*
X006693Y009587D01*
X006598Y009815D01*
X006424Y009990D01*
X006196Y010084D01*
X005349Y010084D01*
X005121Y009990D01*
X004947Y009815D01*
X004853Y009587D01*
X004853Y009341D01*
X004859Y009325D01*
X004834Y009350D01*
X004834Y014268D01*
X005240Y014675D01*
X005378Y014618D01*
X006225Y014618D01*
X006453Y014712D01*
X006627Y014887D01*
X006722Y015114D01*
X006722Y015361D01*
X006627Y015589D01*
X006453Y015763D01*
X006225Y015858D01*
X005378Y015858D01*
X005150Y015763D01*
X004976Y015589D01*
X004943Y015508D01*
X004908Y015473D01*
X004095Y014661D01*
X004034Y014514D01*
X004034Y014355D01*
X004034Y013842D01*
X003893Y013983D01*
X003665Y014078D01*
X002818Y014078D01*
X002590Y013983D01*
X002416Y013809D01*
X002322Y013581D01*
X002322Y013334D01*
X002416Y013107D01*
X002590Y012932D01*
X002724Y012877D01*
X002411Y012565D01*
X002411Y012084D01*
X002678Y011818D01*
X002561Y011770D01*
X002387Y011595D01*
X002293Y011367D01*
X002293Y011134D01*
X002000Y011427D01*
X001519Y011427D01*
X001179Y011088D01*
X001179Y010607D01*
X001519Y010268D01*
X001557Y010268D01*
X001319Y010030D01*
X001455Y010165D02*
X000547Y010165D01*
X000547Y010323D02*
X001463Y010323D01*
X001305Y010482D02*
X000547Y010482D01*
X000547Y010641D02*
X001179Y010641D01*
X001179Y010799D02*
X000547Y010799D01*
X000547Y010958D02*
X001179Y010958D01*
X001208Y011116D02*
X000547Y011116D01*
X000547Y011275D02*
X001366Y011275D01*
X001264Y011750D02*
X002542Y011750D01*
X002586Y011909D02*
X001422Y011909D01*
X001581Y012067D02*
X002428Y012067D01*
X002411Y012226D02*
X001640Y012226D01*
X001640Y012385D02*
X002411Y012385D01*
X002411Y012543D02*
X001640Y012543D01*
X001640Y012702D02*
X002548Y012702D01*
X002707Y012860D02*
X001585Y012860D01*
X001427Y013019D02*
X002504Y013019D01*
X002387Y013177D02*
X001268Y013177D01*
X001539Y013494D02*
X000547Y013494D01*
X000547Y013336D02*
X002322Y013336D01*
X002322Y013494D02*
X002089Y013494D01*
X001996Y013401D02*
X002254Y013659D01*
X002254Y013841D01*
X001815Y013841D01*
X001815Y013842D01*
X002254Y013842D01*
X002254Y014024D01*
X002016Y014261D01*
X002054Y014261D01*
X002394Y014601D01*
X002394Y014939D01*
X002416Y014887D01*
X002590Y014712D01*
X002818Y014618D01*
X003665Y014618D01*
X003893Y014712D01*
X004067Y014887D01*
X004162Y015114D01*
X004162Y015361D01*
X004067Y015589D01*
X003893Y015763D01*
X003665Y015858D01*
X002818Y015858D01*
X002590Y015763D01*
X002416Y015589D01*
X002322Y015361D01*
X002322Y015154D01*
X002054Y015421D01*
X001574Y015421D01*
X001234Y015082D01*
X001234Y014601D01*
X001574Y014261D01*
X001612Y014261D01*
X001374Y014024D01*
X001374Y013842D01*
X001814Y013842D01*
X001814Y013841D01*
X001814Y013841D01*
X001814Y013401D01*
X001632Y013401D01*
X001374Y013659D01*
X001374Y013841D01*
X001814Y013841D01*
X001814Y013401D01*
X001996Y013401D01*
X001814Y013494D02*
X001814Y013494D01*
X001814Y013653D02*
X001814Y013653D01*
X001814Y013811D02*
X001814Y013811D01*
X001374Y013811D02*
X000547Y013811D01*
X000547Y013653D02*
X001381Y013653D01*
X001374Y013970D02*
X000547Y013970D01*
X000547Y014129D02*
X001479Y014129D01*
X001548Y014287D02*
X000547Y014287D01*
X000547Y014446D02*
X001390Y014446D01*
X001234Y014604D02*
X000547Y014604D01*
X000547Y014763D02*
X001234Y014763D01*
X001234Y014921D02*
X000547Y014921D01*
X000547Y015080D02*
X001234Y015080D01*
X001391Y015238D02*
X000547Y015238D01*
X000547Y015397D02*
X001550Y015397D01*
X002079Y015397D02*
X002337Y015397D01*
X002322Y015238D02*
X002237Y015238D01*
X002394Y014921D02*
X002402Y014921D01*
X002394Y014763D02*
X002540Y014763D01*
X002394Y014604D02*
X004072Y014604D01*
X004034Y014446D02*
X002239Y014446D01*
X002080Y014287D02*
X004034Y014287D01*
X004034Y014129D02*
X002149Y014129D01*
X002254Y013970D02*
X002577Y013970D01*
X002419Y013811D02*
X002254Y013811D01*
X002248Y013653D02*
X002351Y013653D01*
X003906Y013970D02*
X004034Y013970D01*
X004434Y014434D02*
X005247Y015247D01*
X005747Y015247D01*
X005802Y015192D01*
X005802Y015238D01*
X005802Y015192D02*
X005809Y015184D01*
X006503Y014763D02*
X006870Y014763D01*
X007029Y014921D02*
X006642Y014921D01*
X006707Y015080D02*
X011441Y015080D01*
X011430Y015107D02*
X011524Y014879D01*
X011699Y014705D01*
X011926Y014610D01*
X012773Y014610D01*
X013001Y014705D01*
X013175Y014879D01*
X013270Y015107D01*
X013270Y015354D01*
X013175Y015582D01*
X013001Y015756D01*
X012773Y015850D01*
X011926Y015850D01*
X011699Y015756D01*
X011524Y015582D01*
X011430Y015354D01*
X011430Y015107D01*
X011430Y015238D02*
X006722Y015238D01*
X006707Y015397D02*
X011448Y015397D01*
X011513Y015555D02*
X006641Y015555D01*
X006502Y015714D02*
X011656Y015714D01*
X011507Y014921D02*
X010534Y014921D01*
X010521Y014934D02*
X010041Y014934D01*
X009701Y014594D01*
X009701Y014113D01*
X010041Y013774D01*
X010521Y013774D01*
X010861Y014113D01*
X010861Y014594D01*
X010521Y014934D01*
X010692Y014763D02*
X011641Y014763D01*
X010851Y014604D02*
X013726Y014604D01*
X013567Y014446D02*
X010861Y014446D01*
X010861Y014287D02*
X013409Y014287D01*
X013269Y014129D02*
X010861Y014129D01*
X010718Y013970D02*
X011692Y013970D01*
X011534Y013811D02*
X010559Y013811D01*
X010003Y013811D02*
X009492Y013811D01*
X009534Y013769D02*
X009371Y013933D01*
X009158Y014021D01*
X008927Y014021D01*
X008714Y013933D01*
X008551Y013769D01*
X008463Y013556D01*
X008463Y012806D01*
X008551Y012592D01*
X008714Y012429D01*
X008927Y012341D01*
X009158Y012341D01*
X009371Y012429D01*
X009534Y012592D01*
X009623Y012806D01*
X009623Y013556D01*
X009534Y013769D01*
X009583Y013653D02*
X011463Y013653D01*
X011430Y013494D02*
X009623Y013494D01*
X009623Y013336D02*
X011430Y013336D01*
X011492Y013177D02*
X009623Y013177D01*
X009623Y013019D02*
X011605Y013019D01*
X011854Y012860D02*
X009623Y012860D01*
X009580Y012702D02*
X013222Y012702D01*
X013222Y012860D02*
X012845Y012860D01*
X013095Y013019D02*
X013222Y013019D01*
X013208Y013177D02*
X013222Y013177D01*
X013222Y013811D02*
X013165Y013811D01*
X013222Y013970D02*
X013007Y013970D01*
X013622Y013934D02*
X014918Y015230D01*
X014910Y015230D01*
X014918Y015230D02*
X014934Y015247D01*
X015603Y015714D02*
X026089Y015714D01*
X026089Y015872D02*
X000547Y015872D01*
X000547Y015714D02*
X002541Y015714D01*
X002402Y015555D02*
X000547Y015555D01*
X000547Y016031D02*
X026089Y016031D01*
X026089Y016190D02*
X000547Y016190D01*
X003942Y015714D02*
X005101Y015714D01*
X004962Y015555D02*
X004081Y015555D01*
X004147Y015397D02*
X004831Y015397D01*
X004673Y015238D02*
X004162Y015238D01*
X004147Y015080D02*
X004514Y015080D01*
X004356Y014921D02*
X004082Y014921D01*
X004197Y014763D02*
X003943Y014763D01*
X004434Y014434D02*
X004434Y009184D01*
X004747Y008872D01*
X007684Y008872D01*
X009059Y007497D01*
X009434Y007497D01*
X009862Y007945D02*
X010006Y007945D01*
X010034Y008104D02*
X009704Y008104D01*
X010034Y008262D02*
X008859Y008262D01*
X008734Y008421D02*
X008700Y008421D01*
X008564Y008579D02*
X008542Y008579D01*
X008491Y008738D02*
X008383Y008738D01*
X008463Y008897D02*
X008225Y008897D01*
X008066Y009055D02*
X008463Y009055D01*
X008463Y009214D02*
X007904Y009214D01*
X008463Y009372D02*
X006693Y009372D01*
X006693Y009531D02*
X008463Y009531D01*
X008518Y009689D02*
X006650Y009689D01*
X006566Y009848D02*
X008630Y009848D01*
X008997Y010372D02*
X010434Y008934D01*
X010434Y007497D01*
X011054Y007470D02*
X011489Y007470D01*
X011434Y007311D02*
X011123Y007311D01*
X011281Y007153D02*
X011434Y007153D01*
X011440Y006994D02*
X011474Y006994D01*
X010872Y006997D02*
X008934Y006997D01*
X008684Y006747D01*
X008684Y006247D01*
X009434Y005497D01*
X009434Y005497D01*
X008962Y005092D02*
X008786Y005092D01*
X008795Y005250D02*
X008814Y005250D01*
X008814Y005409D02*
X008795Y005409D01*
X008795Y005567D02*
X008798Y005567D01*
X008720Y004933D02*
X008994Y004933D01*
X008835Y004774D02*
X008581Y004774D01*
X008814Y004616D02*
X006396Y004616D01*
X006554Y004457D02*
X008814Y004457D01*
X008671Y004299D02*
X006572Y004299D01*
X006572Y004440D02*
X006232Y004780D01*
X005752Y004780D01*
X005412Y004440D01*
X005412Y003959D01*
X005497Y003874D01*
X005339Y003874D01*
X005111Y003780D01*
X004937Y003606D01*
X004842Y003378D01*
X004842Y003131D01*
X004937Y002903D01*
X005111Y002729D01*
X005339Y002635D01*
X006186Y002635D01*
X006414Y002729D01*
X006588Y002903D01*
X006682Y003131D01*
X006682Y003378D01*
X006588Y003606D01*
X006414Y003780D01*
X006399Y003786D01*
X006572Y003959D01*
X006572Y004440D01*
X006572Y004140D02*
X008524Y004140D01*
X008472Y003982D02*
X006572Y003982D01*
X006436Y003823D02*
X008472Y003823D01*
X008472Y003665D02*
X006529Y003665D01*
X006629Y003506D02*
X008472Y003506D01*
X008472Y003348D02*
X006682Y003348D01*
X006682Y003189D02*
X008472Y003189D01*
X008472Y003030D02*
X006641Y003030D01*
X006557Y002872D02*
X008472Y002872D01*
X008472Y002713D02*
X006376Y002713D01*
X006906Y002238D02*
X002041Y002238D01*
X002042Y002274D02*
X002382Y002614D01*
X002382Y002898D01*
X002551Y002729D01*
X002779Y002635D01*
X003626Y002635D01*
X003854Y002729D01*
X004028Y002903D01*
X004122Y003131D01*
X004122Y003378D01*
X004028Y003606D01*
X003854Y003780D01*
X003626Y003874D01*
X003487Y003874D01*
X003572Y003959D01*
X003572Y004440D01*
X003232Y004780D01*
X002752Y004780D01*
X002588Y004616D02*
X000547Y004616D01*
X000547Y004457D02*
X002429Y004457D01*
X002412Y004299D02*
X000547Y004299D01*
X000547Y004140D02*
X002412Y004140D01*
X002412Y003982D02*
X000547Y003982D01*
X000547Y003823D02*
X002548Y003823D01*
X002436Y003665D02*
X000547Y003665D01*
X000547Y003506D02*
X002335Y003506D01*
X002282Y003348D02*
X002129Y003348D01*
X002382Y002872D02*
X002408Y002872D01*
X002382Y002713D02*
X002589Y002713D01*
X002323Y002555D02*
X008472Y002555D01*
X008472Y002396D02*
X002165Y002396D01*
X002042Y002274D02*
X002004Y002274D01*
X002242Y002036D01*
X002242Y001854D01*
X001803Y001854D01*
X001803Y001854D01*
X002242Y001854D01*
X002242Y001672D01*
X001984Y001414D01*
X001802Y001414D01*
X001802Y001854D01*
X001802Y001854D01*
X001802Y001414D01*
X001640Y001414D01*
X001640Y000975D01*
X001634Y000969D02*
X002531Y000969D01*
X002551Y000949D02*
X002779Y000855D01*
X003626Y000855D01*
X003854Y000949D01*
X004028Y001123D01*
X004122Y001351D01*
X004122Y001598D01*
X004028Y001826D01*
X003854Y002000D01*
X003626Y002094D01*
X002779Y002094D01*
X002551Y002000D01*
X002377Y001826D01*
X002282Y001598D01*
X002282Y001351D01*
X002377Y001123D01*
X002551Y000949D01*
X002375Y001128D02*
X001640Y001128D01*
X001640Y001286D02*
X002309Y001286D01*
X002282Y001445D02*
X002016Y001445D01*
X001802Y001445D02*
X001802Y001445D01*
X001802Y001604D02*
X001802Y001604D01*
X001802Y001762D02*
X001802Y001762D01*
X002174Y001604D02*
X002285Y001604D01*
X002242Y001762D02*
X002350Y001762D01*
X002242Y001921D02*
X002472Y001921D01*
X002742Y002079D02*
X002199Y002079D01*
X001564Y002238D02*
X000547Y002238D01*
X000547Y002396D02*
X001440Y002396D01*
X001281Y002555D02*
X000547Y002555D01*
X000547Y002713D02*
X001222Y002713D01*
X001222Y002872D02*
X000547Y002872D01*
X000547Y003030D02*
X001222Y003030D01*
X001317Y003189D02*
X000547Y003189D01*
X000547Y003348D02*
X001476Y003348D01*
X001405Y002079D02*
X001215Y002079D01*
X001476Y000811D02*
X006756Y000811D01*
X006652Y000969D02*
X006434Y000969D01*
X006590Y001128D02*
X006602Y001128D01*
X007000Y000652D02*
X001317Y000652D01*
X003663Y002079D02*
X005302Y002079D01*
X005032Y001921D02*
X003933Y001921D01*
X004054Y001762D02*
X004910Y001762D01*
X004845Y001604D02*
X004120Y001604D01*
X004122Y001445D02*
X004842Y001445D01*
X004869Y001286D02*
X004095Y001286D01*
X004030Y001128D02*
X004935Y001128D01*
X005091Y000969D02*
X003874Y000969D01*
X006223Y002079D02*
X006717Y002079D01*
X006636Y001921D02*
X006493Y001921D01*
X007459Y002238D02*
X007884Y002238D01*
X007726Y002079D02*
X007648Y002079D01*
X008872Y001497D02*
X008872Y003934D01*
X009434Y004497D01*
X009434Y004497D01*
X010434Y004497D02*
X011309Y003622D01*
X011309Y002684D01*
X011559Y002434D01*
X014122Y002434D01*
X014934Y003247D01*
X014920Y003260D01*
X014914Y003260D01*
X015059Y003809D02*
X016184Y004934D01*
X017809Y004934D01*
X019747Y006872D01*
X021559Y006872D01*
X021574Y006857D01*
X021574Y006826D01*
X022266Y007311D02*
X026089Y007311D01*
X026089Y007153D02*
X022410Y007153D01*
X022475Y006994D02*
X026089Y006994D01*
X026089Y006836D02*
X022494Y006836D01*
X022483Y006677D02*
X026089Y006677D01*
X026089Y006518D02*
X022417Y006518D01*
X022284Y006360D02*
X026089Y006360D01*
X026089Y006201D02*
X022376Y006201D01*
X022455Y006043D02*
X026089Y006043D01*
X026089Y005884D02*
X022494Y005884D01*
X022494Y005726D02*
X026089Y005726D01*
X026089Y005567D02*
X022438Y005567D01*
X022333Y005409D02*
X026089Y005409D01*
X026089Y005250D02*
X022327Y005250D01*
X022435Y005092D02*
X026089Y005092D01*
X026089Y004933D02*
X022494Y004933D01*
X022494Y004774D02*
X026089Y004774D01*
X026089Y004616D02*
X022458Y004616D01*
X022382Y004457D02*
X026089Y004457D01*
X026089Y004299D02*
X022220Y004299D01*
X022239Y004140D02*
X026089Y004140D01*
X026089Y003982D02*
X022329Y003982D01*
X022326Y003665D02*
X026089Y003665D01*
X026089Y003823D02*
X021594Y003823D01*
X021554Y003823D02*
X019545Y003823D01*
X019735Y003982D02*
X020819Y003982D01*
X020909Y004140D02*
X019893Y004140D01*
X020052Y004299D02*
X020927Y004299D01*
X020766Y004457D02*
X020210Y004457D01*
X020369Y004616D02*
X020690Y004616D01*
X020654Y004774D02*
X020528Y004774D01*
X021059Y005872D02*
X019372Y004184D01*
X018747Y004184D01*
X016997Y002434D01*
X016997Y001559D01*
X016247Y000809D01*
X009559Y000809D01*
X008872Y001497D01*
X009272Y001662D02*
X009272Y003017D01*
X009414Y003017D01*
X009414Y003476D01*
X009454Y003476D01*
X009454Y003017D01*
X009633Y003017D01*
X009835Y003219D01*
X010177Y002877D01*
X010691Y002877D01*
X010909Y003095D01*
X010909Y002605D01*
X010970Y002458D01*
X011082Y002345D01*
X011332Y002095D01*
X011479Y002034D01*
X011639Y002034D01*
X011771Y002034D01*
X011703Y002006D01*
X011529Y001832D01*
X011434Y001604D01*
X011434Y001357D01*
X011495Y001209D01*
X009725Y001209D01*
X009272Y001662D01*
X009330Y001604D02*
X011434Y001604D01*
X011434Y001445D02*
X009489Y001445D01*
X009647Y001286D02*
X011463Y001286D01*
X011500Y001762D02*
X009272Y001762D01*
X009272Y001921D02*
X011618Y001921D01*
X011371Y002079D02*
X009272Y002079D01*
X009272Y002238D02*
X011190Y002238D01*
X011031Y002396D02*
X009272Y002396D01*
X009272Y002555D02*
X010930Y002555D01*
X010909Y002713D02*
X009272Y002713D01*
X009272Y002872D02*
X010909Y002872D01*
X010909Y003030D02*
X010845Y003030D01*
X010023Y003030D02*
X009647Y003030D01*
X009454Y003030D02*
X009414Y003030D01*
X009414Y003189D02*
X009454Y003189D01*
X009454Y003348D02*
X009414Y003348D01*
X009805Y003189D02*
X009865Y003189D01*
X010434Y004497D02*
X010434Y004497D01*
X010434Y005497D02*
X011872Y004059D01*
X012122Y003809D01*
X015059Y003809D01*
X015497Y004747D02*
X011934Y004747D01*
X011247Y005434D01*
X011247Y005684D01*
X010434Y006497D01*
X010434Y006497D01*
X010872Y006997D02*
X011497Y006372D01*
X013184Y006372D01*
X013622Y006809D01*
X013622Y013934D01*
X014022Y013177D02*
X014052Y013177D01*
X014022Y013019D02*
X014165Y013019D01*
X014022Y012860D02*
X014414Y012860D01*
X014022Y012702D02*
X026089Y012702D01*
X026089Y012860D02*
X015405Y012860D01*
X015655Y013019D02*
X017272Y013019D01*
X017338Y012952D02*
X017175Y013116D01*
X017087Y013329D01*
X017087Y014079D01*
X017175Y014293D01*
X017338Y014456D01*
X017551Y014544D01*
X017782Y014544D01*
X017995Y014456D01*
X018158Y014293D01*
X018247Y014079D01*
X018247Y013329D01*
X018158Y013116D01*
X017995Y012952D01*
X017782Y012864D01*
X017551Y012864D01*
X017338Y012952D01*
X017149Y013177D02*
X015768Y013177D01*
X015830Y013336D02*
X016036Y013336D01*
X015877Y013494D02*
X015830Y013494D01*
X016677Y013336D02*
X017087Y013336D01*
X017087Y013494D02*
X016835Y013494D01*
X016936Y013653D02*
X017087Y013653D01*
X017087Y013811D02*
X016936Y013811D01*
X016936Y013970D02*
X017087Y013970D01*
X017107Y014129D02*
X016883Y014129D01*
X016725Y014287D02*
X017173Y014287D01*
X017328Y014446D02*
X016786Y014446D01*
X016936Y014604D02*
X026089Y014604D01*
X026089Y014446D02*
X019354Y014446D01*
X019350Y014449D02*
X018870Y014449D01*
X018530Y014109D01*
X018530Y013629D01*
X018870Y013289D01*
X019350Y013289D01*
X019690Y013629D01*
X019690Y014109D01*
X019350Y014449D01*
X019512Y014287D02*
X021906Y014287D01*
X021928Y014309D02*
X021670Y014051D01*
X021670Y013869D01*
X021670Y013687D01*
X021928Y013429D01*
X022110Y013429D01*
X022292Y013429D01*
X022550Y013687D01*
X022550Y013869D01*
X022110Y013869D01*
X022110Y013429D01*
X022110Y013869D01*
X022110Y013869D01*
X022110Y013869D01*
X021670Y013869D01*
X022110Y013869D01*
X022110Y013869D01*
X022550Y013869D01*
X022550Y014051D01*
X022292Y014309D01*
X022110Y014309D01*
X022110Y013870D01*
X022110Y013870D01*
X022110Y014309D01*
X021928Y014309D01*
X022110Y014287D02*
X022110Y014287D01*
X022110Y014129D02*
X022110Y014129D01*
X022110Y013970D02*
X022110Y013970D01*
X022110Y013811D02*
X022110Y013811D01*
X022110Y013653D02*
X022110Y013653D01*
X022110Y013494D02*
X022110Y013494D01*
X022357Y013494D02*
X026089Y013494D01*
X026089Y013336D02*
X019397Y013336D01*
X019555Y013494D02*
X021863Y013494D01*
X021704Y013653D02*
X019690Y013653D01*
X019690Y013811D02*
X021670Y013811D01*
X021670Y013970D02*
X019690Y013970D01*
X019671Y014129D02*
X021747Y014129D01*
X022314Y014287D02*
X026089Y014287D01*
X026089Y014129D02*
X022473Y014129D01*
X022550Y013970D02*
X026089Y013970D01*
X026089Y013811D02*
X022550Y013811D01*
X022516Y013653D02*
X026089Y013653D01*
X026089Y013177D02*
X018184Y013177D01*
X018247Y013336D02*
X018823Y013336D01*
X018665Y013494D02*
X018247Y013494D01*
X018247Y013653D02*
X018530Y013653D01*
X018530Y013811D02*
X018247Y013811D01*
X018247Y013970D02*
X018530Y013970D01*
X018549Y014129D02*
X018226Y014129D01*
X018161Y014287D02*
X018708Y014287D01*
X018866Y014446D02*
X018005Y014446D01*
X016936Y014763D02*
X026089Y014763D01*
X026089Y014921D02*
X016936Y014921D01*
X016932Y015080D02*
X026089Y015080D01*
X026089Y015238D02*
X016773Y015238D01*
X016615Y015397D02*
X026089Y015397D01*
X026089Y015555D02*
X015746Y015555D01*
X015812Y015397D02*
X016097Y015397D01*
X015939Y015238D02*
X015830Y015238D01*
X014216Y015714D02*
X013043Y015714D01*
X013186Y015555D02*
X014073Y015555D01*
X014008Y015397D02*
X013252Y015397D01*
X013270Y015238D02*
X013990Y015238D01*
X014001Y015080D02*
X013258Y015080D01*
X013193Y014921D02*
X014043Y014921D01*
X013884Y014763D02*
X013059Y014763D01*
X010029Y014921D02*
X007534Y014921D01*
X007521Y014934D02*
X007041Y014934D01*
X006701Y014594D01*
X006701Y014113D01*
X007041Y013774D01*
X007521Y013774D01*
X007861Y014113D01*
X007861Y014594D01*
X007521Y014934D01*
X007692Y014763D02*
X009870Y014763D01*
X009712Y014604D02*
X007851Y014604D01*
X007861Y014446D02*
X009701Y014446D01*
X009701Y014287D02*
X007861Y014287D01*
X007861Y014129D02*
X009701Y014129D01*
X009845Y013970D02*
X009281Y013970D01*
X008805Y013970D02*
X007718Y013970D01*
X007559Y013811D02*
X008593Y013811D01*
X008503Y013653D02*
X006692Y013653D01*
X006722Y013494D02*
X008463Y013494D01*
X008463Y013336D02*
X006722Y013336D01*
X006657Y013177D02*
X008463Y013177D01*
X008463Y013019D02*
X006539Y013019D01*
X006279Y012860D02*
X008463Y012860D01*
X008506Y012702D02*
X006434Y012702D01*
X006571Y012543D02*
X008600Y012543D01*
X008822Y012385D02*
X007524Y012385D01*
X007238Y012385D02*
X006571Y012385D01*
X006708Y012226D02*
X006971Y012226D01*
X006684Y011684D02*
X005997Y012372D01*
X005991Y012366D01*
X005991Y012324D01*
X005548Y012702D02*
X004834Y012702D01*
X004834Y012860D02*
X005324Y012860D01*
X005064Y013019D02*
X004834Y013019D01*
X004834Y013177D02*
X004947Y013177D01*
X004882Y013336D02*
X004834Y013336D01*
X004834Y013494D02*
X004882Y013494D01*
X004911Y013653D02*
X004834Y013653D01*
X004834Y013811D02*
X004979Y013811D01*
X004834Y013970D02*
X005137Y013970D01*
X004834Y014129D02*
X006701Y014129D01*
X006701Y014287D02*
X004853Y014287D01*
X005011Y014446D02*
X006701Y014446D01*
X006712Y014604D02*
X005170Y014604D01*
X006466Y013970D02*
X006845Y013970D01*
X007003Y013811D02*
X006625Y013811D01*
X005411Y012543D02*
X004834Y012543D01*
X004834Y012385D02*
X005411Y012385D01*
X005411Y012226D02*
X004834Y012226D01*
X004834Y012067D02*
X005428Y012067D01*
X005586Y011909D02*
X004834Y011909D01*
X004834Y011750D02*
X005102Y011750D01*
X004946Y011592D02*
X004834Y011592D01*
X004834Y011433D02*
X004880Y011433D01*
X004853Y011275D02*
X004834Y011275D01*
X004834Y011116D02*
X004854Y011116D01*
X004834Y010958D02*
X004920Y010958D01*
X004834Y010799D02*
X005041Y010799D01*
X004834Y010641D02*
X005309Y010641D01*
X004834Y010482D02*
X006284Y010482D01*
X006284Y010323D02*
X004834Y010323D01*
X004834Y010165D02*
X006337Y010165D01*
X006383Y010006D02*
X006521Y010006D01*
X006684Y010372D02*
X008997Y010372D01*
X009293Y010641D02*
X011924Y010641D01*
X011636Y010799D02*
X007697Y010799D01*
X007863Y010958D02*
X011507Y010958D01*
X011442Y011116D02*
X007934Y011116D01*
X007961Y011275D02*
X011434Y011275D01*
X011456Y011433D02*
X007961Y011433D01*
X007961Y011592D02*
X011521Y011592D01*
X011670Y011750D02*
X007961Y011750D01*
X007961Y011909D02*
X013222Y011909D01*
X013222Y012067D02*
X007905Y012067D01*
X007791Y012226D02*
X013222Y012226D01*
X013222Y012385D02*
X009263Y012385D01*
X009485Y012543D02*
X013222Y012543D01*
X014022Y012543D02*
X026089Y012543D01*
X026089Y012385D02*
X022146Y012385D01*
X022351Y012226D02*
X026089Y012226D01*
X026089Y012067D02*
X022445Y012067D01*
X022494Y011909D02*
X026089Y011909D01*
X026089Y011750D02*
X022494Y011750D01*
X022448Y011592D02*
X026089Y011592D01*
X026089Y011433D02*
X022358Y011433D01*
X022302Y011275D02*
X026089Y011275D01*
X026089Y011116D02*
X022425Y011116D01*
X022491Y010958D02*
X026089Y010958D01*
X026089Y010799D02*
X022494Y010799D01*
X022468Y010641D02*
X026089Y010641D01*
X026089Y010482D02*
X022402Y010482D01*
X022254Y010323D02*
X026089Y010323D01*
X026089Y010165D02*
X022405Y010165D01*
X022470Y010006D02*
X026089Y010006D01*
X026089Y009848D02*
X022494Y009848D01*
X022488Y009689D02*
X026089Y009689D01*
X026089Y009531D02*
X022422Y009531D01*
X022296Y009372D02*
X026089Y009372D01*
X026089Y009214D02*
X022363Y009214D01*
X022450Y009055D02*
X026089Y009055D01*
X026089Y008897D02*
X022494Y008897D01*
X022494Y008738D02*
X026089Y008738D01*
X026089Y008579D02*
X022443Y008579D01*
X022345Y008421D02*
X026089Y008421D01*
X026089Y008262D02*
X022315Y008262D01*
X022430Y008104D02*
X026089Y008104D01*
X026089Y007945D02*
X022494Y007945D01*
X022494Y007787D02*
X026089Y007787D01*
X026089Y007628D02*
X022463Y007628D01*
X022394Y007470D02*
X026089Y007470D01*
X021574Y008824D02*
X021574Y008826D01*
X021574Y008824D02*
X021559Y008809D01*
X020997Y008809D01*
X017434Y005247D01*
X015997Y005247D01*
X015497Y004747D01*
X016870Y005726D02*
X017348Y005726D01*
X017506Y005884D02*
X016870Y005884D01*
X016870Y006043D02*
X017665Y006043D01*
X017823Y006201D02*
X016751Y006201D01*
X016628Y006360D02*
X017982Y006360D01*
X018140Y006518D02*
X016786Y006518D01*
X016870Y006677D02*
X018299Y006677D01*
X018457Y006836D02*
X016870Y006836D01*
X016870Y006994D02*
X018616Y006994D01*
X018774Y007153D02*
X016800Y007153D01*
X016641Y007311D02*
X018933Y007311D01*
X019091Y007470D02*
X015779Y007470D01*
X015834Y007311D02*
X015939Y007311D01*
X015677Y007628D02*
X016244Y007628D01*
X016011Y007787D02*
X015452Y007787D01*
X015912Y007945D02*
X014022Y007945D01*
X014022Y007787D02*
X014376Y007787D01*
X014151Y007628D02*
X014022Y007628D01*
X014022Y007470D02*
X014049Y007470D01*
X014022Y008104D02*
X015866Y008104D01*
X015866Y008262D02*
X014022Y008262D01*
X014022Y008421D02*
X015921Y008421D01*
X016033Y008579D02*
X014022Y008579D01*
X014022Y008738D02*
X016296Y008738D01*
X016351Y008897D02*
X015431Y008897D01*
X015668Y009055D02*
X016351Y009055D01*
X016351Y009214D02*
X015776Y009214D01*
X015834Y009372D02*
X015967Y009372D01*
X016862Y009689D02*
X017087Y009689D01*
X017087Y009848D02*
X016862Y009848D01*
X016862Y010006D02*
X017087Y010006D01*
X017122Y010165D02*
X016814Y010165D01*
X016656Y010323D02*
X017206Y010323D01*
X017402Y010482D02*
X016707Y010482D01*
X016862Y010641D02*
X020680Y010641D01*
X020654Y010799D02*
X016862Y010799D01*
X016862Y010958D02*
X020657Y010958D01*
X020723Y011116D02*
X016862Y011116D01*
X016705Y011275D02*
X020845Y011275D01*
X020790Y011433D02*
X016546Y011433D01*
X016018Y011433D02*
X015812Y011433D01*
X015834Y011275D02*
X015859Y011275D01*
X015747Y011592D02*
X020700Y011592D01*
X020654Y011750D02*
X015598Y011750D01*
X014230Y011750D02*
X014022Y011750D01*
X014022Y011592D02*
X014081Y011592D01*
X014022Y011909D02*
X020654Y011909D01*
X020703Y012067D02*
X014022Y012067D01*
X014022Y012226D02*
X020797Y012226D01*
X021001Y012385D02*
X014022Y012385D01*
X013222Y011750D02*
X013038Y011750D01*
X013187Y011592D02*
X013222Y011592D01*
X013201Y010958D02*
X013222Y010958D01*
X013222Y010799D02*
X013072Y010799D01*
X013222Y010641D02*
X012784Y010641D01*
X013222Y010482D02*
X009452Y010482D01*
X009610Y010323D02*
X013222Y010323D01*
X013222Y010165D02*
X009769Y010165D01*
X009928Y010006D02*
X011710Y010006D01*
X011547Y009848D02*
X010086Y009848D01*
X010245Y009689D02*
X011471Y009689D01*
X011434Y009531D02*
X010403Y009531D01*
X010562Y009372D02*
X011434Y009372D01*
X011492Y009214D02*
X010720Y009214D01*
X010817Y009055D02*
X011600Y009055D01*
X011837Y008897D02*
X010834Y008897D01*
X010834Y008738D02*
X012296Y008738D01*
X012033Y008579D02*
X010834Y008579D01*
X010834Y008421D02*
X011921Y008421D01*
X011866Y008262D02*
X010834Y008262D01*
X010834Y008104D02*
X011866Y008104D01*
X011912Y007945D02*
X010862Y007945D01*
X011021Y007787D02*
X011816Y007787D01*
X011591Y007628D02*
X011054Y007628D01*
X010034Y008421D02*
X009351Y008421D01*
X009522Y008579D02*
X010034Y008579D01*
X010034Y008738D02*
X009595Y008738D01*
X009623Y008897D02*
X009906Y008897D01*
X009747Y009055D02*
X009623Y009055D01*
X009165Y008104D02*
X009017Y008104D01*
X008362Y007628D02*
X007961Y007628D01*
X007961Y007470D02*
X008520Y007470D01*
X008679Y007311D02*
X007961Y007311D01*
X007950Y007153D02*
X008524Y007153D01*
X008366Y006994D02*
X007884Y006994D01*
X007741Y006836D02*
X008288Y006836D01*
X008284Y006677D02*
X006347Y006677D01*
X006544Y006836D02*
X007021Y006836D01*
X006878Y006994D02*
X006636Y006994D01*
X006682Y007153D02*
X006813Y007153D01*
X006801Y007311D02*
X006682Y007311D01*
X006634Y007470D02*
X006801Y007470D01*
X006801Y007628D02*
X006541Y007628D01*
X006339Y007787D02*
X006801Y007787D01*
X006807Y007945D02*
X006387Y007945D01*
X006546Y008104D02*
X006873Y008104D01*
X007007Y008262D02*
X006588Y008262D01*
X006588Y008421D02*
X007569Y008421D01*
X007955Y007945D02*
X008045Y007945D01*
X007961Y007787D02*
X008203Y007787D01*
X008284Y006518D02*
X002295Y006518D01*
X002374Y006677D02*
X002618Y006677D01*
X002420Y006836D02*
X002374Y006836D01*
X002282Y007311D02*
X002141Y007311D01*
X003387Y007945D02*
X005629Y007945D01*
X005471Y008104D02*
X003546Y008104D01*
X003588Y008262D02*
X005428Y008262D01*
X005428Y008421D02*
X003588Y008421D01*
X003588Y008579D02*
X004473Y008579D01*
X004315Y008738D02*
X003477Y008738D01*
X003763Y008897D02*
X004156Y008897D01*
X004055Y009055D02*
X003981Y009055D01*
X004834Y009372D02*
X004853Y009372D01*
X004853Y009531D02*
X004834Y009531D01*
X004834Y009689D02*
X004895Y009689D01*
X004834Y009848D02*
X004980Y009848D01*
X004834Y010006D02*
X005162Y010006D01*
X004034Y010006D02*
X003823Y010006D01*
X004006Y009848D02*
X004034Y009848D01*
X004034Y010165D02*
X002064Y010165D01*
X002056Y010323D02*
X004034Y010323D01*
X004034Y010482D02*
X002214Y010482D01*
X002339Y010641D02*
X002749Y010641D01*
X002481Y010799D02*
X002339Y010799D01*
X002339Y010958D02*
X002360Y010958D01*
X002293Y011275D02*
X002152Y011275D01*
X002320Y011433D02*
X000547Y011433D01*
X000547Y011592D02*
X002386Y011592D01*
X003676Y010641D02*
X004034Y010641D01*
X004034Y010799D02*
X003945Y010799D01*
X006236Y010641D02*
X006284Y010641D01*
X006684Y010372D02*
X006684Y011684D01*
X005186Y007787D02*
X003779Y007787D01*
X003981Y007628D02*
X004984Y007628D01*
X004890Y007470D02*
X004074Y007470D01*
X004122Y007311D02*
X004842Y007311D01*
X004842Y007153D02*
X004122Y007153D01*
X004076Y006994D02*
X004889Y006994D01*
X004980Y006836D02*
X003984Y006836D01*
X003787Y006677D02*
X005178Y006677D01*
X005273Y006043D02*
X003692Y006043D01*
X003945Y005884D02*
X005020Y005884D01*
X004905Y005726D02*
X004059Y005726D01*
X004122Y005567D02*
X004842Y005567D01*
X004842Y005409D02*
X004122Y005409D01*
X004090Y005250D02*
X004874Y005250D01*
X004944Y005092D02*
X004021Y005092D01*
X003862Y004933D02*
X005103Y004933D01*
X005588Y004616D02*
X003396Y004616D01*
X003554Y004457D02*
X005429Y004457D01*
X005412Y004299D02*
X003572Y004299D01*
X003572Y004140D02*
X005412Y004140D01*
X005412Y003982D02*
X003572Y003982D01*
X003750Y003823D02*
X005215Y003823D01*
X004996Y003665D02*
X003969Y003665D01*
X004069Y003506D02*
X004895Y003506D01*
X004842Y003348D02*
X004122Y003348D01*
X004122Y003189D02*
X004842Y003189D01*
X004884Y003030D02*
X004081Y003030D01*
X003997Y002872D02*
X004968Y002872D01*
X005149Y002713D02*
X003816Y002713D01*
X003237Y004774D02*
X005746Y004774D01*
X006237Y004774D02*
X006792Y004774D01*
X006667Y004933D02*
X006422Y004933D01*
X006581Y005092D02*
X006602Y005092D01*
X006621Y005884D02*
X006505Y005884D01*
X006686Y006043D02*
X006252Y006043D01*
X006839Y006201D02*
X002052Y006201D01*
X002136Y006360D02*
X008284Y006360D01*
X007848Y006201D02*
X007526Y006201D01*
X007678Y006043D02*
X007709Y006043D01*
X007698Y004933D02*
X007709Y004933D01*
X007572Y004774D02*
X007848Y004774D01*
X010434Y005497D02*
X010434Y005497D01*
X013116Y008738D02*
X013222Y008738D01*
X013222Y008897D02*
X012871Y008897D01*
X013108Y009055D02*
X013222Y009055D01*
X013216Y009214D02*
X013222Y009214D01*
X014022Y009214D02*
X014052Y009214D01*
X014022Y009055D02*
X014160Y009055D01*
X014022Y008897D02*
X014397Y008897D01*
X013222Y009848D02*
X013161Y009848D01*
X013222Y010006D02*
X012998Y010006D01*
X017379Y008579D02*
X019267Y008579D01*
X019108Y008421D02*
X017491Y008421D01*
X017546Y008262D02*
X019082Y008262D01*
X019082Y008104D02*
X017546Y008104D01*
X017500Y007945D02*
X019166Y007945D01*
X019325Y007787D02*
X017401Y007787D01*
X017168Y007628D02*
X019250Y007628D01*
X019521Y008262D02*
X019522Y008262D01*
X019521Y008421D02*
X019522Y008421D01*
X019521Y008579D02*
X019522Y008579D01*
X019635Y008738D02*
X017424Y008738D01*
X017860Y008897D02*
X019491Y008897D01*
X019491Y008883D02*
X019748Y008625D01*
X019930Y008625D01*
X019930Y009065D01*
X019491Y009065D01*
X019491Y008883D01*
X019491Y009055D02*
X018098Y009055D01*
X018199Y009214D02*
X019491Y009214D01*
X019491Y009247D02*
X019491Y009065D01*
X019930Y009065D01*
X019930Y009065D01*
X019931Y009065D01*
X019931Y009065D01*
X020371Y009065D01*
X020371Y008883D01*
X020113Y008625D01*
X019931Y008625D01*
X019931Y009065D01*
X020371Y009065D01*
X020371Y009247D01*
X020113Y009505D01*
X019931Y009505D01*
X019931Y009065D01*
X019930Y009065D01*
X019930Y009505D01*
X019748Y009505D01*
X019491Y009247D01*
X019616Y009372D02*
X018247Y009372D01*
X018247Y009531D02*
X020725Y009531D01*
X020660Y009689D02*
X018247Y009689D01*
X018247Y009848D02*
X020654Y009848D01*
X020677Y010006D02*
X018247Y010006D01*
X018211Y010165D02*
X020743Y010165D01*
X020894Y010323D02*
X018127Y010323D01*
X017932Y010482D02*
X020745Y010482D01*
X020851Y009372D02*
X020246Y009372D01*
X020371Y009214D02*
X020784Y009214D01*
X020677Y009055D02*
X020371Y009055D01*
X020371Y008897D02*
X020518Y008897D01*
X020360Y008738D02*
X020226Y008738D01*
X020201Y008579D02*
X019776Y008579D01*
X019930Y008738D02*
X019931Y008738D01*
X019930Y008897D02*
X019931Y008897D01*
X019930Y009055D02*
X019931Y009055D01*
X019930Y009214D02*
X019931Y009214D01*
X019930Y009372D02*
X019931Y009372D01*
X019935Y008421D02*
X020043Y008421D01*
X021059Y005872D02*
X021559Y005872D01*
X021604Y005826D01*
X021574Y005826D01*
X021604Y005826D02*
X021622Y005809D01*
X020821Y003665D02*
X018793Y003665D01*
X018634Y003506D02*
X020915Y003506D01*
X020918Y003348D02*
X018476Y003348D01*
X018317Y003189D02*
X020760Y003189D01*
X020687Y003030D02*
X018159Y003030D01*
X018000Y002872D02*
X020654Y002872D01*
X020654Y002713D02*
X017841Y002713D01*
X017949Y002555D02*
X020715Y002555D01*
X020650Y002396D02*
X020649Y002396D01*
X020649Y002238D02*
X020650Y002238D01*
X020649Y002079D02*
X020650Y002079D01*
X020649Y001921D02*
X020650Y001921D01*
X020649Y001762D02*
X020650Y001762D01*
X020649Y001604D02*
X020650Y001604D01*
X020841Y001604D02*
X026089Y001604D01*
X026089Y001762D02*
X020999Y001762D01*
X021089Y001921D02*
X026089Y001921D01*
X026089Y002079D02*
X021089Y002079D01*
X021075Y002238D02*
X021068Y002238D01*
X020389Y002396D02*
X018108Y002396D01*
X018229Y002238D02*
X020231Y002238D01*
X020209Y002079D02*
X018229Y002079D01*
X018229Y001921D02*
X020209Y001921D01*
X020299Y001762D02*
X018197Y001762D01*
X018039Y001604D02*
X020458Y001604D01*
X020836Y001286D02*
X018373Y001286D01*
X018439Y001128D02*
X020770Y001128D01*
X020764Y000969D02*
X018444Y000969D01*
X018414Y000811D02*
X020795Y000811D01*
X020871Y000652D02*
X018337Y000652D01*
X018239Y001445D02*
X020970Y001445D01*
X022239Y001445D02*
X026089Y001445D01*
X026089Y001286D02*
X022373Y001286D01*
X022439Y001128D02*
X026089Y001128D01*
X026089Y000969D02*
X022444Y000969D01*
X022414Y000811D02*
X026089Y000811D01*
X026089Y000652D02*
X022337Y000652D01*
X022073Y002238D02*
X026089Y002238D01*
X026089Y002396D02*
X022321Y002396D01*
X022432Y002555D02*
X026089Y002555D01*
X026089Y002713D02*
X022494Y002713D01*
X022494Y002872D02*
X026089Y002872D01*
X026089Y003030D02*
X022460Y003030D01*
X022388Y003189D02*
X026089Y003189D01*
X026089Y003348D02*
X022229Y003348D01*
X022232Y003506D02*
X026089Y003506D01*
X026089Y013019D02*
X018061Y013019D01*
X002713Y006043D02*
X002211Y006043D01*
X002234Y005884D02*
X002460Y005884D01*
X002345Y005726D02*
X002234Y005726D01*
X002282Y005567D02*
X002146Y005567D01*
D15*
X000820Y001315D03*
X000820Y012466D03*
M02*
