%
M48
M72
T01C0.0320
T02C0.0400
T03C0.0512
%
T01
X1802Y1854
X1802Y2854
X2992Y4200
X1794Y5838
X1794Y6838
X3008Y8386
X1759Y9848
X1759Y10848
X2991Y12324
X1814Y13841
X1814Y14841
X5991Y12324
X7381Y11556
X9043Y13181
X10281Y14354
X7281Y14354
X9043Y9181
X7381Y7556
X6008Y8386
X7182Y5465
X8215Y5488
X5992Y4200
X7182Y1465
X8215Y1488
X12714Y4262
X16277Y2877
X17649Y2034
X16277Y1877
X17604Y999
X20649Y2034
X21604Y999
X16714Y4262
X16290Y5842
X16290Y6842
X16706Y8172
X16931Y9065
X17667Y9704
X16282Y9877
X16282Y10877
X19931Y9065
X19522Y8212
X19522Y5212
X12706Y8172
X17667Y13704
X16356Y13835
X16356Y14835
X19110Y13869
X22110Y13869
T02
X21574Y11826
X21574Y10826
X21574Y9826
X21574Y8826
X21574Y7826
X21574Y6826
X21574Y5826
X21574Y4826
X21574Y3826
X21574Y2826
X14914Y3260
X12354Y3260
X10434Y3497
X9434Y3497
X9434Y4497
X10434Y4497
X10434Y5497
X9434Y5497
X9434Y6497
X10434Y6497
X10434Y7497
X9434Y7497
X12354Y7214
X14914Y7214
X14914Y5434
X12354Y5434
X12354Y1480
X14914Y1480
X5762Y1475
X3202Y1475
X3202Y3255
X5762Y3255
X5762Y5450
X5762Y7230
X3202Y7230
X3202Y5450
X3213Y9464
X5773Y9464
X5773Y11244
X3213Y11244
X3242Y13458
X5802Y13458
X5802Y15238
X3242Y15238
X12350Y15230
X14910Y15230
X14910Y13450
X12350Y13450
X12354Y11258
X14914Y11258
X14914Y9478
X12354Y9478
T03
X820Y1315
X820Y12466
M30
