G75*
G70*
%OFA0B0*%
%FSLAX24Y24*%
%IPPOS*%
%LPD*%
%AMOC8*
5,1,8,0,0,1.08239X$1,22.5*
%
%ADD10C,0.0000*%
%ADD11C,0.0060*%
%ADD12C,0.0100*%
%ADD13C,0.0050*%
%ADD14C,0.0040*%
%ADD15C,0.0020*%
%ADD16R,0.0800X0.0200*%
%ADD17R,0.0200X0.0750*%
%ADD18R,0.0200X0.0800*%
%ADD19R,0.0750X0.0200*%
D10*
X000358Y000332D02*
X000358Y016080D01*
X026540Y016080D01*
X026540Y000332D01*
X000358Y000332D01*
D11*
X001333Y002102D02*
X001335Y002147D01*
X001340Y002193D01*
X001348Y002237D01*
X001360Y002281D01*
X001376Y002324D01*
X001394Y002366D01*
X001416Y002406D01*
X001440Y002444D01*
X001467Y002480D01*
X001497Y002515D01*
X001530Y002546D01*
X001565Y002576D01*
X001333Y002102D02*
X001335Y002057D01*
X001340Y002011D01*
X001348Y001967D01*
X001360Y001923D01*
X001376Y001880D01*
X001394Y001838D01*
X001416Y001798D01*
X001440Y001760D01*
X001467Y001724D01*
X001497Y001689D01*
X001530Y001658D01*
X001565Y001628D01*
X002533Y002102D02*
X002531Y002148D01*
X002526Y002194D01*
X002517Y002240D01*
X002505Y002285D01*
X002489Y002328D01*
X002470Y002370D01*
X002447Y002411D01*
X002422Y002450D01*
X002394Y002486D01*
X002363Y002521D01*
X002329Y002553D01*
X002293Y002582D01*
X002533Y002102D02*
X002531Y002055D01*
X002525Y002007D01*
X002516Y001961D01*
X002503Y001915D01*
X002487Y001871D01*
X002467Y001827D01*
X002443Y001786D01*
X002417Y001747D01*
X002387Y001710D01*
X002354Y001675D01*
X002319Y001643D01*
X002282Y001614D01*
X003313Y001813D02*
X003413Y001813D01*
X003413Y001713D01*
X003313Y001813D02*
X003313Y002413D01*
X003413Y002413D01*
X003413Y002513D01*
X003763Y003313D02*
X004113Y003313D01*
X005113Y003313D01*
X005463Y003313D01*
X005813Y002513D02*
X005813Y002413D01*
X005913Y002413D01*
X005913Y001813D01*
X005813Y001813D01*
X005813Y001713D01*
X004513Y002113D02*
X004515Y002133D01*
X004521Y002151D01*
X004530Y002169D01*
X004542Y002184D01*
X004557Y002196D01*
X004575Y002205D01*
X004593Y002211D01*
X004613Y002213D01*
X004633Y002211D01*
X004651Y002205D01*
X004669Y002196D01*
X004684Y002184D01*
X004696Y002169D01*
X004705Y002151D01*
X004711Y002133D01*
X004713Y002113D01*
X004711Y002093D01*
X004705Y002075D01*
X004696Y002057D01*
X004684Y002042D01*
X004669Y002030D01*
X004651Y002021D01*
X004633Y002015D01*
X004613Y002013D01*
X004593Y002015D01*
X004575Y002021D01*
X004557Y002030D01*
X004542Y002042D01*
X004530Y002057D01*
X004521Y002075D01*
X004515Y002093D01*
X004513Y002113D01*
X003913Y002113D02*
X003915Y002165D01*
X003921Y002217D01*
X003931Y002269D01*
X003944Y002319D01*
X003961Y002369D01*
X003982Y002417D01*
X004007Y002463D01*
X004035Y002507D01*
X004066Y002549D01*
X004100Y002589D01*
X004137Y002626D01*
X004177Y002660D01*
X004219Y002691D01*
X004263Y002719D01*
X004309Y002744D01*
X004357Y002765D01*
X004407Y002782D01*
X004457Y002795D01*
X004509Y002805D01*
X004561Y002811D01*
X004613Y002813D01*
X004665Y002811D01*
X004717Y002805D01*
X004769Y002795D01*
X004819Y002782D01*
X004869Y002765D01*
X004917Y002744D01*
X004963Y002719D01*
X005007Y002691D01*
X005049Y002660D01*
X005089Y002626D01*
X005126Y002589D01*
X005160Y002549D01*
X005191Y002507D01*
X005219Y002463D01*
X005244Y002417D01*
X005265Y002369D01*
X005282Y002319D01*
X005295Y002269D01*
X005305Y002217D01*
X005311Y002165D01*
X005313Y002113D01*
X005311Y002061D01*
X005305Y002009D01*
X005295Y001957D01*
X005282Y001907D01*
X005265Y001857D01*
X005244Y001809D01*
X005219Y001763D01*
X005191Y001719D01*
X005160Y001677D01*
X005126Y001637D01*
X005089Y001600D01*
X005049Y001566D01*
X005007Y001535D01*
X004963Y001507D01*
X004917Y001482D01*
X004869Y001461D01*
X004819Y001444D01*
X004769Y001431D01*
X004717Y001421D01*
X004665Y001415D01*
X004613Y001413D01*
X004561Y001415D01*
X004509Y001421D01*
X004457Y001431D01*
X004407Y001444D01*
X004357Y001461D01*
X004309Y001482D01*
X004263Y001507D01*
X004219Y001535D01*
X004177Y001566D01*
X004137Y001600D01*
X004100Y001637D01*
X004066Y001677D01*
X004035Y001719D01*
X004007Y001763D01*
X003982Y001809D01*
X003961Y001857D01*
X003944Y001907D01*
X003931Y001957D01*
X003921Y002009D01*
X003915Y002061D01*
X003913Y002113D01*
X003763Y000913D02*
X004113Y000913D01*
X005063Y000913D01*
X005463Y000913D01*
X007078Y002282D02*
X007678Y002282D01*
X007695Y002284D01*
X007712Y002288D01*
X007728Y002295D01*
X007742Y002305D01*
X007755Y002318D01*
X007765Y002332D01*
X007772Y002348D01*
X007776Y002365D01*
X007778Y002382D01*
X007778Y003982D01*
X007776Y003999D01*
X007772Y004016D01*
X007765Y004032D01*
X007755Y004046D01*
X007742Y004059D01*
X007728Y004069D01*
X007712Y004076D01*
X007695Y004080D01*
X007678Y004082D01*
X007078Y004082D01*
X007061Y004080D01*
X007044Y004076D01*
X007028Y004069D01*
X007014Y004059D01*
X007001Y004046D01*
X006991Y004032D01*
X006984Y004016D01*
X006980Y003999D01*
X006978Y003982D01*
X006978Y002382D01*
X006980Y002365D01*
X006984Y002348D01*
X006991Y002332D01*
X007001Y002318D01*
X007014Y002305D01*
X007028Y002295D01*
X007044Y002288D01*
X007061Y002284D01*
X007078Y002282D01*
X007378Y002582D02*
X007378Y003182D01*
X007128Y003182D01*
X007378Y003182D02*
X007378Y003432D01*
X007378Y003182D02*
X007628Y003182D01*
X007378Y003182D02*
X007628Y002782D01*
X007128Y002782D01*
X007378Y003182D01*
X008128Y003182D02*
X008378Y003182D01*
X008628Y003182D01*
X008378Y003182D02*
X008378Y003432D01*
X008378Y003182D02*
X008628Y002782D01*
X008128Y002782D01*
X008378Y003182D01*
X008378Y002582D01*
X008678Y002282D02*
X008695Y002284D01*
X008712Y002288D01*
X008728Y002295D01*
X008742Y002305D01*
X008755Y002318D01*
X008765Y002332D01*
X008772Y002348D01*
X008776Y002365D01*
X008778Y002382D01*
X008778Y003982D01*
X008776Y003999D01*
X008772Y004016D01*
X008765Y004032D01*
X008755Y004046D01*
X008742Y004059D01*
X008728Y004069D01*
X008712Y004076D01*
X008695Y004080D01*
X008678Y004082D01*
X008078Y004082D01*
X008061Y004080D01*
X008044Y004076D01*
X008028Y004069D01*
X008014Y004059D01*
X008001Y004046D01*
X007991Y004032D01*
X007984Y004016D01*
X007980Y003999D01*
X007978Y003982D01*
X007978Y002382D01*
X007980Y002365D01*
X007984Y002348D01*
X007991Y002332D01*
X008001Y002318D01*
X008014Y002305D01*
X008028Y002295D01*
X008044Y002288D01*
X008061Y002284D01*
X008078Y002282D01*
X008678Y002282D01*
X009940Y002495D02*
X009940Y010495D01*
X010940Y010495D01*
X010940Y011495D01*
X010690Y011245D01*
X010940Y011495D02*
X009940Y011495D01*
X009940Y010495D01*
X010190Y010745D01*
X010690Y010745D02*
X010940Y010495D01*
X010940Y002495D01*
X009940Y002495D01*
X012465Y002418D02*
X012465Y001818D01*
X012565Y001818D01*
X012565Y001718D01*
X012565Y002418D02*
X012565Y002518D01*
X012565Y002418D02*
X012465Y002418D01*
X013665Y002118D02*
X013667Y002138D01*
X013673Y002156D01*
X013682Y002174D01*
X013694Y002189D01*
X013709Y002201D01*
X013727Y002210D01*
X013745Y002216D01*
X013765Y002218D01*
X013785Y002216D01*
X013803Y002210D01*
X013821Y002201D01*
X013836Y002189D01*
X013848Y002174D01*
X013857Y002156D01*
X013863Y002138D01*
X013865Y002118D01*
X013863Y002098D01*
X013857Y002080D01*
X013848Y002062D01*
X013836Y002047D01*
X013821Y002035D01*
X013803Y002026D01*
X013785Y002020D01*
X013765Y002018D01*
X013745Y002020D01*
X013727Y002026D01*
X013709Y002035D01*
X013694Y002047D01*
X013682Y002062D01*
X013673Y002080D01*
X013667Y002098D01*
X013665Y002118D01*
X013065Y002118D02*
X013067Y002170D01*
X013073Y002222D01*
X013083Y002274D01*
X013096Y002324D01*
X013113Y002374D01*
X013134Y002422D01*
X013159Y002468D01*
X013187Y002512D01*
X013218Y002554D01*
X013252Y002594D01*
X013289Y002631D01*
X013329Y002665D01*
X013371Y002696D01*
X013415Y002724D01*
X013461Y002749D01*
X013509Y002770D01*
X013559Y002787D01*
X013609Y002800D01*
X013661Y002810D01*
X013713Y002816D01*
X013765Y002818D01*
X013817Y002816D01*
X013869Y002810D01*
X013921Y002800D01*
X013971Y002787D01*
X014021Y002770D01*
X014069Y002749D01*
X014115Y002724D01*
X014159Y002696D01*
X014201Y002665D01*
X014241Y002631D01*
X014278Y002594D01*
X014312Y002554D01*
X014343Y002512D01*
X014371Y002468D01*
X014396Y002422D01*
X014417Y002374D01*
X014434Y002324D01*
X014447Y002274D01*
X014457Y002222D01*
X014463Y002170D01*
X014465Y002118D01*
X014463Y002066D01*
X014457Y002014D01*
X014447Y001962D01*
X014434Y001912D01*
X014417Y001862D01*
X014396Y001814D01*
X014371Y001768D01*
X014343Y001724D01*
X014312Y001682D01*
X014278Y001642D01*
X014241Y001605D01*
X014201Y001571D01*
X014159Y001540D01*
X014115Y001512D01*
X014069Y001487D01*
X014021Y001466D01*
X013971Y001449D01*
X013921Y001436D01*
X013869Y001426D01*
X013817Y001420D01*
X013765Y001418D01*
X013713Y001420D01*
X013661Y001426D01*
X013609Y001436D01*
X013559Y001449D01*
X013509Y001466D01*
X013461Y001487D01*
X013415Y001512D01*
X013371Y001540D01*
X013329Y001571D01*
X013289Y001605D01*
X013252Y001642D01*
X013218Y001682D01*
X013187Y001724D01*
X013159Y001768D01*
X013134Y001814D01*
X013113Y001862D01*
X013096Y001912D01*
X013083Y001962D01*
X013073Y002014D01*
X013067Y002066D01*
X013065Y002118D01*
X012915Y000918D02*
X013265Y000918D01*
X014265Y000918D01*
X014615Y000918D01*
X014965Y001718D02*
X014965Y001818D01*
X015065Y001818D01*
X015065Y002418D01*
X014965Y002418D01*
X014965Y002518D01*
X014615Y003318D02*
X014265Y003318D01*
X013315Y003318D01*
X012915Y003318D01*
X013945Y003710D02*
X013945Y004310D01*
X013947Y004327D01*
X013951Y004344D01*
X013958Y004360D01*
X013968Y004374D01*
X013981Y004387D01*
X013995Y004397D01*
X014011Y004404D01*
X014028Y004408D01*
X014045Y004410D01*
X015645Y004410D01*
X015662Y004408D01*
X015679Y004404D01*
X015695Y004397D01*
X015709Y004387D01*
X015722Y004374D01*
X015732Y004360D01*
X015739Y004344D01*
X015743Y004327D01*
X015745Y004310D01*
X015745Y003710D01*
X015743Y003693D01*
X015739Y003676D01*
X015732Y003660D01*
X015722Y003646D01*
X015709Y003633D01*
X015695Y003623D01*
X015679Y003616D01*
X015662Y003612D01*
X015645Y003610D01*
X014045Y003610D01*
X014028Y003612D01*
X014011Y003616D01*
X013995Y003623D01*
X013981Y003633D01*
X013968Y003646D01*
X013958Y003660D01*
X013951Y003676D01*
X013947Y003693D01*
X013945Y003710D01*
X014595Y004010D02*
X014845Y004010D01*
X014845Y003760D01*
X014845Y004010D02*
X015245Y003760D01*
X015245Y004260D01*
X014845Y004010D01*
X014845Y004260D01*
X014845Y004010D02*
X015445Y004010D01*
X014615Y004872D02*
X014265Y004872D01*
X013265Y004872D01*
X012915Y004872D01*
X012565Y005672D02*
X012565Y005772D01*
X012465Y005772D01*
X012465Y006372D01*
X012565Y006372D01*
X012565Y006472D01*
X012915Y007272D02*
X013315Y007272D01*
X014265Y007272D01*
X014615Y007272D01*
X014837Y007670D02*
X014837Y007920D01*
X014837Y008170D01*
X014837Y007920D02*
X014587Y007920D01*
X014837Y007920D02*
X015237Y008170D01*
X015237Y007670D01*
X014837Y007920D01*
X015437Y007920D01*
X015737Y007620D02*
X015735Y007603D01*
X015731Y007586D01*
X015724Y007570D01*
X015714Y007556D01*
X015701Y007543D01*
X015687Y007533D01*
X015671Y007526D01*
X015654Y007522D01*
X015637Y007520D01*
X014037Y007520D01*
X014020Y007522D01*
X014003Y007526D01*
X013987Y007533D01*
X013973Y007543D01*
X013960Y007556D01*
X013950Y007570D01*
X013943Y007586D01*
X013939Y007603D01*
X013937Y007620D01*
X013937Y008220D01*
X013939Y008237D01*
X013943Y008254D01*
X013950Y008270D01*
X013960Y008284D01*
X013973Y008297D01*
X013987Y008307D01*
X014003Y008314D01*
X014020Y008318D01*
X014037Y008320D01*
X015637Y008320D01*
X015654Y008318D01*
X015671Y008314D01*
X015687Y008307D01*
X015701Y008297D01*
X015714Y008284D01*
X015724Y008270D01*
X015731Y008254D01*
X015735Y008237D01*
X015737Y008220D01*
X015737Y007620D01*
X014965Y006472D02*
X014965Y006372D01*
X015065Y006372D01*
X015065Y005772D01*
X014965Y005772D01*
X014965Y005672D01*
X013665Y006072D02*
X013667Y006092D01*
X013673Y006110D01*
X013682Y006128D01*
X013694Y006143D01*
X013709Y006155D01*
X013727Y006164D01*
X013745Y006170D01*
X013765Y006172D01*
X013785Y006170D01*
X013803Y006164D01*
X013821Y006155D01*
X013836Y006143D01*
X013848Y006128D01*
X013857Y006110D01*
X013863Y006092D01*
X013865Y006072D01*
X013863Y006052D01*
X013857Y006034D01*
X013848Y006016D01*
X013836Y006001D01*
X013821Y005989D01*
X013803Y005980D01*
X013785Y005974D01*
X013765Y005972D01*
X013745Y005974D01*
X013727Y005980D01*
X013709Y005989D01*
X013694Y006001D01*
X013682Y006016D01*
X013673Y006034D01*
X013667Y006052D01*
X013665Y006072D01*
X013065Y006072D02*
X013067Y006124D01*
X013073Y006176D01*
X013083Y006228D01*
X013096Y006278D01*
X013113Y006328D01*
X013134Y006376D01*
X013159Y006422D01*
X013187Y006466D01*
X013218Y006508D01*
X013252Y006548D01*
X013289Y006585D01*
X013329Y006619D01*
X013371Y006650D01*
X013415Y006678D01*
X013461Y006703D01*
X013509Y006724D01*
X013559Y006741D01*
X013609Y006754D01*
X013661Y006764D01*
X013713Y006770D01*
X013765Y006772D01*
X013817Y006770D01*
X013869Y006764D01*
X013921Y006754D01*
X013971Y006741D01*
X014021Y006724D01*
X014069Y006703D01*
X014115Y006678D01*
X014159Y006650D01*
X014201Y006619D01*
X014241Y006585D01*
X014278Y006548D01*
X014312Y006508D01*
X014343Y006466D01*
X014371Y006422D01*
X014396Y006376D01*
X014417Y006328D01*
X014434Y006278D01*
X014447Y006228D01*
X014457Y006176D01*
X014463Y006124D01*
X014465Y006072D01*
X014463Y006020D01*
X014457Y005968D01*
X014447Y005916D01*
X014434Y005866D01*
X014417Y005816D01*
X014396Y005768D01*
X014371Y005722D01*
X014343Y005678D01*
X014312Y005636D01*
X014278Y005596D01*
X014241Y005559D01*
X014201Y005525D01*
X014159Y005494D01*
X014115Y005466D01*
X014069Y005441D01*
X014021Y005420D01*
X013971Y005403D01*
X013921Y005390D01*
X013869Y005380D01*
X013817Y005374D01*
X013765Y005372D01*
X013713Y005374D01*
X013661Y005380D01*
X013609Y005390D01*
X013559Y005403D01*
X013509Y005420D01*
X013461Y005441D01*
X013415Y005466D01*
X013371Y005494D01*
X013329Y005525D01*
X013289Y005559D01*
X013252Y005596D01*
X013218Y005636D01*
X013187Y005678D01*
X013159Y005722D01*
X013134Y005768D01*
X013113Y005816D01*
X013096Y005866D01*
X013083Y005916D01*
X013073Y005968D01*
X013067Y006020D01*
X013065Y006072D01*
X015821Y006090D02*
X015823Y006135D01*
X015828Y006181D01*
X015836Y006225D01*
X015848Y006269D01*
X015864Y006312D01*
X015882Y006354D01*
X015904Y006394D01*
X015928Y006432D01*
X015955Y006468D01*
X015985Y006503D01*
X016018Y006534D01*
X016053Y006564D01*
X015821Y006090D02*
X015823Y006045D01*
X015828Y005999D01*
X015836Y005955D01*
X015848Y005911D01*
X015864Y005868D01*
X015882Y005826D01*
X015904Y005786D01*
X015928Y005748D01*
X015955Y005712D01*
X015985Y005677D01*
X016018Y005646D01*
X016053Y005616D01*
X017021Y006090D02*
X017019Y006136D01*
X017014Y006182D01*
X017005Y006228D01*
X016993Y006273D01*
X016977Y006316D01*
X016958Y006358D01*
X016935Y006399D01*
X016910Y006438D01*
X016882Y006474D01*
X016851Y006509D01*
X016817Y006541D01*
X016781Y006570D01*
X017021Y006090D02*
X017019Y006043D01*
X017013Y005995D01*
X017004Y005949D01*
X016991Y005903D01*
X016975Y005859D01*
X016955Y005815D01*
X016931Y005774D01*
X016905Y005735D01*
X016875Y005698D01*
X016842Y005663D01*
X016807Y005631D01*
X016770Y005602D01*
X021205Y005824D02*
X021205Y005324D01*
X021455Y005074D01*
X021205Y004824D01*
X021205Y004324D01*
X021455Y004074D01*
X021955Y004074D01*
X022205Y004324D01*
X022205Y004824D01*
X021955Y005074D01*
X021455Y005074D01*
X021955Y005074D02*
X022205Y005324D01*
X022205Y005824D01*
X021955Y006074D01*
X021455Y006074D01*
X021205Y005824D01*
X021455Y006074D02*
X021205Y006324D01*
X021205Y006824D01*
X021455Y007074D01*
X021205Y007324D01*
X021205Y007824D01*
X021455Y008074D01*
X021205Y008324D01*
X021205Y008824D01*
X021455Y009074D01*
X021205Y009324D01*
X021205Y009824D01*
X021455Y010074D01*
X021205Y010324D01*
X021205Y010824D01*
X021455Y011074D01*
X021205Y011324D01*
X021205Y011824D01*
X021455Y012074D01*
X021955Y012074D01*
X022205Y011824D01*
X022205Y011324D01*
X021955Y011074D01*
X022205Y010824D01*
X022205Y010324D01*
X021955Y010074D01*
X021455Y010074D01*
X021955Y010074D02*
X022205Y009824D01*
X022205Y009324D01*
X021955Y009074D01*
X022205Y008824D01*
X022205Y008324D01*
X021955Y008074D01*
X022205Y007824D01*
X022205Y007324D01*
X021955Y007074D01*
X021455Y007074D01*
X021955Y007074D02*
X022205Y006824D01*
X022205Y006324D01*
X021955Y006074D01*
X021955Y008074D02*
X021455Y008074D01*
X021455Y009074D02*
X021955Y009074D01*
X021955Y011074D02*
X021455Y011074D01*
X018198Y010652D02*
X018198Y012252D01*
X018196Y012269D01*
X018192Y012286D01*
X018185Y012302D01*
X018175Y012316D01*
X018162Y012329D01*
X018148Y012339D01*
X018132Y012346D01*
X018115Y012350D01*
X018098Y012352D01*
X017498Y012352D01*
X017481Y012350D01*
X017464Y012346D01*
X017448Y012339D01*
X017434Y012329D01*
X017421Y012316D01*
X017411Y012302D01*
X017404Y012286D01*
X017400Y012269D01*
X017398Y012252D01*
X017398Y010652D01*
X017400Y010635D01*
X017404Y010618D01*
X017411Y010602D01*
X017421Y010588D01*
X017434Y010575D01*
X017448Y010565D01*
X017464Y010558D01*
X017481Y010554D01*
X017498Y010552D01*
X018098Y010552D01*
X018115Y010554D01*
X018132Y010558D01*
X018148Y010565D01*
X018162Y010575D01*
X018175Y010588D01*
X018185Y010602D01*
X018192Y010618D01*
X018196Y010635D01*
X018198Y010652D01*
X017798Y010852D02*
X017798Y011452D01*
X017548Y011452D01*
X017798Y011452D02*
X018048Y011452D01*
X017798Y011452D02*
X018048Y011052D01*
X017548Y011052D01*
X017798Y011452D01*
X017798Y011702D01*
X016045Y010599D02*
X016010Y010569D01*
X015977Y010538D01*
X015947Y010503D01*
X015920Y010467D01*
X015896Y010429D01*
X015874Y010389D01*
X015856Y010347D01*
X015840Y010304D01*
X015828Y010260D01*
X015820Y010216D01*
X015815Y010170D01*
X015813Y010125D01*
X015065Y010416D02*
X015065Y009816D01*
X014965Y009816D01*
X014965Y009716D01*
X014965Y010416D02*
X014965Y010516D01*
X014965Y010416D02*
X015065Y010416D01*
X013665Y010116D02*
X013667Y010136D01*
X013673Y010154D01*
X013682Y010172D01*
X013694Y010187D01*
X013709Y010199D01*
X013727Y010208D01*
X013745Y010214D01*
X013765Y010216D01*
X013785Y010214D01*
X013803Y010208D01*
X013821Y010199D01*
X013836Y010187D01*
X013848Y010172D01*
X013857Y010154D01*
X013863Y010136D01*
X013865Y010116D01*
X013863Y010096D01*
X013857Y010078D01*
X013848Y010060D01*
X013836Y010045D01*
X013821Y010033D01*
X013803Y010024D01*
X013785Y010018D01*
X013765Y010016D01*
X013745Y010018D01*
X013727Y010024D01*
X013709Y010033D01*
X013694Y010045D01*
X013682Y010060D01*
X013673Y010078D01*
X013667Y010096D01*
X013665Y010116D01*
X013065Y010116D02*
X013067Y010168D01*
X013073Y010220D01*
X013083Y010272D01*
X013096Y010322D01*
X013113Y010372D01*
X013134Y010420D01*
X013159Y010466D01*
X013187Y010510D01*
X013218Y010552D01*
X013252Y010592D01*
X013289Y010629D01*
X013329Y010663D01*
X013371Y010694D01*
X013415Y010722D01*
X013461Y010747D01*
X013509Y010768D01*
X013559Y010785D01*
X013609Y010798D01*
X013661Y010808D01*
X013713Y010814D01*
X013765Y010816D01*
X013817Y010814D01*
X013869Y010808D01*
X013921Y010798D01*
X013971Y010785D01*
X014021Y010768D01*
X014069Y010747D01*
X014115Y010722D01*
X014159Y010694D01*
X014201Y010663D01*
X014241Y010629D01*
X014278Y010592D01*
X014312Y010552D01*
X014343Y010510D01*
X014371Y010466D01*
X014396Y010420D01*
X014417Y010372D01*
X014434Y010322D01*
X014447Y010272D01*
X014457Y010220D01*
X014463Y010168D01*
X014465Y010116D01*
X014463Y010064D01*
X014457Y010012D01*
X014447Y009960D01*
X014434Y009910D01*
X014417Y009860D01*
X014396Y009812D01*
X014371Y009766D01*
X014343Y009722D01*
X014312Y009680D01*
X014278Y009640D01*
X014241Y009603D01*
X014201Y009569D01*
X014159Y009538D01*
X014115Y009510D01*
X014069Y009485D01*
X014021Y009464D01*
X013971Y009447D01*
X013921Y009434D01*
X013869Y009424D01*
X013817Y009418D01*
X013765Y009416D01*
X013713Y009418D01*
X013661Y009424D01*
X013609Y009434D01*
X013559Y009447D01*
X013509Y009464D01*
X013461Y009485D01*
X013415Y009510D01*
X013371Y009538D01*
X013329Y009569D01*
X013289Y009603D01*
X013252Y009640D01*
X013218Y009680D01*
X013187Y009722D01*
X013159Y009766D01*
X013134Y009812D01*
X013113Y009860D01*
X013096Y009910D01*
X013083Y009960D01*
X013073Y010012D01*
X013067Y010064D01*
X013065Y010116D01*
X012565Y010416D02*
X012565Y010516D01*
X012565Y010416D02*
X012465Y010416D01*
X012465Y009816D01*
X012565Y009816D01*
X012565Y009716D01*
X012915Y008916D02*
X013265Y008916D01*
X014265Y008916D01*
X014615Y008916D01*
X016045Y009651D02*
X016010Y009681D01*
X015977Y009712D01*
X015947Y009747D01*
X015920Y009783D01*
X015896Y009821D01*
X015874Y009861D01*
X015856Y009903D01*
X015840Y009946D01*
X015828Y009990D01*
X015820Y010034D01*
X015815Y010080D01*
X015813Y010125D01*
X016773Y010605D02*
X016809Y010576D01*
X016843Y010544D01*
X016874Y010509D01*
X016902Y010473D01*
X016927Y010434D01*
X016950Y010393D01*
X016969Y010351D01*
X016985Y010308D01*
X016997Y010263D01*
X017006Y010217D01*
X017011Y010171D01*
X017013Y010125D01*
X017011Y010078D01*
X017005Y010030D01*
X016996Y009984D01*
X016983Y009938D01*
X016967Y009894D01*
X016947Y009850D01*
X016923Y009809D01*
X016897Y009770D01*
X016867Y009733D01*
X016834Y009698D01*
X016799Y009666D01*
X016762Y009637D01*
X014615Y011316D02*
X014265Y011316D01*
X013315Y011316D01*
X012915Y011316D01*
X012911Y012888D02*
X013261Y012888D01*
X014261Y012888D01*
X014611Y012888D01*
X014961Y013688D02*
X014961Y013788D01*
X015061Y013788D01*
X015061Y014388D01*
X014961Y014388D01*
X014961Y014488D01*
X013661Y014088D02*
X013663Y014108D01*
X013669Y014126D01*
X013678Y014144D01*
X013690Y014159D01*
X013705Y014171D01*
X013723Y014180D01*
X013741Y014186D01*
X013761Y014188D01*
X013781Y014186D01*
X013799Y014180D01*
X013817Y014171D01*
X013832Y014159D01*
X013844Y014144D01*
X013853Y014126D01*
X013859Y014108D01*
X013861Y014088D01*
X013859Y014068D01*
X013853Y014050D01*
X013844Y014032D01*
X013832Y014017D01*
X013817Y014005D01*
X013799Y013996D01*
X013781Y013990D01*
X013761Y013988D01*
X013741Y013990D01*
X013723Y013996D01*
X013705Y014005D01*
X013690Y014017D01*
X013678Y014032D01*
X013669Y014050D01*
X013663Y014068D01*
X013661Y014088D01*
X013061Y014088D02*
X013063Y014140D01*
X013069Y014192D01*
X013079Y014244D01*
X013092Y014294D01*
X013109Y014344D01*
X013130Y014392D01*
X013155Y014438D01*
X013183Y014482D01*
X013214Y014524D01*
X013248Y014564D01*
X013285Y014601D01*
X013325Y014635D01*
X013367Y014666D01*
X013411Y014694D01*
X013457Y014719D01*
X013505Y014740D01*
X013555Y014757D01*
X013605Y014770D01*
X013657Y014780D01*
X013709Y014786D01*
X013761Y014788D01*
X013813Y014786D01*
X013865Y014780D01*
X013917Y014770D01*
X013967Y014757D01*
X014017Y014740D01*
X014065Y014719D01*
X014111Y014694D01*
X014155Y014666D01*
X014197Y014635D01*
X014237Y014601D01*
X014274Y014564D01*
X014308Y014524D01*
X014339Y014482D01*
X014367Y014438D01*
X014392Y014392D01*
X014413Y014344D01*
X014430Y014294D01*
X014443Y014244D01*
X014453Y014192D01*
X014459Y014140D01*
X014461Y014088D01*
X014459Y014036D01*
X014453Y013984D01*
X014443Y013932D01*
X014430Y013882D01*
X014413Y013832D01*
X014392Y013784D01*
X014367Y013738D01*
X014339Y013694D01*
X014308Y013652D01*
X014274Y013612D01*
X014237Y013575D01*
X014197Y013541D01*
X014155Y013510D01*
X014111Y013482D01*
X014065Y013457D01*
X014017Y013436D01*
X013967Y013419D01*
X013917Y013406D01*
X013865Y013396D01*
X013813Y013390D01*
X013761Y013388D01*
X013709Y013390D01*
X013657Y013396D01*
X013605Y013406D01*
X013555Y013419D01*
X013505Y013436D01*
X013457Y013457D01*
X013411Y013482D01*
X013367Y013510D01*
X013325Y013541D01*
X013285Y013575D01*
X013248Y013612D01*
X013214Y013652D01*
X013183Y013694D01*
X013155Y013738D01*
X013130Y013784D01*
X013109Y013832D01*
X013092Y013882D01*
X013079Y013932D01*
X013069Y013984D01*
X013063Y014036D01*
X013061Y014088D01*
X012561Y013788D02*
X012561Y013688D01*
X012561Y013788D02*
X012461Y013788D01*
X012461Y014388D01*
X012561Y014388D01*
X012561Y014488D01*
X012911Y015288D02*
X013311Y015288D01*
X014261Y015288D01*
X014611Y015288D01*
X016119Y014558D02*
X016084Y014528D01*
X016051Y014497D01*
X016021Y014462D01*
X015994Y014426D01*
X015970Y014388D01*
X015948Y014348D01*
X015930Y014306D01*
X015914Y014263D01*
X015902Y014219D01*
X015894Y014175D01*
X015889Y014129D01*
X015887Y014084D01*
X015889Y014039D01*
X015894Y013993D01*
X015902Y013949D01*
X015914Y013905D01*
X015930Y013862D01*
X015948Y013820D01*
X015970Y013780D01*
X015994Y013742D01*
X016021Y013706D01*
X016051Y013671D01*
X016084Y013640D01*
X016119Y013610D01*
X017087Y014084D02*
X017085Y014130D01*
X017080Y014176D01*
X017071Y014222D01*
X017059Y014267D01*
X017043Y014310D01*
X017024Y014352D01*
X017001Y014393D01*
X016976Y014432D01*
X016948Y014468D01*
X016917Y014503D01*
X016883Y014535D01*
X016847Y014564D01*
X017087Y014084D02*
X017085Y014037D01*
X017079Y013989D01*
X017070Y013943D01*
X017057Y013897D01*
X017041Y013853D01*
X017021Y013809D01*
X016997Y013768D01*
X016971Y013729D01*
X016941Y013692D01*
X016908Y013657D01*
X016873Y013625D01*
X016836Y013596D01*
X010190Y011245D02*
X009940Y011495D01*
X008574Y012041D02*
X008574Y010441D01*
X008572Y010424D01*
X008568Y010407D01*
X008561Y010391D01*
X008551Y010377D01*
X008538Y010364D01*
X008524Y010354D01*
X008508Y010347D01*
X008491Y010343D01*
X008474Y010341D01*
X007874Y010341D01*
X007857Y010343D01*
X007840Y010347D01*
X007824Y010354D01*
X007810Y010364D01*
X007797Y010377D01*
X007787Y010391D01*
X007780Y010407D01*
X007776Y010424D01*
X007774Y010441D01*
X007774Y012041D01*
X007776Y012058D01*
X007780Y012075D01*
X007787Y012091D01*
X007797Y012105D01*
X007810Y012118D01*
X007824Y012128D01*
X007840Y012135D01*
X007857Y012139D01*
X007874Y012141D01*
X008474Y012141D01*
X008491Y012139D01*
X008508Y012135D01*
X008524Y012128D01*
X008538Y012118D01*
X008551Y012105D01*
X008561Y012091D01*
X008568Y012075D01*
X008572Y012058D01*
X008574Y012041D01*
X008174Y011491D02*
X008174Y011241D01*
X007924Y011241D01*
X008174Y011241D02*
X008424Y011241D01*
X008174Y011241D02*
X008424Y010841D01*
X007924Y010841D01*
X008174Y011241D01*
X008174Y010641D01*
X007375Y010017D02*
X006775Y010017D01*
X006758Y010015D01*
X006741Y010011D01*
X006725Y010004D01*
X006711Y009994D01*
X006698Y009981D01*
X006688Y009967D01*
X006681Y009951D01*
X006677Y009934D01*
X006675Y009917D01*
X006675Y008317D01*
X006677Y008300D01*
X006681Y008283D01*
X006688Y008267D01*
X006698Y008253D01*
X006711Y008240D01*
X006725Y008230D01*
X006741Y008223D01*
X006758Y008219D01*
X006775Y008217D01*
X007375Y008217D01*
X007392Y008219D01*
X007409Y008223D01*
X007425Y008230D01*
X007439Y008240D01*
X007452Y008253D01*
X007462Y008267D01*
X007469Y008283D01*
X007473Y008300D01*
X007475Y008317D01*
X007475Y009917D01*
X007473Y009934D01*
X007469Y009951D01*
X007462Y009967D01*
X007452Y009981D01*
X007439Y009994D01*
X007425Y010004D01*
X007409Y010011D01*
X007392Y010015D01*
X007375Y010017D01*
X007075Y009367D02*
X007075Y009117D01*
X006825Y009117D01*
X007075Y009117D02*
X007325Y009117D01*
X007075Y009117D02*
X007325Y008717D01*
X006825Y008717D01*
X007075Y009117D01*
X007075Y008517D01*
X005474Y008902D02*
X005124Y008902D01*
X004124Y008902D01*
X003774Y008902D01*
X003424Y009702D02*
X003424Y009802D01*
X003324Y009802D01*
X003324Y010402D01*
X003424Y010402D01*
X003424Y010502D01*
X003774Y011302D02*
X004174Y011302D01*
X005124Y011302D01*
X005474Y011302D01*
X005824Y010502D02*
X005824Y010402D01*
X005924Y010402D01*
X005924Y009802D01*
X005824Y009802D01*
X005824Y009702D01*
X004524Y010102D02*
X004526Y010122D01*
X004532Y010140D01*
X004541Y010158D01*
X004553Y010173D01*
X004568Y010185D01*
X004586Y010194D01*
X004604Y010200D01*
X004624Y010202D01*
X004644Y010200D01*
X004662Y010194D01*
X004680Y010185D01*
X004695Y010173D01*
X004707Y010158D01*
X004716Y010140D01*
X004722Y010122D01*
X004724Y010102D01*
X004722Y010082D01*
X004716Y010064D01*
X004707Y010046D01*
X004695Y010031D01*
X004680Y010019D01*
X004662Y010010D01*
X004644Y010004D01*
X004624Y010002D01*
X004604Y010004D01*
X004586Y010010D01*
X004568Y010019D01*
X004553Y010031D01*
X004541Y010046D01*
X004532Y010064D01*
X004526Y010082D01*
X004524Y010102D01*
X003924Y010102D02*
X003926Y010154D01*
X003932Y010206D01*
X003942Y010258D01*
X003955Y010308D01*
X003972Y010358D01*
X003993Y010406D01*
X004018Y010452D01*
X004046Y010496D01*
X004077Y010538D01*
X004111Y010578D01*
X004148Y010615D01*
X004188Y010649D01*
X004230Y010680D01*
X004274Y010708D01*
X004320Y010733D01*
X004368Y010754D01*
X004418Y010771D01*
X004468Y010784D01*
X004520Y010794D01*
X004572Y010800D01*
X004624Y010802D01*
X004676Y010800D01*
X004728Y010794D01*
X004780Y010784D01*
X004830Y010771D01*
X004880Y010754D01*
X004928Y010733D01*
X004974Y010708D01*
X005018Y010680D01*
X005060Y010649D01*
X005100Y010615D01*
X005137Y010578D01*
X005171Y010538D01*
X005202Y010496D01*
X005230Y010452D01*
X005255Y010406D01*
X005276Y010358D01*
X005293Y010308D01*
X005306Y010258D01*
X005316Y010206D01*
X005322Y010154D01*
X005324Y010102D01*
X005322Y010050D01*
X005316Y009998D01*
X005306Y009946D01*
X005293Y009896D01*
X005276Y009846D01*
X005255Y009798D01*
X005230Y009752D01*
X005202Y009708D01*
X005171Y009666D01*
X005137Y009626D01*
X005100Y009589D01*
X005060Y009555D01*
X005018Y009524D01*
X004974Y009496D01*
X004928Y009471D01*
X004880Y009450D01*
X004830Y009433D01*
X004780Y009420D01*
X004728Y009410D01*
X004676Y009404D01*
X004624Y009402D01*
X004572Y009404D01*
X004520Y009410D01*
X004468Y009420D01*
X004418Y009433D01*
X004368Y009450D01*
X004320Y009471D01*
X004274Y009496D01*
X004230Y009524D01*
X004188Y009555D01*
X004148Y009589D01*
X004111Y009626D01*
X004077Y009666D01*
X004046Y009708D01*
X004018Y009752D01*
X003993Y009798D01*
X003972Y009846D01*
X003955Y009896D01*
X003942Y009946D01*
X003932Y009998D01*
X003926Y010050D01*
X003924Y010102D01*
X001522Y010570D02*
X001487Y010540D01*
X001454Y010509D01*
X001424Y010474D01*
X001397Y010438D01*
X001373Y010400D01*
X001351Y010360D01*
X001333Y010318D01*
X001317Y010275D01*
X001305Y010231D01*
X001297Y010187D01*
X001292Y010141D01*
X001290Y010096D01*
X001292Y010051D01*
X001297Y010005D01*
X001305Y009961D01*
X001317Y009917D01*
X001333Y009874D01*
X001351Y009832D01*
X001373Y009792D01*
X001397Y009754D01*
X001424Y009718D01*
X001454Y009683D01*
X001487Y009652D01*
X001522Y009622D01*
X002490Y010096D02*
X002488Y010142D01*
X002483Y010188D01*
X002474Y010234D01*
X002462Y010279D01*
X002446Y010322D01*
X002427Y010364D01*
X002404Y010405D01*
X002379Y010444D01*
X002351Y010480D01*
X002320Y010515D01*
X002286Y010547D01*
X002250Y010576D01*
X002490Y010096D02*
X002488Y010049D01*
X002482Y010001D01*
X002473Y009955D01*
X002460Y009909D01*
X002444Y009865D01*
X002424Y009821D01*
X002400Y009780D01*
X002374Y009741D01*
X002344Y009704D01*
X002311Y009669D01*
X002276Y009637D01*
X002239Y009608D01*
X003763Y007288D02*
X004113Y007288D01*
X005113Y007288D01*
X005463Y007288D01*
X005813Y006488D02*
X005813Y006388D01*
X005913Y006388D01*
X005913Y005788D01*
X005813Y005788D01*
X005813Y005688D01*
X004513Y006088D02*
X004515Y006108D01*
X004521Y006126D01*
X004530Y006144D01*
X004542Y006159D01*
X004557Y006171D01*
X004575Y006180D01*
X004593Y006186D01*
X004613Y006188D01*
X004633Y006186D01*
X004651Y006180D01*
X004669Y006171D01*
X004684Y006159D01*
X004696Y006144D01*
X004705Y006126D01*
X004711Y006108D01*
X004713Y006088D01*
X004711Y006068D01*
X004705Y006050D01*
X004696Y006032D01*
X004684Y006017D01*
X004669Y006005D01*
X004651Y005996D01*
X004633Y005990D01*
X004613Y005988D01*
X004593Y005990D01*
X004575Y005996D01*
X004557Y006005D01*
X004542Y006017D01*
X004530Y006032D01*
X004521Y006050D01*
X004515Y006068D01*
X004513Y006088D01*
X003913Y006088D02*
X003915Y006140D01*
X003921Y006192D01*
X003931Y006244D01*
X003944Y006294D01*
X003961Y006344D01*
X003982Y006392D01*
X004007Y006438D01*
X004035Y006482D01*
X004066Y006524D01*
X004100Y006564D01*
X004137Y006601D01*
X004177Y006635D01*
X004219Y006666D01*
X004263Y006694D01*
X004309Y006719D01*
X004357Y006740D01*
X004407Y006757D01*
X004457Y006770D01*
X004509Y006780D01*
X004561Y006786D01*
X004613Y006788D01*
X004665Y006786D01*
X004717Y006780D01*
X004769Y006770D01*
X004819Y006757D01*
X004869Y006740D01*
X004917Y006719D01*
X004963Y006694D01*
X005007Y006666D01*
X005049Y006635D01*
X005089Y006601D01*
X005126Y006564D01*
X005160Y006524D01*
X005191Y006482D01*
X005219Y006438D01*
X005244Y006392D01*
X005265Y006344D01*
X005282Y006294D01*
X005295Y006244D01*
X005305Y006192D01*
X005311Y006140D01*
X005313Y006088D01*
X005311Y006036D01*
X005305Y005984D01*
X005295Y005932D01*
X005282Y005882D01*
X005265Y005832D01*
X005244Y005784D01*
X005219Y005738D01*
X005191Y005694D01*
X005160Y005652D01*
X005126Y005612D01*
X005089Y005575D01*
X005049Y005541D01*
X005007Y005510D01*
X004963Y005482D01*
X004917Y005457D01*
X004869Y005436D01*
X004819Y005419D01*
X004769Y005406D01*
X004717Y005396D01*
X004665Y005390D01*
X004613Y005388D01*
X004561Y005390D01*
X004509Y005396D01*
X004457Y005406D01*
X004407Y005419D01*
X004357Y005436D01*
X004309Y005457D01*
X004263Y005482D01*
X004219Y005510D01*
X004177Y005541D01*
X004137Y005575D01*
X004100Y005612D01*
X004066Y005652D01*
X004035Y005694D01*
X004007Y005738D01*
X003982Y005784D01*
X003961Y005832D01*
X003944Y005882D01*
X003931Y005932D01*
X003921Y005984D01*
X003915Y006036D01*
X003913Y006088D01*
X003413Y005788D02*
X003413Y005688D01*
X003413Y005788D02*
X003313Y005788D01*
X003313Y006388D01*
X003413Y006388D01*
X003413Y006488D01*
X001557Y006560D02*
X001522Y006530D01*
X001489Y006499D01*
X001459Y006464D01*
X001432Y006428D01*
X001408Y006390D01*
X001386Y006350D01*
X001368Y006308D01*
X001352Y006265D01*
X001340Y006221D01*
X001332Y006177D01*
X001327Y006131D01*
X001325Y006086D01*
X001327Y006041D01*
X001332Y005995D01*
X001340Y005951D01*
X001352Y005907D01*
X001368Y005864D01*
X001386Y005822D01*
X001408Y005782D01*
X001432Y005744D01*
X001459Y005708D01*
X001489Y005673D01*
X001522Y005642D01*
X001557Y005612D01*
X002525Y006086D02*
X002523Y006132D01*
X002518Y006178D01*
X002509Y006224D01*
X002497Y006269D01*
X002481Y006312D01*
X002462Y006354D01*
X002439Y006395D01*
X002414Y006434D01*
X002386Y006470D01*
X002355Y006505D01*
X002321Y006537D01*
X002285Y006566D01*
X002525Y006086D02*
X002523Y006039D01*
X002517Y005991D01*
X002508Y005945D01*
X002495Y005899D01*
X002479Y005855D01*
X002459Y005811D01*
X002435Y005770D01*
X002409Y005731D01*
X002379Y005694D01*
X002346Y005659D01*
X002311Y005627D01*
X002274Y005598D01*
X003763Y004888D02*
X004113Y004888D01*
X005063Y004888D01*
X005463Y004888D01*
X015808Y002125D02*
X015810Y002170D01*
X015815Y002216D01*
X015823Y002260D01*
X015835Y002304D01*
X015851Y002347D01*
X015869Y002389D01*
X015891Y002429D01*
X015915Y002467D01*
X015942Y002503D01*
X015972Y002538D01*
X016005Y002569D01*
X016040Y002599D01*
X015808Y002125D02*
X015810Y002080D01*
X015815Y002034D01*
X015823Y001990D01*
X015835Y001946D01*
X015851Y001903D01*
X015869Y001861D01*
X015891Y001821D01*
X015915Y001783D01*
X015942Y001747D01*
X015972Y001712D01*
X016005Y001681D01*
X016040Y001651D01*
X017008Y002125D02*
X017006Y002171D01*
X017001Y002217D01*
X016992Y002263D01*
X016980Y002308D01*
X016964Y002351D01*
X016945Y002393D01*
X016922Y002434D01*
X016897Y002473D01*
X016869Y002509D01*
X016838Y002544D01*
X016804Y002576D01*
X016768Y002605D01*
X017008Y002125D02*
X017006Y002078D01*
X017000Y002030D01*
X016991Y001984D01*
X016978Y001938D01*
X016962Y001894D01*
X016942Y001850D01*
X016918Y001809D01*
X016892Y001770D01*
X016862Y001733D01*
X016829Y001698D01*
X016794Y001666D01*
X016757Y001637D01*
X018835Y001172D02*
X018835Y000572D01*
X018837Y000555D01*
X018841Y000538D01*
X018848Y000522D01*
X018858Y000508D01*
X018871Y000495D01*
X018885Y000485D01*
X018901Y000478D01*
X018918Y000474D01*
X018935Y000472D01*
X020535Y000472D01*
X020552Y000474D01*
X020569Y000478D01*
X020585Y000485D01*
X020599Y000495D01*
X020612Y000508D01*
X020622Y000522D01*
X020629Y000538D01*
X020633Y000555D01*
X020635Y000572D01*
X020635Y001172D01*
X020633Y001189D01*
X020629Y001206D01*
X020622Y001222D01*
X020612Y001236D01*
X020599Y001249D01*
X020585Y001259D01*
X020569Y001266D01*
X020552Y001270D01*
X020535Y001272D01*
X018935Y001272D01*
X018918Y001270D01*
X018901Y001266D01*
X018885Y001259D01*
X018871Y001249D01*
X018858Y001236D01*
X018848Y001222D01*
X018841Y001206D01*
X018837Y001189D01*
X018835Y001172D01*
X019485Y000872D02*
X019735Y000872D01*
X019735Y000622D01*
X019735Y000872D02*
X020135Y000622D01*
X020135Y001122D01*
X019735Y000872D01*
X019735Y001122D01*
X019735Y000872D02*
X020335Y000872D01*
X021455Y002074D02*
X021205Y002324D01*
X021205Y002824D01*
X021455Y003074D01*
X021205Y003324D01*
X021205Y003824D01*
X021455Y004074D01*
X021955Y004074D02*
X022205Y003824D01*
X022205Y003324D01*
X021955Y003074D01*
X022205Y002824D01*
X022205Y002324D01*
X021955Y002074D01*
X021455Y002074D01*
X021455Y003074D02*
X021955Y003074D01*
X005503Y012896D02*
X005103Y012896D01*
X004153Y012896D01*
X003803Y012896D01*
X003453Y013696D02*
X003453Y013796D01*
X003353Y013796D01*
X003353Y014396D01*
X003453Y014396D01*
X003453Y014496D01*
X003803Y015296D02*
X004153Y015296D01*
X005153Y015296D01*
X005503Y015296D01*
X005853Y014496D02*
X005853Y014396D01*
X005953Y014396D01*
X005953Y013796D01*
X005853Y013796D01*
X005853Y013696D01*
X004553Y014096D02*
X004555Y014116D01*
X004561Y014134D01*
X004570Y014152D01*
X004582Y014167D01*
X004597Y014179D01*
X004615Y014188D01*
X004633Y014194D01*
X004653Y014196D01*
X004673Y014194D01*
X004691Y014188D01*
X004709Y014179D01*
X004724Y014167D01*
X004736Y014152D01*
X004745Y014134D01*
X004751Y014116D01*
X004753Y014096D01*
X004751Y014076D01*
X004745Y014058D01*
X004736Y014040D01*
X004724Y014025D01*
X004709Y014013D01*
X004691Y014004D01*
X004673Y013998D01*
X004653Y013996D01*
X004633Y013998D01*
X004615Y014004D01*
X004597Y014013D01*
X004582Y014025D01*
X004570Y014040D01*
X004561Y014058D01*
X004555Y014076D01*
X004553Y014096D01*
X003953Y014096D02*
X003955Y014148D01*
X003961Y014200D01*
X003971Y014252D01*
X003984Y014302D01*
X004001Y014352D01*
X004022Y014400D01*
X004047Y014446D01*
X004075Y014490D01*
X004106Y014532D01*
X004140Y014572D01*
X004177Y014609D01*
X004217Y014643D01*
X004259Y014674D01*
X004303Y014702D01*
X004349Y014727D01*
X004397Y014748D01*
X004447Y014765D01*
X004497Y014778D01*
X004549Y014788D01*
X004601Y014794D01*
X004653Y014796D01*
X004705Y014794D01*
X004757Y014788D01*
X004809Y014778D01*
X004859Y014765D01*
X004909Y014748D01*
X004957Y014727D01*
X005003Y014702D01*
X005047Y014674D01*
X005089Y014643D01*
X005129Y014609D01*
X005166Y014572D01*
X005200Y014532D01*
X005231Y014490D01*
X005259Y014446D01*
X005284Y014400D01*
X005305Y014352D01*
X005322Y014302D01*
X005335Y014252D01*
X005345Y014200D01*
X005351Y014148D01*
X005353Y014096D01*
X005351Y014044D01*
X005345Y013992D01*
X005335Y013940D01*
X005322Y013890D01*
X005305Y013840D01*
X005284Y013792D01*
X005259Y013746D01*
X005231Y013702D01*
X005200Y013660D01*
X005166Y013620D01*
X005129Y013583D01*
X005089Y013549D01*
X005047Y013518D01*
X005003Y013490D01*
X004957Y013465D01*
X004909Y013444D01*
X004859Y013427D01*
X004809Y013414D01*
X004757Y013404D01*
X004705Y013398D01*
X004653Y013396D01*
X004601Y013398D01*
X004549Y013404D01*
X004497Y013414D01*
X004447Y013427D01*
X004397Y013444D01*
X004349Y013465D01*
X004303Y013490D01*
X004259Y013518D01*
X004217Y013549D01*
X004177Y013583D01*
X004140Y013620D01*
X004106Y013660D01*
X004075Y013702D01*
X004047Y013746D01*
X004022Y013792D01*
X004001Y013840D01*
X003984Y013890D01*
X003971Y013940D01*
X003961Y013992D01*
X003955Y014044D01*
X003953Y014096D01*
X001577Y014563D02*
X001542Y014533D01*
X001509Y014502D01*
X001479Y014467D01*
X001452Y014431D01*
X001428Y014393D01*
X001406Y014353D01*
X001388Y014311D01*
X001372Y014268D01*
X001360Y014224D01*
X001352Y014180D01*
X001347Y014134D01*
X001345Y014089D01*
X001347Y014044D01*
X001352Y013998D01*
X001360Y013954D01*
X001372Y013910D01*
X001388Y013867D01*
X001406Y013825D01*
X001428Y013785D01*
X001452Y013747D01*
X001479Y013711D01*
X001509Y013676D01*
X001542Y013645D01*
X001577Y013615D01*
X002545Y014089D02*
X002543Y014135D01*
X002538Y014181D01*
X002529Y014227D01*
X002517Y014272D01*
X002501Y014315D01*
X002482Y014357D01*
X002459Y014398D01*
X002434Y014437D01*
X002406Y014473D01*
X002375Y014508D01*
X002341Y014540D01*
X002305Y014569D01*
X002545Y014089D02*
X002543Y014042D01*
X002537Y013994D01*
X002528Y013948D01*
X002515Y013902D01*
X002499Y013858D01*
X002479Y013814D01*
X002455Y013773D01*
X002429Y013734D01*
X002399Y013697D01*
X002366Y013662D01*
X002331Y013630D01*
X002294Y013601D01*
D12*
X002745Y014089D02*
X002743Y014143D01*
X002738Y014197D01*
X002729Y014250D01*
X002716Y014303D01*
X002700Y014354D01*
X002680Y014404D01*
X002657Y014453D01*
X002631Y014501D01*
X002602Y014546D01*
X002569Y014589D01*
X002534Y014630D01*
X002496Y014669D01*
X002456Y014705D01*
X002413Y014738D01*
X002368Y014768D01*
X002321Y014795D01*
X001548Y014784D02*
X001500Y014754D01*
X001455Y014721D01*
X001412Y014685D01*
X001371Y014647D01*
X001334Y014605D01*
X001299Y014561D01*
X001268Y014515D01*
X001239Y014466D01*
X001215Y014416D01*
X001194Y014364D01*
X001176Y014310D01*
X001163Y014256D01*
X001153Y014201D01*
X001147Y014145D01*
X001145Y014089D01*
X001147Y014036D01*
X001152Y013982D01*
X001161Y013930D01*
X001173Y013878D01*
X001189Y013827D01*
X001208Y013777D01*
X001231Y013728D01*
X001257Y013681D01*
X001285Y013636D01*
X001317Y013593D01*
X001351Y013553D01*
X001389Y013514D01*
X001428Y013478D01*
X002457Y013474D02*
X002497Y013510D01*
X002535Y013549D01*
X002570Y013590D01*
X002602Y013633D01*
X002632Y013678D01*
X002658Y013725D01*
X002680Y013774D01*
X002700Y013825D01*
X002716Y013876D01*
X002729Y013928D01*
X002738Y013982D01*
X002743Y014035D01*
X002745Y014089D01*
X001493Y010791D02*
X001445Y010761D01*
X001400Y010728D01*
X001357Y010692D01*
X001316Y010654D01*
X001279Y010612D01*
X001244Y010568D01*
X001213Y010522D01*
X001184Y010473D01*
X001160Y010423D01*
X001139Y010371D01*
X001121Y010317D01*
X001108Y010263D01*
X001098Y010208D01*
X001092Y010152D01*
X001090Y010096D01*
X001092Y010043D01*
X001097Y009989D01*
X001106Y009937D01*
X001118Y009885D01*
X001134Y009834D01*
X001153Y009784D01*
X001176Y009735D01*
X001202Y009688D01*
X001230Y009643D01*
X001262Y009600D01*
X001296Y009560D01*
X001334Y009521D01*
X001373Y009485D01*
X002690Y010096D02*
X002688Y010150D01*
X002683Y010204D01*
X002674Y010257D01*
X002661Y010310D01*
X002645Y010361D01*
X002625Y010411D01*
X002602Y010460D01*
X002576Y010508D01*
X002547Y010553D01*
X002514Y010596D01*
X002479Y010637D01*
X002441Y010676D01*
X002401Y010712D01*
X002358Y010745D01*
X002313Y010775D01*
X002266Y010802D01*
X002690Y010096D02*
X002688Y010042D01*
X002683Y009989D01*
X002674Y009935D01*
X002661Y009883D01*
X002645Y009832D01*
X002625Y009781D01*
X002603Y009732D01*
X002577Y009685D01*
X002547Y009640D01*
X002515Y009597D01*
X002480Y009556D01*
X002442Y009517D01*
X002402Y009481D01*
X001528Y006781D02*
X001480Y006751D01*
X001435Y006718D01*
X001392Y006682D01*
X001351Y006644D01*
X001314Y006602D01*
X001279Y006558D01*
X001248Y006512D01*
X001219Y006463D01*
X001195Y006413D01*
X001174Y006361D01*
X001156Y006307D01*
X001143Y006253D01*
X001133Y006198D01*
X001127Y006142D01*
X001125Y006086D01*
X001127Y006033D01*
X001132Y005979D01*
X001141Y005927D01*
X001153Y005875D01*
X001169Y005824D01*
X001188Y005774D01*
X001211Y005725D01*
X001237Y005678D01*
X001265Y005633D01*
X001297Y005590D01*
X001331Y005550D01*
X001369Y005511D01*
X001408Y005475D01*
X002725Y006086D02*
X002723Y006140D01*
X002718Y006194D01*
X002709Y006247D01*
X002696Y006300D01*
X002680Y006351D01*
X002660Y006401D01*
X002637Y006450D01*
X002611Y006498D01*
X002582Y006543D01*
X002549Y006586D01*
X002514Y006627D01*
X002476Y006666D01*
X002436Y006702D01*
X002393Y006735D01*
X002348Y006765D01*
X002301Y006792D01*
X002725Y006086D02*
X002723Y006032D01*
X002718Y005979D01*
X002709Y005925D01*
X002696Y005873D01*
X002680Y005822D01*
X002660Y005771D01*
X002638Y005722D01*
X002612Y005675D01*
X002582Y005630D01*
X002550Y005587D01*
X002515Y005546D01*
X002477Y005507D01*
X002437Y005471D01*
X001536Y002797D02*
X001488Y002767D01*
X001443Y002734D01*
X001400Y002698D01*
X001359Y002660D01*
X001322Y002618D01*
X001287Y002574D01*
X001256Y002528D01*
X001227Y002479D01*
X001203Y002429D01*
X001182Y002377D01*
X001164Y002323D01*
X001151Y002269D01*
X001141Y002214D01*
X001135Y002158D01*
X001133Y002102D01*
X001135Y002049D01*
X001140Y001995D01*
X001149Y001943D01*
X001161Y001891D01*
X001177Y001840D01*
X001196Y001790D01*
X001219Y001741D01*
X001245Y001694D01*
X001273Y001649D01*
X001305Y001606D01*
X001339Y001566D01*
X001377Y001527D01*
X001416Y001491D01*
X002733Y002102D02*
X002731Y002156D01*
X002726Y002210D01*
X002717Y002263D01*
X002704Y002316D01*
X002688Y002367D01*
X002668Y002417D01*
X002645Y002466D01*
X002619Y002514D01*
X002590Y002559D01*
X002557Y002602D01*
X002522Y002643D01*
X002484Y002682D01*
X002444Y002718D01*
X002401Y002751D01*
X002356Y002781D01*
X002309Y002808D01*
X002733Y002102D02*
X002731Y002048D01*
X002726Y001995D01*
X002717Y001941D01*
X002704Y001889D01*
X002688Y001838D01*
X002668Y001787D01*
X002646Y001738D01*
X002620Y001691D01*
X002590Y001646D01*
X002558Y001603D01*
X002523Y001562D01*
X002485Y001523D01*
X002445Y001487D01*
X015608Y002125D02*
X015610Y002181D01*
X015616Y002237D01*
X015626Y002292D01*
X015639Y002346D01*
X015657Y002400D01*
X015678Y002452D01*
X015702Y002502D01*
X015731Y002551D01*
X015762Y002597D01*
X015797Y002641D01*
X015834Y002683D01*
X015875Y002721D01*
X015918Y002757D01*
X015963Y002790D01*
X016011Y002820D01*
X015608Y002125D02*
X015610Y002072D01*
X015615Y002018D01*
X015624Y001966D01*
X015636Y001914D01*
X015652Y001863D01*
X015671Y001813D01*
X015694Y001764D01*
X015720Y001717D01*
X015748Y001672D01*
X015780Y001629D01*
X015814Y001589D01*
X015852Y001550D01*
X015891Y001514D01*
X017208Y002125D02*
X017206Y002179D01*
X017201Y002233D01*
X017192Y002286D01*
X017179Y002339D01*
X017163Y002390D01*
X017143Y002440D01*
X017120Y002489D01*
X017094Y002537D01*
X017065Y002582D01*
X017032Y002625D01*
X016997Y002666D01*
X016959Y002705D01*
X016919Y002741D01*
X016876Y002774D01*
X016831Y002804D01*
X016784Y002831D01*
X017208Y002125D02*
X017206Y002071D01*
X017201Y002018D01*
X017192Y001964D01*
X017179Y001912D01*
X017163Y001861D01*
X017143Y001810D01*
X017121Y001761D01*
X017095Y001714D01*
X017065Y001669D01*
X017033Y001626D01*
X016998Y001585D01*
X016960Y001546D01*
X016920Y001510D01*
X017221Y006090D02*
X017219Y006144D01*
X017214Y006198D01*
X017205Y006251D01*
X017192Y006304D01*
X017176Y006355D01*
X017156Y006405D01*
X017133Y006454D01*
X017107Y006502D01*
X017078Y006547D01*
X017045Y006590D01*
X017010Y006631D01*
X016972Y006670D01*
X016932Y006706D01*
X016889Y006739D01*
X016844Y006769D01*
X016797Y006796D01*
X016024Y006785D02*
X015976Y006755D01*
X015931Y006722D01*
X015888Y006686D01*
X015847Y006648D01*
X015810Y006606D01*
X015775Y006562D01*
X015744Y006516D01*
X015715Y006467D01*
X015691Y006417D01*
X015670Y006365D01*
X015652Y006311D01*
X015639Y006257D01*
X015629Y006202D01*
X015623Y006146D01*
X015621Y006090D01*
X015623Y006037D01*
X015628Y005983D01*
X015637Y005931D01*
X015649Y005879D01*
X015665Y005828D01*
X015684Y005778D01*
X015707Y005729D01*
X015733Y005682D01*
X015761Y005637D01*
X015793Y005594D01*
X015827Y005554D01*
X015865Y005515D01*
X015904Y005479D01*
X016933Y005475D02*
X016973Y005511D01*
X017011Y005550D01*
X017046Y005591D01*
X017078Y005634D01*
X017108Y005679D01*
X017134Y005726D01*
X017156Y005775D01*
X017176Y005826D01*
X017192Y005877D01*
X017205Y005929D01*
X017214Y005983D01*
X017219Y006036D01*
X017221Y006090D01*
X017213Y010125D02*
X017211Y010179D01*
X017206Y010233D01*
X017197Y010286D01*
X017184Y010339D01*
X017168Y010390D01*
X017148Y010440D01*
X017125Y010489D01*
X017099Y010537D01*
X017070Y010582D01*
X017037Y010625D01*
X017002Y010666D01*
X016964Y010705D01*
X016924Y010741D01*
X016881Y010774D01*
X016836Y010804D01*
X016789Y010831D01*
X016016Y010820D02*
X015968Y010790D01*
X015923Y010757D01*
X015880Y010721D01*
X015839Y010683D01*
X015802Y010641D01*
X015767Y010597D01*
X015736Y010551D01*
X015707Y010502D01*
X015683Y010452D01*
X015662Y010400D01*
X015644Y010346D01*
X015631Y010292D01*
X015621Y010237D01*
X015615Y010181D01*
X015613Y010125D01*
X015615Y010072D01*
X015620Y010018D01*
X015629Y009966D01*
X015641Y009914D01*
X015657Y009863D01*
X015676Y009813D01*
X015699Y009764D01*
X015725Y009717D01*
X015753Y009672D01*
X015785Y009629D01*
X015819Y009589D01*
X015857Y009550D01*
X015896Y009514D01*
X016925Y009510D02*
X016965Y009546D01*
X017003Y009585D01*
X017038Y009626D01*
X017070Y009669D01*
X017100Y009714D01*
X017126Y009761D01*
X017148Y009810D01*
X017168Y009861D01*
X017184Y009912D01*
X017197Y009964D01*
X017206Y010018D01*
X017211Y010071D01*
X017213Y010125D01*
X017287Y014083D02*
X017285Y014137D01*
X017280Y014191D01*
X017271Y014244D01*
X017258Y014297D01*
X017242Y014348D01*
X017222Y014398D01*
X017199Y014447D01*
X017173Y014495D01*
X017144Y014540D01*
X017111Y014583D01*
X017076Y014624D01*
X017038Y014663D01*
X016998Y014699D01*
X016955Y014732D01*
X016910Y014762D01*
X016863Y014789D01*
X016090Y014779D02*
X016042Y014749D01*
X015997Y014716D01*
X015954Y014680D01*
X015913Y014642D01*
X015876Y014600D01*
X015841Y014556D01*
X015810Y014510D01*
X015781Y014461D01*
X015757Y014411D01*
X015736Y014359D01*
X015718Y014305D01*
X015705Y014251D01*
X015695Y014196D01*
X015689Y014140D01*
X015687Y014084D01*
X015689Y014031D01*
X015694Y013977D01*
X015703Y013925D01*
X015715Y013873D01*
X015731Y013822D01*
X015750Y013772D01*
X015773Y013723D01*
X015799Y013676D01*
X015827Y013631D01*
X015859Y013588D01*
X015893Y013548D01*
X015931Y013509D01*
X015970Y013473D01*
X016999Y013469D02*
X017039Y013505D01*
X017077Y013544D01*
X017112Y013585D01*
X017144Y013628D01*
X017174Y013673D01*
X017200Y013720D01*
X017222Y013769D01*
X017242Y013820D01*
X017258Y013871D01*
X017271Y013923D01*
X017280Y013977D01*
X017285Y014030D01*
X017287Y014084D01*
D13*
X017280Y015099D02*
X017581Y015099D01*
X017741Y015099D02*
X018041Y015099D01*
X018201Y015099D02*
X018426Y015099D01*
X018501Y015174D01*
X018501Y015474D01*
X018426Y015549D01*
X018201Y015549D01*
X018201Y015099D01*
X017891Y015324D02*
X017741Y015324D01*
X017741Y015549D02*
X017741Y015099D01*
X017280Y015099D02*
X017280Y015549D01*
X017741Y015549D02*
X018041Y015549D01*
X018661Y015549D02*
X018661Y015324D01*
X018812Y015399D01*
X018887Y015399D01*
X018962Y015324D01*
X018962Y015174D01*
X018887Y015099D01*
X018736Y015099D01*
X018661Y015174D01*
X018661Y015549D02*
X018962Y015549D01*
X019076Y012377D02*
X019151Y012377D01*
X019226Y012302D01*
X019226Y012152D01*
X019151Y012077D01*
X019076Y012077D01*
X019001Y012152D01*
X019001Y012302D01*
X019076Y012377D01*
X019226Y012302D02*
X019301Y012377D01*
X019376Y012377D01*
X019451Y012302D01*
X019451Y012152D01*
X019376Y012077D01*
X019301Y012077D01*
X019226Y012152D01*
X019226Y011916D02*
X019226Y011616D01*
X019001Y011841D01*
X019451Y011841D01*
X019451Y011456D02*
X019451Y011156D01*
X019451Y011306D02*
X019001Y011306D01*
X019151Y011156D01*
X019226Y010996D02*
X019226Y010696D01*
X019001Y010921D01*
X019451Y010921D01*
X019451Y010535D02*
X019001Y010535D01*
X018808Y010650D02*
X018808Y010875D01*
X018733Y010950D01*
X018432Y010950D01*
X018357Y010875D01*
X018357Y010650D01*
X018808Y010650D01*
X018808Y011110D02*
X018808Y011410D01*
X018808Y011260D02*
X018357Y011260D01*
X018507Y011110D01*
X018432Y011570D02*
X018357Y011645D01*
X018357Y011796D01*
X018432Y011871D01*
X018733Y011570D01*
X018808Y011645D01*
X018808Y011796D01*
X018733Y011871D01*
X018432Y011871D01*
X018432Y011570D02*
X018733Y011570D01*
X017269Y011757D02*
X017269Y011832D01*
X017194Y011907D01*
X016969Y011907D01*
X016969Y011757D01*
X017044Y011682D01*
X017194Y011682D01*
X017269Y011757D01*
X017119Y012057D02*
X016969Y011907D01*
X017119Y012057D02*
X017269Y012132D01*
X016809Y012057D02*
X016734Y012132D01*
X016509Y012132D01*
X016509Y011682D01*
X016734Y011682D01*
X016809Y011757D01*
X016809Y012057D01*
X016348Y012132D02*
X016048Y012132D01*
X016048Y011682D01*
X016348Y011682D01*
X016198Y011907D02*
X016048Y011907D01*
X015888Y011682D02*
X015588Y011682D01*
X015588Y012132D01*
X012283Y013673D02*
X012208Y013598D01*
X012283Y013673D02*
X012283Y013824D01*
X012208Y013899D01*
X012133Y013899D01*
X012058Y013824D01*
X012058Y013673D01*
X011983Y013598D01*
X011908Y013598D01*
X011833Y013673D01*
X011833Y013824D01*
X011908Y013899D01*
X012058Y014059D02*
X012058Y014284D01*
X012133Y014359D01*
X012208Y014359D01*
X012283Y014284D01*
X012283Y014134D01*
X012208Y014059D01*
X012058Y014059D01*
X011908Y014209D01*
X011833Y014359D01*
X011521Y014455D02*
X011521Y014680D01*
X011070Y014680D01*
X011220Y014680D02*
X011220Y014455D01*
X011296Y014380D01*
X011446Y014380D01*
X011521Y014455D01*
X011521Y014219D02*
X011296Y014219D01*
X011220Y014144D01*
X011220Y013919D01*
X011521Y013919D01*
X011521Y013759D02*
X011521Y013534D01*
X011446Y013459D01*
X011371Y013534D01*
X011371Y013759D01*
X011296Y013759D02*
X011521Y013759D01*
X011296Y013759D02*
X011220Y013684D01*
X011220Y013534D01*
X011296Y013299D02*
X011296Y012998D01*
X011228Y012860D02*
X011228Y012559D01*
X011228Y012709D02*
X010777Y012709D01*
X010927Y012559D01*
X010777Y012399D02*
X011228Y012399D01*
X010777Y012099D01*
X011228Y012099D01*
X011228Y011939D02*
X011078Y011789D01*
X011078Y011864D02*
X011078Y011639D01*
X011228Y011639D02*
X010777Y011639D01*
X010777Y011864D01*
X010852Y011939D01*
X011002Y011939D01*
X011078Y011864D01*
X011180Y011329D02*
X011255Y011179D01*
X011405Y011029D01*
X011405Y011254D01*
X011480Y011329D01*
X011555Y011329D01*
X011630Y011254D01*
X011630Y011104D01*
X011555Y011029D01*
X011405Y011029D01*
X011330Y010869D02*
X011330Y010643D01*
X011405Y010568D01*
X011555Y010568D01*
X011630Y010643D01*
X011630Y010869D01*
X011180Y010869D01*
X011405Y010408D02*
X011630Y010408D01*
X011786Y010423D02*
X011861Y010423D01*
X012161Y010122D01*
X012236Y010122D01*
X012161Y009962D02*
X012086Y009962D01*
X012011Y009887D01*
X012011Y009737D01*
X011936Y009662D01*
X011861Y009662D01*
X011786Y009737D01*
X011786Y009887D01*
X011861Y009962D01*
X011786Y010122D02*
X011786Y010423D01*
X011405Y010408D02*
X011330Y010333D01*
X011330Y010108D01*
X011630Y010108D01*
X011630Y009948D02*
X011405Y009948D01*
X011330Y009873D01*
X011330Y009723D01*
X011480Y009723D02*
X011480Y009948D01*
X011630Y009948D02*
X011630Y009723D01*
X011555Y009648D01*
X011480Y009723D01*
X011405Y009487D02*
X011405Y009187D01*
X011630Y009187D02*
X011180Y009187D01*
X011180Y009487D02*
X011630Y009487D01*
X012161Y009662D02*
X012236Y009737D01*
X012236Y009887D01*
X012161Y009962D01*
X013512Y008696D02*
X013662Y008846D01*
X013662Y008395D01*
X013512Y008395D02*
X013812Y008395D01*
X013972Y008395D02*
X013972Y008846D01*
X014273Y008395D01*
X014273Y008846D01*
X014433Y008621D02*
X014658Y008846D01*
X014658Y008395D01*
X014893Y008395D02*
X015193Y008395D01*
X015043Y008395D02*
X015043Y008846D01*
X014893Y008696D01*
X014733Y008621D02*
X014433Y008621D01*
X015353Y008621D02*
X015654Y008621D01*
X015814Y008696D02*
X015814Y008771D01*
X015889Y008846D01*
X016039Y008846D01*
X016114Y008771D01*
X016114Y008696D01*
X016039Y008621D01*
X015889Y008621D01*
X015814Y008696D01*
X015889Y008621D02*
X015814Y008546D01*
X015814Y008470D01*
X015889Y008395D01*
X016039Y008395D01*
X016114Y008470D01*
X016114Y008546D01*
X016039Y008621D01*
X015579Y008846D02*
X015353Y008621D01*
X015579Y008846D02*
X015579Y008395D01*
X017700Y008271D02*
X017700Y007820D01*
X017925Y007820D01*
X018000Y007895D01*
X018000Y008196D01*
X017925Y008271D01*
X017700Y008271D01*
X018160Y008121D02*
X018310Y008271D01*
X018310Y007820D01*
X018160Y007820D02*
X018460Y007820D01*
X018620Y007820D02*
X018920Y007820D01*
X018770Y007820D02*
X018770Y008271D01*
X018620Y008121D01*
X019151Y009775D02*
X019001Y009925D01*
X019451Y009925D01*
X019451Y009775D02*
X019451Y010075D01*
X019451Y010235D02*
X019001Y010235D01*
X019451Y010535D01*
X023355Y007600D02*
X023355Y007299D01*
X023580Y007299D01*
X023505Y007450D01*
X023505Y007525D01*
X023580Y007600D01*
X023730Y007600D01*
X023805Y007525D01*
X023805Y007374D01*
X023730Y007299D01*
X023580Y007139D02*
X023655Y007064D01*
X023655Y006839D01*
X023805Y006839D02*
X023355Y006839D01*
X023355Y007064D01*
X023430Y007139D01*
X023580Y007139D01*
X023355Y006679D02*
X023355Y006529D01*
X023355Y006604D02*
X023730Y006604D01*
X023805Y006529D01*
X023805Y006454D01*
X023730Y006379D01*
X020216Y004173D02*
X020216Y004098D01*
X020141Y004023D01*
X019991Y004023D01*
X019916Y004098D01*
X019916Y004173D01*
X019991Y004248D01*
X020141Y004248D01*
X020216Y004173D01*
X020141Y004023D02*
X020216Y003948D01*
X020216Y003873D01*
X020141Y003798D01*
X019991Y003798D01*
X019916Y003873D01*
X019916Y003948D01*
X019991Y004023D01*
X019756Y004023D02*
X019455Y004023D01*
X019681Y004248D01*
X019681Y003798D01*
X019295Y003798D02*
X018995Y003798D01*
X019145Y003798D02*
X019145Y004248D01*
X018995Y004098D01*
X018835Y004023D02*
X018535Y004023D01*
X018760Y004248D01*
X018760Y003798D01*
X018375Y003798D02*
X018375Y004248D01*
X018074Y004248D02*
X018375Y003798D01*
X018074Y003798D02*
X018074Y004248D01*
X017764Y004248D02*
X017764Y003798D01*
X017614Y003798D02*
X017914Y003798D01*
X017614Y004098D02*
X017764Y004248D01*
X017397Y004410D02*
X017097Y004410D01*
X017397Y004711D01*
X017397Y004786D01*
X017322Y004861D01*
X017172Y004861D01*
X017097Y004786D01*
X016787Y004861D02*
X016787Y004410D01*
X016637Y004410D02*
X016937Y004410D01*
X016637Y004711D02*
X016787Y004861D01*
X016477Y004786D02*
X016402Y004861D01*
X016176Y004861D01*
X016176Y004410D01*
X016402Y004410D01*
X016477Y004486D01*
X016477Y004786D01*
X017602Y005921D02*
X017902Y005921D01*
X018063Y005921D02*
X018363Y005921D01*
X018523Y005921D02*
X018748Y005921D01*
X018823Y005996D01*
X018823Y006297D01*
X018748Y006372D01*
X018523Y006372D01*
X018523Y005921D01*
X018213Y006147D02*
X018063Y006147D01*
X018063Y006372D02*
X018063Y005921D01*
X018063Y006372D02*
X018363Y006372D01*
X018983Y006372D02*
X019283Y006372D01*
X019283Y006297D01*
X018983Y005996D01*
X018983Y005921D01*
X017602Y005921D02*
X017602Y006372D01*
X017423Y002988D02*
X017423Y002538D01*
X017723Y002538D01*
X017883Y002538D02*
X018183Y002538D01*
X018344Y002538D02*
X018569Y002538D01*
X018644Y002613D01*
X018644Y002913D01*
X018569Y002988D01*
X018344Y002988D01*
X018344Y002538D01*
X018033Y002763D02*
X017883Y002763D01*
X017883Y002988D02*
X017883Y002538D01*
X017883Y002988D02*
X018183Y002988D01*
X018804Y002913D02*
X018804Y002838D01*
X018879Y002763D01*
X019029Y002763D01*
X019104Y002688D01*
X019104Y002613D01*
X019029Y002538D01*
X018879Y002538D01*
X018804Y002613D01*
X018804Y002688D01*
X018879Y002763D01*
X019029Y002763D02*
X019104Y002838D01*
X019104Y002913D01*
X019029Y002988D01*
X018879Y002988D01*
X018804Y002913D01*
X019442Y001973D02*
X019667Y001973D01*
X019742Y001898D01*
X019742Y001597D01*
X019667Y001522D01*
X019442Y001522D01*
X019442Y001973D01*
X019902Y001823D02*
X020052Y001973D01*
X020052Y001522D01*
X019902Y001522D02*
X020202Y001522D01*
X020362Y001597D02*
X020437Y001522D01*
X020588Y001522D01*
X020663Y001597D01*
X020663Y001673D01*
X020588Y001748D01*
X020513Y001748D01*
X020588Y001748D02*
X020663Y001823D01*
X020663Y001898D01*
X020588Y001973D01*
X020437Y001973D01*
X020362Y001898D01*
X022754Y000991D02*
X022904Y001141D01*
X022904Y000691D01*
X022754Y000691D02*
X023054Y000691D01*
X023214Y000691D02*
X023214Y001141D01*
X023515Y000691D01*
X023515Y001141D01*
X023675Y000916D02*
X023975Y000916D01*
X024135Y000991D02*
X024285Y001141D01*
X024285Y000691D01*
X024135Y000691D02*
X024435Y000691D01*
X024596Y000916D02*
X024896Y000916D01*
X025056Y000841D02*
X025056Y000766D01*
X025131Y000691D01*
X025281Y000691D01*
X025356Y000766D01*
X025356Y000841D01*
X025281Y000916D01*
X025131Y000916D01*
X025056Y000991D01*
X025056Y001066D01*
X025131Y001141D01*
X025281Y001141D01*
X025356Y001066D01*
X025356Y000991D01*
X025281Y000916D01*
X025131Y000916D02*
X025056Y000841D01*
X024821Y000691D02*
X024821Y001141D01*
X024596Y000916D01*
X023900Y000691D02*
X023900Y001141D01*
X023675Y000916D01*
X012328Y001769D02*
X012253Y001694D01*
X012328Y001769D02*
X012328Y001919D01*
X012253Y001994D01*
X012178Y001994D01*
X012103Y001919D01*
X012103Y001769D01*
X012028Y001694D01*
X011953Y001694D01*
X011878Y001769D01*
X011878Y001919D01*
X011953Y001994D01*
X011953Y002154D02*
X012028Y002154D01*
X012103Y002229D01*
X012103Y002454D01*
X012253Y002454D02*
X011953Y002454D01*
X011878Y002379D01*
X011878Y002229D01*
X011953Y002154D01*
X011722Y002284D02*
X011497Y002284D01*
X011421Y002209D01*
X011421Y001983D01*
X011722Y001983D01*
X011722Y001823D02*
X011497Y001823D01*
X011421Y001748D01*
X011421Y001598D01*
X011572Y001598D02*
X011572Y001823D01*
X011722Y001823D02*
X011722Y001598D01*
X011647Y001523D01*
X011572Y001598D01*
X011497Y001363D02*
X011497Y001063D01*
X011722Y001063D02*
X011271Y001063D01*
X011271Y001363D02*
X011722Y001363D01*
X012253Y002154D02*
X012328Y002229D01*
X012328Y002379D01*
X012253Y002454D01*
X011722Y002519D02*
X011722Y002744D01*
X011271Y002744D01*
X011421Y002744D02*
X011421Y002519D01*
X011497Y002444D01*
X011647Y002444D01*
X011722Y002519D01*
X011647Y002904D02*
X011572Y002904D01*
X011497Y002979D01*
X011497Y003129D01*
X011572Y003204D01*
X011647Y003204D01*
X011722Y003129D01*
X011722Y002979D01*
X011647Y002904D01*
X011497Y002979D02*
X011421Y002904D01*
X011346Y002904D01*
X011271Y002979D01*
X011271Y003129D01*
X011346Y003204D01*
X011421Y003204D01*
X011497Y003129D01*
X009865Y003076D02*
X009415Y003076D01*
X009565Y002926D01*
X009534Y002895D02*
X009384Y003045D01*
X009834Y003045D01*
X009865Y002926D02*
X009865Y003226D01*
X009834Y003195D02*
X009834Y002895D01*
X009865Y002691D02*
X009415Y002691D01*
X009640Y002466D01*
X009640Y002766D01*
X009609Y002735D02*
X009609Y002434D01*
X009384Y002659D01*
X009834Y002659D01*
X009865Y002305D02*
X009415Y002305D01*
X009384Y002274D02*
X009834Y002274D01*
X009384Y001974D01*
X009834Y001974D01*
X009865Y002005D02*
X009415Y002005D01*
X009865Y002305D01*
X009865Y001845D02*
X009865Y001545D01*
X009834Y001514D02*
X009834Y001814D01*
X009865Y001695D02*
X009415Y001695D01*
X009565Y001545D01*
X009534Y001514D02*
X009384Y001664D01*
X009834Y001664D01*
X009371Y001241D02*
X009446Y001166D01*
X009446Y001016D01*
X009371Y000941D01*
X009296Y000941D01*
X009221Y001016D01*
X009221Y001166D01*
X009296Y001241D01*
X009371Y001241D01*
X009221Y001166D02*
X009146Y001241D01*
X009071Y001241D01*
X008996Y001166D01*
X008996Y001016D01*
X009071Y000941D01*
X009146Y000941D01*
X009221Y001016D01*
X009071Y000780D02*
X008996Y000705D01*
X008996Y000480D01*
X009446Y000480D01*
X009446Y000705D01*
X009371Y000780D01*
X009071Y000780D01*
X006550Y001841D02*
X006475Y001766D01*
X006550Y001841D02*
X006550Y001991D01*
X006475Y002067D01*
X006400Y002067D01*
X006325Y001991D01*
X006325Y001841D01*
X006250Y001766D01*
X006175Y001766D01*
X006100Y001841D01*
X006100Y001991D01*
X006175Y002067D01*
X006100Y002227D02*
X006325Y002227D01*
X006250Y002377D01*
X006250Y002452D01*
X006325Y002527D01*
X006475Y002527D01*
X006550Y002452D01*
X006550Y002302D01*
X006475Y002227D01*
X006100Y002227D02*
X006100Y002527D01*
X006218Y003765D02*
X006218Y003990D01*
X006293Y004065D01*
X006593Y004065D01*
X006669Y003990D01*
X006669Y003765D01*
X006218Y003765D01*
X006293Y004225D02*
X006368Y004225D01*
X006443Y004300D01*
X006443Y004526D01*
X006293Y004526D02*
X006218Y004451D01*
X006218Y004300D01*
X006293Y004225D01*
X006593Y004225D02*
X006669Y004300D01*
X006669Y004451D01*
X006593Y004526D01*
X006293Y004526D01*
X006193Y005716D02*
X006118Y005716D01*
X006043Y005791D01*
X006043Y005941D01*
X006118Y006016D01*
X006268Y005941D02*
X006268Y005791D01*
X006193Y005716D01*
X006418Y005716D02*
X006493Y005791D01*
X006493Y005941D01*
X006418Y006016D01*
X006343Y006016D01*
X006268Y005941D01*
X006268Y006176D02*
X006268Y006476D01*
X006493Y006401D02*
X006043Y006401D01*
X006268Y006176D01*
X007612Y006223D02*
X007762Y006073D01*
X007612Y006223D02*
X008062Y006223D01*
X008062Y006073D02*
X008062Y006373D01*
X008062Y006533D02*
X007612Y006533D01*
X008062Y006834D01*
X007612Y006834D01*
X007837Y006994D02*
X007837Y007294D01*
X007762Y007454D02*
X007612Y007604D01*
X008062Y007604D01*
X008062Y007454D02*
X008062Y007754D01*
X007837Y007914D02*
X007837Y008215D01*
X007762Y008375D02*
X007687Y008375D01*
X007612Y008450D01*
X007612Y008600D01*
X007687Y008675D01*
X007762Y008675D01*
X007837Y008600D01*
X007837Y008450D01*
X007762Y008375D01*
X007837Y008450D02*
X007912Y008375D01*
X007987Y008375D01*
X008062Y008450D01*
X008062Y008600D01*
X007987Y008675D01*
X007912Y008675D01*
X007837Y008600D01*
X007612Y008140D02*
X007837Y007914D01*
X008062Y008140D02*
X007612Y008140D01*
X007612Y007219D02*
X007837Y006994D01*
X008062Y007219D02*
X007612Y007219D01*
X009277Y007195D02*
X009277Y007420D01*
X009352Y007495D01*
X009502Y007495D01*
X009577Y007420D01*
X009577Y007195D01*
X009577Y007345D02*
X009728Y007495D01*
X009728Y007805D02*
X009427Y007655D01*
X009427Y007955D02*
X009728Y007805D01*
X009803Y008116D02*
X009803Y008416D01*
X009728Y008576D02*
X009728Y008876D01*
X009728Y009036D02*
X009728Y009337D01*
X009728Y009497D02*
X009728Y009722D01*
X009653Y009797D01*
X009352Y009797D01*
X009277Y009722D01*
X009277Y009497D01*
X009728Y009497D01*
X009502Y009186D02*
X009502Y009036D01*
X009277Y009036D02*
X009728Y009036D01*
X009277Y009036D02*
X009277Y009337D01*
X009277Y008576D02*
X009728Y008576D01*
X011235Y007216D02*
X011310Y007216D01*
X011610Y006915D01*
X011685Y006915D01*
X011685Y006755D02*
X011685Y006530D01*
X011610Y006455D01*
X011460Y006455D01*
X011385Y006530D01*
X011385Y006755D01*
X011235Y006755D02*
X011685Y006755D01*
X011235Y006915D02*
X011235Y007216D01*
X009728Y007195D02*
X009277Y007195D01*
X011385Y006220D02*
X011385Y005995D01*
X011685Y005995D01*
X011685Y005835D02*
X011460Y005835D01*
X011385Y005760D01*
X011385Y005609D01*
X011535Y005609D02*
X011535Y005835D01*
X011685Y005835D02*
X011685Y005609D01*
X011610Y005534D01*
X011535Y005609D01*
X011460Y005374D02*
X011460Y005074D01*
X011685Y005074D02*
X011235Y005074D01*
X011235Y005374D02*
X011685Y005374D01*
X011916Y005611D02*
X011991Y005611D01*
X012066Y005686D01*
X012066Y005837D01*
X012141Y005912D01*
X012217Y005912D01*
X012292Y005837D01*
X012292Y005686D01*
X012217Y005611D01*
X011916Y005611D02*
X011841Y005686D01*
X011841Y005837D01*
X011916Y005912D01*
X011916Y006072D02*
X011991Y006072D01*
X012066Y006147D01*
X012066Y006297D01*
X012141Y006372D01*
X012217Y006372D01*
X012292Y006297D01*
X012292Y006147D01*
X012217Y006072D01*
X012141Y006072D01*
X012066Y006147D01*
X012066Y006297D02*
X011991Y006372D01*
X011916Y006372D01*
X011841Y006297D01*
X011841Y006147D01*
X011916Y006072D01*
X011685Y006295D02*
X011460Y006295D01*
X011385Y006220D01*
X009790Y004147D02*
X009865Y004072D01*
X009865Y003922D01*
X009790Y003847D01*
X009715Y003847D01*
X009640Y003922D01*
X009640Y004072D01*
X009715Y004147D01*
X009790Y004147D01*
X009759Y004116D02*
X009834Y004041D01*
X009834Y003890D01*
X009759Y003815D01*
X009684Y003815D01*
X009609Y003890D01*
X009609Y004041D01*
X009684Y004116D01*
X009759Y004116D01*
X009640Y004072D02*
X009565Y004147D01*
X009490Y004147D01*
X009415Y004072D01*
X009415Y003922D01*
X009490Y003847D01*
X009565Y003847D01*
X009640Y003922D01*
X009609Y003890D02*
X009534Y003815D01*
X009459Y003815D01*
X009384Y003890D01*
X009384Y004041D01*
X009459Y004116D01*
X009534Y004116D01*
X009609Y004041D01*
X009640Y003687D02*
X009640Y003386D01*
X009415Y003611D01*
X009865Y003611D01*
X009834Y003580D02*
X009384Y003580D01*
X009609Y003355D01*
X009609Y003655D01*
X005581Y000881D02*
X005356Y000656D01*
X005656Y000656D01*
X005581Y000881D02*
X005581Y000430D01*
X005195Y000430D02*
X004970Y000430D01*
X004895Y000505D01*
X004895Y000656D01*
X004970Y000731D01*
X005195Y000731D01*
X005195Y000881D02*
X005195Y000430D01*
X004735Y000430D02*
X004735Y000656D01*
X004660Y000731D01*
X004435Y000731D01*
X004435Y000430D01*
X004275Y000430D02*
X004049Y000430D01*
X003974Y000505D01*
X004049Y000581D01*
X004275Y000581D01*
X004275Y000656D02*
X004275Y000430D01*
X003814Y000430D02*
X003814Y000881D01*
X003814Y000656D02*
X003514Y000656D01*
X003514Y000881D02*
X003514Y000430D01*
X004049Y000731D02*
X004200Y000731D01*
X004275Y000656D01*
X002706Y003365D02*
X002706Y003815D01*
X002481Y003590D01*
X002781Y003590D01*
X002320Y003440D02*
X002245Y003365D01*
X002020Y003365D01*
X002020Y003815D01*
X002245Y003815D01*
X002320Y003740D01*
X002320Y003440D01*
X001860Y003365D02*
X001560Y003365D01*
X001560Y003815D01*
X001860Y003815D01*
X001710Y003590D02*
X001560Y003590D01*
X001400Y003365D02*
X001099Y003365D01*
X001099Y003815D01*
X001128Y004312D02*
X001428Y004312D01*
X001588Y004312D02*
X001888Y004312D01*
X002048Y004312D02*
X002273Y004312D01*
X002348Y004387D01*
X002348Y004688D01*
X002273Y004763D01*
X002048Y004763D01*
X002048Y004312D01*
X001738Y004538D02*
X001588Y004538D01*
X001588Y004763D02*
X001588Y004312D01*
X001128Y004312D02*
X001128Y004763D01*
X001588Y004763D02*
X001888Y004763D01*
X002509Y004688D02*
X002584Y004763D01*
X002734Y004763D01*
X002809Y004688D01*
X002809Y004613D01*
X002734Y004538D01*
X002809Y004462D01*
X002809Y004387D01*
X002734Y004312D01*
X002584Y004312D01*
X002509Y004387D01*
X002659Y004538D02*
X002734Y004538D01*
X000974Y005091D02*
X000524Y005091D01*
X000749Y005091D02*
X000749Y005391D01*
X000899Y005551D02*
X000824Y005626D01*
X000824Y005851D01*
X000749Y005851D02*
X000974Y005851D01*
X000974Y005626D01*
X000899Y005551D01*
X000974Y005391D02*
X000524Y005391D01*
X000674Y005626D02*
X000674Y005776D01*
X000749Y005851D01*
X000674Y006012D02*
X000674Y006237D01*
X000749Y006312D01*
X000974Y006312D01*
X000899Y006472D02*
X000749Y006472D01*
X000674Y006547D01*
X000674Y006772D01*
X000524Y006772D02*
X000974Y006772D01*
X000974Y006547D01*
X000899Y006472D01*
X000899Y006932D02*
X000974Y007007D01*
X000974Y007157D01*
X000899Y007233D01*
X000824Y007233D01*
X000749Y007157D01*
X000749Y007082D01*
X000749Y007157D02*
X000674Y007233D01*
X000599Y007233D01*
X000524Y007157D01*
X000524Y007007D01*
X000599Y006932D01*
X000674Y006012D02*
X000974Y006012D01*
X001052Y008432D02*
X001352Y008432D01*
X001512Y008432D02*
X001812Y008432D01*
X001972Y008432D02*
X002198Y008432D01*
X002273Y008508D01*
X002273Y008808D01*
X002198Y008883D01*
X001972Y008883D01*
X001972Y008432D01*
X001662Y008658D02*
X001512Y008658D01*
X001512Y008883D02*
X001512Y008432D01*
X001052Y008432D02*
X001052Y008883D01*
X001014Y009024D02*
X000564Y009024D01*
X000789Y009024D02*
X000789Y009324D01*
X000939Y009484D02*
X000864Y009559D01*
X000864Y009784D01*
X000789Y009784D02*
X001014Y009784D01*
X001014Y009559D01*
X000939Y009484D01*
X001014Y009324D02*
X000564Y009324D01*
X000714Y009559D02*
X000714Y009709D01*
X000789Y009784D01*
X000714Y009944D02*
X000714Y010169D01*
X000789Y010244D01*
X001014Y010244D01*
X000939Y010405D02*
X000789Y010405D01*
X000714Y010480D01*
X000714Y010705D01*
X000564Y010705D02*
X001014Y010705D01*
X001014Y010480D01*
X000939Y010405D01*
X001014Y010865D02*
X000714Y011165D01*
X000639Y011165D01*
X000564Y011090D01*
X000564Y010940D01*
X000639Y010865D01*
X001014Y010865D02*
X001014Y011165D01*
X001014Y009944D02*
X000714Y009944D01*
X001512Y008883D02*
X001812Y008883D01*
X002433Y008808D02*
X002508Y008883D01*
X002658Y008883D01*
X002733Y008808D01*
X002733Y008733D01*
X002433Y008432D01*
X002733Y008432D01*
X006139Y009792D02*
X006214Y009717D01*
X006289Y009717D01*
X006364Y009792D01*
X006364Y009942D01*
X006439Y010017D01*
X006514Y010017D01*
X006589Y009942D01*
X006589Y009792D01*
X006514Y009717D01*
X006139Y009792D02*
X006139Y009942D01*
X006214Y010017D01*
X006214Y010178D02*
X006139Y010253D01*
X006139Y010403D01*
X006214Y010478D01*
X006289Y010478D01*
X006364Y010403D01*
X006439Y010478D01*
X006514Y010478D01*
X006589Y010403D01*
X006589Y010253D01*
X006514Y010178D01*
X006364Y010328D02*
X006364Y010403D01*
X006849Y011821D02*
X006849Y012046D01*
X006924Y012121D01*
X007225Y012121D01*
X007300Y012046D01*
X007300Y011821D01*
X006849Y011821D01*
X006849Y012281D02*
X006849Y012581D01*
X006924Y012581D01*
X007225Y012281D01*
X007300Y012281D01*
X008774Y012281D02*
X008999Y012056D01*
X008999Y012356D01*
X008924Y012516D02*
X008774Y012667D01*
X009224Y012667D01*
X009224Y012817D02*
X009224Y012516D01*
X009224Y012281D02*
X008774Y012281D01*
X008774Y011896D02*
X009224Y011896D01*
X008774Y011596D01*
X009224Y011596D01*
X009224Y011436D02*
X009224Y011135D01*
X009224Y011285D02*
X008774Y011285D01*
X008924Y011135D01*
X008999Y012977D02*
X008999Y013277D01*
X009074Y013437D02*
X008999Y013512D01*
X008999Y013662D01*
X009074Y013737D01*
X009149Y013737D01*
X009224Y013662D01*
X009224Y013512D01*
X009149Y013437D01*
X009074Y013437D01*
X008999Y013512D02*
X008924Y013437D01*
X008849Y013437D01*
X008774Y013512D01*
X008774Y013662D01*
X008849Y013737D01*
X008924Y013737D01*
X008999Y013662D01*
X008336Y013914D02*
X008336Y014140D01*
X008261Y014215D01*
X007961Y014215D01*
X007886Y014140D01*
X007886Y013914D01*
X008336Y013914D01*
X008261Y014375D02*
X008336Y014450D01*
X008336Y014600D01*
X008261Y014675D01*
X008186Y014675D01*
X008111Y014600D01*
X008111Y014375D01*
X008261Y014375D01*
X008111Y014375D02*
X007961Y014525D01*
X007886Y014675D01*
X006657Y014515D02*
X006657Y014215D01*
X006357Y014515D01*
X006281Y014515D01*
X006206Y014440D01*
X006206Y014290D01*
X006281Y014215D01*
X006281Y014054D02*
X006206Y013979D01*
X006206Y013829D01*
X006281Y013754D01*
X006357Y013754D01*
X006432Y013829D01*
X006432Y013979D01*
X006507Y014054D01*
X006582Y014054D01*
X006657Y013979D01*
X006657Y013829D01*
X006582Y013754D01*
X008774Y013202D02*
X008999Y012977D01*
X009224Y013202D02*
X008774Y013202D01*
X011070Y013299D02*
X011521Y013299D01*
X011521Y012998D02*
X011070Y012998D01*
X011070Y014840D02*
X011296Y014840D01*
X011220Y014990D01*
X011220Y015065D01*
X011296Y015140D01*
X011446Y015140D01*
X011521Y015065D01*
X011521Y014915D01*
X011446Y014840D01*
X011070Y014840D02*
X011070Y015140D01*
X002804Y015404D02*
X002503Y015404D01*
X002654Y015404D02*
X002654Y015854D01*
X002503Y015704D01*
X002343Y015779D02*
X002343Y015479D01*
X002268Y015404D01*
X002043Y015404D01*
X002043Y015854D01*
X002268Y015854D01*
X002343Y015779D01*
X001883Y015854D02*
X001583Y015854D01*
X001583Y015404D01*
X001883Y015404D01*
X001733Y015629D02*
X001583Y015629D01*
X001423Y015404D02*
X001122Y015404D01*
X001122Y015854D01*
X001036Y015219D02*
X001036Y014918D01*
X001036Y015069D02*
X000586Y015069D01*
X000736Y014918D01*
X000736Y014758D02*
X000736Y014533D01*
X000811Y014458D01*
X000961Y014458D01*
X001036Y014533D01*
X001036Y014758D01*
X000586Y014758D01*
X000811Y014298D02*
X001036Y014298D01*
X000811Y014298D02*
X000736Y014223D01*
X000736Y013998D01*
X001036Y013998D01*
X001036Y013838D02*
X001036Y013612D01*
X000961Y013537D01*
X000886Y013612D01*
X000886Y013838D01*
X000811Y013838D02*
X001036Y013838D01*
X000811Y013838D02*
X000736Y013762D01*
X000736Y013612D01*
X000811Y013377D02*
X000811Y013077D01*
X001036Y013077D02*
X000586Y013077D01*
X000586Y013377D02*
X001036Y013377D01*
D14*
X025537Y008176D02*
X025614Y008253D01*
X025691Y008253D01*
X025767Y008176D01*
X025844Y008253D01*
X025921Y008253D01*
X025997Y008176D01*
X025997Y008023D01*
X025921Y007946D01*
X025921Y007793D02*
X025767Y007793D01*
X025691Y007716D01*
X025691Y007639D01*
X025767Y007486D01*
X025537Y007486D01*
X025537Y007793D01*
X025614Y007946D02*
X025537Y008023D01*
X025537Y008176D01*
X025767Y008176D02*
X025767Y008099D01*
X025921Y007793D02*
X025997Y007716D01*
X025997Y007562D01*
X025921Y007486D01*
X025921Y007332D02*
X025997Y007332D01*
X025997Y007256D01*
X025921Y007256D01*
X025921Y007332D01*
X025921Y007102D02*
X025997Y007025D01*
X025997Y006872D01*
X025921Y006795D01*
X025767Y006949D02*
X025767Y007025D01*
X025844Y007102D01*
X025921Y007102D01*
X025767Y007025D02*
X025691Y007102D01*
X025614Y007102D01*
X025537Y007025D01*
X025537Y006872D01*
X025614Y006795D01*
X025691Y006181D02*
X025691Y006105D01*
X025844Y005951D01*
X025844Y005798D02*
X025767Y005798D01*
X025691Y005721D01*
X025691Y005568D01*
X025767Y005491D01*
X025921Y005491D01*
X025997Y005568D01*
X025997Y005721D01*
X025844Y005798D02*
X025844Y005491D01*
X025997Y005337D02*
X025921Y005261D01*
X025614Y005261D01*
X025691Y005184D02*
X025691Y005337D01*
X025691Y005030D02*
X025691Y004800D01*
X025767Y004724D01*
X025844Y004800D01*
X025844Y004954D01*
X025921Y005030D01*
X025997Y004954D01*
X025997Y004724D01*
X025997Y004570D02*
X025767Y004570D01*
X025691Y004493D01*
X025691Y004340D01*
X025844Y004340D02*
X025844Y004570D01*
X025997Y004570D02*
X025997Y004340D01*
X025921Y004263D01*
X025844Y004340D01*
X025537Y004110D02*
X025537Y003803D01*
X025537Y003956D02*
X025997Y003956D01*
X025767Y003649D02*
X025767Y003343D01*
X025614Y003189D02*
X025537Y003112D01*
X025537Y002882D01*
X025997Y002882D01*
X025997Y003112D01*
X025921Y003189D01*
X025614Y003189D01*
X025537Y002729D02*
X025537Y002422D01*
X025997Y002422D01*
X025997Y002729D01*
X025767Y002575D02*
X025767Y002422D01*
X025997Y002268D02*
X025997Y001961D01*
X025537Y001961D01*
X025691Y005951D02*
X025997Y005951D01*
D15*
X014265Y004972D02*
X014265Y004872D01*
X014265Y004972D02*
X013265Y004972D01*
X013265Y004872D01*
X013315Y003318D02*
X013315Y003218D01*
X014265Y003218D01*
X014265Y003318D01*
X014265Y001018D02*
X013265Y001018D01*
X013265Y000918D01*
X014265Y000918D02*
X014265Y001018D01*
X005113Y003213D02*
X005113Y003313D01*
X005113Y003213D02*
X004113Y003213D01*
X004113Y003313D01*
X004113Y004888D02*
X004113Y004988D01*
X005063Y004988D01*
X005063Y004888D01*
X005113Y007188D02*
X004113Y007188D01*
X004113Y007288D01*
X005113Y007288D02*
X005113Y007188D01*
X005124Y008902D02*
X005124Y009002D01*
X004124Y009002D01*
X004124Y008902D01*
X004174Y011202D02*
X004174Y011302D01*
X004174Y011202D02*
X005124Y011202D01*
X005124Y011302D01*
X005103Y012896D02*
X005103Y012996D01*
X004153Y012996D01*
X004153Y012896D01*
X004153Y015196D02*
X005153Y015196D01*
X005153Y015296D01*
X004153Y015296D02*
X004153Y015196D01*
X013311Y015188D02*
X013311Y015288D01*
X013311Y015188D02*
X014261Y015188D01*
X014261Y015288D01*
X014261Y012988D02*
X013261Y012988D01*
X013261Y012888D01*
X014261Y012888D02*
X014261Y012988D01*
X014265Y011316D02*
X014265Y011216D01*
X013315Y011216D01*
X013315Y011316D01*
X013265Y009016D02*
X013265Y008916D01*
X013265Y009016D02*
X014265Y009016D01*
X014265Y008916D01*
X014265Y007272D02*
X014265Y007172D01*
X013315Y007172D01*
X013315Y007272D01*
X005063Y001013D02*
X004113Y001013D01*
X004113Y000913D01*
X005063Y000913D02*
X005063Y001013D01*
D16*
X007378Y003832D03*
X008378Y003832D03*
X007075Y009767D03*
X008174Y011891D03*
X017798Y012102D03*
D17*
X017798Y012727D03*
X017798Y010177D03*
X008378Y004457D03*
X007378Y004457D03*
X007378Y001907D03*
X008378Y001907D03*
X007075Y007842D03*
X008174Y009966D03*
X007075Y010392D03*
X008174Y012516D03*
D18*
X014187Y007920D03*
X014195Y004010D03*
X019085Y000872D03*
D19*
X018460Y000872D03*
X021010Y000872D03*
X016120Y004010D03*
X013570Y004010D03*
X013562Y007920D03*
X016112Y007920D03*
M02*
