%
M48
M72
T01C0.0276
T02C0.0320
T03C0.0400
T04C0.0512
%
T01
X9128Y2995
X9190Y2057
X9128Y3995
X18565Y4745
X23065Y2370
X23815Y1807
X24565Y3620
X23815Y4557
X18565Y10057
X19815Y10620
X21003Y12995
X20378Y14557
X10440Y12557
X9503Y13557
X8878Y14807
T02
X8174Y13241
X7075Y11117
X8174Y9241
X10440Y8995
X10440Y7995
X10440Y6995
X10440Y5995
X10440Y4995
X10440Y3995
X10440Y2995
X12845Y4010
X16408Y2625
X16408Y1625
X17735Y872
X21735Y872
X16845Y4010
X16421Y5590
X16421Y6590
X16837Y7920
X17798Y9452
X16413Y9625
X16413Y10625
X12837Y7920
X10440Y9995
X10440Y10995
X16487Y13584
X17798Y13452
X16487Y14584
X7075Y7117
X7378Y5182
X8378Y5182
X8378Y1182
X7378Y1182
X1933Y1602
X1933Y2602
X1925Y5586
X1925Y6586
X1890Y9596
X1890Y10596
X1945Y13589
X1945Y14589
T03
X3373Y14986
X5933Y14986
X5933Y13206
X3373Y13206
X3344Y10992
X5904Y10992
X5904Y9212
X3344Y9212
X3333Y6978
X5893Y6978
X5893Y5198
X3333Y5198
X3333Y3003
X5893Y3003
X5893Y1223
X3333Y1223
X12485Y1228
X15045Y1228
X15045Y3008
X12485Y3008
X12485Y5182
X15045Y5182
X15045Y6962
X12485Y6962
X12485Y9226
X15045Y9226
X15045Y11006
X12485Y11006
X12481Y13198
X15041Y13198
X15041Y14978
X12481Y14978
X21705Y11574
X21705Y10574
X21705Y9574
X21705Y8574
X21705Y7574
X21705Y6574
X21705Y5574
X21705Y4574
X21705Y3574
X21705Y2574
T04
X951Y1063
X951Y12214
M30
