G75*
G70*
%OFA0B0*%
%FSLAX24Y24*%
%IPPOS*%
%LPD*%
%AMOC8*
5,1,8,0,0,1.08239X$1,22.5*
%
%ADD10OC8,0.0520*%
%ADD11C,0.0600*%
%ADD12C,0.0520*%
%ADD13OC8,0.1000*%
%ADD14R,0.0436X0.0436*%
%ADD15C,0.0160*%
%ADD16C,0.0240*%
D10*
X001933Y001602D03*
X001933Y002602D03*
X001925Y005586D03*
X001925Y006586D03*
X001890Y009596D03*
X001890Y010596D03*
X001945Y013589D03*
X001945Y014589D03*
X016487Y014584D03*
X016487Y013584D03*
X016413Y010625D03*
X016413Y009625D03*
X016421Y006590D03*
X016421Y005590D03*
X016408Y002625D03*
X016408Y001625D03*
D11*
X015345Y001228D02*
X014745Y001228D01*
X012785Y001228D02*
X012185Y001228D01*
X012185Y003008D02*
X012785Y003008D01*
X014745Y003008D02*
X015345Y003008D01*
X015345Y005182D02*
X014745Y005182D01*
X012785Y005182D02*
X012185Y005182D01*
X012185Y006962D02*
X012785Y006962D01*
X014745Y006962D02*
X015345Y006962D01*
X015345Y009226D02*
X014745Y009226D01*
X012785Y009226D02*
X012185Y009226D01*
X012185Y011006D02*
X012785Y011006D01*
X014745Y011006D02*
X015345Y011006D01*
X015341Y013198D02*
X014741Y013198D01*
X012781Y013198D02*
X012181Y013198D01*
X012181Y014978D02*
X012781Y014978D01*
X014741Y014978D02*
X015341Y014978D01*
X021405Y011574D02*
X022005Y011574D01*
X022005Y010574D02*
X021405Y010574D01*
X021405Y009574D02*
X022005Y009574D01*
X022005Y008574D02*
X021405Y008574D01*
X021405Y007574D02*
X022005Y007574D01*
X022005Y006574D02*
X021405Y006574D01*
X021405Y005574D02*
X022005Y005574D01*
X022005Y004574D02*
X021405Y004574D01*
X021405Y003574D02*
X022005Y003574D01*
X022005Y002574D02*
X021405Y002574D01*
X006193Y003003D02*
X005593Y003003D01*
X003633Y003003D02*
X003033Y003003D01*
X003033Y001223D02*
X003633Y001223D01*
X005593Y001223D02*
X006193Y001223D01*
X006193Y005198D02*
X005593Y005198D01*
X003633Y005198D02*
X003033Y005198D01*
X003033Y006978D02*
X003633Y006978D01*
X005593Y006978D02*
X006193Y006978D01*
X006204Y009212D02*
X005604Y009212D01*
X003644Y009212D02*
X003044Y009212D01*
X003044Y010992D02*
X003644Y010992D01*
X005604Y010992D02*
X006204Y010992D01*
X006233Y013206D02*
X005633Y013206D01*
X003673Y013206D02*
X003073Y013206D01*
X003073Y014986D02*
X003673Y014986D01*
X005633Y014986D02*
X006233Y014986D01*
D12*
X008174Y013501D02*
X008174Y012981D01*
X007075Y011377D02*
X007075Y010857D01*
X008174Y009501D02*
X008174Y008981D01*
X010180Y008995D02*
X010700Y008995D01*
X010700Y007995D02*
X010180Y007995D01*
X010180Y006995D02*
X010700Y006995D01*
X010700Y005995D02*
X010180Y005995D01*
X010180Y004995D02*
X010700Y004995D01*
X010700Y003995D02*
X010180Y003995D01*
X010180Y002995D02*
X010700Y002995D01*
X012585Y004010D02*
X013105Y004010D01*
X016585Y004010D02*
X017105Y004010D01*
X017475Y000872D02*
X017995Y000872D01*
X021475Y000872D02*
X021995Y000872D01*
X017097Y007920D02*
X016577Y007920D01*
X017798Y009192D02*
X017798Y009712D01*
X013097Y007920D02*
X012577Y007920D01*
X010700Y009995D02*
X010180Y009995D01*
X010180Y010995D02*
X010700Y010995D01*
X007075Y007377D02*
X007075Y006857D01*
X007378Y005442D02*
X007378Y004922D01*
X008378Y004922D02*
X008378Y005442D01*
X008378Y001442D02*
X008378Y000922D01*
X007378Y000922D02*
X007378Y001442D01*
X017798Y013192D02*
X017798Y013712D01*
D13*
X000951Y012214D03*
X000951Y001063D03*
D14*
X009128Y002995D03*
X009190Y002057D03*
X009128Y003995D03*
X018565Y004745D03*
X023065Y002370D03*
X023815Y001807D03*
X024565Y003620D03*
X023815Y004557D03*
X018565Y010057D03*
X019815Y010620D03*
X021003Y012995D03*
X020378Y014557D03*
X010440Y012557D03*
X009503Y013557D03*
X008878Y014807D03*
D15*
X001651Y000773D02*
X001490Y000612D01*
X007037Y000612D01*
X006988Y000662D01*
X006918Y000831D01*
X006918Y001534D01*
X006925Y001551D01*
X006578Y001899D01*
X006535Y002001D01*
X006535Y002113D01*
X006535Y002637D01*
X006477Y002579D01*
X006293Y002503D01*
X005494Y002503D01*
X005310Y002579D01*
X005169Y002719D01*
X005093Y002903D01*
X005093Y003102D01*
X005169Y003286D01*
X005310Y003426D01*
X005494Y003503D01*
X006293Y003503D01*
X006477Y003426D01*
X006535Y003368D01*
X006535Y004833D01*
X006477Y004774D01*
X006293Y004698D01*
X005494Y004698D01*
X005310Y004774D01*
X005169Y004915D01*
X005093Y005099D01*
X005093Y005298D01*
X005169Y005481D01*
X005310Y005622D01*
X005494Y005698D01*
X006293Y005698D01*
X006477Y005622D01*
X006535Y005563D01*
X006535Y006613D01*
X006477Y006554D01*
X006293Y006478D01*
X005494Y006478D01*
X005310Y006554D01*
X005169Y006695D01*
X005093Y006879D01*
X005093Y007078D01*
X005169Y007261D01*
X005310Y007402D01*
X005494Y007478D01*
X006293Y007478D01*
X006477Y007402D01*
X006615Y007264D01*
X006615Y007468D01*
X006685Y007637D01*
X006795Y007747D01*
X006795Y008087D01*
X006795Y008198D01*
X006837Y008301D01*
X007714Y009177D01*
X007714Y009593D01*
X007784Y009762D01*
X007913Y009891D01*
X008082Y009961D01*
X008265Y009961D01*
X008434Y009891D01*
X008564Y009762D01*
X008598Y009680D01*
X008598Y012803D01*
X008564Y012721D01*
X008434Y012591D01*
X008265Y012521D01*
X008082Y012521D01*
X007913Y012591D01*
X007784Y012721D01*
X007714Y012890D01*
X007714Y013593D01*
X007784Y013762D01*
X007913Y013891D01*
X008082Y013961D01*
X008265Y013961D01*
X008434Y013891D01*
X008564Y013762D01*
X008598Y013680D01*
X008598Y014389D01*
X008577Y014389D01*
X008460Y014507D01*
X008460Y015108D01*
X008577Y015225D01*
X009178Y015225D01*
X009295Y015108D01*
X009295Y014507D01*
X009178Y014389D01*
X009158Y014389D01*
X009158Y013931D01*
X009202Y013975D01*
X009803Y013975D01*
X009920Y013858D01*
X009920Y013257D01*
X009823Y013159D01*
X009823Y011288D01*
X009920Y011385D01*
X010089Y011455D01*
X010160Y011455D01*
X010160Y012139D01*
X010139Y012139D01*
X010022Y012257D01*
X010022Y012858D01*
X010139Y012975D01*
X010741Y012975D01*
X010858Y012858D01*
X010858Y012257D01*
X010741Y012139D01*
X010720Y012139D01*
X010720Y011455D01*
X010792Y011455D01*
X010961Y011385D01*
X011090Y011255D01*
X011160Y011086D01*
X011160Y010903D01*
X011090Y010734D01*
X010961Y010605D01*
X010792Y010535D01*
X010089Y010535D01*
X009920Y010605D01*
X009823Y010702D01*
X009823Y010346D01*
X009881Y010346D01*
X009920Y010385D01*
X010089Y010455D01*
X010792Y010455D01*
X010961Y010385D01*
X011090Y010255D01*
X011160Y010086D01*
X011160Y009903D01*
X011090Y009734D01*
X010961Y009605D01*
X010792Y009535D01*
X010089Y009535D01*
X009920Y009605D01*
X009818Y009706D01*
X009595Y009706D01*
X009478Y009755D01*
X009388Y009845D01*
X009388Y009845D01*
X009321Y009911D01*
X009321Y009911D01*
X009231Y010001D01*
X009183Y010118D01*
X009183Y013159D01*
X009158Y013184D01*
X009158Y006736D01*
X009619Y006275D01*
X009810Y006275D01*
X009920Y006385D01*
X010089Y006455D01*
X010792Y006455D01*
X010961Y006385D01*
X011090Y006255D01*
X011160Y006086D01*
X011160Y005903D01*
X011090Y005734D01*
X010961Y005605D01*
X010792Y005535D01*
X010089Y005535D01*
X009920Y005605D01*
X009810Y005715D01*
X009447Y005715D01*
X009344Y005757D01*
X009265Y005836D01*
X008640Y006461D01*
X008598Y006564D01*
X008598Y006675D01*
X008598Y008803D01*
X008564Y008721D01*
X008434Y008591D01*
X008265Y008521D01*
X008082Y008521D01*
X007918Y008590D01*
X007355Y008026D01*
X007355Y007747D01*
X007465Y007637D01*
X007535Y007468D01*
X007535Y006765D01*
X007465Y006596D01*
X007335Y006467D01*
X007166Y006397D01*
X007095Y006397D01*
X007095Y005810D01*
X007117Y005832D01*
X007286Y005902D01*
X007469Y005902D01*
X007638Y005832D01*
X007768Y005703D01*
X007838Y005534D01*
X007838Y004831D01*
X007768Y004662D01*
X007698Y004592D01*
X007698Y002627D01*
X007823Y002502D01*
X009129Y002502D01*
X009194Y002475D01*
X009491Y002475D01*
X009608Y002358D01*
X009608Y001757D01*
X009491Y001639D01*
X008889Y001639D01*
X008772Y001757D01*
X008772Y001862D01*
X008566Y001862D01*
X008638Y001832D01*
X008768Y001703D01*
X008838Y001534D01*
X008838Y000831D01*
X008768Y000662D01*
X008718Y000612D01*
X017085Y000612D01*
X017015Y000781D01*
X017015Y000964D01*
X017085Y001133D01*
X017215Y001262D01*
X017384Y001332D01*
X018087Y001332D01*
X018256Y001262D01*
X018385Y001133D01*
X018455Y000964D01*
X018455Y000781D01*
X018385Y000612D01*
X021085Y000612D01*
X021015Y000781D01*
X021015Y000964D01*
X021085Y001133D01*
X021215Y001262D01*
X021384Y001332D01*
X021455Y001332D01*
X021455Y002074D01*
X021305Y002074D01*
X021122Y002151D01*
X020981Y002291D01*
X020905Y002475D01*
X020905Y002674D01*
X020981Y002858D01*
X021122Y002998D01*
X021305Y003074D01*
X022104Y003074D01*
X022288Y003151D01*
X022429Y003291D01*
X022505Y003475D01*
X022505Y003674D01*
X022429Y003858D01*
X022288Y003998D01*
X022104Y004074D01*
X022288Y004151D01*
X022429Y004291D01*
X022505Y004475D01*
X022505Y004674D01*
X022429Y004858D01*
X022288Y004998D01*
X022785Y004998D01*
X022785Y004840D02*
X022436Y004840D01*
X022502Y004681D02*
X022785Y004681D01*
X022785Y004522D02*
X022505Y004522D01*
X022459Y004364D02*
X022785Y004364D01*
X022785Y004205D02*
X022343Y004205D01*
X022171Y004047D02*
X022785Y004047D01*
X022785Y003888D02*
X022398Y003888D01*
X022482Y003730D02*
X022785Y003730D01*
X022785Y003571D02*
X022505Y003571D01*
X022479Y003413D02*
X022785Y003413D01*
X022785Y003254D02*
X022392Y003254D01*
X022288Y002998D02*
X022104Y003074D01*
X021305Y003074D01*
X021122Y003151D01*
X020981Y003291D01*
X020905Y003475D01*
X020905Y003674D01*
X020981Y003858D01*
X021122Y003998D01*
X021305Y004074D01*
X022104Y004074D01*
X021305Y004074D01*
X021122Y004151D01*
X020981Y004291D01*
X020905Y004475D01*
X020905Y004674D01*
X020981Y004858D01*
X021122Y004998D01*
X021305Y005074D01*
X022104Y005074D01*
X022288Y005151D01*
X022429Y005291D01*
X022505Y005475D01*
X022505Y005674D01*
X022429Y005858D01*
X022288Y005998D01*
X022104Y006074D01*
X022288Y006151D01*
X022429Y006291D01*
X022505Y006475D01*
X022505Y006674D01*
X022429Y006858D01*
X022288Y006998D01*
X022104Y007074D01*
X022288Y007151D01*
X022429Y007291D01*
X022505Y007475D01*
X022505Y007674D01*
X022429Y007858D01*
X022288Y007998D01*
X022104Y008074D01*
X022288Y008151D01*
X022415Y008277D01*
X022512Y008277D01*
X022785Y008004D01*
X022785Y002787D01*
X022764Y002787D01*
X022647Y002670D01*
X022647Y002069D01*
X022764Y001952D01*
X023366Y001952D01*
X023397Y001984D01*
X023397Y001507D01*
X023514Y001389D01*
X024116Y001389D01*
X024233Y001507D01*
X024233Y002108D01*
X024116Y002225D01*
X024095Y002225D01*
X024095Y004139D01*
X024116Y004139D01*
X024233Y004257D01*
X024233Y004858D01*
X024116Y004975D01*
X023514Y004975D01*
X023397Y004858D01*
X023397Y004257D01*
X023514Y004139D01*
X023535Y004139D01*
X023535Y002225D01*
X023514Y002225D01*
X023483Y002193D01*
X023483Y002670D01*
X023366Y002787D01*
X023345Y002787D01*
X023345Y008064D01*
X023345Y008175D01*
X023302Y008278D01*
X022865Y008716D01*
X022786Y008795D01*
X022683Y008837D01*
X022437Y008837D01*
X022429Y008858D01*
X022288Y008998D01*
X022104Y009074D01*
X022288Y009151D01*
X022429Y009291D01*
X022505Y009475D01*
X022505Y009674D01*
X022429Y009858D01*
X022288Y009998D01*
X022104Y010074D01*
X022288Y010151D01*
X022429Y010291D01*
X022505Y010475D01*
X022505Y010674D01*
X022429Y010858D01*
X022288Y010998D01*
X022104Y011074D01*
X022288Y011151D01*
X022429Y011291D01*
X022505Y011475D01*
X022505Y011674D01*
X022429Y011858D01*
X022288Y011998D01*
X022104Y012074D01*
X021305Y012074D01*
X021122Y011998D01*
X020981Y011858D01*
X020905Y011674D01*
X020905Y011475D01*
X020981Y011291D01*
X021122Y011151D01*
X021305Y011074D01*
X021122Y010998D01*
X020981Y010858D01*
X020905Y010674D01*
X020905Y010475D01*
X020981Y010291D01*
X021122Y010151D01*
X021305Y010074D01*
X021122Y009998D01*
X020981Y009858D01*
X020905Y009674D01*
X020905Y009475D01*
X020981Y009291D01*
X021122Y009151D01*
X021305Y009074D01*
X021122Y008998D01*
X020981Y008858D01*
X020905Y008674D01*
X020905Y008475D01*
X020981Y008291D01*
X021122Y008151D01*
X021305Y008074D01*
X021122Y007998D01*
X021023Y007900D01*
X020744Y007900D01*
X020658Y007986D01*
X020658Y012621D01*
X020702Y012577D01*
X021303Y012577D01*
X021420Y012694D01*
X021420Y012715D01*
X024199Y012715D01*
X024285Y012629D01*
X024285Y004037D01*
X024264Y004037D01*
X024147Y003920D01*
X024147Y003319D01*
X024264Y003202D01*
X024866Y003202D01*
X024983Y003319D01*
X024983Y003920D01*
X024866Y004037D01*
X024845Y004037D01*
X024845Y012800D01*
X024802Y012903D01*
X024724Y012982D01*
X024474Y013232D01*
X024371Y013275D01*
X024259Y013275D01*
X021420Y013275D01*
X021420Y013295D01*
X021303Y013412D01*
X020702Y013412D01*
X020658Y013368D01*
X020658Y014139D01*
X020678Y014139D01*
X020795Y014257D01*
X020795Y014858D01*
X020678Y014975D01*
X020077Y014975D01*
X019960Y014858D01*
X019960Y014257D01*
X020077Y014139D01*
X020098Y014139D01*
X020098Y011037D01*
X019514Y011037D01*
X019397Y010920D01*
X019397Y010319D01*
X019514Y010202D01*
X019535Y010202D01*
X019535Y006925D01*
X019535Y006814D01*
X019578Y006711D01*
X019828Y006461D01*
X019906Y006382D01*
X020009Y006340D01*
X020961Y006340D01*
X020981Y006291D01*
X021122Y006151D01*
X021305Y006074D01*
X021122Y005998D01*
X020981Y005858D01*
X020905Y005674D01*
X020905Y005475D01*
X020981Y005291D01*
X021122Y005151D01*
X021305Y005074D01*
X022104Y005074D01*
X022288Y004998D01*
X022294Y005157D02*
X022785Y005157D01*
X022785Y005315D02*
X022439Y005315D01*
X022504Y005474D02*
X022785Y005474D01*
X022785Y005632D02*
X022505Y005632D01*
X022456Y005791D02*
X022785Y005791D01*
X022785Y005949D02*
X022337Y005949D01*
X022185Y006108D02*
X022785Y006108D01*
X022785Y006266D02*
X022404Y006266D01*
X022484Y006425D02*
X022785Y006425D01*
X022785Y006584D02*
X022505Y006584D01*
X022477Y006742D02*
X022785Y006742D01*
X022785Y006901D02*
X022386Y006901D01*
X022141Y007059D02*
X022785Y007059D01*
X022785Y007218D02*
X022355Y007218D01*
X022464Y007376D02*
X022785Y007376D01*
X022785Y007535D02*
X022505Y007535D01*
X022497Y007693D02*
X022785Y007693D01*
X022785Y007852D02*
X022431Y007852D01*
X022259Y008010D02*
X022778Y008010D01*
X022620Y008169D02*
X022307Y008169D01*
X022104Y008074D02*
X021305Y008074D01*
X022104Y008074D01*
X021722Y008557D02*
X021705Y008574D01*
X021722Y008557D02*
X022628Y008557D01*
X023065Y008120D01*
X023065Y002370D01*
X022647Y002303D02*
X022434Y002303D01*
X022429Y002291D02*
X022288Y002151D01*
X022104Y002074D01*
X022015Y002074D01*
X022015Y001332D01*
X022087Y001332D01*
X022256Y001262D01*
X022385Y001133D01*
X022455Y000964D01*
X022455Y000781D01*
X022385Y000612D01*
X026260Y000612D01*
X026260Y015800D01*
X000638Y015800D01*
X000638Y012891D01*
X000661Y012914D01*
X001241Y012914D01*
X001651Y012504D01*
X001651Y011924D01*
X001241Y011514D01*
X000661Y011514D01*
X000638Y011537D01*
X000638Y001740D01*
X000661Y001763D01*
X001241Y001763D01*
X001473Y001530D01*
X001473Y001792D01*
X001743Y002062D01*
X002124Y002062D01*
X002393Y001792D01*
X002393Y001411D01*
X002124Y001142D01*
X001743Y001142D01*
X001651Y001234D01*
X001651Y000773D01*
X001596Y000717D02*
X006965Y000717D01*
X006918Y000876D02*
X006554Y000876D01*
X006617Y000939D02*
X006693Y001123D01*
X006693Y001322D01*
X006617Y001506D01*
X006477Y001646D01*
X006293Y001723D01*
X005494Y001723D01*
X005310Y001646D01*
X005169Y001506D01*
X005093Y001322D01*
X005093Y001123D01*
X005169Y000939D01*
X005310Y000799D01*
X005494Y000723D01*
X006293Y000723D01*
X006477Y000799D01*
X006617Y000939D01*
X006657Y001035D02*
X006918Y001035D01*
X006918Y001193D02*
X006693Y001193D01*
X006681Y001352D02*
X006918Y001352D01*
X006918Y001510D02*
X006613Y001510D01*
X006423Y001669D02*
X006808Y001669D01*
X006649Y001827D02*
X002358Y001827D01*
X002393Y001669D02*
X002804Y001669D01*
X002750Y001646D02*
X002609Y001506D01*
X002533Y001322D01*
X002533Y001123D01*
X002609Y000939D01*
X002750Y000799D01*
X002934Y000723D01*
X003733Y000723D01*
X003917Y000799D01*
X004057Y000939D01*
X004133Y001123D01*
X004133Y001322D01*
X004057Y001506D01*
X003917Y001646D01*
X003733Y001723D01*
X002934Y001723D01*
X002750Y001646D01*
X002614Y001510D02*
X002393Y001510D01*
X002333Y001352D02*
X002546Y001352D01*
X002533Y001193D02*
X002175Y001193D01*
X002570Y001035D02*
X001651Y001035D01*
X001651Y001193D02*
X001692Y001193D01*
X001651Y000876D02*
X002673Y000876D01*
X003994Y000876D02*
X005233Y000876D01*
X005130Y001035D02*
X004097Y001035D01*
X004133Y001193D02*
X005093Y001193D01*
X005106Y001352D02*
X004121Y001352D01*
X004053Y001510D02*
X005174Y001510D01*
X005364Y001669D02*
X003863Y001669D01*
X003733Y002503D02*
X002934Y002503D01*
X002750Y002579D01*
X002609Y002719D01*
X002533Y002903D01*
X002533Y003102D01*
X002609Y003286D01*
X002750Y003426D01*
X002934Y003503D01*
X003733Y003503D01*
X003917Y003426D01*
X004057Y003286D01*
X004133Y003102D01*
X004133Y002903D01*
X004057Y002719D01*
X003917Y002579D01*
X003733Y002503D01*
X003958Y002620D02*
X005269Y002620D01*
X005145Y002779D02*
X004082Y002779D01*
X004133Y002937D02*
X005093Y002937D01*
X005093Y003096D02*
X004133Y003096D01*
X004070Y003254D02*
X005156Y003254D01*
X005296Y003413D02*
X003930Y003413D01*
X002736Y003413D02*
X000638Y003413D01*
X000638Y003571D02*
X006535Y003571D01*
X006535Y003413D02*
X006490Y003413D01*
X006535Y003730D02*
X000638Y003730D01*
X000638Y003888D02*
X006535Y003888D01*
X006535Y004047D02*
X000638Y004047D01*
X000638Y004205D02*
X006535Y004205D01*
X006535Y004364D02*
X000638Y004364D01*
X000638Y004522D02*
X006535Y004522D01*
X006535Y004681D02*
X000638Y004681D01*
X000638Y004840D02*
X002685Y004840D01*
X002750Y004774D02*
X002609Y004915D01*
X002533Y005099D01*
X002533Y005298D01*
X002609Y005481D01*
X002750Y005622D01*
X002934Y005698D01*
X003733Y005698D01*
X003917Y005622D01*
X004057Y005481D01*
X004133Y005298D01*
X004133Y005099D01*
X004057Y004915D01*
X003917Y004774D01*
X003733Y004698D01*
X002934Y004698D01*
X002750Y004774D01*
X002575Y004998D02*
X000638Y004998D01*
X000638Y005157D02*
X001703Y005157D01*
X001734Y005126D02*
X002115Y005126D01*
X002385Y005395D01*
X002385Y005776D01*
X002115Y006046D01*
X001734Y006046D01*
X001465Y005776D01*
X001465Y005395D01*
X001734Y005126D01*
X001545Y005315D02*
X000638Y005315D01*
X000638Y005474D02*
X001465Y005474D01*
X001465Y005632D02*
X000638Y005632D01*
X000638Y005791D02*
X001479Y005791D01*
X001638Y005949D02*
X000638Y005949D01*
X000638Y006108D02*
X006535Y006108D01*
X006535Y006266D02*
X002256Y006266D01*
X002385Y006395D02*
X002115Y006126D01*
X001734Y006126D01*
X001465Y006395D01*
X001465Y006776D01*
X001734Y007046D01*
X002115Y007046D01*
X002385Y006776D01*
X002385Y006395D01*
X002385Y006425D02*
X006535Y006425D01*
X006535Y006584D02*
X006506Y006584D01*
X006815Y006857D02*
X006815Y002057D01*
X007378Y001495D01*
X007378Y001182D01*
X007838Y001193D02*
X007918Y001193D01*
X007918Y001035D02*
X007838Y001035D01*
X007838Y000876D02*
X007918Y000876D01*
X007918Y000831D02*
X007988Y000662D01*
X008037Y000612D01*
X007718Y000612D01*
X007768Y000662D01*
X007838Y000831D01*
X007838Y001534D01*
X007768Y001703D01*
X007638Y001832D01*
X007469Y001902D01*
X007366Y001902D01*
X007095Y002173D01*
X007095Y002341D01*
X007106Y002313D01*
X007196Y002223D01*
X007509Y001911D01*
X007626Y001862D01*
X007754Y001862D01*
X008190Y001862D01*
X008117Y001832D01*
X007988Y001703D01*
X007918Y001534D01*
X007918Y000831D01*
X007965Y000717D02*
X007791Y000717D01*
X007838Y001352D02*
X007918Y001352D01*
X007918Y001510D02*
X007838Y001510D01*
X007782Y001669D02*
X007974Y001669D01*
X008112Y001827D02*
X007643Y001827D01*
X007434Y001986D02*
X007282Y001986D01*
X007275Y002144D02*
X007124Y002144D01*
X007117Y002303D02*
X007095Y002303D01*
X006535Y002303D02*
X002285Y002303D01*
X002393Y002411D02*
X002124Y002142D01*
X001743Y002142D01*
X001473Y002411D01*
X001473Y002792D01*
X001743Y003062D01*
X002124Y003062D01*
X002393Y002792D01*
X002393Y002411D01*
X002393Y002461D02*
X006535Y002461D01*
X006518Y002620D02*
X006535Y002620D01*
X006535Y002144D02*
X002126Y002144D01*
X002200Y001986D02*
X006542Y001986D01*
X007705Y002620D02*
X008784Y002620D01*
X008827Y002577D02*
X008710Y002694D01*
X008710Y003295D01*
X008827Y003412D01*
X008848Y003412D01*
X008848Y003577D01*
X008827Y003577D01*
X008710Y003694D01*
X008710Y004295D01*
X008827Y004412D01*
X009428Y004412D01*
X009545Y004295D01*
X009545Y003694D01*
X009428Y003577D01*
X009408Y003577D01*
X009408Y003412D01*
X009428Y003412D01*
X009545Y003295D01*
X009545Y002694D01*
X009428Y002577D01*
X008827Y002577D01*
X008710Y002779D02*
X007698Y002779D01*
X007698Y002937D02*
X008710Y002937D01*
X008710Y003096D02*
X007698Y003096D01*
X007698Y003254D02*
X008710Y003254D01*
X008848Y003413D02*
X007698Y003413D01*
X007698Y003571D02*
X008848Y003571D01*
X008710Y003730D02*
X007698Y003730D01*
X007698Y003888D02*
X008710Y003888D01*
X008710Y004047D02*
X007698Y004047D01*
X007698Y004205D02*
X008710Y004205D01*
X008778Y004364D02*
X007698Y004364D01*
X007698Y004522D02*
X008141Y004522D01*
X008117Y004532D02*
X008286Y004462D01*
X008469Y004462D01*
X008638Y004532D01*
X008768Y004662D01*
X008838Y004831D01*
X008838Y005534D01*
X008768Y005703D01*
X008638Y005832D01*
X008469Y005902D01*
X008286Y005902D01*
X008117Y005832D01*
X007988Y005703D01*
X007918Y005534D01*
X007918Y004831D01*
X007988Y004662D01*
X008117Y004532D01*
X007980Y004681D02*
X007776Y004681D01*
X007838Y004840D02*
X007918Y004840D01*
X007918Y004998D02*
X007838Y004998D01*
X007838Y005157D02*
X007918Y005157D01*
X007918Y005315D02*
X007838Y005315D01*
X007838Y005474D02*
X007918Y005474D01*
X007959Y005632D02*
X007797Y005632D01*
X007679Y005791D02*
X008076Y005791D01*
X008679Y005791D02*
X009311Y005791D01*
X009152Y005949D02*
X007095Y005949D01*
X007095Y006108D02*
X008993Y006108D01*
X008835Y006266D02*
X007095Y006266D01*
X007235Y006425D02*
X008676Y006425D01*
X008598Y006584D02*
X007452Y006584D01*
X007525Y006742D02*
X008598Y006742D01*
X008598Y006901D02*
X007535Y006901D01*
X007535Y007059D02*
X008598Y007059D01*
X008598Y007218D02*
X007535Y007218D01*
X007535Y007376D02*
X008598Y007376D01*
X008598Y007535D02*
X007507Y007535D01*
X007408Y007693D02*
X008598Y007693D01*
X008598Y007852D02*
X007355Y007852D01*
X007355Y008010D02*
X008598Y008010D01*
X008598Y008169D02*
X007497Y008169D01*
X007656Y008328D02*
X008598Y008328D01*
X008598Y008486D02*
X007814Y008486D01*
X007340Y008803D02*
X006502Y008803D01*
X006487Y008788D02*
X006628Y008929D01*
X006704Y009112D01*
X006704Y009311D01*
X006628Y009495D01*
X006487Y009636D01*
X006303Y009712D01*
X005504Y009712D01*
X005320Y009636D01*
X005180Y009495D01*
X005104Y009311D01*
X005104Y009112D01*
X005180Y008929D01*
X005320Y008788D01*
X005504Y008712D01*
X006303Y008712D01*
X006487Y008788D01*
X006641Y008962D02*
X007498Y008962D01*
X007657Y009120D02*
X006704Y009120D01*
X006704Y009279D02*
X007714Y009279D01*
X007714Y009437D02*
X006651Y009437D01*
X006527Y009596D02*
X007715Y009596D01*
X007781Y009754D02*
X002350Y009754D01*
X002350Y009786D02*
X002081Y010056D01*
X001700Y010056D01*
X001430Y009786D01*
X001430Y009405D01*
X001700Y009136D01*
X002081Y009136D01*
X002350Y009405D01*
X002350Y009786D01*
X002223Y009913D02*
X007965Y009913D01*
X008382Y009913D02*
X008598Y009913D01*
X008598Y010071D02*
X000638Y010071D01*
X000638Y009913D02*
X001557Y009913D01*
X001430Y009754D02*
X000638Y009754D01*
X000638Y009596D02*
X001430Y009596D01*
X001430Y009437D02*
X000638Y009437D01*
X000638Y009279D02*
X001557Y009279D01*
X002224Y009279D02*
X002544Y009279D01*
X002544Y009311D02*
X002544Y009112D01*
X002620Y008929D01*
X002760Y008788D01*
X002944Y008712D01*
X003743Y008712D01*
X003927Y008788D01*
X004068Y008929D01*
X004144Y009112D01*
X004144Y009311D01*
X004068Y009495D01*
X003927Y009636D01*
X003743Y009712D01*
X002944Y009712D01*
X002760Y009636D01*
X002620Y009495D01*
X002544Y009311D01*
X002596Y009437D02*
X002350Y009437D01*
X002350Y009596D02*
X002720Y009596D01*
X002544Y009120D02*
X000638Y009120D01*
X000638Y008962D02*
X002606Y008962D01*
X002745Y008803D02*
X000638Y008803D01*
X000638Y008645D02*
X007181Y008645D01*
X007023Y008486D02*
X000638Y008486D01*
X000638Y008328D02*
X006864Y008328D01*
X006795Y008169D02*
X000638Y008169D01*
X000638Y008010D02*
X006795Y008010D01*
X006795Y007852D02*
X000638Y007852D01*
X000638Y007693D02*
X006741Y007693D01*
X006642Y007535D02*
X000638Y007535D01*
X000638Y007376D02*
X002724Y007376D01*
X002750Y007402D02*
X002609Y007261D01*
X002533Y007078D01*
X002533Y006879D01*
X002609Y006695D01*
X002750Y006554D01*
X002934Y006478D01*
X003733Y006478D01*
X003917Y006554D01*
X004057Y006695D01*
X004133Y006879D01*
X004133Y007078D01*
X004057Y007261D01*
X003917Y007402D01*
X003733Y007478D01*
X002934Y007478D01*
X002750Y007402D01*
X002591Y007218D02*
X000638Y007218D01*
X000638Y007059D02*
X002533Y007059D01*
X002533Y006901D02*
X002260Y006901D01*
X002385Y006742D02*
X002590Y006742D01*
X002721Y006584D02*
X002385Y006584D01*
X001594Y006266D02*
X000638Y006266D01*
X000638Y006425D02*
X001465Y006425D01*
X001465Y006584D02*
X000638Y006584D01*
X000638Y006742D02*
X001465Y006742D01*
X001589Y006901D02*
X000638Y006901D01*
X002212Y005949D02*
X006535Y005949D01*
X006535Y005791D02*
X002370Y005791D01*
X002385Y005632D02*
X002775Y005632D01*
X002606Y005474D02*
X002385Y005474D01*
X002305Y005315D02*
X002541Y005315D01*
X002533Y005157D02*
X002146Y005157D01*
X003892Y005632D02*
X005335Y005632D01*
X005166Y005474D02*
X004060Y005474D01*
X004126Y005315D02*
X005101Y005315D01*
X005093Y005157D02*
X004133Y005157D01*
X004092Y004998D02*
X005135Y004998D01*
X005245Y004840D02*
X003982Y004840D01*
X002596Y003254D02*
X000638Y003254D01*
X000638Y003096D02*
X002533Y003096D01*
X002533Y002937D02*
X002249Y002937D01*
X002393Y002779D02*
X002585Y002779D01*
X002709Y002620D02*
X002393Y002620D01*
X001618Y002937D02*
X000638Y002937D01*
X000638Y002779D02*
X001473Y002779D01*
X001473Y002620D02*
X000638Y002620D01*
X000638Y002461D02*
X001473Y002461D01*
X001582Y002303D02*
X000638Y002303D01*
X000638Y002144D02*
X001740Y002144D01*
X001667Y001986D02*
X000638Y001986D01*
X000638Y001827D02*
X001508Y001827D01*
X001473Y001669D02*
X001335Y001669D01*
X006452Y005632D02*
X006535Y005632D01*
X005281Y006584D02*
X003946Y006584D01*
X004077Y006742D02*
X005150Y006742D01*
X005093Y006901D02*
X004133Y006901D01*
X004133Y007059D02*
X005093Y007059D01*
X005151Y007218D02*
X004075Y007218D01*
X003942Y007376D02*
X005284Y007376D01*
X006502Y007376D02*
X006615Y007376D01*
X007075Y007117D02*
X007075Y008142D01*
X008174Y009241D01*
X008567Y009754D02*
X008598Y009754D01*
X008598Y010230D02*
X002175Y010230D01*
X002081Y010136D02*
X002350Y010405D01*
X002350Y010786D01*
X002081Y011056D01*
X001700Y011056D01*
X001430Y010786D01*
X001430Y010405D01*
X001700Y010136D01*
X002081Y010136D01*
X002334Y010389D02*
X008598Y010389D01*
X008598Y010547D02*
X007416Y010547D01*
X007465Y010596D02*
X007535Y010765D01*
X007535Y011468D01*
X007465Y011637D01*
X007335Y011766D01*
X007166Y011836D01*
X006983Y011836D01*
X006814Y011766D01*
X006685Y011637D01*
X006615Y011468D01*
X006615Y011288D01*
X006487Y011416D01*
X006303Y011492D01*
X005504Y011492D01*
X005320Y011416D01*
X005180Y011275D01*
X005104Y011091D01*
X005104Y010892D01*
X005180Y010709D01*
X005320Y010568D01*
X005504Y010492D01*
X006303Y010492D01*
X006487Y010568D01*
X006628Y010709D01*
X006633Y010721D01*
X006685Y010596D01*
X006814Y010467D01*
X006983Y010397D01*
X007166Y010397D01*
X007335Y010467D01*
X007465Y010596D01*
X007510Y010706D02*
X008598Y010706D01*
X008598Y010864D02*
X007535Y010864D01*
X007535Y011023D02*
X008598Y011023D01*
X008598Y011181D02*
X007535Y011181D01*
X007535Y011340D02*
X008598Y011340D01*
X008598Y011498D02*
X007522Y011498D01*
X007445Y011657D02*
X008598Y011657D01*
X008598Y011815D02*
X007217Y011815D01*
X006932Y011815D02*
X001542Y011815D01*
X001651Y011974D02*
X008598Y011974D01*
X008598Y012133D02*
X001651Y012133D01*
X001651Y012291D02*
X008598Y012291D01*
X008598Y012450D02*
X001651Y012450D01*
X001547Y012608D02*
X007897Y012608D01*
X007765Y012767D02*
X006479Y012767D01*
X006516Y012782D02*
X006657Y012923D01*
X006733Y013106D01*
X006733Y013305D01*
X006657Y013489D01*
X006516Y013630D01*
X006332Y013706D01*
X005533Y013706D01*
X005349Y013630D01*
X005209Y013489D01*
X005133Y013305D01*
X005133Y013106D01*
X005209Y012923D01*
X005349Y012782D01*
X005533Y012706D01*
X006332Y012706D01*
X006516Y012782D01*
X006658Y012925D02*
X007714Y012925D01*
X007714Y013084D02*
X006723Y013084D01*
X006733Y013242D02*
X007714Y013242D01*
X007714Y013401D02*
X006693Y013401D01*
X006586Y013559D02*
X007714Y013559D01*
X007766Y013718D02*
X002405Y013718D01*
X002405Y013780D02*
X002136Y014049D01*
X001755Y014049D01*
X001485Y013780D01*
X001485Y013399D01*
X001755Y013129D01*
X002136Y013129D01*
X002405Y013399D01*
X002405Y013780D01*
X002309Y013877D02*
X007898Y013877D01*
X008449Y013877D02*
X008598Y013877D01*
X008598Y014035D02*
X002150Y014035D01*
X002136Y014129D02*
X001755Y014129D01*
X001485Y014399D01*
X001485Y014780D01*
X001755Y015049D01*
X002136Y015049D01*
X002405Y014780D01*
X002405Y014399D01*
X002136Y014129D01*
X002200Y014194D02*
X008598Y014194D01*
X008598Y014352D02*
X002359Y014352D01*
X002405Y014511D02*
X002913Y014511D01*
X002973Y014486D02*
X002789Y014562D01*
X002649Y014703D01*
X002573Y014886D01*
X002573Y015085D01*
X002649Y015269D01*
X002789Y015410D01*
X002973Y015486D01*
X003772Y015486D01*
X003956Y015410D01*
X004097Y015269D01*
X004173Y015085D01*
X004173Y014886D01*
X004097Y014703D01*
X003956Y014562D01*
X003772Y014486D01*
X002973Y014486D01*
X002682Y014669D02*
X002405Y014669D01*
X002357Y014828D02*
X002597Y014828D01*
X002573Y014986D02*
X002199Y014986D01*
X002597Y015145D02*
X000638Y015145D01*
X000638Y015303D02*
X002683Y015303D01*
X002916Y015462D02*
X000638Y015462D01*
X000638Y015621D02*
X026260Y015621D01*
X026260Y015779D02*
X000638Y015779D01*
X000638Y014986D02*
X001692Y014986D01*
X001533Y014828D02*
X000638Y014828D01*
X000638Y014669D02*
X001485Y014669D01*
X001485Y014511D02*
X000638Y014511D01*
X000638Y014352D02*
X001532Y014352D01*
X001691Y014194D02*
X000638Y014194D01*
X000638Y014035D02*
X001740Y014035D01*
X001582Y013877D02*
X000638Y013877D01*
X000638Y013718D02*
X001485Y013718D01*
X001485Y013559D02*
X000638Y013559D01*
X000638Y013401D02*
X001485Y013401D01*
X001642Y013242D02*
X000638Y013242D01*
X000638Y013084D02*
X002582Y013084D01*
X002573Y013106D02*
X002649Y012923D01*
X002789Y012782D01*
X002973Y012706D01*
X003772Y012706D01*
X003956Y012782D01*
X004097Y012923D01*
X004173Y013106D01*
X004173Y013305D01*
X004097Y013489D01*
X003956Y013630D01*
X003772Y013706D01*
X002973Y013706D01*
X002789Y013630D01*
X002649Y013489D01*
X002573Y013305D01*
X002573Y013106D01*
X002573Y013242D02*
X002249Y013242D01*
X002405Y013401D02*
X002612Y013401D01*
X002719Y013559D02*
X002405Y013559D01*
X002648Y012925D02*
X000638Y012925D01*
X001388Y012767D02*
X002826Y012767D01*
X003919Y012767D02*
X005386Y012767D01*
X005208Y012925D02*
X004098Y012925D01*
X004163Y013084D02*
X005142Y013084D01*
X005133Y013242D02*
X004173Y013242D01*
X004133Y013401D02*
X005172Y013401D01*
X005279Y013559D02*
X004026Y013559D01*
X003832Y014511D02*
X005473Y014511D01*
X005533Y014486D02*
X006332Y014486D01*
X006516Y014562D01*
X006657Y014703D01*
X006733Y014886D01*
X006733Y015085D01*
X006657Y015269D01*
X006516Y015410D01*
X006332Y015486D01*
X005533Y015486D01*
X005349Y015410D01*
X005209Y015269D01*
X005133Y015085D01*
X005133Y014886D01*
X005209Y014703D01*
X005349Y014562D01*
X005533Y014486D01*
X005242Y014669D02*
X004063Y014669D01*
X004148Y014828D02*
X005157Y014828D01*
X005133Y014986D02*
X004173Y014986D01*
X004148Y015145D02*
X005157Y015145D01*
X005243Y015303D02*
X004062Y015303D01*
X003830Y015462D02*
X005476Y015462D01*
X006390Y015462D02*
X012042Y015462D01*
X012081Y015478D02*
X011898Y015402D01*
X011757Y015262D01*
X011681Y015078D01*
X011681Y014879D01*
X011757Y014695D01*
X011898Y014555D01*
X012081Y014478D01*
X012880Y014478D01*
X013064Y014555D01*
X013205Y014695D01*
X013281Y014879D01*
X013281Y015078D01*
X013205Y015262D01*
X013064Y015402D01*
X012880Y015478D01*
X012081Y015478D01*
X011799Y015303D02*
X006622Y015303D01*
X006708Y015145D02*
X008497Y015145D01*
X008460Y014986D02*
X006733Y014986D01*
X006708Y014828D02*
X008460Y014828D01*
X008460Y014669D02*
X006623Y014669D01*
X006392Y014511D02*
X008460Y014511D01*
X008878Y014807D02*
X008878Y006620D01*
X009503Y005995D01*
X010440Y005995D01*
X010440Y005995D01*
X009892Y005632D02*
X008797Y005632D01*
X008838Y005474D02*
X011769Y005474D01*
X011761Y005466D02*
X011685Y005282D01*
X011685Y005083D01*
X011761Y004899D01*
X011902Y004759D01*
X012086Y004682D01*
X012165Y004682D01*
X012165Y004434D01*
X012165Y004307D01*
X012188Y004253D01*
X012125Y004102D01*
X012125Y003919D01*
X012195Y003750D01*
X012325Y003620D01*
X012494Y003550D01*
X013197Y003550D01*
X013366Y003620D01*
X013495Y003750D01*
X013565Y003919D01*
X013565Y004102D01*
X013495Y004271D01*
X013366Y004400D01*
X013197Y004470D01*
X012838Y004470D01*
X012805Y004503D01*
X012805Y004682D01*
X012885Y004682D01*
X013068Y004759D01*
X013209Y004899D01*
X013285Y005083D01*
X013285Y005282D01*
X013209Y005466D01*
X013068Y005606D01*
X012885Y005682D01*
X012086Y005682D01*
X011902Y005606D01*
X011761Y005466D01*
X011699Y005315D02*
X011030Y005315D01*
X011090Y005255D02*
X010961Y005385D01*
X010792Y005455D01*
X010089Y005455D01*
X009920Y005385D01*
X009790Y005255D01*
X009720Y005086D01*
X009720Y004903D01*
X009790Y004734D01*
X009920Y004605D01*
X010089Y004535D01*
X010792Y004535D01*
X010961Y004605D01*
X011090Y004734D01*
X011160Y004903D01*
X011160Y005086D01*
X011090Y005255D01*
X011131Y005157D02*
X011685Y005157D01*
X011720Y004998D02*
X011160Y004998D01*
X011134Y004840D02*
X011821Y004840D01*
X012165Y004681D02*
X011037Y004681D01*
X010961Y004385D02*
X010792Y004455D01*
X010089Y004455D01*
X009920Y004385D01*
X009790Y004255D01*
X009720Y004086D01*
X009720Y003903D01*
X009790Y003734D01*
X009920Y003605D01*
X010089Y003535D01*
X010792Y003535D01*
X010961Y003605D01*
X011090Y003734D01*
X011160Y003903D01*
X011160Y004086D01*
X011090Y004255D01*
X010961Y004385D01*
X010981Y004364D02*
X012165Y004364D01*
X012165Y004522D02*
X008615Y004522D01*
X008776Y004681D02*
X009843Y004681D01*
X009746Y004840D02*
X008838Y004840D01*
X008838Y004998D02*
X009720Y004998D01*
X009749Y005157D02*
X008838Y005157D01*
X008838Y005315D02*
X009850Y005315D01*
X010988Y005632D02*
X011965Y005632D01*
X011160Y005949D02*
X016130Y005949D01*
X016230Y006050D02*
X015961Y005781D01*
X015961Y005400D01*
X016230Y005130D01*
X016611Y005130D01*
X016881Y005400D01*
X016881Y005781D01*
X016611Y006050D01*
X016230Y006050D01*
X016230Y006130D02*
X016611Y006130D01*
X016881Y006400D01*
X016881Y006781D01*
X016611Y007050D01*
X016230Y007050D01*
X015961Y006781D01*
X015961Y006400D01*
X016230Y006130D01*
X016094Y006266D02*
X011079Y006266D01*
X011151Y006108D02*
X016910Y006108D01*
X016910Y006266D02*
X016748Y006266D01*
X016881Y006425D02*
X016910Y006425D01*
X016910Y006584D02*
X016881Y006584D01*
X016881Y006742D02*
X016910Y006742D01*
X016910Y006901D02*
X016761Y006901D01*
X016910Y007059D02*
X015845Y007059D01*
X015845Y007062D02*
X015769Y007246D01*
X015628Y007386D01*
X015445Y007462D01*
X014646Y007462D01*
X014462Y007386D01*
X014321Y007246D01*
X014245Y007062D01*
X014245Y006863D01*
X014321Y006679D01*
X014462Y006539D01*
X014646Y006462D01*
X015445Y006462D01*
X015628Y006539D01*
X015769Y006679D01*
X015845Y006863D01*
X015845Y007062D01*
X015845Y006901D02*
X016081Y006901D01*
X015961Y006742D02*
X015795Y006742D01*
X015673Y006584D02*
X015961Y006584D01*
X015961Y006425D02*
X010863Y006425D01*
X010792Y006535D02*
X010961Y006605D01*
X011090Y006734D01*
X011160Y006903D01*
X011160Y007086D01*
X011090Y007255D01*
X010961Y007385D01*
X010792Y007455D01*
X010089Y007455D01*
X009920Y007385D01*
X009790Y007255D01*
X009720Y007086D01*
X009720Y006903D01*
X009790Y006734D01*
X009920Y006605D01*
X010089Y006535D01*
X010792Y006535D01*
X010909Y006584D02*
X011857Y006584D01*
X011902Y006539D02*
X012086Y006462D01*
X012885Y006462D01*
X013068Y006539D01*
X013209Y006679D01*
X013285Y006863D01*
X013285Y007062D01*
X013209Y007246D01*
X013068Y007386D01*
X012889Y007460D01*
X013189Y007460D01*
X013358Y007530D01*
X013487Y007660D01*
X013557Y007829D01*
X013557Y008012D01*
X013487Y008181D01*
X013358Y008310D01*
X013189Y008380D01*
X012773Y008380D01*
X012765Y008388D01*
X012765Y008726D01*
X012885Y008726D01*
X013068Y008802D01*
X013209Y008943D01*
X013285Y009126D01*
X013285Y009325D01*
X013209Y009509D01*
X013068Y009650D01*
X012885Y009726D01*
X012086Y009726D01*
X011902Y009650D01*
X011761Y009509D01*
X011685Y009325D01*
X011685Y009126D01*
X011761Y008943D01*
X011902Y008802D01*
X012086Y008726D01*
X012205Y008726D01*
X012205Y008328D01*
X012205Y008217D01*
X012210Y008204D01*
X012187Y008181D01*
X012117Y008012D01*
X012117Y007829D01*
X012187Y007660D01*
X012316Y007530D01*
X012481Y007462D01*
X012086Y007462D01*
X011902Y007386D01*
X011761Y007246D01*
X011685Y007062D01*
X011685Y006863D01*
X011761Y006679D01*
X011902Y006539D01*
X011735Y006742D02*
X011093Y006742D01*
X011159Y006901D02*
X011685Y006901D01*
X011685Y007059D02*
X011160Y007059D01*
X011106Y007218D02*
X011750Y007218D01*
X011892Y007376D02*
X010969Y007376D01*
X010961Y007605D02*
X011090Y007734D01*
X011160Y007903D01*
X011160Y008086D01*
X011090Y008255D01*
X010961Y008385D01*
X010792Y008455D01*
X010089Y008455D01*
X009920Y008385D01*
X009790Y008255D01*
X009720Y008086D01*
X009720Y007903D01*
X009790Y007734D01*
X009920Y007605D01*
X010089Y007535D01*
X010792Y007535D01*
X012312Y007535D01*
X012173Y007693D02*
X011049Y007693D01*
X010961Y007605D02*
X010792Y007535D01*
X011139Y007852D02*
X012117Y007852D01*
X012117Y008010D02*
X011160Y008010D01*
X011126Y008169D02*
X012182Y008169D01*
X012205Y008328D02*
X011018Y008328D01*
X010961Y008605D02*
X011090Y008734D01*
X011160Y008903D01*
X011160Y009086D01*
X011090Y009255D01*
X010961Y009385D01*
X010792Y009455D01*
X010089Y009455D01*
X009920Y009385D01*
X009790Y009255D01*
X009720Y009086D01*
X009720Y008903D01*
X009790Y008734D01*
X009920Y008605D01*
X010089Y008535D01*
X010792Y008535D01*
X010961Y008605D01*
X011001Y008645D02*
X012205Y008645D01*
X012205Y008486D02*
X009158Y008486D01*
X009158Y008328D02*
X009862Y008328D01*
X009754Y008169D02*
X009158Y008169D01*
X009158Y008010D02*
X009720Y008010D01*
X009741Y007852D02*
X009158Y007852D01*
X009158Y007693D02*
X009831Y007693D01*
X010088Y007535D02*
X009158Y007535D01*
X009158Y007376D02*
X009911Y007376D01*
X009775Y007218D02*
X009158Y007218D01*
X009158Y007059D02*
X009720Y007059D01*
X009721Y006901D02*
X009158Y006901D01*
X009158Y006742D02*
X009787Y006742D01*
X009971Y006584D02*
X009310Y006584D01*
X009468Y006425D02*
X010017Y006425D01*
X011114Y005791D02*
X015971Y005791D01*
X015961Y005632D02*
X015566Y005632D01*
X015628Y005606D02*
X015445Y005682D01*
X014646Y005682D01*
X014462Y005606D01*
X014321Y005466D01*
X014245Y005282D01*
X014245Y005083D01*
X014321Y004899D01*
X014462Y004759D01*
X014646Y004682D01*
X015445Y004682D01*
X015628Y004759D01*
X015769Y004899D01*
X015845Y005083D01*
X015845Y005282D01*
X015769Y005466D01*
X015628Y005606D01*
X015761Y005474D02*
X015961Y005474D01*
X016045Y005315D02*
X015831Y005315D01*
X015845Y005157D02*
X016204Y005157D01*
X016638Y005157D02*
X016894Y005157D01*
X016910Y005173D02*
X016719Y004982D01*
X016640Y004903D01*
X016598Y004800D01*
X016598Y004470D01*
X016494Y004470D01*
X016325Y004400D01*
X016195Y004271D01*
X016125Y004102D01*
X016125Y003919D01*
X016195Y003750D01*
X016325Y003620D01*
X016494Y003550D01*
X017197Y003550D01*
X017366Y003620D01*
X017495Y003750D01*
X017565Y003919D01*
X017565Y004102D01*
X017495Y004271D01*
X017366Y004400D01*
X017197Y004470D01*
X017158Y004470D01*
X017158Y004629D01*
X017427Y004899D01*
X017470Y005001D01*
X017470Y005113D01*
X017470Y007300D01*
X017427Y007403D01*
X017349Y007482D01*
X017317Y007514D01*
X017358Y007530D01*
X017487Y007660D01*
X017557Y007829D01*
X017557Y008012D01*
X017487Y008181D01*
X017358Y008310D01*
X017189Y008380D01*
X017158Y008380D01*
X017158Y008691D01*
X017405Y008938D01*
X017408Y008931D01*
X017537Y008802D01*
X017706Y008732D01*
X017889Y008732D01*
X018058Y008802D01*
X018188Y008931D01*
X018258Y009101D01*
X018258Y009646D01*
X018264Y009639D01*
X018285Y009639D01*
X018285Y005162D01*
X018264Y005162D01*
X018147Y005045D01*
X018147Y004444D01*
X018264Y004327D01*
X018866Y004327D01*
X018983Y004444D01*
X018983Y005045D01*
X018866Y005162D01*
X018845Y005162D01*
X018845Y009639D01*
X018866Y009639D01*
X018983Y009757D01*
X018983Y010358D01*
X018866Y010475D01*
X018264Y010475D01*
X018147Y010358D01*
X018147Y010013D01*
X018058Y010102D01*
X017889Y010172D01*
X017706Y010172D01*
X017537Y010102D01*
X017408Y009973D01*
X017338Y009804D01*
X017338Y009663D01*
X017285Y009611D01*
X017285Y009611D01*
X016719Y009045D01*
X016640Y008966D01*
X016598Y008863D01*
X016598Y008380D01*
X016486Y008380D01*
X016316Y008310D01*
X016187Y008181D01*
X016117Y008012D01*
X016117Y007829D01*
X016187Y007660D01*
X016316Y007530D01*
X016486Y007460D01*
X016591Y007460D01*
X016600Y007439D01*
X016910Y007129D01*
X016910Y005173D01*
X016910Y005315D02*
X016796Y005315D01*
X016881Y005474D02*
X016910Y005474D01*
X016910Y005632D02*
X016881Y005632D01*
X016871Y005791D02*
X016910Y005791D01*
X016910Y005949D02*
X016712Y005949D01*
X017470Y005949D02*
X018285Y005949D01*
X018285Y005791D02*
X017470Y005791D01*
X017470Y005632D02*
X018285Y005632D01*
X018285Y005474D02*
X017470Y005474D01*
X017470Y005315D02*
X018285Y005315D01*
X018259Y005157D02*
X017470Y005157D01*
X017469Y004998D02*
X018147Y004998D01*
X018147Y004840D02*
X017368Y004840D01*
X017210Y004681D02*
X018147Y004681D01*
X018147Y004522D02*
X017158Y004522D01*
X017402Y004364D02*
X018227Y004364D01*
X018565Y004745D02*
X018565Y010057D01*
X018983Y010071D02*
X019535Y010071D01*
X019535Y009913D02*
X018983Y009913D01*
X018981Y009754D02*
X019535Y009754D01*
X019535Y009596D02*
X018845Y009596D01*
X018845Y009437D02*
X019535Y009437D01*
X019535Y009279D02*
X018845Y009279D01*
X018845Y009120D02*
X019535Y009120D01*
X019535Y008962D02*
X018845Y008962D01*
X018845Y008803D02*
X019535Y008803D01*
X019535Y008645D02*
X018845Y008645D01*
X018845Y008486D02*
X019535Y008486D01*
X019535Y008328D02*
X018845Y008328D01*
X018845Y008169D02*
X019535Y008169D01*
X019535Y008010D02*
X018845Y008010D01*
X018845Y007852D02*
X019535Y007852D01*
X019535Y007693D02*
X018845Y007693D01*
X018845Y007535D02*
X019535Y007535D01*
X019535Y007376D02*
X018845Y007376D01*
X018845Y007218D02*
X019535Y007218D01*
X019535Y007059D02*
X018845Y007059D01*
X018845Y006901D02*
X019535Y006901D01*
X019565Y006742D02*
X018845Y006742D01*
X018845Y006584D02*
X019705Y006584D01*
X019864Y006425D02*
X018845Y006425D01*
X018845Y006266D02*
X021006Y006266D01*
X021224Y006108D02*
X018845Y006108D01*
X018845Y005949D02*
X021073Y005949D01*
X020953Y005791D02*
X018845Y005791D01*
X018845Y005632D02*
X020905Y005632D01*
X020905Y005474D02*
X018845Y005474D01*
X018845Y005315D02*
X020971Y005315D01*
X021116Y005157D02*
X018872Y005157D01*
X018983Y004998D02*
X021121Y004998D01*
X020974Y004840D02*
X018983Y004840D01*
X018983Y004681D02*
X020908Y004681D01*
X020905Y004522D02*
X018983Y004522D01*
X018903Y004364D02*
X020951Y004364D01*
X021067Y004205D02*
X017522Y004205D01*
X017565Y004047D02*
X021239Y004047D01*
X021012Y003888D02*
X017552Y003888D01*
X017475Y003730D02*
X020928Y003730D01*
X020905Y003571D02*
X017247Y003571D01*
X016845Y004010D02*
X016878Y004043D01*
X016878Y004745D01*
X017190Y005057D01*
X017190Y007245D01*
X016837Y007598D01*
X016837Y007920D01*
X016878Y007961D01*
X016878Y008807D01*
X017523Y009452D01*
X017798Y009452D01*
X018258Y009437D02*
X018285Y009437D01*
X018285Y009279D02*
X018258Y009279D01*
X018258Y009120D02*
X018285Y009120D01*
X018285Y008962D02*
X018200Y008962D01*
X018285Y008803D02*
X018059Y008803D01*
X018285Y008645D02*
X017158Y008645D01*
X017158Y008486D02*
X018285Y008486D01*
X018285Y008328D02*
X017316Y008328D01*
X017492Y008169D02*
X018285Y008169D01*
X018285Y008010D02*
X017557Y008010D01*
X017557Y007852D02*
X018285Y007852D01*
X018285Y007693D02*
X017501Y007693D01*
X017362Y007535D02*
X018285Y007535D01*
X018285Y007376D02*
X017439Y007376D01*
X017470Y007218D02*
X018285Y007218D01*
X018285Y007059D02*
X017470Y007059D01*
X017470Y006901D02*
X018285Y006901D01*
X018285Y006742D02*
X017470Y006742D01*
X017470Y006584D02*
X018285Y006584D01*
X018285Y006425D02*
X017470Y006425D01*
X017470Y006266D02*
X018285Y006266D01*
X018285Y006108D02*
X017470Y006108D01*
X016821Y007218D02*
X015781Y007218D01*
X015638Y007376D02*
X016663Y007376D01*
X016312Y007535D02*
X013362Y007535D01*
X013501Y007693D02*
X016173Y007693D01*
X016117Y007852D02*
X013557Y007852D01*
X013557Y008010D02*
X016117Y008010D01*
X016182Y008169D02*
X013492Y008169D01*
X013316Y008328D02*
X016358Y008328D01*
X016598Y008486D02*
X012765Y008486D01*
X012765Y008645D02*
X016598Y008645D01*
X016598Y008803D02*
X015630Y008803D01*
X015628Y008802D02*
X015769Y008943D01*
X015845Y009126D01*
X015845Y009325D01*
X015769Y009509D01*
X015628Y009650D01*
X015445Y009726D01*
X014646Y009726D01*
X014462Y009650D01*
X014321Y009509D01*
X014245Y009325D01*
X014245Y009126D01*
X014321Y008943D01*
X014462Y008802D01*
X014646Y008726D01*
X015445Y008726D01*
X015628Y008802D01*
X015777Y008962D02*
X016639Y008962D01*
X016719Y009045D02*
X016719Y009045D01*
X016795Y009120D02*
X015843Y009120D01*
X015845Y009279D02*
X016109Y009279D01*
X016222Y009165D02*
X015953Y009435D01*
X015953Y009816D01*
X016222Y010085D01*
X016603Y010085D01*
X016873Y009816D01*
X016873Y009435D01*
X016603Y009165D01*
X016222Y009165D01*
X015953Y009437D02*
X015799Y009437D01*
X015682Y009596D02*
X015953Y009596D01*
X015953Y009754D02*
X011098Y009754D01*
X011160Y009913D02*
X016050Y009913D01*
X016208Y010071D02*
X011160Y010071D01*
X011101Y010230D02*
X016158Y010230D01*
X016222Y010165D02*
X016603Y010165D01*
X016873Y010435D01*
X016873Y010816D01*
X016603Y011085D01*
X016222Y011085D01*
X015953Y010816D01*
X015953Y010435D01*
X016222Y010165D01*
X015999Y010389D02*
X010951Y010389D01*
X010822Y010547D02*
X011986Y010547D01*
X011902Y010582D02*
X012086Y010506D01*
X012885Y010506D01*
X013068Y010582D01*
X013209Y010723D01*
X013285Y010906D01*
X013285Y011105D01*
X013209Y011289D01*
X013068Y011430D01*
X012885Y011506D01*
X012086Y011506D01*
X011902Y011430D01*
X011761Y011289D01*
X011685Y011105D01*
X011685Y010906D01*
X011761Y010723D01*
X011902Y010582D01*
X011778Y010706D02*
X011062Y010706D01*
X011144Y010864D02*
X011703Y010864D01*
X011685Y011023D02*
X011160Y011023D01*
X011121Y011181D02*
X011717Y011181D01*
X011812Y011340D02*
X011005Y011340D01*
X010720Y011498D02*
X012068Y011498D01*
X012902Y011498D02*
X014628Y011498D01*
X014646Y011506D02*
X014462Y011430D01*
X014321Y011289D01*
X014245Y011105D01*
X014245Y010906D01*
X014321Y010723D01*
X014462Y010582D01*
X014646Y010506D01*
X015445Y010506D01*
X015628Y010582D01*
X015769Y010723D01*
X015845Y010906D01*
X015845Y011105D01*
X015769Y011289D01*
X015628Y011430D01*
X015445Y011506D01*
X014646Y011506D01*
X014372Y011340D02*
X013158Y011340D01*
X013254Y011181D02*
X014277Y011181D01*
X014245Y011023D02*
X013285Y011023D01*
X013268Y010864D02*
X014263Y010864D01*
X014338Y010706D02*
X013192Y010706D01*
X012984Y010547D02*
X014546Y010547D01*
X015544Y010547D02*
X015953Y010547D01*
X015953Y010706D02*
X015752Y010706D01*
X015828Y010864D02*
X016001Y010864D01*
X015845Y011023D02*
X016160Y011023D01*
X015814Y011181D02*
X020098Y011181D01*
X020098Y011340D02*
X015718Y011340D01*
X015462Y011498D02*
X020098Y011498D01*
X020098Y011657D02*
X010720Y011657D01*
X010720Y011815D02*
X020098Y011815D01*
X020098Y011974D02*
X010720Y011974D01*
X010720Y012133D02*
X020098Y012133D01*
X020098Y012291D02*
X010858Y012291D01*
X010858Y012450D02*
X020098Y012450D01*
X020098Y012608D02*
X010858Y012608D01*
X010858Y012767D02*
X011916Y012767D01*
X011898Y012775D02*
X012081Y012698D01*
X012880Y012698D01*
X013064Y012775D01*
X013205Y012915D01*
X013281Y013099D01*
X013281Y013298D01*
X013205Y013482D01*
X013064Y013622D01*
X012880Y013698D01*
X012081Y013698D01*
X011898Y013622D01*
X011757Y013482D01*
X011681Y013298D01*
X011681Y013099D01*
X011757Y012915D01*
X011898Y012775D01*
X011753Y012925D02*
X010790Y012925D01*
X010440Y012557D02*
X010440Y010995D01*
X009875Y011340D02*
X009823Y011340D01*
X009823Y011498D02*
X010160Y011498D01*
X010160Y011657D02*
X009823Y011657D01*
X009823Y011815D02*
X010160Y011815D01*
X010160Y011974D02*
X009823Y011974D01*
X009823Y012133D02*
X010160Y012133D01*
X010022Y012291D02*
X009823Y012291D01*
X009823Y012450D02*
X010022Y012450D01*
X010022Y012608D02*
X009823Y012608D01*
X009823Y012767D02*
X010022Y012767D01*
X010090Y012925D02*
X009823Y012925D01*
X009823Y013084D02*
X011687Y013084D01*
X011681Y013242D02*
X009906Y013242D01*
X009920Y013401D02*
X011723Y013401D01*
X011835Y013559D02*
X009920Y013559D01*
X009920Y013718D02*
X016027Y013718D01*
X016027Y013774D02*
X016027Y013393D01*
X016297Y013124D01*
X016678Y013124D01*
X016947Y013393D01*
X016947Y013774D01*
X016678Y014043D01*
X016297Y014043D01*
X016027Y013774D01*
X016130Y013877D02*
X009902Y013877D01*
X009158Y014035D02*
X016288Y014035D01*
X016297Y014124D02*
X016678Y014124D01*
X016947Y014393D01*
X016947Y014774D01*
X016678Y015043D01*
X016297Y015043D01*
X016027Y014774D01*
X016027Y014393D01*
X016297Y014124D01*
X016226Y014194D02*
X009158Y014194D01*
X009158Y014352D02*
X016068Y014352D01*
X016027Y014511D02*
X015518Y014511D01*
X015440Y014478D02*
X015624Y014555D01*
X015765Y014695D01*
X015841Y014879D01*
X015841Y015078D01*
X015765Y015262D01*
X015624Y015402D01*
X015440Y015478D01*
X014641Y015478D01*
X014458Y015402D01*
X014317Y015262D01*
X014241Y015078D01*
X014241Y014879D01*
X014317Y014695D01*
X014458Y014555D01*
X014641Y014478D01*
X015440Y014478D01*
X015739Y014669D02*
X016027Y014669D01*
X016081Y014828D02*
X015819Y014828D01*
X015841Y014986D02*
X016239Y014986D01*
X015813Y015145D02*
X026260Y015145D01*
X026260Y015303D02*
X015723Y015303D01*
X015480Y015462D02*
X026260Y015462D01*
X026260Y014986D02*
X016735Y014986D01*
X016893Y014828D02*
X019960Y014828D01*
X019960Y014669D02*
X016947Y014669D01*
X016947Y014511D02*
X019960Y014511D01*
X019960Y014352D02*
X016906Y014352D01*
X016748Y014194D02*
X020023Y014194D01*
X020098Y014035D02*
X018125Y014035D01*
X018188Y013973D02*
X018058Y014102D01*
X017889Y014172D01*
X017706Y014172D01*
X017537Y014102D01*
X017408Y013973D01*
X017338Y013804D01*
X017338Y013101D01*
X017408Y012931D01*
X017537Y012802D01*
X017706Y012732D01*
X017889Y012732D01*
X018058Y012802D01*
X018188Y012931D01*
X018258Y013101D01*
X018258Y013804D01*
X018188Y013973D01*
X018227Y013877D02*
X020098Y013877D01*
X020098Y013718D02*
X018258Y013718D01*
X018258Y013559D02*
X020098Y013559D01*
X020098Y013401D02*
X018258Y013401D01*
X018258Y013242D02*
X020098Y013242D01*
X020098Y013084D02*
X018251Y013084D01*
X018181Y012925D02*
X020098Y012925D01*
X020098Y012767D02*
X017973Y012767D01*
X017622Y012767D02*
X015605Y012767D01*
X015624Y012775D02*
X015765Y012915D01*
X015841Y013099D01*
X015841Y013298D01*
X015765Y013482D01*
X015624Y013622D01*
X015440Y013698D01*
X014641Y013698D01*
X014458Y013622D01*
X014317Y013482D01*
X014241Y013298D01*
X014241Y013099D01*
X014317Y012915D01*
X014458Y012775D01*
X014641Y012698D01*
X015440Y012698D01*
X015624Y012775D01*
X015769Y012925D02*
X017414Y012925D01*
X017345Y013084D02*
X015834Y013084D01*
X015841Y013242D02*
X016178Y013242D01*
X016027Y013401D02*
X015798Y013401D01*
X015687Y013559D02*
X016027Y013559D01*
X016686Y014035D02*
X017470Y014035D01*
X017368Y013877D02*
X016845Y013877D01*
X016947Y013718D02*
X017338Y013718D01*
X017338Y013559D02*
X016947Y013559D01*
X016947Y013401D02*
X017338Y013401D01*
X017338Y013242D02*
X016796Y013242D01*
X014563Y014511D02*
X012958Y014511D01*
X013179Y014669D02*
X014343Y014669D01*
X014262Y014828D02*
X013259Y014828D01*
X013281Y014986D02*
X014241Y014986D01*
X014269Y015145D02*
X013253Y015145D01*
X013163Y015303D02*
X014359Y015303D01*
X014602Y015462D02*
X012920Y015462D01*
X011709Y015145D02*
X009258Y015145D01*
X009295Y014986D02*
X011681Y014986D01*
X011702Y014828D02*
X009295Y014828D01*
X009295Y014669D02*
X011783Y014669D01*
X012003Y014511D02*
X009295Y014511D01*
X008598Y013718D02*
X008582Y013718D01*
X009158Y013084D02*
X009183Y013084D01*
X009183Y012925D02*
X009158Y012925D01*
X009158Y012767D02*
X009183Y012767D01*
X009183Y012608D02*
X009158Y012608D01*
X009158Y012450D02*
X009183Y012450D01*
X009183Y012291D02*
X009158Y012291D01*
X009158Y012133D02*
X009183Y012133D01*
X009183Y011974D02*
X009158Y011974D01*
X009158Y011815D02*
X009183Y011815D01*
X009183Y011657D02*
X009158Y011657D01*
X009158Y011498D02*
X009183Y011498D01*
X009183Y011340D02*
X009158Y011340D01*
X009158Y011181D02*
X009183Y011181D01*
X009183Y011023D02*
X009158Y011023D01*
X009158Y010864D02*
X009183Y010864D01*
X009183Y010706D02*
X009158Y010706D01*
X009158Y010547D02*
X009183Y010547D01*
X009183Y010389D02*
X009158Y010389D01*
X009158Y010230D02*
X009183Y010230D01*
X009158Y010071D02*
X009202Y010071D01*
X009158Y009913D02*
X009319Y009913D01*
X009478Y009754D02*
X009158Y009754D01*
X009158Y009596D02*
X009941Y009596D01*
X010047Y009437D02*
X009158Y009437D01*
X009158Y009279D02*
X009814Y009279D01*
X009734Y009120D02*
X009158Y009120D01*
X009158Y008962D02*
X009720Y008962D01*
X009762Y008803D02*
X009158Y008803D01*
X009158Y008645D02*
X009880Y008645D01*
X010834Y009437D02*
X011732Y009437D01*
X011685Y009279D02*
X011067Y009279D01*
X011146Y009120D02*
X011688Y009120D01*
X011753Y008962D02*
X011160Y008962D01*
X011119Y008803D02*
X011901Y008803D01*
X012485Y009226D02*
X012485Y008272D01*
X012837Y007920D01*
X013078Y007376D02*
X014452Y007376D01*
X014310Y007218D02*
X013221Y007218D01*
X013285Y007059D02*
X014245Y007059D01*
X014245Y006901D02*
X013285Y006901D01*
X013235Y006742D02*
X014295Y006742D01*
X014417Y006584D02*
X013113Y006584D01*
X013006Y005632D02*
X014525Y005632D01*
X014329Y005474D02*
X013201Y005474D01*
X013271Y005315D02*
X014259Y005315D01*
X014245Y005157D02*
X013285Y005157D01*
X013250Y004998D02*
X014280Y004998D01*
X014381Y004840D02*
X013149Y004840D01*
X012805Y004681D02*
X016598Y004681D01*
X016598Y004522D02*
X012805Y004522D01*
X013402Y004364D02*
X016288Y004364D01*
X016168Y004205D02*
X013522Y004205D01*
X013565Y004047D02*
X016125Y004047D01*
X016138Y003888D02*
X013552Y003888D01*
X013475Y003730D02*
X016215Y003730D01*
X016443Y003571D02*
X013247Y003571D01*
X013088Y003413D02*
X014442Y003413D01*
X014462Y003432D02*
X014321Y003292D01*
X014245Y003108D01*
X014245Y002909D01*
X014321Y002725D01*
X014462Y002585D01*
X014646Y002508D01*
X015445Y002508D01*
X015628Y002585D01*
X015769Y002725D01*
X015845Y002909D01*
X015845Y003108D01*
X015769Y003292D01*
X015628Y003432D01*
X015445Y003508D01*
X014646Y003508D01*
X014462Y003432D01*
X014306Y003254D02*
X013225Y003254D01*
X013209Y003292D02*
X013068Y003432D01*
X012885Y003508D01*
X012086Y003508D01*
X011902Y003432D01*
X011761Y003292D01*
X011685Y003108D01*
X011685Y002909D01*
X011761Y002725D01*
X011902Y002585D01*
X012086Y002508D01*
X012885Y002508D01*
X013068Y002585D01*
X013209Y002725D01*
X013285Y002909D01*
X013285Y003108D01*
X013209Y003292D01*
X013285Y003096D02*
X014245Y003096D01*
X014245Y002937D02*
X013285Y002937D01*
X013231Y002779D02*
X014299Y002779D01*
X014427Y002620D02*
X013104Y002620D01*
X011867Y002620D02*
X010976Y002620D01*
X010961Y002605D02*
X011090Y002734D01*
X011160Y002903D01*
X011160Y003086D01*
X011090Y003255D01*
X010961Y003385D01*
X010792Y003455D01*
X010089Y003455D01*
X009920Y003385D01*
X009790Y003255D01*
X009720Y003086D01*
X009720Y002903D01*
X009790Y002734D01*
X009920Y002605D01*
X010089Y002535D01*
X010792Y002535D01*
X010961Y002605D01*
X011108Y002779D02*
X011739Y002779D01*
X011685Y002937D02*
X011160Y002937D01*
X011156Y003096D02*
X011685Y003096D01*
X011746Y003254D02*
X011091Y003254D01*
X010893Y003413D02*
X011882Y003413D01*
X012215Y003730D02*
X011086Y003730D01*
X011154Y003888D02*
X012138Y003888D01*
X012125Y004047D02*
X011160Y004047D01*
X011111Y004205D02*
X012168Y004205D01*
X012443Y003571D02*
X010880Y003571D01*
X010000Y003571D02*
X009408Y003571D01*
X009408Y003413D02*
X009987Y003413D01*
X009790Y003254D02*
X009545Y003254D01*
X009545Y003096D02*
X009724Y003096D01*
X009720Y002937D02*
X009545Y002937D01*
X009545Y002779D02*
X009772Y002779D01*
X009904Y002620D02*
X009471Y002620D01*
X009504Y002461D02*
X015948Y002461D01*
X015948Y002435D02*
X016217Y002165D01*
X016598Y002165D01*
X016868Y002435D01*
X016868Y002816D01*
X016598Y003085D01*
X016217Y003085D01*
X015948Y002816D01*
X015948Y002435D01*
X016080Y002303D02*
X009608Y002303D01*
X009608Y002144D02*
X021137Y002144D01*
X020976Y002303D02*
X016736Y002303D01*
X016868Y002461D02*
X020910Y002461D01*
X020905Y002620D02*
X016868Y002620D01*
X016868Y002779D02*
X020948Y002779D01*
X021060Y002937D02*
X016747Y002937D01*
X016069Y002937D02*
X015845Y002937D01*
X015845Y003096D02*
X021254Y003096D01*
X021018Y003254D02*
X015785Y003254D01*
X015648Y003413D02*
X020931Y003413D01*
X021705Y002574D02*
X021735Y002544D01*
X021735Y000872D01*
X021146Y001193D02*
X018325Y001193D01*
X018426Y001035D02*
X021045Y001035D01*
X021015Y000876D02*
X018455Y000876D01*
X018429Y000717D02*
X021042Y000717D01*
X021455Y001352D02*
X016785Y001352D01*
X016868Y001435D02*
X016598Y001165D01*
X016217Y001165D01*
X015948Y001435D01*
X015948Y001816D01*
X016217Y002085D01*
X016598Y002085D01*
X016868Y001816D01*
X016868Y001435D01*
X016868Y001510D02*
X021455Y001510D01*
X021455Y001669D02*
X016868Y001669D01*
X016856Y001827D02*
X021455Y001827D01*
X021455Y001986D02*
X016698Y001986D01*
X016118Y001986D02*
X009608Y001986D01*
X009608Y001827D02*
X015959Y001827D01*
X015948Y001669D02*
X015589Y001669D01*
X015628Y001652D02*
X015445Y001728D01*
X014646Y001728D01*
X014462Y001652D01*
X014321Y001512D01*
X014245Y001328D01*
X014245Y001129D01*
X014321Y000945D01*
X014462Y000805D01*
X014646Y000728D01*
X015445Y000728D01*
X015628Y000805D01*
X015769Y000945D01*
X015845Y001129D01*
X015845Y001328D01*
X015769Y001512D01*
X015628Y001652D01*
X015770Y001510D02*
X015948Y001510D01*
X016031Y001352D02*
X015835Y001352D01*
X015845Y001193D02*
X016190Y001193D01*
X016626Y001193D02*
X017146Y001193D01*
X017045Y001035D02*
X015806Y001035D01*
X015700Y000876D02*
X017015Y000876D01*
X017042Y000717D02*
X008791Y000717D01*
X008838Y000876D02*
X011831Y000876D01*
X011761Y000945D02*
X011685Y001129D01*
X011685Y001328D01*
X011761Y001512D01*
X011902Y001652D01*
X012086Y001728D01*
X012885Y001728D01*
X013068Y001652D01*
X013209Y001512D01*
X013285Y001328D01*
X013285Y001129D01*
X013209Y000945D01*
X013068Y000805D01*
X012885Y000728D01*
X012086Y000728D01*
X011902Y000805D01*
X011761Y000945D01*
X011724Y001035D02*
X008838Y001035D01*
X008838Y001193D02*
X011685Y001193D01*
X011695Y001352D02*
X008838Y001352D01*
X008838Y001510D02*
X011761Y001510D01*
X011941Y001669D02*
X009520Y001669D01*
X008860Y001669D02*
X008782Y001669D01*
X008772Y001827D02*
X008643Y001827D01*
X009128Y002995D02*
X009128Y003995D01*
X009545Y004047D02*
X009720Y004047D01*
X009726Y003888D02*
X009545Y003888D01*
X009545Y003730D02*
X009795Y003730D01*
X009770Y004205D02*
X009545Y004205D01*
X009477Y004364D02*
X009899Y004364D01*
X007075Y007117D02*
X006815Y006857D01*
X008488Y008645D02*
X008598Y008645D01*
X010939Y009596D02*
X011848Y009596D01*
X013122Y009596D02*
X014408Y009596D01*
X014292Y009437D02*
X013239Y009437D01*
X013285Y009279D02*
X014245Y009279D01*
X014248Y009120D02*
X013283Y009120D01*
X013217Y008962D02*
X014313Y008962D01*
X014461Y008803D02*
X013070Y008803D01*
X010059Y010547D02*
X009823Y010547D01*
X009823Y010389D02*
X009929Y010389D01*
X006734Y010547D02*
X006436Y010547D01*
X006624Y010706D02*
X006639Y010706D01*
X006615Y011340D02*
X006563Y011340D01*
X006627Y011498D02*
X000638Y011498D01*
X000638Y011340D02*
X002684Y011340D01*
X002620Y011275D02*
X002544Y011091D01*
X002544Y010892D01*
X002620Y010709D01*
X002760Y010568D01*
X002944Y010492D01*
X003743Y010492D01*
X003927Y010568D01*
X004068Y010709D01*
X004144Y010892D01*
X004144Y011091D01*
X004068Y011275D01*
X003927Y011416D01*
X003743Y011492D01*
X002944Y011492D01*
X002760Y011416D01*
X002620Y011275D01*
X002581Y011181D02*
X000638Y011181D01*
X000638Y011023D02*
X001667Y011023D01*
X001509Y010864D02*
X000638Y010864D01*
X000638Y010706D02*
X001430Y010706D01*
X001430Y010547D02*
X000638Y010547D01*
X000638Y010389D02*
X001447Y010389D01*
X001605Y010230D02*
X000638Y010230D01*
X002114Y011023D02*
X002544Y011023D01*
X002555Y010864D02*
X002272Y010864D01*
X002350Y010706D02*
X002623Y010706D01*
X002811Y010547D02*
X002350Y010547D01*
X003876Y010547D02*
X005371Y010547D01*
X005183Y010706D02*
X004064Y010706D01*
X004132Y010864D02*
X005115Y010864D01*
X005104Y011023D02*
X004144Y011023D01*
X004106Y011181D02*
X005141Y011181D01*
X005244Y011340D02*
X004003Y011340D01*
X001384Y011657D02*
X006705Y011657D01*
X008451Y012608D02*
X008598Y012608D01*
X008583Y012767D02*
X008598Y012767D01*
X013045Y012767D02*
X014476Y012767D01*
X014313Y012925D02*
X013209Y012925D01*
X013274Y013084D02*
X014247Y013084D01*
X014241Y013242D02*
X013281Y013242D01*
X013238Y013401D02*
X014283Y013401D01*
X014395Y013559D02*
X013127Y013559D01*
X016666Y011023D02*
X019500Y011023D01*
X019397Y010864D02*
X016824Y010864D01*
X016873Y010706D02*
X019397Y010706D01*
X019397Y010547D02*
X016873Y010547D01*
X016827Y010389D02*
X018178Y010389D01*
X018147Y010230D02*
X016668Y010230D01*
X016617Y010071D02*
X017506Y010071D01*
X017383Y009913D02*
X016776Y009913D01*
X016873Y009754D02*
X017338Y009754D01*
X017270Y009596D02*
X016873Y009596D01*
X016873Y009437D02*
X017112Y009437D01*
X016953Y009279D02*
X016717Y009279D01*
X017269Y008803D02*
X017536Y008803D01*
X018258Y009596D02*
X018285Y009596D01*
X018147Y010071D02*
X018089Y010071D01*
X018983Y010230D02*
X019486Y010230D01*
X019397Y010389D02*
X018952Y010389D01*
X019815Y010620D02*
X019815Y006870D01*
X020065Y006620D01*
X021660Y006620D01*
X021705Y006574D01*
X021305Y007074D02*
X021122Y006998D01*
X021023Y006900D01*
X020181Y006900D01*
X020095Y006986D01*
X020095Y010202D01*
X020098Y010202D01*
X020098Y007925D01*
X020098Y007814D01*
X020140Y007711D01*
X020390Y007461D01*
X020469Y007382D01*
X020572Y007340D01*
X020961Y007340D01*
X020981Y007291D01*
X021122Y007151D01*
X021305Y007074D01*
X022104Y007074D01*
X021305Y007074D01*
X021269Y007059D02*
X020095Y007059D01*
X020095Y007218D02*
X021054Y007218D01*
X021024Y006901D02*
X020180Y006901D01*
X020095Y007376D02*
X020484Y007376D01*
X020317Y007535D02*
X020095Y007535D01*
X020095Y007693D02*
X020158Y007693D01*
X020098Y007852D02*
X020095Y007852D01*
X020095Y008010D02*
X020098Y008010D01*
X020095Y008169D02*
X020098Y008169D01*
X020095Y008328D02*
X020098Y008328D01*
X020095Y008486D02*
X020098Y008486D01*
X020095Y008645D02*
X020098Y008645D01*
X020095Y008803D02*
X020098Y008803D01*
X020095Y008962D02*
X020098Y008962D01*
X020095Y009120D02*
X020098Y009120D01*
X020095Y009279D02*
X020098Y009279D01*
X020095Y009437D02*
X020098Y009437D01*
X020095Y009596D02*
X020098Y009596D01*
X020095Y009754D02*
X020098Y009754D01*
X020095Y009913D02*
X020098Y009913D01*
X020095Y010071D02*
X020098Y010071D01*
X020658Y010071D02*
X021298Y010071D01*
X021305Y010074D02*
X022104Y010074D01*
X021305Y010074D01*
X021042Y010230D02*
X020658Y010230D01*
X020658Y010389D02*
X020941Y010389D01*
X020905Y010547D02*
X020658Y010547D01*
X020658Y010706D02*
X020918Y010706D01*
X020988Y010864D02*
X020658Y010864D01*
X020658Y011023D02*
X021181Y011023D01*
X021305Y011074D02*
X022104Y011074D01*
X021305Y011074D01*
X021091Y011181D02*
X020658Y011181D01*
X020658Y011340D02*
X020961Y011340D01*
X020905Y011498D02*
X020658Y011498D01*
X020658Y011657D02*
X020905Y011657D01*
X020964Y011815D02*
X020658Y011815D01*
X020658Y011974D02*
X021097Y011974D01*
X020658Y012133D02*
X024285Y012133D01*
X024285Y012291D02*
X020658Y012291D01*
X020658Y012450D02*
X024285Y012450D01*
X024285Y012608D02*
X021335Y012608D01*
X021003Y012995D02*
X024315Y012995D01*
X024565Y012745D01*
X024565Y003620D01*
X024983Y003571D02*
X026260Y003571D01*
X026260Y003413D02*
X024983Y003413D01*
X024918Y003254D02*
X026260Y003254D01*
X026260Y003096D02*
X024095Y003096D01*
X024095Y003254D02*
X024212Y003254D01*
X024147Y003413D02*
X024095Y003413D01*
X024095Y003571D02*
X024147Y003571D01*
X024147Y003730D02*
X024095Y003730D01*
X024095Y003888D02*
X024147Y003888D01*
X024095Y004047D02*
X024285Y004047D01*
X024285Y004205D02*
X024182Y004205D01*
X024233Y004364D02*
X024285Y004364D01*
X024285Y004522D02*
X024233Y004522D01*
X024233Y004681D02*
X024285Y004681D01*
X024285Y004840D02*
X024233Y004840D01*
X024285Y004998D02*
X023345Y004998D01*
X023345Y004840D02*
X023397Y004840D01*
X023397Y004681D02*
X023345Y004681D01*
X023345Y004522D02*
X023397Y004522D01*
X023397Y004364D02*
X023345Y004364D01*
X023345Y004205D02*
X023448Y004205D01*
X023535Y004047D02*
X023345Y004047D01*
X023345Y003888D02*
X023535Y003888D01*
X023535Y003730D02*
X023345Y003730D01*
X023345Y003571D02*
X023535Y003571D01*
X023535Y003413D02*
X023345Y003413D01*
X023345Y003254D02*
X023535Y003254D01*
X023535Y003096D02*
X023345Y003096D01*
X023345Y002937D02*
X023535Y002937D01*
X023535Y002779D02*
X023375Y002779D01*
X023483Y002620D02*
X023535Y002620D01*
X023535Y002461D02*
X023483Y002461D01*
X023483Y002303D02*
X023535Y002303D01*
X024095Y002303D02*
X026260Y002303D01*
X026260Y002461D02*
X024095Y002461D01*
X024095Y002620D02*
X026260Y002620D01*
X026260Y002779D02*
X024095Y002779D01*
X024095Y002937D02*
X026260Y002937D01*
X026260Y002144D02*
X024196Y002144D01*
X024233Y001986D02*
X026260Y001986D01*
X026260Y001827D02*
X024233Y001827D01*
X024233Y001669D02*
X026260Y001669D01*
X026260Y001510D02*
X024233Y001510D01*
X023815Y001807D02*
X023815Y004557D01*
X023345Y005157D02*
X024285Y005157D01*
X024285Y005315D02*
X023345Y005315D01*
X023345Y005474D02*
X024285Y005474D01*
X024285Y005632D02*
X023345Y005632D01*
X023345Y005791D02*
X024285Y005791D01*
X024285Y005949D02*
X023345Y005949D01*
X023345Y006108D02*
X024285Y006108D01*
X024285Y006266D02*
X023345Y006266D01*
X023345Y006425D02*
X024285Y006425D01*
X024285Y006584D02*
X023345Y006584D01*
X023345Y006742D02*
X024285Y006742D01*
X024285Y006901D02*
X023345Y006901D01*
X023345Y007059D02*
X024285Y007059D01*
X024285Y007218D02*
X023345Y007218D01*
X023345Y007376D02*
X024285Y007376D01*
X024285Y007535D02*
X023345Y007535D01*
X023345Y007693D02*
X024285Y007693D01*
X024285Y007852D02*
X023345Y007852D01*
X023345Y008010D02*
X024285Y008010D01*
X024285Y008169D02*
X023345Y008169D01*
X023253Y008328D02*
X024285Y008328D01*
X024285Y008486D02*
X023095Y008486D01*
X022936Y008645D02*
X024285Y008645D01*
X024285Y008803D02*
X022765Y008803D01*
X022325Y008962D02*
X024285Y008962D01*
X024285Y009120D02*
X022215Y009120D01*
X022104Y009074D02*
X021305Y009074D01*
X022104Y009074D01*
X022416Y009279D02*
X024285Y009279D01*
X024285Y009437D02*
X022489Y009437D01*
X022505Y009596D02*
X024285Y009596D01*
X024285Y009754D02*
X022471Y009754D01*
X022373Y009913D02*
X024285Y009913D01*
X024285Y010071D02*
X022111Y010071D01*
X022368Y010230D02*
X024285Y010230D01*
X024285Y010389D02*
X022469Y010389D01*
X022505Y010547D02*
X024285Y010547D01*
X024285Y010706D02*
X022492Y010706D01*
X022422Y010864D02*
X024285Y010864D01*
X024285Y011023D02*
X022229Y011023D01*
X022319Y011181D02*
X024285Y011181D01*
X024285Y011340D02*
X022449Y011340D01*
X022505Y011498D02*
X024285Y011498D01*
X024285Y011657D02*
X022505Y011657D01*
X022446Y011815D02*
X024285Y011815D01*
X024285Y011974D02*
X022312Y011974D01*
X020671Y012608D02*
X020658Y012608D01*
X020658Y013401D02*
X020690Y013401D01*
X020658Y013559D02*
X026260Y013559D01*
X026260Y013401D02*
X021315Y013401D01*
X020658Y013718D02*
X026260Y013718D01*
X026260Y013877D02*
X020658Y013877D01*
X020658Y014035D02*
X026260Y014035D01*
X026260Y014194D02*
X020732Y014194D01*
X020795Y014352D02*
X026260Y014352D01*
X026260Y014511D02*
X020795Y014511D01*
X020795Y014669D02*
X026260Y014669D01*
X026260Y014828D02*
X020795Y014828D01*
X020378Y014557D02*
X020378Y007870D01*
X020628Y007620D01*
X021660Y007620D01*
X021705Y007574D01*
X021151Y008010D02*
X020658Y008010D01*
X020658Y008169D02*
X021103Y008169D01*
X020966Y008328D02*
X020658Y008328D01*
X020658Y008486D02*
X020905Y008486D01*
X020905Y008645D02*
X020658Y008645D01*
X020658Y008803D02*
X020958Y008803D01*
X021085Y008962D02*
X020658Y008962D01*
X020658Y009120D02*
X021195Y009120D01*
X020993Y009279D02*
X020658Y009279D01*
X020658Y009437D02*
X020920Y009437D01*
X020905Y009596D02*
X020658Y009596D01*
X020658Y009754D02*
X020938Y009754D01*
X021036Y009913D02*
X020658Y009913D01*
X024845Y009913D02*
X026260Y009913D01*
X026260Y010071D02*
X024845Y010071D01*
X024845Y010230D02*
X026260Y010230D01*
X026260Y010389D02*
X024845Y010389D01*
X024845Y010547D02*
X026260Y010547D01*
X026260Y010706D02*
X024845Y010706D01*
X024845Y010864D02*
X026260Y010864D01*
X026260Y011023D02*
X024845Y011023D01*
X024845Y011181D02*
X026260Y011181D01*
X026260Y011340D02*
X024845Y011340D01*
X024845Y011498D02*
X026260Y011498D01*
X026260Y011657D02*
X024845Y011657D01*
X024845Y011815D02*
X026260Y011815D01*
X026260Y011974D02*
X024845Y011974D01*
X024845Y012133D02*
X026260Y012133D01*
X026260Y012291D02*
X024845Y012291D01*
X024845Y012450D02*
X026260Y012450D01*
X026260Y012608D02*
X024845Y012608D01*
X024845Y012767D02*
X026260Y012767D01*
X026260Y012925D02*
X024780Y012925D01*
X024622Y013084D02*
X026260Y013084D01*
X026260Y013242D02*
X024449Y013242D01*
X024845Y009754D02*
X026260Y009754D01*
X026260Y009596D02*
X024845Y009596D01*
X024845Y009437D02*
X026260Y009437D01*
X026260Y009279D02*
X024845Y009279D01*
X024845Y009120D02*
X026260Y009120D01*
X026260Y008962D02*
X024845Y008962D01*
X024845Y008803D02*
X026260Y008803D01*
X026260Y008645D02*
X024845Y008645D01*
X024845Y008486D02*
X026260Y008486D01*
X026260Y008328D02*
X024845Y008328D01*
X024845Y008169D02*
X026260Y008169D01*
X026260Y008010D02*
X024845Y008010D01*
X024845Y007852D02*
X026260Y007852D01*
X026260Y007693D02*
X024845Y007693D01*
X024845Y007535D02*
X026260Y007535D01*
X026260Y007376D02*
X024845Y007376D01*
X024845Y007218D02*
X026260Y007218D01*
X026260Y007059D02*
X024845Y007059D01*
X024845Y006901D02*
X026260Y006901D01*
X026260Y006742D02*
X024845Y006742D01*
X024845Y006584D02*
X026260Y006584D01*
X026260Y006425D02*
X024845Y006425D01*
X024845Y006266D02*
X026260Y006266D01*
X026260Y006108D02*
X024845Y006108D01*
X024845Y005949D02*
X026260Y005949D01*
X026260Y005791D02*
X024845Y005791D01*
X024845Y005632D02*
X026260Y005632D01*
X026260Y005474D02*
X024845Y005474D01*
X024845Y005315D02*
X026260Y005315D01*
X026260Y005157D02*
X024845Y005157D01*
X024845Y004998D02*
X026260Y004998D01*
X026260Y004840D02*
X024845Y004840D01*
X024845Y004681D02*
X026260Y004681D01*
X026260Y004522D02*
X024845Y004522D01*
X024845Y004364D02*
X026260Y004364D01*
X026260Y004205D02*
X024845Y004205D01*
X024845Y004047D02*
X026260Y004047D01*
X026260Y003888D02*
X024983Y003888D01*
X024983Y003730D02*
X026260Y003730D01*
X023397Y001827D02*
X022015Y001827D01*
X022015Y001669D02*
X023397Y001669D01*
X023397Y001510D02*
X022015Y001510D01*
X022015Y001352D02*
X026260Y001352D01*
X026260Y001193D02*
X022325Y001193D01*
X022426Y001035D02*
X026260Y001035D01*
X026260Y000876D02*
X022455Y000876D01*
X022429Y000717D02*
X026260Y000717D01*
X022731Y001986D02*
X022015Y001986D01*
X022273Y002144D02*
X022647Y002144D01*
X022429Y002291D02*
X022505Y002475D01*
X022505Y002674D01*
X022429Y002858D01*
X022288Y002998D01*
X022349Y002937D02*
X022785Y002937D01*
X022785Y003096D02*
X022155Y003096D01*
X022462Y002779D02*
X022756Y002779D01*
X022647Y002620D02*
X022505Y002620D01*
X022499Y002461D02*
X022647Y002461D01*
X022104Y006074D02*
X021305Y006074D01*
X022104Y006074D01*
X016735Y004998D02*
X015810Y004998D01*
X015709Y004840D02*
X016614Y004840D01*
X015948Y002779D02*
X015791Y002779D01*
X015664Y002620D02*
X015948Y002620D01*
X014501Y001669D02*
X013029Y001669D01*
X013210Y001510D02*
X014321Y001510D01*
X014255Y001352D02*
X013275Y001352D01*
X013285Y001193D02*
X014245Y001193D01*
X014284Y001035D02*
X013246Y001035D01*
X013140Y000876D02*
X014391Y000876D01*
X005305Y008803D02*
X003942Y008803D01*
X004081Y008962D02*
X005166Y008962D01*
X005104Y009120D02*
X004144Y009120D01*
X004144Y009279D02*
X005104Y009279D01*
X005156Y009437D02*
X004091Y009437D01*
X003967Y009596D02*
X005280Y009596D01*
D16*
X009503Y010182D02*
X009659Y010026D01*
X010409Y010026D01*
X010440Y009995D01*
X009503Y010182D02*
X009503Y013557D01*
X007378Y005182D02*
X007378Y002495D01*
X007690Y002182D01*
X009065Y002182D01*
X009190Y002057D01*
X012485Y004370D02*
X012845Y004010D01*
X012485Y004370D02*
X012485Y005182D01*
M02*
