%
M48
M72
T01C0.0276
T02C0.0315
T03C0.0320
T04C0.0354
T05C0.0394
T06C0.0400
T07C0.0520
%
T01
X9991Y25933
T02
X11919Y20548
X11919Y19548
X10778Y14437
X15817Y6838
T03
X1794Y1361
X2857Y1361
X4488Y1611
X4488Y2611
X4432Y3854
X5231Y6173
X4731Y7196
X3731Y7196
X2231Y6173
X2347Y5065
X2857Y4361
X1794Y4361
X2044Y7798
X2044Y8798
X1607Y10298
X1607Y13298
X1441Y14596
X2441Y14596
X3857Y14173
X3857Y15173
X3857Y16173
X3857Y17173
X3857Y18173
X3857Y19173
X3857Y20173
X4243Y21204
X3187Y21196
X1557Y22669
X3187Y24196
X2475Y25192
X1557Y25669
X4243Y24204
X5443Y23500
X5589Y22459
X5648Y21437
X6589Y22459
X7647Y22456
X8443Y23500
X8647Y22456
X8648Y21437
X8357Y20298
X8857Y19548
X8857Y18298
X9010Y17377
X9010Y16377
X8260Y16877
X8044Y15548
X8044Y14548
X8044Y13673
X8044Y12673
X6857Y12173
X6857Y11173
X6731Y10196
X5731Y10196
X4731Y10196
X3731Y10196
X3857Y11173
X3857Y12173
X3857Y13173
X6857Y13173
X6857Y14173
X6857Y15173
X6857Y16173
X6857Y17173
X6857Y18173
X6857Y19173
X6857Y20173
X7857Y19548
X7857Y18298
X10107Y20736
X10419Y19861
X11169Y19361
X11609Y18539
X11288Y17491
X11315Y16395
X12030Y15594
X12030Y14594
X11231Y12846
X12550Y11393
X12550Y10393
X12550Y9543
X12550Y8543
X11231Y8846
X8919Y9498
X8919Y8098
X8107Y6736
X8107Y5736
X7347Y5065
X8432Y3854
X6731Y7196
X5731Y7196
X9482Y12723
X9482Y14623
X10315Y16395
X10288Y17491
X10419Y18861
X11107Y20736
X10620Y21839
X9913Y22546
X8876Y24574
X5876Y24574
X5475Y25192
X12097Y17389
X13928Y15976
X15097Y17389
X14609Y18539
X13928Y12976
X13947Y10370
X14697Y9870
X13947Y9370
X15235Y8740
X15235Y5740
T04
X12418Y6002
X10449Y6002
T05
X15706Y12729
X15712Y14032
T06
X14148Y19855
X13441Y20562
X14148Y21270
X13441Y21977
X12734Y22684
X12027Y23391
X11320Y24098
X10613Y24805
X9905Y24098
X10613Y23391
X11320Y22684
X12027Y21977
X12734Y21270
X14855Y20562
X7589Y25649
X2134Y20986
X2134Y19986
X2134Y18986
X2134Y17986
X2134Y16986
X2134Y15986
X6185Y3001
X6185Y1221
X8745Y1221
X8745Y3001
T07
X11422Y2330
X13402Y2330
M30
