G75*
G70*
%OFA0B0*%
%FSLAX24Y24*%
%IPPOS*%
%LPD*%
%AMOC8*
5,1,8,0,0,1.08239X$1,22.5*
%
%ADD10C,0.0000*%
%ADD11C,0.0060*%
%ADD12C,0.0030*%
%ADD13C,0.0070*%
%ADD14C,0.0020*%
%ADD15C,0.0120*%
%ADD16C,0.0240*%
%ADD17C,0.0100*%
%ADD18C,0.0050*%
%ADD19R,0.0340X0.0240*%
%ADD20R,0.0700X0.0150*%
%ADD21R,0.0200X0.0550*%
%ADD22R,0.0200X0.0800*%
%ADD23R,0.0750X0.0200*%
%ADD24C,0.0080*%
%ADD25C,0.0200*%
%ADD26C,0.0160*%
%ADD27R,0.0300X0.1500*%
%ADD28R,0.0800X0.0200*%
%ADD29R,0.0200X0.0750*%
%ADD30C,0.0040*%
D10*
X000857Y000736D02*
X014439Y000736D01*
X016211Y002704D01*
X016211Y021326D01*
X010699Y026720D01*
X000857Y026720D01*
X000857Y000736D01*
X000870Y010236D02*
X000857Y010236D01*
X000857Y013986D02*
X000870Y013986D01*
D11*
X001091Y014346D02*
X001091Y014846D01*
X001093Y014872D01*
X001098Y014898D01*
X001106Y014923D01*
X001118Y014946D01*
X001132Y014968D01*
X001150Y014987D01*
X001169Y015005D01*
X001191Y015019D01*
X001214Y015031D01*
X001239Y015039D01*
X001265Y015044D01*
X001291Y015046D01*
X002591Y015046D01*
X002617Y015044D01*
X002643Y015039D01*
X002668Y015031D01*
X002691Y015019D01*
X002713Y015005D01*
X002732Y014987D01*
X002750Y014968D01*
X002764Y014946D01*
X002776Y014923D01*
X002784Y014898D01*
X002789Y014872D01*
X002791Y014846D01*
X002791Y014346D01*
X002789Y014320D01*
X002784Y014294D01*
X002776Y014269D01*
X002764Y014246D01*
X002750Y014224D01*
X002732Y014205D01*
X002713Y014187D01*
X002691Y014173D01*
X002668Y014161D01*
X002643Y014153D01*
X002617Y014148D01*
X002591Y014146D01*
X001291Y014146D01*
X001265Y014148D01*
X001239Y014153D01*
X001214Y014161D01*
X001191Y014173D01*
X001169Y014187D01*
X001150Y014205D01*
X001132Y014224D01*
X001118Y014246D01*
X001106Y014269D01*
X001098Y014294D01*
X001093Y014320D01*
X001091Y014346D01*
X001884Y015486D02*
X001634Y015736D01*
X001634Y016236D01*
X001884Y016486D01*
X001634Y016736D01*
X001634Y017236D01*
X001884Y017486D01*
X002384Y017486D01*
X002634Y017236D01*
X002634Y016736D01*
X002384Y016486D01*
X002634Y016236D01*
X002634Y015736D01*
X002384Y015486D01*
X001884Y015486D01*
X001884Y016486D02*
X002384Y016486D01*
X002384Y017486D02*
X002634Y017736D01*
X002634Y018236D01*
X002384Y018486D01*
X002634Y018736D01*
X002634Y019236D01*
X002384Y019486D01*
X002634Y019736D01*
X002634Y020236D01*
X002384Y020486D01*
X002634Y020736D01*
X002634Y021236D01*
X002384Y021486D01*
X001884Y021486D01*
X001634Y021236D01*
X001634Y020736D01*
X001884Y020486D01*
X002384Y020486D01*
X001884Y020486D02*
X001634Y020236D01*
X001634Y019736D01*
X001884Y019486D01*
X002384Y019486D01*
X001884Y019486D02*
X001634Y019236D01*
X001634Y018736D01*
X001884Y018486D01*
X002384Y018486D01*
X001884Y018486D02*
X001634Y018236D01*
X001634Y017736D01*
X001884Y017486D01*
X001607Y018930D02*
X001607Y019144D01*
X001607Y019037D02*
X000966Y019037D01*
X000966Y018930D02*
X000966Y019144D01*
X001073Y019360D02*
X000966Y019467D01*
X000966Y019680D01*
X001073Y019787D01*
X001286Y019680D02*
X001286Y019467D01*
X001180Y019360D01*
X001073Y019360D01*
X001286Y019680D02*
X001393Y019787D01*
X001500Y019787D01*
X001607Y019680D01*
X001607Y019467D01*
X001500Y019360D01*
X001393Y020004D02*
X001393Y020325D01*
X001286Y020431D01*
X001073Y020431D01*
X000966Y020325D01*
X000966Y020004D01*
X001607Y020004D01*
X002737Y021546D02*
X002737Y021696D01*
X002787Y021746D01*
X002787Y023646D01*
X002737Y023696D01*
X002737Y023846D01*
X002739Y023863D01*
X002743Y023880D01*
X002750Y023896D01*
X002760Y023910D01*
X002773Y023923D01*
X002787Y023933D01*
X002803Y023940D01*
X002820Y023944D01*
X002837Y023946D01*
X002825Y024742D02*
X002975Y024742D01*
X003025Y024792D01*
X004925Y024792D01*
X004975Y024742D01*
X005125Y024742D01*
X005142Y024744D01*
X005159Y024748D01*
X005175Y024755D01*
X005189Y024765D01*
X005202Y024778D01*
X005212Y024792D01*
X005219Y024808D01*
X005223Y024825D01*
X005225Y024842D01*
X005225Y025542D02*
X005223Y025559D01*
X005219Y025576D01*
X005212Y025592D01*
X005202Y025606D01*
X005189Y025619D01*
X005175Y025629D01*
X005159Y025636D01*
X005142Y025640D01*
X005125Y025642D01*
X004975Y025642D01*
X004925Y025592D01*
X003025Y025592D01*
X002975Y025642D01*
X002825Y025642D01*
X002808Y025640D01*
X002791Y025636D01*
X002775Y025629D01*
X002761Y025619D01*
X002748Y025606D01*
X002738Y025592D01*
X002731Y025576D01*
X002727Y025559D01*
X002725Y025542D01*
X002725Y024842D02*
X002727Y024825D01*
X002731Y024808D01*
X002738Y024792D01*
X002748Y024778D01*
X002761Y024765D01*
X002775Y024755D01*
X002791Y024748D01*
X002808Y024744D01*
X002825Y024742D01*
X003537Y023946D02*
X003554Y023944D01*
X003571Y023940D01*
X003587Y023933D01*
X003601Y023923D01*
X003614Y023910D01*
X003624Y023896D01*
X003631Y023880D01*
X003635Y023863D01*
X003637Y023846D01*
X003637Y023696D01*
X003587Y023646D01*
X003587Y021746D01*
X003637Y021696D01*
X003637Y021546D01*
X003635Y021529D01*
X003631Y021512D01*
X003624Y021496D01*
X003614Y021482D01*
X003601Y021469D01*
X003587Y021459D01*
X003571Y021452D01*
X003554Y021448D01*
X003537Y021446D01*
X003793Y021554D02*
X003793Y021704D01*
X003843Y021754D01*
X003843Y023654D01*
X003793Y023704D01*
X003793Y023854D01*
X003795Y023871D01*
X003799Y023888D01*
X003806Y023904D01*
X003816Y023918D01*
X003829Y023931D01*
X003843Y023941D01*
X003859Y023948D01*
X003876Y023952D01*
X003893Y023954D01*
X004593Y023954D02*
X004610Y023952D01*
X004627Y023948D01*
X004643Y023941D01*
X004657Y023931D01*
X004670Y023918D01*
X004680Y023904D01*
X004687Y023888D01*
X004691Y023871D01*
X004693Y023854D01*
X004693Y023704D01*
X004643Y023654D01*
X004643Y021754D01*
X004693Y021704D01*
X004693Y021554D01*
X004691Y021537D01*
X004687Y021520D01*
X004680Y021504D01*
X004670Y021490D01*
X004657Y021477D01*
X004643Y021467D01*
X004627Y021460D01*
X004610Y021456D01*
X004593Y021454D01*
X004257Y020623D02*
X004257Y010723D01*
X005107Y010723D01*
X005109Y010753D01*
X005114Y010783D01*
X005123Y010812D01*
X005136Y010839D01*
X005151Y010865D01*
X005170Y010889D01*
X005191Y010910D01*
X005215Y010929D01*
X005241Y010944D01*
X005268Y010957D01*
X005297Y010966D01*
X005327Y010971D01*
X005357Y010973D01*
X005387Y010971D01*
X005417Y010966D01*
X005446Y010957D01*
X005473Y010944D01*
X005499Y010929D01*
X005523Y010910D01*
X005544Y010889D01*
X005563Y010865D01*
X005578Y010839D01*
X005591Y010812D01*
X005600Y010783D01*
X005605Y010753D01*
X005607Y010723D01*
X006457Y010723D01*
X006457Y020623D01*
X004257Y020623D01*
X003893Y021454D02*
X003876Y021456D01*
X003859Y021460D01*
X003843Y021467D01*
X003829Y021477D01*
X003816Y021490D01*
X003806Y021504D01*
X003799Y021520D01*
X003795Y021537D01*
X003793Y021554D01*
X002837Y021446D02*
X002820Y021448D01*
X002803Y021452D01*
X002787Y021459D01*
X002773Y021469D01*
X002760Y021482D01*
X002750Y021496D01*
X002743Y021512D01*
X002739Y021529D01*
X002737Y021546D01*
X002007Y023019D02*
X002007Y023169D01*
X001957Y023219D01*
X001957Y025119D01*
X002007Y025169D01*
X002007Y025319D01*
X002005Y025336D01*
X002001Y025353D01*
X001994Y025369D01*
X001984Y025383D01*
X001971Y025396D01*
X001957Y025406D01*
X001941Y025413D01*
X001924Y025417D01*
X001907Y025419D01*
X001207Y025419D02*
X001190Y025417D01*
X001173Y025413D01*
X001157Y025406D01*
X001143Y025396D01*
X001130Y025383D01*
X001120Y025369D01*
X001113Y025353D01*
X001109Y025336D01*
X001107Y025319D01*
X001107Y025169D01*
X001157Y025119D01*
X001157Y023219D01*
X001107Y023169D01*
X001107Y023019D01*
X001109Y023002D01*
X001113Y022985D01*
X001120Y022969D01*
X001130Y022955D01*
X001143Y022942D01*
X001157Y022932D01*
X001173Y022925D01*
X001190Y022921D01*
X001207Y022919D01*
X001907Y022919D02*
X001924Y022921D01*
X001941Y022925D01*
X001957Y022932D01*
X001971Y022942D01*
X001984Y022955D01*
X001994Y022969D01*
X002001Y022985D01*
X002005Y023002D01*
X002007Y023019D01*
X005239Y022709D02*
X005239Y022209D01*
X005241Y022183D01*
X005246Y022157D01*
X005254Y022132D01*
X005266Y022109D01*
X005280Y022087D01*
X005298Y022068D01*
X005317Y022050D01*
X005339Y022036D01*
X005362Y022024D01*
X005387Y022016D01*
X005413Y022011D01*
X005439Y022009D01*
X006739Y022009D01*
X006765Y022011D01*
X006791Y022016D01*
X006816Y022024D01*
X006839Y022036D01*
X006861Y022050D01*
X006880Y022068D01*
X006898Y022087D01*
X006912Y022109D01*
X006924Y022132D01*
X006932Y022157D01*
X006937Y022183D01*
X006939Y022209D01*
X006939Y022709D01*
X006937Y022735D01*
X006932Y022761D01*
X006924Y022786D01*
X006912Y022809D01*
X006898Y022831D01*
X006880Y022850D01*
X006861Y022868D01*
X006839Y022882D01*
X006816Y022894D01*
X006791Y022902D01*
X006765Y022907D01*
X006739Y022909D01*
X005439Y022909D01*
X005413Y022907D01*
X005387Y022902D01*
X005362Y022894D01*
X005339Y022882D01*
X005317Y022868D01*
X005298Y022850D01*
X005280Y022831D01*
X005266Y022809D01*
X005254Y022786D01*
X005246Y022761D01*
X005241Y022735D01*
X005239Y022709D01*
X005793Y023050D02*
X005943Y023050D01*
X005993Y023100D01*
X007893Y023100D01*
X007943Y023050D01*
X008093Y023050D01*
X008110Y023052D01*
X008127Y023056D01*
X008143Y023063D01*
X008157Y023073D01*
X008170Y023086D01*
X008180Y023100D01*
X008187Y023116D01*
X008191Y023133D01*
X008193Y023150D01*
X008193Y023850D02*
X008191Y023867D01*
X008187Y023884D01*
X008180Y023900D01*
X008170Y023914D01*
X008157Y023927D01*
X008143Y023937D01*
X008127Y023944D01*
X008110Y023948D01*
X008093Y023950D01*
X007943Y023950D01*
X007893Y023900D01*
X005993Y023900D01*
X005943Y023950D01*
X005793Y023950D01*
X005776Y023948D01*
X005759Y023944D01*
X005743Y023937D01*
X005729Y023927D01*
X005716Y023914D01*
X005706Y023900D01*
X005699Y023884D01*
X005695Y023867D01*
X005693Y023850D01*
X005693Y023150D02*
X005695Y023133D01*
X005699Y023116D01*
X005706Y023100D01*
X005716Y023086D01*
X005729Y023073D01*
X005743Y023063D01*
X005759Y023056D01*
X005776Y023052D01*
X005793Y023050D01*
X006226Y024124D02*
X006376Y024124D01*
X006426Y024174D01*
X008326Y024174D01*
X008376Y024124D01*
X008526Y024124D01*
X008543Y024126D01*
X008560Y024130D01*
X008576Y024137D01*
X008590Y024147D01*
X008603Y024160D01*
X008613Y024174D01*
X008620Y024190D01*
X008624Y024207D01*
X008626Y024224D01*
X008626Y024924D02*
X008624Y024941D01*
X008620Y024958D01*
X008613Y024974D01*
X008603Y024988D01*
X008590Y025001D01*
X008576Y025011D01*
X008560Y025018D01*
X008543Y025022D01*
X008526Y025024D01*
X008376Y025024D01*
X008326Y024974D01*
X006426Y024974D01*
X006376Y025024D01*
X006226Y025024D01*
X006209Y025022D01*
X006192Y025018D01*
X006176Y025011D01*
X006162Y025001D01*
X006149Y024988D01*
X006139Y024974D01*
X006132Y024958D01*
X006128Y024941D01*
X006126Y024924D01*
X006126Y024224D02*
X006128Y024207D01*
X006132Y024190D01*
X006139Y024174D01*
X006149Y024160D01*
X006162Y024147D01*
X006176Y024137D01*
X006192Y024130D01*
X006209Y024126D01*
X006226Y024124D01*
X007339Y025149D02*
X007089Y025399D01*
X007089Y025899D01*
X007339Y026149D01*
X007839Y026149D01*
X008089Y025899D01*
X008089Y025399D01*
X007839Y025149D01*
X007339Y025149D01*
X007497Y022906D02*
X008797Y022906D01*
X008823Y022904D01*
X008849Y022899D01*
X008874Y022891D01*
X008897Y022879D01*
X008919Y022865D01*
X008938Y022847D01*
X008956Y022828D01*
X008970Y022806D01*
X008982Y022783D01*
X008990Y022758D01*
X008995Y022732D01*
X008997Y022706D01*
X008997Y022206D01*
X008995Y022180D01*
X008990Y022154D01*
X008982Y022129D01*
X008970Y022106D01*
X008956Y022084D01*
X008938Y022065D01*
X008919Y022047D01*
X008897Y022033D01*
X008874Y022021D01*
X008849Y022013D01*
X008823Y022008D01*
X008797Y022006D01*
X007497Y022006D01*
X007471Y022008D01*
X007445Y022013D01*
X007420Y022021D01*
X007397Y022033D01*
X007375Y022047D01*
X007356Y022065D01*
X007338Y022084D01*
X007324Y022106D01*
X007312Y022129D01*
X007304Y022154D01*
X007299Y022180D01*
X007297Y022206D01*
X007297Y022706D01*
X007299Y022732D01*
X007304Y022758D01*
X007312Y022783D01*
X007324Y022806D01*
X007338Y022828D01*
X007356Y022847D01*
X007375Y022865D01*
X007397Y022879D01*
X007420Y022891D01*
X007445Y022899D01*
X007471Y022904D01*
X007497Y022906D01*
X008148Y021887D02*
X008098Y021837D01*
X006198Y021837D01*
X006148Y021887D01*
X005998Y021887D01*
X005981Y021885D01*
X005964Y021881D01*
X005948Y021874D01*
X005934Y021864D01*
X005921Y021851D01*
X005911Y021837D01*
X005904Y021821D01*
X005900Y021804D01*
X005898Y021787D01*
X005898Y021087D02*
X005900Y021070D01*
X005904Y021053D01*
X005911Y021037D01*
X005921Y021023D01*
X005934Y021010D01*
X005948Y021000D01*
X005964Y020993D01*
X005981Y020989D01*
X005998Y020987D01*
X006148Y020987D01*
X006198Y021037D01*
X008098Y021037D01*
X008148Y020987D01*
X008298Y020987D01*
X008315Y020989D01*
X008332Y020993D01*
X008348Y021000D01*
X008362Y021010D01*
X008375Y021023D01*
X008385Y021037D01*
X008392Y021053D01*
X008396Y021070D01*
X008398Y021087D01*
X008398Y021787D02*
X008396Y021804D01*
X008392Y021821D01*
X008385Y021837D01*
X008375Y021851D01*
X008362Y021864D01*
X008348Y021874D01*
X008332Y021881D01*
X008315Y021885D01*
X008298Y021887D01*
X008148Y021887D01*
X009488Y022334D02*
X010408Y021415D01*
X010427Y021397D01*
X010449Y021383D01*
X010472Y021371D01*
X010497Y021363D01*
X010523Y021358D01*
X010549Y021356D01*
X010575Y021358D01*
X010601Y021363D01*
X010626Y021371D01*
X010649Y021383D01*
X010671Y021397D01*
X010690Y021415D01*
X011044Y021768D01*
X011044Y021769D02*
X011062Y021788D01*
X011076Y021810D01*
X011088Y021833D01*
X011096Y021858D01*
X011101Y021884D01*
X011103Y021910D01*
X011101Y021936D01*
X011096Y021962D01*
X011088Y021987D01*
X011076Y022010D01*
X011062Y022032D01*
X011044Y022051D01*
X010125Y022970D01*
X010124Y022970D02*
X010105Y022988D01*
X010083Y023002D01*
X010060Y023014D01*
X010035Y023022D01*
X010009Y023027D01*
X009983Y023029D01*
X009957Y023027D01*
X009931Y023022D01*
X009906Y023014D01*
X009883Y023002D01*
X009861Y022988D01*
X009842Y022970D01*
X009488Y022617D01*
X009489Y022616D02*
X009471Y022597D01*
X009457Y022575D01*
X009445Y022552D01*
X009437Y022527D01*
X009432Y022501D01*
X009430Y022475D01*
X009432Y022449D01*
X009437Y022423D01*
X009445Y022398D01*
X009457Y022375D01*
X009471Y022353D01*
X009489Y022334D01*
X010082Y023214D02*
X010082Y023568D01*
X009729Y023568D01*
X009375Y023921D01*
X009375Y024275D01*
X010436Y025335D01*
X010789Y025335D01*
X011143Y024982D01*
X011143Y024628D01*
X010082Y023568D01*
X010082Y023214D02*
X010436Y022861D01*
X010789Y022861D01*
X011850Y023921D01*
X011850Y024275D01*
X011496Y024628D01*
X011143Y024628D01*
X011850Y023921D02*
X012204Y023921D01*
X012557Y023568D01*
X012557Y023214D01*
X011496Y022153D01*
X011143Y022153D01*
X010789Y022507D01*
X010789Y022861D01*
X011496Y022153D02*
X011496Y021800D01*
X011850Y021446D01*
X012204Y021446D01*
X013264Y022507D01*
X013264Y022861D01*
X012911Y023214D01*
X012557Y023214D01*
X013264Y022507D02*
X013618Y022507D01*
X013971Y022153D01*
X013971Y021800D01*
X012911Y020739D01*
X012557Y020739D01*
X012204Y021093D01*
X012204Y021446D01*
X012911Y020739D02*
X012911Y020386D01*
X013264Y020032D01*
X013618Y020032D01*
X014678Y021093D01*
X014678Y021446D01*
X014325Y021800D01*
X013971Y021800D01*
X014678Y021093D02*
X015032Y021093D01*
X015386Y020739D01*
X015386Y020386D01*
X014325Y019325D01*
X013971Y019325D01*
X013618Y019679D01*
X013618Y020032D01*
X014109Y018989D02*
X014059Y018939D01*
X012159Y018939D01*
X012109Y018989D01*
X011959Y018989D01*
X011942Y018987D01*
X011925Y018983D01*
X011909Y018976D01*
X011895Y018966D01*
X011882Y018953D01*
X011872Y018939D01*
X011865Y018923D01*
X011861Y018906D01*
X011859Y018889D01*
X011859Y018189D02*
X011861Y018172D01*
X011865Y018155D01*
X011872Y018139D01*
X011882Y018125D01*
X011895Y018112D01*
X011909Y018102D01*
X011925Y018095D01*
X011942Y018091D01*
X011959Y018089D01*
X012109Y018089D01*
X012159Y018139D01*
X014059Y018139D01*
X014109Y018089D01*
X014259Y018089D01*
X014276Y018091D01*
X014293Y018095D01*
X014309Y018102D01*
X014323Y018112D01*
X014336Y018125D01*
X014346Y018139D01*
X014353Y018155D01*
X014357Y018172D01*
X014359Y018189D01*
X014597Y017839D02*
X014547Y017789D01*
X012647Y017789D01*
X012597Y017839D01*
X012447Y017839D01*
X012430Y017837D01*
X012413Y017833D01*
X012397Y017826D01*
X012383Y017816D01*
X012370Y017803D01*
X012360Y017789D01*
X012353Y017773D01*
X012349Y017756D01*
X012347Y017739D01*
X012347Y017039D02*
X012349Y017022D01*
X012353Y017005D01*
X012360Y016989D01*
X012370Y016975D01*
X012383Y016962D01*
X012397Y016952D01*
X012413Y016945D01*
X012430Y016941D01*
X012447Y016939D01*
X012597Y016939D01*
X012647Y016989D01*
X014547Y016989D01*
X014597Y016939D01*
X014747Y016939D01*
X014764Y016941D01*
X014781Y016945D01*
X014797Y016952D01*
X014811Y016962D01*
X014824Y016975D01*
X014834Y016989D01*
X014841Y017005D01*
X014845Y017022D01*
X014847Y017039D01*
X014847Y017739D02*
X014845Y017756D01*
X014841Y017773D01*
X014834Y017789D01*
X014824Y017803D01*
X014811Y017816D01*
X014797Y017826D01*
X014781Y017833D01*
X014764Y017837D01*
X014747Y017839D01*
X014597Y017839D01*
X014359Y018889D02*
X014357Y018906D01*
X014353Y018923D01*
X014346Y018939D01*
X014336Y018953D01*
X014323Y018966D01*
X014309Y018976D01*
X014293Y018983D01*
X014276Y018987D01*
X014259Y018989D01*
X014109Y018989D01*
X014278Y015076D02*
X013578Y015076D01*
X013578Y013876D01*
X014278Y013876D01*
X014278Y015076D01*
X013928Y014676D02*
X013928Y014526D01*
X013728Y014526D01*
X013928Y014526D02*
X013728Y014126D01*
X014128Y014126D01*
X013928Y014526D01*
X014128Y014526D01*
X013928Y014526D02*
X013928Y013976D01*
X012800Y011743D02*
X012300Y011743D01*
X012274Y011741D01*
X012248Y011736D01*
X012223Y011728D01*
X012200Y011716D01*
X012178Y011702D01*
X012159Y011684D01*
X012141Y011665D01*
X012127Y011643D01*
X012115Y011620D01*
X012107Y011595D01*
X012102Y011569D01*
X012100Y011543D01*
X012100Y010243D01*
X012102Y010217D01*
X012107Y010191D01*
X012115Y010166D01*
X012127Y010143D01*
X012141Y010121D01*
X012159Y010102D01*
X012178Y010084D01*
X012200Y010070D01*
X012223Y010058D01*
X012248Y010050D01*
X012274Y010045D01*
X012300Y010043D01*
X012800Y010043D01*
X012800Y009893D02*
X012300Y009893D01*
X012274Y009891D01*
X012248Y009886D01*
X012223Y009878D01*
X012200Y009866D01*
X012178Y009852D01*
X012159Y009834D01*
X012141Y009815D01*
X012127Y009793D01*
X012115Y009770D01*
X012107Y009745D01*
X012102Y009719D01*
X012100Y009693D01*
X012100Y008393D01*
X012102Y008367D01*
X012107Y008341D01*
X012115Y008316D01*
X012127Y008293D01*
X012141Y008271D01*
X012159Y008252D01*
X012178Y008234D01*
X012200Y008220D01*
X012223Y008208D01*
X012248Y008200D01*
X012274Y008195D01*
X012300Y008193D01*
X012800Y008193D01*
X012826Y008195D01*
X012852Y008200D01*
X012877Y008208D01*
X012900Y008220D01*
X012922Y008234D01*
X012941Y008252D01*
X012959Y008271D01*
X012973Y008293D01*
X012985Y008316D01*
X012993Y008341D01*
X012998Y008367D01*
X013000Y008393D01*
X013000Y009693D01*
X012998Y009719D01*
X012993Y009745D01*
X012985Y009770D01*
X012973Y009793D01*
X012959Y009815D01*
X012941Y009834D01*
X012922Y009852D01*
X012900Y009866D01*
X012877Y009878D01*
X012852Y009886D01*
X012826Y009891D01*
X012800Y009893D01*
X012800Y010043D02*
X012826Y010045D01*
X012852Y010050D01*
X012877Y010058D01*
X012900Y010070D01*
X012922Y010084D01*
X012941Y010102D01*
X012959Y010121D01*
X012973Y010143D01*
X012985Y010166D01*
X012993Y010191D01*
X012998Y010217D01*
X013000Y010243D01*
X013000Y011543D01*
X012998Y011569D01*
X012993Y011595D01*
X012985Y011620D01*
X012973Y011643D01*
X012959Y011665D01*
X012941Y011684D01*
X012922Y011702D01*
X012900Y011716D01*
X012877Y011728D01*
X012852Y011736D01*
X012826Y011741D01*
X012800Y011743D01*
X013297Y010694D02*
X013297Y009045D01*
X013847Y008982D02*
X013847Y008824D01*
X013297Y009044D02*
X013348Y009007D01*
X013401Y008972D01*
X013457Y008940D01*
X013514Y008912D01*
X013573Y008888D01*
X013633Y008867D01*
X013694Y008850D01*
X013756Y008836D01*
X013819Y008827D01*
X013882Y008821D01*
X013946Y008819D01*
X014010Y008821D01*
X014073Y008827D01*
X014136Y008836D01*
X014198Y008849D01*
X014259Y008867D01*
X014319Y008887D01*
X014378Y008912D01*
X014435Y008939D01*
X014491Y008971D01*
X014544Y009005D01*
X014595Y009043D01*
X014644Y009084D01*
X014690Y009128D01*
X014734Y009174D01*
X014775Y009223D01*
X014812Y009274D01*
X014847Y009328D01*
X014878Y009383D01*
X014906Y009440D01*
X014930Y009499D01*
X014950Y009559D01*
X014885Y008490D02*
X014868Y008488D01*
X014851Y008484D01*
X014835Y008477D01*
X014821Y008467D01*
X014808Y008454D01*
X014798Y008440D01*
X014791Y008424D01*
X014787Y008407D01*
X014785Y008390D01*
X014785Y008240D01*
X014835Y008190D01*
X014835Y006290D01*
X014785Y006240D01*
X014785Y006090D01*
X014787Y006073D01*
X014791Y006056D01*
X014798Y006040D01*
X014808Y006026D01*
X014821Y006013D01*
X014835Y006003D01*
X014851Y005996D01*
X014868Y005992D01*
X014885Y005990D01*
X015585Y005990D02*
X015602Y005992D01*
X015619Y005996D01*
X015635Y006003D01*
X015649Y006013D01*
X015662Y006026D01*
X015672Y006040D01*
X015679Y006056D01*
X015683Y006073D01*
X015685Y006090D01*
X015685Y006240D01*
X015635Y006290D01*
X015635Y008190D01*
X015685Y008240D01*
X015685Y008390D01*
X015683Y008407D01*
X015679Y008424D01*
X015672Y008440D01*
X015662Y008454D01*
X015649Y008467D01*
X015635Y008477D01*
X015619Y008484D01*
X015602Y008488D01*
X015585Y008490D01*
X014950Y010180D02*
X014930Y010240D01*
X014906Y010299D01*
X014878Y010356D01*
X014847Y010411D01*
X014812Y010465D01*
X014775Y010516D01*
X014734Y010565D01*
X014690Y010611D01*
X014644Y010655D01*
X014595Y010696D01*
X014544Y010734D01*
X014491Y010768D01*
X014435Y010799D01*
X014378Y010827D01*
X014319Y010852D01*
X014259Y010872D01*
X014198Y010890D01*
X014136Y010903D01*
X014073Y010912D01*
X014010Y010918D01*
X013946Y010920D01*
X013882Y010918D01*
X013819Y010912D01*
X013756Y010903D01*
X013694Y010889D01*
X013633Y010872D01*
X013573Y010851D01*
X013514Y010827D01*
X013457Y010799D01*
X013401Y010767D01*
X013348Y010732D01*
X013297Y010695D01*
X013847Y010757D02*
X013847Y010915D01*
X011631Y011646D02*
X011631Y010046D01*
X011629Y010029D01*
X011625Y010012D01*
X011618Y009996D01*
X011608Y009982D01*
X011595Y009969D01*
X011581Y009959D01*
X011565Y009952D01*
X011548Y009948D01*
X011531Y009946D01*
X010931Y009946D01*
X010914Y009948D01*
X010897Y009952D01*
X010881Y009959D01*
X010867Y009969D01*
X010854Y009982D01*
X010844Y009996D01*
X010837Y010012D01*
X010833Y010029D01*
X010831Y010046D01*
X010831Y011646D01*
X010833Y011663D01*
X010837Y011680D01*
X010844Y011696D01*
X010854Y011710D01*
X010867Y011723D01*
X010881Y011733D01*
X010897Y011740D01*
X010914Y011744D01*
X010931Y011746D01*
X011531Y011746D01*
X011548Y011744D01*
X011565Y011740D01*
X011581Y011733D01*
X011595Y011723D01*
X011608Y011710D01*
X011618Y011696D01*
X011625Y011680D01*
X011629Y011663D01*
X011631Y011646D01*
X011481Y011246D02*
X011231Y010846D01*
X011481Y010846D01*
X011231Y010846D02*
X011231Y010596D01*
X011231Y010846D02*
X010981Y010846D01*
X011231Y010846D02*
X010981Y011246D01*
X011481Y011246D01*
X011231Y011446D02*
X011231Y010846D01*
X010132Y012473D02*
X010132Y014873D01*
X009782Y013923D02*
X009482Y013923D01*
X009482Y014173D01*
X009482Y013923D02*
X009182Y013923D01*
X009182Y013773D02*
X009782Y013773D01*
X009782Y013573D01*
X009182Y013573D01*
X009182Y013773D01*
X009182Y013423D02*
X009482Y013423D01*
X009482Y013173D01*
X009482Y013423D02*
X009782Y013423D01*
X010132Y012473D02*
X010130Y012423D01*
X010124Y012374D01*
X010115Y012325D01*
X010102Y012277D01*
X010085Y012230D01*
X010065Y012185D01*
X010041Y012141D01*
X010014Y012099D01*
X009983Y012059D01*
X009950Y012022D01*
X009914Y011988D01*
X009876Y011956D01*
X009835Y011927D01*
X009793Y011902D01*
X009748Y011880D01*
X009702Y011861D01*
X009654Y011846D01*
X009606Y011835D01*
X009557Y011827D01*
X009507Y011823D01*
X009457Y011823D01*
X009407Y011827D01*
X009358Y011835D01*
X009310Y011846D01*
X009262Y011861D01*
X009216Y011880D01*
X009171Y011902D01*
X009129Y011927D01*
X009088Y011956D01*
X009050Y011988D01*
X009014Y012022D01*
X008981Y012059D01*
X008950Y012099D01*
X008923Y012141D01*
X008899Y012185D01*
X008879Y012230D01*
X008862Y012277D01*
X008849Y012325D01*
X008840Y012374D01*
X008834Y012423D01*
X008832Y012473D01*
X008832Y014873D01*
X008494Y014398D02*
X008494Y015698D01*
X008492Y015724D01*
X008487Y015750D01*
X008479Y015775D01*
X008467Y015798D01*
X008453Y015820D01*
X008435Y015839D01*
X008416Y015857D01*
X008394Y015871D01*
X008371Y015883D01*
X008346Y015891D01*
X008320Y015896D01*
X008294Y015898D01*
X007794Y015898D01*
X007768Y015896D01*
X007742Y015891D01*
X007717Y015883D01*
X007694Y015871D01*
X007672Y015857D01*
X007653Y015839D01*
X007635Y015820D01*
X007621Y015798D01*
X007609Y015775D01*
X007601Y015750D01*
X007596Y015724D01*
X007594Y015698D01*
X007594Y014398D01*
X007596Y014372D01*
X007601Y014346D01*
X007609Y014321D01*
X007621Y014298D01*
X007635Y014276D01*
X007653Y014257D01*
X007672Y014239D01*
X007694Y014225D01*
X007717Y014213D01*
X007742Y014205D01*
X007768Y014200D01*
X007794Y014198D01*
X008294Y014198D01*
X008294Y014023D02*
X007794Y014023D01*
X007768Y014021D01*
X007742Y014016D01*
X007717Y014008D01*
X007694Y013996D01*
X007672Y013982D01*
X007653Y013964D01*
X007635Y013945D01*
X007621Y013923D01*
X007609Y013900D01*
X007601Y013875D01*
X007596Y013849D01*
X007594Y013823D01*
X007594Y012523D01*
X007596Y012497D01*
X007601Y012471D01*
X007609Y012446D01*
X007621Y012423D01*
X007635Y012401D01*
X007653Y012382D01*
X007672Y012364D01*
X007694Y012350D01*
X007717Y012338D01*
X007742Y012330D01*
X007768Y012325D01*
X007794Y012323D01*
X008294Y012323D01*
X008320Y012325D01*
X008346Y012330D01*
X008371Y012338D01*
X008394Y012350D01*
X008416Y012364D01*
X008435Y012382D01*
X008453Y012401D01*
X008467Y012423D01*
X008479Y012446D01*
X008487Y012471D01*
X008492Y012497D01*
X008494Y012523D01*
X008494Y013823D01*
X008492Y013849D01*
X008487Y013875D01*
X008479Y013900D01*
X008467Y013923D01*
X008453Y013945D01*
X008435Y013964D01*
X008416Y013982D01*
X008394Y013996D01*
X008371Y014008D01*
X008346Y014016D01*
X008320Y014021D01*
X008294Y014023D01*
X008294Y014198D02*
X008320Y014200D01*
X008346Y014205D01*
X008371Y014213D01*
X008394Y014225D01*
X008416Y014239D01*
X008435Y014257D01*
X008453Y014276D01*
X008467Y014298D01*
X008479Y014321D01*
X008487Y014346D01*
X008492Y014372D01*
X008494Y014398D01*
X008832Y014873D02*
X008834Y014923D01*
X008840Y014972D01*
X008849Y015021D01*
X008862Y015069D01*
X008879Y015116D01*
X008899Y015161D01*
X008923Y015205D01*
X008950Y015247D01*
X008981Y015287D01*
X009014Y015324D01*
X009050Y015358D01*
X009088Y015390D01*
X009129Y015419D01*
X009171Y015444D01*
X009216Y015466D01*
X009262Y015485D01*
X009310Y015500D01*
X009358Y015511D01*
X009407Y015519D01*
X009457Y015523D01*
X009507Y015523D01*
X009557Y015519D01*
X009606Y015511D01*
X009654Y015500D01*
X009702Y015485D01*
X009748Y015466D01*
X009793Y015444D01*
X009835Y015419D01*
X009876Y015390D01*
X009914Y015358D01*
X009950Y015324D01*
X009983Y015287D01*
X010014Y015247D01*
X010041Y015205D01*
X010065Y015161D01*
X010085Y015116D01*
X010102Y015069D01*
X010115Y015021D01*
X010124Y014972D01*
X010130Y014923D01*
X010132Y014873D01*
X009815Y016395D02*
X009817Y016439D01*
X009823Y016483D01*
X009833Y016526D01*
X009846Y016568D01*
X009863Y016609D01*
X009884Y016648D01*
X009908Y016685D01*
X009935Y016720D01*
X009965Y016752D01*
X009998Y016782D01*
X010034Y016808D01*
X010071Y016832D01*
X010111Y016851D01*
X010152Y016868D01*
X010195Y016880D01*
X010238Y016889D01*
X010282Y016894D01*
X010326Y016895D01*
X010370Y016892D01*
X010414Y016885D01*
X010457Y016874D01*
X010499Y016860D01*
X010539Y016842D01*
X010578Y016820D01*
X010614Y016796D01*
X010648Y016768D01*
X010680Y016737D01*
X010709Y016703D01*
X010735Y016667D01*
X010757Y016629D01*
X010776Y016589D01*
X010791Y016547D01*
X010803Y016505D01*
X010811Y016461D01*
X010815Y016417D01*
X010815Y016373D01*
X010811Y016329D01*
X010803Y016285D01*
X010791Y016243D01*
X010776Y016201D01*
X010757Y016161D01*
X010735Y016123D01*
X010709Y016087D01*
X010680Y016053D01*
X010648Y016022D01*
X010614Y015994D01*
X010578Y015970D01*
X010539Y015948D01*
X010499Y015930D01*
X010457Y015916D01*
X010414Y015905D01*
X010370Y015898D01*
X010326Y015895D01*
X010282Y015896D01*
X010238Y015901D01*
X010195Y015910D01*
X010152Y015922D01*
X010111Y015939D01*
X010071Y015958D01*
X010034Y015982D01*
X009998Y016008D01*
X009965Y016038D01*
X009935Y016070D01*
X009908Y016105D01*
X009884Y016142D01*
X009863Y016181D01*
X009846Y016222D01*
X009833Y016264D01*
X009823Y016307D01*
X009817Y016351D01*
X009815Y016395D01*
X009788Y017491D02*
X009790Y017535D01*
X009796Y017579D01*
X009806Y017622D01*
X009819Y017664D01*
X009836Y017705D01*
X009857Y017744D01*
X009881Y017781D01*
X009908Y017816D01*
X009938Y017848D01*
X009971Y017878D01*
X010007Y017904D01*
X010044Y017928D01*
X010084Y017947D01*
X010125Y017964D01*
X010168Y017976D01*
X010211Y017985D01*
X010255Y017990D01*
X010299Y017991D01*
X010343Y017988D01*
X010387Y017981D01*
X010430Y017970D01*
X010472Y017956D01*
X010512Y017938D01*
X010551Y017916D01*
X010587Y017892D01*
X010621Y017864D01*
X010653Y017833D01*
X010682Y017799D01*
X010708Y017763D01*
X010730Y017725D01*
X010749Y017685D01*
X010764Y017643D01*
X010776Y017601D01*
X010784Y017557D01*
X010788Y017513D01*
X010788Y017469D01*
X010784Y017425D01*
X010776Y017381D01*
X010764Y017339D01*
X010749Y017297D01*
X010730Y017257D01*
X010708Y017219D01*
X010682Y017183D01*
X010653Y017149D01*
X010621Y017118D01*
X010587Y017090D01*
X010551Y017066D01*
X010512Y017044D01*
X010472Y017026D01*
X010430Y017012D01*
X010387Y017001D01*
X010343Y016994D01*
X010299Y016991D01*
X010255Y016992D01*
X010211Y016997D01*
X010168Y017006D01*
X010125Y017018D01*
X010084Y017035D01*
X010044Y017054D01*
X010007Y017078D01*
X009971Y017104D01*
X009938Y017134D01*
X009908Y017166D01*
X009881Y017201D01*
X009857Y017238D01*
X009836Y017277D01*
X009819Y017318D01*
X009806Y017360D01*
X009796Y017403D01*
X009790Y017447D01*
X009788Y017491D01*
X009719Y018719D02*
X009719Y020003D01*
X009402Y019448D02*
X009244Y019448D01*
X009181Y018898D02*
X007532Y018898D01*
X007469Y019448D02*
X007311Y019448D01*
X007357Y018298D02*
X007359Y018342D01*
X007365Y018386D01*
X007375Y018429D01*
X007388Y018471D01*
X007405Y018512D01*
X007426Y018551D01*
X007450Y018588D01*
X007477Y018623D01*
X007507Y018655D01*
X007540Y018685D01*
X007576Y018711D01*
X007613Y018735D01*
X007653Y018754D01*
X007694Y018771D01*
X007737Y018783D01*
X007780Y018792D01*
X007824Y018797D01*
X007868Y018798D01*
X007912Y018795D01*
X007956Y018788D01*
X007999Y018777D01*
X008041Y018763D01*
X008081Y018745D01*
X008120Y018723D01*
X008156Y018699D01*
X008190Y018671D01*
X008222Y018640D01*
X008251Y018606D01*
X008277Y018570D01*
X008299Y018532D01*
X008318Y018492D01*
X008333Y018450D01*
X008345Y018408D01*
X008353Y018364D01*
X008357Y018320D01*
X008357Y018276D01*
X008353Y018232D01*
X008345Y018188D01*
X008333Y018146D01*
X008318Y018104D01*
X008299Y018064D01*
X008277Y018026D01*
X008251Y017990D01*
X008222Y017956D01*
X008190Y017925D01*
X008156Y017897D01*
X008120Y017873D01*
X008081Y017851D01*
X008041Y017833D01*
X007999Y017819D01*
X007956Y017808D01*
X007912Y017801D01*
X007868Y017798D01*
X007824Y017799D01*
X007780Y017804D01*
X007737Y017813D01*
X007694Y017825D01*
X007653Y017842D01*
X007613Y017861D01*
X007576Y017885D01*
X007540Y017911D01*
X007507Y017941D01*
X007477Y017973D01*
X007450Y018008D01*
X007426Y018045D01*
X007405Y018084D01*
X007388Y018125D01*
X007375Y018167D01*
X007365Y018210D01*
X007359Y018254D01*
X007357Y018298D01*
X008244Y019448D02*
X008469Y019448D01*
X009182Y018898D02*
X009219Y018949D01*
X009254Y019002D01*
X009286Y019058D01*
X009314Y019115D01*
X009338Y019174D01*
X009359Y019234D01*
X009376Y019295D01*
X009390Y019357D01*
X009399Y019420D01*
X009405Y019483D01*
X009407Y019547D01*
X009405Y019611D01*
X009399Y019674D01*
X009390Y019737D01*
X009377Y019799D01*
X009359Y019860D01*
X009339Y019920D01*
X009314Y019979D01*
X009287Y020036D01*
X009255Y020092D01*
X009221Y020145D01*
X009183Y020196D01*
X009142Y020245D01*
X009098Y020291D01*
X009052Y020335D01*
X009003Y020376D01*
X008952Y020413D01*
X008898Y020448D01*
X008843Y020479D01*
X008786Y020507D01*
X008727Y020531D01*
X008667Y020551D01*
X008047Y020551D02*
X007987Y020531D01*
X007928Y020507D01*
X007871Y020479D01*
X007816Y020448D01*
X007762Y020413D01*
X007711Y020376D01*
X007662Y020335D01*
X007616Y020291D01*
X007572Y020245D01*
X007531Y020196D01*
X007493Y020145D01*
X007459Y020092D01*
X007428Y020036D01*
X007400Y019979D01*
X007375Y019920D01*
X007355Y019860D01*
X007337Y019799D01*
X007324Y019737D01*
X007315Y019674D01*
X007309Y019611D01*
X007307Y019547D01*
X007309Y019483D01*
X007315Y019420D01*
X007324Y019357D01*
X007338Y019295D01*
X007355Y019234D01*
X007376Y019174D01*
X007400Y019115D01*
X007428Y019058D01*
X007460Y019002D01*
X007495Y018949D01*
X007532Y018898D01*
X009719Y020003D02*
X009762Y020047D01*
X009807Y020087D01*
X009855Y020125D01*
X009905Y020160D01*
X009957Y020191D01*
X010011Y020219D01*
X010067Y020243D01*
X010124Y020264D01*
X010182Y020281D01*
X010242Y020294D01*
X010302Y020304D01*
X010362Y020309D01*
X010423Y020311D01*
X010484Y020309D01*
X010545Y020303D01*
X010605Y020293D01*
X010664Y020279D01*
X010722Y020261D01*
X010779Y020240D01*
X010835Y020215D01*
X010888Y020187D01*
X010940Y020155D01*
X010990Y020120D01*
X011038Y020082D01*
X011082Y020041D01*
X011125Y019997D01*
X011164Y019951D01*
X011200Y019902D01*
X011233Y019851D01*
X011263Y019797D01*
X011289Y019743D01*
X010607Y020736D02*
X010609Y020780D01*
X010615Y020824D01*
X010625Y020867D01*
X010638Y020909D01*
X010655Y020950D01*
X010676Y020989D01*
X010700Y021026D01*
X010727Y021061D01*
X010757Y021093D01*
X010790Y021123D01*
X010826Y021149D01*
X010863Y021173D01*
X010903Y021192D01*
X010944Y021209D01*
X010987Y021221D01*
X011030Y021230D01*
X011074Y021235D01*
X011118Y021236D01*
X011162Y021233D01*
X011206Y021226D01*
X011249Y021215D01*
X011291Y021201D01*
X011331Y021183D01*
X011370Y021161D01*
X011406Y021137D01*
X011440Y021109D01*
X011472Y021078D01*
X011501Y021044D01*
X011527Y021008D01*
X011549Y020970D01*
X011568Y020930D01*
X011583Y020888D01*
X011595Y020846D01*
X011603Y020802D01*
X011607Y020758D01*
X011607Y020714D01*
X011603Y020670D01*
X011595Y020626D01*
X011583Y020584D01*
X011568Y020542D01*
X011549Y020502D01*
X011527Y020464D01*
X011501Y020428D01*
X011472Y020394D01*
X011440Y020363D01*
X011406Y020335D01*
X011370Y020311D01*
X011331Y020289D01*
X011291Y020271D01*
X011249Y020257D01*
X011206Y020246D01*
X011162Y020239D01*
X011118Y020236D01*
X011074Y020237D01*
X011030Y020242D01*
X010987Y020251D01*
X010944Y020263D01*
X010903Y020280D01*
X010863Y020299D01*
X010826Y020323D01*
X010790Y020349D01*
X010757Y020379D01*
X010727Y020411D01*
X010700Y020446D01*
X010676Y020483D01*
X010655Y020522D01*
X010638Y020563D01*
X010625Y020605D01*
X010615Y020648D01*
X010609Y020692D01*
X010607Y020736D01*
X011289Y018979D02*
X011263Y018925D01*
X011233Y018871D01*
X011200Y018820D01*
X011164Y018771D01*
X011125Y018725D01*
X011082Y018681D01*
X011038Y018640D01*
X010990Y018602D01*
X010940Y018567D01*
X010888Y018535D01*
X010835Y018507D01*
X010779Y018482D01*
X010722Y018461D01*
X010664Y018443D01*
X010605Y018429D01*
X010545Y018419D01*
X010484Y018413D01*
X010423Y018411D01*
X010362Y018413D01*
X010302Y018418D01*
X010242Y018428D01*
X010182Y018441D01*
X010124Y018458D01*
X010067Y018479D01*
X010011Y018503D01*
X009957Y018531D01*
X009905Y018562D01*
X009855Y018597D01*
X009807Y018635D01*
X009762Y018675D01*
X009719Y018719D01*
X009369Y010148D02*
X009369Y009848D01*
X009219Y009998D02*
X009519Y009998D01*
X007319Y008798D02*
X007321Y008878D01*
X007327Y008957D01*
X007337Y009036D01*
X007351Y009115D01*
X007368Y009193D01*
X007390Y009270D01*
X007415Y009345D01*
X007445Y009419D01*
X007477Y009492D01*
X007514Y009563D01*
X007554Y009632D01*
X007597Y009699D01*
X007644Y009764D01*
X007693Y009826D01*
X007746Y009886D01*
X007802Y009943D01*
X007860Y009998D01*
X007921Y010049D01*
X007985Y010097D01*
X008051Y010142D01*
X008119Y010184D01*
X008189Y010222D01*
X008261Y010256D01*
X008334Y010287D01*
X008409Y010315D01*
X008486Y010338D01*
X008563Y010358D01*
X008641Y010374D01*
X008720Y010386D01*
X008799Y010394D01*
X008879Y010398D01*
X008959Y010398D01*
X009039Y010394D01*
X009118Y010386D01*
X009197Y010374D01*
X009275Y010358D01*
X009352Y010338D01*
X009429Y010315D01*
X009504Y010287D01*
X009577Y010256D01*
X009649Y010222D01*
X009719Y010184D01*
X009787Y010142D01*
X009853Y010097D01*
X009917Y010049D01*
X009978Y009998D01*
X010036Y009943D01*
X010092Y009886D01*
X010145Y009826D01*
X010194Y009764D01*
X010241Y009699D01*
X010284Y009632D01*
X010324Y009563D01*
X010361Y009492D01*
X010393Y009419D01*
X010423Y009345D01*
X010448Y009270D01*
X010470Y009193D01*
X010487Y009115D01*
X010501Y009036D01*
X010511Y008957D01*
X010517Y008878D01*
X010519Y008798D01*
X010517Y008718D01*
X010511Y008639D01*
X010501Y008560D01*
X010487Y008481D01*
X010470Y008403D01*
X010448Y008326D01*
X010423Y008251D01*
X010393Y008177D01*
X010361Y008104D01*
X010324Y008033D01*
X010284Y007964D01*
X010241Y007897D01*
X010194Y007832D01*
X010145Y007770D01*
X010092Y007710D01*
X010036Y007653D01*
X009978Y007598D01*
X009917Y007547D01*
X009853Y007499D01*
X009787Y007454D01*
X009719Y007412D01*
X009649Y007374D01*
X009577Y007340D01*
X009504Y007309D01*
X009429Y007281D01*
X009352Y007258D01*
X009275Y007238D01*
X009197Y007222D01*
X009118Y007210D01*
X009039Y007202D01*
X008959Y007198D01*
X008879Y007198D01*
X008799Y007202D01*
X008720Y007210D01*
X008641Y007222D01*
X008563Y007238D01*
X008486Y007258D01*
X008409Y007281D01*
X008334Y007309D01*
X008261Y007340D01*
X008189Y007374D01*
X008119Y007412D01*
X008051Y007454D01*
X007985Y007499D01*
X007921Y007547D01*
X007860Y007598D01*
X007802Y007653D01*
X007746Y007710D01*
X007693Y007770D01*
X007644Y007832D01*
X007597Y007897D01*
X007554Y007964D01*
X007514Y008033D01*
X007477Y008104D01*
X007445Y008177D01*
X007415Y008251D01*
X007390Y008326D01*
X007368Y008403D01*
X007351Y008481D01*
X007337Y008560D01*
X007327Y008639D01*
X007321Y008718D01*
X007319Y008798D01*
X007231Y009846D02*
X007231Y007546D01*
X003231Y007546D01*
X003231Y008296D01*
X003270Y008298D01*
X003309Y008304D01*
X003347Y008313D01*
X003384Y008326D01*
X003420Y008343D01*
X003453Y008363D01*
X003485Y008387D01*
X003514Y008413D01*
X003540Y008442D01*
X003564Y008474D01*
X003584Y008507D01*
X003601Y008543D01*
X003614Y008580D01*
X003623Y008618D01*
X003629Y008657D01*
X003631Y008696D01*
X003629Y008735D01*
X003623Y008774D01*
X003614Y008812D01*
X003601Y008849D01*
X003584Y008885D01*
X003564Y008918D01*
X003540Y008950D01*
X003514Y008979D01*
X003485Y009005D01*
X003453Y009029D01*
X003420Y009049D01*
X003384Y009066D01*
X003347Y009079D01*
X003309Y009088D01*
X003270Y009094D01*
X003231Y009096D01*
X003231Y009846D01*
X007231Y009846D01*
X007857Y007086D02*
X008357Y007086D01*
X008383Y007084D01*
X008409Y007079D01*
X008434Y007071D01*
X008457Y007059D01*
X008479Y007045D01*
X008498Y007027D01*
X008516Y007008D01*
X008530Y006986D01*
X008542Y006963D01*
X008550Y006938D01*
X008555Y006912D01*
X008557Y006886D01*
X008557Y005586D01*
X008555Y005560D01*
X008550Y005534D01*
X008542Y005509D01*
X008530Y005486D01*
X008516Y005464D01*
X008498Y005445D01*
X008479Y005427D01*
X008457Y005413D01*
X008434Y005401D01*
X008409Y005393D01*
X008383Y005388D01*
X008357Y005386D01*
X007857Y005386D01*
X007831Y005388D01*
X007805Y005393D01*
X007780Y005401D01*
X007757Y005413D01*
X007735Y005427D01*
X007716Y005445D01*
X007698Y005464D01*
X007684Y005486D01*
X007672Y005509D01*
X007664Y005534D01*
X007659Y005560D01*
X007657Y005586D01*
X007657Y006886D01*
X007659Y006912D01*
X007664Y006938D01*
X007672Y006963D01*
X007684Y006986D01*
X007698Y007008D01*
X007716Y007027D01*
X007735Y007045D01*
X007757Y007059D01*
X007780Y007071D01*
X007805Y007079D01*
X007831Y007084D01*
X007857Y007086D01*
X006097Y005415D02*
X006097Y004715D01*
X006095Y004698D01*
X006091Y004681D01*
X006084Y004665D01*
X006074Y004651D01*
X006061Y004638D01*
X006047Y004628D01*
X006031Y004621D01*
X006014Y004617D01*
X005997Y004615D01*
X005847Y004615D01*
X005797Y004665D01*
X003897Y004665D01*
X003847Y004615D01*
X003697Y004615D01*
X003680Y004617D01*
X003663Y004621D01*
X003647Y004628D01*
X003633Y004638D01*
X003620Y004651D01*
X003610Y004665D01*
X003603Y004681D01*
X003599Y004698D01*
X003597Y004715D01*
X003597Y005415D01*
X003599Y005432D01*
X003603Y005449D01*
X003610Y005465D01*
X003620Y005479D01*
X003633Y005492D01*
X003647Y005502D01*
X003663Y005509D01*
X003680Y005513D01*
X003697Y005515D01*
X003847Y005515D01*
X003897Y005465D01*
X005797Y005465D01*
X005847Y005515D01*
X005997Y005515D01*
X006014Y005513D01*
X006031Y005509D01*
X006047Y005502D01*
X006061Y005492D01*
X006074Y005479D01*
X006084Y005465D01*
X006091Y005449D01*
X006095Y005432D01*
X006097Y005415D01*
X005632Y004254D02*
X007232Y004254D01*
X007249Y004252D01*
X007266Y004248D01*
X007282Y004241D01*
X007296Y004231D01*
X007309Y004218D01*
X007319Y004204D01*
X007326Y004188D01*
X007330Y004171D01*
X007332Y004154D01*
X007332Y003554D01*
X007330Y003537D01*
X007326Y003520D01*
X007319Y003504D01*
X007309Y003490D01*
X007296Y003477D01*
X007282Y003467D01*
X007266Y003460D01*
X007249Y003456D01*
X007232Y003454D01*
X005632Y003454D01*
X005615Y003456D01*
X005598Y003460D01*
X005582Y003467D01*
X005568Y003477D01*
X005555Y003490D01*
X005545Y003504D01*
X005538Y003520D01*
X005534Y003537D01*
X005532Y003554D01*
X005532Y004154D01*
X005534Y004171D01*
X005538Y004188D01*
X005545Y004204D01*
X005555Y004218D01*
X005568Y004231D01*
X005582Y004241D01*
X005598Y004248D01*
X005615Y004252D01*
X005632Y004254D01*
X005832Y003854D02*
X006432Y003854D01*
X006432Y004104D01*
X006432Y003854D02*
X006432Y003604D01*
X006432Y003854D02*
X006032Y003604D01*
X006032Y004104D01*
X006432Y003854D01*
X006682Y003854D01*
X006615Y003311D02*
X007015Y003311D01*
X007965Y003311D01*
X008315Y003311D01*
X008665Y002511D02*
X008665Y002411D01*
X008765Y002411D01*
X008765Y001811D01*
X008665Y001811D01*
X008665Y001711D01*
X008315Y000911D02*
X007965Y000911D01*
X006965Y000911D01*
X006615Y000911D01*
X006265Y001711D02*
X006265Y001811D01*
X006165Y001811D01*
X006165Y002411D01*
X006265Y002411D01*
X006265Y002511D01*
X007365Y002111D02*
X007367Y002131D01*
X007373Y002149D01*
X007382Y002167D01*
X007394Y002182D01*
X007409Y002194D01*
X007427Y002203D01*
X007445Y002209D01*
X007465Y002211D01*
X007485Y002209D01*
X007503Y002203D01*
X007521Y002194D01*
X007536Y002182D01*
X007548Y002167D01*
X007557Y002149D01*
X007563Y002131D01*
X007565Y002111D01*
X007563Y002091D01*
X007557Y002073D01*
X007548Y002055D01*
X007536Y002040D01*
X007521Y002028D01*
X007503Y002019D01*
X007485Y002013D01*
X007465Y002011D01*
X007445Y002013D01*
X007427Y002019D01*
X007409Y002028D01*
X007394Y002040D01*
X007382Y002055D01*
X007373Y002073D01*
X007367Y002091D01*
X007365Y002111D01*
X006765Y002111D02*
X006767Y002163D01*
X006773Y002215D01*
X006783Y002267D01*
X006796Y002317D01*
X006813Y002367D01*
X006834Y002415D01*
X006859Y002461D01*
X006887Y002505D01*
X006918Y002547D01*
X006952Y002587D01*
X006989Y002624D01*
X007029Y002658D01*
X007071Y002689D01*
X007115Y002717D01*
X007161Y002742D01*
X007209Y002763D01*
X007259Y002780D01*
X007309Y002793D01*
X007361Y002803D01*
X007413Y002809D01*
X007465Y002811D01*
X007517Y002809D01*
X007569Y002803D01*
X007621Y002793D01*
X007671Y002780D01*
X007721Y002763D01*
X007769Y002742D01*
X007815Y002717D01*
X007859Y002689D01*
X007901Y002658D01*
X007941Y002624D01*
X007978Y002587D01*
X008012Y002547D01*
X008043Y002505D01*
X008071Y002461D01*
X008096Y002415D01*
X008117Y002367D01*
X008134Y002317D01*
X008147Y002267D01*
X008157Y002215D01*
X008163Y002163D01*
X008165Y002111D01*
X008163Y002059D01*
X008157Y002007D01*
X008147Y001955D01*
X008134Y001905D01*
X008117Y001855D01*
X008096Y001807D01*
X008071Y001761D01*
X008043Y001717D01*
X008012Y001675D01*
X007978Y001635D01*
X007941Y001598D01*
X007901Y001564D01*
X007859Y001533D01*
X007815Y001505D01*
X007769Y001480D01*
X007721Y001459D01*
X007671Y001442D01*
X007621Y001429D01*
X007569Y001419D01*
X007517Y001413D01*
X007465Y001411D01*
X007413Y001413D01*
X007361Y001419D01*
X007309Y001429D01*
X007259Y001442D01*
X007209Y001459D01*
X007161Y001480D01*
X007115Y001505D01*
X007071Y001533D01*
X007029Y001564D01*
X006989Y001598D01*
X006952Y001635D01*
X006918Y001675D01*
X006887Y001717D01*
X006859Y001761D01*
X006834Y001807D01*
X006813Y001855D01*
X006796Y001905D01*
X006783Y001955D01*
X006773Y002007D01*
X006767Y002059D01*
X006765Y002111D01*
X004876Y001148D02*
X004449Y001148D01*
X004663Y000935D02*
X004663Y001362D01*
X004856Y001637D02*
X004891Y001667D01*
X004924Y001698D01*
X004954Y001733D01*
X004981Y001769D01*
X005005Y001807D01*
X005027Y001847D01*
X005045Y001889D01*
X005061Y001932D01*
X005073Y001976D01*
X005081Y002020D01*
X005086Y002066D01*
X005088Y002111D01*
X005086Y002156D01*
X005081Y002202D01*
X005073Y002246D01*
X005061Y002290D01*
X005045Y002333D01*
X005027Y002375D01*
X005005Y002415D01*
X004981Y002453D01*
X004954Y002489D01*
X004924Y002524D01*
X004891Y002555D01*
X004856Y002585D01*
X003888Y002111D02*
X003890Y002065D01*
X003895Y002019D01*
X003904Y001973D01*
X003916Y001928D01*
X003932Y001885D01*
X003951Y001843D01*
X003974Y001802D01*
X003999Y001763D01*
X004027Y001727D01*
X004058Y001692D01*
X004092Y001660D01*
X004128Y001631D01*
X003888Y002111D02*
X003890Y002158D01*
X003896Y002206D01*
X003905Y002252D01*
X003918Y002298D01*
X003934Y002342D01*
X003954Y002386D01*
X003978Y002427D01*
X004004Y002466D01*
X004034Y002503D01*
X004067Y002538D01*
X004102Y002570D01*
X004139Y002599D01*
X003307Y001861D02*
X003257Y001911D01*
X003257Y003811D01*
X003307Y003861D01*
X003307Y004011D01*
X003305Y004028D01*
X003301Y004045D01*
X003294Y004061D01*
X003284Y004075D01*
X003271Y004088D01*
X003257Y004098D01*
X003241Y004105D01*
X003224Y004109D01*
X003207Y004111D01*
X002507Y004111D02*
X002490Y004109D01*
X002473Y004105D01*
X002457Y004098D01*
X002443Y004088D01*
X002430Y004075D01*
X002420Y004061D01*
X002413Y004045D01*
X002409Y004028D01*
X002407Y004011D01*
X002407Y003861D01*
X002457Y003811D01*
X002457Y001911D01*
X002407Y001861D01*
X002407Y001711D01*
X002409Y001694D01*
X002413Y001677D01*
X002420Y001661D01*
X002430Y001647D01*
X002443Y001634D01*
X002457Y001624D01*
X002473Y001617D01*
X002490Y001613D01*
X002507Y001611D01*
X002244Y001711D02*
X002244Y001861D01*
X002194Y001911D01*
X002194Y003811D01*
X002244Y003861D01*
X002244Y004011D01*
X002242Y004028D01*
X002238Y004045D01*
X002231Y004061D01*
X002221Y004075D01*
X002208Y004088D01*
X002194Y004098D01*
X002178Y004105D01*
X002161Y004109D01*
X002144Y004111D01*
X001444Y004111D02*
X001427Y004109D01*
X001410Y004105D01*
X001394Y004098D01*
X001380Y004088D01*
X001367Y004075D01*
X001357Y004061D01*
X001350Y004045D01*
X001346Y004028D01*
X001344Y004011D01*
X001344Y003861D01*
X001394Y003811D01*
X001394Y001911D01*
X001344Y001861D01*
X001344Y001711D01*
X001346Y001694D01*
X001350Y001677D01*
X001357Y001661D01*
X001367Y001647D01*
X001380Y001634D01*
X001394Y001624D01*
X001410Y001617D01*
X001427Y001613D01*
X001444Y001611D01*
X002144Y001611D02*
X002161Y001613D01*
X002178Y001617D01*
X002194Y001624D01*
X002208Y001634D01*
X002221Y001647D01*
X002231Y001661D01*
X002238Y001677D01*
X002242Y001694D01*
X002244Y001711D01*
X003207Y001611D02*
X003224Y001613D01*
X003241Y001617D01*
X003257Y001624D01*
X003271Y001634D01*
X003284Y001647D01*
X003294Y001661D01*
X003301Y001677D01*
X003305Y001694D01*
X003307Y001711D01*
X003307Y001861D01*
X002731Y005723D02*
X002581Y005723D01*
X002564Y005725D01*
X002547Y005729D01*
X002531Y005736D01*
X002517Y005746D01*
X002504Y005759D01*
X002494Y005773D01*
X002487Y005789D01*
X002483Y005806D01*
X002481Y005823D01*
X002731Y005723D02*
X002781Y005773D01*
X004681Y005773D01*
X004731Y005723D01*
X004881Y005723D01*
X004898Y005725D01*
X004915Y005729D01*
X004931Y005736D01*
X004945Y005746D01*
X004958Y005759D01*
X004968Y005773D01*
X004975Y005789D01*
X004979Y005806D01*
X004981Y005823D01*
X004981Y006523D02*
X004979Y006540D01*
X004975Y006557D01*
X004968Y006573D01*
X004958Y006587D01*
X004945Y006600D01*
X004931Y006610D01*
X004915Y006617D01*
X004898Y006621D01*
X004881Y006623D01*
X004731Y006623D01*
X004681Y006573D01*
X002781Y006573D01*
X002731Y006623D01*
X002581Y006623D01*
X002564Y006621D01*
X002547Y006617D01*
X002531Y006610D01*
X002517Y006600D01*
X002504Y006587D01*
X002494Y006573D01*
X002487Y006557D01*
X002483Y006540D01*
X002481Y006523D01*
X001544Y007498D02*
X001544Y007648D01*
X001394Y007648D01*
X001544Y007648D02*
X001544Y007798D01*
X001544Y007648D02*
X001694Y007648D01*
X000944Y008298D02*
X000946Y008364D01*
X000952Y008429D01*
X000962Y008494D01*
X000975Y008559D01*
X000993Y008622D01*
X001014Y008685D01*
X001039Y008745D01*
X001068Y008805D01*
X001100Y008862D01*
X001135Y008918D01*
X001174Y008971D01*
X001216Y009022D01*
X001260Y009070D01*
X001308Y009115D01*
X001358Y009158D01*
X001411Y009197D01*
X001466Y009234D01*
X001523Y009267D01*
X001582Y009296D01*
X001642Y009322D01*
X001704Y009344D01*
X001767Y009363D01*
X001831Y009377D01*
X001896Y009388D01*
X001962Y009395D01*
X002028Y009398D01*
X002093Y009397D01*
X002159Y009392D01*
X002224Y009383D01*
X002289Y009370D01*
X002352Y009354D01*
X002415Y009334D01*
X002476Y009309D01*
X002536Y009282D01*
X002594Y009251D01*
X002650Y009216D01*
X002704Y009178D01*
X002755Y009137D01*
X002804Y009093D01*
X002850Y009046D01*
X002894Y008997D01*
X002934Y008945D01*
X002971Y008890D01*
X003005Y008834D01*
X003035Y008775D01*
X003062Y008715D01*
X003085Y008654D01*
X003104Y008591D01*
X003120Y008527D01*
X003132Y008462D01*
X003140Y008397D01*
X003144Y008331D01*
X003144Y008265D01*
X003140Y008199D01*
X003132Y008134D01*
X003120Y008069D01*
X003104Y008005D01*
X003085Y007942D01*
X003062Y007881D01*
X003035Y007821D01*
X003005Y007762D01*
X002971Y007706D01*
X002934Y007651D01*
X002894Y007599D01*
X002850Y007550D01*
X002804Y007503D01*
X002755Y007459D01*
X002704Y007418D01*
X002650Y007380D01*
X002594Y007345D01*
X002536Y007314D01*
X002476Y007287D01*
X002415Y007262D01*
X002352Y007242D01*
X002289Y007226D01*
X002224Y007213D01*
X002159Y007204D01*
X002093Y007199D01*
X002028Y007198D01*
X001962Y007201D01*
X001896Y007208D01*
X001831Y007219D01*
X001767Y007233D01*
X001704Y007252D01*
X001642Y007274D01*
X001582Y007300D01*
X001523Y007329D01*
X001466Y007362D01*
X001411Y007399D01*
X001358Y007438D01*
X001308Y007481D01*
X001260Y007526D01*
X001216Y007574D01*
X001174Y007625D01*
X001135Y007678D01*
X001100Y007734D01*
X001068Y007791D01*
X001039Y007851D01*
X001014Y007911D01*
X000993Y007974D01*
X000975Y008037D01*
X000962Y008102D01*
X000952Y008167D01*
X000946Y008232D01*
X000944Y008298D01*
X001257Y011198D02*
X001957Y011198D01*
X001957Y012398D01*
X001257Y012398D01*
X001257Y011198D01*
X001607Y011598D02*
X001607Y011748D01*
X001807Y011748D01*
X001607Y011748D02*
X001807Y012148D01*
X001407Y012148D01*
X001607Y011748D01*
X001407Y011748D01*
X001607Y011748D02*
X001607Y012298D01*
X010412Y003730D02*
X010412Y003180D01*
X014412Y003180D01*
X014412Y001480D01*
X010412Y001480D01*
X010412Y003180D01*
X010412Y003730D02*
X014412Y003730D01*
X014412Y003180D01*
X014612Y001530D02*
X014412Y001480D01*
X014412Y001130D01*
X014412Y000780D01*
X010412Y000780D01*
X010412Y001480D01*
X011222Y001130D02*
X011224Y001158D01*
X011230Y001185D01*
X011239Y001211D01*
X011252Y001236D01*
X011269Y001259D01*
X011288Y001279D01*
X011310Y001296D01*
X011334Y001310D01*
X011360Y001320D01*
X011387Y001327D01*
X011415Y001330D01*
X011443Y001329D01*
X011470Y001324D01*
X011497Y001315D01*
X011522Y001303D01*
X011545Y001288D01*
X011566Y001269D01*
X011584Y001248D01*
X011599Y001224D01*
X011610Y001198D01*
X011618Y001172D01*
X011622Y001144D01*
X011622Y001116D01*
X011618Y001088D01*
X011610Y001062D01*
X011599Y001036D01*
X011584Y001012D01*
X011566Y000991D01*
X011545Y000972D01*
X011522Y000957D01*
X011497Y000945D01*
X011470Y000936D01*
X011443Y000931D01*
X011415Y000930D01*
X011387Y000933D01*
X011360Y000940D01*
X011334Y000950D01*
X011310Y000964D01*
X011288Y000981D01*
X011269Y001001D01*
X011252Y001024D01*
X011239Y001049D01*
X011230Y001075D01*
X011224Y001102D01*
X011222Y001130D01*
X013202Y001130D02*
X013204Y001158D01*
X013210Y001185D01*
X013219Y001211D01*
X013232Y001236D01*
X013249Y001259D01*
X013268Y001279D01*
X013290Y001296D01*
X013314Y001310D01*
X013340Y001320D01*
X013367Y001327D01*
X013395Y001330D01*
X013423Y001329D01*
X013450Y001324D01*
X013477Y001315D01*
X013502Y001303D01*
X013525Y001288D01*
X013546Y001269D01*
X013564Y001248D01*
X013579Y001224D01*
X013590Y001198D01*
X013598Y001172D01*
X013602Y001144D01*
X013602Y001116D01*
X013598Y001088D01*
X013590Y001062D01*
X013579Y001036D01*
X013564Y001012D01*
X013546Y000991D01*
X013525Y000972D01*
X013502Y000957D01*
X013477Y000945D01*
X013450Y000936D01*
X013423Y000931D01*
X013395Y000930D01*
X013367Y000933D01*
X013340Y000940D01*
X013314Y000950D01*
X013290Y000964D01*
X013268Y000981D01*
X013249Y001001D01*
X013232Y001024D01*
X013219Y001049D01*
X013210Y001075D01*
X013204Y001102D01*
X013202Y001130D01*
X014412Y001130D02*
X014612Y001080D01*
X014612Y001530D01*
D12*
X012041Y006814D02*
X012041Y007104D01*
X012041Y006959D02*
X011848Y006959D01*
X011746Y006959D02*
X011746Y006814D01*
X011650Y006814D02*
X011650Y006959D01*
X011698Y007008D01*
X011746Y006959D01*
X011650Y006959D02*
X011601Y007008D01*
X011553Y007008D01*
X011553Y006814D01*
X011452Y006863D02*
X011403Y006814D01*
X011307Y006814D01*
X011258Y006863D01*
X011452Y007056D01*
X011452Y006863D01*
X011452Y007056D02*
X011403Y007104D01*
X011307Y007104D01*
X011258Y007056D01*
X011258Y006863D01*
X011157Y006863D02*
X011109Y006814D01*
X011012Y006814D01*
X010964Y006863D01*
X010964Y006959D02*
X011060Y007008D01*
X011109Y007008D01*
X011157Y006959D01*
X011157Y006863D01*
X010964Y006959D02*
X010964Y007104D01*
X011157Y007104D01*
X010862Y006814D02*
X010669Y006814D01*
X010766Y006814D02*
X010766Y007104D01*
X010669Y007008D01*
X009854Y008288D02*
X009854Y008482D01*
X009854Y008385D02*
X009564Y008385D01*
X009661Y008288D01*
X009612Y008583D02*
X009564Y008631D01*
X009564Y008728D01*
X009612Y008776D01*
X009806Y008583D01*
X009854Y008631D01*
X009854Y008728D01*
X009806Y008776D01*
X009612Y008776D01*
X009612Y008878D02*
X009564Y008926D01*
X009564Y009023D01*
X009612Y009071D01*
X009806Y008878D01*
X009854Y008926D01*
X009854Y009023D01*
X009806Y009071D01*
X009612Y009071D01*
X009709Y009221D02*
X009806Y009221D01*
X009903Y009221D01*
X009951Y009172D01*
X009854Y009269D02*
X009854Y009317D01*
X009806Y009366D01*
X009709Y009366D01*
X009806Y009221D02*
X009854Y009269D01*
X009806Y008878D02*
X009612Y008878D01*
X009612Y008583D02*
X009806Y008583D01*
X008964Y006816D02*
X009013Y006767D01*
X009013Y006622D01*
X009109Y006622D02*
X008819Y006622D01*
X008819Y006767D01*
X008868Y006816D01*
X008964Y006816D01*
X008964Y006521D02*
X008771Y006521D01*
X008964Y006327D01*
X009013Y006376D01*
X009013Y006473D01*
X008964Y006521D01*
X008771Y006521D02*
X008723Y006473D01*
X008723Y006376D01*
X008771Y006327D01*
X008964Y006327D01*
X008771Y006226D02*
X008964Y006033D01*
X009013Y006033D01*
X009013Y005883D02*
X008723Y005883D01*
X008868Y005738D01*
X008868Y005932D01*
X008723Y006033D02*
X008723Y006226D01*
X008771Y006226D01*
X008792Y004571D02*
X008889Y004571D01*
X008937Y004522D01*
X008937Y004474D01*
X008889Y004426D01*
X008792Y004426D01*
X008744Y004474D01*
X008744Y004522D01*
X008792Y004571D01*
X008792Y004426D02*
X008744Y004377D01*
X008744Y004329D01*
X008792Y004281D01*
X008889Y004281D01*
X008937Y004329D01*
X008937Y004377D01*
X008889Y004426D01*
X008642Y004426D02*
X008449Y004426D01*
X008594Y004571D01*
X008594Y004281D01*
X008348Y004281D02*
X008154Y004281D01*
X008251Y004281D02*
X008251Y004571D01*
X008154Y004474D01*
X008053Y004426D02*
X007860Y004426D01*
X008005Y004571D01*
X008005Y004281D01*
X007759Y004281D02*
X007759Y004571D01*
X007565Y004571D02*
X007565Y004281D01*
X007464Y004281D02*
X007270Y004281D01*
X007367Y004281D02*
X007367Y004571D01*
X007270Y004474D01*
X007565Y004571D02*
X007759Y004281D01*
X007556Y005863D02*
X007362Y005863D01*
X007314Y005912D01*
X007314Y006008D01*
X007362Y006057D01*
X007459Y006158D02*
X007362Y006255D01*
X007314Y006351D01*
X007459Y006303D02*
X007459Y006158D01*
X007556Y006158D01*
X007604Y006206D01*
X007604Y006303D01*
X007556Y006351D01*
X007507Y006351D01*
X007459Y006303D01*
X007556Y006057D02*
X007604Y006008D01*
X007604Y005912D01*
X007556Y005863D01*
X006715Y005545D02*
X006522Y005545D01*
X006618Y005545D02*
X006618Y005835D01*
X006522Y005739D01*
X006421Y005545D02*
X006227Y005545D01*
X006227Y005835D01*
X006281Y007910D02*
X006281Y008104D01*
X006184Y008200D01*
X006087Y008104D01*
X006087Y007910D01*
X005986Y007958D02*
X005938Y007910D01*
X005841Y007910D01*
X005793Y007958D01*
X005691Y007958D02*
X005691Y008007D01*
X005643Y008055D01*
X005498Y008055D01*
X005498Y007958D01*
X005546Y007910D01*
X005643Y007910D01*
X005691Y007958D01*
X005595Y008152D02*
X005498Y008055D01*
X005595Y008152D02*
X005691Y008200D01*
X005793Y008152D02*
X005841Y008200D01*
X005938Y008200D01*
X005986Y008152D01*
X005986Y008104D01*
X005938Y008055D01*
X005986Y008007D01*
X005986Y007958D01*
X005938Y008055D02*
X005889Y008055D01*
X006087Y008055D02*
X006281Y008055D01*
X006382Y008007D02*
X006527Y008007D01*
X006575Y008055D01*
X006575Y008152D01*
X006527Y008200D01*
X006382Y008200D01*
X006382Y007910D01*
X005397Y007958D02*
X005348Y007910D01*
X005252Y007910D01*
X005203Y007958D01*
X005397Y008152D01*
X005397Y007958D01*
X005203Y007958D02*
X005203Y008152D01*
X005252Y008200D01*
X005348Y008200D01*
X005397Y008152D01*
X005102Y008055D02*
X004909Y008055D01*
X005054Y008200D01*
X005054Y007910D01*
X004807Y007958D02*
X004759Y007910D01*
X004662Y007910D01*
X004614Y007958D01*
X004513Y007958D02*
X004464Y007910D01*
X004368Y007910D01*
X004319Y007958D01*
X004319Y008152D01*
X004368Y008200D01*
X004464Y008200D01*
X004513Y008152D01*
X004614Y008152D02*
X004662Y008200D01*
X004759Y008200D01*
X004807Y008152D01*
X004807Y008104D01*
X004759Y008055D01*
X004807Y008007D01*
X004807Y007958D01*
X004759Y008055D02*
X004711Y008055D01*
X004218Y008200D02*
X004218Y007910D01*
X004025Y007910D02*
X004025Y008200D01*
X004121Y008104D01*
X004218Y008200D01*
X003013Y008672D02*
X002965Y008721D01*
X002868Y008721D01*
X002917Y008769D01*
X002917Y008817D01*
X002868Y008866D01*
X002772Y008866D01*
X002772Y008721D02*
X002868Y008721D01*
X002868Y008571D02*
X002675Y008571D01*
X002868Y008378D01*
X002917Y008426D01*
X002917Y008523D01*
X002868Y008571D01*
X002675Y008571D02*
X002626Y008523D01*
X002626Y008426D01*
X002675Y008378D01*
X002868Y008378D01*
X002868Y008276D02*
X002917Y008228D01*
X002917Y008131D01*
X002868Y008083D01*
X002675Y008276D01*
X002868Y008276D01*
X002868Y008083D02*
X002675Y008083D01*
X002626Y008131D01*
X002626Y008228D01*
X002675Y008276D01*
X002626Y007885D02*
X002917Y007885D01*
X002917Y007788D02*
X002917Y007982D01*
X002723Y007788D02*
X002626Y007885D01*
X001707Y006316D02*
X001707Y006026D01*
X001611Y006026D02*
X001804Y006026D01*
X001611Y006219D02*
X001707Y006316D01*
X001510Y006267D02*
X001510Y006171D01*
X001461Y006122D01*
X001316Y006122D01*
X001316Y006026D02*
X001316Y006316D01*
X001461Y006316D01*
X001510Y006267D01*
X001413Y006122D02*
X001510Y006026D01*
X001374Y006692D02*
X001180Y006692D01*
X001132Y006741D01*
X001132Y006838D01*
X001180Y006886D01*
X001180Y006987D02*
X001132Y007035D01*
X001132Y007132D01*
X001180Y007181D01*
X001229Y007181D01*
X001277Y007132D01*
X001325Y007181D01*
X001374Y007181D01*
X001422Y007132D01*
X001422Y007035D01*
X001374Y006987D01*
X001374Y006886D02*
X001422Y006838D01*
X001422Y006741D01*
X001374Y006692D01*
X001277Y007084D02*
X001277Y007132D01*
X002101Y009932D02*
X002101Y010077D01*
X002150Y010126D01*
X002343Y010126D01*
X002392Y010077D01*
X002392Y009932D01*
X002101Y009932D01*
X002198Y010227D02*
X002101Y010323D01*
X002392Y010323D01*
X002392Y010227D02*
X002392Y010420D01*
X002371Y011027D02*
X002371Y011172D01*
X002420Y011220D01*
X002468Y011220D01*
X002517Y011172D01*
X002517Y011027D01*
X002226Y011027D01*
X002226Y011172D01*
X002275Y011220D01*
X002323Y011220D01*
X002371Y011172D01*
X002371Y011321D02*
X002371Y011515D01*
X002323Y011515D02*
X002517Y011515D01*
X002517Y011321D02*
X002323Y011321D01*
X002226Y011418D01*
X002323Y011515D01*
X002226Y011616D02*
X002226Y011810D01*
X002226Y011713D02*
X002517Y011713D01*
X002371Y011911D02*
X002371Y012104D01*
X002371Y012205D02*
X002371Y012351D01*
X002420Y012399D01*
X002468Y012399D01*
X002517Y012351D01*
X002517Y012254D01*
X002468Y012205D01*
X002371Y012205D01*
X002275Y012302D01*
X002226Y012399D01*
X002226Y012056D02*
X002371Y011911D01*
X002517Y012056D02*
X002226Y012056D01*
X002459Y013112D02*
X002362Y013209D01*
X002652Y013209D01*
X002652Y013305D02*
X002652Y013112D01*
X002604Y013407D02*
X002410Y013407D01*
X002362Y013455D01*
X002362Y013552D01*
X002410Y013600D01*
X002604Y013407D01*
X002652Y013455D01*
X002652Y013552D01*
X002604Y013600D01*
X002410Y013600D01*
X002410Y013701D02*
X002362Y013750D01*
X002362Y013846D01*
X002410Y013895D01*
X002604Y013701D01*
X002652Y013750D01*
X002652Y013846D01*
X002604Y013895D01*
X002410Y013895D01*
X002459Y013996D02*
X002459Y014141D01*
X002507Y014189D01*
X002652Y014189D01*
X002652Y013996D02*
X002459Y013996D01*
X002410Y013701D02*
X002604Y013701D01*
X002947Y014324D02*
X003141Y014324D01*
X003189Y014372D01*
X003189Y014469D01*
X003141Y014517D01*
X003189Y014618D02*
X002995Y014812D01*
X002947Y014812D01*
X002899Y014763D01*
X002899Y014667D01*
X002947Y014618D01*
X002947Y014517D02*
X002899Y014469D01*
X002899Y014372D01*
X002947Y014324D01*
X003189Y014618D02*
X003189Y014812D01*
X004464Y014807D02*
X004526Y014745D01*
X004835Y014745D01*
X004835Y014561D02*
X004835Y014499D01*
X004773Y014499D01*
X004773Y014561D01*
X004835Y014561D01*
X004773Y014378D02*
X004588Y014378D01*
X004773Y014378D02*
X004835Y014316D01*
X004773Y014254D01*
X004835Y014193D01*
X004773Y014131D01*
X004588Y014131D01*
X004588Y014010D02*
X004773Y014010D01*
X004835Y013948D01*
X004773Y013886D01*
X004835Y013824D01*
X004773Y013763D01*
X004588Y013763D01*
X004588Y013641D02*
X004773Y013641D01*
X004835Y013580D01*
X004773Y013518D01*
X004835Y013456D01*
X004773Y013394D01*
X004588Y013394D01*
X004650Y014684D02*
X004650Y014807D01*
X004711Y014929D02*
X004588Y015052D01*
X004588Y015114D01*
X004650Y015236D02*
X004588Y015298D01*
X004588Y015421D01*
X004650Y015483D01*
X004711Y015483D01*
X004711Y015236D01*
X004650Y015236D02*
X004773Y015236D01*
X004835Y015298D01*
X004835Y015421D01*
X004773Y015604D02*
X004650Y015604D01*
X004588Y015666D01*
X004588Y015789D01*
X004650Y015851D01*
X004711Y015851D01*
X004711Y015604D01*
X004773Y015604D02*
X004835Y015666D01*
X004835Y015789D01*
X004835Y015973D02*
X004835Y016158D01*
X004773Y016219D01*
X004650Y016219D01*
X004588Y016158D01*
X004588Y015973D01*
X004464Y015973D02*
X004835Y015973D01*
X004773Y016341D02*
X004588Y016341D01*
X004773Y016341D02*
X004835Y016403D01*
X004835Y016588D01*
X004588Y016588D01*
X004650Y016709D02*
X004588Y016771D01*
X004588Y016956D01*
X004711Y016894D02*
X004711Y016771D01*
X004650Y016709D01*
X004835Y016709D02*
X004835Y016894D01*
X004773Y016956D01*
X004711Y016894D01*
X004773Y017077D02*
X004773Y017139D01*
X004835Y017139D01*
X004835Y017077D01*
X004773Y017077D01*
X004773Y017262D02*
X004650Y017262D01*
X004588Y017323D01*
X004588Y017447D01*
X004650Y017508D01*
X004773Y017508D01*
X004835Y017447D01*
X004835Y017323D01*
X004773Y017262D01*
X004711Y017630D02*
X004588Y017753D01*
X004588Y017815D01*
X004650Y017937D02*
X004773Y017937D01*
X004835Y017998D01*
X004835Y018184D01*
X004896Y018184D02*
X004588Y018184D01*
X004588Y017998D01*
X004650Y017937D01*
X004588Y017630D02*
X004835Y017630D01*
X004958Y018060D02*
X004958Y018122D01*
X004896Y018184D01*
X004959Y021247D02*
X004959Y021392D01*
X004910Y021440D01*
X004814Y021440D01*
X004765Y021392D01*
X004765Y021247D01*
X005055Y021247D01*
X004959Y021344D02*
X005055Y021440D01*
X005055Y021541D02*
X005055Y021735D01*
X005055Y021638D02*
X004765Y021638D01*
X004862Y021541D01*
X004765Y021836D02*
X004765Y022030D01*
X004814Y022030D01*
X005007Y021836D01*
X005055Y021836D01*
X002334Y023631D02*
X002044Y023631D01*
X002044Y023776D01*
X002092Y023824D01*
X002189Y023824D01*
X002237Y023776D01*
X002237Y023631D01*
X002237Y023727D02*
X002334Y023824D01*
X002334Y023925D02*
X002334Y024119D01*
X002334Y024022D02*
X002044Y024022D01*
X002140Y023925D01*
X002189Y024220D02*
X002189Y024413D01*
X002334Y024365D02*
X002044Y024365D01*
X002189Y024220D01*
X001275Y021445D02*
X001082Y021445D01*
X001033Y021397D01*
X001033Y021252D01*
X001323Y021252D01*
X001323Y021397D01*
X001275Y021445D01*
X001323Y021151D02*
X001033Y021151D01*
X001033Y020957D02*
X001323Y021151D01*
X001323Y020957D02*
X001033Y020957D01*
X001082Y020856D02*
X001033Y020808D01*
X001033Y020711D01*
X001082Y020663D01*
X001275Y020663D01*
X001323Y020711D01*
X001323Y020808D01*
X001275Y020856D01*
X001178Y020856D01*
X001178Y020759D01*
X001199Y018817D02*
X001150Y018769D01*
X001150Y018720D01*
X001150Y018769D02*
X001102Y018817D01*
X001054Y018817D01*
X001005Y018769D01*
X001005Y018672D01*
X001054Y018624D01*
X001054Y018522D02*
X001150Y018522D01*
X001199Y018474D01*
X001199Y018329D01*
X001295Y018329D02*
X001005Y018329D01*
X001005Y018474D01*
X001054Y018522D01*
X001247Y018624D02*
X001295Y018672D01*
X001295Y018769D01*
X001247Y018817D01*
X001199Y018817D01*
X001005Y018228D02*
X001005Y018131D01*
X001005Y018179D02*
X001247Y018179D01*
X001295Y018131D01*
X001295Y018083D01*
X001247Y018034D01*
X001282Y016304D02*
X001330Y016256D01*
X001330Y016159D01*
X001282Y016111D01*
X001089Y016111D01*
X001040Y016159D01*
X001040Y016256D01*
X001089Y016304D01*
X001089Y016010D02*
X001040Y015961D01*
X001040Y015864D01*
X001089Y015816D01*
X001282Y015816D01*
X001330Y015864D01*
X001330Y015961D01*
X001282Y016010D01*
X001234Y015715D02*
X001040Y015715D01*
X001040Y015521D02*
X001234Y015521D01*
X001330Y015618D01*
X001234Y015715D01*
X004588Y014929D02*
X004835Y014929D01*
X007833Y010724D02*
X007833Y010530D01*
X007978Y010530D01*
X007929Y010627D01*
X007929Y010675D01*
X007978Y010724D01*
X008075Y010724D01*
X008123Y010675D01*
X008123Y010578D01*
X008075Y010530D01*
X008075Y010429D02*
X008123Y010381D01*
X008123Y010284D01*
X008075Y010235D01*
X007881Y010235D01*
X007833Y010284D01*
X007833Y010381D01*
X007881Y010429D01*
X011734Y010353D02*
X011734Y010257D01*
X011782Y010208D01*
X011976Y010208D01*
X012024Y010257D01*
X012024Y010353D01*
X011976Y010402D01*
X012024Y010503D02*
X012024Y010696D01*
X012024Y010600D02*
X011734Y010600D01*
X011831Y010503D01*
X011782Y010402D02*
X011734Y010353D01*
X011782Y010798D02*
X011734Y010846D01*
X011734Y010943D01*
X011782Y010991D01*
X011976Y010798D01*
X012024Y010846D01*
X012024Y010943D01*
X011976Y010991D01*
X011782Y010991D01*
X011782Y010798D02*
X011976Y010798D01*
X011939Y009184D02*
X011745Y009184D01*
X011697Y009136D01*
X011697Y009039D01*
X011745Y008991D01*
X011794Y008991D01*
X011842Y009039D01*
X011842Y009184D01*
X011939Y009184D02*
X011987Y009136D01*
X011987Y009039D01*
X011939Y008991D01*
X011939Y008890D02*
X011987Y008841D01*
X011987Y008744D01*
X011939Y008696D01*
X011745Y008696D01*
X011697Y008744D01*
X011697Y008841D01*
X011745Y008890D01*
X011848Y007104D02*
X011848Y006814D01*
X009985Y004322D02*
X009985Y004128D01*
X009791Y004322D01*
X009743Y004322D01*
X009694Y004273D01*
X009694Y004176D01*
X009743Y004128D01*
X009985Y004027D02*
X009985Y003834D01*
X009694Y003834D01*
X006445Y003132D02*
X006252Y003132D01*
X006397Y003277D01*
X006397Y002987D01*
X006151Y003035D02*
X006151Y003229D01*
X006102Y003277D01*
X005957Y003277D01*
X005957Y002987D01*
X006102Y002987D01*
X006151Y003035D01*
X005921Y002366D02*
X005921Y002076D01*
X005825Y002076D02*
X006018Y002076D01*
X005825Y002269D02*
X005921Y002366D01*
X005724Y002318D02*
X005675Y002366D01*
X005578Y002366D01*
X005530Y002318D01*
X005530Y002269D01*
X005578Y002221D01*
X005675Y002221D01*
X005724Y002172D01*
X005724Y002124D01*
X005675Y002076D01*
X005578Y002076D01*
X005530Y002124D01*
X004464Y002968D02*
X004271Y002968D01*
X004368Y002968D02*
X004368Y003258D01*
X004271Y003162D01*
X004170Y003210D02*
X004121Y003258D01*
X003976Y003258D01*
X003976Y002968D01*
X004121Y002968D01*
X004170Y003016D01*
X004170Y003210D01*
X003875Y003258D02*
X003682Y003258D01*
X003682Y002968D01*
X003875Y002968D01*
X003778Y003113D02*
X003682Y003113D01*
X003580Y002968D02*
X003387Y002968D01*
X003387Y003258D01*
X003392Y001665D02*
X003586Y001472D01*
X003634Y001520D01*
X003634Y001617D01*
X003586Y001665D01*
X003392Y001665D01*
X003344Y001617D01*
X003344Y001520D01*
X003392Y001472D01*
X003586Y001472D01*
X003634Y001371D02*
X003634Y001177D01*
X003634Y001274D02*
X003344Y001274D01*
X003441Y001177D01*
X003489Y001076D02*
X003537Y001028D01*
X003537Y000883D01*
X003537Y000979D02*
X003634Y001076D01*
X003489Y001076D02*
X003392Y001076D01*
X003344Y001028D01*
X003344Y000883D01*
X003634Y000883D01*
X001329Y001015D02*
X001039Y001015D01*
X001039Y001160D01*
X001087Y001208D01*
X001184Y001208D01*
X001233Y001160D01*
X001233Y001015D01*
X001233Y001111D02*
X001329Y001208D01*
X001329Y001309D02*
X001136Y001503D01*
X001087Y001503D01*
X001039Y001454D01*
X001039Y001358D01*
X001087Y001309D01*
X001329Y001309D02*
X001329Y001503D01*
X009163Y020588D02*
X009356Y020588D01*
X009260Y020588D02*
X009260Y020879D01*
X009163Y020782D01*
X009458Y020879D02*
X009458Y020588D01*
X009458Y020685D02*
X009603Y020782D01*
X009458Y020685D02*
X009603Y020588D01*
X009770Y021498D02*
X009873Y021600D01*
X009873Y021669D01*
X009770Y021771D01*
X009633Y021635D01*
X009596Y021740D02*
X009528Y021740D01*
X009459Y021809D01*
X009459Y021877D01*
X009733Y021877D01*
X009596Y021740D01*
X009459Y021877D02*
X009596Y022014D01*
X009664Y022014D01*
X009733Y021946D01*
X009733Y021877D01*
X009353Y021914D02*
X009217Y022051D01*
X009285Y021983D02*
X009490Y022188D01*
X009353Y022188D01*
X011033Y021820D02*
X011033Y021752D01*
X011101Y021683D01*
X011170Y021683D01*
X011207Y021578D02*
X011344Y021441D01*
X011275Y021509D02*
X011481Y021714D01*
X011344Y021714D01*
X011307Y021820D02*
X011307Y021889D01*
X011238Y021957D01*
X011170Y021957D01*
X011033Y021820D01*
X011415Y021369D02*
X011552Y021233D01*
X011484Y021301D02*
X011689Y021506D01*
X011552Y021506D01*
D13*
X005942Y017600D02*
X005942Y017180D01*
X005522Y017600D01*
X005417Y017600D01*
X005312Y017495D01*
X005312Y017285D01*
X005417Y017180D01*
X005417Y016956D02*
X005312Y016850D01*
X005312Y016640D01*
X005417Y016535D01*
X005417Y016311D02*
X005312Y016206D01*
X005312Y015996D01*
X005417Y015891D01*
X005522Y015891D01*
X005627Y015996D01*
X005627Y016311D01*
X005837Y016311D02*
X005417Y016311D01*
X005942Y016535D02*
X005522Y016956D01*
X005417Y016956D01*
X005837Y016311D02*
X005942Y016206D01*
X005942Y015996D01*
X005837Y015891D01*
X005837Y015666D02*
X005942Y015561D01*
X005942Y015351D01*
X005837Y015246D01*
X005417Y015246D01*
X005312Y015351D01*
X005312Y015561D01*
X005417Y015666D01*
X005417Y015022D02*
X005627Y015022D01*
X005732Y014917D01*
X005732Y014602D01*
X005942Y014602D02*
X005312Y014602D01*
X005312Y014917D01*
X005417Y015022D01*
X005942Y014377D02*
X005942Y013957D01*
X005312Y013957D01*
X005417Y013733D02*
X005312Y013628D01*
X005312Y013418D01*
X005417Y013313D01*
X005522Y013313D01*
X005627Y013418D01*
X005627Y013733D01*
X005837Y013733D02*
X005417Y013733D01*
X005417Y013088D02*
X005522Y013088D01*
X005627Y012983D01*
X005627Y012773D01*
X005522Y012668D01*
X005417Y012668D01*
X005312Y012773D01*
X005312Y012983D01*
X005417Y013088D01*
X005627Y012983D02*
X005732Y013088D01*
X005837Y013088D01*
X005942Y012983D01*
X005942Y012773D01*
X005837Y012668D01*
X005732Y012668D01*
X005627Y012773D01*
X005837Y013313D02*
X005942Y013418D01*
X005942Y013628D01*
X005837Y013733D01*
X005942Y016535D02*
X005942Y016956D01*
X009260Y001491D02*
X009680Y000860D01*
X009905Y000860D02*
X010325Y000860D01*
X010115Y000860D02*
X010115Y001491D01*
X009905Y001280D01*
X009680Y001491D02*
X009260Y000860D01*
D14*
X007965Y000911D02*
X007965Y001011D01*
X006965Y001011D01*
X006965Y000911D01*
X007015Y003211D02*
X007015Y003311D01*
X007015Y003211D02*
X007965Y003211D01*
X007965Y003311D01*
X007945Y011460D02*
X007908Y011496D01*
X007908Y011570D01*
X007945Y011606D01*
X007982Y011606D01*
X008018Y011570D01*
X008055Y011606D01*
X008092Y011606D01*
X008128Y011570D01*
X008128Y011496D01*
X008092Y011460D01*
X008018Y011533D02*
X008018Y011570D01*
X007945Y011681D02*
X007908Y011717D01*
X007908Y011791D01*
X007945Y011827D01*
X007982Y011827D01*
X008018Y011791D01*
X008055Y011827D01*
X008092Y011827D01*
X008128Y011791D01*
X008128Y011717D01*
X008092Y011681D01*
X008018Y011754D02*
X008018Y011791D01*
X007982Y011902D02*
X007982Y012012D01*
X008018Y012048D01*
X008092Y012048D01*
X008128Y012012D01*
X008128Y011902D01*
X008202Y011902D02*
X007982Y011902D01*
X007447Y012483D02*
X007484Y012520D01*
X007484Y012593D01*
X007447Y012630D01*
X007447Y012704D02*
X007411Y012704D01*
X007374Y012741D01*
X007374Y012814D01*
X007411Y012851D01*
X007447Y012851D01*
X007484Y012814D01*
X007484Y012741D01*
X007447Y012704D01*
X007374Y012741D02*
X007337Y012704D01*
X007301Y012704D01*
X007264Y012741D01*
X007264Y012814D01*
X007301Y012851D01*
X007337Y012851D01*
X007374Y012814D01*
X007301Y012630D02*
X007264Y012593D01*
X007264Y012520D01*
X007301Y012483D01*
X007447Y012483D01*
X007475Y014441D02*
X007328Y014441D01*
X007292Y014478D01*
X007292Y014551D01*
X007328Y014588D01*
X007292Y014662D02*
X007292Y014809D01*
X007328Y014809D01*
X007475Y014662D01*
X007512Y014662D01*
X007475Y014588D02*
X007512Y014551D01*
X007512Y014478D01*
X007475Y014441D01*
X007645Y015936D02*
X007608Y015973D01*
X007608Y016046D01*
X007645Y016083D01*
X007682Y016083D01*
X007718Y016046D01*
X007755Y016083D01*
X007792Y016083D01*
X007829Y016046D01*
X007829Y015973D01*
X007792Y015936D01*
X007718Y016010D02*
X007718Y016046D01*
X007645Y016157D02*
X007608Y016194D01*
X007608Y016267D01*
X007645Y016304D01*
X007682Y016304D01*
X007718Y016267D01*
X007755Y016304D01*
X007792Y016304D01*
X007829Y016267D01*
X007829Y016194D01*
X007792Y016157D01*
X007718Y016231D02*
X007718Y016267D01*
X007682Y016378D02*
X007682Y016488D01*
X007718Y016525D01*
X007792Y016525D01*
X007829Y016488D01*
X007829Y016378D01*
X007902Y016378D02*
X007682Y016378D01*
X008347Y018616D02*
X008493Y018616D01*
X008420Y018616D02*
X008420Y018836D01*
X008347Y018763D01*
X008379Y018956D02*
X008306Y018956D01*
X008269Y018993D01*
X008269Y019066D02*
X008343Y019103D01*
X008379Y019103D01*
X008416Y019066D01*
X008416Y018993D01*
X008379Y018956D01*
X008490Y018993D02*
X008527Y018956D01*
X008600Y018956D01*
X008637Y018993D01*
X008637Y019066D01*
X008600Y019103D01*
X008564Y019103D01*
X008490Y019066D01*
X008490Y019177D01*
X008637Y019177D01*
X008711Y019177D02*
X008858Y019177D01*
X008858Y019140D01*
X008711Y018993D01*
X008711Y018956D01*
X008678Y018836D02*
X008714Y018799D01*
X008568Y018652D01*
X008604Y018616D01*
X008678Y018616D01*
X008714Y018652D01*
X008714Y018799D01*
X008678Y018836D02*
X008604Y018836D01*
X008568Y018799D01*
X008568Y018652D01*
X008789Y018652D02*
X008789Y018799D01*
X008825Y018836D01*
X008899Y018836D01*
X008935Y018799D01*
X008789Y018652D01*
X008825Y018616D01*
X008899Y018616D01*
X008935Y018652D01*
X008935Y018799D01*
X009010Y018836D02*
X009010Y018616D01*
X009010Y018689D02*
X009120Y018763D01*
X009010Y018689D02*
X009120Y018616D01*
X009292Y018385D02*
X009402Y018385D01*
X009438Y018348D01*
X009438Y018275D01*
X009402Y018238D01*
X009292Y018238D01*
X009365Y018238D02*
X009438Y018164D01*
X009513Y018201D02*
X009513Y018275D01*
X009623Y018275D01*
X009659Y018238D01*
X009659Y018201D01*
X009623Y018164D01*
X009549Y018164D01*
X009513Y018201D01*
X009513Y018275D02*
X009586Y018348D01*
X009659Y018385D01*
X009995Y018308D02*
X009995Y018088D01*
X009995Y018161D02*
X010105Y018161D01*
X010142Y018198D01*
X010142Y018271D01*
X010105Y018308D01*
X009995Y018308D01*
X010069Y018161D02*
X010142Y018088D01*
X010216Y018088D02*
X010363Y018088D01*
X010290Y018088D02*
X010290Y018308D01*
X010216Y018234D01*
X010437Y018234D02*
X010511Y018308D01*
X010511Y018088D01*
X010584Y018088D02*
X010437Y018088D01*
X010795Y018057D02*
X010868Y018130D01*
X010868Y017910D01*
X010795Y017910D02*
X010941Y017910D01*
X011016Y017910D02*
X011016Y018130D01*
X011126Y018057D02*
X011016Y017983D01*
X011126Y017910D01*
X010942Y018671D02*
X010796Y018671D01*
X010759Y018708D01*
X010759Y018781D01*
X010796Y018818D01*
X010942Y018818D01*
X010979Y018781D01*
X010979Y018708D01*
X010942Y018671D01*
X010906Y018745D02*
X010979Y018818D01*
X010942Y018892D02*
X010979Y018929D01*
X010979Y019002D01*
X010942Y019039D01*
X010906Y019039D01*
X010869Y019002D01*
X010869Y018966D01*
X010869Y019002D02*
X010832Y019039D01*
X010796Y019039D01*
X010759Y019002D01*
X010759Y018929D01*
X010796Y018892D01*
X010008Y018915D02*
X010008Y018805D01*
X009788Y018805D01*
X009788Y018915D01*
X009824Y018952D01*
X009861Y018952D01*
X009898Y018915D01*
X009898Y018805D01*
X009898Y018915D02*
X009934Y018952D01*
X009971Y018952D01*
X010008Y018915D01*
X009971Y019026D02*
X010008Y019063D01*
X010008Y019136D01*
X009971Y019173D01*
X009971Y019247D02*
X010008Y019284D01*
X010008Y019357D01*
X009971Y019394D01*
X009934Y019394D01*
X009898Y019357D01*
X009898Y019247D01*
X009971Y019247D01*
X009898Y019247D02*
X009824Y019321D01*
X009788Y019394D01*
X009898Y019468D02*
X009788Y019578D01*
X010008Y019578D01*
X009898Y019615D02*
X009898Y019468D01*
X009971Y019689D02*
X009824Y019836D01*
X009971Y019836D01*
X010008Y019799D01*
X010008Y019726D01*
X009971Y019689D01*
X009824Y019689D01*
X009788Y019726D01*
X009788Y019799D01*
X009824Y019836D01*
X009824Y019173D02*
X009788Y019136D01*
X009788Y019063D01*
X009824Y019026D01*
X009971Y019026D01*
X009292Y018385D02*
X009292Y018164D01*
X009359Y017515D02*
X009396Y017515D01*
X009542Y017368D01*
X009579Y017368D01*
X009579Y017257D02*
X009359Y017257D01*
X009469Y017147D01*
X009469Y017294D01*
X009359Y017368D02*
X009359Y017515D01*
X009359Y017073D02*
X009359Y016926D01*
X009469Y016926D01*
X009432Y016999D01*
X009432Y017036D01*
X009469Y017073D01*
X009542Y017073D01*
X009579Y017036D01*
X009579Y016963D01*
X009542Y016926D01*
X009542Y016852D02*
X009579Y016815D01*
X009579Y016742D01*
X009542Y016705D01*
X009396Y016705D01*
X009359Y016742D01*
X009359Y016815D01*
X009396Y016852D01*
X009396Y016631D02*
X009432Y016631D01*
X009469Y016594D01*
X009469Y016484D01*
X009579Y016484D02*
X009359Y016484D01*
X009359Y016594D01*
X009396Y016631D01*
X009469Y016594D02*
X009506Y016631D01*
X009542Y016631D01*
X009579Y016594D01*
X009579Y016484D01*
X010812Y015903D02*
X010849Y015939D01*
X010922Y015939D01*
X010959Y015903D01*
X010959Y015866D01*
X010812Y015719D01*
X010959Y015719D01*
X011033Y015719D02*
X011033Y015939D01*
X011143Y015866D02*
X011033Y015792D01*
X011143Y015719D01*
X011217Y015719D02*
X011364Y015866D01*
X011364Y015903D01*
X011327Y015939D01*
X011254Y015939D01*
X011217Y015903D01*
X011217Y015719D02*
X011364Y015719D01*
X011701Y016300D02*
X011701Y016520D01*
X011812Y016520D01*
X011848Y016484D01*
X011848Y016410D01*
X011812Y016374D01*
X011701Y016374D01*
X011775Y016374D02*
X011848Y016300D01*
X011922Y016410D02*
X012069Y016410D01*
X012033Y016300D02*
X012033Y016520D01*
X011922Y016410D01*
X012430Y019136D02*
X012430Y019246D01*
X012467Y019283D01*
X012614Y019283D01*
X012650Y019246D01*
X012650Y019136D01*
X012430Y019136D01*
X012467Y019357D02*
X012430Y019394D01*
X012430Y019467D01*
X012467Y019504D01*
X012503Y019504D01*
X012540Y019467D01*
X012577Y019504D01*
X012614Y019504D01*
X012650Y019467D01*
X012650Y019394D01*
X012614Y019357D01*
X012540Y019430D02*
X012540Y019467D01*
X012787Y019489D02*
X013007Y019489D01*
X012787Y019342D01*
X013007Y019342D01*
X013007Y019268D02*
X013007Y019121D01*
X013007Y019194D02*
X012787Y019194D01*
X012860Y019121D01*
X012897Y019563D02*
X012897Y019710D01*
X012860Y019784D02*
X012787Y019857D01*
X013007Y019857D01*
X013007Y019784D02*
X013007Y019931D01*
X012897Y020005D02*
X012897Y020152D01*
X012860Y020226D02*
X012897Y020262D01*
X012897Y020336D01*
X012934Y020373D01*
X012970Y020373D01*
X013007Y020336D01*
X013007Y020262D01*
X012970Y020226D01*
X012934Y020226D01*
X012897Y020262D01*
X012860Y020226D02*
X012824Y020226D01*
X012787Y020262D01*
X012787Y020336D01*
X012824Y020373D01*
X012860Y020373D01*
X012897Y020336D01*
X013007Y020115D02*
X012787Y020115D01*
X012897Y020005D01*
X012787Y019673D02*
X012897Y019563D01*
X013007Y019673D02*
X012787Y019673D01*
X010129Y021142D02*
X010093Y021106D01*
X010019Y021106D01*
X009983Y021142D01*
X009983Y021179D01*
X010019Y021216D01*
X010093Y021216D01*
X010129Y021179D01*
X010129Y021142D01*
X010093Y021216D02*
X010129Y021253D01*
X010129Y021289D01*
X010093Y021326D01*
X010019Y021326D01*
X009983Y021289D01*
X009983Y021253D01*
X010019Y021216D01*
X009908Y021106D02*
X009762Y021106D01*
X009835Y021106D02*
X009835Y021326D01*
X009762Y021253D01*
X009687Y021289D02*
X009687Y021216D01*
X009651Y021179D01*
X009541Y021179D01*
X009614Y021179D02*
X009687Y021106D01*
X009541Y021106D02*
X009541Y021326D01*
X009651Y021326D01*
X009687Y021289D01*
X009442Y022579D02*
X009295Y022579D01*
X009369Y022579D02*
X009369Y022799D01*
X009295Y022726D01*
X009221Y022762D02*
X009185Y022799D01*
X009111Y022799D01*
X009074Y022762D01*
X009074Y022616D01*
X009111Y022579D01*
X009185Y022579D01*
X009221Y022616D01*
X009222Y022895D02*
X009186Y022932D01*
X009332Y023078D01*
X009332Y022932D01*
X009296Y022895D01*
X009222Y022895D01*
X009186Y022932D02*
X009186Y023078D01*
X009222Y023115D01*
X009296Y023115D01*
X009332Y023078D01*
X009407Y023042D02*
X009517Y023042D01*
X009553Y023005D01*
X009553Y022895D01*
X009407Y022895D02*
X009407Y023042D01*
X009111Y023078D02*
X008965Y022932D01*
X009001Y022895D01*
X009075Y022895D01*
X009111Y022932D01*
X009111Y023078D01*
X009075Y023115D01*
X009001Y023115D01*
X008965Y023078D01*
X008965Y022932D01*
X008890Y022895D02*
X008744Y022895D01*
X008817Y022895D02*
X008817Y023115D01*
X008744Y023042D01*
X008450Y019925D02*
X008450Y019704D01*
X008377Y019704D02*
X008524Y019704D01*
X008377Y019851D02*
X008450Y019925D01*
X008303Y019888D02*
X008303Y019741D01*
X008266Y019704D01*
X008193Y019704D01*
X008156Y019741D01*
X008156Y019888D01*
X008193Y019925D01*
X008266Y019925D01*
X008303Y019888D01*
X008229Y019778D02*
X008303Y019704D01*
X008269Y019177D02*
X008269Y019066D01*
X008195Y018993D02*
X008158Y018956D01*
X008085Y018956D01*
X008048Y018993D01*
X008048Y019140D01*
X008085Y019177D01*
X008158Y019177D01*
X008195Y019140D01*
X008269Y019177D02*
X008416Y019177D01*
X007974Y019140D02*
X007974Y019103D01*
X007937Y019066D01*
X007827Y019066D01*
X007827Y018956D02*
X007827Y019177D01*
X007937Y019177D01*
X007974Y019140D01*
X007937Y019066D02*
X007974Y019030D01*
X007974Y018993D01*
X007937Y018956D01*
X007827Y018956D01*
X005362Y022902D02*
X005362Y023012D01*
X005326Y023049D01*
X005216Y023049D01*
X005216Y022902D01*
X005141Y022939D02*
X005105Y022902D01*
X005031Y022902D01*
X004995Y022939D01*
X005141Y023086D01*
X005141Y022939D01*
X004995Y022939D02*
X004995Y023086D01*
X005031Y023123D01*
X005105Y023123D01*
X005141Y023086D01*
X004920Y022902D02*
X004774Y022902D01*
X004847Y022902D02*
X004847Y023123D01*
X004774Y023049D01*
X004781Y022783D02*
X004744Y022746D01*
X004744Y022599D01*
X004781Y022562D01*
X004854Y022562D01*
X004891Y022599D01*
X004965Y022672D02*
X005112Y022672D01*
X005075Y022562D02*
X005075Y022783D01*
X004965Y022672D01*
X004891Y022746D02*
X004854Y022783D01*
X004781Y022783D01*
X009091Y014453D02*
X009164Y014453D01*
X009201Y014417D01*
X009201Y014270D01*
X009164Y014233D01*
X009091Y014233D01*
X009054Y014270D01*
X009054Y014417D01*
X009091Y014453D01*
X009128Y014307D02*
X009201Y014233D01*
X009275Y014343D02*
X009422Y014343D01*
X009385Y014233D02*
X009385Y014453D01*
X009275Y014343D01*
X009941Y014072D02*
X009978Y014109D01*
X010015Y014109D01*
X010052Y014072D01*
X010052Y013999D01*
X010015Y013962D01*
X009978Y013962D01*
X009941Y013999D01*
X009941Y014072D01*
X010052Y014072D02*
X010088Y014109D01*
X010125Y014109D01*
X010162Y014072D01*
X010162Y013999D01*
X010125Y013962D01*
X010088Y013962D01*
X010052Y013999D01*
X010015Y013888D02*
X009978Y013888D01*
X009941Y013851D01*
X009941Y013778D01*
X009978Y013741D01*
X009978Y013667D02*
X010125Y013520D01*
X010162Y013520D01*
X010125Y013446D02*
X010162Y013409D01*
X010162Y013336D01*
X010125Y013299D01*
X010125Y013225D02*
X010125Y013189D01*
X010162Y013189D01*
X010162Y013225D01*
X010125Y013225D01*
X010162Y013225D02*
X010235Y013152D01*
X010162Y012931D02*
X010125Y012931D01*
X009978Y013078D01*
X009941Y013078D01*
X009941Y012931D01*
X009978Y013299D02*
X009941Y013336D01*
X009941Y013409D01*
X009978Y013446D01*
X010015Y013446D01*
X010052Y013409D01*
X010088Y013446D01*
X010125Y013446D01*
X010052Y013409D02*
X010052Y013373D01*
X009941Y013520D02*
X009941Y013667D01*
X009978Y013667D01*
X010162Y013741D02*
X010015Y013888D01*
X010162Y013888D02*
X010162Y013741D01*
D15*
X008344Y013303D02*
X007744Y013303D01*
X007744Y013053D02*
X008344Y013053D01*
X008344Y014918D02*
X007744Y014918D01*
X007744Y015168D02*
X008344Y015168D01*
X012250Y011023D02*
X012850Y011023D01*
X012850Y010773D02*
X012250Y010773D01*
X012250Y009163D02*
X012850Y009163D01*
X012850Y008913D02*
X012250Y008913D01*
X008407Y006366D02*
X007807Y006366D01*
X007807Y006116D02*
X008407Y006116D01*
X002071Y014296D02*
X002071Y014896D01*
X001821Y014896D02*
X001821Y014296D01*
X005969Y022159D02*
X005969Y022759D01*
X006219Y022759D02*
X006219Y022159D01*
X008017Y022156D02*
X008017Y022756D01*
X008267Y022756D02*
X008267Y022156D01*
X009962Y022072D02*
X010386Y022496D01*
X010563Y022320D02*
X010139Y021895D01*
D16*
X010507Y020736D02*
X010707Y020736D01*
X010688Y017491D02*
X010888Y017491D01*
X010915Y016395D02*
X010715Y016395D01*
X008457Y018298D02*
X008257Y018298D01*
X006597Y005065D02*
X006447Y005065D01*
X003247Y005065D02*
X003097Y005065D01*
D17*
X003688Y002111D02*
X003690Y002057D01*
X003695Y002003D01*
X003704Y001950D01*
X003717Y001897D01*
X003733Y001846D01*
X003753Y001796D01*
X003776Y001747D01*
X003802Y001699D01*
X003831Y001654D01*
X003864Y001611D01*
X003899Y001570D01*
X003937Y001531D01*
X003977Y001495D01*
X004020Y001462D01*
X004065Y001432D01*
X004112Y001405D01*
X004885Y001416D02*
X004933Y001446D01*
X004978Y001479D01*
X005021Y001515D01*
X005062Y001553D01*
X005099Y001595D01*
X005134Y001639D01*
X005165Y001685D01*
X005194Y001734D01*
X005218Y001784D01*
X005239Y001836D01*
X005257Y001890D01*
X005270Y001944D01*
X005280Y001999D01*
X005286Y002055D01*
X005288Y002111D01*
X005286Y002164D01*
X005281Y002218D01*
X005272Y002270D01*
X005260Y002322D01*
X005244Y002373D01*
X005225Y002423D01*
X005202Y002472D01*
X005176Y002519D01*
X005148Y002564D01*
X005116Y002607D01*
X005082Y002647D01*
X005044Y002686D01*
X005005Y002722D01*
X003976Y002726D02*
X003936Y002690D01*
X003898Y002651D01*
X003863Y002610D01*
X003831Y002567D01*
X003801Y002522D01*
X003775Y002475D01*
X003753Y002426D01*
X003733Y002375D01*
X003717Y002324D01*
X003704Y002272D01*
X003695Y002218D01*
X003690Y002165D01*
X003688Y002111D01*
X011730Y014894D02*
X011730Y014994D01*
X011730Y014894D02*
X012030Y014894D01*
X012330Y014894D01*
X012330Y014794D01*
X012030Y014894D02*
X012330Y015394D01*
X012030Y014894D02*
X011730Y015394D01*
D18*
X011585Y014853D02*
X011510Y014853D01*
X011210Y015153D01*
X011135Y015153D01*
X011135Y014853D01*
X011210Y014692D02*
X011135Y014617D01*
X011135Y014392D01*
X011585Y014392D01*
X011585Y014617D01*
X011510Y014692D01*
X011210Y014692D01*
X012494Y015288D02*
X012494Y015589D01*
X012569Y015589D01*
X012869Y015288D01*
X012944Y015288D01*
X012794Y015749D02*
X012944Y015899D01*
X012794Y016049D01*
X012494Y016049D01*
X012494Y016209D02*
X012719Y016209D01*
X012644Y016359D01*
X012644Y016434D01*
X012719Y016509D01*
X012869Y016509D01*
X012944Y016434D01*
X012944Y016284D01*
X012869Y016209D01*
X012494Y016209D02*
X012494Y016509D01*
X012757Y017134D02*
X013057Y017134D01*
X012907Y017134D02*
X012907Y017585D01*
X012757Y017435D01*
X013217Y017510D02*
X013217Y017209D01*
X013518Y017510D01*
X013518Y017209D01*
X013443Y017134D01*
X013292Y017134D01*
X013217Y017209D01*
X013217Y017510D02*
X013292Y017585D01*
X013443Y017585D01*
X013518Y017510D01*
X013678Y017510D02*
X013678Y017209D01*
X013978Y017510D01*
X013978Y017209D01*
X013903Y017134D01*
X013753Y017134D01*
X013678Y017209D01*
X013678Y017510D02*
X013753Y017585D01*
X013903Y017585D01*
X013978Y017510D01*
X014138Y017585D02*
X014138Y017134D01*
X014138Y017284D02*
X014363Y017435D01*
X014138Y017284D02*
X014363Y017134D01*
X014922Y016893D02*
X014922Y016443D01*
X014922Y016593D02*
X015147Y016593D01*
X015222Y016668D01*
X015222Y016818D01*
X015147Y016893D01*
X014922Y016893D01*
X015072Y016593D02*
X015222Y016443D01*
X015382Y016518D02*
X015457Y016443D01*
X015607Y016443D01*
X015682Y016518D01*
X015682Y016818D01*
X015607Y016893D01*
X015457Y016893D01*
X015382Y016818D01*
X015382Y016743D01*
X015457Y016668D01*
X015682Y016668D01*
X015670Y018341D02*
X015520Y018341D01*
X015445Y018416D01*
X015445Y018491D01*
X015520Y018566D01*
X015670Y018566D01*
X015745Y018491D01*
X015745Y018416D01*
X015670Y018341D01*
X015670Y018566D02*
X015745Y018641D01*
X015745Y018716D01*
X015670Y018791D01*
X015520Y018791D01*
X015445Y018716D01*
X015445Y018641D01*
X015520Y018566D01*
X015285Y018566D02*
X015210Y018491D01*
X014985Y018491D01*
X015135Y018491D02*
X015285Y018341D01*
X015285Y018566D02*
X015285Y018716D01*
X015210Y018791D01*
X014985Y018791D01*
X014985Y018341D01*
X013677Y018359D02*
X013677Y018434D01*
X013602Y018509D01*
X013376Y018509D01*
X013376Y018359D01*
X013451Y018284D01*
X013602Y018284D01*
X013677Y018359D01*
X013526Y018659D02*
X013376Y018509D01*
X013216Y018509D02*
X013141Y018434D01*
X012916Y018434D01*
X012916Y018284D02*
X012916Y018734D01*
X013141Y018734D01*
X013216Y018659D01*
X013216Y018509D01*
X013066Y018434D02*
X013216Y018284D01*
X012756Y018359D02*
X012681Y018284D01*
X012531Y018284D01*
X012456Y018359D01*
X012456Y018509D02*
X012606Y018584D01*
X012681Y018584D01*
X012756Y018509D01*
X012756Y018359D01*
X012756Y018734D02*
X012456Y018734D01*
X012456Y018509D01*
X011495Y019548D02*
X011497Y019589D01*
X011503Y019629D01*
X011513Y019669D01*
X011526Y019708D01*
X011544Y019745D01*
X011564Y019780D01*
X011588Y019814D01*
X011616Y019844D01*
X011646Y019872D01*
X011678Y019897D01*
X011713Y019919D01*
X011750Y019937D01*
X011788Y019951D01*
X011828Y019962D01*
X011868Y019969D01*
X011909Y019972D01*
X011950Y019971D01*
X011990Y019966D01*
X012030Y019957D01*
X012069Y019944D01*
X012107Y019928D01*
X012143Y019908D01*
X012176Y019885D01*
X012208Y019858D01*
X012236Y019829D01*
X012262Y019797D01*
X012284Y019763D01*
X012304Y019727D01*
X012319Y019689D01*
X012331Y019649D01*
X012339Y019609D01*
X012343Y019568D01*
X012343Y019528D01*
X012339Y019487D01*
X012331Y019447D01*
X012319Y019407D01*
X012304Y019369D01*
X012284Y019333D01*
X012262Y019299D01*
X012236Y019267D01*
X012208Y019238D01*
X012176Y019211D01*
X012143Y019188D01*
X012107Y019168D01*
X012069Y019152D01*
X012030Y019139D01*
X011990Y019130D01*
X011950Y019125D01*
X011909Y019124D01*
X011868Y019127D01*
X011828Y019134D01*
X011788Y019145D01*
X011750Y019159D01*
X011713Y019177D01*
X011678Y019199D01*
X011646Y019224D01*
X011616Y019252D01*
X011588Y019282D01*
X011564Y019316D01*
X011544Y019351D01*
X011526Y019388D01*
X011513Y019427D01*
X011503Y019467D01*
X011497Y019507D01*
X011495Y019548D01*
X012319Y019848D02*
X012519Y020248D01*
X012719Y019848D01*
X012319Y019848D01*
X012519Y019648D02*
X012519Y020448D01*
X012319Y020248D02*
X012719Y020248D01*
X013526Y018659D02*
X013677Y018734D01*
X015204Y021082D02*
X015098Y021188D01*
X015151Y021135D02*
X015417Y021400D01*
X015523Y021400D01*
X015576Y021347D01*
X015576Y021241D01*
X015303Y021620D02*
X014985Y021301D01*
X014826Y021461D01*
X014826Y021567D01*
X014932Y021673D01*
X015038Y021673D01*
X015197Y021514D01*
X014978Y021945D02*
X014765Y022158D01*
X014872Y022051D02*
X014553Y021733D01*
X014765Y021733D01*
X012794Y015749D02*
X012494Y015749D01*
X013002Y014941D02*
X013077Y014791D01*
X013227Y014640D01*
X013227Y014866D01*
X013302Y014941D01*
X013378Y014941D01*
X013453Y014866D01*
X013453Y014715D01*
X013378Y014640D01*
X013227Y014640D01*
X013227Y014480D02*
X013227Y014180D01*
X013002Y014405D01*
X013453Y014405D01*
X013453Y013870D02*
X013002Y013870D01*
X013002Y013720D02*
X013002Y014020D01*
X013152Y013560D02*
X013002Y013409D01*
X013152Y013259D01*
X013453Y013259D01*
X013378Y013099D02*
X013453Y013024D01*
X013453Y012799D01*
X013002Y012799D01*
X013002Y013024D01*
X013077Y013099D01*
X013152Y013099D01*
X013227Y013024D01*
X013227Y012799D01*
X013227Y013024D02*
X013302Y013099D01*
X013378Y013099D01*
X013227Y013259D02*
X013227Y013560D01*
X013152Y013560D02*
X013453Y013560D01*
X013535Y012569D02*
X013310Y012569D01*
X013235Y012494D01*
X013235Y012269D01*
X013535Y012269D01*
X013460Y012108D02*
X013535Y012033D01*
X013535Y011883D01*
X013460Y011808D01*
X013160Y012108D01*
X013460Y012108D01*
X013460Y011808D02*
X013160Y011808D01*
X013085Y011883D01*
X013085Y012033D01*
X013160Y012108D01*
X013160Y011648D02*
X013460Y011348D01*
X013535Y011423D01*
X013535Y011573D01*
X013460Y011648D01*
X013160Y011648D01*
X013085Y011573D01*
X013085Y011423D01*
X013160Y011348D01*
X013460Y011348D01*
X013535Y011188D02*
X013535Y010888D01*
X013535Y011038D02*
X013085Y011038D01*
X013235Y010888D01*
X014574Y010895D02*
X014574Y010595D01*
X014574Y010895D02*
X014649Y010895D01*
X014950Y010595D01*
X015025Y010595D01*
X015281Y010295D02*
X015206Y010220D01*
X015206Y010070D01*
X015281Y009995D01*
X015281Y009835D02*
X015206Y009760D01*
X015206Y009610D01*
X015281Y009535D01*
X015581Y009535D01*
X015656Y009610D01*
X015656Y009760D01*
X015581Y009835D01*
X015656Y009995D02*
X015356Y010295D01*
X015281Y010295D01*
X015656Y010295D02*
X015656Y009995D01*
X015656Y009378D02*
X015656Y009228D01*
X015656Y009303D02*
X015206Y009303D01*
X015206Y009228D02*
X015206Y009378D01*
X015189Y008006D02*
X015340Y007781D01*
X015490Y008006D01*
X015490Y007781D02*
X015039Y007781D01*
X015039Y007471D02*
X015490Y007471D01*
X015490Y007321D02*
X015490Y007621D01*
X015189Y007321D02*
X015039Y007471D01*
X014645Y007447D02*
X014645Y007147D01*
X014645Y007297D02*
X014195Y007297D01*
X014345Y007147D01*
X014270Y006987D02*
X014195Y006912D01*
X014195Y006687D01*
X014645Y006687D01*
X014495Y006687D02*
X014495Y006912D01*
X014420Y006987D01*
X014270Y006987D01*
X014495Y006837D02*
X014645Y006987D01*
X014570Y007607D02*
X014645Y007682D01*
X014645Y007833D01*
X014570Y007908D01*
X014495Y007908D01*
X014420Y007833D01*
X014420Y007758D01*
X014420Y007833D02*
X014345Y007908D01*
X014270Y007908D01*
X014195Y007833D01*
X014195Y007682D01*
X014270Y007607D01*
X013549Y007596D02*
X013474Y007521D01*
X013174Y007821D01*
X013474Y007821D01*
X013549Y007746D01*
X013549Y007596D01*
X013474Y007521D02*
X013174Y007521D01*
X013099Y007596D01*
X013099Y007746D01*
X013174Y007821D01*
X013174Y007981D02*
X013099Y008056D01*
X013099Y008206D01*
X013174Y008281D01*
X013474Y007981D01*
X013549Y008056D01*
X013549Y008206D01*
X013474Y008281D01*
X013174Y008281D01*
X013249Y008441D02*
X013249Y008666D01*
X013324Y008741D01*
X013549Y008741D01*
X013549Y008441D02*
X013249Y008441D01*
X013174Y007981D02*
X013474Y007981D01*
X013549Y007360D02*
X013549Y007060D01*
X013549Y007210D02*
X013099Y007210D01*
X013249Y007060D01*
X010760Y009864D02*
X010760Y010164D01*
X010760Y010014D02*
X010309Y010014D01*
X010459Y009864D01*
X010309Y010324D02*
X010760Y010624D01*
X010309Y010624D01*
X010534Y010784D02*
X010309Y011009D01*
X010760Y011009D01*
X010760Y011245D02*
X010760Y011545D01*
X010760Y011395D02*
X010309Y011395D01*
X010459Y011245D01*
X010534Y011084D02*
X010534Y010784D01*
X010760Y010324D02*
X010309Y010324D01*
X010534Y011705D02*
X010309Y011930D01*
X010760Y011930D01*
X010534Y012005D02*
X010534Y011705D01*
X010459Y012165D02*
X010384Y012165D01*
X010309Y012240D01*
X010309Y012390D01*
X010384Y012466D01*
X010459Y012466D01*
X010534Y012390D01*
X010534Y012240D01*
X010459Y012165D01*
X010534Y012240D02*
X010610Y012165D01*
X010685Y012165D01*
X010760Y012240D01*
X010760Y012390D01*
X010685Y012466D01*
X010610Y012466D01*
X010534Y012390D01*
X011594Y012553D02*
X011669Y012403D01*
X011819Y012253D01*
X011819Y012478D01*
X011894Y012553D01*
X011969Y012553D01*
X012044Y012478D01*
X012044Y012328D01*
X011969Y012253D01*
X011819Y012253D01*
X011669Y012093D02*
X011594Y012018D01*
X011594Y011793D01*
X012044Y011793D01*
X012044Y012018D01*
X011969Y012093D01*
X011669Y012093D01*
X009660Y016053D02*
X009660Y017702D01*
X009110Y017765D02*
X009110Y017923D01*
X009110Y016990D02*
X009110Y016765D01*
X009660Y017702D02*
X009609Y017739D01*
X009556Y017774D01*
X009500Y017806D01*
X009443Y017834D01*
X009384Y017858D01*
X009324Y017879D01*
X009263Y017896D01*
X009201Y017910D01*
X009138Y017919D01*
X009075Y017925D01*
X009011Y017927D01*
X008947Y017925D01*
X008884Y017919D01*
X008821Y017910D01*
X008759Y017897D01*
X008698Y017879D01*
X008638Y017859D01*
X008579Y017834D01*
X008522Y017807D01*
X008466Y017775D01*
X008413Y017741D01*
X008362Y017703D01*
X008313Y017662D01*
X008267Y017618D01*
X008223Y017572D01*
X008182Y017523D01*
X008145Y017472D01*
X008110Y017418D01*
X008079Y017363D01*
X008051Y017306D01*
X008027Y017247D01*
X008007Y017187D01*
X007948Y017235D02*
X007948Y017535D01*
X007948Y017385D02*
X007497Y017385D01*
X007648Y017235D01*
X007497Y017075D02*
X007497Y016775D01*
X007497Y016925D02*
X007948Y016925D01*
X008007Y016567D02*
X008027Y016508D01*
X008050Y016451D01*
X008077Y016394D01*
X008108Y016340D01*
X008141Y016287D01*
X008178Y016237D01*
X008217Y016188D01*
X008260Y016143D01*
X008305Y016099D01*
X008352Y016059D01*
X008402Y016021D01*
X008454Y015986D01*
X008508Y015955D01*
X008563Y015927D01*
X008620Y015902D01*
X008679Y015881D01*
X008739Y015863D01*
X008800Y015848D01*
X008861Y015838D01*
X008923Y015831D01*
X008985Y015827D01*
X009048Y015828D01*
X009110Y015832D01*
X009110Y015990D01*
X009110Y015832D02*
X009170Y015839D01*
X009229Y015850D01*
X009287Y015864D01*
X009344Y015882D01*
X009401Y015902D01*
X009456Y015926D01*
X009510Y015953D01*
X009562Y015984D01*
X009612Y016017D01*
X009660Y016052D01*
X007906Y020515D02*
X007606Y020515D01*
X007906Y020816D01*
X007906Y020891D01*
X007831Y020966D01*
X007681Y020966D01*
X007606Y020891D01*
X007295Y020966D02*
X007295Y020515D01*
X007145Y020515D02*
X007445Y020515D01*
X007145Y020816D02*
X007295Y020966D01*
X007342Y021242D02*
X007192Y021242D01*
X007117Y021317D01*
X007117Y021467D01*
X007342Y021467D01*
X007417Y021392D01*
X007417Y021317D01*
X007342Y021242D01*
X007117Y021467D02*
X007267Y021617D01*
X007417Y021692D01*
X006959Y021542D02*
X006733Y021392D01*
X006959Y021242D01*
X006910Y020966D02*
X006985Y020891D01*
X006985Y020741D01*
X006910Y020666D01*
X006685Y020666D01*
X006835Y020666D02*
X006985Y020515D01*
X006685Y020515D02*
X006685Y020966D01*
X006910Y020966D01*
X006733Y021242D02*
X006733Y021692D01*
X006573Y021692D02*
X006273Y021692D01*
X006273Y021467D01*
X006423Y021542D01*
X006498Y021542D01*
X006573Y021467D01*
X006573Y021317D01*
X006498Y021242D01*
X006348Y021242D01*
X006273Y021317D01*
X006564Y023245D02*
X006864Y023245D01*
X006714Y023245D02*
X006714Y023695D01*
X006564Y023545D01*
X007024Y023620D02*
X007024Y023320D01*
X007324Y023620D01*
X007324Y023320D01*
X007249Y023245D01*
X007099Y023245D01*
X007024Y023320D01*
X007024Y023620D02*
X007099Y023695D01*
X007249Y023695D01*
X007324Y023620D01*
X007485Y023695D02*
X007485Y023245D01*
X007485Y023395D02*
X007710Y023545D01*
X007485Y023395D02*
X007710Y023245D01*
X007789Y024319D02*
X007563Y024469D01*
X007789Y024620D01*
X007563Y024770D02*
X007563Y024319D01*
X007403Y024394D02*
X007403Y024695D01*
X007103Y024394D01*
X007178Y024319D01*
X007328Y024319D01*
X007403Y024394D01*
X007403Y024695D02*
X007328Y024770D01*
X007178Y024770D01*
X007103Y024695D01*
X007103Y024394D01*
X006943Y024319D02*
X006643Y024319D01*
X006793Y024319D02*
X006793Y024770D01*
X006643Y024620D01*
X006824Y025961D02*
X007124Y026261D01*
X007124Y026336D01*
X007049Y026411D01*
X006899Y026411D01*
X006824Y026336D01*
X006663Y026336D02*
X006663Y026186D01*
X006588Y026111D01*
X006363Y026111D01*
X006363Y025961D02*
X006363Y026411D01*
X006588Y026411D01*
X006663Y026336D01*
X006824Y025961D02*
X007124Y025961D01*
X006128Y026036D02*
X006128Y026411D01*
X006053Y026411D02*
X006203Y026411D01*
X006128Y026036D02*
X006053Y025961D01*
X005978Y025961D01*
X005903Y026036D01*
X004367Y026010D02*
X004367Y025935D01*
X004292Y025860D01*
X004142Y025860D01*
X004067Y025935D01*
X003907Y025860D02*
X003757Y026010D01*
X003832Y026010D02*
X003607Y026010D01*
X003607Y025860D02*
X003607Y026311D01*
X003832Y026311D01*
X003907Y026236D01*
X003907Y026086D01*
X003832Y026010D01*
X004067Y026236D02*
X004142Y026311D01*
X004292Y026311D01*
X004367Y026236D01*
X004367Y026161D01*
X004292Y026086D01*
X004367Y026010D01*
X004292Y026086D02*
X004217Y026086D01*
X004044Y025388D02*
X004044Y024937D01*
X004044Y025088D02*
X004269Y025238D01*
X004044Y025088D02*
X004269Y024937D01*
X003884Y025012D02*
X003808Y024937D01*
X003658Y024937D01*
X003583Y025012D01*
X003884Y025313D01*
X003884Y025012D01*
X003583Y025012D02*
X003583Y025313D01*
X003658Y025388D01*
X003808Y025388D01*
X003884Y025313D01*
X003423Y024937D02*
X003123Y024937D01*
X003273Y024937D02*
X003273Y025388D01*
X003123Y025238D01*
X003082Y023400D02*
X003232Y023175D01*
X003382Y023400D01*
X003382Y023175D02*
X002932Y023175D01*
X002932Y023015D02*
X003007Y023015D01*
X003307Y022715D01*
X003382Y022715D01*
X003382Y022480D02*
X002932Y022480D01*
X003157Y022254D01*
X003157Y022555D01*
X002932Y022715D02*
X002932Y023015D01*
X002237Y022482D02*
X002537Y022182D01*
X002612Y022182D01*
X002612Y022022D02*
X002462Y021871D01*
X002462Y021947D02*
X002462Y021721D01*
X002612Y021721D02*
X002162Y021721D01*
X002162Y021947D01*
X002237Y022022D01*
X002387Y022022D01*
X002462Y021947D01*
X002162Y022182D02*
X002162Y022482D01*
X002237Y022482D01*
X001737Y023789D02*
X001662Y023789D01*
X001587Y023864D01*
X001587Y024015D01*
X001662Y024090D01*
X001737Y024090D01*
X001812Y024015D01*
X001812Y023864D01*
X001737Y023789D01*
X001587Y023864D02*
X001512Y023789D01*
X001437Y023789D01*
X001362Y023864D01*
X001362Y024015D01*
X001437Y024090D01*
X001512Y024090D01*
X001587Y024015D01*
X001437Y024250D02*
X001362Y024325D01*
X001362Y024475D01*
X001437Y024550D01*
X001512Y024550D01*
X001812Y024250D01*
X001812Y024550D01*
X001812Y024710D02*
X001362Y024710D01*
X001512Y024935D02*
X001662Y024710D01*
X001812Y024935D01*
X003987Y023174D02*
X003987Y023024D01*
X004062Y022949D01*
X004137Y022790D02*
X004287Y022565D01*
X004438Y022790D01*
X004438Y022949D02*
X004137Y023249D01*
X004062Y023249D01*
X003987Y023174D01*
X003987Y022565D02*
X004438Y022565D01*
X004438Y022405D02*
X004438Y022105D01*
X004137Y022405D01*
X004062Y022405D01*
X003987Y022330D01*
X003987Y022180D01*
X004062Y022105D01*
X004438Y022949D02*
X004438Y023249D01*
X008201Y025085D02*
X008201Y025535D01*
X008426Y025535D01*
X008502Y025460D01*
X008502Y025310D01*
X008426Y025235D01*
X008201Y025235D01*
X008351Y025235D02*
X008502Y025085D01*
X008662Y025085D02*
X008962Y025085D01*
X008812Y025085D02*
X008812Y025535D01*
X008662Y025385D01*
X009122Y025310D02*
X009122Y025160D01*
X009197Y025085D01*
X009347Y025085D01*
X009422Y025160D01*
X009422Y025235D01*
X009347Y025310D01*
X009122Y025310D01*
X009272Y025460D01*
X009422Y025535D01*
X009540Y023673D02*
X009240Y023673D01*
X009240Y023448D01*
X009390Y023523D01*
X009465Y023523D01*
X009540Y023448D01*
X009540Y023298D01*
X009465Y023223D01*
X009315Y023223D01*
X009240Y023298D01*
X009080Y023223D02*
X008930Y023373D01*
X009005Y023373D02*
X009080Y023448D01*
X009080Y023598D01*
X009005Y023673D01*
X008780Y023673D01*
X008780Y023223D01*
X008780Y023373D02*
X009005Y023373D01*
X014477Y014941D02*
X014402Y014866D01*
X014402Y014716D01*
X014477Y014641D01*
X014477Y014480D02*
X014402Y014405D01*
X014402Y014180D01*
X014853Y014180D01*
X014853Y014405D01*
X014778Y014480D01*
X014477Y014480D01*
X014853Y014641D02*
X014552Y014941D01*
X014477Y014941D01*
X014853Y014941D02*
X014853Y014641D01*
X014950Y012736D02*
X014649Y012736D01*
X014950Y012436D01*
X015025Y012511D01*
X015025Y012661D01*
X014950Y012736D01*
X014950Y012436D02*
X014649Y012436D01*
X014574Y012511D01*
X014574Y012661D01*
X014649Y012736D01*
X015025Y012276D02*
X015025Y011976D01*
X015025Y012126D02*
X014574Y012126D01*
X014724Y011976D01*
X015025Y011816D02*
X015025Y011515D01*
X014574Y011515D01*
X014649Y011355D02*
X014574Y011280D01*
X014574Y011130D01*
X014649Y011055D01*
X014724Y011055D01*
X014799Y011130D01*
X014799Y011280D01*
X014874Y011355D01*
X014950Y011355D01*
X015025Y011280D01*
X015025Y011130D01*
X014950Y011055D01*
X014874Y011055D01*
X014799Y011130D01*
X014799Y011280D02*
X014724Y011355D01*
X014649Y011355D01*
X013941Y001306D02*
X013828Y001192D01*
X013941Y001306D02*
X013941Y000965D01*
X013828Y000965D02*
X014055Y000965D01*
X012055Y000965D02*
X011828Y000965D01*
X012055Y001192D01*
X012055Y001249D01*
X011998Y001306D01*
X011884Y001306D01*
X011828Y001249D01*
X005638Y004896D02*
X005638Y005047D01*
X005638Y004896D02*
X005562Y004821D01*
X005487Y004821D01*
X005412Y004896D01*
X005412Y004746D01*
X005337Y004671D01*
X005412Y004896D02*
X005412Y005047D01*
X005177Y005197D02*
X004877Y004896D01*
X004952Y004821D01*
X005102Y004821D01*
X005177Y004896D01*
X005177Y005197D01*
X005102Y005272D01*
X004952Y005272D01*
X004877Y005197D01*
X004877Y004896D01*
X004717Y004821D02*
X004417Y004821D01*
X004717Y005122D01*
X004717Y005197D01*
X004642Y005272D01*
X004492Y005272D01*
X004417Y005197D01*
X004256Y005197D02*
X004256Y005122D01*
X003956Y004821D01*
X004256Y004821D01*
X004256Y005197D02*
X004181Y005272D01*
X004031Y005272D01*
X003956Y005197D01*
X003976Y005966D02*
X003826Y006116D01*
X003901Y006116D02*
X003676Y006116D01*
X003676Y005966D02*
X003676Y006417D01*
X003901Y006417D01*
X003976Y006342D01*
X003976Y006191D01*
X003901Y006116D01*
X004136Y006041D02*
X004212Y005966D01*
X004362Y005966D01*
X004437Y006041D01*
X004437Y006116D01*
X004362Y006191D01*
X004287Y006191D01*
X004362Y006191D02*
X004437Y006267D01*
X004437Y006342D01*
X004362Y006417D01*
X004212Y006417D01*
X004136Y006342D01*
X003516Y006342D02*
X003516Y006267D01*
X003441Y006191D01*
X003516Y006116D01*
X003516Y006041D01*
X003441Y005966D01*
X003291Y005966D01*
X003216Y006041D01*
X003366Y006191D02*
X003441Y006191D01*
X003516Y006342D02*
X003441Y006417D01*
X003291Y006417D01*
X003216Y006342D01*
X004617Y008496D02*
X004767Y008496D01*
X004692Y008496D02*
X004692Y008947D01*
X004617Y008947D02*
X004767Y008947D01*
X004924Y008872D02*
X004924Y008571D01*
X004999Y008496D01*
X005149Y008496D01*
X005224Y008571D01*
X005384Y008496D02*
X005684Y008496D01*
X005534Y008496D02*
X005534Y008947D01*
X005384Y008796D01*
X005224Y008872D02*
X005149Y008947D01*
X004999Y008947D01*
X004924Y008872D01*
X003040Y003309D02*
X003040Y003009D01*
X002740Y003309D01*
X002665Y003309D01*
X002590Y003234D01*
X002590Y003084D01*
X002665Y003009D01*
X002740Y002850D02*
X002890Y002625D01*
X003040Y002850D01*
X003040Y002625D02*
X002590Y002625D01*
X002665Y002465D02*
X002590Y002390D01*
X002590Y002240D01*
X002665Y002165D01*
X002665Y002465D02*
X002740Y002465D01*
X003040Y002165D01*
X003040Y002465D01*
X002021Y002481D02*
X001571Y002481D01*
X001646Y002321D02*
X001721Y002321D01*
X001796Y002246D01*
X001871Y002321D01*
X001946Y002321D01*
X002021Y002246D01*
X002021Y002096D01*
X001946Y002021D01*
X001796Y002171D02*
X001796Y002246D01*
X001646Y002321D02*
X001571Y002246D01*
X001571Y002096D01*
X001646Y002021D01*
X001871Y002481D02*
X001721Y002706D01*
X001796Y002865D02*
X001796Y003090D01*
X001871Y003165D01*
X001946Y003165D01*
X002021Y003090D01*
X002021Y002940D01*
X001946Y002865D01*
X001796Y002865D01*
X001646Y003015D01*
X001571Y003165D01*
X002021Y002706D02*
X001871Y002481D01*
D19*
X002927Y005065D03*
X003427Y005065D03*
X006267Y005065D03*
X006767Y005065D03*
D20*
X001607Y011423D03*
X013928Y014851D03*
D21*
X013928Y015351D03*
X013928Y013601D03*
X001607Y012673D03*
X001607Y010923D03*
D22*
X007082Y003854D03*
D23*
X007707Y003854D03*
X005157Y003854D03*
D24*
X009405Y006002D02*
X009407Y006102D01*
X009415Y006201D01*
X009427Y006300D01*
X009444Y006398D01*
X009466Y006495D01*
X009492Y006591D01*
X009524Y006685D01*
X009559Y006778D01*
X009600Y006869D01*
X009644Y006958D01*
X009694Y007045D01*
X009747Y007129D01*
X009804Y007210D01*
X009865Y007289D01*
X009930Y007364D01*
X009999Y007436D01*
X010071Y007505D01*
X010146Y007570D01*
X010225Y007631D01*
X010306Y007688D01*
X010390Y007741D01*
X010477Y007791D01*
X010566Y007835D01*
X010657Y007876D01*
X010750Y007911D01*
X010844Y007943D01*
X010940Y007969D01*
X011037Y007991D01*
X011135Y008008D01*
X011234Y008020D01*
X011333Y008028D01*
X011433Y008030D01*
X011533Y008028D01*
X011632Y008020D01*
X011731Y008008D01*
X011829Y007991D01*
X011926Y007969D01*
X012022Y007943D01*
X012116Y007911D01*
X012209Y007876D01*
X012300Y007835D01*
X012389Y007791D01*
X012476Y007741D01*
X012560Y007688D01*
X012641Y007631D01*
X012720Y007570D01*
X012795Y007505D01*
X012867Y007436D01*
X012936Y007364D01*
X013001Y007289D01*
X013062Y007210D01*
X013119Y007129D01*
X013172Y007045D01*
X013222Y006958D01*
X013266Y006869D01*
X013307Y006778D01*
X013342Y006685D01*
X013374Y006591D01*
X013400Y006495D01*
X013422Y006398D01*
X013439Y006300D01*
X013451Y006201D01*
X013459Y006102D01*
X013461Y006002D01*
X013459Y005902D01*
X013451Y005803D01*
X013439Y005704D01*
X013422Y005606D01*
X013400Y005509D01*
X013374Y005413D01*
X013342Y005319D01*
X013307Y005226D01*
X013266Y005135D01*
X013222Y005046D01*
X013172Y004959D01*
X013119Y004875D01*
X013062Y004794D01*
X013001Y004715D01*
X012936Y004640D01*
X012867Y004568D01*
X012795Y004499D01*
X012720Y004434D01*
X012641Y004373D01*
X012560Y004316D01*
X012476Y004263D01*
X012389Y004213D01*
X012300Y004169D01*
X012209Y004128D01*
X012116Y004093D01*
X012022Y004061D01*
X011926Y004035D01*
X011829Y004013D01*
X011731Y003996D01*
X011632Y003984D01*
X011533Y003976D01*
X011433Y003974D01*
X011333Y003976D01*
X011234Y003984D01*
X011135Y003996D01*
X011037Y004013D01*
X010940Y004035D01*
X010844Y004061D01*
X010750Y004093D01*
X010657Y004128D01*
X010566Y004169D01*
X010477Y004213D01*
X010390Y004263D01*
X010306Y004316D01*
X010225Y004373D01*
X010146Y004434D01*
X010071Y004499D01*
X009999Y004568D01*
X009930Y004640D01*
X009865Y004715D01*
X009804Y004794D01*
X009747Y004875D01*
X009694Y004959D01*
X009644Y005046D01*
X009600Y005135D01*
X009559Y005226D01*
X009524Y005319D01*
X009492Y005413D01*
X009466Y005509D01*
X009444Y005606D01*
X009427Y005704D01*
X009415Y005803D01*
X009407Y005902D01*
X009405Y006002D01*
D25*
X011919Y019548D02*
X011919Y020548D01*
D26*
X010332Y014873D02*
X010332Y012473D01*
X010330Y012416D01*
X010324Y012360D01*
X010315Y012304D01*
X010302Y012248D01*
X010285Y012194D01*
X010265Y012141D01*
X010241Y012090D01*
X010213Y012040D01*
X010183Y011992D01*
X010149Y011946D01*
X010112Y011903D01*
X010073Y011862D01*
X010031Y011824D01*
X009986Y011789D01*
X009939Y011757D01*
X009890Y011728D01*
X009840Y011702D01*
X009787Y011680D01*
X009734Y011661D01*
X009679Y011646D01*
X009623Y011635D01*
X009567Y011627D01*
X009510Y011623D01*
X009454Y011623D01*
X009397Y011627D01*
X009341Y011635D01*
X009285Y011646D01*
X009230Y011661D01*
X009177Y011680D01*
X009124Y011702D01*
X009074Y011728D01*
X009025Y011757D01*
X008978Y011789D01*
X008933Y011824D01*
X008891Y011862D01*
X008852Y011903D01*
X008815Y011946D01*
X008781Y011992D01*
X008751Y012040D01*
X008723Y012090D01*
X008699Y012141D01*
X008679Y012194D01*
X008662Y012248D01*
X008649Y012304D01*
X008640Y012360D01*
X008634Y012416D01*
X008632Y012473D01*
X008632Y014873D01*
X008634Y014930D01*
X008640Y014986D01*
X008649Y015042D01*
X008662Y015098D01*
X008679Y015152D01*
X008699Y015205D01*
X008723Y015256D01*
X008751Y015306D01*
X008781Y015354D01*
X008815Y015400D01*
X008852Y015443D01*
X008891Y015484D01*
X008933Y015522D01*
X008978Y015557D01*
X009025Y015589D01*
X009074Y015618D01*
X009124Y015644D01*
X009177Y015666D01*
X009230Y015685D01*
X009285Y015700D01*
X009341Y015711D01*
X009397Y015719D01*
X009454Y015723D01*
X009510Y015723D01*
X009567Y015719D01*
X009623Y015711D01*
X009679Y015700D01*
X009734Y015685D01*
X009787Y015666D01*
X009840Y015644D01*
X009890Y015618D01*
X009939Y015589D01*
X009986Y015557D01*
X010031Y015522D01*
X010073Y015484D01*
X010112Y015443D01*
X010149Y015400D01*
X010183Y015354D01*
X010213Y015306D01*
X010241Y015256D01*
X010265Y015205D01*
X010285Y015152D01*
X010302Y015098D01*
X010315Y015042D01*
X010324Y014986D01*
X010330Y014930D01*
X010332Y014873D01*
D27*
X012412Y002330D03*
D28*
X011231Y010196D03*
D29*
X011231Y009571D03*
X011231Y012121D03*
D30*
X014000Y006055D02*
X013924Y005978D01*
X013924Y005825D01*
X014000Y005748D01*
X014307Y005748D01*
X014384Y005825D01*
X014384Y005978D01*
X014307Y006055D01*
X014384Y005594D02*
X014077Y005594D01*
X013924Y005441D01*
X014077Y005288D01*
X014384Y005288D01*
X014307Y005134D02*
X014384Y005057D01*
X014384Y004904D01*
X014307Y004827D01*
X014000Y005134D01*
X014307Y005134D01*
X014154Y005288D02*
X014154Y005594D01*
X014000Y005134D02*
X013924Y005057D01*
X013924Y004904D01*
X014000Y004827D01*
X014307Y004827D01*
X014154Y004674D02*
X014154Y004367D01*
X013924Y004597D01*
X014384Y004597D01*
X014307Y004137D02*
X013924Y004137D01*
X013924Y004213D02*
X013924Y004060D01*
X014077Y003753D02*
X013924Y003600D01*
X014077Y003446D01*
X014384Y003446D01*
X014384Y003293D02*
X013924Y003293D01*
X014077Y003139D01*
X013924Y002986D01*
X014384Y002986D01*
X014307Y002832D02*
X014384Y002756D01*
X014384Y002602D01*
X014307Y002525D01*
X014154Y002602D02*
X014154Y002756D01*
X014231Y002832D01*
X014307Y002832D01*
X014154Y002602D02*
X014077Y002525D01*
X014000Y002525D01*
X013924Y002602D01*
X013924Y002756D01*
X014000Y002832D01*
X014154Y003446D02*
X014154Y003753D01*
X014077Y003753D02*
X014384Y003753D01*
X014307Y003906D02*
X014384Y003983D01*
X014384Y004060D01*
X014307Y004137D01*
X014589Y004807D02*
X014589Y003043D01*
X014613Y002545D02*
X014613Y002238D01*
X014843Y002238D01*
X014766Y002391D01*
X014766Y002468D01*
X014843Y002545D01*
X014996Y002545D01*
X015073Y002468D01*
X015073Y002314D01*
X014996Y002238D01*
X014996Y002084D02*
X014689Y002084D01*
X014613Y002008D01*
X014613Y001777D01*
X015073Y001777D01*
X015073Y002008D01*
X014996Y002084D01*
X016101Y003043D02*
X016101Y004807D01*
M02*
