G75*
G70*
%OFA0B0*%
%FSLAX24Y24*%
%IPPOS*%
%LPD*%
%AMOC8*
5,1,8,0,0,1.08239X$1,22.5*
%
%ADD10C,0.0540*%
%ADD11OC8,0.0540*%
%ADD12C,0.0620*%
%ADD13OC8,0.0630*%
%ADD14C,0.0630*%
%ADD15C,0.0574*%
%ADD16OC8,0.0660*%
%ADD17C,0.0540*%
%ADD18C,0.0780*%
%ADD19C,0.0124*%
%ADD20C,0.0108*%
%ADD21OC8,0.0620*%
%ADD22R,0.0850X0.0701*%
%ADD23C,0.0160*%
%ADD24C,0.0500*%
%ADD25OC8,0.0475*%
%ADD26OC8,0.0591*%
%ADD27OC8,0.0700*%
%ADD28C,0.0240*%
%ADD29R,0.0475X0.0475*%
%ADD30R,0.0436X0.0436*%
D10*
X004162Y003854D02*
X004702Y003854D01*
X004731Y006926D02*
X004731Y007466D01*
X003731Y007466D02*
X003731Y006926D01*
X005731Y006926D02*
X005731Y007466D01*
X006731Y007466D02*
X006731Y006926D01*
X006731Y009926D02*
X006731Y010466D01*
X006587Y011173D02*
X007127Y011173D01*
X007127Y012173D02*
X006587Y012173D01*
X006587Y013173D02*
X007127Y013173D01*
X007127Y014173D02*
X006587Y014173D01*
X006587Y015173D02*
X007127Y015173D01*
X007127Y016173D02*
X006587Y016173D01*
X006587Y017173D02*
X007127Y017173D01*
X007127Y018173D02*
X006587Y018173D01*
X006587Y019173D02*
X007127Y019173D01*
X007127Y020173D02*
X006587Y020173D01*
X004127Y020173D02*
X003587Y020173D01*
X003587Y019173D02*
X004127Y019173D01*
X004127Y018173D02*
X003587Y018173D01*
X003587Y017173D02*
X004127Y017173D01*
X004127Y016173D02*
X003587Y016173D01*
X003587Y015173D02*
X004127Y015173D01*
X004127Y014173D02*
X003587Y014173D01*
X003587Y013173D02*
X004127Y013173D01*
X004127Y012173D02*
X003587Y012173D01*
X003587Y011173D02*
X004127Y011173D01*
X003731Y010466D02*
X003731Y009926D01*
X004731Y009926D02*
X004731Y010466D01*
X005731Y010466D02*
X005731Y009926D01*
X008162Y003854D02*
X008702Y003854D01*
X011231Y008576D02*
X011231Y009116D01*
X011231Y012576D02*
X011231Y013116D01*
X013928Y013246D02*
X013928Y012706D01*
X013928Y015706D02*
X013928Y016246D01*
X001607Y013568D02*
X001607Y013028D01*
X001607Y010568D02*
X001607Y010028D01*
D11*
X002231Y006173D03*
X002347Y005065D03*
X002857Y004361D03*
X001794Y004361D03*
X001794Y001361D03*
X002857Y001361D03*
X004488Y001611D03*
X004488Y002611D03*
X005231Y006173D03*
X007347Y005065D03*
X008107Y005736D03*
X008107Y006736D03*
X008044Y012673D03*
X008044Y013673D03*
X008044Y014548D03*
X008044Y015548D03*
X008260Y016877D03*
X009010Y016377D03*
X009010Y017377D03*
X008857Y018298D03*
X008857Y019548D03*
X008357Y020298D03*
X007857Y019548D03*
X007857Y018298D03*
X008648Y021437D03*
X008647Y022456D03*
X008443Y023500D03*
X008876Y024574D03*
X007647Y022456D03*
X006589Y022459D03*
X005648Y021437D03*
X005589Y022459D03*
X005443Y023500D03*
X005876Y024574D03*
X005475Y025192D03*
X004243Y024204D03*
X003187Y024196D03*
X002475Y025192D03*
X001557Y025669D03*
X001557Y022669D03*
X003187Y021196D03*
X004243Y021204D03*
X002441Y014596D03*
X001441Y014596D03*
X010107Y020736D03*
X010419Y019861D03*
X011169Y019361D03*
X011609Y018539D03*
X011288Y017491D03*
X011315Y016395D03*
X012030Y015594D03*
X012030Y014594D03*
X010315Y016395D03*
X010288Y017491D03*
X010419Y018861D03*
X011107Y020736D03*
X012097Y017389D03*
X014609Y018539D03*
X015097Y017389D03*
X012550Y011393D03*
X012550Y010393D03*
X012550Y009543D03*
X012550Y008543D03*
X013947Y009370D03*
X014697Y009870D03*
X013947Y010370D03*
X015235Y008740D03*
X015235Y005740D03*
D12*
X009055Y003001D02*
X008435Y003001D01*
X008435Y001221D02*
X009055Y001221D01*
X006495Y001221D02*
X005875Y001221D01*
X005875Y003001D02*
X006495Y003001D01*
X002444Y015986D02*
X001824Y015986D01*
X001824Y016986D02*
X002444Y016986D01*
X002444Y017986D02*
X001824Y017986D01*
X001824Y018986D02*
X002444Y018986D01*
X002444Y019986D02*
X001824Y019986D01*
X001824Y020986D02*
X002444Y020986D01*
D13*
X002044Y008798D03*
X008919Y008098D03*
D14*
X008919Y009498D03*
X002044Y007798D03*
D15*
X010449Y006289D02*
X010449Y005715D01*
X012418Y005715D02*
X012418Y006289D01*
D16*
X011919Y019548D03*
X011919Y020548D03*
D17*
X009482Y014623D03*
X009482Y012723D03*
D18*
X011422Y002720D02*
X011422Y001940D01*
X013402Y001940D02*
X013402Y002720D01*
D19*
X014107Y020040D02*
X014045Y020102D01*
X014251Y020102D01*
X014395Y019958D01*
X014395Y019752D01*
X014251Y019608D01*
X014045Y019608D01*
X013901Y019752D01*
X013901Y019958D01*
X014045Y020102D01*
X014084Y020009D01*
X014212Y020009D01*
X014302Y019919D01*
X014302Y019791D01*
X014212Y019701D01*
X014084Y019701D01*
X013994Y019791D01*
X013994Y019919D01*
X014084Y020009D01*
X014122Y019916D01*
X014174Y019916D01*
X014209Y019881D01*
X014209Y019829D01*
X014174Y019794D01*
X014122Y019794D01*
X014087Y019829D01*
X014087Y019881D01*
X014122Y019916D01*
X013400Y020747D02*
X013338Y020809D01*
X013544Y020809D01*
X013688Y020665D01*
X013688Y020459D01*
X013544Y020315D01*
X013338Y020315D01*
X013194Y020459D01*
X013194Y020665D01*
X013338Y020809D01*
X013377Y020716D01*
X013505Y020716D01*
X013595Y020626D01*
X013595Y020498D01*
X013505Y020408D01*
X013377Y020408D01*
X013287Y020498D01*
X013287Y020626D01*
X013377Y020716D01*
X013415Y020623D01*
X013467Y020623D01*
X013502Y020588D01*
X013502Y020536D01*
X013467Y020501D01*
X013415Y020501D01*
X013380Y020536D01*
X013380Y020588D01*
X013415Y020623D01*
X012693Y021455D02*
X012631Y021517D01*
X012837Y021517D01*
X012981Y021373D01*
X012981Y021167D01*
X012837Y021023D01*
X012631Y021023D01*
X012487Y021167D01*
X012487Y021373D01*
X012631Y021517D01*
X012670Y021424D01*
X012798Y021424D01*
X012888Y021334D01*
X012888Y021206D01*
X012798Y021116D01*
X012670Y021116D01*
X012580Y021206D01*
X012580Y021334D01*
X012670Y021424D01*
X012708Y021331D01*
X012760Y021331D01*
X012795Y021296D01*
X012795Y021244D01*
X012760Y021209D01*
X012708Y021209D01*
X012673Y021244D01*
X012673Y021296D01*
X012708Y021331D01*
X011986Y022162D02*
X011924Y022224D01*
X012130Y022224D01*
X012274Y022080D01*
X012274Y021874D01*
X012130Y021730D01*
X011924Y021730D01*
X011780Y021874D01*
X011780Y022080D01*
X011924Y022224D01*
X011963Y022131D01*
X012091Y022131D01*
X012181Y022041D01*
X012181Y021913D01*
X012091Y021823D01*
X011963Y021823D01*
X011873Y021913D01*
X011873Y022041D01*
X011963Y022131D01*
X012001Y022038D01*
X012053Y022038D01*
X012088Y022003D01*
X012088Y021951D01*
X012053Y021916D01*
X012001Y021916D01*
X011966Y021951D01*
X011966Y022003D01*
X012001Y022038D01*
X011279Y022869D02*
X011217Y022931D01*
X011423Y022931D01*
X011567Y022787D01*
X011567Y022581D01*
X011423Y022437D01*
X011217Y022437D01*
X011073Y022581D01*
X011073Y022787D01*
X011217Y022931D01*
X011256Y022838D01*
X011384Y022838D01*
X011474Y022748D01*
X011474Y022620D01*
X011384Y022530D01*
X011256Y022530D01*
X011166Y022620D01*
X011166Y022748D01*
X011256Y022838D01*
X011294Y022745D01*
X011346Y022745D01*
X011381Y022710D01*
X011381Y022658D01*
X011346Y022623D01*
X011294Y022623D01*
X011259Y022658D01*
X011259Y022710D01*
X011294Y022745D01*
X010572Y023576D02*
X010510Y023638D01*
X010716Y023638D01*
X010860Y023494D01*
X010860Y023288D01*
X010716Y023144D01*
X010510Y023144D01*
X010366Y023288D01*
X010366Y023494D01*
X010510Y023638D01*
X010549Y023545D01*
X010677Y023545D01*
X010767Y023455D01*
X010767Y023327D01*
X010677Y023237D01*
X010549Y023237D01*
X010459Y023327D01*
X010459Y023455D01*
X010549Y023545D01*
X010587Y023452D01*
X010639Y023452D01*
X010674Y023417D01*
X010674Y023365D01*
X010639Y023330D01*
X010587Y023330D01*
X010552Y023365D01*
X010552Y023417D01*
X010587Y023452D01*
X009864Y024283D02*
X009802Y024345D01*
X010008Y024345D01*
X010152Y024201D01*
X010152Y023995D01*
X010008Y023851D01*
X009802Y023851D01*
X009658Y023995D01*
X009658Y024201D01*
X009802Y024345D01*
X009841Y024252D01*
X009969Y024252D01*
X010059Y024162D01*
X010059Y024034D01*
X009969Y023944D01*
X009841Y023944D01*
X009751Y024034D01*
X009751Y024162D01*
X009841Y024252D01*
X009879Y024159D01*
X009931Y024159D01*
X009966Y024124D01*
X009966Y024072D01*
X009931Y024037D01*
X009879Y024037D01*
X009844Y024072D01*
X009844Y024124D01*
X009879Y024159D01*
X010572Y024990D02*
X010510Y025052D01*
X010716Y025052D01*
X010860Y024908D01*
X010860Y024702D01*
X010716Y024558D01*
X010510Y024558D01*
X010366Y024702D01*
X010366Y024908D01*
X010510Y025052D01*
X010549Y024959D01*
X010677Y024959D01*
X010767Y024869D01*
X010767Y024741D01*
X010677Y024651D01*
X010549Y024651D01*
X010459Y024741D01*
X010459Y024869D01*
X010549Y024959D01*
X010587Y024866D01*
X010639Y024866D01*
X010674Y024831D01*
X010674Y024779D01*
X010639Y024744D01*
X010587Y024744D01*
X010552Y024779D01*
X010552Y024831D01*
X010587Y024866D01*
X011279Y024283D02*
X011217Y024345D01*
X011423Y024345D01*
X011567Y024201D01*
X011567Y023995D01*
X011423Y023851D01*
X011217Y023851D01*
X011073Y023995D01*
X011073Y024201D01*
X011217Y024345D01*
X011256Y024252D01*
X011384Y024252D01*
X011474Y024162D01*
X011474Y024034D01*
X011384Y023944D01*
X011256Y023944D01*
X011166Y024034D01*
X011166Y024162D01*
X011256Y024252D01*
X011294Y024159D01*
X011346Y024159D01*
X011381Y024124D01*
X011381Y024072D01*
X011346Y024037D01*
X011294Y024037D01*
X011259Y024072D01*
X011259Y024124D01*
X011294Y024159D01*
X011986Y023576D02*
X011924Y023638D01*
X012130Y023638D01*
X012274Y023494D01*
X012274Y023288D01*
X012130Y023144D01*
X011924Y023144D01*
X011780Y023288D01*
X011780Y023494D01*
X011924Y023638D01*
X011963Y023545D01*
X012091Y023545D01*
X012181Y023455D01*
X012181Y023327D01*
X012091Y023237D01*
X011963Y023237D01*
X011873Y023327D01*
X011873Y023455D01*
X011963Y023545D01*
X012001Y023452D01*
X012053Y023452D01*
X012088Y023417D01*
X012088Y023365D01*
X012053Y023330D01*
X012001Y023330D01*
X011966Y023365D01*
X011966Y023417D01*
X012001Y023452D01*
X012693Y022869D02*
X012631Y022931D01*
X012837Y022931D01*
X012981Y022787D01*
X012981Y022581D01*
X012837Y022437D01*
X012631Y022437D01*
X012487Y022581D01*
X012487Y022787D01*
X012631Y022931D01*
X012670Y022838D01*
X012798Y022838D01*
X012888Y022748D01*
X012888Y022620D01*
X012798Y022530D01*
X012670Y022530D01*
X012580Y022620D01*
X012580Y022748D01*
X012670Y022838D01*
X012708Y022745D01*
X012760Y022745D01*
X012795Y022710D01*
X012795Y022658D01*
X012760Y022623D01*
X012708Y022623D01*
X012673Y022658D01*
X012673Y022710D01*
X012708Y022745D01*
X013400Y022162D02*
X013338Y022224D01*
X013544Y022224D01*
X013688Y022080D01*
X013688Y021874D01*
X013544Y021730D01*
X013338Y021730D01*
X013194Y021874D01*
X013194Y022080D01*
X013338Y022224D01*
X013377Y022131D01*
X013505Y022131D01*
X013595Y022041D01*
X013595Y021913D01*
X013505Y021823D01*
X013377Y021823D01*
X013287Y021913D01*
X013287Y022041D01*
X013377Y022131D01*
X013415Y022038D01*
X013467Y022038D01*
X013502Y022003D01*
X013502Y021951D01*
X013467Y021916D01*
X013415Y021916D01*
X013380Y021951D01*
X013380Y022003D01*
X013415Y022038D01*
X014107Y021455D02*
X014045Y021517D01*
X014251Y021517D01*
X014395Y021373D01*
X014395Y021167D01*
X014251Y021023D01*
X014045Y021023D01*
X013901Y021167D01*
X013901Y021373D01*
X014045Y021517D01*
X014084Y021424D01*
X014212Y021424D01*
X014302Y021334D01*
X014302Y021206D01*
X014212Y021116D01*
X014084Y021116D01*
X013994Y021206D01*
X013994Y021334D01*
X014084Y021424D01*
X014122Y021331D01*
X014174Y021331D01*
X014209Y021296D01*
X014209Y021244D01*
X014174Y021209D01*
X014122Y021209D01*
X014087Y021244D01*
X014087Y021296D01*
X014122Y021331D01*
X014814Y020747D02*
X014752Y020809D01*
X014958Y020809D01*
X015102Y020665D01*
X015102Y020459D01*
X014958Y020315D01*
X014752Y020315D01*
X014608Y020459D01*
X014608Y020665D01*
X014752Y020809D01*
X014791Y020716D01*
X014919Y020716D01*
X015009Y020626D01*
X015009Y020498D01*
X014919Y020408D01*
X014791Y020408D01*
X014701Y020498D01*
X014701Y020626D01*
X014791Y020716D01*
X014829Y020623D01*
X014881Y020623D01*
X014916Y020588D01*
X014916Y020536D01*
X014881Y020501D01*
X014829Y020501D01*
X014794Y020536D01*
X014794Y020588D01*
X014829Y020623D01*
D20*
X010585Y022000D02*
X010531Y022054D01*
X010709Y022054D01*
X010835Y021928D01*
X010835Y021750D01*
X010709Y021624D01*
X010531Y021624D01*
X010405Y021750D01*
X010405Y021928D01*
X010531Y022054D01*
X010564Y021973D01*
X010676Y021973D01*
X010754Y021895D01*
X010754Y021783D01*
X010676Y021705D01*
X010564Y021705D01*
X010486Y021783D01*
X010486Y021895D01*
X010564Y021973D01*
X010598Y021892D01*
X010642Y021892D01*
X010673Y021861D01*
X010673Y021817D01*
X010642Y021786D01*
X010598Y021786D01*
X010567Y021817D01*
X010567Y021861D01*
X010598Y021892D01*
X009878Y022707D02*
X009824Y022761D01*
X010002Y022761D01*
X010128Y022635D01*
X010128Y022457D01*
X010002Y022331D01*
X009824Y022331D01*
X009698Y022457D01*
X009698Y022635D01*
X009824Y022761D01*
X009857Y022680D01*
X009969Y022680D01*
X010047Y022602D01*
X010047Y022490D01*
X009969Y022412D01*
X009857Y022412D01*
X009779Y022490D01*
X009779Y022602D01*
X009857Y022680D01*
X009891Y022599D01*
X009935Y022599D01*
X009966Y022568D01*
X009966Y022524D01*
X009935Y022493D01*
X009891Y022493D01*
X009860Y022524D01*
X009860Y022568D01*
X009891Y022599D01*
D21*
X007589Y025649D03*
D22*
X015345Y004728D03*
X015345Y003126D03*
D23*
X001057Y000951D02*
X001057Y006846D01*
X001100Y006803D01*
X001215Y006687D01*
X001366Y006625D01*
X002301Y006625D01*
X002323Y006603D01*
X002053Y006603D01*
X001801Y006351D01*
X001801Y005995D01*
X002053Y005743D01*
X002410Y005743D01*
X002661Y005995D01*
X002661Y006265D01*
X003304Y005622D01*
X003304Y005622D01*
X003420Y005506D01*
X004092Y004834D01*
X004207Y004719D01*
X004358Y004656D01*
X007147Y004656D01*
X007169Y004635D01*
X007251Y004635D01*
X007217Y004601D01*
X003225Y004601D01*
X003035Y004791D01*
X002682Y004791D01*
X002777Y004886D01*
X002777Y005243D01*
X002525Y005494D01*
X002169Y005494D01*
X001917Y005243D01*
X001917Y004886D01*
X002169Y004635D01*
X002522Y004635D01*
X002489Y004601D01*
X002162Y004601D01*
X001972Y004791D01*
X001616Y004791D01*
X001364Y004539D01*
X001364Y004183D01*
X001616Y003931D01*
X001972Y003931D01*
X002162Y004121D01*
X002489Y004121D01*
X002679Y003931D01*
X003035Y003931D01*
X003225Y004121D01*
X003820Y004121D01*
X003797Y004098D01*
X003732Y003940D01*
X003732Y003769D01*
X003797Y003611D01*
X003918Y003490D01*
X004076Y003424D01*
X004787Y003424D01*
X004945Y003490D01*
X005066Y003611D01*
X005132Y003769D01*
X005132Y003940D01*
X005066Y004098D01*
X005043Y004121D01*
X007269Y004121D01*
X007364Y004121D01*
X007452Y004157D01*
X008079Y004784D01*
X008147Y004852D01*
X008183Y004940D01*
X008183Y005137D01*
X008183Y005232D01*
X008153Y005306D01*
X008285Y005306D01*
X008537Y005558D01*
X008537Y005914D01*
X008285Y006166D01*
X007929Y006166D01*
X007677Y005914D01*
X007677Y005791D01*
X007475Y005993D01*
X007475Y006373D01*
X007475Y006468D01*
X007472Y006475D01*
X007472Y008500D01*
X007472Y008596D01*
X007435Y008684D01*
X006972Y009148D01*
X006972Y009560D01*
X006975Y009562D01*
X007096Y009683D01*
X007161Y009841D01*
X007161Y010552D01*
X007096Y010710D01*
X007062Y010743D01*
X007212Y010743D01*
X007370Y010809D01*
X007491Y010930D01*
X007557Y011088D01*
X007557Y011259D01*
X007491Y011417D01*
X007370Y011538D01*
X007212Y011603D01*
X006501Y011603D01*
X006343Y011538D01*
X006222Y011417D01*
X006157Y011259D01*
X006157Y011099D01*
X006047Y010990D01*
X006010Y010902D01*
X006010Y010806D01*
X006010Y010795D01*
X005975Y010831D01*
X005817Y010896D01*
X005646Y010896D01*
X005488Y010831D01*
X005367Y010710D01*
X005301Y010552D01*
X005301Y009841D01*
X005367Y009683D01*
X005488Y009562D01*
X005646Y009496D01*
X005817Y009496D01*
X005975Y009562D01*
X006010Y009597D01*
X006010Y009536D01*
X005954Y009480D01*
X003436Y009480D01*
X003262Y009654D01*
X003262Y010890D01*
X003343Y010809D01*
X003430Y010773D01*
X003367Y010710D01*
X003301Y010552D01*
X003301Y009841D01*
X003367Y009683D01*
X003488Y009562D01*
X003646Y009496D01*
X003817Y009496D01*
X003975Y009562D01*
X004096Y009683D01*
X004161Y009841D01*
X004161Y010552D01*
X004096Y010710D01*
X004062Y010743D01*
X004212Y010743D01*
X004370Y010809D01*
X004490Y010929D01*
X004628Y010929D01*
X004723Y010929D01*
X004812Y010965D01*
X005273Y011427D01*
X005309Y011515D01*
X005309Y011610D01*
X005309Y021167D01*
X005470Y021007D01*
X005826Y021007D01*
X006078Y021258D01*
X006078Y021615D01*
X005826Y021866D01*
X005470Y021866D01*
X005309Y021706D01*
X005309Y022130D01*
X005411Y022029D01*
X005767Y022029D01*
X006019Y022281D01*
X006019Y022637D01*
X005767Y022889D01*
X005411Y022889D01*
X005309Y022787D01*
X005309Y023070D01*
X005621Y023070D01*
X005873Y023321D01*
X005873Y023678D01*
X005621Y023929D01*
X005309Y023929D01*
X005309Y023933D01*
X005309Y024760D01*
X005308Y024762D01*
X005456Y024762D01*
X005446Y024752D01*
X005446Y024396D01*
X005698Y024144D01*
X006054Y024144D01*
X006247Y024337D01*
X006247Y023601D01*
X006283Y023513D01*
X006351Y023446D01*
X006916Y022880D01*
X006916Y022740D01*
X006767Y022889D01*
X006411Y022889D01*
X006159Y022637D01*
X006159Y022281D01*
X006207Y022232D01*
X006207Y021386D01*
X005603Y020782D01*
X005535Y020714D01*
X005499Y020626D01*
X005499Y013382D01*
X005499Y013286D01*
X005535Y013198D01*
X005693Y013041D01*
X005760Y012973D01*
X005848Y012937D01*
X006219Y012937D01*
X006222Y012930D01*
X006343Y012809D01*
X006501Y012743D01*
X007212Y012743D01*
X007370Y012809D01*
X007491Y012930D01*
X007557Y013088D01*
X007557Y013259D01*
X007491Y013417D01*
X007370Y013538D01*
X007212Y013603D01*
X006501Y013603D01*
X006343Y013538D01*
X006222Y013417D01*
X006222Y013417D01*
X005995Y013417D01*
X005979Y013434D01*
X005979Y015649D01*
X006091Y015537D01*
X006158Y015470D01*
X006221Y015444D01*
X006205Y015428D01*
X006137Y015263D01*
X006137Y015173D01*
X006137Y015084D01*
X006205Y014918D01*
X006332Y014792D01*
X006497Y014723D01*
X006856Y014723D01*
X006856Y015173D01*
X006137Y015173D01*
X006856Y015173D01*
X006856Y015173D01*
X006857Y015173D01*
X006857Y015173D01*
X007577Y015173D01*
X007577Y015084D01*
X007508Y014918D01*
X007381Y014792D01*
X007216Y014723D01*
X006857Y014723D01*
X006857Y015173D01*
X007577Y015173D01*
X007577Y015263D01*
X007508Y015428D01*
X007474Y015462D01*
X007493Y015470D01*
X007560Y015537D01*
X007560Y015537D01*
X007614Y015591D01*
X007614Y015370D01*
X007866Y015118D01*
X008222Y015118D01*
X008474Y015370D01*
X008474Y015529D01*
X008554Y015449D01*
X008554Y014375D01*
X008591Y014287D01*
X008658Y014220D01*
X009242Y013636D01*
X009242Y013089D01*
X009238Y013088D01*
X009117Y012967D01*
X009052Y012809D01*
X009052Y012638D01*
X009117Y012480D01*
X009238Y012359D01*
X009396Y012293D01*
X009567Y012293D01*
X009725Y012359D01*
X009846Y012480D01*
X009912Y012638D01*
X009912Y012809D01*
X009846Y012967D01*
X009725Y013088D01*
X009722Y013089D01*
X009722Y013783D01*
X009685Y013872D01*
X009618Y013939D01*
X009341Y014216D01*
X009396Y014193D01*
X009567Y014193D01*
X009725Y014259D01*
X009846Y014380D01*
X009912Y014538D01*
X009912Y014709D01*
X009846Y014867D01*
X009725Y014988D01*
X009567Y015053D01*
X009396Y015053D01*
X009238Y014988D01*
X009117Y014867D01*
X009052Y014709D01*
X009052Y014538D01*
X009075Y014482D01*
X009034Y014523D01*
X009034Y015500D01*
X009034Y015596D01*
X008998Y015684D01*
X008430Y016252D01*
X008342Y016288D01*
X008246Y016288D01*
X007684Y016288D01*
X007596Y016252D01*
X007557Y016212D01*
X007557Y016259D01*
X007491Y016417D01*
X007370Y016538D01*
X007212Y016603D01*
X006501Y016603D01*
X006347Y016539D01*
X006347Y016807D01*
X006501Y016743D01*
X007212Y016743D01*
X007370Y016809D01*
X007491Y016930D01*
X007557Y017088D01*
X007557Y017259D01*
X007491Y017417D01*
X007370Y017538D01*
X007212Y017603D01*
X006501Y017603D01*
X006343Y017538D01*
X006222Y017417D01*
X006195Y017351D01*
X006174Y017330D01*
X005979Y017134D01*
X005979Y020479D01*
X006651Y021151D01*
X006687Y021239D01*
X006687Y021335D01*
X006687Y022029D01*
X006767Y022029D01*
X006916Y022177D01*
X006916Y021712D01*
X006952Y021623D01*
X007020Y021556D01*
X007925Y020650D01*
X008014Y020614D01*
X008064Y020614D01*
X007927Y020476D01*
X007927Y020120D01*
X008179Y019868D01*
X008535Y019868D01*
X008787Y020120D01*
X008787Y020419D01*
X008806Y020400D01*
X008806Y019978D01*
X008679Y019978D01*
X008427Y019726D01*
X008427Y019370D01*
X008679Y019118D01*
X009035Y019118D01*
X009239Y019322D01*
X009239Y019169D01*
X009239Y019074D01*
X009275Y018986D01*
X009511Y018749D01*
X009579Y018682D01*
X009667Y018645D01*
X010026Y018645D01*
X010241Y018431D01*
X010597Y018431D01*
X010849Y018683D01*
X010849Y019039D01*
X010597Y019291D01*
X010241Y019291D01*
X010076Y019125D01*
X009814Y019125D01*
X009719Y019221D01*
X009719Y020516D01*
X009929Y020306D01*
X010285Y020306D01*
X010537Y020558D01*
X010537Y020914D01*
X010364Y021086D01*
X010797Y021086D01*
X010823Y021060D01*
X010677Y020914D01*
X010677Y020558D01*
X010929Y020306D01*
X011285Y020306D01*
X011429Y020450D01*
X011429Y020345D01*
X011716Y020058D01*
X012122Y020058D01*
X012269Y020205D01*
X012506Y019967D01*
X012506Y017686D01*
X012458Y017637D01*
X012275Y017819D01*
X011919Y017819D01*
X011718Y017619D01*
X011718Y017669D01*
X011466Y017921D01*
X011110Y017921D01*
X010858Y017669D01*
X010858Y017313D01*
X011110Y017061D01*
X011466Y017061D01*
X011667Y017261D01*
X011667Y017211D01*
X011919Y016959D01*
X012275Y016959D01*
X012465Y017149D01*
X012502Y017149D01*
X012597Y017149D01*
X012686Y017186D01*
X012882Y017383D01*
X012950Y017450D01*
X012986Y017538D01*
X012986Y020114D01*
X012950Y020202D01*
X012882Y020270D01*
X012477Y020675D01*
X012410Y020742D01*
X012409Y020743D01*
X012409Y020751D01*
X012122Y021038D01*
X011716Y021038D01*
X011537Y020859D01*
X011537Y020914D01*
X011333Y021118D01*
X011333Y021177D01*
X011296Y021265D01*
X011099Y021462D01*
X011032Y021530D01*
X010952Y021563D01*
X011050Y021661D01*
X011050Y022017D01*
X010798Y022269D01*
X010442Y022269D01*
X010190Y022017D01*
X010190Y021661D01*
X010284Y021566D01*
X010152Y021566D01*
X010152Y022177D01*
X010342Y022368D01*
X010342Y022724D01*
X010091Y022976D01*
X009734Y022976D01*
X009483Y022724D01*
X009483Y022368D01*
X009672Y022179D01*
X009672Y021552D01*
X009618Y021530D01*
X009343Y021254D01*
X009275Y021187D01*
X009239Y021098D01*
X009239Y020646D01*
X008895Y020990D01*
X008852Y021032D01*
X009078Y021258D01*
X009078Y021615D01*
X008826Y021866D01*
X008470Y021866D01*
X008218Y021615D01*
X008218Y021258D01*
X008383Y021094D01*
X008161Y021094D01*
X007396Y021859D01*
X007396Y022099D01*
X007468Y022026D01*
X007825Y022026D01*
X008076Y022278D01*
X008076Y022634D01*
X007825Y022886D01*
X007468Y022886D01*
X007396Y022814D01*
X007396Y022932D01*
X007396Y023028D01*
X007359Y023116D01*
X006727Y023749D01*
X006727Y024782D01*
X006727Y024878D01*
X006697Y024950D01*
X006913Y024734D01*
X006981Y024666D01*
X007069Y024630D01*
X008092Y024630D01*
X008188Y024630D01*
X008276Y024666D01*
X008909Y025299D01*
X009408Y025299D01*
X010994Y025299D01*
X012940Y023353D01*
X012940Y023229D01*
X012864Y023154D01*
X012539Y023154D01*
X012264Y022878D01*
X012264Y022553D01*
X012157Y022447D01*
X011832Y022447D01*
X011557Y022171D01*
X011557Y021782D01*
X011832Y021507D01*
X012221Y021507D01*
X012497Y021782D01*
X012497Y022107D01*
X012603Y022214D01*
X012929Y022214D01*
X013204Y022489D01*
X013204Y022814D01*
X013315Y022926D01*
X013383Y022993D01*
X013419Y023082D01*
X013419Y023267D01*
X013766Y022920D01*
X013766Y022641D01*
X013571Y022447D01*
X013246Y022447D01*
X012971Y022171D01*
X012971Y021846D01*
X012864Y021739D01*
X012539Y021739D01*
X012264Y021464D01*
X012264Y021075D01*
X012539Y020800D01*
X012929Y020800D01*
X013204Y021075D01*
X013204Y021400D01*
X013310Y021507D01*
X013636Y021507D01*
X013911Y021782D01*
X013911Y022107D01*
X014083Y022279D01*
X014142Y022304D01*
X014210Y022371D01*
X014246Y022460D01*
X014246Y022969D01*
X016011Y021242D01*
X016011Y014377D01*
X015901Y014487D01*
X015524Y014487D01*
X015257Y014220D01*
X015257Y013843D01*
X015524Y013576D01*
X015901Y013576D01*
X016011Y013686D01*
X016011Y013145D01*
X015917Y013239D01*
X015494Y013239D01*
X015196Y012940D01*
X015196Y012518D01*
X015494Y012219D01*
X015917Y012219D01*
X016011Y012313D01*
X016011Y011095D01*
X015267Y011839D01*
X015189Y011918D01*
X015086Y011961D01*
X013532Y011961D01*
X012944Y012548D01*
X012866Y012627D01*
X012763Y012669D01*
X012351Y012669D01*
X012000Y013020D01*
X011921Y013099D01*
X011818Y013142D01*
X011661Y013142D01*
X011661Y013201D01*
X011595Y013360D01*
X011474Y013480D01*
X011316Y013546D01*
X011145Y013546D01*
X010987Y013480D01*
X010900Y013393D01*
X010900Y013432D01*
X011074Y013606D01*
X011675Y013606D01*
X011771Y013606D01*
X011859Y013643D01*
X012204Y013988D01*
X012218Y014002D01*
X012270Y014127D01*
X012270Y014147D01*
X012270Y014212D01*
X015257Y014212D01*
X015257Y014053D02*
X012239Y014053D01*
X012218Y014002D02*
X012218Y014002D01*
X012204Y013988D02*
X012204Y013988D01*
X012111Y013895D02*
X015257Y013895D01*
X015364Y013736D02*
X011953Y013736D01*
X011723Y013846D02*
X012001Y014124D01*
X012030Y014194D02*
X012030Y014594D01*
X012030Y014194D02*
X012029Y014178D01*
X012025Y014163D01*
X012019Y014149D01*
X012011Y014135D01*
X012001Y014123D01*
X011777Y014239D02*
X011623Y014086D01*
X010927Y014086D01*
X010839Y014049D01*
X010771Y013982D01*
X010456Y013667D01*
X010420Y013579D01*
X010420Y013483D01*
X010420Y008119D01*
X009472Y007171D01*
X009436Y007083D01*
X009436Y006987D01*
X009436Y005198D01*
X008522Y004284D01*
X008076Y004284D01*
X007918Y004219D01*
X007797Y004098D01*
X007732Y003940D01*
X007732Y003769D01*
X007797Y003611D01*
X007918Y003490D01*
X008076Y003424D01*
X008230Y003424D01*
X008169Y003399D01*
X008036Y003267D01*
X007965Y003094D01*
X007965Y002907D01*
X008036Y002735D01*
X008169Y002602D01*
X008341Y002531D01*
X009148Y002531D01*
X009321Y002602D01*
X009453Y002735D01*
X009525Y002907D01*
X009525Y003094D01*
X009453Y003267D01*
X009321Y003399D01*
X009148Y003471D01*
X008899Y003471D01*
X008945Y003490D01*
X009066Y003611D01*
X009132Y003769D01*
X009132Y003940D01*
X009066Y004098D01*
X009040Y004124D01*
X009812Y004895D01*
X009879Y004962D01*
X009916Y005051D01*
X009916Y006936D01*
X010796Y007816D01*
X010863Y007883D01*
X010900Y007971D01*
X010900Y008299D01*
X010987Y008211D01*
X011145Y008146D01*
X011316Y008146D01*
X011474Y008211D01*
X011595Y008332D01*
X011661Y008490D01*
X011661Y009201D01*
X011595Y009360D01*
X011474Y009480D01*
X011316Y009546D01*
X011145Y009546D01*
X010987Y009480D01*
X010900Y009393D01*
X010900Y012299D01*
X010987Y012211D01*
X011145Y012146D01*
X011316Y012146D01*
X011474Y012211D01*
X011595Y012332D01*
X011661Y012490D01*
X011661Y012567D01*
X012076Y012152D01*
X012179Y012109D01*
X012290Y012109D01*
X012591Y012109D01*
X013257Y011443D01*
X013360Y011401D01*
X013471Y011401D01*
X014914Y011401D01*
X015537Y010777D01*
X015537Y009045D01*
X015413Y009170D01*
X015057Y009170D01*
X014805Y008918D01*
X014805Y008562D01*
X015057Y008310D01*
X015413Y008310D01*
X015537Y008434D01*
X015537Y007236D01*
X014187Y007236D01*
X014187Y007077D02*
X015420Y007077D01*
X015420Y007142D02*
X015420Y006534D01*
X015514Y006441D01*
X016011Y006441D01*
X016011Y002781D01*
X014350Y000936D01*
X009463Y000936D01*
X009470Y000943D01*
X009545Y001123D01*
X009545Y001201D01*
X008765Y001201D01*
X008765Y001241D01*
X008725Y001241D01*
X008725Y001711D01*
X008337Y001711D01*
X008157Y001636D01*
X008020Y001498D01*
X007945Y001318D01*
X007945Y001241D01*
X008725Y001241D01*
X008725Y001201D01*
X007945Y001201D01*
X007945Y001123D01*
X008020Y000943D01*
X008027Y000936D01*
X006903Y000936D01*
X006910Y000943D01*
X006985Y001123D01*
X006985Y001201D01*
X006205Y001201D01*
X006205Y001241D01*
X006165Y001241D01*
X006165Y001711D01*
X005777Y001711D01*
X005597Y001636D01*
X005460Y001498D01*
X005385Y001318D01*
X005385Y001241D01*
X006165Y001241D01*
X006165Y001201D01*
X005385Y001201D01*
X005385Y001123D01*
X005460Y000943D01*
X005467Y000936D01*
X003068Y000936D01*
X003307Y001174D01*
X003307Y001361D01*
X003307Y001547D01*
X003043Y001811D01*
X002857Y001811D01*
X002857Y001361D01*
X003307Y001361D01*
X002857Y001361D01*
X002857Y001361D01*
X002856Y001361D01*
X002856Y001361D01*
X002407Y001361D01*
X002407Y001547D01*
X002670Y001811D01*
X002856Y001811D01*
X002856Y001361D01*
X002407Y001361D01*
X002407Y001174D01*
X002645Y000936D01*
X001977Y000936D01*
X002224Y001183D01*
X002224Y001539D01*
X001972Y001791D01*
X001616Y001791D01*
X001364Y001539D01*
X001364Y001183D01*
X001611Y000936D01*
X001526Y000936D01*
X001057Y000951D01*
X001057Y001053D02*
X001494Y001053D01*
X001364Y001211D02*
X001057Y001211D01*
X001057Y001370D02*
X001364Y001370D01*
X001364Y001528D02*
X001057Y001528D01*
X001057Y001687D02*
X001512Y001687D01*
X001057Y001846D02*
X004115Y001846D01*
X004058Y001789D02*
X004058Y001433D01*
X004310Y001181D01*
X004666Y001181D01*
X004918Y001433D01*
X004918Y001789D01*
X004666Y002041D01*
X004310Y002041D01*
X004058Y001789D01*
X004058Y001687D02*
X003167Y001687D01*
X003307Y001528D02*
X004058Y001528D01*
X004121Y001370D02*
X003307Y001370D01*
X003307Y001211D02*
X004279Y001211D01*
X004697Y001211D02*
X006165Y001211D01*
X006185Y001221D02*
X006211Y001168D01*
X006211Y002074D01*
X006250Y002114D01*
X006479Y002114D01*
X006482Y002111D01*
X007550Y002111D01*
X007550Y004043D01*
X008691Y005185D01*
X008691Y006405D01*
X008337Y006759D01*
X008101Y006759D01*
X008101Y006742D01*
X008107Y006736D01*
X008106Y006736D01*
X008106Y006735D01*
X007657Y006735D01*
X007657Y006549D01*
X007920Y006286D01*
X008106Y006286D01*
X008106Y006735D01*
X008107Y006735D01*
X008107Y006286D01*
X008293Y006286D01*
X008557Y006549D01*
X008557Y006735D01*
X008107Y006735D01*
X008107Y006736D01*
X008107Y007186D01*
X008293Y007186D01*
X008557Y006922D01*
X008557Y006736D01*
X008107Y006736D01*
X008106Y006736D02*
X008106Y007186D01*
X007920Y007186D01*
X007657Y006922D01*
X007657Y006736D01*
X008106Y006736D01*
X008106Y006760D02*
X008107Y006760D01*
X008106Y006602D02*
X008107Y006602D01*
X008106Y006443D02*
X008107Y006443D01*
X007889Y006126D02*
X007475Y006126D01*
X007475Y006285D02*
X009436Y006285D01*
X009436Y006443D02*
X008451Y006443D01*
X008557Y006602D02*
X009436Y006602D01*
X009436Y006760D02*
X008557Y006760D01*
X008557Y006919D02*
X009436Y006919D01*
X009436Y007077D02*
X008401Y007077D01*
X008107Y007077D02*
X008106Y007077D01*
X008106Y006919D02*
X008107Y006919D01*
X007812Y007077D02*
X007472Y007077D01*
X007472Y006919D02*
X007657Y006919D01*
X007657Y006760D02*
X007472Y006760D01*
X007472Y006602D02*
X007657Y006602D01*
X007763Y006443D02*
X007475Y006443D01*
X007235Y006420D02*
X007235Y005893D01*
X007943Y005185D01*
X007943Y004988D01*
X007316Y004361D01*
X002857Y004361D01*
X001857Y004361D01*
X001794Y004361D01*
X001794Y004361D01*
X001946Y004858D02*
X001057Y004858D01*
X001057Y005016D02*
X001917Y005016D01*
X001917Y005175D02*
X001057Y005175D01*
X001057Y005334D02*
X002008Y005334D01*
X002167Y005492D02*
X001057Y005492D01*
X001057Y005651D02*
X003275Y005651D01*
X003117Y005809D02*
X002476Y005809D01*
X002634Y005968D02*
X002958Y005968D01*
X002800Y006126D02*
X002661Y006126D01*
X002528Y005492D02*
X003434Y005492D01*
X003592Y005334D02*
X002686Y005334D01*
X002777Y005175D02*
X003751Y005175D01*
X003910Y005016D02*
X002777Y005016D01*
X002749Y004858D02*
X004068Y004858D01*
X004254Y004699D02*
X003126Y004699D01*
X003169Y004065D02*
X003784Y004065D01*
X003732Y003907D02*
X001057Y003907D01*
X001057Y004065D02*
X001482Y004065D01*
X001364Y004224D02*
X001057Y004224D01*
X001057Y004382D02*
X001364Y004382D01*
X001366Y004541D02*
X001057Y004541D01*
X001057Y004699D02*
X001525Y004699D01*
X002064Y004699D02*
X002104Y004699D01*
X002107Y004065D02*
X002544Y004065D01*
X003740Y003748D02*
X001057Y003748D01*
X001057Y003590D02*
X003818Y003590D01*
X004060Y003431D02*
X001057Y003431D01*
X001057Y003272D02*
X005482Y003272D01*
X005476Y003267D02*
X005405Y003094D01*
X005405Y002907D01*
X005476Y002735D01*
X005609Y002602D01*
X005781Y002531D01*
X006588Y002531D01*
X006761Y002602D01*
X006893Y002735D01*
X006965Y002907D01*
X006965Y003094D01*
X006893Y003267D01*
X006761Y003399D01*
X006588Y003471D01*
X005781Y003471D01*
X005609Y003399D01*
X005476Y003267D01*
X005413Y003114D02*
X001057Y003114D01*
X001057Y002955D02*
X004225Y002955D01*
X004310Y003041D02*
X004058Y002789D01*
X004058Y002433D01*
X004310Y002181D01*
X004666Y002181D01*
X004918Y002433D01*
X004918Y002789D01*
X004666Y003041D01*
X004310Y003041D01*
X004066Y002797D02*
X001057Y002797D01*
X001057Y002638D02*
X004058Y002638D01*
X004058Y002480D02*
X001057Y002480D01*
X001057Y002321D02*
X004170Y002321D01*
X004273Y002004D02*
X001057Y002004D01*
X001057Y002163D02*
X010852Y002163D01*
X010852Y002280D02*
X010852Y001827D01*
X010939Y001617D01*
X011099Y001457D01*
X011308Y001370D01*
X011372Y001370D01*
X011372Y002280D01*
X011472Y002280D01*
X011472Y002380D01*
X011992Y002380D01*
X011992Y002834D01*
X011905Y003043D01*
X011745Y003203D01*
X011535Y003290D01*
X011472Y003290D01*
X011472Y002380D01*
X011372Y002380D01*
X011372Y002280D01*
X010852Y002280D01*
X010852Y002380D02*
X011372Y002380D01*
X011372Y003290D01*
X011308Y003290D01*
X011099Y003203D01*
X010939Y003043D01*
X010852Y002834D01*
X010852Y002380D01*
X010852Y002480D02*
X004918Y002480D01*
X004918Y002638D02*
X005573Y002638D01*
X005451Y002797D02*
X004910Y002797D01*
X004751Y002955D02*
X005405Y002955D01*
X005685Y003431D02*
X004803Y003431D01*
X005045Y003590D02*
X007818Y003590D01*
X007740Y003748D02*
X005123Y003748D01*
X005132Y003907D02*
X007732Y003907D01*
X007784Y004065D02*
X005080Y004065D01*
X004609Y005476D02*
X004232Y005854D01*
X004915Y006537D01*
X004975Y006562D01*
X005096Y006683D01*
X005161Y006841D01*
X005161Y007552D01*
X005096Y007710D01*
X004975Y007831D01*
X004817Y007896D01*
X004646Y007896D01*
X004488Y007831D01*
X004367Y007710D01*
X004301Y007552D01*
X004301Y007083D01*
X004161Y006943D01*
X004161Y007552D01*
X004096Y007710D01*
X003975Y007831D01*
X003817Y007896D01*
X003646Y007896D01*
X003488Y007831D01*
X003367Y007710D01*
X003301Y007552D01*
X003301Y006841D01*
X003342Y006744D01*
X002703Y007383D01*
X002552Y007445D01*
X002389Y007445D01*
X002362Y007445D01*
X002447Y007529D01*
X002519Y007704D01*
X002519Y007893D01*
X002447Y008067D01*
X002313Y008201D01*
X002139Y008273D01*
X001950Y008273D01*
X001775Y008201D01*
X001660Y008086D01*
X001660Y008482D01*
X001839Y008303D01*
X002044Y008303D01*
X002044Y008798D01*
X002044Y008798D01*
X005982Y008798D01*
X006732Y008048D01*
X006732Y007986D01*
X006732Y007236D01*
X006731Y007236D01*
X006732Y007236D02*
X006731Y007196D01*
X006281Y007196D01*
X006281Y006837D01*
X006350Y006671D01*
X006477Y006545D01*
X006642Y006476D01*
X006731Y006476D01*
X006731Y007196D01*
X006731Y007196D01*
X006732Y007196D01*
X006732Y006476D01*
X006821Y006476D01*
X006986Y006545D01*
X006992Y006550D01*
X006992Y006376D01*
X006995Y006368D01*
X006995Y005845D01*
X007031Y005757D01*
X007099Y005690D01*
X007294Y005494D01*
X007169Y005494D01*
X007151Y005476D01*
X004609Y005476D01*
X004594Y005492D02*
X007167Y005492D01*
X007138Y005651D02*
X004435Y005651D01*
X004276Y005809D02*
X004987Y005809D01*
X005053Y005743D02*
X005410Y005743D01*
X005661Y005995D01*
X005661Y006351D01*
X005410Y006603D01*
X005053Y006603D01*
X004801Y006351D01*
X004801Y005995D01*
X005053Y005743D01*
X004829Y005968D02*
X004346Y005968D01*
X004504Y006126D02*
X004801Y006126D01*
X004801Y006285D02*
X004663Y006285D01*
X004821Y006443D02*
X004894Y006443D01*
X005015Y006602D02*
X005052Y006602D01*
X005128Y006760D02*
X005335Y006760D01*
X005367Y006683D02*
X005488Y006562D01*
X005646Y006496D01*
X005817Y006496D01*
X005975Y006562D01*
X006096Y006683D01*
X006161Y006841D01*
X006161Y007552D01*
X006096Y007710D01*
X005975Y007831D01*
X005817Y007896D01*
X005646Y007896D01*
X005488Y007831D01*
X005367Y007710D01*
X005301Y007552D01*
X005301Y006841D01*
X005367Y006683D01*
X005411Y006602D02*
X005448Y006602D01*
X005569Y006443D02*
X006992Y006443D01*
X006995Y006285D02*
X005661Y006285D01*
X005661Y006126D02*
X006995Y006126D01*
X006995Y005968D02*
X005634Y005968D01*
X005476Y005809D02*
X007010Y005809D01*
X007235Y006420D02*
X007232Y006423D01*
X007232Y008548D01*
X006732Y009048D01*
X006732Y010236D01*
X006732Y010236D01*
X006731Y010196D01*
X007082Y010724D02*
X010420Y010724D01*
X010420Y010883D02*
X007444Y010883D01*
X007537Y011041D02*
X010420Y011041D01*
X010420Y011200D02*
X007557Y011200D01*
X007515Y011358D02*
X010420Y011358D01*
X010420Y011517D02*
X007391Y011517D01*
X007212Y011743D02*
X007370Y011809D01*
X007491Y011930D01*
X007557Y012088D01*
X007557Y012259D01*
X007491Y012417D01*
X007370Y012538D01*
X007212Y012603D01*
X006501Y012603D01*
X006343Y012538D01*
X006222Y012417D01*
X006157Y012259D01*
X006157Y012088D01*
X006222Y011930D01*
X006343Y011809D01*
X006501Y011743D01*
X007212Y011743D01*
X007395Y011834D02*
X010420Y011834D01*
X010420Y011992D02*
X007517Y011992D01*
X007557Y012151D02*
X010420Y012151D01*
X010420Y012309D02*
X009606Y012309D01*
X009357Y012309D02*
X008288Y012309D01*
X008222Y012243D02*
X008474Y012495D01*
X008474Y012851D01*
X008222Y013103D01*
X007866Y013103D01*
X007614Y012851D01*
X007614Y012495D01*
X007866Y012243D01*
X008222Y012243D01*
X008447Y012468D02*
X009129Y012468D01*
X009056Y012626D02*
X008474Y012626D01*
X008534Y012586D02*
X008534Y012940D01*
X008544Y012940D01*
X008544Y013173D01*
X008044Y013673D01*
X008044Y013673D01*
X008044Y013223D01*
X007858Y013223D01*
X007594Y013487D01*
X007594Y013673D01*
X008044Y013673D01*
X008044Y013673D01*
X008044Y013223D01*
X008231Y013223D01*
X008494Y013487D01*
X008494Y013673D01*
X008045Y013673D01*
X008045Y013673D01*
X008494Y013673D01*
X008494Y013860D01*
X008243Y014111D01*
X008494Y014362D01*
X008494Y014548D01*
X008045Y014548D01*
X008045Y014548D01*
X008494Y014548D01*
X008494Y014735D01*
X008231Y014998D01*
X008044Y014998D01*
X007858Y014998D01*
X007594Y014735D01*
X007594Y014548D01*
X007594Y014362D01*
X007845Y014111D01*
X007594Y013860D01*
X007594Y013673D01*
X008044Y013673D01*
X008044Y013674D02*
X008044Y014123D01*
X008044Y014548D01*
X008044Y014548D01*
X007594Y014548D01*
X008044Y014548D01*
X008044Y014548D01*
X007419Y015173D01*
X006857Y015173D01*
X006856Y015163D02*
X006857Y015163D01*
X006856Y015005D02*
X006857Y015005D01*
X006856Y014846D02*
X006857Y014846D01*
X007212Y014603D02*
X006501Y014603D01*
X006343Y014538D01*
X006222Y014417D01*
X006157Y014259D01*
X006157Y014088D01*
X006222Y013930D01*
X006343Y013809D01*
X006501Y013743D01*
X007212Y013743D01*
X007370Y013809D01*
X007491Y013930D01*
X007557Y014088D01*
X007557Y014259D01*
X007491Y014417D01*
X007370Y014538D01*
X007212Y014603D01*
X007379Y014529D02*
X007594Y014529D01*
X007594Y014370D02*
X007510Y014370D01*
X007557Y014212D02*
X007744Y014212D01*
X007788Y014053D02*
X007542Y014053D01*
X007456Y013895D02*
X007629Y013895D01*
X007594Y013736D02*
X005979Y013736D01*
X005979Y013578D02*
X006440Y013578D01*
X006224Y013419D02*
X005993Y013419D01*
X005896Y013177D02*
X006853Y013177D01*
X006857Y013173D01*
X007274Y013578D02*
X007594Y013578D01*
X007662Y013419D02*
X007489Y013419D01*
X007556Y013261D02*
X007820Y013261D01*
X007865Y013102D02*
X007557Y013102D01*
X007497Y012944D02*
X007706Y012944D01*
X007614Y012785D02*
X007313Y012785D01*
X007614Y012626D02*
X005309Y012626D01*
X005309Y012468D02*
X006273Y012468D01*
X006178Y012309D02*
X005309Y012309D01*
X005309Y012151D02*
X006157Y012151D01*
X006196Y011992D02*
X005309Y011992D01*
X005309Y011834D02*
X006318Y011834D01*
X006322Y011517D02*
X005309Y011517D01*
X005309Y011675D02*
X010420Y011675D01*
X010900Y011675D02*
X012224Y011675D01*
X012120Y011571D02*
X012120Y011215D01*
X012371Y010963D01*
X012728Y010963D01*
X012980Y011215D01*
X012980Y011571D01*
X012728Y011823D01*
X012371Y011823D01*
X012120Y011571D01*
X012120Y011517D02*
X010900Y011517D01*
X010900Y011358D02*
X012120Y011358D01*
X012135Y011200D02*
X010900Y011200D01*
X010900Y011041D02*
X012294Y011041D01*
X012363Y010843D02*
X012100Y010580D01*
X012100Y010393D01*
X012100Y010207D01*
X012338Y009968D01*
X012100Y009729D01*
X012100Y009543D01*
X012549Y009543D01*
X012549Y009543D01*
X012100Y009543D01*
X012100Y009356D01*
X012363Y009093D01*
X012549Y009093D01*
X012549Y009542D01*
X012550Y009542D01*
X012550Y009093D01*
X012736Y009093D01*
X013000Y009356D01*
X013000Y009543D01*
X013000Y009729D01*
X012761Y009968D01*
X013000Y010207D01*
X013000Y010393D01*
X012550Y010393D01*
X012550Y010393D01*
X012550Y009993D01*
X012550Y009543D01*
X013000Y009543D01*
X012550Y009543D01*
X012550Y009543D01*
X012549Y009543D01*
X012549Y009993D01*
X012549Y010393D01*
X012100Y010393D01*
X012549Y010393D01*
X012549Y010393D01*
X012550Y010393D01*
X013000Y010393D01*
X013000Y010580D01*
X012736Y010843D01*
X012550Y010843D01*
X012550Y010394D01*
X012549Y010394D01*
X012549Y010843D01*
X012363Y010843D01*
X012244Y010724D02*
X010900Y010724D01*
X010900Y010883D02*
X015432Y010883D01*
X015537Y010724D02*
X014201Y010724D01*
X014125Y010800D02*
X013769Y010800D01*
X013517Y010548D01*
X013517Y010191D01*
X013769Y009940D01*
X014125Y009940D01*
X014377Y010191D01*
X014377Y010548D01*
X014125Y010800D01*
X014359Y010565D02*
X015537Y010565D01*
X015537Y010407D02*
X014377Y010407D01*
X014377Y010248D02*
X014440Y010248D01*
X014511Y010320D02*
X014247Y010056D01*
X014247Y009870D01*
X014697Y009870D01*
X014697Y010320D01*
X014511Y010320D01*
X014697Y010320D02*
X014697Y009870D01*
X014697Y009870D01*
X014697Y009869D01*
X014697Y009869D01*
X014697Y009420D01*
X014511Y009420D01*
X014247Y009683D01*
X014247Y009869D01*
X014697Y009869D01*
X014697Y009420D01*
X014884Y009420D01*
X015147Y009683D01*
X015147Y009869D01*
X014698Y009869D01*
X014698Y009870D01*
X015147Y009870D01*
X015147Y010056D01*
X014884Y010320D01*
X014697Y010320D01*
X014697Y010248D02*
X014697Y010248D01*
X014697Y010090D02*
X014697Y010090D01*
X014697Y009931D02*
X014697Y009931D01*
X014715Y009909D02*
X014715Y009887D01*
X014715Y006405D01*
X014715Y004594D01*
X014740Y004541D02*
X009457Y004541D01*
X009299Y004382D02*
X014740Y004382D01*
X014740Y004303D02*
X014845Y004197D01*
X015265Y004197D01*
X015265Y004648D01*
X015425Y004648D01*
X015425Y004808D01*
X015265Y004808D01*
X015265Y005258D01*
X014845Y005258D01*
X014740Y005153D01*
X014740Y004808D01*
X015265Y004808D01*
X015265Y004648D01*
X014740Y004648D01*
X014740Y004303D01*
X014819Y004224D02*
X009140Y004224D01*
X009080Y004065D02*
X016011Y004065D01*
X016011Y003907D02*
X009132Y003907D01*
X009123Y003748D02*
X016011Y003748D01*
X016011Y003590D02*
X015883Y003590D01*
X015836Y003636D02*
X015930Y003542D01*
X015930Y002709D01*
X015836Y002615D01*
X014853Y002615D01*
X014760Y002709D01*
X014760Y002716D01*
X013952Y002716D01*
X013952Y001831D01*
X013868Y001629D01*
X013713Y001474D01*
X013511Y001390D01*
X013292Y001390D01*
X013090Y001474D01*
X012936Y001629D01*
X012852Y001831D01*
X012852Y002830D01*
X012936Y003032D01*
X013090Y003186D01*
X013138Y003206D01*
X013191Y003304D01*
X013214Y003358D01*
X013231Y003374D01*
X013242Y003395D01*
X013288Y003432D01*
X013329Y003473D01*
X013351Y003482D01*
X013369Y003497D01*
X013426Y003513D01*
X013480Y003535D01*
X013503Y003535D01*
X013526Y003542D01*
X013584Y003535D01*
X014760Y003535D01*
X014760Y003542D01*
X014853Y003636D01*
X015836Y003636D01*
X015930Y003431D02*
X016011Y003431D01*
X016011Y003272D02*
X015930Y003272D01*
X015930Y003114D02*
X016011Y003114D01*
X016011Y002955D02*
X015930Y002955D01*
X015930Y002797D02*
X016011Y002797D01*
X015883Y002638D02*
X015859Y002638D01*
X015740Y002480D02*
X013952Y002480D01*
X013952Y002638D02*
X014830Y002638D01*
X015312Y002004D02*
X013952Y002004D01*
X013952Y001846D02*
X015169Y001846D01*
X015026Y001687D02*
X013892Y001687D01*
X013768Y001528D02*
X014884Y001528D01*
X014741Y001370D02*
X009524Y001370D01*
X009545Y001318D02*
X009470Y001498D01*
X009332Y001636D01*
X009152Y001711D01*
X008765Y001711D01*
X008765Y001241D01*
X009545Y001241D01*
X009545Y001318D01*
X009440Y001528D02*
X011027Y001528D01*
X010910Y001687D02*
X009210Y001687D01*
X008765Y001687D02*
X008725Y001687D01*
X008725Y001528D02*
X008765Y001528D01*
X008765Y001370D02*
X008725Y001370D01*
X008725Y001211D02*
X006205Y001211D01*
X006205Y001241D02*
X006985Y001241D01*
X006985Y001318D01*
X006910Y001498D01*
X006772Y001636D01*
X006592Y001711D01*
X006205Y001711D01*
X006205Y001241D01*
X006205Y001370D02*
X006165Y001370D01*
X006165Y001528D02*
X006205Y001528D01*
X006205Y001687D02*
X006165Y001687D01*
X006482Y002111D02*
X003607Y002111D01*
X002857Y001361D01*
X002857Y001361D01*
X002857Y001361D01*
X002857Y001361D01*
X002856Y001370D02*
X002857Y001370D01*
X002856Y001528D02*
X002857Y001528D01*
X002856Y001687D02*
X002857Y001687D01*
X002546Y001687D02*
X002076Y001687D01*
X002224Y001528D02*
X002407Y001528D01*
X002407Y001370D02*
X002224Y001370D01*
X002224Y001211D02*
X002407Y001211D01*
X002528Y001053D02*
X002094Y001053D01*
X003185Y001053D02*
X005414Y001053D01*
X005406Y001370D02*
X004855Y001370D01*
X004918Y001528D02*
X005490Y001528D01*
X005720Y001687D02*
X004918Y001687D01*
X004861Y001846D02*
X010852Y001846D01*
X010852Y002004D02*
X004703Y002004D01*
X004806Y002321D02*
X011372Y002321D01*
X011472Y002321D02*
X012852Y002321D01*
X012852Y002163D02*
X011992Y002163D01*
X011992Y002280D02*
X011992Y001827D01*
X011905Y001617D01*
X011745Y001457D01*
X011535Y001370D01*
X011472Y001370D01*
X011472Y002280D01*
X011992Y002280D01*
X011992Y002480D02*
X012852Y002480D01*
X012852Y002638D02*
X011992Y002638D01*
X011992Y002797D02*
X012852Y002797D01*
X012904Y002955D02*
X011941Y002955D01*
X011834Y003114D02*
X013018Y003114D01*
X013174Y003272D02*
X011578Y003272D01*
X011472Y003272D02*
X011372Y003272D01*
X011266Y003272D02*
X009448Y003272D01*
X009517Y003114D02*
X011009Y003114D01*
X010902Y002955D02*
X009525Y002955D01*
X009479Y002797D02*
X010852Y002797D01*
X010852Y002638D02*
X009357Y002638D01*
X009244Y003431D02*
X013287Y003431D01*
X013952Y002321D02*
X015597Y002321D01*
X015455Y002163D02*
X013952Y002163D01*
X014598Y001211D02*
X008765Y001211D01*
X008280Y001687D02*
X006650Y001687D01*
X006880Y001528D02*
X008050Y001528D01*
X007966Y001370D02*
X006964Y001370D01*
X006956Y001053D02*
X007974Y001053D01*
X008133Y002638D02*
X006797Y002638D01*
X006919Y002797D02*
X008011Y002797D01*
X007965Y002955D02*
X006965Y002955D01*
X006957Y003114D02*
X007973Y003114D01*
X008042Y003272D02*
X006888Y003272D01*
X006684Y003431D02*
X008060Y003431D01*
X008432Y003854D02*
X009676Y005098D01*
X009676Y007035D01*
X010660Y008019D01*
X010660Y013531D01*
X010975Y013846D01*
X011723Y013846D01*
X011536Y013419D02*
X013534Y013419D01*
X013563Y013489D02*
X013498Y013331D01*
X013498Y012620D01*
X013563Y012462D01*
X013684Y012341D01*
X013842Y012276D01*
X014013Y012276D01*
X014171Y012341D01*
X014292Y012462D01*
X014358Y012620D01*
X014358Y013331D01*
X014292Y013489D01*
X014171Y013610D01*
X014013Y013676D01*
X013842Y013676D01*
X013684Y013610D01*
X013563Y013489D01*
X013651Y013578D02*
X011046Y013578D01*
X010926Y013419D02*
X010900Y013419D01*
X010526Y013736D02*
X009722Y013736D01*
X009722Y013578D02*
X010420Y013578D01*
X010420Y013419D02*
X009722Y013419D01*
X009722Y013261D02*
X010420Y013261D01*
X010420Y013102D02*
X009722Y013102D01*
X009856Y012944D02*
X010420Y012944D01*
X010420Y012785D02*
X009912Y012785D01*
X009907Y012626D02*
X010420Y012626D01*
X010420Y012468D02*
X009834Y012468D01*
X009482Y012723D02*
X009482Y013736D01*
X008794Y014423D01*
X008794Y015548D01*
X008294Y016048D01*
X007732Y016048D01*
X007357Y015673D01*
X006294Y015673D01*
X006107Y015861D01*
X006107Y016923D01*
X006357Y017173D01*
X006482Y017173D01*
X006857Y017173D01*
X007225Y016749D02*
X007830Y016749D01*
X007830Y016699D02*
X008082Y016447D01*
X008438Y016447D01*
X008690Y016699D01*
X008690Y017056D01*
X008438Y017307D01*
X008082Y017307D01*
X007830Y017056D01*
X007830Y016699D01*
X007940Y016590D02*
X007244Y016590D01*
X007476Y016432D02*
X008580Y016432D01*
X008580Y016556D02*
X008580Y016199D01*
X008832Y015947D01*
X009188Y015947D01*
X009440Y016199D01*
X009440Y016556D01*
X009188Y016807D01*
X008832Y016807D01*
X008580Y016556D01*
X008581Y016590D02*
X008615Y016590D01*
X008690Y016749D02*
X008773Y016749D01*
X008690Y016907D02*
X016011Y016907D01*
X016011Y016749D02*
X011569Y016749D01*
X011493Y016825D02*
X011745Y016573D01*
X011745Y016217D01*
X011493Y015965D01*
X011137Y015965D01*
X010885Y016217D01*
X010885Y016573D01*
X011137Y016825D01*
X011493Y016825D01*
X011471Y017066D02*
X011812Y017066D01*
X011667Y017224D02*
X011630Y017224D01*
X011687Y017700D02*
X011799Y017700D01*
X011529Y017858D02*
X012506Y017858D01*
X012506Y017700D02*
X012394Y017700D01*
X012506Y018017D02*
X009183Y018017D01*
X009287Y018120D02*
X009035Y017868D01*
X008679Y017868D01*
X008427Y018120D01*
X008427Y018476D01*
X008679Y018728D01*
X009035Y018728D01*
X009287Y018476D01*
X009287Y018120D01*
X009287Y018176D02*
X011364Y018176D01*
X011431Y018109D02*
X011787Y018109D01*
X012039Y018361D01*
X012039Y018717D01*
X011787Y018969D01*
X011431Y018969D01*
X011179Y018717D01*
X011179Y018361D01*
X011431Y018109D01*
X011205Y018334D02*
X009287Y018334D01*
X009270Y018493D02*
X010179Y018493D01*
X010419Y018861D02*
X010424Y018865D01*
X010424Y018885D01*
X009715Y018885D01*
X009479Y019122D01*
X009479Y021051D01*
X009754Y021326D01*
X009912Y021326D01*
X009912Y022545D01*
X009913Y022546D01*
X010152Y022139D02*
X010312Y022139D01*
X010272Y022298D02*
X011041Y022298D01*
X011125Y022214D02*
X011514Y022214D01*
X011790Y022489D01*
X011790Y022878D01*
X011514Y023154D01*
X011125Y023154D01*
X010850Y022878D01*
X010850Y022489D01*
X011125Y022214D01*
X010927Y022139D02*
X011557Y022139D01*
X011557Y021981D02*
X011050Y021981D01*
X011050Y021822D02*
X011557Y021822D01*
X011675Y021663D02*
X011050Y021663D01*
X011057Y021505D02*
X012305Y021505D01*
X012264Y021346D02*
X011215Y021346D01*
X011328Y021188D02*
X012264Y021188D01*
X012309Y021029D02*
X012131Y021029D01*
X012290Y020871D02*
X012468Y020871D01*
X012440Y020712D02*
X012951Y020712D01*
X012951Y020765D02*
X012951Y020359D01*
X013080Y020230D01*
X013412Y020562D01*
X013441Y020534D01*
X013469Y020562D01*
X013802Y020230D01*
X013931Y020359D01*
X013931Y020765D01*
X013801Y020895D01*
X013469Y020563D01*
X013441Y020591D01*
X013773Y020923D01*
X013644Y021052D01*
X013238Y021052D01*
X013109Y020923D01*
X013441Y020591D01*
X013412Y020563D01*
X013080Y020895D01*
X012951Y020765D01*
X013000Y020871D02*
X013056Y020871D01*
X013104Y020871D02*
X013161Y020871D01*
X013158Y021029D02*
X013215Y021029D01*
X013204Y021188D02*
X013658Y021188D01*
X013658Y021067D02*
X013787Y020937D01*
X014120Y021269D01*
X014148Y021241D01*
X013816Y020909D01*
X013945Y020780D01*
X014351Y020780D01*
X014480Y020909D01*
X014148Y021241D01*
X014176Y021269D01*
X014509Y020937D01*
X014638Y021067D01*
X014638Y021473D01*
X014509Y021602D01*
X014176Y021270D01*
X014148Y021298D01*
X014120Y021270D01*
X013787Y021602D01*
X013658Y021473D01*
X013658Y021067D01*
X013667Y021029D02*
X013695Y021029D01*
X013721Y020871D02*
X013778Y020871D01*
X013825Y020871D02*
X013854Y020871D01*
X013879Y021029D02*
X013936Y021029D01*
X014038Y021188D02*
X014095Y021188D01*
X014201Y021188D02*
X014258Y021188D01*
X014148Y021298D02*
X014480Y021630D01*
X014351Y021759D01*
X013945Y021759D01*
X013816Y021630D01*
X014148Y021298D01*
X014100Y021346D02*
X014043Y021346D01*
X014197Y021346D02*
X014253Y021346D01*
X014355Y021505D02*
X014412Y021505D01*
X014447Y021663D02*
X015581Y021663D01*
X015743Y021505D02*
X014606Y021505D01*
X014638Y021346D02*
X015905Y021346D01*
X016011Y021188D02*
X014638Y021188D01*
X014660Y021032D02*
X015050Y021032D01*
X015325Y020757D01*
X015325Y020368D01*
X015050Y020092D01*
X014660Y020092D01*
X014385Y020368D01*
X014385Y020757D01*
X014660Y021032D01*
X014657Y021029D02*
X014601Y021029D01*
X014417Y021029D02*
X014360Y021029D01*
X014442Y020871D02*
X014499Y020871D01*
X014385Y020712D02*
X013931Y020712D01*
X013931Y020554D02*
X014385Y020554D01*
X014385Y020395D02*
X013931Y020395D01*
X013953Y020325D02*
X014343Y020325D01*
X014618Y020050D01*
X014618Y019661D01*
X014343Y019385D01*
X013953Y019385D01*
X013678Y019661D01*
X013678Y020050D01*
X013953Y020325D01*
X013865Y020237D02*
X013808Y020237D01*
X013795Y020237D02*
X013738Y020237D01*
X013773Y020202D02*
X013441Y020534D01*
X013109Y020202D01*
X013238Y020072D01*
X013644Y020072D01*
X013773Y020202D01*
X013706Y020078D02*
X013649Y020078D01*
X013678Y019919D02*
X012986Y019919D01*
X012986Y019761D02*
X013678Y019761D01*
X013736Y019602D02*
X012986Y019602D01*
X012986Y019444D02*
X013895Y019444D01*
X014401Y019444D02*
X016011Y019444D01*
X016011Y019602D02*
X014560Y019602D01*
X014618Y019761D02*
X016011Y019761D01*
X016011Y019919D02*
X014618Y019919D01*
X014590Y020078D02*
X016011Y020078D01*
X016011Y020237D02*
X015194Y020237D01*
X015325Y020395D02*
X016011Y020395D01*
X016011Y020554D02*
X015325Y020554D01*
X015325Y020712D02*
X016011Y020712D01*
X016011Y020871D02*
X015211Y020871D01*
X015053Y021029D02*
X016011Y021029D01*
X015419Y021822D02*
X013911Y021822D01*
X013911Y021981D02*
X015256Y021981D01*
X015094Y022139D02*
X013943Y022139D01*
X014127Y022298D02*
X014932Y022298D01*
X014770Y022456D02*
X014245Y022456D01*
X014246Y022615D02*
X014608Y022615D01*
X014446Y022773D02*
X014246Y022773D01*
X014246Y022932D02*
X014284Y022932D01*
X014006Y023019D02*
X014006Y022507D01*
X013972Y022507D01*
X013441Y021977D01*
X012734Y021270D01*
X013204Y021346D02*
X013658Y021346D01*
X013691Y021505D02*
X013309Y021505D01*
X012947Y021822D02*
X012497Y021822D01*
X012497Y021981D02*
X012971Y021981D01*
X012971Y022139D02*
X012529Y022139D01*
X012463Y021663D02*
X012378Y021663D01*
X012027Y021977D02*
X013180Y023129D01*
X013180Y023452D01*
X011093Y025539D01*
X009361Y025539D01*
X008809Y025539D01*
X008140Y024870D01*
X007117Y024870D01*
X006329Y025657D01*
X005187Y025657D01*
X004912Y025381D01*
X004912Y024870D01*
X005069Y024712D01*
X005069Y023885D01*
X004912Y023728D01*
X004912Y023255D01*
X005069Y023098D01*
X005069Y011563D01*
X004676Y011169D01*
X003888Y011169D01*
X003857Y011137D01*
X003857Y011173D01*
X003857Y011137D02*
X003849Y011129D01*
X004082Y010724D02*
X004381Y010724D01*
X004367Y010710D02*
X004301Y010552D01*
X004301Y009841D01*
X004367Y009683D01*
X004488Y009562D01*
X004646Y009496D01*
X004817Y009496D01*
X004975Y009562D01*
X005096Y009683D01*
X005161Y009841D01*
X005161Y010552D01*
X005096Y010710D01*
X004975Y010831D01*
X004817Y010896D01*
X004646Y010896D01*
X004488Y010831D01*
X004367Y010710D01*
X004307Y010565D02*
X004156Y010565D01*
X004161Y010407D02*
X004301Y010407D01*
X004301Y010248D02*
X004161Y010248D01*
X004161Y010090D02*
X004301Y010090D01*
X004301Y009931D02*
X004161Y009931D01*
X004133Y009773D02*
X004330Y009773D01*
X004435Y009614D02*
X004027Y009614D01*
X003435Y009614D02*
X003302Y009614D01*
X003330Y009773D02*
X003262Y009773D01*
X003262Y009931D02*
X003301Y009931D01*
X003301Y010090D02*
X003262Y010090D01*
X003262Y010248D02*
X003301Y010248D01*
X003301Y010407D02*
X003262Y010407D01*
X003262Y010565D02*
X003307Y010565D01*
X003262Y010724D02*
X003381Y010724D01*
X003269Y010883D02*
X003262Y010883D01*
X002782Y010883D02*
X001901Y010883D01*
X001850Y010933D02*
X001971Y010812D01*
X002037Y010654D01*
X002037Y009943D01*
X002017Y009895D01*
X002017Y009638D01*
X002017Y009475D01*
X001954Y009324D01*
X001923Y009293D01*
X002044Y009293D01*
X002044Y008799D01*
X002044Y008799D01*
X002044Y009293D01*
X002249Y009293D01*
X002539Y009003D01*
X002539Y008799D01*
X002045Y008799D01*
X002045Y008798D01*
X002539Y008798D01*
X002539Y008593D01*
X002249Y008303D01*
X002044Y008303D01*
X002044Y008798D01*
X002044Y008798D01*
X002044Y008821D02*
X002044Y008821D01*
X002044Y008663D02*
X002044Y008663D01*
X002044Y008504D02*
X002044Y008504D01*
X002044Y008346D02*
X002044Y008346D01*
X002292Y008346D02*
X006992Y008346D01*
X006992Y008449D02*
X006992Y007842D01*
X006986Y007848D01*
X006821Y007916D01*
X006732Y007916D01*
X006732Y007197D01*
X006731Y007197D01*
X006731Y007916D01*
X006642Y007916D01*
X006477Y007848D01*
X006350Y007721D01*
X006281Y007556D01*
X006281Y007196D01*
X006731Y007196D01*
X006731Y007077D02*
X006732Y007077D01*
X006731Y006919D02*
X006732Y006919D01*
X006731Y006760D02*
X006732Y006760D01*
X006731Y006602D02*
X006732Y006602D01*
X006419Y006602D02*
X006015Y006602D01*
X006128Y006760D02*
X006313Y006760D01*
X006281Y006919D02*
X006161Y006919D01*
X006161Y007077D02*
X006281Y007077D01*
X006281Y007236D02*
X006161Y007236D01*
X006161Y007395D02*
X006281Y007395D01*
X006281Y007553D02*
X006161Y007553D01*
X006094Y007712D02*
X006346Y007712D01*
X006531Y007870D02*
X005880Y007870D01*
X005583Y007870D02*
X004880Y007870D01*
X004583Y007870D02*
X003880Y007870D01*
X003583Y007870D02*
X002519Y007870D01*
X002519Y007712D02*
X003369Y007712D01*
X003302Y007553D02*
X002457Y007553D01*
X002674Y007395D02*
X003301Y007395D01*
X003301Y007236D02*
X002850Y007236D01*
X003008Y007077D02*
X003301Y007077D01*
X003301Y006919D02*
X003167Y006919D01*
X003325Y006760D02*
X003335Y006760D01*
X004161Y007077D02*
X004296Y007077D01*
X004301Y007236D02*
X004161Y007236D01*
X004161Y007395D02*
X004301Y007395D01*
X004302Y007553D02*
X004161Y007553D01*
X004094Y007712D02*
X004369Y007712D01*
X005094Y007712D02*
X005369Y007712D01*
X005302Y007553D02*
X005161Y007553D01*
X005161Y007395D02*
X005301Y007395D01*
X005301Y007236D02*
X005161Y007236D01*
X005161Y007077D02*
X005301Y007077D01*
X005301Y006919D02*
X005161Y006919D01*
X006006Y009000D02*
X006101Y009000D01*
X006189Y009036D01*
X006386Y009233D01*
X006454Y009301D01*
X006490Y009389D01*
X006490Y009561D01*
X006492Y009560D01*
X006492Y009000D01*
X006528Y008912D01*
X006596Y008845D01*
X006992Y008449D01*
X006936Y008504D02*
X002450Y008504D01*
X002539Y008663D02*
X006778Y008663D01*
X006619Y008821D02*
X002539Y008821D01*
X002539Y008980D02*
X006500Y008980D01*
X006492Y009139D02*
X006292Y009139D01*
X006450Y009297D02*
X006492Y009297D01*
X006490Y009456D02*
X006492Y009456D01*
X006250Y009437D02*
X006250Y010854D01*
X006565Y011169D01*
X006861Y011169D01*
X006857Y011173D01*
X006861Y011169D02*
X006880Y011169D01*
X007156Y010565D02*
X010420Y010565D01*
X010420Y010407D02*
X007161Y010407D01*
X007161Y010248D02*
X010420Y010248D01*
X010420Y010090D02*
X007161Y010090D01*
X007161Y009931D02*
X008723Y009931D01*
X008650Y009901D02*
X008516Y009767D01*
X008444Y009593D01*
X008444Y009404D01*
X008516Y009229D01*
X008650Y009096D01*
X008825Y009023D01*
X009014Y009023D01*
X009188Y009096D01*
X009322Y009229D01*
X009394Y009404D01*
X009394Y009593D01*
X009322Y009767D01*
X009188Y009901D01*
X009014Y009973D01*
X008825Y009973D01*
X008650Y009901D01*
X008522Y009773D02*
X007133Y009773D01*
X007027Y009614D02*
X008453Y009614D01*
X008444Y009456D02*
X006972Y009456D01*
X006972Y009297D02*
X008488Y009297D01*
X008607Y009139D02*
X006981Y009139D01*
X007139Y008980D02*
X010420Y008980D01*
X010420Y009139D02*
X009231Y009139D01*
X009350Y009297D02*
X010420Y009297D01*
X010420Y009456D02*
X009394Y009456D01*
X009385Y009614D02*
X010420Y009614D01*
X010420Y009773D02*
X009316Y009773D01*
X009115Y009931D02*
X010420Y009931D01*
X010900Y009931D02*
X012302Y009931D01*
X012217Y010090D02*
X010900Y010090D01*
X010900Y010248D02*
X012100Y010248D01*
X012100Y010407D02*
X010900Y010407D01*
X010900Y010565D02*
X012100Y010565D01*
X012549Y010565D02*
X012550Y010565D01*
X012549Y010407D02*
X012550Y010407D01*
X012549Y010248D02*
X012550Y010248D01*
X012549Y010090D02*
X012550Y010090D01*
X012549Y009931D02*
X012550Y009931D01*
X012549Y009773D02*
X012550Y009773D01*
X012549Y009614D02*
X012550Y009614D01*
X012549Y009456D02*
X012550Y009456D01*
X012549Y009297D02*
X012550Y009297D01*
X012549Y009139D02*
X012550Y009139D01*
X012782Y009139D02*
X013570Y009139D01*
X013517Y009191D02*
X013707Y009001D01*
X013707Y006249D01*
X012765Y005306D01*
X012600Y005306D01*
X012671Y005336D01*
X012797Y005462D01*
X012865Y005626D01*
X012865Y006378D01*
X012797Y006543D01*
X012671Y006668D01*
X012507Y006736D01*
X012329Y006736D01*
X012164Y006668D01*
X012039Y006543D01*
X011970Y006378D01*
X011970Y005626D01*
X012039Y005462D01*
X012164Y005336D01*
X012235Y005306D01*
X010799Y005306D01*
X010736Y005369D01*
X010828Y005462D01*
X010896Y005626D01*
X010896Y006378D01*
X010828Y006543D01*
X010702Y006668D01*
X010538Y006736D01*
X010360Y006736D01*
X010196Y006668D01*
X010070Y006543D01*
X010002Y006378D01*
X010002Y005626D01*
X010070Y005462D01*
X010196Y005336D01*
X010223Y005325D01*
X010223Y005255D01*
X010260Y005167D01*
X010327Y005099D01*
X010563Y004863D01*
X010651Y004826D01*
X010747Y004826D01*
X012912Y004826D01*
X013001Y004863D01*
X013068Y004930D01*
X014151Y006013D01*
X014187Y006101D01*
X014187Y006197D01*
X014187Y009001D01*
X014377Y009191D01*
X014377Y009548D01*
X014125Y009800D01*
X013769Y009800D01*
X013517Y009548D01*
X013517Y009191D01*
X013517Y009297D02*
X012940Y009297D01*
X013000Y009456D02*
X013517Y009456D01*
X013584Y009614D02*
X013000Y009614D01*
X012956Y009773D02*
X013742Y009773D01*
X013947Y009370D02*
X013947Y006149D01*
X012865Y005066D01*
X010699Y005066D01*
X010463Y005303D01*
X010463Y006011D01*
X010454Y006002D01*
X010449Y006002D01*
X010002Y005968D02*
X009916Y005968D01*
X009916Y006126D02*
X010002Y006126D01*
X010002Y006285D02*
X009916Y006285D01*
X009916Y006443D02*
X010029Y006443D01*
X010129Y006602D02*
X009916Y006602D01*
X009916Y006760D02*
X013707Y006760D01*
X013707Y006602D02*
X012737Y006602D01*
X012838Y006443D02*
X013707Y006443D01*
X013707Y006285D02*
X012865Y006285D01*
X012865Y006126D02*
X013585Y006126D01*
X013426Y005968D02*
X012865Y005968D01*
X012865Y005809D02*
X013268Y005809D01*
X013109Y005651D02*
X012865Y005651D01*
X012809Y005492D02*
X012951Y005492D01*
X012792Y005334D02*
X012665Y005334D01*
X012988Y004858D02*
X014740Y004858D01*
X014740Y005016D02*
X013154Y005016D01*
X013312Y005175D02*
X014762Y005175D01*
X015033Y005334D02*
X013471Y005334D01*
X013630Y005492D02*
X014874Y005492D01*
X014805Y005562D02*
X015057Y005310D01*
X015413Y005310D01*
X015665Y005562D01*
X015665Y005918D01*
X015413Y006170D01*
X015057Y006170D01*
X014805Y005918D01*
X014805Y005562D01*
X014805Y005651D02*
X013788Y005651D01*
X013947Y005809D02*
X014805Y005809D01*
X014855Y005968D02*
X014105Y005968D01*
X014187Y006126D02*
X015013Y006126D01*
X014715Y006208D02*
X014715Y006405D01*
X014187Y006443D02*
X015511Y006443D01*
X015420Y006602D02*
X014187Y006602D01*
X014187Y006760D02*
X015420Y006760D01*
X015420Y006919D02*
X014187Y006919D01*
X014187Y007395D02*
X015537Y007395D01*
X015537Y007553D02*
X014187Y007553D01*
X014187Y007712D02*
X015537Y007712D01*
X015537Y007870D02*
X014187Y007870D01*
X014187Y008029D02*
X015537Y008029D01*
X015537Y008187D02*
X014187Y008187D01*
X014187Y008346D02*
X015020Y008346D01*
X014862Y008504D02*
X014187Y008504D01*
X014187Y008663D02*
X014805Y008663D01*
X014805Y008821D02*
X014187Y008821D01*
X014187Y008980D02*
X014867Y008980D01*
X015025Y009139D02*
X014324Y009139D01*
X014377Y009297D02*
X015537Y009297D01*
X015537Y009139D02*
X015444Y009139D01*
X015537Y009456D02*
X014920Y009456D01*
X015078Y009614D02*
X015537Y009614D01*
X015537Y009773D02*
X015147Y009773D01*
X015147Y009931D02*
X015537Y009931D01*
X015537Y010090D02*
X015113Y010090D01*
X014955Y010248D02*
X015537Y010248D01*
X015274Y011041D02*
X012806Y011041D01*
X012964Y011200D02*
X015115Y011200D01*
X014956Y011358D02*
X012980Y011358D01*
X012980Y011517D02*
X013184Y011517D01*
X013025Y011675D02*
X012876Y011675D01*
X012867Y011834D02*
X010900Y011834D01*
X010900Y011992D02*
X012708Y011992D01*
X013024Y012468D02*
X013561Y012468D01*
X013498Y012626D02*
X012866Y012626D01*
X013183Y012309D02*
X013761Y012309D01*
X014094Y012309D02*
X015404Y012309D01*
X015245Y012468D02*
X014294Y012468D01*
X014358Y012626D02*
X015196Y012626D01*
X015196Y012785D02*
X014358Y012785D01*
X014358Y012944D02*
X015199Y012944D01*
X015358Y013102D02*
X014358Y013102D01*
X014358Y013261D02*
X016011Y013261D01*
X016011Y013419D02*
X014321Y013419D01*
X014204Y013578D02*
X015522Y013578D01*
X015902Y013578D02*
X016011Y013578D01*
X016011Y014529D02*
X012460Y014529D01*
X012460Y014416D02*
X012270Y014226D01*
X012270Y014212D01*
X012270Y014127D02*
X012270Y014127D01*
X012414Y014370D02*
X015408Y014370D01*
X016011Y014688D02*
X012460Y014688D01*
X012460Y014772D02*
X012208Y015024D01*
X011852Y015024D01*
X011600Y014772D01*
X011600Y014416D01*
X011777Y014239D01*
X011749Y014212D02*
X009612Y014212D01*
X009503Y014053D02*
X010848Y014053D01*
X010684Y013895D02*
X009662Y013895D01*
X009837Y014370D02*
X011645Y014370D01*
X011600Y014529D02*
X009908Y014529D01*
X009912Y014688D02*
X011600Y014688D01*
X011674Y014846D02*
X009855Y014846D01*
X009684Y015005D02*
X011832Y015005D01*
X011852Y015164D02*
X012208Y015164D01*
X012460Y015416D01*
X012460Y015772D01*
X012208Y016024D01*
X011852Y016024D01*
X011600Y015772D01*
X011600Y015416D01*
X011852Y015164D01*
X011694Y015322D02*
X009034Y015322D01*
X009034Y015480D02*
X011600Y015480D01*
X011600Y015639D02*
X009016Y015639D01*
X008884Y015797D02*
X011625Y015797D01*
X011784Y015956D02*
X009197Y015956D01*
X009355Y016114D02*
X009987Y016114D01*
X009885Y016217D02*
X010137Y015965D01*
X010493Y015965D01*
X010745Y016217D01*
X010745Y016573D01*
X010493Y016825D01*
X010137Y016825D01*
X009885Y016573D01*
X009885Y016217D01*
X009885Y016273D02*
X009440Y016273D01*
X009440Y016432D02*
X009885Y016432D01*
X009903Y016590D02*
X009406Y016590D01*
X009247Y016749D02*
X010061Y016749D01*
X010110Y017061D02*
X010466Y017061D01*
X010718Y017313D01*
X010718Y017669D01*
X010466Y017921D01*
X010110Y017921D01*
X009858Y017669D01*
X009858Y017313D01*
X010110Y017061D01*
X010105Y017066D02*
X009307Y017066D01*
X009188Y016947D02*
X009440Y017199D01*
X009440Y017556D01*
X009188Y017807D01*
X008832Y017807D01*
X008580Y017556D01*
X008580Y017199D01*
X008832Y016947D01*
X009188Y016947D01*
X009440Y017224D02*
X009947Y017224D01*
X009858Y017383D02*
X009440Y017383D01*
X009440Y017541D02*
X009858Y017541D01*
X009890Y017700D02*
X009296Y017700D01*
X008725Y017700D02*
X005979Y017700D01*
X005979Y017858D02*
X006293Y017858D01*
X006343Y017809D02*
X006501Y017743D01*
X007212Y017743D01*
X007370Y017809D01*
X007491Y017930D01*
X007520Y017999D01*
X007670Y017848D01*
X007856Y017848D01*
X007856Y018298D01*
X007857Y018298D01*
X007857Y018298D01*
X008307Y018298D01*
X008307Y018112D01*
X008043Y017848D01*
X007857Y017848D01*
X007857Y018298D01*
X008307Y018298D01*
X008307Y018485D01*
X008043Y018748D01*
X007857Y018748D01*
X007857Y018299D01*
X007856Y018299D01*
X007856Y018748D01*
X007670Y018748D01*
X007415Y018493D01*
X007370Y018538D01*
X007212Y018603D01*
X006501Y018603D01*
X006343Y018538D01*
X006222Y018417D01*
X006157Y018259D01*
X006157Y018088D01*
X006222Y017930D01*
X006343Y017809D01*
X006186Y018017D02*
X005979Y018017D01*
X005979Y018176D02*
X006157Y018176D01*
X006188Y018334D02*
X005979Y018334D01*
X005979Y018493D02*
X006298Y018493D01*
X006343Y018809D02*
X006222Y018930D01*
X006157Y019088D01*
X006157Y019259D01*
X006222Y019417D01*
X006343Y019538D01*
X006501Y019603D01*
X007212Y019603D01*
X007370Y019538D01*
X007407Y019501D01*
X007407Y019548D01*
X007856Y019548D01*
X007856Y019548D01*
X007857Y019548D01*
X007857Y019548D01*
X008307Y019548D01*
X008307Y019362D01*
X008043Y019098D01*
X007857Y019098D01*
X007857Y019548D01*
X008307Y019548D01*
X008307Y019735D01*
X008043Y019998D01*
X007857Y019998D01*
X007857Y019549D01*
X007856Y019549D01*
X007856Y019998D01*
X007670Y019998D01*
X007407Y019735D01*
X007407Y019548D01*
X007856Y019548D01*
X007856Y019098D01*
X007670Y019098D01*
X007557Y019212D01*
X007557Y019088D01*
X007491Y018930D01*
X007370Y018809D01*
X007212Y018743D01*
X006501Y018743D01*
X006343Y018809D01*
X006342Y018810D02*
X005979Y018810D01*
X005979Y018968D02*
X006206Y018968D01*
X006157Y019127D02*
X005979Y019127D01*
X005979Y019285D02*
X006168Y019285D01*
X006249Y019444D02*
X005979Y019444D01*
X005979Y019602D02*
X006499Y019602D01*
X006501Y019743D02*
X006343Y019809D01*
X006222Y019930D01*
X006157Y020088D01*
X006157Y020259D01*
X006222Y020417D01*
X006343Y020538D01*
X006501Y020603D01*
X007212Y020603D01*
X007370Y020538D01*
X007491Y020417D01*
X007557Y020259D01*
X007557Y020088D01*
X007491Y019930D01*
X007370Y019809D01*
X007212Y019743D01*
X006501Y019743D01*
X006458Y019761D02*
X005979Y019761D01*
X005979Y019919D02*
X006232Y019919D01*
X006161Y020078D02*
X005979Y020078D01*
X005979Y020237D02*
X006157Y020237D01*
X006213Y020395D02*
X005979Y020395D01*
X006053Y020554D02*
X006381Y020554D01*
X006212Y020712D02*
X007864Y020712D01*
X008004Y020554D02*
X007332Y020554D01*
X007500Y020395D02*
X007927Y020395D01*
X007927Y020237D02*
X007557Y020237D01*
X007553Y020078D02*
X007969Y020078D01*
X007857Y019919D02*
X007856Y019919D01*
X007856Y019761D02*
X007857Y019761D01*
X007856Y019602D02*
X007857Y019602D01*
X007856Y019444D02*
X007857Y019444D01*
X007856Y019285D02*
X007857Y019285D01*
X007856Y019127D02*
X007857Y019127D01*
X008071Y019127D02*
X008670Y019127D01*
X008511Y019285D02*
X008230Y019285D01*
X008307Y019444D02*
X008427Y019444D01*
X008427Y019602D02*
X008307Y019602D01*
X008280Y019761D02*
X008461Y019761D01*
X008586Y019919D02*
X008620Y019919D01*
X008744Y020078D02*
X008806Y020078D01*
X008806Y020237D02*
X008787Y020237D01*
X008787Y020395D02*
X008806Y020395D01*
X009046Y020500D02*
X008691Y020854D01*
X008061Y020854D01*
X007156Y021759D01*
X007156Y022980D01*
X006487Y023649D01*
X006487Y024830D01*
X006093Y025224D01*
X005467Y025224D01*
X005475Y025192D01*
X005467Y025224D02*
X005463Y025224D01*
X005446Y024676D02*
X005309Y024676D01*
X005309Y024517D02*
X005446Y024517D01*
X005484Y024359D02*
X005309Y024359D01*
X005309Y024200D02*
X005642Y024200D01*
X005668Y023883D02*
X006247Y023883D01*
X006247Y023725D02*
X005826Y023725D01*
X005873Y023566D02*
X006261Y023566D01*
X006389Y023407D02*
X005873Y023407D01*
X005801Y023249D02*
X006547Y023249D01*
X006706Y023090D02*
X005642Y023090D01*
X005882Y022773D02*
X006296Y022773D01*
X006159Y022615D02*
X006019Y022615D01*
X006019Y022456D02*
X006159Y022456D01*
X006159Y022298D02*
X006019Y022298D01*
X005878Y022139D02*
X006207Y022139D01*
X006207Y021981D02*
X005309Y021981D01*
X005309Y021822D02*
X005425Y021822D01*
X005871Y021822D02*
X006207Y021822D01*
X006207Y021663D02*
X006029Y021663D01*
X006078Y021505D02*
X006207Y021505D01*
X006167Y021346D02*
X006078Y021346D01*
X006009Y021188D02*
X006007Y021188D01*
X005850Y021029D02*
X005849Y021029D01*
X005692Y020871D02*
X005309Y020871D01*
X005309Y021029D02*
X005447Y021029D01*
X005534Y020712D02*
X005309Y020712D01*
X005309Y020554D02*
X005499Y020554D01*
X005499Y020395D02*
X005309Y020395D01*
X005309Y020237D02*
X005499Y020237D01*
X005499Y020078D02*
X005309Y020078D01*
X005309Y019919D02*
X005499Y019919D01*
X005499Y019761D02*
X005309Y019761D01*
X005309Y019602D02*
X005499Y019602D01*
X005499Y019444D02*
X005309Y019444D01*
X005309Y019285D02*
X005499Y019285D01*
X005499Y019127D02*
X005309Y019127D01*
X005309Y018968D02*
X005499Y018968D01*
X005499Y018810D02*
X005309Y018810D01*
X005309Y018651D02*
X005499Y018651D01*
X005499Y018493D02*
X005309Y018493D01*
X005309Y018334D02*
X005499Y018334D01*
X005499Y018176D02*
X005309Y018176D01*
X005309Y018017D02*
X005499Y018017D01*
X005499Y017858D02*
X005309Y017858D01*
X005309Y017700D02*
X005499Y017700D01*
X005499Y017541D02*
X005309Y017541D01*
X005309Y017383D02*
X005499Y017383D01*
X005499Y017224D02*
X005309Y017224D01*
X005309Y017066D02*
X005499Y017066D01*
X005499Y016907D02*
X005309Y016907D01*
X005309Y016749D02*
X005499Y016749D01*
X005499Y016590D02*
X005309Y016590D01*
X005309Y016432D02*
X005499Y016432D01*
X005499Y016273D02*
X005309Y016273D01*
X005309Y016114D02*
X005499Y016114D01*
X005499Y015956D02*
X005309Y015956D01*
X005309Y015797D02*
X005499Y015797D01*
X005499Y015639D02*
X005309Y015639D01*
X005309Y015480D02*
X005499Y015480D01*
X005499Y015322D02*
X005309Y015322D01*
X005309Y015163D02*
X005499Y015163D01*
X005499Y015005D02*
X005309Y015005D01*
X005309Y014846D02*
X005499Y014846D01*
X005499Y014688D02*
X005309Y014688D01*
X005309Y014529D02*
X005499Y014529D01*
X005499Y014370D02*
X005309Y014370D01*
X005309Y014212D02*
X005499Y014212D01*
X005499Y014053D02*
X005309Y014053D01*
X005309Y013895D02*
X005499Y013895D01*
X005499Y013736D02*
X005309Y013736D01*
X005309Y013578D02*
X005499Y013578D01*
X005499Y013419D02*
X005309Y013419D01*
X005309Y013261D02*
X005509Y013261D01*
X005631Y013102D02*
X005309Y013102D01*
X005309Y012944D02*
X005832Y012944D01*
X005896Y013177D02*
X005739Y013334D01*
X005739Y020578D01*
X006447Y021287D01*
X006447Y022285D01*
X006589Y022459D01*
X006882Y022773D02*
X006916Y022773D01*
X006864Y022932D02*
X005309Y022932D01*
X004715Y022822D02*
X004715Y012389D01*
X004479Y012153D01*
X003849Y012153D01*
X003849Y012165D01*
X003857Y012173D01*
X004444Y010883D02*
X004613Y010883D01*
X004850Y010883D02*
X005613Y010883D01*
X005850Y010883D02*
X006010Y010883D01*
X006098Y011041D02*
X004887Y011041D01*
X005046Y011200D02*
X006157Y011200D01*
X006198Y011358D02*
X005204Y011358D01*
X005082Y010724D02*
X005381Y010724D01*
X005307Y010565D02*
X005156Y010565D01*
X005161Y010407D02*
X005301Y010407D01*
X005301Y010248D02*
X005161Y010248D01*
X005161Y010090D02*
X005301Y010090D01*
X005301Y009931D02*
X005161Y009931D01*
X005133Y009773D02*
X005330Y009773D01*
X005435Y009614D02*
X005027Y009614D01*
X006054Y009240D02*
X006250Y009437D01*
X006054Y009240D02*
X003337Y009240D01*
X003022Y009555D01*
X003022Y020421D01*
X003258Y020657D01*
X003455Y020657D01*
X003731Y020933D01*
X003731Y025814D01*
X004400Y026484D01*
X010542Y026484D01*
X014006Y023019D01*
X013754Y022932D02*
X013321Y022932D01*
X013419Y023090D02*
X013596Y023090D01*
X013437Y023249D02*
X013419Y023249D01*
X013204Y022773D02*
X013766Y022773D01*
X013740Y022615D02*
X013204Y022615D01*
X013171Y022456D02*
X013581Y022456D01*
X013097Y022298D02*
X013012Y022298D01*
X012940Y023249D02*
X012497Y023249D01*
X012497Y023196D02*
X012497Y023586D01*
X012221Y023861D01*
X011832Y023861D01*
X011557Y023586D01*
X011557Y023196D01*
X011832Y022921D01*
X012221Y022921D01*
X012497Y023196D01*
X012476Y023090D02*
X012391Y023090D01*
X012317Y022932D02*
X012232Y022932D01*
X012264Y022773D02*
X011790Y022773D01*
X011790Y022615D02*
X012264Y022615D01*
X012167Y022456D02*
X011757Y022456D01*
X011683Y022298D02*
X011598Y022298D01*
X011736Y022932D02*
X011821Y022932D01*
X011663Y023090D02*
X011578Y023090D01*
X011557Y023249D02*
X011082Y023249D01*
X011082Y023196D02*
X011082Y023586D01*
X010807Y023861D01*
X010418Y023861D01*
X010143Y023586D01*
X010143Y023196D01*
X010418Y022921D01*
X010807Y022921D01*
X011082Y023196D01*
X011062Y023090D02*
X010977Y023090D01*
X010903Y022932D02*
X010818Y022932D01*
X010850Y022773D02*
X010293Y022773D01*
X010342Y022615D02*
X010850Y022615D01*
X010883Y022456D02*
X010342Y022456D01*
X010407Y022932D02*
X010135Y022932D01*
X010248Y023090D02*
X008642Y023090D01*
X008621Y023070D02*
X008873Y023321D01*
X008873Y023678D01*
X008621Y023929D01*
X008265Y023929D01*
X008013Y023678D01*
X008013Y023321D01*
X008265Y023070D01*
X008621Y023070D01*
X008468Y022886D02*
X008217Y022634D01*
X008217Y022278D01*
X008468Y022026D01*
X008825Y022026D01*
X009076Y022278D01*
X009076Y022634D01*
X008825Y022886D01*
X008468Y022886D01*
X008355Y022773D02*
X007938Y022773D01*
X008076Y022615D02*
X008217Y022615D01*
X008217Y022456D02*
X008076Y022456D01*
X008076Y022298D02*
X008217Y022298D01*
X008356Y022139D02*
X007937Y022139D01*
X008267Y021663D02*
X007591Y021663D01*
X007750Y021505D02*
X008218Y021505D01*
X008218Y021346D02*
X007908Y021346D01*
X008067Y021188D02*
X008289Y021188D01*
X008425Y021822D02*
X007433Y021822D01*
X007396Y021981D02*
X009672Y021981D01*
X009672Y022139D02*
X008937Y022139D01*
X009076Y022298D02*
X009553Y022298D01*
X009483Y022456D02*
X009076Y022456D01*
X009076Y022615D02*
X009483Y022615D01*
X009532Y022773D02*
X008938Y022773D01*
X008801Y023249D02*
X010143Y023249D01*
X010143Y023407D02*
X008873Y023407D01*
X008873Y023566D02*
X010143Y023566D01*
X010100Y023628D02*
X010375Y023903D01*
X010375Y024293D01*
X010100Y024568D01*
X009711Y024568D01*
X009435Y024293D01*
X009435Y023903D01*
X009711Y023628D01*
X010100Y023628D01*
X010197Y023725D02*
X010282Y023725D01*
X010355Y023883D02*
X010870Y023883D01*
X010850Y023903D02*
X011125Y023628D01*
X011514Y023628D01*
X011790Y023903D01*
X011790Y024293D01*
X011514Y024568D01*
X011125Y024568D01*
X010850Y024293D01*
X010850Y023903D01*
X010850Y024042D02*
X010375Y024042D01*
X010375Y024200D02*
X010850Y024200D01*
X010807Y024335D02*
X011082Y024610D01*
X011082Y025000D01*
X010807Y025275D01*
X010418Y025275D01*
X010143Y025000D01*
X010143Y024610D01*
X010418Y024335D01*
X010807Y024335D01*
X010831Y024359D02*
X010916Y024359D01*
X010989Y024517D02*
X011074Y024517D01*
X011082Y024676D02*
X011617Y024676D01*
X011565Y024517D02*
X011775Y024517D01*
X011724Y024359D02*
X011934Y024359D01*
X011790Y024200D02*
X012092Y024200D01*
X012251Y024042D02*
X011790Y024042D01*
X011769Y023883D02*
X012409Y023883D01*
X012358Y023725D02*
X012568Y023725D01*
X012497Y023566D02*
X012726Y023566D01*
X012885Y023407D02*
X012497Y023407D01*
X011696Y023725D02*
X011611Y023725D01*
X011557Y023566D02*
X011082Y023566D01*
X011082Y023407D02*
X011557Y023407D01*
X011028Y023725D02*
X010943Y023725D01*
X010394Y024359D02*
X010309Y024359D01*
X010236Y024517D02*
X010151Y024517D01*
X010143Y024676D02*
X009306Y024676D01*
X009306Y024752D02*
X009054Y025004D01*
X008698Y025004D01*
X008446Y024752D01*
X008446Y024396D01*
X008698Y024144D01*
X009054Y024144D01*
X009306Y024396D01*
X009306Y024752D01*
X009224Y024834D02*
X010143Y024834D01*
X010143Y024993D02*
X009066Y024993D01*
X009306Y024517D02*
X009660Y024517D01*
X009502Y024359D02*
X009269Y024359D01*
X009110Y024200D02*
X009435Y024200D01*
X009435Y024042D02*
X006727Y024042D01*
X006727Y024200D02*
X008642Y024200D01*
X008484Y024359D02*
X006727Y024359D01*
X006727Y024517D02*
X008446Y024517D01*
X008446Y024676D02*
X008286Y024676D01*
X008444Y024834D02*
X008528Y024834D01*
X008603Y024993D02*
X008687Y024993D01*
X008761Y025151D02*
X010294Y025151D01*
X009991Y025933D02*
X009833Y026129D01*
X004872Y026129D01*
X004557Y025814D01*
X004557Y024751D01*
X004715Y024594D01*
X004715Y023925D01*
X004557Y023767D01*
X004557Y022980D01*
X004715Y022822D01*
X005309Y024042D02*
X006247Y024042D01*
X006247Y024200D02*
X006110Y024200D01*
X006727Y023883D02*
X008219Y023883D01*
X008060Y023725D02*
X006751Y023725D01*
X006909Y023566D02*
X008013Y023566D01*
X008013Y023407D02*
X007068Y023407D01*
X007226Y023249D02*
X008086Y023249D01*
X008244Y023090D02*
X007370Y023090D01*
X007396Y022932D02*
X009690Y022932D01*
X009614Y023725D02*
X008826Y023725D01*
X008668Y023883D02*
X009456Y023883D01*
X009361Y025539D02*
X009321Y025539D01*
X010931Y025151D02*
X011141Y025151D01*
X011082Y024993D02*
X011299Y024993D01*
X011458Y024834D02*
X011082Y024834D01*
X010190Y021981D02*
X010152Y021981D01*
X010152Y021822D02*
X010190Y021822D01*
X010190Y021663D02*
X010152Y021663D01*
X009912Y021326D02*
X010896Y021326D01*
X011093Y021129D01*
X011093Y020750D01*
X011107Y020736D01*
X011421Y021029D02*
X011707Y021029D01*
X011549Y020871D02*
X011537Y020871D01*
X011429Y020395D02*
X011374Y020395D01*
X011538Y020237D02*
X010651Y020237D01*
X010597Y020291D02*
X010241Y020291D01*
X009989Y020039D01*
X009989Y019683D01*
X010241Y019431D01*
X010597Y019431D01*
X010849Y019683D01*
X010849Y020039D01*
X010597Y020291D01*
X010374Y020395D02*
X010839Y020395D01*
X010681Y020554D02*
X010533Y020554D01*
X010537Y020712D02*
X010677Y020712D01*
X010677Y020871D02*
X010537Y020871D01*
X010421Y021029D02*
X010792Y021029D01*
X010187Y020237D02*
X009719Y020237D01*
X009719Y020395D02*
X009839Y020395D01*
X009719Y020078D02*
X010028Y020078D01*
X009989Y019919D02*
X009719Y019919D01*
X009719Y019761D02*
X009989Y019761D01*
X010069Y019602D02*
X009719Y019602D01*
X009719Y019444D02*
X010228Y019444D01*
X010236Y019285D02*
X009719Y019285D01*
X009813Y019127D02*
X010077Y019127D01*
X010603Y019285D02*
X010739Y019285D01*
X010739Y019183D02*
X010991Y018931D01*
X011347Y018931D01*
X011595Y019179D01*
X011716Y019058D01*
X012122Y019058D01*
X012409Y019345D01*
X012409Y019751D01*
X012122Y020038D01*
X011716Y020038D01*
X011429Y019751D01*
X011429Y019709D01*
X011347Y019791D01*
X010991Y019791D01*
X010739Y019539D01*
X010739Y019183D01*
X010761Y019127D02*
X010795Y019127D01*
X010849Y018968D02*
X010954Y018968D01*
X010849Y018810D02*
X011271Y018810D01*
X011179Y018651D02*
X010818Y018651D01*
X010659Y018493D02*
X011179Y018493D01*
X011385Y018968D02*
X011430Y018968D01*
X011543Y019127D02*
X011648Y019127D01*
X011787Y018968D02*
X012506Y018968D01*
X012506Y018810D02*
X011946Y018810D01*
X012039Y018651D02*
X012506Y018651D01*
X012506Y018493D02*
X012039Y018493D01*
X012012Y018334D02*
X012506Y018334D01*
X012506Y018176D02*
X011853Y018176D01*
X012097Y017389D02*
X012550Y017389D01*
X012746Y017586D01*
X012746Y020066D01*
X012274Y020539D01*
X011910Y020539D01*
X011919Y020548D01*
X011910Y020539D02*
X011880Y020539D01*
X011696Y020078D02*
X010810Y020078D01*
X010849Y019919D02*
X011597Y019919D01*
X011439Y019761D02*
X011377Y019761D01*
X010961Y019761D02*
X010849Y019761D01*
X010803Y019602D02*
X010769Y019602D01*
X010739Y019444D02*
X010610Y019444D01*
X009653Y018651D02*
X009112Y018651D01*
X009293Y018968D02*
X007507Y018968D01*
X007557Y019127D02*
X007642Y019127D01*
X007371Y018810D02*
X009451Y018810D01*
X009239Y019127D02*
X009043Y019127D01*
X009202Y019285D02*
X009239Y019285D01*
X008857Y019548D02*
X009046Y019737D01*
X009046Y020500D01*
X009172Y020712D02*
X009239Y020712D01*
X009239Y020871D02*
X009014Y020871D01*
X008855Y021029D02*
X009239Y021029D01*
X009276Y021188D02*
X009007Y021188D01*
X009078Y021346D02*
X009435Y021346D01*
X009594Y021505D02*
X009078Y021505D01*
X009029Y021663D02*
X009672Y021663D01*
X009672Y021822D02*
X008871Y021822D01*
X007705Y020871D02*
X006370Y020871D01*
X006529Y021029D02*
X007547Y021029D01*
X007388Y021188D02*
X006666Y021188D01*
X006687Y021346D02*
X007229Y021346D01*
X007071Y021505D02*
X006687Y021505D01*
X006687Y021663D02*
X006936Y021663D01*
X006916Y021822D02*
X006687Y021822D01*
X006687Y021981D02*
X006916Y021981D01*
X006916Y022139D02*
X006878Y022139D01*
X007481Y019919D02*
X007591Y019919D01*
X007433Y019761D02*
X007255Y019761D01*
X007214Y019602D02*
X007407Y019602D01*
X008122Y019919D02*
X008127Y019919D01*
X008140Y018651D02*
X008601Y018651D01*
X008443Y018493D02*
X008299Y018493D01*
X008307Y018334D02*
X008427Y018334D01*
X008427Y018176D02*
X008307Y018176D01*
X008212Y018017D02*
X008530Y018017D01*
X008580Y017541D02*
X007362Y017541D01*
X007505Y017383D02*
X008580Y017383D01*
X008580Y017224D02*
X008521Y017224D01*
X008680Y017066D02*
X008714Y017066D01*
X008580Y016273D02*
X008379Y016273D01*
X008567Y016114D02*
X008665Y016114D01*
X008726Y015956D02*
X008824Y015956D01*
X008523Y015480D02*
X008474Y015480D01*
X008426Y015322D02*
X008554Y015322D01*
X008554Y015163D02*
X008267Y015163D01*
X008044Y014998D02*
X008044Y014549D01*
X008044Y014998D01*
X008044Y014846D02*
X008044Y014846D01*
X008044Y014688D02*
X008044Y014688D01*
X008044Y014549D02*
X008044Y014549D01*
X008044Y014548D02*
X008044Y014123D01*
X008044Y013674D01*
X008044Y013674D01*
X008044Y013736D02*
X008044Y013736D01*
X008044Y013578D02*
X008044Y013578D01*
X008044Y013419D02*
X008044Y013419D01*
X008044Y013261D02*
X008044Y013261D01*
X008268Y013261D02*
X009242Y013261D01*
X009242Y013419D02*
X008427Y013419D01*
X008494Y013578D02*
X009242Y013578D01*
X009142Y013736D02*
X008494Y013736D01*
X008459Y013895D02*
X008983Y013895D01*
X008825Y014053D02*
X008300Y014053D01*
X008344Y014212D02*
X008666Y014212D01*
X008556Y014370D02*
X008494Y014370D01*
X008494Y014529D02*
X008554Y014529D01*
X008554Y014688D02*
X008494Y014688D01*
X008554Y014846D02*
X008383Y014846D01*
X008554Y015005D02*
X007544Y015005D01*
X007577Y015163D02*
X007821Y015163D01*
X007663Y015322D02*
X007552Y015322D01*
X007503Y015480D02*
X007614Y015480D01*
X007706Y014846D02*
X007436Y014846D01*
X007594Y014688D02*
X005979Y014688D01*
X005979Y014846D02*
X006277Y014846D01*
X006169Y015005D02*
X005979Y015005D01*
X005979Y015163D02*
X006137Y015163D01*
X006161Y015322D02*
X005979Y015322D01*
X005979Y015480D02*
X006148Y015480D01*
X005989Y015639D02*
X005979Y015639D01*
X006347Y016590D02*
X006469Y016590D01*
X006488Y016749D02*
X006347Y016749D01*
X006068Y017224D02*
X005979Y017224D01*
X005979Y017383D02*
X006208Y017383D01*
X006352Y017541D02*
X005979Y017541D01*
X005979Y018651D02*
X007573Y018651D01*
X007856Y018651D02*
X007857Y018651D01*
X007856Y018493D02*
X007857Y018493D01*
X007856Y018334D02*
X007857Y018334D01*
X007856Y018176D02*
X007857Y018176D01*
X007856Y018017D02*
X007857Y018017D01*
X007856Y017858D02*
X007857Y017858D01*
X008053Y017858D02*
X010048Y017858D01*
X010529Y017858D02*
X011048Y017858D01*
X010890Y017700D02*
X010687Y017700D01*
X010718Y017541D02*
X010858Y017541D01*
X010858Y017383D02*
X010718Y017383D01*
X010630Y017224D02*
X010947Y017224D01*
X011105Y017066D02*
X010471Y017066D01*
X010569Y016749D02*
X011061Y016749D01*
X010903Y016590D02*
X010728Y016590D01*
X010745Y016432D02*
X010885Y016432D01*
X010885Y016273D02*
X010745Y016273D01*
X010643Y016114D02*
X010987Y016114D01*
X011643Y016114D02*
X013498Y016114D01*
X013498Y015956D02*
X012276Y015956D01*
X012435Y015797D02*
X013498Y015797D01*
X013498Y015639D02*
X012460Y015639D01*
X012460Y015480D02*
X013556Y015480D01*
X013563Y015462D02*
X013498Y015620D01*
X013498Y016331D01*
X013563Y016489D01*
X013684Y016610D01*
X013842Y016676D01*
X014013Y016676D01*
X014171Y016610D01*
X014292Y016489D01*
X014358Y016331D01*
X014358Y015620D01*
X014292Y015462D01*
X014171Y015341D01*
X014013Y015276D01*
X013842Y015276D01*
X013684Y015341D01*
X013563Y015462D01*
X013731Y015322D02*
X012366Y015322D01*
X012227Y015005D02*
X016011Y015005D01*
X016011Y015163D02*
X009034Y015163D01*
X009034Y015005D02*
X009279Y015005D01*
X009109Y014846D02*
X009034Y014846D01*
X009034Y014688D02*
X009052Y014688D01*
X009055Y014529D02*
X009034Y014529D01*
X009345Y014212D02*
X009351Y014212D01*
X009242Y013102D02*
X008223Y013102D01*
X008382Y012944D02*
X009108Y012944D01*
X009052Y012785D02*
X008474Y012785D01*
X008534Y012586D02*
X009597Y011523D01*
X009597Y009996D01*
X009607Y009986D01*
X009607Y008786D01*
X008919Y008098D01*
X008919Y008098D01*
X008919Y007603D01*
X008714Y007603D01*
X008424Y007893D01*
X008424Y008098D01*
X008919Y008098D01*
X008919Y007603D01*
X009124Y007603D01*
X009414Y007893D01*
X009414Y008098D01*
X008919Y008098D01*
X008919Y008098D01*
X008919Y008098D01*
X008424Y008098D01*
X008424Y008303D01*
X008714Y008593D01*
X008919Y008593D01*
X008919Y008099D01*
X008919Y008099D01*
X008919Y008593D01*
X009124Y008593D01*
X009414Y008303D01*
X009414Y008098D01*
X008919Y008098D01*
X008919Y008029D02*
X008919Y008029D01*
X008919Y008187D02*
X008919Y008187D01*
X008919Y008346D02*
X008919Y008346D01*
X008919Y008504D02*
X008919Y008504D01*
X008625Y008504D02*
X007472Y008504D01*
X007472Y008346D02*
X008467Y008346D01*
X008424Y008187D02*
X007472Y008187D01*
X007472Y008029D02*
X008424Y008029D01*
X008447Y007870D02*
X007472Y007870D01*
X007472Y007712D02*
X008606Y007712D01*
X008919Y007712D02*
X008919Y007712D01*
X008919Y007870D02*
X008919Y007870D01*
X009232Y007712D02*
X010013Y007712D01*
X010171Y007870D02*
X009391Y007870D01*
X009414Y008029D02*
X010330Y008029D01*
X010420Y008187D02*
X009414Y008187D01*
X009372Y008346D02*
X010420Y008346D01*
X010420Y008504D02*
X009213Y008504D01*
X009854Y007553D02*
X007472Y007553D01*
X007472Y007395D02*
X009696Y007395D01*
X009537Y007236D02*
X007472Y007236D01*
X006992Y007870D02*
X006932Y007870D01*
X006992Y008029D02*
X002463Y008029D01*
X002327Y008187D02*
X006992Y008187D01*
X006732Y007870D02*
X006731Y007870D01*
X006731Y007712D02*
X006732Y007712D01*
X006731Y007553D02*
X006732Y007553D01*
X006731Y007395D02*
X006732Y007395D01*
X007444Y008663D02*
X010420Y008663D01*
X010420Y008821D02*
X007298Y008821D01*
X006006Y009000D02*
X003385Y009000D01*
X003289Y009000D01*
X003201Y009036D01*
X002886Y009351D01*
X002819Y009419D01*
X002782Y009507D01*
X002782Y014329D01*
X002619Y014166D01*
X002263Y014166D01*
X002011Y014418D01*
X002011Y014774D01*
X002263Y015026D01*
X002619Y015026D01*
X002782Y014863D01*
X002782Y015659D01*
X002710Y015587D01*
X002538Y015516D01*
X001731Y015516D01*
X001558Y015587D01*
X001426Y015720D01*
X001354Y015892D01*
X001354Y015922D01*
X001126Y016151D01*
X001089Y016239D01*
X001089Y016335D01*
X001089Y022145D01*
X001089Y022240D01*
X001126Y022328D01*
X001208Y022410D01*
X001127Y022491D01*
X001127Y022847D01*
X001277Y022997D01*
X001277Y024219D01*
X001277Y024331D01*
X001320Y024434D01*
X002045Y025158D01*
X002045Y025371D01*
X002297Y025622D01*
X002653Y025622D01*
X002905Y025371D01*
X002905Y025014D01*
X002653Y024762D01*
X002441Y024762D01*
X001837Y024159D01*
X001837Y022997D01*
X001987Y022847D01*
X001987Y022491D01*
X001820Y022324D01*
X001795Y022262D01*
X001716Y022183D01*
X001620Y022143D01*
X001569Y022093D01*
X001569Y021410D01*
X001727Y021476D01*
X002114Y021476D01*
X002114Y021006D01*
X002154Y021006D01*
X002154Y021476D01*
X002542Y021476D01*
X002722Y021401D01*
X002739Y021384D01*
X003001Y021646D01*
X003187Y021646D01*
X003187Y021197D01*
X003188Y021197D01*
X003188Y021646D01*
X003374Y021646D01*
X003491Y021529D01*
X003491Y023892D01*
X003365Y023766D01*
X003009Y023766D01*
X002757Y024018D01*
X002757Y024374D01*
X003009Y024626D01*
X003365Y024626D01*
X003491Y024501D01*
X003491Y025767D01*
X003491Y025862D01*
X003527Y025950D01*
X004097Y026520D01*
X001057Y026520D01*
X001057Y014848D01*
X001255Y015046D01*
X001441Y015046D01*
X001441Y014596D01*
X001442Y014596D01*
X001891Y014596D01*
X001891Y014782D01*
X001628Y015046D01*
X001442Y015046D01*
X001442Y014596D01*
X001442Y014596D01*
X001891Y014596D01*
X001891Y014410D01*
X001628Y014146D01*
X001442Y014146D01*
X001442Y014596D01*
X001441Y014596D01*
X001441Y014146D01*
X001255Y014146D01*
X001057Y014344D01*
X001057Y014082D01*
X001070Y014069D01*
X001070Y013903D01*
X001057Y013889D01*
X001057Y010332D01*
X001070Y010319D01*
X001070Y010153D01*
X001057Y010139D01*
X001057Y009586D01*
X001197Y009726D01*
X001197Y009895D01*
X001177Y009943D01*
X001177Y010654D01*
X001242Y010812D01*
X001363Y010933D01*
X001521Y010998D01*
X001692Y010998D01*
X001850Y010933D01*
X002008Y010724D02*
X002782Y010724D01*
X002782Y010565D02*
X002037Y010565D01*
X002037Y010407D02*
X002782Y010407D01*
X002782Y010248D02*
X002037Y010248D01*
X002037Y010090D02*
X002782Y010090D01*
X002782Y009931D02*
X002032Y009931D01*
X002017Y009773D02*
X002782Y009773D01*
X002782Y009614D02*
X002017Y009614D01*
X002009Y009456D02*
X002803Y009456D01*
X002940Y009297D02*
X001927Y009297D01*
X002044Y009139D02*
X002044Y009139D01*
X002044Y008980D02*
X002044Y008980D01*
X002404Y009139D02*
X003099Y009139D01*
X002782Y011041D02*
X001057Y011041D01*
X001057Y010883D02*
X001313Y010883D01*
X001206Y010724D02*
X001057Y010724D01*
X001057Y010565D02*
X001177Y010565D01*
X001177Y010407D02*
X001057Y010407D01*
X001070Y010248D02*
X001177Y010248D01*
X001177Y010090D02*
X001057Y010090D01*
X001057Y009931D02*
X001181Y009931D01*
X001197Y009773D02*
X001057Y009773D01*
X001057Y009614D02*
X001084Y009614D01*
X001660Y008346D02*
X001797Y008346D01*
X001761Y008187D02*
X001660Y008187D01*
X001142Y006760D02*
X001057Y006760D01*
X001057Y006602D02*
X002052Y006602D01*
X001894Y006443D02*
X001057Y006443D01*
X001057Y006285D02*
X001801Y006285D01*
X001801Y006126D02*
X001057Y006126D01*
X001057Y005968D02*
X001829Y005968D01*
X001987Y005809D02*
X001057Y005809D01*
X001057Y011200D02*
X002782Y011200D01*
X002782Y011358D02*
X001057Y011358D01*
X001057Y011517D02*
X002782Y011517D01*
X002782Y011675D02*
X001057Y011675D01*
X001057Y011834D02*
X002782Y011834D01*
X002782Y011992D02*
X001057Y011992D01*
X001057Y012151D02*
X002782Y012151D01*
X002782Y012309D02*
X001057Y012309D01*
X001057Y012468D02*
X002782Y012468D01*
X002782Y012626D02*
X001812Y012626D01*
X001862Y012647D02*
X001988Y012773D01*
X002057Y012939D01*
X002057Y013298D01*
X001607Y013298D01*
X001607Y013299D01*
X001606Y013299D01*
X001606Y014018D01*
X001517Y014018D01*
X001352Y013950D01*
X001225Y013823D01*
X001157Y013658D01*
X001157Y013299D01*
X001606Y013299D01*
X001606Y013298D01*
X001157Y013298D01*
X001157Y012939D01*
X001225Y012773D01*
X001352Y012647D01*
X001517Y012578D01*
X001606Y012578D01*
X001606Y013298D01*
X001607Y013298D01*
X001607Y012578D01*
X001696Y012578D01*
X001862Y012647D01*
X001993Y012785D02*
X002782Y012785D01*
X002782Y012944D02*
X002057Y012944D01*
X002057Y013102D02*
X002782Y013102D01*
X002782Y013261D02*
X002057Y013261D01*
X002057Y013299D02*
X002057Y013658D01*
X001988Y013823D01*
X001862Y013950D01*
X001696Y014018D01*
X001607Y014018D01*
X001607Y013299D01*
X002057Y013299D01*
X002057Y013419D02*
X002782Y013419D01*
X002782Y013578D02*
X002057Y013578D01*
X002024Y013736D02*
X002782Y013736D01*
X002782Y013895D02*
X001916Y013895D01*
X001852Y014370D02*
X002059Y014370D01*
X002011Y014529D02*
X001891Y014529D01*
X001891Y014688D02*
X002011Y014688D01*
X002083Y014846D02*
X001828Y014846D01*
X001669Y015005D02*
X002242Y015005D01*
X002641Y015005D02*
X002782Y015005D01*
X002782Y015163D02*
X001057Y015163D01*
X001057Y015005D02*
X001214Y015005D01*
X001441Y015005D02*
X001442Y015005D01*
X001441Y014846D02*
X001442Y014846D01*
X001441Y014688D02*
X001442Y014688D01*
X001441Y014529D02*
X001442Y014529D01*
X001441Y014370D02*
X001442Y014370D01*
X001441Y014212D02*
X001442Y014212D01*
X001694Y014212D02*
X002217Y014212D01*
X002665Y014212D02*
X002782Y014212D01*
X002782Y014053D02*
X001070Y014053D01*
X001062Y013895D02*
X001297Y013895D01*
X001189Y013736D02*
X001057Y013736D01*
X001057Y013578D02*
X001157Y013578D01*
X001157Y013419D02*
X001057Y013419D01*
X001057Y013261D02*
X001157Y013261D01*
X001157Y013102D02*
X001057Y013102D01*
X001057Y012944D02*
X001157Y012944D01*
X001220Y012785D02*
X001057Y012785D01*
X001057Y012626D02*
X001401Y012626D01*
X001606Y012626D02*
X001607Y012626D01*
X001606Y012785D02*
X001607Y012785D01*
X001606Y012944D02*
X001607Y012944D01*
X001606Y013102D02*
X001607Y013102D01*
X001606Y013261D02*
X001607Y013261D01*
X001606Y013419D02*
X001607Y013419D01*
X001606Y013578D02*
X001607Y013578D01*
X001606Y013736D02*
X001607Y013736D01*
X001606Y013895D02*
X001607Y013895D01*
X001189Y014212D02*
X001057Y014212D01*
X001057Y015322D02*
X002782Y015322D01*
X002782Y015480D02*
X001057Y015480D01*
X001057Y015639D02*
X001506Y015639D01*
X001393Y015797D02*
X001057Y015797D01*
X001057Y015956D02*
X001321Y015956D01*
X001162Y016114D02*
X001057Y016114D01*
X001057Y016273D02*
X001089Y016273D01*
X001089Y016432D02*
X001057Y016432D01*
X001057Y016590D02*
X001089Y016590D01*
X001089Y016749D02*
X001057Y016749D01*
X001057Y016907D02*
X001089Y016907D01*
X001089Y017066D02*
X001057Y017066D01*
X001057Y017224D02*
X001089Y017224D01*
X001089Y017383D02*
X001057Y017383D01*
X001057Y017541D02*
X001089Y017541D01*
X001089Y017700D02*
X001057Y017700D01*
X001057Y017858D02*
X001089Y017858D01*
X001089Y018017D02*
X001057Y018017D01*
X001057Y018176D02*
X001089Y018176D01*
X001089Y018334D02*
X001057Y018334D01*
X001057Y018493D02*
X001089Y018493D01*
X001089Y018651D02*
X001057Y018651D01*
X001057Y018810D02*
X001089Y018810D01*
X001089Y018968D02*
X001057Y018968D01*
X001057Y019127D02*
X001089Y019127D01*
X001089Y019285D02*
X001057Y019285D01*
X001057Y019444D02*
X001089Y019444D01*
X001089Y019602D02*
X001057Y019602D01*
X001057Y019761D02*
X001089Y019761D01*
X001089Y019919D02*
X001057Y019919D01*
X001057Y020078D02*
X001089Y020078D01*
X001089Y020237D02*
X001057Y020237D01*
X001057Y020395D02*
X001089Y020395D01*
X001089Y020554D02*
X001057Y020554D01*
X001057Y020712D02*
X001089Y020712D01*
X001089Y020871D02*
X001057Y020871D01*
X001057Y021029D02*
X001089Y021029D01*
X001089Y021188D02*
X001057Y021188D01*
X001057Y021346D02*
X001089Y021346D01*
X001089Y021505D02*
X001057Y021505D01*
X001057Y021663D02*
X001089Y021663D01*
X001089Y021822D02*
X001057Y021822D01*
X001057Y021981D02*
X001089Y021981D01*
X001089Y022139D02*
X001057Y022139D01*
X001057Y022298D02*
X001113Y022298D01*
X001162Y022456D02*
X001057Y022456D01*
X001057Y022615D02*
X001127Y022615D01*
X001127Y022773D02*
X001057Y022773D01*
X001057Y022932D02*
X001212Y022932D01*
X001277Y023090D02*
X001057Y023090D01*
X001057Y023249D02*
X001277Y023249D01*
X001277Y023407D02*
X001057Y023407D01*
X001057Y023566D02*
X001277Y023566D01*
X001277Y023725D02*
X001057Y023725D01*
X001057Y023883D02*
X001277Y023883D01*
X001277Y024042D02*
X001057Y024042D01*
X001057Y024200D02*
X001277Y024200D01*
X001289Y024359D02*
X001057Y024359D01*
X001057Y024517D02*
X001404Y024517D01*
X001562Y024676D02*
X001057Y024676D01*
X001057Y024834D02*
X001721Y024834D01*
X001879Y024993D02*
X001057Y024993D01*
X001057Y025151D02*
X002038Y025151D01*
X002045Y025310D02*
X001807Y025310D01*
X001736Y025239D02*
X001987Y025491D01*
X001987Y025847D01*
X001736Y026099D01*
X001379Y026099D01*
X001127Y025847D01*
X001127Y025491D01*
X001379Y025239D01*
X001736Y025239D01*
X001965Y025469D02*
X002143Y025469D01*
X001987Y025627D02*
X003491Y025627D01*
X003491Y025469D02*
X002807Y025469D01*
X002905Y025310D02*
X003491Y025310D01*
X003491Y025151D02*
X002905Y025151D01*
X002883Y024993D02*
X003491Y024993D01*
X003491Y024834D02*
X002725Y024834D01*
X002900Y024517D02*
X002196Y024517D01*
X002354Y024676D02*
X003491Y024676D01*
X003475Y024517D02*
X003491Y024517D01*
X003482Y023883D02*
X003491Y023883D01*
X003491Y023725D02*
X001837Y023725D01*
X001837Y023883D02*
X002893Y023883D01*
X002757Y024042D02*
X001837Y024042D01*
X001878Y024200D02*
X002757Y024200D01*
X002757Y024359D02*
X002037Y024359D01*
X001837Y023566D02*
X003491Y023566D01*
X003491Y023407D02*
X001837Y023407D01*
X001837Y023249D02*
X003491Y023249D01*
X003491Y023090D02*
X001837Y023090D01*
X001903Y022932D02*
X003491Y022932D01*
X003491Y022773D02*
X001987Y022773D01*
X001987Y022615D02*
X003491Y022615D01*
X003491Y022456D02*
X001953Y022456D01*
X001809Y022298D02*
X003491Y022298D01*
X003491Y022139D02*
X001615Y022139D01*
X001569Y021981D02*
X003491Y021981D01*
X003491Y021822D02*
X001569Y021822D01*
X001569Y021663D02*
X003491Y021663D01*
X003188Y021505D02*
X003187Y021505D01*
X003187Y021346D02*
X003188Y021346D01*
X002860Y021505D02*
X001569Y021505D01*
X001329Y022192D02*
X001557Y022421D01*
X001329Y022192D02*
X001329Y016287D01*
X001644Y015972D01*
X002156Y015972D01*
X002142Y015986D01*
X002134Y015986D01*
X002762Y015639D02*
X002782Y015639D01*
X005309Y012785D02*
X006400Y012785D01*
X006257Y013895D02*
X005979Y013895D01*
X005979Y014053D02*
X006171Y014053D01*
X006157Y014212D02*
X005979Y014212D01*
X005979Y014370D02*
X006203Y014370D01*
X006334Y014529D02*
X005979Y014529D01*
X007440Y012468D02*
X007641Y012468D01*
X007536Y012309D02*
X007800Y012309D01*
X008044Y013895D02*
X008044Y013895D01*
X008044Y014053D02*
X008044Y014053D01*
X008044Y014212D02*
X008044Y014212D01*
X008044Y014370D02*
X008044Y014370D01*
X008044Y014529D02*
X008044Y014529D01*
X007647Y016273D02*
X007551Y016273D01*
X007469Y016907D02*
X007830Y016907D01*
X007840Y017066D02*
X007547Y017066D01*
X007557Y017224D02*
X007999Y017224D01*
X007660Y017858D02*
X007420Y017858D01*
X010900Y012151D02*
X011133Y012151D01*
X011328Y012151D02*
X012079Y012151D01*
X011919Y012309D02*
X011572Y012309D01*
X011651Y012468D02*
X011760Y012468D01*
X012076Y012944D02*
X013498Y012944D01*
X013498Y013102D02*
X011913Y013102D01*
X011636Y013261D02*
X013498Y013261D01*
X013498Y012785D02*
X012235Y012785D01*
X013341Y012151D02*
X016011Y012151D01*
X016007Y012309D02*
X016011Y012309D01*
X016011Y011992D02*
X013500Y011992D01*
X013694Y010724D02*
X012855Y010724D01*
X013000Y010565D02*
X013535Y010565D01*
X013517Y010407D02*
X013000Y010407D01*
X013000Y010248D02*
X013517Y010248D01*
X013619Y010090D02*
X012883Y010090D01*
X012798Y009931D02*
X014247Y009931D01*
X014247Y009773D02*
X014152Y009773D01*
X014311Y009614D02*
X014316Y009614D01*
X014377Y009456D02*
X014475Y009456D01*
X014697Y009456D02*
X014697Y009456D01*
X014697Y009614D02*
X014697Y009614D01*
X014697Y009773D02*
X014697Y009773D01*
X014697Y009870D02*
X014715Y009887D01*
X014281Y010090D02*
X014276Y010090D01*
X013707Y008980D02*
X011661Y008980D01*
X011661Y009139D02*
X012317Y009139D01*
X012371Y008973D02*
X012120Y008721D01*
X012120Y008365D01*
X012371Y008113D01*
X012728Y008113D01*
X012980Y008365D01*
X012980Y008721D01*
X012728Y008973D01*
X012371Y008973D01*
X012220Y008821D02*
X011661Y008821D01*
X011661Y008663D02*
X012120Y008663D01*
X012120Y008504D02*
X011661Y008504D01*
X011601Y008346D02*
X012139Y008346D01*
X012297Y008187D02*
X011416Y008187D01*
X011045Y008187D02*
X010900Y008187D01*
X010900Y008029D02*
X013707Y008029D01*
X013707Y008187D02*
X012802Y008187D01*
X012961Y008346D02*
X013707Y008346D01*
X013707Y008504D02*
X012980Y008504D01*
X012980Y008663D02*
X013707Y008663D01*
X013707Y008821D02*
X012879Y008821D01*
X012159Y009297D02*
X011621Y009297D01*
X011499Y009456D02*
X012100Y009456D01*
X012100Y009614D02*
X010900Y009614D01*
X010900Y009456D02*
X010962Y009456D01*
X010900Y009773D02*
X012143Y009773D01*
X012549Y010724D02*
X012550Y010724D01*
X013707Y007870D02*
X010850Y007870D01*
X010692Y007712D02*
X013707Y007712D01*
X013707Y007553D02*
X010533Y007553D01*
X010375Y007395D02*
X013707Y007395D01*
X013707Y007236D02*
X010216Y007236D01*
X010058Y007077D02*
X013707Y007077D01*
X013707Y006919D02*
X009916Y006919D01*
X009436Y006126D02*
X008324Y006126D01*
X008483Y005968D02*
X009436Y005968D01*
X009436Y005809D02*
X008537Y005809D01*
X008537Y005651D02*
X009436Y005651D01*
X009436Y005492D02*
X008471Y005492D01*
X008313Y005334D02*
X009436Y005334D01*
X009413Y005175D02*
X008183Y005175D01*
X008183Y005016D02*
X009254Y005016D01*
X009096Y004858D02*
X008149Y004858D01*
X007994Y004699D02*
X008937Y004699D01*
X008779Y004541D02*
X007836Y004541D01*
X007677Y004382D02*
X008620Y004382D01*
X009045Y003590D02*
X014807Y003590D01*
X015265Y004224D02*
X015425Y004224D01*
X015425Y004197D02*
X015845Y004197D01*
X015950Y004303D01*
X015950Y004648D01*
X015425Y004648D01*
X015425Y004197D01*
X015425Y004382D02*
X015265Y004382D01*
X015265Y004541D02*
X015425Y004541D01*
X015425Y004699D02*
X016011Y004699D01*
X015950Y004808D02*
X015950Y005153D01*
X015845Y005258D01*
X015425Y005258D01*
X015425Y004808D01*
X015950Y004808D01*
X015950Y004858D02*
X016011Y004858D01*
X016011Y005016D02*
X015950Y005016D01*
X015928Y005175D02*
X016011Y005175D01*
X016011Y005334D02*
X015437Y005334D01*
X015425Y005175D02*
X015265Y005175D01*
X015265Y005016D02*
X015425Y005016D01*
X015425Y004858D02*
X015265Y004858D01*
X015265Y004699D02*
X009616Y004699D01*
X009774Y004858D02*
X010576Y004858D01*
X010410Y005016D02*
X009901Y005016D01*
X009916Y005175D02*
X010256Y005175D01*
X010201Y005334D02*
X009916Y005334D01*
X009916Y005492D02*
X010057Y005492D01*
X010002Y005651D02*
X009916Y005651D01*
X009916Y005809D02*
X010002Y005809D01*
X010841Y005492D02*
X012026Y005492D01*
X011970Y005651D02*
X010896Y005651D01*
X010896Y005809D02*
X011970Y005809D01*
X011970Y005968D02*
X010896Y005968D01*
X010896Y006126D02*
X011970Y006126D01*
X011970Y006285D02*
X010896Y006285D01*
X010869Y006443D02*
X011997Y006443D01*
X012098Y006602D02*
X010769Y006602D01*
X010772Y005334D02*
X012170Y005334D01*
X011472Y003114D02*
X011372Y003114D01*
X011372Y002955D02*
X011472Y002955D01*
X011472Y002797D02*
X011372Y002797D01*
X011372Y002638D02*
X011472Y002638D01*
X011472Y002480D02*
X011372Y002480D01*
X011372Y002163D02*
X011472Y002163D01*
X011472Y002004D02*
X011372Y002004D01*
X011372Y001846D02*
X011472Y001846D01*
X011472Y001687D02*
X011372Y001687D01*
X011372Y001528D02*
X011472Y001528D01*
X011816Y001528D02*
X013036Y001528D01*
X012911Y001687D02*
X011934Y001687D01*
X011992Y001846D02*
X012852Y001846D01*
X012852Y002004D02*
X011992Y002004D01*
X014456Y001053D02*
X009516Y001053D01*
X007929Y004224D02*
X007519Y004224D01*
X007658Y005809D02*
X007677Y005809D01*
X007731Y005968D02*
X007500Y005968D01*
X012460Y014416D02*
X012460Y014772D01*
X012386Y014846D02*
X016011Y014846D01*
X016011Y015322D02*
X014124Y015322D01*
X014299Y015480D02*
X016011Y015480D01*
X016011Y015639D02*
X014358Y015639D01*
X014358Y015797D02*
X016011Y015797D01*
X016011Y015956D02*
X014358Y015956D01*
X014358Y016114D02*
X016011Y016114D01*
X016011Y016273D02*
X014358Y016273D01*
X014316Y016432D02*
X016011Y016432D01*
X016011Y016590D02*
X014191Y016590D01*
X013664Y016590D02*
X011728Y016590D01*
X011745Y016432D02*
X013539Y016432D01*
X013498Y016273D02*
X011745Y016273D01*
X012381Y017066D02*
X014784Y017066D01*
X014910Y016939D02*
X015097Y016939D01*
X015283Y016939D01*
X015547Y017203D01*
X015547Y017389D01*
X015097Y017389D01*
X015097Y016939D01*
X015097Y017389D01*
X015097Y017389D01*
X015097Y017389D01*
X015547Y017389D01*
X015547Y017576D01*
X015283Y017839D01*
X015097Y017839D01*
X015097Y017390D01*
X015097Y017390D01*
X015097Y017839D01*
X014910Y017839D01*
X014647Y017576D01*
X014647Y017389D01*
X014647Y017203D01*
X014910Y016939D01*
X014647Y017224D02*
X012724Y017224D01*
X012883Y017383D02*
X014647Y017383D01*
X014647Y017389D02*
X015096Y017389D01*
X015096Y017389D01*
X014647Y017389D01*
X014647Y017541D02*
X012986Y017541D01*
X012986Y017700D02*
X014771Y017700D01*
X014795Y018089D02*
X014609Y018089D01*
X014609Y018538D01*
X014608Y018538D01*
X014608Y018089D01*
X014422Y018089D01*
X014159Y018352D01*
X014159Y018539D01*
X014608Y018539D01*
X014608Y018539D01*
X014159Y018539D01*
X014159Y018725D01*
X014422Y018989D01*
X014608Y018989D01*
X014608Y018539D01*
X014609Y018539D01*
X015059Y018539D01*
X015059Y018725D01*
X014795Y018989D01*
X014609Y018989D01*
X014609Y018539D01*
X014609Y018539D01*
X015059Y018539D01*
X015059Y018352D01*
X014795Y018089D01*
X014882Y018176D02*
X016011Y018176D01*
X016011Y018334D02*
X015040Y018334D01*
X015059Y018493D02*
X016011Y018493D01*
X016011Y018651D02*
X015059Y018651D01*
X014974Y018810D02*
X016011Y018810D01*
X016011Y018968D02*
X014816Y018968D01*
X014609Y018968D02*
X014608Y018968D01*
X014608Y018810D02*
X014609Y018810D01*
X014608Y018651D02*
X014609Y018651D01*
X014608Y018493D02*
X014609Y018493D01*
X014608Y018334D02*
X014609Y018334D01*
X014608Y018176D02*
X014609Y018176D01*
X014336Y018176D02*
X012986Y018176D01*
X012986Y018334D02*
X014177Y018334D01*
X014159Y018493D02*
X012986Y018493D01*
X012986Y018651D02*
X014159Y018651D01*
X014243Y018810D02*
X012986Y018810D01*
X012986Y018968D02*
X014402Y018968D01*
X014431Y020237D02*
X014516Y020237D01*
X013637Y020395D02*
X013580Y020395D01*
X013478Y020554D02*
X013461Y020554D01*
X013421Y020554D02*
X013404Y020554D01*
X013319Y020712D02*
X013263Y020712D01*
X013245Y020395D02*
X013302Y020395D01*
X013143Y020237D02*
X013087Y020237D01*
X013074Y020237D02*
X012916Y020237D01*
X012882Y020270D02*
X012882Y020270D01*
X012951Y020395D02*
X012757Y020395D01*
X012599Y020554D02*
X012951Y020554D01*
X012986Y020078D02*
X013232Y020078D01*
X013562Y020712D02*
X013619Y020712D01*
X013884Y021505D02*
X013941Y021505D01*
X013849Y021663D02*
X013792Y021663D01*
X012477Y020675D02*
X012477Y020675D01*
X012395Y020078D02*
X012142Y020078D01*
X012241Y019919D02*
X012506Y019919D01*
X012506Y019761D02*
X012399Y019761D01*
X012409Y019602D02*
X012506Y019602D01*
X012506Y019444D02*
X012409Y019444D01*
X012349Y019285D02*
X012506Y019285D01*
X012506Y019127D02*
X012190Y019127D01*
X012986Y019127D02*
X016011Y019127D01*
X016011Y019285D02*
X012986Y019285D01*
X012986Y018017D02*
X016011Y018017D01*
X016011Y017858D02*
X012986Y017858D01*
X015097Y017700D02*
X015097Y017700D01*
X015097Y017541D02*
X015097Y017541D01*
X015097Y017383D02*
X015097Y017383D01*
X015097Y017224D02*
X015097Y017224D01*
X015097Y017066D02*
X015097Y017066D01*
X015410Y017066D02*
X016011Y017066D01*
X016011Y017224D02*
X015547Y017224D01*
X015547Y017383D02*
X016011Y017383D01*
X016011Y017541D02*
X015547Y017541D01*
X015423Y017700D02*
X016011Y017700D01*
X016011Y011834D02*
X015273Y011834D01*
X015431Y011675D02*
X016011Y011675D01*
X016011Y011517D02*
X015590Y011517D01*
X015748Y011358D02*
X016011Y011358D01*
X016011Y011200D02*
X015907Y011200D01*
X015537Y008346D02*
X015449Y008346D01*
X015514Y007236D02*
X015420Y007142D01*
X015514Y007236D02*
X015537Y007236D01*
X016011Y006285D02*
X014187Y006285D01*
X015456Y006126D02*
X016011Y006126D01*
X016011Y005968D02*
X015615Y005968D01*
X015665Y005809D02*
X016011Y005809D01*
X016011Y005651D02*
X015665Y005651D01*
X015595Y005492D02*
X016011Y005492D01*
X016011Y004541D02*
X015950Y004541D01*
X015950Y004382D02*
X016011Y004382D01*
X016011Y004224D02*
X015871Y004224D01*
X006971Y024676D02*
X006727Y024676D01*
X006727Y024834D02*
X006812Y024834D01*
X003997Y026420D02*
X001057Y026420D01*
X001057Y026261D02*
X003838Y026261D01*
X003680Y026103D02*
X001057Y026103D01*
X001057Y025944D02*
X001225Y025944D01*
X001127Y025786D02*
X001057Y025786D01*
X001057Y025627D02*
X001127Y025627D01*
X001150Y025469D02*
X001057Y025469D01*
X001057Y025310D02*
X001308Y025310D01*
X001987Y025786D02*
X003491Y025786D01*
X003525Y025944D02*
X001890Y025944D01*
X002114Y021346D02*
X002154Y021346D01*
X002154Y021188D02*
X002114Y021188D01*
X002114Y021029D02*
X002154Y021029D01*
X002154Y020966D02*
X002154Y020496D01*
X002542Y020496D01*
X002722Y020570D01*
X002860Y020708D01*
X002912Y020835D01*
X003001Y020746D01*
X003008Y020746D01*
X002819Y020557D01*
X002782Y020469D01*
X002782Y020373D01*
X002782Y020313D01*
X002710Y020384D01*
X002538Y020456D01*
X001731Y020456D01*
X001569Y020389D01*
X001569Y020561D01*
X001727Y020496D01*
X002114Y020496D01*
X002114Y020966D01*
X002154Y020966D01*
X002154Y020871D02*
X002114Y020871D01*
X002114Y020712D02*
X002154Y020712D01*
X002154Y020554D02*
X002114Y020554D01*
X001587Y020554D02*
X001569Y020554D01*
X001569Y020395D02*
X001584Y020395D01*
X002684Y020395D02*
X002782Y020395D01*
X002817Y020554D02*
X002681Y020554D01*
X002861Y020712D02*
X002974Y020712D01*
D24*
X001607Y010298D02*
X001607Y009557D01*
X001250Y009200D01*
X001250Y007232D01*
X001447Y007035D01*
X002471Y007035D01*
X003652Y005854D01*
X004731Y006933D01*
X004731Y007196D01*
X003652Y005854D02*
X004439Y005066D01*
X007345Y005066D01*
X007347Y005065D01*
X011422Y002364D02*
X013652Y004594D01*
X014715Y004594D01*
X015329Y004594D01*
X015345Y004728D01*
X015345Y003126D02*
X013561Y003126D01*
X013416Y002862D01*
X013416Y002344D01*
X013402Y002330D01*
X011422Y002330D02*
X011422Y002364D01*
D25*
X010778Y014437D03*
D26*
X015712Y014032D03*
D27*
X015706Y012729D03*
D28*
X015030Y011681D02*
X013416Y011681D01*
X012707Y012389D01*
X012235Y012389D01*
X011762Y012862D01*
X011246Y012862D01*
X011231Y012846D01*
X015030Y011681D02*
X015817Y010893D01*
X015817Y006838D01*
X001557Y024275D02*
X002475Y025192D01*
X001557Y024275D02*
X001557Y022669D01*
X001557Y022421D01*
D29*
X015817Y006838D03*
D30*
X009991Y025933D03*
M02*
