G75*
G70*
%OFA0B0*%
%FSLAX24Y24*%
%IPPOS*%
%LPD*%
%AMOC8*
5,1,8,0,0,1.08239X$1,22.5*
%
%ADD10C,0.0620*%
%ADD11OC8,0.0620*%
%ADD12C,0.0700*%
%ADD13OC8,0.0710*%
%ADD14C,0.0710*%
%ADD15C,0.0654*%
%ADD16OC8,0.0740*%
%ADD17C,0.0620*%
%ADD18C,0.0860*%
%ADD19C,0.0140*%
%ADD20C,0.0124*%
%ADD21OC8,0.0700*%
%ADD22OC8,0.0555*%
%ADD23OC8,0.0671*%
%ADD24OC8,0.0780*%
%ADD25R,0.0555X0.0555*%
%ADD26R,0.0516X0.0516*%
D10*
X005722Y008576D02*
X005722Y009116D01*
X005722Y012576D02*
X005722Y013116D01*
X003025Y013246D02*
X003025Y012706D01*
X003025Y015706D02*
X003025Y016246D01*
X009826Y016173D02*
X010366Y016173D01*
X010366Y015173D02*
X009826Y015173D01*
X009826Y014173D02*
X010366Y014173D01*
X010366Y013173D02*
X009826Y013173D01*
X009826Y012173D02*
X010366Y012173D01*
X010366Y011173D02*
X009826Y011173D01*
X010221Y010466D02*
X010221Y009926D01*
X011221Y009926D02*
X011221Y010466D01*
X012221Y010466D02*
X012221Y009926D01*
X013221Y009926D02*
X013221Y010466D01*
X013366Y011173D02*
X012826Y011173D01*
X012826Y012173D02*
X013366Y012173D01*
X013366Y013173D02*
X012826Y013173D01*
X012826Y014173D02*
X013366Y014173D01*
X013366Y015173D02*
X012826Y015173D01*
X012826Y016173D02*
X013366Y016173D01*
X013366Y017173D02*
X012826Y017173D01*
X012826Y018173D02*
X013366Y018173D01*
X013366Y019173D02*
X012826Y019173D01*
X012826Y020173D02*
X013366Y020173D01*
X010366Y020173D02*
X009826Y020173D01*
X009826Y019173D02*
X010366Y019173D01*
X010366Y018173D02*
X009826Y018173D01*
X009826Y017173D02*
X010366Y017173D01*
X015346Y013568D02*
X015346Y013028D01*
X015346Y010568D02*
X015346Y010028D01*
X013221Y007466D02*
X013221Y006926D01*
X012221Y006926D02*
X012221Y007466D01*
X011221Y007466D02*
X011221Y006926D01*
X010221Y006926D02*
X010221Y007466D01*
X008791Y003854D02*
X008251Y003854D01*
X012251Y003854D02*
X012791Y003854D01*
D11*
X012464Y002611D03*
X012464Y001611D03*
X014096Y001361D03*
X015158Y001361D03*
X015158Y004361D03*
X014605Y005065D03*
X014096Y004361D03*
X014721Y006173D03*
X011721Y006173D03*
X009605Y005065D03*
X008846Y005736D03*
X008846Y006736D03*
X008908Y012673D03*
X008908Y013673D03*
X008908Y014548D03*
X008908Y015548D03*
X008692Y016877D03*
X007942Y016377D03*
X007942Y017377D03*
X008096Y018298D03*
X008096Y019548D03*
X008596Y020298D03*
X009096Y019548D03*
X009096Y018298D03*
X008304Y021437D03*
X008306Y022456D03*
X008509Y023500D03*
X008076Y024574D03*
X009306Y022456D03*
X010363Y022459D03*
X011304Y021437D03*
X011363Y022459D03*
X011509Y023500D03*
X011076Y024574D03*
X011478Y025192D03*
X012710Y024204D03*
X013765Y024196D03*
X014478Y025192D03*
X015395Y025669D03*
X015395Y022669D03*
X013765Y021196D03*
X012710Y021204D03*
X014511Y014596D03*
X015511Y014596D03*
X006846Y020736D03*
X006533Y019861D03*
X005783Y019361D03*
X005344Y018539D03*
X005664Y017491D03*
X005637Y016395D03*
X004923Y015594D03*
X004923Y014594D03*
X006637Y016395D03*
X006664Y017491D03*
X006533Y018861D03*
X005846Y020736D03*
X004856Y017389D03*
X002344Y018539D03*
X001856Y017389D03*
X004403Y011393D03*
X004403Y010393D03*
X004403Y009543D03*
X004403Y008543D03*
X003005Y009370D03*
X002255Y009870D03*
X003005Y010370D03*
X001718Y008740D03*
X001718Y005740D03*
D12*
X007898Y003001D02*
X008518Y003001D01*
X008518Y001221D02*
X007898Y001221D01*
X010458Y001221D02*
X011078Y001221D01*
X011078Y003001D02*
X010458Y003001D01*
X014508Y015986D02*
X015128Y015986D01*
X015128Y016986D02*
X014508Y016986D01*
X014508Y017986D02*
X015128Y017986D01*
X015128Y018986D02*
X014508Y018986D01*
X014508Y019986D02*
X015128Y019986D01*
X015128Y020986D02*
X014508Y020986D01*
D13*
X014908Y008798D03*
X008033Y008098D03*
D14*
X008033Y009498D03*
X014908Y007798D03*
D15*
X006503Y006289D02*
X006503Y005715D01*
X004535Y005715D02*
X004535Y006289D01*
D16*
X005033Y019548D03*
X005033Y020548D03*
D17*
X007471Y014623D03*
X007471Y012723D03*
D18*
X003551Y002720D02*
X003551Y001940D01*
X005531Y001940D02*
X005531Y002720D01*
D19*
X003013Y019901D02*
X003083Y019971D01*
X003083Y019739D01*
X002920Y019576D01*
X002688Y019576D01*
X002525Y019739D01*
X002525Y019971D01*
X002688Y020134D01*
X002920Y020134D01*
X003083Y019971D01*
X002978Y019927D01*
X002978Y019783D01*
X002876Y019681D01*
X002732Y019681D01*
X002630Y019783D01*
X002630Y019927D01*
X002732Y020029D01*
X002876Y020029D01*
X002978Y019927D01*
X002873Y019884D01*
X002873Y019826D01*
X002833Y019786D01*
X002775Y019786D01*
X002735Y019826D01*
X002735Y019884D01*
X002775Y019924D01*
X002833Y019924D01*
X002873Y019884D01*
X003720Y020608D02*
X003790Y020678D01*
X003790Y020446D01*
X003627Y020283D01*
X003395Y020283D01*
X003232Y020446D01*
X003232Y020678D01*
X003395Y020841D01*
X003627Y020841D01*
X003790Y020678D01*
X003685Y020634D01*
X003685Y020490D01*
X003583Y020388D01*
X003439Y020388D01*
X003337Y020490D01*
X003337Y020634D01*
X003439Y020736D01*
X003583Y020736D01*
X003685Y020634D01*
X003580Y020591D01*
X003580Y020533D01*
X003540Y020493D01*
X003482Y020493D01*
X003442Y020533D01*
X003442Y020591D01*
X003482Y020631D01*
X003540Y020631D01*
X003580Y020591D01*
X004428Y021316D02*
X004498Y021386D01*
X004498Y021154D01*
X004335Y020991D01*
X004103Y020991D01*
X003940Y021154D01*
X003940Y021386D01*
X004103Y021549D01*
X004335Y021549D01*
X004498Y021386D01*
X004393Y021342D01*
X004393Y021198D01*
X004291Y021096D01*
X004147Y021096D01*
X004045Y021198D01*
X004045Y021342D01*
X004147Y021444D01*
X004291Y021444D01*
X004393Y021342D01*
X004288Y021299D01*
X004288Y021241D01*
X004248Y021201D01*
X004190Y021201D01*
X004150Y021241D01*
X004150Y021299D01*
X004190Y021339D01*
X004248Y021339D01*
X004288Y021299D01*
X005135Y022023D02*
X005205Y022093D01*
X005205Y021861D01*
X005042Y021698D01*
X004810Y021698D01*
X004647Y021861D01*
X004647Y022093D01*
X004810Y022256D01*
X005042Y022256D01*
X005205Y022093D01*
X005100Y022049D01*
X005100Y021905D01*
X004998Y021803D01*
X004854Y021803D01*
X004752Y021905D01*
X004752Y022049D01*
X004854Y022151D01*
X004998Y022151D01*
X005100Y022049D01*
X004995Y022006D01*
X004995Y021948D01*
X004955Y021908D01*
X004897Y021908D01*
X004857Y021948D01*
X004857Y022006D01*
X004897Y022046D01*
X004955Y022046D01*
X004995Y022006D01*
X005842Y022730D02*
X005912Y022800D01*
X005912Y022568D01*
X005749Y022405D01*
X005517Y022405D01*
X005354Y022568D01*
X005354Y022800D01*
X005517Y022963D01*
X005749Y022963D01*
X005912Y022800D01*
X005807Y022756D01*
X005807Y022612D01*
X005705Y022510D01*
X005561Y022510D01*
X005459Y022612D01*
X005459Y022756D01*
X005561Y022858D01*
X005705Y022858D01*
X005807Y022756D01*
X005702Y022713D01*
X005702Y022655D01*
X005662Y022615D01*
X005604Y022615D01*
X005564Y022655D01*
X005564Y022713D01*
X005604Y022753D01*
X005662Y022753D01*
X005702Y022713D01*
X006549Y023437D02*
X006619Y023507D01*
X006619Y023275D01*
X006456Y023112D01*
X006224Y023112D01*
X006061Y023275D01*
X006061Y023507D01*
X006224Y023670D01*
X006456Y023670D01*
X006619Y023507D01*
X006514Y023463D01*
X006514Y023319D01*
X006412Y023217D01*
X006268Y023217D01*
X006166Y023319D01*
X006166Y023463D01*
X006268Y023565D01*
X006412Y023565D01*
X006514Y023463D01*
X006409Y023420D01*
X006409Y023362D01*
X006369Y023322D01*
X006311Y023322D01*
X006271Y023362D01*
X006271Y023420D01*
X006311Y023460D01*
X006369Y023460D01*
X006409Y023420D01*
X007256Y024144D02*
X007326Y024214D01*
X007326Y023982D01*
X007163Y023819D01*
X006931Y023819D01*
X006768Y023982D01*
X006768Y024214D01*
X006931Y024377D01*
X007163Y024377D01*
X007326Y024214D01*
X007221Y024170D01*
X007221Y024026D01*
X007119Y023924D01*
X006975Y023924D01*
X006873Y024026D01*
X006873Y024170D01*
X006975Y024272D01*
X007119Y024272D01*
X007221Y024170D01*
X007116Y024127D01*
X007116Y024069D01*
X007076Y024029D01*
X007018Y024029D01*
X006978Y024069D01*
X006978Y024127D01*
X007018Y024167D01*
X007076Y024167D01*
X007116Y024127D01*
X006549Y024851D02*
X006619Y024921D01*
X006619Y024689D01*
X006456Y024526D01*
X006224Y024526D01*
X006061Y024689D01*
X006061Y024921D01*
X006224Y025084D01*
X006456Y025084D01*
X006619Y024921D01*
X006514Y024877D01*
X006514Y024733D01*
X006412Y024631D01*
X006268Y024631D01*
X006166Y024733D01*
X006166Y024877D01*
X006268Y024979D01*
X006412Y024979D01*
X006514Y024877D01*
X006409Y024834D01*
X006409Y024776D01*
X006369Y024736D01*
X006311Y024736D01*
X006271Y024776D01*
X006271Y024834D01*
X006311Y024874D01*
X006369Y024874D01*
X006409Y024834D01*
X005842Y024144D02*
X005912Y024214D01*
X005912Y023982D01*
X005749Y023819D01*
X005517Y023819D01*
X005354Y023982D01*
X005354Y024214D01*
X005517Y024377D01*
X005749Y024377D01*
X005912Y024214D01*
X005807Y024170D01*
X005807Y024026D01*
X005705Y023924D01*
X005561Y023924D01*
X005459Y024026D01*
X005459Y024170D01*
X005561Y024272D01*
X005705Y024272D01*
X005807Y024170D01*
X005702Y024127D01*
X005702Y024069D01*
X005662Y024029D01*
X005604Y024029D01*
X005564Y024069D01*
X005564Y024127D01*
X005604Y024167D01*
X005662Y024167D01*
X005702Y024127D01*
X005135Y023437D02*
X005205Y023507D01*
X005205Y023275D01*
X005042Y023112D01*
X004810Y023112D01*
X004647Y023275D01*
X004647Y023507D01*
X004810Y023670D01*
X005042Y023670D01*
X005205Y023507D01*
X005100Y023463D01*
X005100Y023319D01*
X004998Y023217D01*
X004854Y023217D01*
X004752Y023319D01*
X004752Y023463D01*
X004854Y023565D01*
X004998Y023565D01*
X005100Y023463D01*
X004995Y023420D01*
X004995Y023362D01*
X004955Y023322D01*
X004897Y023322D01*
X004857Y023362D01*
X004857Y023420D01*
X004897Y023460D01*
X004955Y023460D01*
X004995Y023420D01*
X004428Y022730D02*
X004498Y022800D01*
X004498Y022568D01*
X004335Y022405D01*
X004103Y022405D01*
X003940Y022568D01*
X003940Y022800D01*
X004103Y022963D01*
X004335Y022963D01*
X004498Y022800D01*
X004393Y022756D01*
X004393Y022612D01*
X004291Y022510D01*
X004147Y022510D01*
X004045Y022612D01*
X004045Y022756D01*
X004147Y022858D01*
X004291Y022858D01*
X004393Y022756D01*
X004288Y022713D01*
X004288Y022655D01*
X004248Y022615D01*
X004190Y022615D01*
X004150Y022655D01*
X004150Y022713D01*
X004190Y022753D01*
X004248Y022753D01*
X004288Y022713D01*
X003720Y022023D02*
X003790Y022093D01*
X003790Y021861D01*
X003627Y021698D01*
X003395Y021698D01*
X003232Y021861D01*
X003232Y022093D01*
X003395Y022256D01*
X003627Y022256D01*
X003790Y022093D01*
X003685Y022049D01*
X003685Y021905D01*
X003583Y021803D01*
X003439Y021803D01*
X003337Y021905D01*
X003337Y022049D01*
X003439Y022151D01*
X003583Y022151D01*
X003685Y022049D01*
X003580Y022006D01*
X003580Y021948D01*
X003540Y021908D01*
X003482Y021908D01*
X003442Y021948D01*
X003442Y022006D01*
X003482Y022046D01*
X003540Y022046D01*
X003580Y022006D01*
X003013Y021316D02*
X003083Y021386D01*
X003083Y021154D01*
X002920Y020991D01*
X002688Y020991D01*
X002525Y021154D01*
X002525Y021386D01*
X002688Y021549D01*
X002920Y021549D01*
X003083Y021386D01*
X002978Y021342D01*
X002978Y021198D01*
X002876Y021096D01*
X002732Y021096D01*
X002630Y021198D01*
X002630Y021342D01*
X002732Y021444D01*
X002876Y021444D01*
X002978Y021342D01*
X002873Y021299D01*
X002873Y021241D01*
X002833Y021201D01*
X002775Y021201D01*
X002735Y021241D01*
X002735Y021299D01*
X002775Y021339D01*
X002833Y021339D01*
X002873Y021299D01*
X002306Y020608D02*
X002376Y020678D01*
X002376Y020446D01*
X002213Y020283D01*
X001981Y020283D01*
X001818Y020446D01*
X001818Y020678D01*
X001981Y020841D01*
X002213Y020841D01*
X002376Y020678D01*
X002271Y020634D01*
X002271Y020490D01*
X002169Y020388D01*
X002025Y020388D01*
X001923Y020490D01*
X001923Y020634D01*
X002025Y020736D01*
X002169Y020736D01*
X002271Y020634D01*
X002166Y020591D01*
X002166Y020533D01*
X002126Y020493D01*
X002068Y020493D01*
X002028Y020533D01*
X002028Y020591D01*
X002068Y020631D01*
X002126Y020631D01*
X002166Y020591D01*
D20*
X006518Y021880D02*
X006580Y021942D01*
X006580Y021736D01*
X006436Y021592D01*
X006230Y021592D01*
X006086Y021736D01*
X006086Y021942D01*
X006230Y022086D01*
X006436Y022086D01*
X006580Y021942D01*
X006487Y021903D01*
X006487Y021775D01*
X006397Y021685D01*
X006269Y021685D01*
X006179Y021775D01*
X006179Y021903D01*
X006269Y021993D01*
X006397Y021993D01*
X006487Y021903D01*
X006394Y021865D01*
X006394Y021813D01*
X006359Y021778D01*
X006307Y021778D01*
X006272Y021813D01*
X006272Y021865D01*
X006307Y021900D01*
X006359Y021900D01*
X006394Y021865D01*
X007225Y022587D02*
X007287Y022649D01*
X007287Y022443D01*
X007143Y022299D01*
X006937Y022299D01*
X006793Y022443D01*
X006793Y022649D01*
X006937Y022793D01*
X007143Y022793D01*
X007287Y022649D01*
X007194Y022610D01*
X007194Y022482D01*
X007104Y022392D01*
X006976Y022392D01*
X006886Y022482D01*
X006886Y022610D01*
X006976Y022700D01*
X007104Y022700D01*
X007194Y022610D01*
X007101Y022572D01*
X007101Y022520D01*
X007066Y022485D01*
X007014Y022485D01*
X006979Y022520D01*
X006979Y022572D01*
X007014Y022607D01*
X007066Y022607D01*
X007101Y022572D01*
D21*
X009363Y025649D03*
D22*
X006174Y014437D03*
D23*
X001240Y014032D03*
D24*
X001247Y012729D03*
D25*
X001135Y006838D03*
D26*
X006962Y025933D03*
M02*
