G75*
G70*
%OFA0B0*%
%FSLAX24Y24*%
%IPPOS*%
%LPD*%
%AMOC8*
5,1,8,0,0,1.08239X$1,22.5*
%
%ADD10C,0.0060*%
%ADD11C,0.0520*%
%ADD12OC8,0.0520*%
%ADD13C,0.0600*%
%ADD14OC8,0.0600*%
%ADD15C,0.0515*%
%ADD16C,0.1000*%
%ADD17OC8,0.1000*%
%ADD18C,0.0660*%
%ADD19C,0.0650*%
%ADD20C,0.0520*%
%ADD21C,0.0240*%
%ADD22C,0.0160*%
D10*
X003237Y000899D02*
X003237Y001539D01*
X003024Y001539D02*
X003451Y001539D01*
X003668Y001433D02*
X003668Y001006D01*
X003775Y000899D01*
X003989Y000899D01*
X004095Y001006D01*
X004095Y001433D01*
X003989Y001539D01*
X003775Y001539D01*
X003668Y001433D01*
X004313Y001539D02*
X004633Y001539D01*
X004740Y001433D01*
X004740Y001219D01*
X004633Y001112D01*
X004313Y001112D01*
X004313Y000899D02*
X004313Y001539D01*
D11*
X009421Y006181D02*
X009941Y006181D01*
X009941Y007181D02*
X009421Y007181D01*
X009421Y008181D02*
X009941Y008181D01*
X009941Y009181D02*
X009421Y009181D01*
X009421Y010181D02*
X009941Y010181D01*
X009941Y011181D02*
X009421Y011181D01*
X009421Y012181D02*
X009941Y012181D01*
X009941Y013181D02*
X009421Y013181D01*
X009421Y014181D02*
X009941Y014181D01*
X009941Y015181D02*
X009421Y015181D01*
X006941Y017181D02*
X006421Y017181D01*
X006421Y018681D02*
X006941Y018681D01*
X002941Y018681D02*
X002421Y018681D01*
X002421Y017181D02*
X002941Y017181D01*
X012421Y015181D02*
X012941Y015181D01*
X012941Y014181D02*
X012421Y014181D01*
X012421Y013181D02*
X012941Y013181D01*
X012941Y012181D02*
X012421Y012181D01*
X012421Y011181D02*
X012941Y011181D01*
X012941Y010181D02*
X012421Y010181D01*
X012421Y009181D02*
X012941Y009181D01*
X012941Y008181D02*
X012421Y008181D01*
X012421Y007181D02*
X012941Y007181D01*
X012941Y006181D02*
X012421Y006181D01*
X017171Y014181D02*
X017691Y014181D01*
X021171Y014181D02*
X021691Y014181D01*
X022181Y016421D02*
X022181Y016941D01*
X022181Y020421D02*
X022181Y020941D01*
X016941Y021431D02*
X016421Y021431D01*
X016421Y020431D02*
X016941Y020431D01*
X016941Y019431D02*
X016421Y019431D01*
X016421Y018431D02*
X016941Y018431D01*
X013941Y018431D02*
X013421Y018431D01*
X013421Y019431D02*
X013941Y019431D01*
X013941Y020431D02*
X013421Y020431D01*
X013421Y021431D02*
X013941Y021431D01*
D12*
X013666Y022681D03*
X012619Y019431D03*
X012619Y018431D03*
X012681Y017431D03*
X013681Y014681D03*
X015681Y014681D03*
X017431Y013181D03*
X017431Y012181D03*
X017431Y011181D03*
X017431Y010181D03*
X017431Y009181D03*
X017431Y007181D03*
X017431Y006181D03*
X017431Y005181D03*
X017431Y004181D03*
X019431Y004181D03*
X021431Y005181D03*
X021431Y006181D03*
X021431Y007181D03*
X022931Y008181D03*
X021431Y009181D03*
X022431Y009985D03*
X023181Y010485D03*
X023181Y009485D03*
X021431Y010181D03*
X021431Y011181D03*
X021431Y012181D03*
X022431Y012235D03*
X023181Y012735D03*
X023181Y011735D03*
X021431Y013181D03*
X017681Y015431D03*
X018681Y016931D03*
X016681Y017431D03*
X017681Y019431D03*
X018681Y020931D03*
X017666Y022681D03*
X006681Y014744D03*
X006681Y013744D03*
X006744Y012619D03*
X006744Y011619D03*
X013619Y012681D03*
X015619Y012681D03*
X009431Y005181D03*
X008431Y005181D03*
X008431Y004181D03*
X010431Y001681D03*
X011431Y001681D03*
X009431Y001181D03*
X004431Y004181D03*
X004431Y005181D03*
X014431Y004431D03*
X015181Y003931D03*
X015181Y004931D03*
X022931Y004181D03*
D13*
X017011Y002571D02*
X016411Y002571D01*
X016411Y000791D02*
X017011Y000791D01*
X014451Y000791D02*
X013851Y000791D01*
X013851Y002571D02*
X014451Y002571D01*
X014631Y006181D02*
X015231Y006181D01*
X015231Y007181D02*
X014631Y007181D01*
X014631Y008181D02*
X015231Y008181D01*
X015231Y009181D02*
X014631Y009181D01*
X014631Y010181D02*
X015231Y010181D01*
X015231Y011181D02*
X014631Y011181D01*
X005731Y011181D02*
X005131Y011181D01*
X005131Y010181D02*
X005731Y010181D01*
X005731Y009181D02*
X005131Y009181D01*
X005131Y008181D02*
X005731Y008181D01*
X005731Y007181D02*
X005131Y007181D01*
X005131Y006181D02*
X005731Y006181D01*
X005731Y012181D02*
X005131Y012181D01*
X005131Y013181D02*
X005731Y013181D01*
X005731Y014181D02*
X005131Y014181D01*
X005131Y015181D02*
X005731Y015181D01*
X011724Y021457D02*
X012324Y021457D01*
X012324Y022457D02*
X011724Y022457D01*
D14*
X003681Y016181D03*
X003681Y015181D03*
X003681Y014181D03*
X002681Y014181D03*
X002681Y015181D03*
X002681Y016181D03*
X002681Y013181D03*
X002681Y012181D03*
X002681Y011181D03*
X002681Y010181D03*
X003681Y010181D03*
X003681Y011181D03*
X003681Y012181D03*
X003681Y013181D03*
X006994Y010556D03*
X006994Y009556D03*
X006994Y008556D03*
X007994Y008556D03*
X007994Y009556D03*
X007994Y010556D03*
X007994Y007556D03*
X007994Y006556D03*
X006994Y006556D03*
X006994Y007556D03*
X003681Y007181D03*
X002681Y007181D03*
X002681Y008181D03*
X002681Y009181D03*
X003681Y009181D03*
X003681Y008181D03*
D15*
X019931Y016931D03*
X019931Y021931D03*
D16*
X024431Y017681D03*
X023528Y016111D03*
X004931Y022181D03*
D17*
X004931Y020181D03*
X023528Y014111D03*
X026181Y015931D03*
X024431Y019681D03*
X026181Y004681D03*
D18*
X021181Y017931D03*
X021181Y021931D03*
D19*
X009363Y021219D02*
X008713Y021219D01*
X008713Y019250D02*
X009363Y019250D01*
D20*
X008181Y014506D03*
X008181Y012606D03*
D21*
X014931Y010181D02*
X015619Y010181D01*
X015931Y010494D01*
X015931Y012369D01*
X015619Y012681D01*
X015619Y012681D01*
X017681Y019431D02*
X017800Y019550D01*
X017800Y021737D01*
X017504Y022032D01*
X013174Y022032D01*
X012599Y021457D01*
X012024Y021457D01*
X022181Y020681D02*
X023528Y019335D01*
X023528Y016111D01*
X016711Y002571D02*
X016696Y002571D01*
X016681Y002556D01*
X016666Y002571D01*
X014151Y002571D01*
D22*
X000501Y000501D02*
X000501Y009310D01*
X000511Y009310D01*
X000639Y009310D01*
X000756Y009359D01*
X000846Y009449D01*
X000895Y009567D01*
X000895Y013897D01*
X000895Y014025D01*
X000846Y014142D01*
X000756Y014232D01*
X000639Y014281D01*
X000501Y014281D01*
X000501Y023111D01*
X013276Y023111D01*
X013086Y022922D01*
X013086Y022472D01*
X012944Y022413D01*
X012944Y022580D01*
X012850Y022808D01*
X012675Y022983D01*
X012447Y023077D01*
X011601Y023077D01*
X011373Y022983D01*
X011198Y022808D01*
X011104Y022580D01*
X011104Y022334D01*
X011198Y022106D01*
X011347Y021957D01*
X011198Y021808D01*
X011104Y021580D01*
X011104Y021334D01*
X011198Y021106D01*
X011373Y020931D01*
X011601Y020837D01*
X012447Y020837D01*
X012675Y020931D01*
X012813Y021070D01*
X012848Y021084D01*
X012911Y021147D01*
X012930Y021103D01*
X013093Y020940D01*
X013113Y020931D01*
X013093Y020923D01*
X012930Y020760D01*
X012841Y020547D01*
X012841Y020316D01*
X012930Y020103D01*
X013093Y019940D01*
X013113Y019931D01*
X013093Y019923D01*
X013020Y019850D01*
X012859Y020011D01*
X012379Y020011D01*
X012039Y019672D01*
X012039Y019191D01*
X012379Y018851D01*
X012417Y018851D01*
X012179Y018614D01*
X012179Y018432D01*
X012619Y018432D01*
X013059Y018432D01*
X013681Y018432D01*
X013681Y018431D01*
X013059Y018431D01*
X012619Y018431D01*
X012619Y017991D01*
X012801Y017991D01*
X013032Y018222D01*
X013048Y018182D01*
X013172Y018058D01*
X013334Y017991D01*
X013681Y017991D01*
X013681Y018431D01*
X013682Y018431D01*
X013682Y018432D01*
X014381Y018432D01*
X014381Y018519D01*
X014314Y018681D01*
X014191Y018804D01*
X014067Y018856D01*
X014270Y018940D01*
X014433Y019103D01*
X014521Y019316D01*
X014521Y019547D01*
X014433Y019760D01*
X014270Y019923D01*
X014250Y019931D01*
X014270Y019940D01*
X014433Y020103D01*
X014521Y020316D01*
X014521Y020547D01*
X014433Y020760D01*
X014270Y020923D01*
X014250Y020931D01*
X014270Y020940D01*
X014433Y021103D01*
X014521Y021316D01*
X014521Y021547D01*
X014503Y021592D01*
X015860Y021592D01*
X015841Y021547D01*
X015841Y021316D01*
X015930Y021103D01*
X016093Y020940D01*
X016113Y020931D01*
X016093Y020923D01*
X015930Y020760D01*
X015841Y020547D01*
X015841Y020316D01*
X015930Y020103D01*
X016093Y019940D01*
X016113Y019931D01*
X016093Y019923D01*
X015930Y019760D01*
X015841Y019547D01*
X015841Y019316D01*
X015930Y019103D01*
X016093Y018940D01*
X016113Y018931D01*
X016093Y018923D01*
X015930Y018760D01*
X015841Y018547D01*
X015841Y018316D01*
X015930Y018103D01*
X016093Y017940D01*
X016289Y017859D01*
X016101Y017672D01*
X016101Y017191D01*
X016441Y016851D01*
X016922Y016851D01*
X017261Y017191D01*
X017261Y017672D01*
X017074Y017859D01*
X017270Y017940D01*
X017433Y018103D01*
X017521Y018316D01*
X017521Y018547D01*
X017433Y018760D01*
X017270Y018923D01*
X017250Y018931D01*
X017270Y018940D01*
X017311Y018981D01*
X017441Y018851D01*
X017922Y018851D01*
X018261Y019191D01*
X018261Y019672D01*
X018239Y019694D01*
X018239Y020553D01*
X018441Y020351D01*
X018922Y020351D01*
X019261Y020691D01*
X019261Y021172D01*
X018922Y021511D01*
X018441Y021511D01*
X018239Y021310D01*
X018239Y021824D01*
X018173Y021986D01*
X018049Y022110D01*
X017981Y022177D01*
X018246Y022441D01*
X018246Y022922D01*
X018056Y023111D01*
X026612Y023111D01*
X026633Y014281D01*
X026623Y014281D01*
X026496Y014281D01*
X026378Y014232D01*
X026288Y014142D01*
X026239Y014025D01*
X026239Y009694D01*
X023594Y009694D01*
X023621Y009667D02*
X023384Y009905D01*
X023422Y009905D01*
X023761Y010244D01*
X023761Y010725D01*
X023422Y011065D01*
X022941Y011065D01*
X022601Y010725D01*
X022601Y010565D01*
X022191Y010565D01*
X022011Y010385D01*
X022011Y010422D01*
X021752Y010681D01*
X022011Y010941D01*
X022011Y011422D01*
X021752Y011681D01*
X021958Y011888D01*
X022191Y011655D01*
X022601Y011655D01*
X022601Y011494D01*
X022941Y011155D01*
X023422Y011155D01*
X023761Y011494D01*
X023761Y011975D01*
X023502Y012235D01*
X023761Y012494D01*
X023761Y012975D01*
X023422Y013315D01*
X022941Y013315D01*
X022601Y012975D01*
X022601Y012815D01*
X022191Y012815D01*
X021905Y012528D01*
X021752Y012681D01*
X022011Y012941D01*
X022011Y013422D01*
X021824Y013609D01*
X022020Y013690D01*
X022183Y013853D01*
X022271Y014066D01*
X022271Y014297D01*
X022183Y014510D01*
X022020Y014673D01*
X021807Y014761D01*
X021056Y014761D01*
X020843Y014673D01*
X020680Y014510D01*
X020591Y014297D01*
X020591Y014066D01*
X020680Y013853D01*
X020843Y013690D01*
X021039Y013609D01*
X020851Y013422D01*
X020851Y012941D01*
X021111Y012681D01*
X020851Y012422D01*
X020851Y011941D01*
X021111Y011681D01*
X020851Y011422D01*
X020851Y010941D01*
X021111Y010681D01*
X020851Y010422D01*
X020851Y009941D01*
X021191Y009601D01*
X021229Y009601D01*
X020991Y009364D01*
X020991Y009182D01*
X021431Y009182D01*
X021431Y009181D01*
X021432Y009181D01*
X021432Y009182D01*
X021871Y009182D01*
X021871Y009364D01*
X021634Y009601D01*
X021672Y009601D01*
X021851Y009781D01*
X021851Y009744D01*
X022191Y009405D01*
X022672Y009405D01*
X022741Y009474D01*
X022741Y009302D01*
X022999Y009045D01*
X023181Y009045D01*
X023181Y009484D01*
X023182Y009484D01*
X023182Y009485D01*
X023621Y009485D01*
X023621Y009667D01*
X023621Y009535D02*
X026252Y009535D01*
X026239Y009567D02*
X026288Y009449D01*
X026378Y009359D01*
X026496Y009310D01*
X026611Y009310D01*
X026611Y000501D01*
X017562Y000501D01*
X017631Y000668D01*
X017631Y000915D01*
X017537Y001143D01*
X017363Y001317D01*
X017135Y001411D01*
X016288Y001411D01*
X016060Y001317D01*
X015886Y001143D01*
X015791Y000915D01*
X015791Y000668D01*
X015860Y000501D01*
X015002Y000501D01*
X015071Y000668D01*
X015071Y000915D01*
X014977Y001143D01*
X014803Y001317D01*
X014575Y001411D01*
X013728Y001411D01*
X013500Y001317D01*
X013326Y001143D01*
X013231Y000915D01*
X013231Y000668D01*
X013300Y000501D01*
X000501Y000501D01*
X000501Y000657D02*
X002984Y000657D01*
X002941Y000701D02*
X003039Y000602D01*
X003168Y000549D01*
X003307Y000549D01*
X003436Y000602D01*
X003506Y000673D01*
X003577Y000602D01*
X003706Y000549D01*
X003919Y000549D01*
X004058Y000549D01*
X004058Y000549D01*
X004132Y000580D01*
X004151Y000587D01*
X004243Y000549D01*
X004383Y000549D01*
X004511Y000602D01*
X004610Y000701D01*
X004635Y000762D01*
X004703Y000762D01*
X004779Y000794D01*
X004831Y000816D01*
X008977Y000816D01*
X008851Y000941D02*
X009191Y000601D01*
X009672Y000601D01*
X010011Y000941D01*
X010011Y001281D01*
X010191Y001101D01*
X010672Y001101D01*
X010931Y001361D01*
X011191Y001101D01*
X011672Y001101D01*
X012011Y001441D01*
X012011Y001922D01*
X011672Y002261D01*
X011191Y002261D01*
X010931Y002002D01*
X010672Y002261D01*
X010191Y002261D01*
X009851Y001922D01*
X009851Y001582D01*
X009672Y001761D01*
X009191Y001761D01*
X008851Y001422D01*
X008851Y000941D01*
X008851Y000974D02*
X004990Y000974D01*
X005037Y001021D02*
X005037Y001021D01*
X005045Y001041D01*
X005090Y001149D01*
X005090Y001289D01*
X005090Y001502D01*
X005090Y001502D01*
X005046Y001607D01*
X005037Y001631D01*
X005037Y001631D01*
X004831Y001836D01*
X004777Y001859D01*
X004703Y001889D01*
X004703Y001889D01*
X004564Y001889D01*
X004243Y001889D01*
X004151Y001851D01*
X004126Y001861D01*
X004058Y001889D01*
X003919Y001889D01*
X003845Y001889D01*
X003706Y001889D01*
X003613Y001851D01*
X003521Y001889D01*
X002954Y001889D01*
X002826Y001836D01*
X002727Y001738D01*
X002674Y001609D01*
X002674Y001470D01*
X002727Y001341D01*
X002826Y001243D01*
X002887Y001217D01*
X002887Y000829D01*
X002941Y000701D01*
X002893Y000816D02*
X000501Y000816D01*
X000501Y000974D02*
X002887Y000974D01*
X002887Y001133D02*
X000501Y001133D01*
X000501Y001291D02*
X002777Y001291D01*
X002682Y001450D02*
X002182Y001450D01*
X002175Y001443D02*
X002420Y001688D01*
X002553Y002008D01*
X002553Y002355D01*
X002420Y002675D01*
X002175Y002920D01*
X001855Y003053D01*
X001508Y003053D01*
X001188Y002920D01*
X000943Y002675D01*
X000810Y002355D01*
X000810Y002008D01*
X000943Y001688D01*
X001188Y001443D01*
X001508Y001310D01*
X001855Y001310D01*
X002175Y001443D01*
X002340Y001608D02*
X002674Y001608D01*
X002756Y001767D02*
X002453Y001767D01*
X002518Y001925D02*
X009855Y001925D01*
X009851Y001767D02*
X004901Y001767D01*
X005037Y001631D02*
X005037Y001631D01*
X005046Y001608D02*
X009038Y001608D01*
X008880Y001450D02*
X005090Y001450D01*
X005090Y001291D02*
X008851Y001291D01*
X008851Y001133D02*
X005083Y001133D01*
X005037Y001021D02*
X004833Y000817D01*
X004831Y000816D01*
X004831Y000816D01*
X004566Y000657D02*
X009136Y000657D01*
X009727Y000657D02*
X013236Y000657D01*
X013231Y000816D02*
X009886Y000816D01*
X010011Y000974D02*
X013256Y000974D01*
X013322Y001133D02*
X011703Y001133D01*
X011861Y001291D02*
X013474Y001291D01*
X013756Y002091D02*
X014131Y002091D01*
X014131Y002551D01*
X014171Y002551D01*
X014171Y002091D01*
X014547Y002091D01*
X014723Y002164D01*
X014858Y002299D01*
X014931Y002476D01*
X014931Y002551D01*
X014172Y002551D01*
X014172Y002591D01*
X014931Y002591D01*
X014931Y002667D01*
X014858Y002843D01*
X014723Y002978D01*
X014547Y003051D01*
X014171Y003051D01*
X014171Y002592D01*
X014131Y002592D01*
X014131Y003051D01*
X013756Y003051D01*
X013579Y002978D01*
X013444Y002843D01*
X013371Y002667D01*
X013371Y002591D01*
X014131Y002591D01*
X014131Y002551D01*
X013371Y002551D01*
X013371Y002476D01*
X013444Y002299D01*
X013579Y002164D01*
X013756Y002091D01*
X013501Y002242D02*
X011691Y002242D01*
X011849Y002084D02*
X024560Y002084D01*
X024560Y002008D02*
X024693Y001688D01*
X024938Y001443D01*
X025258Y001310D01*
X025605Y001310D01*
X025925Y001443D01*
X026170Y001688D01*
X026303Y002008D01*
X026303Y002355D01*
X026170Y002675D01*
X025925Y002920D01*
X025605Y003053D01*
X025258Y003053D01*
X024938Y002920D01*
X024693Y002675D01*
X024560Y002355D01*
X024560Y002008D01*
X024594Y001925D02*
X012008Y001925D01*
X012011Y001767D02*
X024660Y001767D01*
X024772Y001608D02*
X012011Y001608D01*
X012011Y001450D02*
X024931Y001450D01*
X024560Y002242D02*
X017361Y002242D01*
X017418Y002299D02*
X017491Y002476D01*
X017491Y002551D01*
X016732Y002551D01*
X016732Y002591D01*
X017491Y002591D01*
X017491Y002667D01*
X017418Y002843D01*
X017283Y002978D01*
X017107Y003051D01*
X016731Y003051D01*
X016731Y002592D01*
X016691Y002592D01*
X016691Y003051D01*
X016316Y003051D01*
X016139Y002978D01*
X016004Y002843D01*
X015931Y002667D01*
X015931Y002591D01*
X016691Y002591D01*
X016691Y002551D01*
X016731Y002551D01*
X016731Y002091D01*
X017107Y002091D01*
X017283Y002164D01*
X017418Y002299D01*
X017460Y002401D02*
X024579Y002401D01*
X024645Y002560D02*
X016732Y002560D01*
X016691Y002560D02*
X014172Y002560D01*
X014131Y002560D02*
X002468Y002560D01*
X002533Y002401D02*
X013402Y002401D01*
X013393Y002718D02*
X002377Y002718D01*
X002218Y002877D02*
X013478Y002877D01*
X013717Y003035D02*
X001897Y003035D01*
X001466Y003035D02*
X000501Y003035D01*
X000501Y002877D02*
X001145Y002877D01*
X000986Y002718D02*
X000501Y002718D01*
X000501Y002560D02*
X000895Y002560D01*
X000829Y002401D02*
X000501Y002401D01*
X000501Y002242D02*
X000810Y002242D01*
X000810Y002084D02*
X000501Y002084D01*
X000501Y001925D02*
X000844Y001925D01*
X000910Y001767D02*
X000501Y001767D01*
X000501Y001608D02*
X001022Y001608D01*
X001181Y001450D02*
X000501Y001450D01*
X000501Y003194D02*
X026611Y003194D01*
X026611Y003352D02*
X000501Y003352D01*
X000501Y003511D02*
X014980Y003511D01*
X014999Y003491D02*
X015181Y003491D01*
X015181Y003931D01*
X015182Y003931D01*
X015182Y003932D01*
X015621Y003932D01*
X015621Y004114D01*
X015384Y004351D01*
X015422Y004351D01*
X015761Y004691D01*
X015761Y005172D01*
X015422Y005511D01*
X014941Y005511D01*
X014601Y005172D01*
X014601Y005011D01*
X014191Y005011D01*
X013851Y004672D01*
X013851Y004191D01*
X014191Y003851D01*
X014672Y003851D01*
X014741Y003921D01*
X014741Y003749D01*
X014999Y003491D01*
X015182Y003491D02*
X015364Y003491D01*
X015621Y003749D01*
X015621Y003931D01*
X015182Y003931D01*
X015182Y003491D01*
X015181Y003511D02*
X015182Y003511D01*
X015181Y003669D02*
X015182Y003669D01*
X015181Y003828D02*
X015182Y003828D01*
X014821Y003669D02*
X008740Y003669D01*
X008672Y003601D02*
X009011Y003941D01*
X009011Y004422D01*
X008752Y004681D01*
X008931Y004861D01*
X009191Y004601D01*
X009672Y004601D01*
X010011Y004941D01*
X010011Y005422D01*
X009832Y005601D01*
X010057Y005601D01*
X010270Y005690D01*
X010433Y005853D01*
X010521Y006066D01*
X010521Y006297D01*
X010433Y006510D01*
X010270Y006673D01*
X010250Y006681D01*
X010270Y006690D01*
X010433Y006853D01*
X010521Y007066D01*
X010521Y007281D01*
X010539Y007281D01*
X010699Y007281D01*
X010846Y007342D01*
X011333Y007830D01*
X011394Y007977D01*
X011394Y008136D01*
X011394Y010953D01*
X011915Y011474D01*
X011841Y011297D01*
X011841Y011066D01*
X011930Y010853D01*
X012093Y010690D01*
X012113Y010681D01*
X012093Y010673D01*
X011930Y010510D01*
X011841Y010297D01*
X011841Y010066D01*
X011930Y009853D01*
X012093Y009690D01*
X012113Y009681D01*
X012093Y009673D01*
X011930Y009510D01*
X011841Y009297D01*
X011841Y009066D01*
X011930Y008853D01*
X012093Y008690D01*
X012113Y008681D01*
X012093Y008673D01*
X011930Y008510D01*
X011841Y008297D01*
X011841Y008066D01*
X011930Y007853D01*
X012093Y007690D01*
X012113Y007681D01*
X012093Y007673D01*
X011930Y007510D01*
X011841Y007297D01*
X011841Y007066D01*
X011930Y006853D01*
X012093Y006690D01*
X012113Y006681D01*
X012093Y006673D01*
X011930Y006510D01*
X011841Y006297D01*
X011841Y006066D01*
X011930Y005853D01*
X012093Y005690D01*
X012306Y005601D01*
X013057Y005601D01*
X013270Y005690D01*
X013433Y005853D01*
X013521Y006066D01*
X013521Y006297D01*
X013433Y006510D01*
X013270Y006673D01*
X013250Y006681D01*
X013270Y006690D01*
X013433Y006853D01*
X013521Y007066D01*
X013521Y007297D01*
X013433Y007510D01*
X013270Y007673D01*
X013250Y007681D01*
X013270Y007690D01*
X013433Y007853D01*
X013521Y008066D01*
X013521Y008297D01*
X013433Y008510D01*
X013270Y008673D01*
X013250Y008681D01*
X013270Y008690D01*
X013433Y008853D01*
X013521Y009066D01*
X013521Y009297D01*
X013433Y009510D01*
X013270Y009673D01*
X013250Y009681D01*
X013270Y009690D01*
X013433Y009853D01*
X013521Y010066D01*
X013521Y010297D01*
X013433Y010510D01*
X013270Y010673D01*
X013250Y010681D01*
X013270Y010690D01*
X013433Y010853D01*
X013521Y011066D01*
X013521Y011297D01*
X013433Y011510D01*
X013270Y011673D01*
X013250Y011681D01*
X013270Y011690D01*
X013433Y011853D01*
X013521Y012066D01*
X013521Y012241D01*
X013619Y012241D01*
X013801Y012241D01*
X014059Y012499D01*
X014059Y012681D01*
X013619Y012681D01*
X013619Y012241D01*
X013619Y012681D01*
X013619Y012681D01*
X013619Y012682D01*
X013619Y012682D01*
X013619Y013121D01*
X013801Y013121D01*
X014059Y012864D01*
X014059Y012682D01*
X013619Y012682D01*
X013619Y013121D01*
X013521Y013121D01*
X013521Y013297D01*
X013433Y013510D01*
X013270Y013673D01*
X013250Y013681D01*
X013270Y013690D01*
X013433Y013853D01*
X013521Y014066D01*
X013521Y014101D01*
X013922Y014101D01*
X014261Y014441D01*
X014261Y014922D01*
X013922Y015261D01*
X013521Y015261D01*
X013521Y015297D01*
X013433Y015510D01*
X013270Y015673D01*
X013057Y015761D01*
X012306Y015761D01*
X012093Y015673D01*
X012001Y015581D01*
X011852Y015581D01*
X011705Y015520D01*
X011592Y015408D01*
X010510Y014325D01*
X010433Y014510D01*
X010270Y014673D01*
X010250Y014681D01*
X010270Y014690D01*
X010433Y014853D01*
X010521Y015066D01*
X010521Y015297D01*
X010433Y015510D01*
X010270Y015673D01*
X010057Y015761D01*
X009306Y015761D01*
X009093Y015673D01*
X008930Y015510D01*
X008841Y015297D01*
X008841Y015066D01*
X008930Y014853D01*
X009093Y014690D01*
X009113Y014681D01*
X009093Y014673D01*
X008930Y014510D01*
X008890Y014414D01*
X008761Y014542D01*
X008761Y014622D01*
X008673Y014835D01*
X008510Y014998D01*
X008297Y015086D01*
X008066Y015086D01*
X007853Y014998D01*
X007690Y014835D01*
X007601Y014622D01*
X007601Y014391D01*
X007690Y014178D01*
X007853Y014015D01*
X008066Y013926D01*
X008246Y013926D01*
X008406Y013766D01*
X008406Y013141D01*
X008297Y013186D01*
X008066Y013186D01*
X007853Y013098D01*
X007690Y012935D01*
X007687Y012929D01*
X007208Y013408D01*
X007096Y013520D01*
X007085Y013525D01*
X007121Y013562D01*
X007121Y013744D01*
X007121Y013926D01*
X006884Y014164D01*
X006922Y014164D01*
X007261Y014504D01*
X007261Y014984D01*
X006922Y015324D01*
X006441Y015324D01*
X006351Y015234D01*
X006351Y015305D01*
X006257Y015533D01*
X006083Y015707D01*
X005855Y015801D01*
X005008Y015801D01*
X004780Y015707D01*
X004606Y015533D01*
X004527Y015343D01*
X004301Y015117D01*
X004301Y015438D01*
X003959Y015780D01*
X004161Y015983D01*
X004161Y016161D01*
X003702Y016161D01*
X003702Y016201D01*
X004161Y016201D01*
X004161Y016380D01*
X003880Y016661D01*
X003701Y016661D01*
X003701Y016202D01*
X003661Y016202D01*
X003661Y016661D01*
X003483Y016661D01*
X003280Y016459D01*
X003114Y016625D01*
X003270Y016690D01*
X003433Y016853D01*
X003521Y017066D01*
X003521Y017297D01*
X003433Y017510D01*
X003270Y017673D01*
X003057Y017761D01*
X002306Y017761D01*
X002093Y017673D01*
X001930Y017510D01*
X001841Y017297D01*
X001841Y017066D01*
X001930Y016853D01*
X002093Y016690D01*
X002249Y016625D01*
X002061Y016438D01*
X002061Y015925D01*
X002305Y015681D01*
X002061Y015438D01*
X002061Y014925D01*
X002305Y014681D01*
X002061Y014438D01*
X002061Y013925D01*
X002305Y013681D01*
X002061Y013438D01*
X002061Y012925D01*
X002305Y012681D01*
X002061Y012438D01*
X002061Y011925D01*
X002305Y011681D01*
X002061Y011438D01*
X000895Y011438D01*
X000895Y011279D02*
X002061Y011279D01*
X002061Y011121D02*
X000895Y011121D01*
X000895Y010962D02*
X002061Y010962D01*
X002061Y010925D02*
X002305Y010681D01*
X002061Y010438D01*
X002061Y009925D01*
X002305Y009681D01*
X002061Y009438D01*
X002061Y008925D01*
X002305Y008681D01*
X002061Y008438D01*
X002061Y007925D01*
X002305Y007681D01*
X002061Y007438D01*
X002061Y006925D01*
X002425Y006561D01*
X002938Y006561D01*
X003181Y006805D01*
X003425Y006561D01*
X003938Y006561D01*
X004301Y006925D01*
X004301Y007438D01*
X004058Y007681D01*
X004301Y007925D01*
X004301Y008438D01*
X004058Y008681D01*
X004301Y008925D01*
X004301Y009438D01*
X004058Y009681D01*
X004301Y009925D01*
X004301Y010438D01*
X004058Y010681D01*
X004301Y010925D01*
X004301Y011438D01*
X004567Y011438D01*
X004579Y011468D02*
X004511Y011305D01*
X004511Y011058D01*
X004606Y010830D01*
X004755Y010681D01*
X004606Y010533D01*
X004511Y010305D01*
X004511Y010058D01*
X004606Y009830D01*
X004755Y009681D01*
X004606Y009533D01*
X004511Y009305D01*
X004511Y009058D01*
X004606Y008830D01*
X004755Y008681D01*
X004606Y008533D01*
X004511Y008305D01*
X004511Y008058D01*
X004606Y007830D01*
X004780Y007656D01*
X004901Y007606D01*
X004859Y007588D01*
X004724Y007453D01*
X004651Y007277D01*
X004651Y007201D01*
X005411Y007201D01*
X005411Y007161D01*
X004651Y007161D01*
X004651Y007086D01*
X004724Y006909D01*
X004859Y006774D01*
X004901Y006757D01*
X004780Y006707D01*
X004606Y006533D01*
X004511Y006305D01*
X004511Y006058D01*
X004606Y005830D01*
X004780Y005656D01*
X005008Y005561D01*
X005855Y005561D01*
X006083Y005656D01*
X006206Y005779D01*
X006342Y005642D01*
X006455Y005530D01*
X006602Y005469D01*
X007227Y005469D01*
X007386Y005469D01*
X007416Y005481D01*
X006516Y004581D01*
X004852Y004581D01*
X004752Y004681D01*
X005011Y004941D01*
X005011Y005422D01*
X004672Y005761D01*
X004191Y005761D01*
X003851Y005422D01*
X003851Y004941D01*
X004111Y004681D01*
X003851Y004422D01*
X003851Y003941D01*
X004191Y003601D01*
X004672Y003601D01*
X004852Y003781D01*
X006602Y003781D01*
X006761Y003781D01*
X006908Y003842D01*
X007929Y004864D01*
X008111Y004681D01*
X007851Y004422D01*
X007851Y003941D01*
X008191Y003601D01*
X008672Y003601D01*
X008898Y003828D02*
X014741Y003828D01*
X015383Y003511D02*
X026611Y003511D01*
X026611Y003669D02*
X023240Y003669D01*
X023172Y003601D02*
X023511Y003941D01*
X023511Y004422D01*
X023172Y004761D01*
X022691Y004761D01*
X022351Y004422D01*
X022351Y003941D01*
X022691Y003601D01*
X023172Y003601D01*
X023398Y003828D02*
X026611Y003828D01*
X026611Y003986D02*
X023511Y003986D01*
X023511Y004145D02*
X026611Y004145D01*
X026611Y004304D02*
X023511Y004304D01*
X023471Y004462D02*
X026611Y004462D01*
X026611Y004621D02*
X023312Y004621D01*
X022550Y004621D02*
X019812Y004621D01*
X019672Y004761D02*
X019191Y004761D01*
X018851Y004422D01*
X018851Y003941D01*
X019191Y003601D01*
X019672Y003601D01*
X020011Y003941D01*
X020011Y004422D01*
X019672Y004761D01*
X019971Y004462D02*
X022392Y004462D01*
X022351Y004304D02*
X020011Y004304D01*
X020011Y004145D02*
X022351Y004145D01*
X022351Y003986D02*
X020011Y003986D01*
X019898Y003828D02*
X022465Y003828D01*
X022623Y003669D02*
X019740Y003669D01*
X019123Y003669D02*
X017740Y003669D01*
X017672Y003601D02*
X018011Y003941D01*
X018011Y004422D01*
X017752Y004681D01*
X018011Y004941D01*
X018011Y005422D01*
X017752Y005681D01*
X018011Y005941D01*
X018011Y006422D01*
X017752Y006681D01*
X018011Y006941D01*
X018011Y007422D01*
X017672Y007761D01*
X017191Y007761D01*
X016851Y007422D01*
X016851Y006941D01*
X017111Y006681D01*
X016851Y006422D01*
X016851Y005941D01*
X017111Y005681D01*
X016851Y005422D01*
X016851Y004941D01*
X017111Y004681D01*
X016851Y004422D01*
X016851Y003941D01*
X017191Y003601D01*
X017672Y003601D01*
X017898Y003828D02*
X018965Y003828D01*
X018851Y003986D02*
X018011Y003986D01*
X018011Y004145D02*
X018851Y004145D01*
X018851Y004304D02*
X018011Y004304D01*
X017971Y004462D02*
X018892Y004462D01*
X019050Y004621D02*
X017812Y004621D01*
X017849Y004779D02*
X021211Y004779D01*
X021249Y004741D02*
X021431Y004741D01*
X021431Y005181D01*
X021432Y005181D01*
X021432Y005182D01*
X021871Y005182D01*
X021871Y005364D01*
X021634Y005601D01*
X021672Y005601D01*
X022011Y005941D01*
X022011Y006422D01*
X021752Y006681D01*
X022011Y006941D01*
X022011Y007422D01*
X021672Y007761D01*
X021191Y007761D01*
X020851Y007422D01*
X020851Y006941D01*
X021111Y006681D01*
X020851Y006422D01*
X020851Y005941D01*
X021191Y005601D01*
X021229Y005601D01*
X020991Y005364D01*
X020991Y005182D01*
X021431Y005182D01*
X021431Y005181D01*
X020991Y005181D01*
X020991Y004999D01*
X021249Y004741D01*
X021432Y004741D02*
X021432Y005181D01*
X021871Y005181D01*
X021871Y004999D01*
X021614Y004741D01*
X021432Y004741D01*
X021431Y004779D02*
X021432Y004779D01*
X021431Y004938D02*
X021432Y004938D01*
X021431Y005096D02*
X021432Y005096D01*
X021651Y004779D02*
X026611Y004779D01*
X026611Y004938D02*
X021810Y004938D01*
X021871Y005096D02*
X026611Y005096D01*
X026611Y005255D02*
X021871Y005255D01*
X021822Y005413D02*
X026611Y005413D01*
X026611Y005572D02*
X021663Y005572D01*
X021801Y005730D02*
X026611Y005730D01*
X026611Y005889D02*
X021959Y005889D01*
X022011Y006048D02*
X026611Y006048D01*
X026611Y006206D02*
X022011Y006206D01*
X022011Y006365D02*
X026611Y006365D01*
X026611Y006523D02*
X021910Y006523D01*
X021752Y006682D02*
X026611Y006682D01*
X026611Y006840D02*
X021910Y006840D01*
X022011Y006999D02*
X026611Y006999D01*
X026611Y007157D02*
X022011Y007157D01*
X022011Y007316D02*
X026611Y007316D01*
X026611Y007474D02*
X021959Y007474D01*
X021800Y007633D02*
X022660Y007633D01*
X022691Y007601D02*
X023172Y007601D01*
X023511Y007941D01*
X023511Y008422D01*
X023172Y008761D01*
X022691Y008761D01*
X022351Y008422D01*
X022351Y007941D01*
X022691Y007601D01*
X022501Y007791D02*
X015718Y007791D01*
X015757Y007830D02*
X015608Y007681D01*
X015757Y007533D01*
X015851Y007305D01*
X015851Y007058D01*
X015757Y006830D01*
X015583Y006656D01*
X015461Y006606D01*
X015503Y006588D01*
X015638Y006453D01*
X015711Y006277D01*
X015711Y006201D01*
X014952Y006201D01*
X014952Y006161D01*
X015711Y006161D01*
X015711Y006086D01*
X015638Y005909D01*
X015503Y005774D01*
X015327Y005701D01*
X014951Y005701D01*
X014951Y006161D01*
X014911Y006161D01*
X014911Y005701D01*
X014536Y005701D01*
X014359Y005774D01*
X014224Y005909D01*
X014151Y006086D01*
X014151Y006161D01*
X014911Y006161D01*
X014911Y006201D01*
X014151Y006201D01*
X014151Y006277D01*
X014224Y006453D01*
X014359Y006588D01*
X014401Y006606D01*
X014280Y006656D01*
X014106Y006830D01*
X014011Y007058D01*
X014011Y007305D01*
X014106Y007533D01*
X014255Y007681D01*
X014106Y007830D01*
X014011Y008058D01*
X014011Y008305D01*
X014106Y008533D01*
X014255Y008681D01*
X014106Y008830D01*
X014011Y009058D01*
X014011Y009305D01*
X014106Y009533D01*
X014255Y009681D01*
X014106Y009830D01*
X014011Y010058D01*
X014011Y010305D01*
X014106Y010533D01*
X014255Y010681D01*
X014106Y010830D01*
X014011Y011058D01*
X014011Y011305D01*
X014106Y011533D01*
X014280Y011707D01*
X014508Y011801D01*
X015355Y011801D01*
X015491Y011745D01*
X015491Y012101D01*
X015379Y012101D01*
X015039Y012441D01*
X015039Y012922D01*
X015379Y013261D01*
X015859Y013261D01*
X016199Y012922D01*
X016199Y012724D01*
X016304Y012618D01*
X016371Y012456D01*
X016371Y010581D01*
X016371Y010406D01*
X016304Y010245D01*
X015992Y009932D01*
X015868Y009808D01*
X015706Y009741D01*
X015668Y009741D01*
X015608Y009681D01*
X015757Y009533D01*
X015851Y009305D01*
X015851Y009058D01*
X015757Y008830D01*
X015608Y008681D01*
X015757Y008533D01*
X015851Y008305D01*
X015851Y008058D01*
X015757Y007830D01*
X015807Y007950D02*
X022351Y007950D01*
X022351Y008109D02*
X015851Y008109D01*
X015851Y008267D02*
X022351Y008267D01*
X022355Y008426D02*
X015801Y008426D01*
X015705Y008584D02*
X022514Y008584D01*
X022673Y008743D02*
X021615Y008743D01*
X021614Y008741D02*
X021871Y008999D01*
X021871Y009181D01*
X021432Y009181D01*
X021432Y008741D01*
X021614Y008741D01*
X021432Y008743D02*
X021431Y008743D01*
X021431Y008741D02*
X021431Y009181D01*
X020991Y009181D01*
X020991Y008999D01*
X021249Y008741D01*
X021431Y008741D01*
X021431Y008901D02*
X021432Y008901D01*
X021431Y009060D02*
X021432Y009060D01*
X021248Y008743D02*
X017813Y008743D01*
X017672Y008601D02*
X018011Y008941D01*
X018011Y009422D01*
X017672Y009761D01*
X017634Y009761D01*
X017871Y009999D01*
X017871Y010181D01*
X017432Y010181D01*
X017432Y010182D01*
X017871Y010182D01*
X017871Y010364D01*
X017634Y010601D01*
X017672Y010601D01*
X018011Y010941D01*
X018011Y011422D01*
X017752Y011681D01*
X018011Y011941D01*
X018011Y012422D01*
X017752Y012681D01*
X018011Y012941D01*
X018011Y013422D01*
X017824Y013609D01*
X018020Y013690D01*
X018183Y013853D01*
X018271Y014066D01*
X018271Y014297D01*
X018183Y014510D01*
X018020Y014673D01*
X017807Y014761D01*
X017056Y014761D01*
X016843Y014673D01*
X016680Y014510D01*
X016591Y014297D01*
X016591Y014066D01*
X016680Y013853D01*
X016843Y013690D01*
X017039Y013609D01*
X016851Y013422D01*
X016851Y012941D01*
X017111Y012681D01*
X016851Y012422D01*
X016851Y011941D01*
X017111Y011681D01*
X016851Y011422D01*
X016851Y010941D01*
X017191Y010601D01*
X017229Y010601D01*
X016991Y010364D01*
X016991Y010182D01*
X017431Y010182D01*
X017431Y010181D01*
X016991Y010181D01*
X016991Y009999D01*
X017229Y009761D01*
X017191Y009761D01*
X016851Y009422D01*
X016851Y008941D01*
X017191Y008601D01*
X017672Y008601D01*
X017971Y008901D02*
X021089Y008901D01*
X020991Y009060D02*
X018011Y009060D01*
X018011Y009218D02*
X020991Y009218D01*
X021005Y009377D02*
X018011Y009377D01*
X017898Y009535D02*
X021163Y009535D01*
X021099Y009694D02*
X017739Y009694D01*
X017725Y009853D02*
X020940Y009853D01*
X020851Y010011D02*
X017871Y010011D01*
X017871Y010170D02*
X020851Y010170D01*
X020851Y010328D02*
X017871Y010328D01*
X017748Y010487D02*
X020917Y010487D01*
X021075Y010645D02*
X017715Y010645D01*
X017874Y010804D02*
X020989Y010804D01*
X020851Y010962D02*
X018011Y010962D01*
X018011Y011121D02*
X020851Y011121D01*
X020851Y011279D02*
X018011Y011279D01*
X017995Y011438D02*
X020868Y011438D01*
X021026Y011597D02*
X017836Y011597D01*
X017825Y011755D02*
X021038Y011755D01*
X020879Y011914D02*
X017984Y011914D01*
X018011Y012072D02*
X020851Y012072D01*
X020851Y012231D02*
X018011Y012231D01*
X018011Y012389D02*
X020851Y012389D01*
X020978Y012548D02*
X017885Y012548D01*
X017777Y012706D02*
X021086Y012706D01*
X020928Y012865D02*
X017935Y012865D01*
X018011Y013023D02*
X020851Y013023D01*
X020851Y013182D02*
X018011Y013182D01*
X018011Y013341D02*
X020851Y013341D01*
X020929Y013499D02*
X017934Y013499D01*
X017942Y013658D02*
X020920Y013658D01*
X020716Y013816D02*
X018146Y013816D01*
X018234Y013975D02*
X020629Y013975D01*
X020591Y014133D02*
X018271Y014133D01*
X018271Y014292D02*
X020591Y014292D01*
X020655Y014450D02*
X018208Y014450D01*
X018084Y014609D02*
X020779Y014609D01*
X021942Y013658D02*
X023019Y013658D01*
X022861Y013816D02*
X022146Y013816D01*
X022234Y013975D02*
X022848Y013975D01*
X022848Y014090D02*
X022848Y013829D01*
X023246Y013431D01*
X023508Y013431D01*
X023508Y014090D01*
X023548Y014090D01*
X023548Y013431D01*
X023809Y013431D01*
X024208Y013829D01*
X024208Y014090D01*
X023548Y014090D01*
X023548Y014131D01*
X023508Y014131D01*
X023508Y014791D01*
X023246Y014791D01*
X022848Y014392D01*
X022848Y014131D01*
X023508Y014131D01*
X023508Y014090D01*
X022848Y014090D01*
X022848Y014133D02*
X022271Y014133D01*
X022271Y014292D02*
X022848Y014292D01*
X022906Y014450D02*
X022208Y014450D01*
X022084Y014609D02*
X023065Y014609D01*
X023223Y014767D02*
X016261Y014767D01*
X016261Y014922D02*
X016261Y014441D01*
X015922Y014101D01*
X015441Y014101D01*
X015101Y014441D01*
X015101Y014922D01*
X015441Y015261D01*
X015922Y015261D01*
X016261Y014922D01*
X016257Y014926D02*
X017367Y014926D01*
X017441Y014851D02*
X017101Y015191D01*
X017101Y015672D01*
X017441Y016011D01*
X017922Y016011D01*
X018261Y015672D01*
X018261Y015191D01*
X017922Y014851D01*
X017441Y014851D01*
X017208Y015084D02*
X016099Y015084D01*
X015940Y015243D02*
X017101Y015243D01*
X017101Y015402D02*
X013478Y015402D01*
X013383Y015560D02*
X017101Y015560D01*
X017148Y015719D02*
X013160Y015719D01*
X012681Y015181D02*
X011931Y015181D01*
X010556Y013806D01*
X010556Y008931D01*
X010306Y008681D01*
X008994Y008681D01*
X008681Y008994D01*
X008681Y009681D01*
X007994Y010369D01*
X007994Y010556D01*
X007494Y010181D02*
X007494Y012556D01*
X006869Y013181D01*
X005431Y013181D01*
X006108Y012681D02*
X006208Y012781D01*
X006304Y012781D01*
X006304Y012619D01*
X006744Y012619D01*
X006369Y012619D01*
X006306Y012681D01*
X004806Y012681D01*
X004556Y012931D01*
X004556Y013494D01*
X004744Y013681D01*
X006619Y013681D01*
X006681Y013744D01*
X006682Y013744D02*
X007121Y013744D01*
X006682Y013744D01*
X006682Y013744D01*
X006914Y014133D02*
X007734Y014133D01*
X007643Y014292D02*
X007049Y014292D01*
X007208Y014450D02*
X007601Y014450D01*
X007601Y014609D02*
X007261Y014609D01*
X007261Y014767D02*
X007662Y014767D01*
X007781Y014926D02*
X007261Y014926D01*
X007161Y015084D02*
X008061Y015084D01*
X008301Y015084D02*
X008841Y015084D01*
X008841Y015243D02*
X007002Y015243D01*
X006360Y015243D02*
X006351Y015243D01*
X006311Y015402D02*
X008885Y015402D01*
X008980Y015560D02*
X006229Y015560D01*
X006054Y015719D02*
X009203Y015719D01*
X008899Y014926D02*
X008582Y014926D01*
X008701Y014767D02*
X009015Y014767D01*
X009029Y014609D02*
X008761Y014609D01*
X008853Y014450D02*
X008905Y014450D01*
X008806Y013931D02*
X008181Y014556D01*
X008181Y014506D01*
X007949Y013975D02*
X007073Y013975D01*
X007121Y013816D02*
X008356Y013816D01*
X008406Y013658D02*
X007121Y013658D01*
X007117Y013499D02*
X008406Y013499D01*
X008406Y013341D02*
X007275Y013341D01*
X007434Y013182D02*
X008055Y013182D01*
X008307Y013182D02*
X008406Y013182D01*
X008181Y012619D02*
X008181Y012606D01*
X008181Y011181D01*
X008744Y010619D01*
X008744Y010056D01*
X009619Y009181D01*
X009681Y009181D01*
X008681Y008056D02*
X009056Y007681D01*
X010619Y007681D01*
X010994Y008056D01*
X010994Y011119D01*
X012056Y012181D01*
X012681Y012181D01*
X013335Y011755D02*
X014396Y011755D01*
X014170Y011597D02*
X013346Y011597D01*
X013463Y011438D02*
X014067Y011438D01*
X014011Y011279D02*
X013521Y011279D01*
X013521Y011121D02*
X014011Y011121D01*
X014051Y010962D02*
X013478Y010962D01*
X013384Y010804D02*
X014132Y010804D01*
X014218Y010645D02*
X013298Y010645D01*
X013443Y010487D02*
X014087Y010487D01*
X014021Y010328D02*
X013508Y010328D01*
X013521Y010170D02*
X014011Y010170D01*
X014031Y010011D02*
X013499Y010011D01*
X013433Y009853D02*
X014096Y009853D01*
X014242Y009694D02*
X013274Y009694D01*
X013408Y009535D02*
X014109Y009535D01*
X014041Y009377D02*
X013488Y009377D01*
X013521Y009218D02*
X014011Y009218D01*
X014011Y009060D02*
X013519Y009060D01*
X013453Y008901D02*
X014076Y008901D01*
X014193Y008743D02*
X013323Y008743D01*
X013359Y008584D02*
X014157Y008584D01*
X014062Y008426D02*
X013468Y008426D01*
X013521Y008267D02*
X014011Y008267D01*
X014011Y008109D02*
X013521Y008109D01*
X013473Y007950D02*
X014056Y007950D01*
X014144Y007791D02*
X013372Y007791D01*
X013310Y007633D02*
X014206Y007633D01*
X014082Y007474D02*
X013448Y007474D01*
X013514Y007316D02*
X014016Y007316D01*
X014011Y007157D02*
X013521Y007157D01*
X013494Y006999D02*
X014036Y006999D01*
X014102Y006840D02*
X013420Y006840D01*
X013251Y006682D02*
X014254Y006682D01*
X014294Y006523D02*
X013420Y006523D01*
X013493Y006365D02*
X014188Y006365D01*
X014151Y006206D02*
X013521Y006206D01*
X013514Y006048D02*
X014167Y006048D01*
X014245Y005889D02*
X013448Y005889D01*
X013311Y005730D02*
X014466Y005730D01*
X014911Y005730D02*
X014951Y005730D01*
X014951Y005889D02*
X014911Y005889D01*
X014911Y006048D02*
X014951Y006048D01*
X015397Y005730D02*
X017062Y005730D01*
X017002Y005572D02*
X009861Y005572D01*
X010011Y005413D02*
X014843Y005413D01*
X014685Y005255D02*
X010011Y005255D01*
X010011Y005096D02*
X014601Y005096D01*
X014118Y004938D02*
X010008Y004938D01*
X009849Y004779D02*
X013959Y004779D01*
X013851Y004621D02*
X009691Y004621D01*
X009172Y004621D02*
X008812Y004621D01*
X008849Y004779D02*
X009013Y004779D01*
X008971Y004462D02*
X013851Y004462D01*
X013851Y004304D02*
X009011Y004304D01*
X009011Y004145D02*
X013898Y004145D01*
X014056Y003986D02*
X009011Y003986D01*
X008123Y003669D02*
X004740Y003669D01*
X004431Y004181D02*
X006681Y004181D01*
X008681Y006181D01*
X009619Y006181D01*
X009681Y006119D01*
X009681Y006181D01*
X010250Y006682D02*
X012112Y006682D01*
X011942Y006840D02*
X010420Y006840D01*
X010494Y006999D02*
X011869Y006999D01*
X011841Y007157D02*
X010521Y007157D01*
X010782Y007316D02*
X011849Y007316D01*
X011915Y007474D02*
X010978Y007474D01*
X011136Y007633D02*
X012053Y007633D01*
X011991Y007791D02*
X011295Y007791D01*
X011383Y007950D02*
X011889Y007950D01*
X011841Y008109D02*
X011394Y008109D01*
X011394Y008267D02*
X011841Y008267D01*
X011895Y008426D02*
X011394Y008426D01*
X011394Y008584D02*
X012004Y008584D01*
X012040Y008743D02*
X011394Y008743D01*
X011394Y008901D02*
X011910Y008901D01*
X011844Y009060D02*
X011394Y009060D01*
X011394Y009218D02*
X011841Y009218D01*
X011875Y009377D02*
X011394Y009377D01*
X011394Y009535D02*
X011955Y009535D01*
X012089Y009694D02*
X011394Y009694D01*
X011394Y009853D02*
X011930Y009853D01*
X011864Y010011D02*
X011394Y010011D01*
X011394Y010170D02*
X011841Y010170D01*
X011854Y010328D02*
X011394Y010328D01*
X011394Y010487D02*
X011920Y010487D01*
X012065Y010645D02*
X011394Y010645D01*
X011394Y010804D02*
X011979Y010804D01*
X011884Y010962D02*
X011403Y010962D01*
X011562Y011121D02*
X011841Y011121D01*
X011841Y011279D02*
X011720Y011279D01*
X011879Y011438D02*
X011900Y011438D01*
X013458Y011914D02*
X015491Y011914D01*
X015491Y012072D02*
X013521Y012072D01*
X013521Y012231D02*
X015249Y012231D01*
X015091Y012389D02*
X013949Y012389D01*
X014059Y012548D02*
X015039Y012548D01*
X015039Y012706D02*
X014059Y012706D01*
X014058Y012865D02*
X015039Y012865D01*
X015141Y013023D02*
X013899Y013023D01*
X013619Y013023D02*
X013619Y013023D01*
X013619Y012865D02*
X013619Y012865D01*
X013619Y012706D02*
X013619Y012706D01*
X013619Y012548D02*
X013619Y012548D01*
X013619Y012389D02*
X013619Y012389D01*
X013521Y013182D02*
X015299Y013182D01*
X015939Y013182D02*
X016851Y013182D01*
X016851Y013341D02*
X013503Y013341D01*
X013438Y013499D02*
X016929Y013499D01*
X016920Y013658D02*
X013285Y013658D01*
X013396Y013816D02*
X016716Y013816D01*
X016629Y013975D02*
X013484Y013975D01*
X013953Y014133D02*
X015409Y014133D01*
X015251Y014292D02*
X014112Y014292D01*
X014261Y014450D02*
X015101Y014450D01*
X015101Y014609D02*
X014261Y014609D01*
X014261Y014767D02*
X015101Y014767D01*
X015106Y014926D02*
X014257Y014926D01*
X014099Y015084D02*
X015264Y015084D01*
X015423Y015243D02*
X013940Y015243D01*
X012203Y015719D02*
X010160Y015719D01*
X010383Y015560D02*
X011801Y015560D01*
X011586Y015402D02*
X010478Y015402D01*
X010521Y015243D02*
X011427Y015243D01*
X011269Y015084D02*
X010521Y015084D01*
X010463Y014926D02*
X011110Y014926D01*
X010952Y014767D02*
X010348Y014767D01*
X010334Y014609D02*
X010793Y014609D01*
X010635Y014450D02*
X010458Y014450D01*
X008806Y013931D02*
X008806Y011119D01*
X009681Y010244D01*
X009681Y010181D01*
X007494Y010181D02*
X006994Y009681D01*
X006994Y009556D01*
X006306Y009244D02*
X006994Y008556D01*
X007494Y008056D01*
X008681Y008056D01*
X008994Y007244D02*
X009619Y007244D01*
X009681Y007181D01*
X008994Y007244D02*
X008306Y006556D01*
X007994Y006556D01*
X007306Y005869D01*
X006681Y005869D01*
X006369Y006181D01*
X005431Y006181D01*
X005961Y006757D02*
X006003Y006774D01*
X006138Y006909D01*
X006211Y007086D01*
X006211Y007161D01*
X005452Y007161D01*
X005452Y007201D01*
X006211Y007201D01*
X006211Y007277D01*
X006138Y007453D01*
X006003Y007588D01*
X005961Y007606D01*
X006083Y007656D01*
X006257Y007830D01*
X006351Y008058D01*
X006351Y008305D01*
X006257Y008533D01*
X006108Y008681D01*
X006206Y008779D01*
X006374Y008611D01*
X006374Y008300D01*
X006617Y008056D01*
X006374Y007813D01*
X006374Y007300D01*
X006716Y006957D01*
X006514Y006755D01*
X006514Y006576D01*
X006974Y006576D01*
X006974Y006536D01*
X006557Y006536D01*
X006449Y006581D01*
X006289Y006581D01*
X006208Y006581D01*
X006083Y006707D01*
X005961Y006757D01*
X006069Y006840D02*
X006599Y006840D01*
X006675Y006999D02*
X006175Y006999D01*
X006211Y007157D02*
X006516Y007157D01*
X006374Y007316D02*
X006195Y007316D01*
X006117Y007474D02*
X006374Y007474D01*
X006374Y007633D02*
X006027Y007633D01*
X006218Y007791D02*
X006374Y007791D01*
X006307Y007950D02*
X006511Y007950D01*
X006565Y008109D02*
X006351Y008109D01*
X006351Y008267D02*
X006406Y008267D01*
X006374Y008426D02*
X006301Y008426D01*
X006374Y008584D02*
X006205Y008584D01*
X006170Y008743D02*
X006242Y008743D01*
X006306Y009244D02*
X006306Y010556D01*
X005681Y011181D01*
X005431Y011181D01*
X004931Y011681D02*
X004306Y012306D01*
X004306Y014556D01*
X004931Y015181D01*
X005431Y015181D01*
X005494Y015181D01*
X004808Y015719D02*
X004021Y015719D01*
X004056Y015877D02*
X017307Y015877D01*
X018056Y015877D02*
X021980Y015877D01*
X022066Y015841D02*
X022297Y015841D01*
X022510Y015930D01*
X022673Y016093D01*
X022708Y016177D01*
X022708Y015947D01*
X022833Y015646D01*
X023063Y015415D01*
X023365Y015291D01*
X023691Y015291D01*
X023992Y015415D01*
X024223Y015646D01*
X024348Y015947D01*
X024348Y016274D01*
X024223Y016575D01*
X023992Y016806D01*
X023968Y016816D01*
X023968Y016986D01*
X024268Y016861D01*
X024595Y016861D01*
X024896Y016986D01*
X025127Y017217D01*
X025251Y017518D01*
X025251Y017845D01*
X025127Y018146D01*
X024896Y018377D01*
X024595Y018501D01*
X024268Y018501D01*
X023968Y018377D01*
X023968Y019183D01*
X024150Y019001D01*
X024411Y019001D01*
X024411Y019661D01*
X024451Y019661D01*
X024451Y019001D01*
X024713Y019001D01*
X025111Y019400D01*
X025111Y019661D01*
X024452Y019661D01*
X024452Y019701D01*
X025111Y019701D01*
X025111Y019963D01*
X024713Y020361D01*
X024451Y020361D01*
X024451Y019702D01*
X024411Y019702D01*
X024411Y020361D01*
X024150Y020361D01*
X023751Y019963D01*
X023751Y019734D01*
X022761Y020724D01*
X022761Y021057D01*
X022673Y021270D01*
X022510Y021433D01*
X022297Y021521D01*
X022066Y021521D01*
X021853Y021433D01*
X021690Y021270D01*
X021601Y021057D01*
X021601Y020306D01*
X021690Y020093D01*
X021853Y019930D01*
X022066Y019841D01*
X022297Y019841D01*
X022369Y019871D01*
X023088Y019153D01*
X023088Y016816D01*
X023063Y016806D01*
X022833Y016575D01*
X022761Y016403D01*
X022761Y017057D01*
X022673Y017270D01*
X022510Y017433D01*
X022297Y017521D01*
X022066Y017521D01*
X021853Y017433D01*
X021690Y017270D01*
X021601Y017057D01*
X021601Y016306D01*
X021690Y016093D01*
X021853Y015930D01*
X022066Y015841D01*
X022383Y015877D02*
X022737Y015877D01*
X022708Y016036D02*
X022616Y016036D01*
X022803Y015719D02*
X018214Y015719D01*
X018261Y015560D02*
X022919Y015560D01*
X023097Y015402D02*
X018261Y015402D01*
X018261Y015243D02*
X026631Y015243D01*
X026631Y015084D02*
X018155Y015084D01*
X017996Y014926D02*
X026631Y014926D01*
X026632Y014767D02*
X023833Y014767D01*
X023809Y014791D02*
X023548Y014791D01*
X023548Y014131D01*
X024208Y014131D01*
X024208Y014392D01*
X023809Y014791D01*
X023991Y014609D02*
X026632Y014609D01*
X026632Y014450D02*
X024150Y014450D01*
X024208Y014292D02*
X026633Y014292D01*
X026284Y014133D02*
X024208Y014133D01*
X024208Y013975D02*
X026239Y013975D01*
X026239Y013816D02*
X024195Y013816D01*
X024037Y013658D02*
X026239Y013658D01*
X026239Y013499D02*
X023878Y013499D01*
X023548Y013499D02*
X023508Y013499D01*
X023508Y013658D02*
X023548Y013658D01*
X023548Y013816D02*
X023508Y013816D01*
X023508Y013975D02*
X023548Y013975D01*
X023548Y014133D02*
X023508Y014133D01*
X023508Y014292D02*
X023548Y014292D01*
X023548Y014450D02*
X023508Y014450D01*
X023508Y014609D02*
X023548Y014609D01*
X023548Y014767D02*
X023508Y014767D01*
X023959Y015402D02*
X026630Y015402D01*
X026630Y015560D02*
X024137Y015560D01*
X024253Y015719D02*
X026629Y015719D01*
X026629Y015877D02*
X024319Y015877D01*
X024348Y016036D02*
X026629Y016036D01*
X026628Y016194D02*
X024348Y016194D01*
X024315Y016353D02*
X026628Y016353D01*
X026628Y016511D02*
X024249Y016511D01*
X024128Y016670D02*
X026627Y016670D01*
X026627Y016828D02*
X023968Y016828D01*
X023088Y016828D02*
X022761Y016828D01*
X022761Y016670D02*
X022928Y016670D01*
X022806Y016511D02*
X022761Y016511D01*
X022761Y016987D02*
X023088Y016987D01*
X023088Y017146D02*
X022725Y017146D01*
X022639Y017304D02*
X023088Y017304D01*
X023088Y017463D02*
X022439Y017463D01*
X021924Y017463D02*
X021382Y017463D01*
X021470Y017499D02*
X021283Y017421D01*
X021211Y017421D01*
X021211Y017901D01*
X021151Y017901D01*
X020671Y017901D01*
X020671Y017830D01*
X020749Y017643D01*
X020893Y017499D01*
X021080Y017421D01*
X021151Y017421D01*
X021151Y017901D01*
X021151Y017961D01*
X020671Y017961D01*
X020671Y018033D01*
X020749Y018220D01*
X020893Y018364D01*
X021080Y018441D01*
X021151Y018441D01*
X021151Y017962D01*
X021211Y017962D01*
X021211Y018441D01*
X021283Y018441D01*
X021470Y018364D01*
X021614Y018220D01*
X021691Y018033D01*
X021691Y017961D01*
X021212Y017961D01*
X021212Y017901D01*
X021691Y017901D01*
X021691Y017830D01*
X021614Y017643D01*
X021470Y017499D01*
X021592Y017621D02*
X023088Y017621D01*
X023088Y017780D02*
X021671Y017780D01*
X021665Y018097D02*
X023088Y018097D01*
X023088Y018255D02*
X021579Y018255D01*
X021349Y018414D02*
X023088Y018414D01*
X023088Y018572D02*
X017511Y018572D01*
X017521Y018414D02*
X021014Y018414D01*
X021151Y018414D02*
X021211Y018414D01*
X021211Y018255D02*
X021151Y018255D01*
X021151Y018097D02*
X021211Y018097D01*
X021212Y017938D02*
X023088Y017938D01*
X023968Y018414D02*
X024057Y018414D01*
X023968Y018572D02*
X026623Y018572D01*
X026623Y018414D02*
X024806Y018414D01*
X025017Y018255D02*
X026624Y018255D01*
X026624Y018097D02*
X025147Y018097D01*
X025213Y017938D02*
X026624Y017938D01*
X026625Y017780D02*
X025251Y017780D01*
X025251Y017621D02*
X026625Y017621D01*
X026625Y017463D02*
X025228Y017463D01*
X025163Y017304D02*
X026626Y017304D01*
X026626Y017146D02*
X025055Y017146D01*
X024897Y016987D02*
X026626Y016987D01*
X026622Y018731D02*
X023968Y018731D01*
X023968Y018890D02*
X026622Y018890D01*
X026622Y019048D02*
X024760Y019048D01*
X024918Y019207D02*
X026621Y019207D01*
X026621Y019365D02*
X025077Y019365D01*
X025111Y019524D02*
X026621Y019524D01*
X026620Y019682D02*
X024452Y019682D01*
X024451Y019524D02*
X024411Y019524D01*
X024411Y019365D02*
X024451Y019365D01*
X024451Y019207D02*
X024411Y019207D01*
X024411Y019048D02*
X024451Y019048D01*
X024103Y019048D02*
X023968Y019048D01*
X023088Y019048D02*
X018118Y019048D01*
X018261Y019207D02*
X023034Y019207D01*
X022875Y019365D02*
X018261Y019365D01*
X018261Y019524D02*
X022717Y019524D01*
X022558Y019682D02*
X018251Y019682D01*
X018239Y019841D02*
X022400Y019841D01*
X021783Y019999D02*
X018239Y019999D01*
X018239Y020158D02*
X021663Y020158D01*
X021601Y020316D02*
X018239Y020316D01*
X018239Y020475D02*
X018318Y020475D01*
X019045Y020475D02*
X021601Y020475D01*
X021601Y020634D02*
X019204Y020634D01*
X019261Y020792D02*
X021601Y020792D01*
X021601Y020951D02*
X019261Y020951D01*
X019261Y021109D02*
X021623Y021109D01*
X021689Y021268D02*
X019165Y021268D01*
X019007Y021426D02*
X019642Y021426D01*
X019604Y021442D02*
X019817Y021354D01*
X020046Y021354D01*
X020259Y021442D01*
X020421Y021604D01*
X020509Y021817D01*
X020509Y022046D01*
X020421Y022259D01*
X020259Y022421D01*
X020046Y022509D01*
X019817Y022509D01*
X019604Y022421D01*
X019442Y022259D01*
X019354Y022046D01*
X019354Y021817D01*
X019442Y021604D01*
X019604Y021442D01*
X019461Y021585D02*
X018239Y021585D01*
X018239Y021743D02*
X019384Y021743D01*
X019354Y021902D02*
X018207Y021902D01*
X018098Y022060D02*
X019360Y022060D01*
X019425Y022219D02*
X018023Y022219D01*
X018182Y022377D02*
X019561Y022377D01*
X020302Y022377D02*
X020708Y022377D01*
X020630Y022300D02*
X020531Y022061D01*
X020531Y021802D01*
X020630Y021563D01*
X020813Y021380D01*
X021052Y021281D01*
X021311Y021281D01*
X021550Y021380D01*
X021732Y021563D01*
X021831Y021802D01*
X021831Y022061D01*
X021732Y022300D01*
X021550Y022482D01*
X021311Y022581D01*
X021052Y022581D01*
X020813Y022482D01*
X020630Y022300D01*
X020597Y022219D02*
X020437Y022219D01*
X020503Y022060D02*
X020531Y022060D01*
X020531Y021902D02*
X020509Y021902D01*
X020479Y021743D02*
X020556Y021743D01*
X020621Y021585D02*
X020401Y021585D01*
X020221Y021426D02*
X020767Y021426D01*
X021595Y021426D02*
X021846Y021426D01*
X021741Y021585D02*
X024560Y021585D01*
X024560Y021605D02*
X024560Y021258D01*
X024693Y020938D01*
X024938Y020693D01*
X025258Y020560D01*
X025605Y020560D01*
X025925Y020693D01*
X026170Y020938D01*
X026303Y021258D01*
X026303Y021605D01*
X026170Y021925D01*
X025925Y022170D01*
X025605Y022303D01*
X025258Y022303D01*
X024938Y022170D01*
X024693Y021925D01*
X024560Y021605D01*
X024618Y021743D02*
X021807Y021743D01*
X021831Y021902D02*
X024683Y021902D01*
X024828Y022060D02*
X021831Y022060D01*
X021766Y022219D02*
X025056Y022219D01*
X025807Y022219D02*
X026614Y022219D01*
X026614Y022377D02*
X021655Y022377D01*
X021420Y022536D02*
X026614Y022536D01*
X026613Y022695D02*
X018246Y022695D01*
X018246Y022853D02*
X026613Y022853D01*
X026612Y023012D02*
X018156Y023012D01*
X018246Y022536D02*
X020943Y022536D01*
X022517Y021426D02*
X024560Y021426D01*
X024560Y021268D02*
X022674Y021268D01*
X022740Y021109D02*
X024622Y021109D01*
X024688Y020951D02*
X022761Y020951D01*
X022761Y020792D02*
X024839Y020792D01*
X025081Y020634D02*
X022852Y020634D01*
X023010Y020475D02*
X026618Y020475D01*
X026618Y020634D02*
X025782Y020634D01*
X026024Y020792D02*
X026618Y020792D01*
X026617Y020951D02*
X026175Y020951D01*
X026241Y021109D02*
X026617Y021109D01*
X026616Y021268D02*
X026303Y021268D01*
X026303Y021426D02*
X026616Y021426D01*
X026616Y021585D02*
X026303Y021585D01*
X026245Y021743D02*
X026615Y021743D01*
X026615Y021902D02*
X026179Y021902D01*
X026034Y022060D02*
X026615Y022060D01*
X026619Y020316D02*
X024758Y020316D01*
X024917Y020158D02*
X026619Y020158D01*
X026619Y019999D02*
X025075Y019999D01*
X025111Y019841D02*
X026620Y019841D01*
X024451Y019841D02*
X024411Y019841D01*
X024411Y019999D02*
X024451Y019999D01*
X024451Y020158D02*
X024411Y020158D01*
X024411Y020316D02*
X024451Y020316D01*
X024105Y020316D02*
X023169Y020316D01*
X023327Y020158D02*
X023946Y020158D01*
X023788Y019999D02*
X023486Y019999D01*
X023644Y019841D02*
X023751Y019841D01*
X023088Y018890D02*
X017960Y018890D01*
X017445Y018731D02*
X023088Y018731D01*
X021724Y017304D02*
X020375Y017304D01*
X020421Y017259D02*
X020259Y017421D01*
X020046Y017509D01*
X019817Y017509D01*
X019604Y017421D01*
X019442Y017259D01*
X019354Y017046D01*
X019354Y016817D01*
X019442Y016604D01*
X019604Y016442D01*
X019817Y016354D01*
X020046Y016354D01*
X020259Y016442D01*
X020421Y016604D01*
X020509Y016817D01*
X020509Y017046D01*
X020421Y017259D01*
X020468Y017146D02*
X021638Y017146D01*
X021601Y016987D02*
X020509Y016987D01*
X020509Y016828D02*
X021601Y016828D01*
X021601Y016670D02*
X020448Y016670D01*
X020328Y016511D02*
X021601Y016511D01*
X021601Y016353D02*
X018923Y016353D01*
X018922Y016351D02*
X019261Y016691D01*
X019261Y017172D01*
X018922Y017511D01*
X018441Y017511D01*
X018101Y017172D01*
X018101Y016691D01*
X018441Y016351D01*
X018922Y016351D01*
X019082Y016511D02*
X019535Y016511D01*
X019415Y016670D02*
X019240Y016670D01*
X019261Y016828D02*
X019354Y016828D01*
X019354Y016987D02*
X019261Y016987D01*
X019261Y017146D02*
X019395Y017146D01*
X019487Y017304D02*
X019129Y017304D01*
X018970Y017463D02*
X019705Y017463D01*
X020158Y017463D02*
X020980Y017463D01*
X021151Y017463D02*
X021211Y017463D01*
X021211Y017621D02*
X021151Y017621D01*
X021151Y017780D02*
X021211Y017780D01*
X021151Y017938D02*
X017266Y017938D01*
X017153Y017780D02*
X020692Y017780D01*
X020770Y017621D02*
X017261Y017621D01*
X017261Y017463D02*
X018392Y017463D01*
X018234Y017304D02*
X017261Y017304D01*
X017216Y017146D02*
X018101Y017146D01*
X018101Y016987D02*
X017057Y016987D01*
X016306Y016987D02*
X007489Y016987D01*
X007521Y017066D02*
X007433Y016853D01*
X007270Y016690D01*
X007057Y016601D01*
X006306Y016601D01*
X006093Y016690D01*
X005930Y016853D01*
X005841Y017066D01*
X005841Y017297D01*
X005930Y017510D01*
X006093Y017673D01*
X006306Y017761D01*
X007057Y017761D01*
X007270Y017673D01*
X007433Y017510D01*
X007521Y017297D01*
X007521Y017066D01*
X007521Y017146D02*
X012345Y017146D01*
X012241Y017249D02*
X012499Y016991D01*
X012681Y016991D01*
X012681Y017431D01*
X012682Y017431D01*
X012682Y017432D01*
X013121Y017432D01*
X013121Y017614D01*
X012864Y017871D01*
X012682Y017871D01*
X012682Y017432D01*
X012681Y017432D01*
X012681Y017871D01*
X012499Y017871D01*
X012241Y017614D01*
X012241Y017432D01*
X012681Y017432D01*
X012681Y017431D01*
X012241Y017431D01*
X012241Y017249D01*
X012241Y017304D02*
X007518Y017304D01*
X007453Y017463D02*
X012241Y017463D01*
X012249Y017621D02*
X007322Y017621D01*
X007057Y018101D02*
X007270Y018190D01*
X007433Y018353D01*
X007521Y018566D01*
X007521Y018797D01*
X007433Y019010D01*
X007270Y019173D01*
X007057Y019261D01*
X006306Y019261D01*
X006093Y019173D01*
X005930Y019010D01*
X005841Y018797D01*
X005841Y018566D01*
X005930Y018353D01*
X006093Y018190D01*
X006306Y018101D01*
X007057Y018101D01*
X007336Y018255D02*
X012179Y018255D01*
X012179Y018249D02*
X012437Y017991D01*
X012619Y017991D01*
X012619Y018431D01*
X012619Y018431D01*
X012619Y018432D01*
X012619Y018431D01*
X012179Y018431D01*
X012179Y018249D01*
X012179Y018414D02*
X007458Y018414D01*
X007521Y018572D02*
X012179Y018572D01*
X012296Y018731D02*
X009755Y018731D01*
X009728Y018704D02*
X009909Y018885D01*
X010007Y019122D01*
X010007Y019379D01*
X009909Y019616D01*
X009728Y019797D01*
X009491Y019895D01*
X008585Y019895D01*
X008348Y019797D01*
X008166Y019616D01*
X008068Y019379D01*
X008068Y019122D01*
X008166Y018885D01*
X008348Y018704D01*
X008585Y018606D01*
X009491Y018606D01*
X009728Y018704D01*
X009911Y018890D02*
X012341Y018890D01*
X012182Y019048D02*
X009977Y019048D01*
X010007Y019207D02*
X012039Y019207D01*
X012039Y019365D02*
X010007Y019365D01*
X009947Y019524D02*
X012039Y019524D01*
X012050Y019682D02*
X009842Y019682D01*
X009622Y019841D02*
X012208Y019841D01*
X012367Y019999D02*
X005611Y019999D01*
X005611Y019900D02*
X005611Y020161D01*
X004952Y020161D01*
X004952Y020201D01*
X005611Y020201D01*
X005611Y020463D01*
X005213Y020861D01*
X004951Y020861D01*
X004951Y020202D01*
X004911Y020202D01*
X004911Y020861D01*
X004650Y020861D01*
X004251Y020463D01*
X004251Y020201D01*
X004911Y020201D01*
X004911Y020161D01*
X004251Y020161D01*
X004251Y019900D01*
X004650Y019501D01*
X004911Y019501D01*
X004911Y020161D01*
X004951Y020161D01*
X004951Y019501D01*
X005213Y019501D01*
X005611Y019900D01*
X005552Y019841D02*
X008454Y019841D01*
X008233Y019682D02*
X005394Y019682D01*
X005235Y019524D02*
X008128Y019524D01*
X008068Y019365D02*
X000501Y019365D01*
X000501Y019207D02*
X002174Y019207D01*
X002093Y019173D02*
X002306Y019261D01*
X003057Y019261D01*
X003270Y019173D01*
X003433Y019010D01*
X003521Y018797D01*
X003521Y018566D01*
X003433Y018353D01*
X003270Y018190D01*
X003057Y018101D01*
X002306Y018101D01*
X002093Y018190D01*
X001930Y018353D01*
X001841Y018566D01*
X001841Y018797D01*
X001930Y019010D01*
X002093Y019173D01*
X001968Y019048D02*
X000501Y019048D01*
X000501Y018890D02*
X001880Y018890D01*
X001841Y018731D02*
X000501Y018731D01*
X000501Y018572D02*
X001841Y018572D01*
X001904Y018414D02*
X000501Y018414D01*
X000501Y018255D02*
X002027Y018255D01*
X002041Y017621D02*
X000501Y017621D01*
X000501Y017463D02*
X001910Y017463D01*
X001844Y017304D02*
X000501Y017304D01*
X000501Y017146D02*
X001841Y017146D01*
X001874Y016987D02*
X000501Y016987D01*
X000501Y016828D02*
X001954Y016828D01*
X002141Y016670D02*
X000501Y016670D01*
X000501Y016511D02*
X002135Y016511D01*
X002061Y016353D02*
X000501Y016353D01*
X000501Y016194D02*
X002061Y016194D01*
X002061Y016036D02*
X000501Y016036D01*
X000501Y015877D02*
X002109Y015877D01*
X002267Y015719D02*
X000501Y015719D01*
X000501Y015560D02*
X002183Y015560D01*
X002061Y015402D02*
X000501Y015402D01*
X000501Y015243D02*
X002061Y015243D01*
X002061Y015084D02*
X000501Y015084D01*
X000501Y014926D02*
X002061Y014926D01*
X002219Y014767D02*
X000501Y014767D01*
X000501Y014609D02*
X002232Y014609D01*
X002074Y014450D02*
X000501Y014450D01*
X000501Y014292D02*
X002061Y014292D01*
X002061Y014133D02*
X000850Y014133D01*
X000895Y013975D02*
X002061Y013975D01*
X002170Y013816D02*
X000895Y013816D01*
X000895Y013658D02*
X002281Y013658D01*
X002122Y013499D02*
X000895Y013499D01*
X000895Y013341D02*
X002061Y013341D01*
X002061Y013182D02*
X000895Y013182D01*
X000895Y013023D02*
X002061Y013023D01*
X002121Y012865D02*
X000895Y012865D01*
X000895Y012706D02*
X002280Y012706D01*
X002171Y012548D02*
X000895Y012548D01*
X000895Y012389D02*
X002061Y012389D01*
X002061Y012231D02*
X000895Y012231D01*
X000895Y012072D02*
X002061Y012072D01*
X002072Y011914D02*
X000895Y011914D01*
X000895Y011755D02*
X002231Y011755D01*
X002220Y011597D02*
X000895Y011597D01*
X000895Y010804D02*
X002182Y010804D01*
X002061Y010925D02*
X002061Y011438D01*
X002269Y010645D02*
X000895Y010645D01*
X000895Y010487D02*
X002110Y010487D01*
X002061Y010328D02*
X000895Y010328D01*
X000895Y010170D02*
X002061Y010170D01*
X002061Y010011D02*
X000895Y010011D01*
X000895Y009853D02*
X002133Y009853D01*
X002292Y009694D02*
X000895Y009694D01*
X000882Y009535D02*
X002159Y009535D01*
X002061Y009377D02*
X000774Y009377D01*
X000501Y009218D02*
X002061Y009218D01*
X002061Y009060D02*
X000501Y009060D01*
X000501Y008901D02*
X002085Y008901D01*
X002243Y008743D02*
X000501Y008743D01*
X000501Y008584D02*
X002207Y008584D01*
X002061Y008426D02*
X000501Y008426D01*
X000501Y008267D02*
X002061Y008267D01*
X002061Y008109D02*
X000501Y008109D01*
X000501Y007950D02*
X002061Y007950D01*
X002195Y007791D02*
X000501Y007791D01*
X000501Y007633D02*
X002256Y007633D01*
X002098Y007474D02*
X000501Y007474D01*
X000501Y007316D02*
X002061Y007316D01*
X002061Y007157D02*
X000501Y007157D01*
X000501Y006999D02*
X002061Y006999D01*
X002146Y006840D02*
X000501Y006840D01*
X000501Y006682D02*
X002304Y006682D01*
X003058Y006682D02*
X003304Y006682D01*
X004058Y006682D02*
X004755Y006682D01*
X004794Y006840D02*
X004217Y006840D01*
X004301Y006999D02*
X004687Y006999D01*
X004651Y007157D02*
X004301Y007157D01*
X004301Y007316D02*
X004668Y007316D01*
X004746Y007474D02*
X004265Y007474D01*
X004107Y007633D02*
X004835Y007633D01*
X004644Y007791D02*
X004168Y007791D01*
X004301Y007950D02*
X004556Y007950D01*
X004511Y008109D02*
X004301Y008109D01*
X004301Y008267D02*
X004511Y008267D01*
X004562Y008426D02*
X004301Y008426D01*
X004155Y008584D02*
X004657Y008584D01*
X004693Y008743D02*
X004119Y008743D01*
X004278Y008901D02*
X004576Y008901D01*
X004511Y009060D02*
X004301Y009060D01*
X004301Y009218D02*
X004511Y009218D01*
X004541Y009377D02*
X004301Y009377D01*
X004204Y009535D02*
X004609Y009535D01*
X004742Y009694D02*
X004071Y009694D01*
X004229Y009853D02*
X004596Y009853D01*
X004531Y010011D02*
X004301Y010011D01*
X004301Y010170D02*
X004511Y010170D01*
X004521Y010328D02*
X004301Y010328D01*
X004253Y010487D02*
X004587Y010487D01*
X004718Y010645D02*
X004094Y010645D01*
X004181Y010804D02*
X004632Y010804D01*
X004551Y010962D02*
X004301Y010962D01*
X004301Y011121D02*
X004511Y011121D01*
X004511Y011279D02*
X004301Y011279D01*
X004301Y011438D02*
X004058Y011681D01*
X004212Y011835D01*
X004579Y011468D01*
X004451Y011597D02*
X004143Y011597D01*
X004132Y011755D02*
X004292Y011755D01*
X004931Y011681D02*
X006056Y011681D01*
X006244Y011494D01*
X006244Y011369D01*
X006994Y010619D01*
X006994Y010556D01*
X006343Y012038D02*
X006351Y012058D01*
X006351Y012305D01*
X006257Y012533D01*
X006108Y012681D01*
X006133Y012706D02*
X006304Y012706D01*
X006304Y012619D02*
X006304Y012437D01*
X006542Y012199D01*
X006504Y012199D01*
X006343Y012038D01*
X006351Y012072D02*
X006377Y012072D01*
X006351Y012231D02*
X006510Y012231D01*
X006351Y012389D02*
X006316Y012389D01*
X006304Y012548D02*
X006242Y012548D01*
X006304Y012619D02*
X006744Y012619D01*
X006744Y012619D01*
X007593Y013023D02*
X007778Y013023D01*
X004755Y013681D02*
X004706Y013730D01*
X004706Y013633D01*
X004755Y013681D01*
X004731Y013658D02*
X004706Y013658D01*
X004427Y015243D02*
X004301Y015243D01*
X004301Y015402D02*
X004552Y015402D01*
X004633Y015560D02*
X004179Y015560D01*
X004161Y016036D02*
X021747Y016036D01*
X021648Y016194D02*
X003702Y016194D01*
X003701Y016353D02*
X003661Y016353D01*
X003661Y016511D02*
X003701Y016511D01*
X004030Y016511D02*
X018281Y016511D01*
X018440Y016353D02*
X004161Y016353D01*
X003333Y016511D02*
X003228Y016511D01*
X003222Y016670D02*
X006141Y016670D01*
X005954Y016828D02*
X003409Y016828D01*
X003489Y016987D02*
X005874Y016987D01*
X005841Y017146D02*
X003521Y017146D01*
X003518Y017304D02*
X005844Y017304D01*
X005910Y017463D02*
X003453Y017463D01*
X003322Y017621D02*
X006041Y017621D01*
X006027Y018255D02*
X003336Y018255D01*
X003458Y018414D02*
X005904Y018414D01*
X005841Y018572D02*
X003521Y018572D01*
X003521Y018731D02*
X005841Y018731D01*
X005880Y018890D02*
X003483Y018890D01*
X003395Y019048D02*
X005968Y019048D01*
X006174Y019207D02*
X003189Y019207D01*
X004310Y019841D02*
X000501Y019841D01*
X000501Y019999D02*
X004251Y019999D01*
X004251Y020158D02*
X000501Y020158D01*
X000501Y020316D02*
X004251Y020316D01*
X004263Y020475D02*
X000501Y020475D01*
X000501Y020634D02*
X001331Y020634D01*
X001188Y020693D02*
X001508Y020560D01*
X001855Y020560D01*
X002175Y020693D01*
X002420Y020938D01*
X002553Y021258D01*
X002553Y021605D01*
X002420Y021925D01*
X002175Y022170D01*
X001855Y022303D01*
X001508Y022303D01*
X001188Y022170D01*
X000943Y021925D01*
X000810Y021605D01*
X000810Y021258D01*
X000943Y020938D01*
X001188Y020693D01*
X001089Y020792D02*
X000501Y020792D01*
X000501Y020951D02*
X000938Y020951D01*
X000872Y021109D02*
X000501Y021109D01*
X000501Y021268D02*
X000810Y021268D01*
X000810Y021426D02*
X000501Y021426D01*
X000501Y021585D02*
X000810Y021585D01*
X000868Y021743D02*
X000501Y021743D01*
X000501Y021902D02*
X000933Y021902D01*
X001078Y022060D02*
X000501Y022060D01*
X000501Y022219D02*
X001306Y022219D01*
X002057Y022219D02*
X004111Y022219D01*
X004111Y022345D02*
X004111Y022018D01*
X004236Y021717D01*
X004467Y021486D01*
X004768Y021361D01*
X005095Y021361D01*
X005396Y021486D01*
X005627Y021717D01*
X005751Y022018D01*
X005751Y022345D01*
X005627Y022646D01*
X005396Y022877D01*
X005095Y023001D01*
X004768Y023001D01*
X004467Y022877D01*
X004236Y022646D01*
X004111Y022345D01*
X004125Y022377D02*
X000501Y022377D01*
X000501Y022536D02*
X004191Y022536D01*
X004285Y022695D02*
X000501Y022695D01*
X000501Y022853D02*
X004443Y022853D01*
X004111Y022060D02*
X002284Y022060D01*
X002429Y021902D02*
X004160Y021902D01*
X004225Y021743D02*
X002495Y021743D01*
X002553Y021585D02*
X004368Y021585D01*
X004612Y021426D02*
X002553Y021426D01*
X002553Y021268D02*
X008068Y021268D01*
X008068Y021347D02*
X008068Y021091D01*
X008166Y020854D01*
X008348Y020672D01*
X008585Y020574D01*
X009491Y020574D01*
X009728Y020672D01*
X009909Y020854D01*
X010007Y021091D01*
X010007Y021347D01*
X009909Y021584D01*
X009728Y021765D01*
X009491Y021864D01*
X008585Y021864D01*
X008348Y021765D01*
X008166Y021584D01*
X008068Y021347D01*
X008101Y021426D02*
X005251Y021426D01*
X005494Y021585D02*
X008167Y021585D01*
X008326Y021743D02*
X005637Y021743D01*
X005703Y021902D02*
X011292Y021902D01*
X011244Y022060D02*
X005751Y022060D01*
X005751Y022219D02*
X011151Y022219D01*
X011104Y022377D02*
X005738Y022377D01*
X005672Y022536D02*
X011104Y022536D01*
X011151Y022695D02*
X005578Y022695D01*
X005419Y022853D02*
X011243Y022853D01*
X011443Y023012D02*
X000501Y023012D01*
X002491Y021109D02*
X008068Y021109D01*
X008126Y020951D02*
X002425Y020951D01*
X002274Y020792D02*
X004580Y020792D01*
X004422Y020634D02*
X002032Y020634D01*
X000501Y019682D02*
X004469Y019682D01*
X004627Y019524D02*
X000501Y019524D01*
X000501Y018097D02*
X012331Y018097D01*
X012619Y018097D02*
X012619Y018097D01*
X012619Y018255D02*
X012619Y018255D01*
X012619Y018414D02*
X012619Y018414D01*
X012906Y018097D02*
X013134Y018097D01*
X012955Y017780D02*
X016210Y017780D01*
X016101Y017621D02*
X013114Y017621D01*
X013121Y017463D02*
X016101Y017463D01*
X016101Y017304D02*
X013121Y017304D01*
X013121Y017249D02*
X013121Y017431D01*
X012682Y017431D01*
X012682Y016991D01*
X012864Y016991D01*
X013121Y017249D01*
X013018Y017146D02*
X016147Y017146D01*
X016096Y017938D02*
X000501Y017938D01*
X000501Y017780D02*
X012408Y017780D01*
X012681Y017780D02*
X012682Y017780D01*
X012681Y017621D02*
X012682Y017621D01*
X012681Y017463D02*
X012682Y017463D01*
X012681Y017304D02*
X012682Y017304D01*
X012681Y017146D02*
X012682Y017146D01*
X013682Y017991D02*
X014029Y017991D01*
X014191Y018058D01*
X014314Y018182D01*
X014381Y018344D01*
X014381Y018431D01*
X013682Y018431D01*
X013682Y017991D01*
X013681Y018097D02*
X013682Y018097D01*
X013681Y018255D02*
X013682Y018255D01*
X013681Y018414D02*
X013682Y018414D01*
X014229Y018097D02*
X015936Y018097D01*
X015867Y018255D02*
X014345Y018255D01*
X014381Y018414D02*
X015841Y018414D01*
X015852Y018572D02*
X014359Y018572D01*
X014264Y018731D02*
X015918Y018731D01*
X016059Y018890D02*
X014149Y018890D01*
X014378Y019048D02*
X015985Y019048D01*
X015887Y019207D02*
X014476Y019207D01*
X014521Y019365D02*
X015841Y019365D01*
X015841Y019524D02*
X014521Y019524D01*
X014465Y019682D02*
X015898Y019682D01*
X016011Y019841D02*
X014352Y019841D01*
X014330Y019999D02*
X016033Y019999D01*
X015907Y020158D02*
X014456Y020158D01*
X014521Y020316D02*
X015841Y020316D01*
X015841Y020475D02*
X014521Y020475D01*
X014485Y020634D02*
X015877Y020634D01*
X015962Y020792D02*
X014401Y020792D01*
X014281Y020951D02*
X016082Y020951D01*
X015927Y021109D02*
X014436Y021109D01*
X014501Y021268D02*
X015861Y021268D01*
X015841Y021426D02*
X014521Y021426D01*
X014506Y021585D02*
X015857Y021585D01*
X018239Y021426D02*
X018356Y021426D01*
X017403Y018890D02*
X017303Y018890D01*
X017496Y018255D02*
X020784Y018255D01*
X020698Y018097D02*
X017427Y018097D01*
X018101Y016828D02*
X007409Y016828D01*
X007222Y016670D02*
X018123Y016670D01*
X016779Y014609D02*
X016261Y014609D01*
X016261Y014450D02*
X016655Y014450D01*
X016591Y014292D02*
X016112Y014292D01*
X015953Y014133D02*
X016591Y014133D01*
X016851Y013023D02*
X016097Y013023D01*
X016199Y012865D02*
X016928Y012865D01*
X017086Y012706D02*
X016216Y012706D01*
X016334Y012548D02*
X016978Y012548D01*
X016851Y012389D02*
X016371Y012389D01*
X016371Y012231D02*
X016851Y012231D01*
X016851Y012072D02*
X016371Y012072D01*
X016371Y011914D02*
X016879Y011914D01*
X017038Y011755D02*
X016371Y011755D01*
X016371Y011597D02*
X017026Y011597D01*
X016868Y011438D02*
X016371Y011438D01*
X016371Y011279D02*
X016851Y011279D01*
X016851Y011121D02*
X016371Y011121D01*
X016371Y010962D02*
X016851Y010962D01*
X016989Y010804D02*
X016371Y010804D01*
X016371Y010645D02*
X017147Y010645D01*
X017115Y010487D02*
X016371Y010487D01*
X016339Y010328D02*
X016991Y010328D01*
X016991Y010170D02*
X016229Y010170D01*
X016071Y010011D02*
X016991Y010011D01*
X017138Y009853D02*
X015912Y009853D01*
X015621Y009694D02*
X017124Y009694D01*
X016965Y009535D02*
X015754Y009535D01*
X015821Y009377D02*
X016851Y009377D01*
X016851Y009218D02*
X015851Y009218D01*
X015851Y009060D02*
X016851Y009060D01*
X016891Y008901D02*
X015786Y008901D01*
X015670Y008743D02*
X017050Y008743D01*
X017063Y007633D02*
X015657Y007633D01*
X015781Y007474D02*
X016904Y007474D01*
X016851Y007316D02*
X015847Y007316D01*
X015851Y007157D02*
X016851Y007157D01*
X016851Y006999D02*
X015827Y006999D01*
X015761Y006840D02*
X016952Y006840D01*
X017111Y006682D02*
X015609Y006682D01*
X015568Y006523D02*
X016953Y006523D01*
X016851Y006365D02*
X015675Y006365D01*
X015711Y006206D02*
X016851Y006206D01*
X016851Y006048D02*
X015695Y006048D01*
X015618Y005889D02*
X016904Y005889D01*
X016851Y005413D02*
X015520Y005413D01*
X015678Y005255D02*
X016851Y005255D01*
X016851Y005096D02*
X015761Y005096D01*
X015761Y004938D02*
X016855Y004938D01*
X017013Y004779D02*
X015761Y004779D01*
X015691Y004621D02*
X017050Y004621D01*
X016892Y004462D02*
X015532Y004462D01*
X015431Y004304D02*
X016851Y004304D01*
X016851Y004145D02*
X015590Y004145D01*
X015621Y003986D02*
X016851Y003986D01*
X016965Y003828D02*
X015621Y003828D01*
X015542Y003669D02*
X017123Y003669D01*
X017146Y003035D02*
X025216Y003035D01*
X024895Y002877D02*
X017385Y002877D01*
X017470Y002718D02*
X024736Y002718D01*
X025647Y003035D02*
X026611Y003035D01*
X026611Y002877D02*
X025968Y002877D01*
X026127Y002718D02*
X026611Y002718D01*
X026611Y002560D02*
X026218Y002560D01*
X026283Y002401D02*
X026611Y002401D01*
X026611Y002242D02*
X026303Y002242D01*
X026303Y002084D02*
X026611Y002084D01*
X026611Y001925D02*
X026268Y001925D01*
X026203Y001767D02*
X026611Y001767D01*
X026611Y001608D02*
X026090Y001608D01*
X025932Y001450D02*
X026611Y001450D01*
X026611Y001291D02*
X017388Y001291D01*
X017541Y001133D02*
X026611Y001133D01*
X026611Y000974D02*
X017607Y000974D01*
X017631Y000816D02*
X026611Y000816D01*
X026611Y000657D02*
X017627Y000657D01*
X016691Y002091D02*
X016316Y002091D01*
X016139Y002164D01*
X016004Y002299D01*
X015931Y002476D01*
X015931Y002551D01*
X016691Y002551D01*
X016691Y002091D01*
X016691Y002242D02*
X016731Y002242D01*
X016731Y002401D02*
X016691Y002401D01*
X016691Y002718D02*
X016731Y002718D01*
X016731Y002877D02*
X016691Y002877D01*
X016691Y003035D02*
X016731Y003035D01*
X016277Y003035D02*
X014586Y003035D01*
X014825Y002877D02*
X016038Y002877D01*
X015953Y002718D02*
X014910Y002718D01*
X014900Y002401D02*
X015962Y002401D01*
X016061Y002242D02*
X014801Y002242D01*
X014171Y002242D02*
X014131Y002242D01*
X014131Y002401D02*
X014171Y002401D01*
X014171Y002718D02*
X014131Y002718D01*
X014131Y002877D02*
X014171Y002877D01*
X014171Y003035D02*
X014131Y003035D01*
X014828Y001291D02*
X016034Y001291D01*
X015882Y001133D02*
X014981Y001133D01*
X015047Y000974D02*
X015816Y000974D01*
X015791Y000816D02*
X015071Y000816D01*
X015067Y000657D02*
X015796Y000657D01*
X011160Y001133D02*
X010703Y001133D01*
X010861Y001291D02*
X011001Y001291D01*
X011014Y002084D02*
X010849Y002084D01*
X010691Y002242D02*
X011172Y002242D01*
X010172Y002242D02*
X002553Y002242D01*
X002553Y002084D02*
X010014Y002084D01*
X009851Y001608D02*
X009825Y001608D01*
X010011Y001133D02*
X010160Y001133D01*
X007965Y003828D02*
X006873Y003828D01*
X007052Y003986D02*
X007851Y003986D01*
X007851Y004145D02*
X007211Y004145D01*
X007369Y004304D02*
X007851Y004304D01*
X007892Y004462D02*
X007528Y004462D01*
X007686Y004621D02*
X008050Y004621D01*
X008013Y004779D02*
X007845Y004779D01*
X007348Y005413D02*
X005011Y005413D01*
X005011Y005255D02*
X007189Y005255D01*
X007031Y005096D02*
X005011Y005096D01*
X005008Y004938D02*
X006872Y004938D01*
X006714Y004779D02*
X004849Y004779D01*
X004812Y004621D02*
X006555Y004621D01*
X006413Y005572D02*
X005880Y005572D01*
X006157Y005730D02*
X006254Y005730D01*
X006342Y005642D02*
X006342Y005642D01*
X006514Y006682D02*
X006108Y006682D01*
X004983Y005572D02*
X004861Y005572D01*
X004706Y005730D02*
X004703Y005730D01*
X004581Y005889D02*
X000501Y005889D01*
X000501Y006048D02*
X004516Y006048D01*
X004511Y006206D02*
X000501Y006206D01*
X000501Y006365D02*
X004536Y006365D01*
X004602Y006523D02*
X000501Y006523D01*
X000501Y005730D02*
X004160Y005730D01*
X004002Y005572D02*
X000501Y005572D01*
X000501Y005413D02*
X003851Y005413D01*
X003851Y005255D02*
X000501Y005255D01*
X000501Y005096D02*
X003851Y005096D01*
X003855Y004938D02*
X000501Y004938D01*
X000501Y004779D02*
X004013Y004779D01*
X004050Y004621D02*
X000501Y004621D01*
X000501Y004462D02*
X003892Y004462D01*
X003851Y004304D02*
X000501Y004304D01*
X000501Y004145D02*
X003851Y004145D01*
X003851Y003986D02*
X000501Y003986D01*
X000501Y003828D02*
X003965Y003828D01*
X004123Y003669D02*
X000501Y003669D01*
X004058Y001889D02*
X004058Y001889D01*
X003522Y000657D02*
X003490Y000657D01*
X007994Y006556D02*
X007994Y006556D01*
X006994Y008556D02*
X006994Y008556D01*
X006994Y008556D01*
X010420Y006523D02*
X011943Y006523D01*
X011870Y006365D02*
X010493Y006365D01*
X010521Y006206D02*
X011841Y006206D01*
X011849Y006048D02*
X010514Y006048D01*
X010448Y005889D02*
X011915Y005889D01*
X012052Y005730D02*
X010311Y005730D01*
X015467Y011755D02*
X015491Y011755D01*
X017800Y007633D02*
X021063Y007633D01*
X020904Y007474D02*
X017959Y007474D01*
X018011Y007316D02*
X020851Y007316D01*
X020851Y007157D02*
X018011Y007157D01*
X018011Y006999D02*
X020851Y006999D01*
X020952Y006840D02*
X017910Y006840D01*
X017752Y006682D02*
X021111Y006682D01*
X020953Y006523D02*
X017910Y006523D01*
X018011Y006365D02*
X020851Y006365D01*
X020851Y006206D02*
X018011Y006206D01*
X018011Y006048D02*
X020851Y006048D01*
X020904Y005889D02*
X017959Y005889D01*
X017801Y005730D02*
X021062Y005730D01*
X021200Y005572D02*
X017861Y005572D01*
X018011Y005413D02*
X021041Y005413D01*
X020991Y005255D02*
X018011Y005255D01*
X018011Y005096D02*
X020991Y005096D01*
X021053Y004938D02*
X018008Y004938D01*
X021774Y008901D02*
X026611Y008901D01*
X026611Y008743D02*
X023190Y008743D01*
X023349Y008584D02*
X026611Y008584D01*
X026611Y008426D02*
X023507Y008426D01*
X023511Y008267D02*
X026611Y008267D01*
X026611Y008109D02*
X023511Y008109D01*
X023511Y007950D02*
X026611Y007950D01*
X026611Y007791D02*
X023362Y007791D01*
X023203Y007633D02*
X026611Y007633D01*
X026611Y009060D02*
X023379Y009060D01*
X023364Y009045D02*
X023621Y009302D01*
X023621Y009484D01*
X023182Y009484D01*
X023182Y009045D01*
X023364Y009045D01*
X023182Y009060D02*
X023181Y009060D01*
X023181Y009218D02*
X023182Y009218D01*
X023181Y009377D02*
X023182Y009377D01*
X022984Y009060D02*
X021871Y009060D01*
X021871Y009218D02*
X022825Y009218D01*
X022741Y009377D02*
X021858Y009377D01*
X021700Y009535D02*
X022060Y009535D01*
X021902Y009694D02*
X021764Y009694D01*
X021946Y010487D02*
X022113Y010487D01*
X021788Y010645D02*
X022601Y010645D01*
X022680Y010804D02*
X021874Y010804D01*
X022011Y010962D02*
X022839Y010962D01*
X022816Y011279D02*
X022011Y011279D01*
X022011Y011121D02*
X026239Y011121D01*
X026239Y011279D02*
X023546Y011279D01*
X023705Y011438D02*
X026239Y011438D01*
X026239Y011597D02*
X023761Y011597D01*
X023761Y011755D02*
X026239Y011755D01*
X026239Y011914D02*
X023761Y011914D01*
X023664Y012072D02*
X026239Y012072D01*
X026239Y012231D02*
X023505Y012231D01*
X023656Y012389D02*
X026239Y012389D01*
X026239Y012548D02*
X023761Y012548D01*
X023761Y012706D02*
X026239Y012706D01*
X026239Y012865D02*
X023761Y012865D01*
X023713Y013023D02*
X026239Y013023D01*
X026239Y013182D02*
X023554Y013182D01*
X023178Y013499D02*
X021934Y013499D01*
X022011Y013341D02*
X026239Y013341D01*
X026239Y010962D02*
X023524Y010962D01*
X023682Y010804D02*
X026239Y010804D01*
X026239Y010645D02*
X023761Y010645D01*
X023761Y010487D02*
X026239Y010487D01*
X026239Y010328D02*
X023761Y010328D01*
X023687Y010170D02*
X026239Y010170D01*
X026239Y010011D02*
X023528Y010011D01*
X023436Y009853D02*
X026239Y009853D01*
X026239Y009694D02*
X026239Y009567D01*
X026360Y009377D02*
X023621Y009377D01*
X023537Y009218D02*
X026611Y009218D01*
X022658Y011438D02*
X021995Y011438D01*
X021836Y011597D02*
X022601Y011597D01*
X022091Y011755D02*
X021825Y011755D01*
X021885Y012548D02*
X021924Y012548D01*
X021777Y012706D02*
X022083Y012706D01*
X021935Y012865D02*
X022601Y012865D01*
X022650Y013023D02*
X022011Y013023D01*
X022011Y013182D02*
X022809Y013182D01*
X013033Y019999D02*
X012871Y019999D01*
X012907Y020158D02*
X005611Y020158D01*
X005611Y020316D02*
X012841Y020316D01*
X012841Y020475D02*
X005599Y020475D01*
X005441Y020634D02*
X008441Y020634D01*
X008228Y020792D02*
X005282Y020792D01*
X004951Y020792D02*
X004911Y020792D01*
X004911Y020634D02*
X004951Y020634D01*
X004951Y020475D02*
X004911Y020475D01*
X004911Y020316D02*
X004951Y020316D01*
X004951Y020158D02*
X004911Y020158D01*
X004911Y019999D02*
X004951Y019999D01*
X004951Y019841D02*
X004911Y019841D01*
X004911Y019682D02*
X004951Y019682D01*
X004951Y019524D02*
X004911Y019524D01*
X007189Y019207D02*
X008068Y019207D01*
X008099Y019048D02*
X007395Y019048D01*
X007483Y018890D02*
X008164Y018890D01*
X008320Y018731D02*
X007521Y018731D01*
X009634Y020634D02*
X012877Y020634D01*
X012962Y020792D02*
X009848Y020792D01*
X009949Y020951D02*
X011354Y020951D01*
X011197Y021109D02*
X010007Y021109D01*
X010007Y021268D02*
X011131Y021268D01*
X011104Y021426D02*
X009975Y021426D01*
X009908Y021585D02*
X011106Y021585D01*
X011171Y021743D02*
X009750Y021743D01*
X012694Y020951D02*
X013082Y020951D01*
X012927Y021109D02*
X012873Y021109D01*
X012944Y022536D02*
X013086Y022536D01*
X013086Y022695D02*
X012897Y022695D01*
X012805Y022853D02*
X013086Y022853D01*
X013176Y023012D02*
X012605Y023012D01*
M02*
