G75*
G70*
%OFA0B0*%
%FSLAX24Y24*%
%IPPOS*%
%LPD*%
%AMOC8*
5,1,8,0,0,1.08239X$1,22.5*
%
%ADD10C,0.1182*%
%ADD11C,0.0600*%
%ADD12OC8,0.0600*%
%ADD13C,0.0680*%
%ADD14OC8,0.0680*%
%ADD15C,0.0595*%
%ADD16C,0.1080*%
%ADD17OC8,0.1080*%
%ADD18C,0.0740*%
%ADD19C,0.0730*%
%ADD20C,0.0600*%
D10*
X001681Y002181D03*
X001681Y021431D03*
X025431Y021431D03*
X025431Y002181D03*
D11*
X012941Y006181D02*
X012421Y006181D01*
X012421Y007181D02*
X012941Y007181D01*
X012941Y008181D02*
X012421Y008181D01*
X012421Y009181D02*
X012941Y009181D01*
X012941Y010181D02*
X012421Y010181D01*
X012421Y011181D02*
X012941Y011181D01*
X012941Y012181D02*
X012421Y012181D01*
X012421Y013181D02*
X012941Y013181D01*
X012941Y014181D02*
X012421Y014181D01*
X012421Y015181D02*
X012941Y015181D01*
X009941Y015181D02*
X009421Y015181D01*
X009421Y014181D02*
X009941Y014181D01*
X009941Y013181D02*
X009421Y013181D01*
X009421Y012181D02*
X009941Y012181D01*
X009941Y011181D02*
X009421Y011181D01*
X009421Y010181D02*
X009941Y010181D01*
X009941Y009181D02*
X009421Y009181D01*
X009421Y008181D02*
X009941Y008181D01*
X009941Y007181D02*
X009421Y007181D01*
X009421Y006181D02*
X009941Y006181D01*
X017171Y014181D02*
X017691Y014181D01*
X021171Y014181D02*
X021691Y014181D01*
X022181Y016421D02*
X022181Y016941D01*
X022181Y020421D02*
X022181Y020941D01*
X016941Y021431D02*
X016421Y021431D01*
X016421Y020431D02*
X016941Y020431D01*
X016941Y019431D02*
X016421Y019431D01*
X016421Y018431D02*
X016941Y018431D01*
X013941Y018431D02*
X013421Y018431D01*
X013421Y019431D02*
X013941Y019431D01*
X013941Y020431D02*
X013421Y020431D01*
X013421Y021431D02*
X013941Y021431D01*
X006941Y018681D02*
X006421Y018681D01*
X006421Y017181D02*
X006941Y017181D01*
X002941Y017181D02*
X002421Y017181D01*
X002421Y018681D02*
X002941Y018681D01*
D12*
X006681Y014744D03*
X006681Y013744D03*
X006744Y012619D03*
X006744Y011619D03*
X012681Y017431D03*
X012619Y018431D03*
X012619Y019431D03*
X013666Y022681D03*
X017666Y022681D03*
X018681Y020931D03*
X017681Y019431D03*
X016681Y017431D03*
X018681Y016931D03*
X017681Y015431D03*
X015681Y014681D03*
X013681Y014681D03*
X013619Y012681D03*
X015619Y012681D03*
X017431Y012181D03*
X017431Y011181D03*
X017431Y010181D03*
X017431Y009181D03*
X017431Y007181D03*
X017431Y006181D03*
X017431Y005181D03*
X017431Y004181D03*
X019431Y004181D03*
X021431Y005181D03*
X021431Y006181D03*
X021431Y007181D03*
X022931Y008181D03*
X021431Y009181D03*
X022431Y009985D03*
X023181Y010485D03*
X023181Y009485D03*
X021431Y010181D03*
X021431Y011181D03*
X021431Y012181D03*
X022431Y012235D03*
X023181Y012735D03*
X023181Y011735D03*
X021431Y013181D03*
X017431Y013181D03*
X009431Y005181D03*
X008431Y005181D03*
X008431Y004181D03*
X010431Y001681D03*
X011431Y001681D03*
X009431Y001181D03*
X004431Y004181D03*
X004431Y005181D03*
X014431Y004431D03*
X015181Y003931D03*
X015181Y004931D03*
X022931Y004181D03*
D13*
X017011Y002571D02*
X016411Y002571D01*
X016411Y000791D02*
X017011Y000791D01*
X014451Y000791D02*
X013851Y000791D01*
X013851Y002571D02*
X014451Y002571D01*
X014631Y006181D02*
X015231Y006181D01*
X015231Y007181D02*
X014631Y007181D01*
X014631Y008181D02*
X015231Y008181D01*
X015231Y009181D02*
X014631Y009181D01*
X014631Y010181D02*
X015231Y010181D01*
X015231Y011181D02*
X014631Y011181D01*
X005731Y011181D02*
X005131Y011181D01*
X005131Y010181D02*
X005731Y010181D01*
X005731Y009181D02*
X005131Y009181D01*
X005131Y008181D02*
X005731Y008181D01*
X005731Y007181D02*
X005131Y007181D01*
X005131Y006181D02*
X005731Y006181D01*
X005731Y012181D02*
X005131Y012181D01*
X005131Y013181D02*
X005731Y013181D01*
X005731Y014181D02*
X005131Y014181D01*
X005131Y015181D02*
X005731Y015181D01*
X011724Y021457D02*
X012324Y021457D01*
X012324Y022457D02*
X011724Y022457D01*
D14*
X003681Y016181D03*
X003681Y015181D03*
X003681Y014181D03*
X002681Y014181D03*
X002681Y015181D03*
X002681Y016181D03*
X002681Y013181D03*
X002681Y012181D03*
X002681Y011181D03*
X002681Y010181D03*
X003681Y010181D03*
X003681Y011181D03*
X003681Y012181D03*
X003681Y013181D03*
X006994Y010556D03*
X006994Y009556D03*
X006994Y008556D03*
X007994Y008556D03*
X007994Y009556D03*
X007994Y010556D03*
X007994Y007556D03*
X007994Y006556D03*
X006994Y006556D03*
X006994Y007556D03*
X003681Y007181D03*
X002681Y007181D03*
X002681Y008181D03*
X002681Y009181D03*
X003681Y009181D03*
X003681Y008181D03*
D15*
X019931Y016931D03*
X019931Y021931D03*
D16*
X024431Y017681D03*
X023528Y016111D03*
X004931Y022181D03*
D17*
X004931Y020181D03*
X023528Y014111D03*
X026181Y015931D03*
X024431Y019681D03*
X026181Y004681D03*
D18*
X021181Y017931D03*
X021181Y021931D03*
D19*
X009363Y021219D02*
X008713Y021219D01*
X008713Y019250D02*
X009363Y019250D01*
D20*
X008181Y014506D03*
X008181Y012606D03*
M02*
