%
M48
M72
T01C0.0315
T02C0.0320
T03C0.0400
T04C0.0433
T05C0.0440
T06C0.0512
T07C0.0551
T08C0.1102
%
T01
X19931Y16931
X19931Y21931
T02
X18681Y20931
X17681Y19431
X16681Y19431
X16681Y18431
X16681Y17431
X18681Y16931
X17681Y15431
X17431Y14181
X17431Y13181
X17431Y12181
X17431Y11181
X17431Y10181
X17431Y9181
X17431Y7181
X17431Y6181
X17431Y5181
X17431Y4181
X19431Y4181
X21431Y5181
X21431Y6181
X21431Y7181
X22931Y8181
X21431Y9181
X22431Y9985
X23181Y10485
X23181Y9485
X21431Y10181
X21431Y11181
X21431Y12181
X22431Y12235
X23181Y12735
X23181Y11735
X21431Y13181
X21431Y14181
X22181Y16681
X22181Y20681
X17666Y22681
X16681Y21431
X16681Y20431
X13681Y20431
X13681Y19431
X13681Y18431
X12619Y18431
X12619Y19431
X13681Y21431
X13666Y22681
X12681Y17431
X12681Y15181
X12681Y14181
X13681Y14681
X12681Y13181
X12681Y12181
X12681Y11181
X12681Y10181
X12681Y9181
X12681Y8181
X12681Y7181
X12681Y6181
X14431Y4431
X15181Y3931
X15181Y4931
X11431Y1681
X10431Y1681
X9431Y1181
X8431Y4181
X8431Y5181
X9431Y5181
X9681Y6181
X9681Y7181
X9681Y8181
X9681Y9181
X9681Y10181
X9681Y11181
X9681Y12181
X9681Y13181
X9681Y14181
X9681Y15181
X8181Y14506
X6681Y14744
X6681Y13744
X6744Y12619
X6744Y11619
X8181Y12606
X6681Y17181
X6681Y18681
X2681Y18681
X2681Y17181
X13619Y12681
X15619Y12681
X15681Y14681
X4431Y5181
X4431Y4181
X22931Y4181
T03
X16711Y2571
X16711Y791
X14151Y791
X14151Y2571
X14931Y6181
X14931Y7181
X14931Y8181
X14931Y9181
X14931Y10181
X14931Y11181
X7994Y10556
X7994Y9556
X7994Y8556
X6994Y8556
X6994Y9556
X6994Y10556
X5431Y10181
X5431Y11181
X5431Y12181
X5431Y13181
X5431Y14181
X5431Y15181
X3681Y15181
X3681Y14181
X2681Y14181
X2681Y15181
X2681Y16181
X3681Y16181
X3681Y13181
X3681Y12181
X3681Y11181
X3681Y10181
X2681Y10181
X2681Y11181
X2681Y12181
X2681Y13181
X2681Y9181
X2681Y8181
X2681Y7181
X3681Y7181
X3681Y8181
X3681Y9181
X5431Y9181
X5431Y8181
X5431Y7181
X5431Y6181
X6994Y6556
X7994Y6556
X7994Y7556
X6994Y7556
X4931Y20181
X4931Y22181
X12024Y22457
X12024Y21457
X23528Y16111
X24431Y17681
X24431Y19681
X23528Y14111
T04
X9038Y19250
X9038Y21219
T05
X21181Y21931
X21181Y17931
T06
X26181Y4681
T07
X26181Y15931
T08
X1681Y2181
X1681Y21431
X25431Y21431
X25431Y2181
M30
